# Blender 4.2.4 LTS
# www.blender.org
mtllib T_JUNCTION_001.mtl
o T_JUNCTION.001
v 114.680969 -3.829829 -0.898196
v 114.798485 -3.829829 -0.562350
v 114.987793 -3.829829 -0.261075
v 115.239388 -3.829829 -0.009477
v 115.540665 -3.829829 0.179826
v 115.876511 -3.829830 0.297344
v 116.230080 -3.829830 0.337182
v 116.583656 -3.829830 0.297344
v 116.919502 -3.829829 0.179826
v 117.220779 -3.829829 -0.009480
v 117.472374 -3.829829 -0.261075
v 117.661682 -3.829829 -0.562353
v 117.779198 -3.829829 -0.898199
v 117.819038 -3.829829 -1.251774
v 117.779198 -3.829829 -1.605349
v 117.661682 -3.829829 -1.941194
v 117.472374 -3.829829 -2.242469
v 117.220779 -3.829829 -2.494067
v 116.919502 -3.829829 -2.683370
v 116.583656 -3.829828 -2.800885
v 116.230080 -3.829828 -2.840723
v 115.876511 -3.829828 -2.800885
v 115.540665 -3.829829 -2.683367
v 115.239388 -3.829829 -2.494064
v 114.987793 -3.829829 -2.242466
v 114.798485 -3.829829 -1.941191
v 114.680969 -3.829829 -1.605346
v 114.641129 -3.829829 -1.251768
v 114.680969 -0.353575 -0.898196
v 114.798485 -0.689420 -0.562350
v 114.987793 -0.990695 -0.261075
v 115.239388 -1.242293 -0.009477
v 115.540665 -1.431597 0.179826
v 115.876511 -1.549114 0.297344
v 116.230080 -1.588952 0.337182
v 116.583656 -1.549114 0.297344
v 116.919502 -1.431596 0.179826
v 117.220779 -1.242292 -0.009477
v 117.472374 -0.990694 -0.261075
v 117.661682 -0.689418 -0.562350
v 117.779198 -0.353573 -0.898196
v 117.819038 0.000001 -1.251771
v 117.779198 0.000001 -1.605346
v 117.661682 0.000001 -1.941191
v 117.472374 0.000001 -2.242469
v 117.220779 0.000001 -2.494064
v 116.919502 0.000001 -2.683367
v 116.583656 0.000001 -2.800885
v 116.230080 0.000001 -2.840723
v 115.876511 0.000001 -2.800885
v 115.540665 0.000001 -2.683367
v 115.239388 0.000001 -2.494061
v 114.987793 0.000001 -2.242463
v 114.798485 0.000001 -1.941188
v 114.680969 0.000001 -1.605343
v 117.779198 0.353576 3.832878
v 117.779198 3.829831 -0.898199
v 117.661682 3.829831 -0.562353
v 117.472374 3.829831 -0.261075
v 117.220779 3.829831 -0.009480
v 116.919502 3.829831 0.179826
v 116.583656 3.829831 0.297344
v 116.230080 3.829831 0.337179
v 115.876511 3.829831 0.297341
v 115.540665 3.829831 0.179826
v 115.239388 3.829831 -0.009480
v 114.987793 3.829831 -0.261079
v 114.798485 3.829831 -0.562353
v 114.680969 3.829831 -0.898199
v 114.641129 3.829831 -1.251774
v 114.680969 3.829830 -1.605349
v 114.798485 3.829831 -1.941194
v 114.987793 3.829830 -2.242469
v 115.239388 3.829830 -2.494067
v 115.540665 3.829830 -2.683370
v 115.876511 3.829830 -2.800888
v 116.230080 3.829830 -2.840723
v 116.583656 3.829830 -2.800885
v 116.919502 3.829830 -2.683367
v 117.220779 3.829830 -2.494064
v 117.472374 3.829830 -2.242466
v 117.661682 3.829831 -1.941191
v 117.779198 3.829830 -1.605346
v 117.819038 3.829831 -1.251771
v 117.779198 0.353576 -0.898196
v 117.661682 0.689422 -0.562350
v 117.472374 0.990697 -0.261075
v 117.220779 1.242294 -0.009477
v 116.919502 1.431598 0.179826
v 116.583656 1.549116 0.297344
v 116.230080 1.588954 0.337182
v 115.876511 1.549115 0.297344
v 115.540665 1.431598 0.179826
v 115.239388 1.242294 -0.009477
v 114.987793 0.990695 -0.261075
v 114.798485 0.689420 -0.562350
v 114.680969 0.353574 -0.898196
v 114.641129 0.000001 -1.251771
v 117.819038 0.000001 3.832878
v 117.779198 -0.353573 3.832878
v 117.661682 -0.689418 3.832878
v 117.472374 -0.990694 3.832878
v 117.220779 -1.242292 3.832879
v 116.919502 -1.431596 3.832878
v 116.583656 -1.549113 3.832878
v 116.230080 -1.588952 3.832878
v 115.876511 -1.549114 3.832878
v 115.540665 -1.431596 3.832878
v 115.239388 -1.242293 3.832879
v 114.987793 -0.990695 3.832878
v 114.798485 -0.689420 3.832878
v 114.680969 -0.353574 3.832878
v 117.661682 0.689422 3.832878
v 117.472374 0.990697 3.832878
v 117.220779 1.242294 3.832878
v 116.919502 1.431597 3.832878
v 116.583656 1.549116 3.832878
v 116.230080 1.588954 3.832878
v 115.876511 1.549115 3.832878
v 115.540665 1.431597 3.832878
v 115.239388 1.242293 3.832878
v 114.987793 0.990695 3.832878
v 114.798485 0.689420 3.832878
v 114.680969 0.353574 3.832878
v 114.641129 0.000001 3.832878
vn -0.9749 -0.0000 0.2225
vn -0.9010 -0.0000 0.4339
vn -0.7818 -0.0000 0.6235
vn -0.6235 -0.0000 0.7818
vn -0.4339 -0.0000 0.9010
vn -0.2225 -0.0000 0.9749
vn -0.0000 -0.0000 1.0000
vn 0.2225 -0.0000 0.9749
vn 0.4339 -0.0000 0.9010
vn 0.6235 -0.0000 0.7818
vn 0.7818 -0.0000 0.6235
vn 0.9010 -0.0000 0.4339
vn 0.9749 -0.0000 0.2225
vn 1.0000 -0.0000 -0.0000
vn 0.9749 -0.0000 -0.2225
vn 0.9010 -0.0000 -0.4339
vn 0.7818 -0.0000 -0.6235
vn 0.6235 -0.0000 -0.7818
vn 0.4339 -0.0000 -0.9010
vn 0.2225 -0.0000 -0.9749
vn -0.0000 -0.0000 -1.0000
vn -0.2225 -0.0000 -0.9749
vn -0.4339 -0.0000 -0.9010
vn -0.6235 -0.0000 -0.7818
vn -0.7818 -0.0000 -0.6235
vn -0.9010 -0.0000 -0.4339
vn -0.9749 -0.0000 -0.2225
vn -1.0000 -0.0000 -0.0000
vn -0.9927 -0.0851 0.0851
vn -0.9587 -0.2012 0.2012
vn -0.8899 -0.3225 0.3225
vn -0.7731 -0.4485 0.4485
vn -0.5894 -0.5712 0.5712
vn -0.3256 -0.6686 0.6686
vn -0.0000 -0.7071 0.7071
vn 0.3256 -0.6686 0.6686
vn 0.5894 -0.5712 0.5712
vn 0.7730 -0.4486 0.4486
vn 0.8899 -0.3225 0.3225
vn 0.9587 -0.2012 0.2012
vn 0.9927 -0.0851 0.0851
vn 0.9996 -0.0000 -0.0280
vn 0.9749 0.2225 -0.0000
vn 0.9927 0.0851 0.0851
vn 0.9587 0.2012 0.2012
vn 0.8899 0.3225 0.3225
vn 0.7730 0.4486 0.4486
vn 0.5894 0.5712 0.5712
vn 0.3256 0.6686 0.6686
vn -0.0000 0.7071 0.7071
vn -0.3256 0.6686 0.6686
vn -0.5894 0.5712 0.5712
vn -0.7731 0.4485 0.4485
vn -0.8899 0.3225 0.3225
vn -0.9587 0.2012 0.2012
vn -0.9927 0.0851 0.0851
vn -0.9996 -0.0000 -0.0280
vn 0.9749 -0.2225 -0.0000
vn 0.9010 -0.4339 -0.0000
vn 0.7818 -0.6235 -0.0000
vn 0.6235 -0.7818 -0.0000
vn 0.4339 -0.9010 -0.0000
vn 0.2225 -0.9749 -0.0000
vn -0.0000 -1.0000 -0.0000
vn -0.2225 -0.9749 -0.0000
vn -0.4339 -0.9010 -0.0000
vn -0.6235 -0.7818 -0.0000
vn -0.7818 -0.6235 -0.0000
vn -0.9010 -0.4339 -0.0000
vn -0.9749 -0.2225 -0.0000
vn 0.9010 0.4339 -0.0000
vn 0.7818 0.6235 -0.0000
vn 0.6235 0.7818 -0.0000
vn 0.4339 0.9010 -0.0000
vn 0.2225 0.9749 -0.0000
vn -0.0000 1.0000 -0.0000
vn -0.2225 0.9749 -0.0000
vn -0.4339 0.9010 -0.0000
vn -0.6235 0.7818 -0.0000
vn -0.7818 0.6235 -0.0000
vn -0.9010 0.4339 -0.0000
vn -0.9749 0.2225 -0.0000
vt 0.322953 0.522662
vt 0.322953 0.285499
vt 0.347089 0.261285
vt 0.347089 0.522571
vt 0.300028 0.522931
vt 0.300028 0.308680
vt 0.279462 0.523364
vt 0.279462 0.329668
vt 0.262287 0.523940
vt 0.262287 0.347409
vt 0.134404 0.717745
vt 0.134404 0.554037
vt 0.153393 0.541115
vt 0.153393 0.717745
vt 0.112520 0.717745
vt 0.112520 0.562059
vt 0.088841 0.717745
vt 0.088841 0.564778
vt 0.064552 0.717745
vt 0.064552 0.562059
vt 0.040873 0.717745
vt 0.040873 0.554037
vt 0.018990 0.717745
vt 0.018990 0.541115
vt 0.000000 0.717745
vt 0.000000 0.523940
vt 0.546579 0.523004
vt 0.546579 0.308753
vt 0.567145 0.328874
vt 0.567145 0.522571
vt 0.523653 0.523273
vt 0.523653 0.286110
vt 0.499518 0.523364
vt 0.499518 0.262079
vt 0.475382 0.523273
vt 0.475382 0.261988
vt 0.452456 0.523004
vt 0.452456 0.261719
vt 0.431891 0.522571
vt 0.431891 0.261285
vt 0.916458 0.522865
vt 0.916458 0.261432
vt 0.935448 0.261432
vt 0.935448 0.522865
vt 0.894575 0.522865
vt 0.894575 0.261432
vt 0.870895 0.522865
vt 0.870895 0.261432
vt 0.846607 0.522865
vt 0.846607 0.261432
vt 0.976321 0.522865
vt 0.976320 0.261432
vt 1.000000 0.261432
vt 1.000000 0.522865
vt 0.954437 0.522865
vt 0.954437 0.261432
vt 0.935448 0.522865
vt 0.935448 0.261432
vt 0.414716 0.523364
vt 0.414716 0.262079
vt 0.431890 0.262655
vt 0.431891 0.523940
vt 0.394150 0.522931
vt 0.394150 0.261645
vt 0.371225 0.522662
vt 0.371225 0.261377
vt 0.523653 0.000702
vt 0.523654 0.237865
vt 0.499518 0.000793
vt 0.546579 0.000433
vt 0.546579 0.214684
vt 0.567145 0.000000
vt 0.567145 0.193696
vt 0.172383 0.523940
vt 0.172383 0.700571
vt 0.153393 0.717745
vt 0.153393 0.523940
vt 0.194266 0.523940
vt 0.194266 0.687649
vt 0.217945 0.523940
vt 0.217945 0.679627
vt 0.242234 0.523940
vt 0.242234 0.676907
vt 0.265914 0.523940
vt 0.265914 0.679626
vt 0.242234 0.676907
vt 0.242234 0.523940
vt 0.287797 0.523940
vt 0.287797 0.687648
vt 0.306786 0.523940
vt 0.306786 0.700571
vt 0.279462 0.000793
vt 0.279462 0.194490
vt 0.262287 0.177901
vt 0.262287 0.001369
vt 0.300028 0.000360
vt 0.300028 0.214611
vt 0.322953 0.000091
vt 0.322953 0.237254
vt 0.347089 0.000000
vt 0.371225 0.000091
vt 0.394150 0.000360
vt 0.414716 0.000793
vt 0.431891 0.001369
vt 0.954437 0.000000
vt 0.935448 0.000000
vt 0.976321 0.000000
vt 1.000000 0.000000
vt 0.870895 0.000000
vt 0.846607 0.000000
vt 0.894575 0.000000
vt 0.916458 0.000000
vt 0.935448 0.000000
vt 0.452456 0.000433
vt 0.431891 0.000000
vt 0.475382 0.000702
vt 0.520731 0.761988
vt 0.496443 0.764707
vt 0.496443 0.523364
vt 0.520731 0.523364
vt 0.696008 0.544308
vt 0.719687 0.547028
vt 0.719687 0.785652
vt 0.696008 0.785652
vt -0.000000 0.347409
vt 0.000000 0.329668
vt 0.846607 0.286110
vt 0.846607 0.308753
vt 0.846607 0.193696
vt 0.846607 0.214684
vt -0.000000 0.214611
vt -0.000000 0.194490
vt 0.472763 0.772729
vt 0.472763 0.523364
vt 0.585284 0.547028
vt 0.609572 0.544308
vt 0.609572 0.785652
vt 0.585284 0.785652
vt 0.585284 0.785651
vt 0.566294 0.772729
vt 0.566294 0.523364
vt 0.585284 0.523364
vt 0.846607 0.262079
vt 0.738677 0.523364
vt 0.756417 0.540539
vt 0.756417 0.802826
vt 0.738677 0.802826
vt 0.000000 0.237255
vt 0.450880 0.785652
vt 0.450880 0.523364
vt 0.633252 0.536286
vt 0.633252 0.785652
vt 0.544411 0.764707
vt 0.544411 0.523364
vt 0.655135 0.523364
vt 0.674124 0.536286
vt 0.674124 0.785652
vt 0.655135 0.785652
vt 0.000000 0.261285
vt 0.000000 0.308680
vt 0.000000 0.285499
vt 0.431891 0.802826
vt 0.431891 0.523364
vt 0.655135 0.523364
vt 0.846607 0.328874
vt 0.846607 0.237865
vt 0.719687 0.540539
vt 0.719687 0.802826
s 1
usemtl 
f 1/1/1 29/2/29 98/3/57 28/4/28
f 2/5/2 30/6/30 29/2/29 1/1/1
f 3/7/3 31/8/31 30/6/30 2/5/2
f 4/9/4 32/10/32 31/8/31 3/7/3
f 5/11/5 33/12/33 32/13/32 4/14/4
f 6/15/6 34/16/34 33/12/33 5/11/5
f 7/17/7 35/18/35 34/16/34 6/15/6
f 8/19/8 36/20/36 35/18/35 7/17/7
f 9/21/9 37/22/37 36/20/36 8/19/8
f 10/23/10 38/24/38 37/22/37 9/21/9
f 11/25/11 39/26/39 38/24/38 10/23/10
f 12/27/12 40/28/40 39/29/39 11/30/11
f 13/31/13 41/32/41 40/28/40 12/27/12
f 14/33/14 42/34/42 41/32/41 13/31/13
f 15/35/15 43/36/15 42/34/42 14/33/14
f 16/37/16 44/38/16 43/36/15 15/35/15
f 17/39/17 45/40/17 44/38/16 16/37/16
f 18/41/18 46/42/18 45/43/17 17/44/17
f 19/45/19 47/46/19 46/42/18 18/41/18
f 20/47/20 48/48/20 47/46/19 19/45/19
f 21/49/21 49/50/21 48/48/20 20/47/20
f 22/51/22 50/52/22 49/53/21 21/54/21
f 23/55/23 51/56/23 50/52/22 22/51/22
f 24/57/24 52/58/24 51/56/23 23/55/23
f 25/59/25 53/60/25 52/61/24 24/62/24
f 26/63/26 54/64/26 53/60/25 25/59/25
f 27/65/27 55/66/27 54/64/26 26/63/26
f 28/4/28 98/3/57 55/66/27 27/65/27
f 57/67/13 85/68/44 42/34/42 84/69/14
f 58/70/12 86/71/45 85/68/44 57/67/13
f 59/72/11 87/73/46 86/71/45 58/70/12
f 60/74/10 88/75/47 87/76/46 59/77/11
f 61/78/9 89/79/48 88/75/47 60/74/10
f 62/80/8 90/81/49 89/79/48 61/78/9
f 63/82/7 91/83/50 90/81/49 62/80/8
f 64/84/6 92/85/51 91/86/50 63/87/7
f 65/88/5 93/89/52 92/85/51 64/84/6
f 66/90/4 94/91/53 93/89/52 65/88/5
f 67/92/3 95/93/54 94/94/53 66/95/4
f 68/96/2 96/97/55 95/93/54 67/92/3
f 69/98/1 97/99/56 96/97/55 68/96/2
f 70/100/28 98/3/57 97/99/56 69/98/1
f 71/101/27 55/66/27 98/3/57 70/100/28
f 72/102/26 54/64/26 55/66/27 71/101/27
f 73/103/25 53/60/25 54/64/26 72/102/26
f 74/104/24 52/61/24 53/60/25 73/103/25
f 75/105/23 51/56/23 52/58/24 74/106/24
f 76/107/22 50/52/22 51/56/23 75/105/23
f 77/108/21 49/53/21 50/52/22 76/107/22
f 78/109/20 48/48/20 49/50/21 77/110/21
f 79/111/19 47/46/19 48/48/20 78/109/20
f 80/112/18 46/42/18 47/46/19 79/111/19
f 81/113/17 45/43/17 46/42/18 80/112/18
f 82/114/16 44/38/16 45/40/17 81/115/17
f 83/116/15 43/36/15 44/38/16 82/114/16
f 84/69/14 42/34/42 43/36/15 83/116/15
f 35/117/35 36/118/36 105/119/63 106/120/64
f 90/121/49 91/122/50 118/123/76 117/124/75
f 31/8/31 32/10/32 109/125/67 110/126/68
f 40/28/40 41/32/41 100/127/58 101/128/59
f 86/71/45 87/73/46 114/129/72 113/130/71
f 95/93/54 96/97/55 123/131/81 122/132/80
f 36/118/36 37/133/37 104/134/62 105/119/63
f 91/135/50 92/136/51 119/137/77 118/138/76
f 32/139/32 33/140/33 108/141/66 109/142/67
f 41/32/41 42/34/42 99/143/14 100/127/58
f 87/144/46 88/145/47 115/146/73 114/147/72
f 96/97/55 97/99/56 124/148/82 123/131/81
f 37/133/37 38/149/38 103/150/61 104/134/62
f 92/136/51 93/151/52 120/152/78 119/137/77
f 33/140/33 34/153/34 107/154/65 108/141/66
f 88/155/47 89/156/48 116/157/74 115/158/73
f 97/99/56 98/3/57 125/159/28 124/148/82
f 29/2/29 30/6/30 111/160/69 112/161/70
f 38/149/38 39/162/39 102/163/60 103/150/61
f 93/151/52 94/164/53 121/158/79 120/152/78
f 98/3/57 29/2/29 112/161/70 125/159/28
f 34/153/34 35/117/35 106/120/64 107/154/65
f 89/156/48 90/121/49 117/124/75 116/157/74
f 30/6/30 31/8/31 110/126/68 111/160/69
f 39/29/39 40/28/40 101/128/59 102/165/60
f 85/68/44 86/71/45 113/130/71 56/166/43
f 94/167/53 95/144/54 122/147/80 121/168/79
f 42/34/42 85/68/44 56/166/43 99/143/14
