# Blender 4.2.4 LTS
# www.blender.org
mtllib FenceRail.mtl
o Rail.001
v 0.001940 5.847787 1.665731
v 0.034413 5.840938 1.670508
v 0.063803 5.821435 1.676748
v 0.083441 5.792247 1.686781
v 0.090337 5.757817 1.690303
v 0.083441 5.723387 1.686780
v 0.063803 5.694198 1.676747
v 0.034413 5.674695 1.670506
v 0.001940 5.667847 1.665730
v -0.034922 5.674695 1.671182
v -0.064312 5.694198 1.679018
v -0.083950 5.723387 1.688997
v -0.090846 5.757817 1.692501
v -0.083950 5.792247 1.688997
v -0.064312 5.821435 1.679018
v -0.034922 5.840938 1.671183
v 0.001940 4.098558 1.665731
v 0.034413 4.091710 1.670508
v 0.063803 4.072207 1.676749
v 0.083441 4.043019 1.686781
v 0.090337 4.008589 1.690304
v 0.083441 3.974158 1.686780
v 0.063803 3.944970 1.676747
v 0.034413 3.925467 1.670506
v 0.001940 3.918619 1.665730
v -0.034922 3.925467 1.671182
v -0.064312 3.944970 1.679018
v -0.083950 3.974158 1.688997
v -0.090846 4.008589 1.692501
v -0.083950 4.043019 1.688997
v -0.064312 4.072207 1.679018
v -0.034922 4.091710 1.671183
v 0.001940 5.847787 -1.672937
v 0.034413 5.840938 -1.677713
v 0.063803 5.821435 -1.683954
v 0.083441 5.792247 -1.693986
v 0.090337 5.757817 -1.697509
v 0.083441 5.723387 -1.693985
v 0.063803 5.694198 -1.683952
v 0.034413 5.674695 -1.677711
v 0.001940 5.667847 -1.672935
v -0.034922 5.674695 -1.678387
v -0.064312 5.694198 -1.686223
v -0.083950 5.723387 -1.696202
v -0.090846 5.757817 -1.699706
v -0.083950 5.792247 -1.696202
v -0.064312 5.821435 -1.686223
v -0.034922 5.840938 -1.678388
v 0.001940 4.098558 -1.672937
v 0.034413 4.091710 -1.677713
v 0.063803 4.072207 -1.683954
v 0.083441 4.043019 -1.693986
v 0.090337 4.008589 -1.697509
v 0.083441 3.974158 -1.693985
v 0.063803 3.944970 -1.683952
v 0.034413 3.925467 -1.677711
v 0.001940 3.918619 -1.672935
v -0.034922 3.925467 -1.678387
v -0.064312 3.944970 -1.686223
v -0.083950 3.974158 -1.696202
v -0.090846 4.008589 -1.699706
v -0.083950 4.043019 -1.696202
v -0.064312 4.072207 -1.686223
v -0.034922 4.091710 -1.678388
v 0.001940 4.098558 1.672680
v 0.002428 4.121442 1.625846
v 0.043163 4.112854 1.625843
v 0.034413 4.091710 1.672680
v 0.063803 4.072207 1.672680
v 0.080030 4.088391 1.625842
v 0.104663 4.051777 1.625843
v 0.083441 4.043019 1.672680
v 0.113312 4.008589 1.625843
v 0.090337 4.008589 1.672680
v 0.104663 3.965400 1.625843
v 0.083441 3.974158 1.672680
v 0.080030 3.928786 1.625842
v 0.063803 3.944970 1.672680
v 0.034413 3.925467 1.672680
v 0.043163 3.904322 1.625843
v 0.002428 3.895735 1.625846
v 0.001940 3.918619 1.672680
v -0.043807 3.904331 1.625850
v -0.034922 3.925467 1.672680
v -0.064312 3.944970 1.672680
v -0.080664 3.928799 1.625857
v -0.105287 3.965409 1.625863
v -0.083950 3.974158 1.672680
v -0.113933 4.008589 1.625865
v -0.090846 4.008589 1.672680
v -0.105287 4.051767 1.625863
v -0.083950 4.043019 1.672680
v -0.080664 4.088378 1.625857
v -0.064312 4.072207 1.672680
v -0.034922 4.091710 1.672680
v -0.043807 4.112846 1.625850
v 0.002947 4.145757 1.606713
v 0.003435 4.168641 1.559878
v 0.061205 4.156458 1.559878
v 0.052456 4.135313 1.606715
v 0.097262 4.105579 1.606716
v 0.113488 4.121763 1.559878
v 0.148423 4.069838 1.559878
v 0.127201 4.061080 1.606715
v 0.160690 4.008589 1.559878
v 0.137715 4.008589 1.606715
v 0.148423 3.947339 1.559878
v 0.127201 3.956097 1.606715
v 0.113488 3.895414 1.559878
v 0.097262 3.911598 1.606716
v 0.052456 3.881863 1.606715
v 0.061205 3.860719 1.559878
v 0.003435 3.848536 1.559878
v 0.002947 3.871420 1.606713
v -0.062141 3.860719 1.559878
v -0.053255 3.881855 1.606708
v -0.098072 3.911585 1.606701
v -0.114424 3.895414 1.559878
v -0.149359 3.947339 1.559878
v -0.128022 3.956088 1.606696
v -0.161626 4.008589 1.559878
v -0.138539 4.008589 1.606694
v -0.149359 4.069838 1.559878
v -0.128022 4.061089 1.606696
v -0.114424 4.121763 1.559878
v -0.098072 4.105592 1.606701
v -0.053255 4.135322 1.606708
v -0.062141 4.156458 1.559878
v 0.002428 5.870671 -1.633051
v 0.001940 5.847787 -1.679885
v 0.034413 5.840938 -1.679885
v 0.043163 5.862082 -1.633048
v 0.080030 5.837619 -1.633047
v 0.063803 5.821435 -1.679885
v 0.083441 5.792247 -1.679885
v 0.104663 5.801005 -1.633048
v 0.090337 5.757817 -1.679885
v 0.113312 5.757817 -1.633048
v 0.083441 5.723387 -1.679885
v 0.104663 5.714628 -1.633048
v 0.063803 5.694198 -1.679885
v 0.080030 5.678014 -1.633047
v 0.043163 5.653551 -1.633048
v 0.034413 5.674695 -1.679885
v 0.001940 5.667847 -1.679885
v 0.002428 5.644963 -1.633051
v -0.034922 5.674695 -1.679885
v -0.043807 5.653559 -1.633055
v -0.080664 5.678027 -1.633062
v -0.064312 5.694198 -1.679885
v -0.083950 5.723387 -1.679885
v -0.105287 5.714638 -1.633067
v -0.090846 5.757817 -1.679885
v -0.113933 5.757817 -1.633070
v -0.083950 5.792247 -1.679885
v -0.105287 5.800996 -1.633067
v -0.064312 5.821435 -1.679885
v -0.080664 5.837606 -1.633062
v -0.043807 5.862074 -1.633055
v -0.034922 5.840938 -1.679885
v 0.002428 4.121442 -1.633051
v 0.001940 4.098558 -1.679885
v 0.034413 4.091710 -1.679885
v 0.043163 4.112854 -1.633048
v 0.080030 4.088391 -1.633047
v 0.063803 4.072207 -1.679885
v 0.083441 4.043019 -1.679885
v 0.104663 4.051777 -1.633048
v 0.090337 4.008589 -1.679885
v 0.113312 4.008589 -1.633048
v 0.083441 3.974158 -1.679885
v 0.104663 3.965400 -1.633048
v 0.063803 3.944970 -1.679885
v 0.080030 3.928786 -1.633047
v 0.043163 3.904322 -1.633048
v 0.034413 3.925467 -1.679885
v 0.001940 3.918619 -1.679885
v 0.002428 3.895735 -1.633051
v -0.034922 3.925467 -1.679885
v -0.043807 3.904331 -1.633055
v -0.080664 3.928799 -1.633062
v -0.064312 3.944970 -1.679885
v -0.083950 3.974158 -1.679885
v -0.105287 3.965409 -1.633067
v -0.090846 4.008589 -1.679885
v -0.113933 4.008589 -1.633070
v -0.083950 4.043019 -1.679885
v -0.105287 4.051767 -1.633067
v -0.064312 4.072207 -1.679885
v -0.080664 4.088378 -1.633062
v -0.043807 4.112846 -1.633055
v -0.034922 4.091710 -1.679885
v 0.003435 5.917869 -1.567083
v 0.002947 5.894986 -1.613918
v 0.052456 5.884541 -1.613920
v 0.061205 5.905686 -1.567083
v 0.113488 5.870991 -1.567083
v 0.097262 5.854807 -1.613921
v 0.127201 5.810307 -1.613920
v 0.148423 5.819066 -1.567083
v 0.137715 5.757817 -1.613920
v 0.160690 5.757816 -1.567083
v 0.127201 5.705326 -1.613920
v 0.148423 5.696567 -1.567083
v 0.097262 5.660826 -1.613921
v 0.113488 5.644642 -1.567083
v 0.061205 5.609947 -1.567083
v 0.052456 5.631092 -1.613920
v 0.002947 5.620648 -1.613918
v 0.003435 5.597764 -1.567083
v -0.053255 5.631083 -1.613913
v -0.062141 5.609947 -1.567083
v -0.114424 5.644642 -1.567083
v -0.098072 5.660813 -1.613906
v -0.128022 5.705316 -1.613900
v -0.149359 5.696567 -1.567083
v -0.138539 5.757817 -1.613899
v -0.161626 5.757816 -1.567083
v -0.128022 5.810317 -1.613900
v -0.149359 5.819066 -1.567083
v -0.098072 5.854820 -1.613906
v -0.114424 5.870991 -1.567083
v -0.062141 5.905686 -1.567083
v -0.053255 5.884550 -1.613913
v 0.003435 4.168641 -1.567083
v 0.002947 4.145757 -1.613918
v 0.052456 4.135313 -1.613920
v 0.061205 4.156458 -1.567083
v 0.113488 4.121763 -1.567083
v 0.097262 4.105579 -1.613921
v 0.127201 4.061080 -1.613920
v 0.148423 4.069838 -1.567083
v 0.137715 4.008589 -1.613920
v 0.160690 4.008589 -1.567083
v 0.127201 3.956097 -1.613920
v 0.148423 3.947339 -1.567083
v 0.097262 3.911598 -1.613921
v 0.113488 3.895414 -1.567083
v 0.061205 3.860719 -1.567083
v 0.052456 3.881863 -1.613920
v 0.002947 3.871420 -1.613918
v 0.003435 3.848536 -1.567083
v -0.053255 3.881855 -1.613913
v -0.062141 3.860719 -1.567083
v -0.114424 3.895414 -1.567083
v -0.098072 3.911585 -1.613906
v -0.128022 3.956088 -1.613900
v -0.149359 3.947339 -1.567083
v -0.138539 4.008589 -1.613899
v -0.161626 4.008589 -1.567083
v -0.128022 4.061089 -1.613900
v -0.149359 4.069838 -1.567083
v -0.098072 4.105592 -1.613906
v -0.114424 4.121763 -1.567083
v -0.062141 4.156458 -1.567083
v -0.053255 4.135322 -1.613913
v 0.050234 4.129945 -0.824901
v 0.050234 4.129945 0.817697
v 0.002823 4.139944 0.817696
v 0.002823 4.139944 -0.824901
v -0.050995 4.129945 0.817696
v -0.050995 4.129945 -0.824901
v 0.093144 4.101471 -0.824901
v 0.093144 4.101471 0.817697
v 0.121815 4.058856 -0.824901
v 0.121815 4.058856 0.817697
v 0.131883 4.008589 -0.824901
v 0.131883 4.008589 0.817697
v 0.121815 3.958321 -0.824901
v 0.121815 3.958321 0.817697
v 0.093144 3.915706 -0.824901
v 0.093144 3.915706 0.817697
v 0.050234 3.887232 -0.824901
v 0.050234 3.887232 0.817697
v 0.002823 3.877233 -0.824901
v 0.002823 3.877233 0.817697
v -0.050995 3.887232 -0.824901
v -0.050995 3.887232 0.817697
v -0.093905 3.915706 -0.824901
v -0.093905 3.915706 0.817697
v -0.122576 3.958321 -0.824901
v -0.122576 3.958321 0.817697
v -0.132644 4.008589 -0.824901
v -0.132644 4.008589 0.817697
v -0.122576 4.058856 -0.824901
v -0.122576 4.058856 0.817697
v -0.093905 4.101471 -0.824901
v -0.093905 4.101471 0.817697
v 0.002823 5.889172 -0.818059
v 0.002823 5.889172 0.839683
v -0.050995 5.879173 0.839683
v -0.050995 5.879173 -0.818059
v 0.050234 5.879173 -0.818059
v 0.050234 5.879173 0.839683
v 0.093144 5.850699 -0.818059
v 0.093144 5.850699 0.839683
v 0.121815 5.808084 -0.818059
v 0.121815 5.808084 0.839683
v 0.131883 5.757816 -0.818059
v 0.131883 5.757816 0.839683
v 0.121815 5.707549 -0.818059
v 0.121815 5.707549 0.839683
v 0.093144 5.664934 -0.818059
v 0.093144 5.664934 0.839683
v 0.050234 5.636460 -0.818059
v 0.050234 5.636460 0.839683
v 0.002823 5.626461 -0.818059
v 0.002823 5.626461 0.839683
v -0.050995 5.636460 -0.818059
v -0.050995 5.636460 0.839683
v -0.093905 5.664934 -0.818059
v -0.093905 5.664934 0.839683
v -0.122576 5.707549 -0.818059
v -0.122576 5.707549 0.839683
v -0.132644 5.757816 -0.818059
v -0.132644 5.757816 0.839683
v -0.122576 5.808084 -0.818059
v -0.122576 5.808084 0.839683
v -0.093905 5.850699 -0.818059
v -0.093905 5.850699 0.839683
v 0.001940 5.847787 1.663528
v 0.002273 5.863405 1.631562
v 0.040385 5.855370 1.631561
v 0.034413 5.840938 1.663528
v 0.063803 5.821435 1.663528
v 0.074878 5.832481 1.631560
v 0.097925 5.798225 1.631560
v 0.083441 5.792247 1.663528
v 0.106018 5.757817 1.631560
v 0.090337 5.757817 1.663528
v 0.097925 5.717409 1.631560
v 0.083441 5.723387 1.663528
v 0.074878 5.683152 1.631560
v 0.063803 5.694198 1.663528
v 0.034413 5.674695 1.663528
v 0.040385 5.660264 1.631561
v 0.002273 5.652228 1.631562
v 0.001940 5.667847 1.663528
v -0.040986 5.660269 1.631565
v -0.034922 5.674695 1.663528
v -0.064312 5.694198 1.663528
v -0.075473 5.683161 1.631570
v -0.098513 5.717415 1.631574
v -0.083950 5.723387 1.663528
v -0.106603 5.757817 1.631575
v -0.090846 5.757817 1.663528
v -0.098513 5.798218 1.631574
v -0.083950 5.792247 1.663528
v -0.075473 5.832472 1.631570
v -0.064312 5.821435 1.663528
v -0.034922 5.840938 1.663528
v -0.040987 5.855364 1.631565
v 0.003102 5.902250 1.600996
v 0.003435 5.917869 1.569030
v 0.061205 5.905686 1.569030
v 0.055233 5.891254 1.600998
v 0.102413 5.859945 1.600998
v 0.113488 5.870991 1.569030
v 0.148423 5.819066 1.569030
v 0.133939 5.813088 1.600998
v 0.160690 5.757816 1.569030
v 0.145009 5.757817 1.600998
v 0.148423 5.696567 1.569030
v 0.133939 5.702545 1.600998
v 0.113488 5.644642 1.569030
v 0.102413 5.655688 1.600998
v 0.055233 5.624379 1.600998
v 0.061205 5.609947 1.569030
v 0.003435 5.597764 1.569030
v 0.003102 5.613383 1.600996
v -0.062141 5.609947 1.569030
v -0.056076 5.624373 1.600993
v -0.103263 5.655679 1.600988
v -0.114424 5.644642 1.569030
v -0.149359 5.696567 1.569030
v -0.134796 5.702538 1.600984
v -0.161626 5.757816 1.569030
v -0.145869 5.757817 1.600983
v -0.149359 5.819066 1.569030
v -0.134796 5.813095 1.600984
v -0.114424 5.870991 1.569030
v -0.103263 5.859954 1.600988
v -0.056076 5.891260 1.600993
v -0.062141 5.905686 1.569030
v 0.002411 5.855120 -0.265478
v 0.002411 5.855120 0.287102
v -0.038213 5.847609 0.287102
v -0.038213 5.847609 -0.265479
v 0.037071 5.847765 -0.265478
v 0.037071 5.847765 0.287102
v 0.069140 5.826542 -0.265478
v 0.069140 5.826542 0.287102
v 0.090382 5.794981 -0.265478
v 0.090382 5.794981 0.287102
v 0.097828 5.757816 -0.265478
v 0.097828 5.757816 0.287102
v 0.090382 5.720652 -0.265478
v 0.090382 5.720652 0.287102
v 0.069140 5.689090 -0.265478
v 0.069140 5.689090 0.287102
v 0.037071 5.667867 -0.265478
v 0.037071 5.667867 0.287102
v 0.002411 5.660513 -0.265478
v 0.002411 5.660513 0.287102
v -0.038213 5.668024 -0.265478
v -0.038213 5.668024 0.287102
v -0.069901 5.689090 -0.265478
v -0.069901 5.689090 0.287102
v -0.091143 5.720652 -0.265478
v -0.091143 5.720652 0.287102
v -0.098589 5.757816 -0.265478
v -0.098589 5.757816 0.287102
v -0.091143 5.794981 -0.265478
v -0.091143 5.794981 0.287102
v -0.069901 5.826542 -0.265478
v -0.069901 5.826542 0.287102
v 0.037071 4.098538 -0.277369
v 0.037071 4.098538 0.270164
v 0.002411 4.105892 0.270164
v 0.002411 4.105892 -0.277369
v -0.038213 4.098381 0.270164
v -0.038213 4.098381 -0.277369
v 0.069140 4.077314 -0.277369
v 0.069140 4.077314 0.270164
v 0.090382 4.045753 -0.277369
v 0.090382 4.045753 0.270164
v 0.097828 4.008589 -0.277369
v 0.097828 4.008589 0.270164
v 0.090382 3.971424 -0.277369
v 0.090382 3.971424 0.270164
v 0.069140 3.939863 -0.277369
v 0.069140 3.939863 0.270164
v 0.037071 3.918639 -0.277369
v 0.037071 3.918639 0.270164
v 0.002411 3.911285 -0.277369
v 0.002411 3.911285 0.270164
v -0.038213 3.918796 -0.277369
v -0.038213 3.918796 0.270164
v -0.069901 3.939863 -0.277369
v -0.069901 3.939863 0.270164
v -0.091143 3.971424 -0.277369
v -0.091143 3.971424 0.270164
v -0.098589 4.008589 -0.277369
v -0.098589 4.008589 0.270164
v -0.091143 4.045753 -0.277369
v -0.091143 4.045753 0.270164
v -0.069901 4.077314 -0.277369
v -0.069901 4.077314 0.270164
v 0.002488 5.861495 -0.265478
v 0.002823 5.889172 -0.292630
v 0.002725 5.881066 -0.273431
v 0.002823 5.889172 0.314253
v 0.002488 5.861495 0.287102
v 0.002725 5.881066 0.295054
v -0.040594 5.853490 0.287102
v -0.050995 5.879173 0.314253
v -0.047949 5.871650 0.295054
v -0.050995 5.879173 -0.292630
v -0.040594 5.853490 -0.265479
v -0.047949 5.871650 -0.273431
v 0.039549 5.853678 -0.265478
v 0.050234 5.879173 -0.292630
v 0.047105 5.871706 -0.273431
v 0.050234 5.879173 0.314253
v 0.039549 5.853678 0.287102
v 0.047105 5.871706 0.295054
v 0.073631 5.831062 -0.265478
v 0.093144 5.850699 -0.292630
v 0.087429 5.844947 -0.273431
v 0.093144 5.850699 0.314253
v 0.073631 5.831062 0.287102
v 0.087429 5.844947 0.295054
v 0.096258 5.797430 -0.265478
v 0.121815 5.808084 -0.292630
v 0.114329 5.804964 -0.273431
v 0.121815 5.808084 0.314253
v 0.096258 5.797430 0.287102
v 0.114329 5.804964 0.295054
v 0.104192 5.757816 -0.265478
v 0.131883 5.757816 -0.292630
v 0.123772 5.757816 -0.273431
v 0.131883 5.757816 0.314253
v 0.104192 5.757816 0.287102
v 0.123772 5.757816 0.295054
v 0.096258 5.718202 -0.265478
v 0.121815 5.707549 -0.292630
v 0.114329 5.710669 -0.273431
v 0.121815 5.707549 0.314253
v 0.096258 5.718202 0.287102
v 0.114329 5.710669 0.295054
v 0.073631 5.684571 -0.265478
v 0.093144 5.664934 -0.292630
v 0.087429 5.670685 -0.273431
v 0.093144 5.664934 0.314253
v 0.073631 5.684571 0.287102
v 0.087429 5.670685 0.295054
v 0.039550 5.661955 -0.265478
v 0.050234 5.636460 -0.292630
v 0.047105 5.643927 -0.273431
v 0.050234 5.636460 0.314253
v 0.039550 5.661955 0.287102
v 0.047105 5.643927 0.295054
v 0.002488 5.654139 -0.265478
v 0.002823 5.626461 -0.292630
v 0.002725 5.634567 -0.273431
v 0.002823 5.626461 0.314253
v 0.002488 5.654139 0.287102
v 0.002725 5.634567 0.295054
v -0.040594 5.662143 -0.265478
v -0.050995 5.636460 -0.292630
v -0.047949 5.643982 -0.273431
v -0.050995 5.636460 0.314253
v -0.040594 5.662143 0.287102
v -0.047949 5.643982 0.295054
v -0.074392 5.684571 -0.265478
v -0.093905 5.664934 -0.292630
v -0.088190 5.670685 -0.273431
v -0.093905 5.664934 0.314253
v -0.074392 5.684571 0.287102
v -0.088190 5.670685 0.295054
v -0.097019 5.718202 -0.265478
v -0.122576 5.707549 -0.292630
v -0.115090 5.710669 -0.273431
v -0.122576 5.707549 0.314253
v -0.097019 5.718202 0.287102
v -0.115090 5.710669 0.295054
v -0.104953 5.757816 -0.265478
v -0.132644 5.757816 -0.292630
v -0.124533 5.757816 -0.273431
v -0.132644 5.757816 0.314253
v -0.104953 5.757816 0.287102
v -0.124533 5.757816 0.295054
v -0.097019 5.797430 -0.265478
v -0.122576 5.808084 -0.292630
v -0.115090 5.804964 -0.273431
v -0.122576 5.808084 0.314253
v -0.097019 5.797430 0.287102
v -0.115090 5.804964 0.295054
v -0.074392 5.831062 -0.265478
v -0.093905 5.850699 -0.292630
v -0.088190 5.844947 -0.273431
v -0.093905 5.850699 0.314253
v -0.074392 5.831062 0.287102
v -0.088190 5.844947 0.295054
v 0.039549 4.104450 -0.277369
v 0.050234 4.129945 -0.304520
v 0.047105 4.122478 -0.285321
v 0.050234 4.129945 0.297315
v 0.039549 4.104450 0.270164
v 0.047105 4.122478 0.278116
v 0.002488 4.112266 0.270164
v 0.002823 4.139944 0.297315
v 0.002725 4.131838 0.278116
v 0.002823 4.139944 -0.304520
v 0.002488 4.112266 -0.277369
v 0.002725 4.131838 -0.285321
v -0.040594 4.104262 0.270164
v -0.050995 4.129945 0.297315
v -0.047949 4.122423 0.278116
v -0.050995 4.129945 -0.304520
v -0.040594 4.104262 -0.277369
v -0.047949 4.122423 -0.285321
v 0.073631 4.081834 -0.277369
v 0.093144 4.101471 -0.304520
v 0.087429 4.095719 -0.285321
v 0.093144 4.101471 0.297315
v 0.073631 4.081834 0.270164
v 0.087429 4.095719 0.278116
v 0.096258 4.048203 -0.277369
v 0.121815 4.058856 -0.304520
v 0.114329 4.055736 -0.285321
v 0.121815 4.058856 0.297315
v 0.096258 4.048203 0.270164
v 0.114329 4.055736 0.278116
v 0.104192 4.008589 -0.277369
v 0.131883 4.008589 -0.304520
v 0.123772 4.008589 -0.285321
v 0.131883 4.008589 0.297315
v 0.104192 4.008589 0.270164
v 0.123772 4.008589 0.278116
v 0.096258 3.968974 -0.277369
v 0.121815 3.958321 -0.304520
v 0.114329 3.961441 -0.285321
v 0.121815 3.958321 0.297315
v 0.096258 3.968974 0.270164
v 0.114329 3.961441 0.278116
v 0.073631 3.935343 -0.277369
v 0.093144 3.915706 -0.304520
v 0.087429 3.921457 -0.285321
v 0.093144 3.915706 0.297315
v 0.073631 3.935343 0.270164
v 0.087429 3.921457 0.278116
v 0.039550 3.912727 -0.277369
v 0.050234 3.887232 -0.304520
v 0.047105 3.894699 -0.285321
v 0.050234 3.887232 0.297315
v 0.039550 3.912727 0.270164
v 0.047105 3.894699 0.278116
v 0.002488 3.904911 -0.277369
v 0.002823 3.877233 -0.304520
v 0.002725 3.885339 -0.285321
v 0.002823 3.877233 0.297315
v 0.002488 3.904911 0.270164
v 0.002725 3.885339 0.278116
v -0.040594 3.912915 -0.277369
v -0.050995 3.887232 -0.304520
v -0.047949 3.894754 -0.285321
v -0.050995 3.887232 0.297315
v -0.040594 3.912915 0.270164
v -0.047949 3.894754 0.278116
v -0.074392 3.935343 -0.277369
v -0.093905 3.915706 -0.304520
v -0.088190 3.921457 -0.285321
v -0.093905 3.915706 0.297315
v -0.074392 3.935343 0.270164
v -0.088190 3.921457 0.278116
v -0.097019 3.968974 -0.277369
v -0.122576 3.958321 -0.304520
v -0.115090 3.961441 -0.285321
v -0.122576 3.958321 0.297315
v -0.097019 3.968974 0.270164
v -0.115090 3.961441 0.278116
v -0.104953 4.008589 -0.277369
v -0.132644 4.008589 -0.304520
v -0.124533 4.008589 -0.285321
v -0.132644 4.008589 0.297315
v -0.104953 4.008589 0.270164
v -0.124533 4.008589 0.278116
v -0.097019 4.048203 -0.277369
v -0.122576 4.058856 -0.304520
v -0.115090 4.055736 -0.285321
v -0.122576 4.058856 0.297315
v -0.097019 4.048203 0.270164
v -0.115090 4.055736 0.278116
v -0.074392 4.081834 -0.277369
v -0.093905 4.101471 -0.304520
v -0.088190 4.095719 -0.285321
v -0.093905 4.101471 0.297315
v -0.074392 4.081834 0.270164
v -0.088190 4.095719 0.278116
vn 0.4254 0.8524 0.3041
vn 0.2966 0.7074 0.6416
vn 0.0091 0.7665 0.6422
vn 0.0103 0.8984 0.4391
vn 0.8977 0.3743 0.2324
vn 0.7067 0.2946 0.6433
vn 0.5400 0.5436 0.6426
vn 0.6855 0.6901 0.2320
vn 0.9726 -0.0000 0.2325
vn 0.7654 -0.0000 0.6436
vn 0.8977 -0.3743 0.2324
vn 0.7067 -0.2946 0.6433
vn 0.6855 -0.6901 0.2320
vn 0.5400 -0.5435 0.6426
vn 0.0103 -0.8984 0.4391
vn 0.0091 -0.7665 0.6422
vn 0.2965 -0.7074 0.6416
vn 0.4254 -0.8524 0.3042
vn -0.4180 -0.8557 0.3049
vn -0.2872 -0.7098 0.6432
vn -0.8975 -0.3743 0.2334
vn -0.7052 -0.2941 0.6451
vn -0.5391 -0.5427 0.6440
vn -0.6853 -0.6900 0.2327
vn -0.9723 -0.0000 0.2336
vn -0.7637 -0.0000 0.6456
vn -0.8975 0.3743 0.2334
vn -0.7052 0.2941 0.6451
vn -0.6853 0.6900 0.2327
vn -0.5391 0.5427 0.6440
vn -0.2872 0.7098 0.6432
vn -0.4180 0.8557 0.3049
vn 0.3047 0.7269 0.6155
vn 0.3786 0.9035 0.2008
vn 0.0121 0.9796 0.2006
vn 0.0095 0.7884 0.6151
vn 0.7271 0.3031 0.6160
vn 0.9042 0.3768 0.2011
vn 0.6906 0.6948 0.2008
vn 0.5555 0.5591 0.6155
vn 0.7876 -0.0000 0.6162
vn 0.9796 -0.0000 0.2012
vn 0.7271 -0.3031 0.6160
vn 0.9042 -0.3768 0.2011
vn 0.5555 -0.5591 0.6155
vn 0.6906 -0.6948 0.2008
vn 0.0095 -0.7884 0.6151
vn 0.0121 -0.9796 0.2006
vn 0.3786 -0.9035 0.2007
vn 0.3047 -0.7269 0.6155
vn -0.2958 -0.7306 0.6154
vn -0.3680 -0.9079 0.2007
vn -0.7258 -0.3026 0.6178
vn -0.9041 -0.3767 0.2019
vn -0.6906 -0.6947 0.2014
vn -0.5547 -0.5584 0.6168
vn -0.7861 -0.0000 0.6182
vn -0.9794 -0.0000 0.2020
vn -0.7258 0.3026 0.6178
vn -0.9041 0.3767 0.2019
vn -0.5547 0.5584 0.6168
vn -0.6906 0.6947 0.2014
vn -0.3680 0.9079 0.2007
vn -0.2958 0.7306 0.6154
vn 0.0103 0.8984 -0.4391
vn 0.0091 0.7665 -0.6422
vn 0.2966 0.7074 -0.6416
vn 0.4254 0.8524 -0.3041
vn 0.6855 0.6901 -0.2320
vn 0.5400 0.5436 -0.6426
vn 0.7067 0.2946 -0.6433
vn 0.8977 0.3743 -0.2324
vn 0.7654 -0.0000 -0.6436
vn 0.9726 -0.0000 -0.2325
vn 0.7067 -0.2946 -0.6433
vn 0.8977 -0.3743 -0.2324
vn 0.5400 -0.5435 -0.6426
vn 0.6855 -0.6901 -0.2320
vn 0.4254 -0.8524 -0.3041
vn 0.2965 -0.7074 -0.6416
vn 0.0091 -0.7665 -0.6422
vn 0.0103 -0.8984 -0.4391
vn -0.2872 -0.7098 -0.6432
vn -0.4180 -0.8557 -0.3049
vn -0.6853 -0.6900 -0.2327
vn -0.5391 -0.5427 -0.6440
vn -0.7052 -0.2941 -0.6451
vn -0.8975 -0.3743 -0.2334
vn -0.7637 -0.0000 -0.6456
vn -0.9723 -0.0000 -0.2336
vn -0.7052 0.2941 -0.6451
vn -0.8975 0.3743 -0.2334
vn -0.5391 0.5427 -0.6440
vn -0.6853 0.6900 -0.2327
vn -0.4180 0.8557 -0.3049
vn -0.2872 0.7098 -0.6432
vn 0.2965 0.7074 -0.6416
vn 0.4254 -0.8524 -0.3042
vn 0.0095 0.7884 -0.6151
vn 0.0121 0.9796 -0.2008
vn 0.3785 0.9035 -0.2009
vn 0.3047 0.7269 -0.6155
vn 0.5555 0.5591 -0.6155
vn 0.6906 0.6948 -0.2010
vn 0.9042 0.3768 -0.2012
vn 0.7271 0.3031 -0.6160
vn 0.9795 -0.0000 -0.2013
vn 0.7876 -0.0000 -0.6162
vn 0.9042 -0.3768 -0.2012
vn 0.7271 -0.3031 -0.6160
vn 0.6906 -0.6948 -0.2010
vn 0.5555 -0.5591 -0.6155
vn 0.3047 -0.7269 -0.6155
vn 0.3785 -0.9035 -0.2009
vn 0.0121 -0.9796 -0.2008
vn 0.0095 -0.7884 -0.6151
vn -0.3680 -0.9079 -0.2009
vn -0.2958 -0.7306 -0.6154
vn -0.5547 -0.5584 -0.6168
vn -0.6905 -0.6946 -0.2016
vn -0.9040 -0.3767 -0.2020
vn -0.7258 -0.3026 -0.6178
vn -0.9793 -0.0000 -0.2022
vn -0.7860 -0.0000 -0.6182
vn -0.9040 0.3767 -0.2020
vn -0.7258 0.3026 -0.6178
vn -0.6905 0.6946 -0.2016
vn -0.5547 0.5584 -0.6168
vn -0.2958 0.7306 -0.6154
vn -0.3680 0.9079 -0.2009
vn 0.3786 0.9035 -0.2008
vn 0.0121 0.9796 -0.2006
vn 0.9042 0.3768 -0.2011
vn 0.6906 0.6948 -0.2008
vn 0.9796 -0.0000 -0.2012
vn 0.9042 -0.3768 -0.2011
vn 0.6906 -0.6948 -0.2008
vn 0.0121 -0.9796 -0.2006
vn 0.3786 -0.9035 -0.2007
vn -0.3680 -0.9079 -0.2007
vn -0.9041 -0.3767 -0.2019
vn -0.6906 -0.6947 -0.2014
vn -0.9794 -0.0000 -0.2020
vn -0.9041 0.3767 -0.2019
vn -0.6906 0.6947 -0.2014
vn -0.3680 0.9079 -0.2007
vn -0.2063 -0.9785 -0.0000
vn -0.0121 -0.9999 -0.0000
vn -0.0122 -0.9999 -0.0000
vn 0.1826 -0.9832 -0.0000
vn 0.7243 0.6895 -0.0000
vn 0.5530 0.8332 -0.0000
vn 0.9325 0.3611 -0.0000
vn 1.0000 -0.0000 -0.0000
vn 0.9325 -0.3611 -0.0000
vn 0.7243 -0.6895 -0.0000
vn 0.5529 -0.8332 -0.0000
vn -0.0122 0.9999 -0.0000
vn -0.0121 0.9999 -0.0000
vn -0.2063 0.9785 -0.0000
vn 0.1826 0.9832 -0.0000
vn -0.7263 -0.6873 -0.0000
vn -0.5529 -0.8332 -0.0000
vn -0.9325 -0.3613 -0.0000
vn -1.0000 -0.0000 -0.0000
vn -0.9325 0.3613 -0.0000
vn -0.7263 0.6873 -0.0000
vn -0.5529 0.8332 -0.0000
vn 0.3865 0.9221 -0.0194
vn 0.0121 0.9997 -0.0194
vn -0.3753 0.9267 -0.0194
vn 0.7047 0.7092 -0.0194
vn 0.9228 0.3847 -0.0194
vn 0.9998 -0.0000 -0.0194
vn 0.9228 -0.3847 -0.0194
vn 0.7047 -0.7092 -0.0194
vn 0.3865 -0.9221 -0.0194
vn 0.0121 -0.9997 -0.0194
vn -0.3753 -0.9267 -0.0194
vn -0.7047 -0.7092 -0.0195
vn -0.9228 -0.3847 -0.0195
vn -0.9998 -0.0000 -0.0196
vn -0.9228 0.3847 -0.0195
vn -0.7047 0.7092 -0.0195
vn 0.1827 -0.9832 -0.0000
vn -0.2064 -0.9785 -0.0000
vn -0.5530 0.8332 -0.0000
vn -0.7047 0.7092 0.0195
vn -0.3753 0.9267 0.0194
vn -0.9228 0.3847 0.0195
vn -0.9998 -0.0000 0.0196
vn -0.9228 -0.3847 0.0195
vn -0.7047 -0.7092 0.0195
vn -0.3753 -0.9267 0.0194
vn 0.0121 -0.9997 0.0194
vn 0.3865 -0.9221 0.0194
vn 0.7047 -0.7092 0.0194
vn 0.9228 -0.3847 0.0194
vn 0.9998 -0.0000 0.0194
vn 0.9228 0.3847 0.0194
vn 0.7047 0.7092 0.0194
vn 0.3865 0.9221 0.0194
vn 0.0121 0.9997 0.0194
vn -0.7047 0.7092 0.0193
vn -0.3753 0.9267 0.0192
vn -0.9228 0.3847 0.0194
vn -0.9998 -0.0000 0.0194
vn -0.9228 -0.3847 0.0194
vn -0.7047 -0.7092 0.0193
vn -0.3753 -0.9267 0.0192
vn 0.0121 -0.9997 0.0192
vn 0.3865 -0.9221 0.0192
vn 0.7047 -0.7092 0.0192
vn 0.9228 -0.3847 0.0193
vn 0.9998 -0.0000 0.0193
vn 0.9228 0.3847 0.0193
vn 0.7047 0.7092 0.0192
vn 0.3865 0.9221 0.0192
vn 0.0121 0.9997 0.0192
vn 0.0115 0.9727 0.2317
vn 0.3761 0.8972 0.2314
vn 0.7066 0.2946 0.6433
vn 0.7066 -0.2946 0.6433
vn 0.2966 -0.7074 0.6416
vn 0.3761 -0.8972 0.2314
vn 0.0115 -0.9727 0.2317
vn -0.3648 -0.9017 0.2322
vn -0.5391 0.5428 0.6440
vn -0.3648 0.9017 0.2322
vn 0.0121 0.9797 0.2003
vn 0.3786 0.9036 0.2004
vn 0.6906 0.6949 0.2005
vn 0.9043 0.3768 0.2007
vn 0.9796 -0.0000 0.2008
vn 0.9043 -0.3769 0.2007
vn 0.6906 -0.6949 0.2005
vn 0.3786 -0.9036 0.2004
vn 0.0121 -0.9797 0.2003
vn -0.3681 -0.9080 0.2004
vn -0.6906 -0.6947 0.2011
vn -0.9041 -0.3767 0.2015
vn -0.9794 -0.0000 0.2017
vn -0.9041 0.3767 0.2015
vn -0.6906 0.6947 0.2011
vn -0.3681 0.9080 0.2004
vn 0.4041 0.9147 -0.0000
vn 0.0120 0.9999 -0.0000
vn -0.3966 0.9180 -0.0000
vn 0.4041 -0.9147 -0.0000
vn 0.0120 -0.9999 -0.0000
vn -0.3966 -0.9180 -0.0000
vn 0.3865 0.9221 -0.0197
vn 0.0121 0.9997 -0.0197
vn -0.3753 0.9267 -0.0198
vn 0.7047 0.7092 -0.0197
vn 0.9228 0.3847 -0.0198
vn 0.9998 -0.0000 -0.0198
vn 0.9228 -0.3847 -0.0198
vn 0.7047 -0.7092 -0.0197
vn 0.3865 -0.9221 -0.0197
vn 0.0121 -0.9997 -0.0197
vn -0.3753 -0.9267 -0.0198
vn -0.7047 -0.7092 -0.0198
vn -0.9228 -0.3847 -0.0199
vn -0.9998 -0.0000 -0.0199
vn -0.9228 0.3847 -0.0199
vn -0.7047 0.7092 -0.0198
vn 0.0131 0.9999 -0.0000
vn -0.3754 0.9269 -0.0000
vn 0.3865 0.9223 -0.0000
vn 0.7043 0.7099 -0.0000
vn 0.9230 0.3849 -0.0000
vn 0.9230 -0.3849 -0.0000
vn 0.7044 -0.7098 -0.0000
vn 0.3865 -0.9223 -0.0000
vn 0.0131 -0.9999 -0.0000
vn -0.3753 -0.9269 -0.0000
vn -0.7051 -0.7091 -0.0000
vn -0.9230 -0.3849 -0.0000
vn -0.9230 0.3849 -0.0000
vn -0.7051 0.7091 -0.0000
vn 0.7044 0.7098 -0.0000
vn -0.3754 -0.9269 -0.0000
vn 0.0118 0.9810 0.1938
vn -0.3682 0.9093 0.1939
vn -0.3457 0.8537 0.3894
vn 0.0111 0.9212 0.3890
vn 0.0045 0.3764 0.9264
vn -0.1412 0.3486 0.9266
vn -0.0807 0.1993 0.9766
vn 0.0026 0.2146 0.9767
vn 0.0026 0.2145 -0.9767
vn -0.0807 0.1992 -0.9766
vn -0.1412 0.3486 -0.9266
vn 0.0045 0.3764 -0.9265
vn 0.0111 0.9212 -0.3890
vn -0.3457 0.8537 -0.3894
vn -0.3682 0.9093 -0.1939
vn 0.0118 0.9810 -0.1938
vn 0.3792 0.9048 0.1938
vn 0.3562 0.8498 0.3886
vn 0.1457 0.3476 0.9263
vn 0.0827 0.1974 0.9768
vn 0.0827 0.1974 -0.9768
vn 0.1457 0.3475 -0.9263
vn 0.3562 0.8498 -0.3886
vn 0.3792 0.9048 -0.1938
vn 0.6915 0.6959 0.1938
vn 0.6493 0.6535 0.3891
vn 0.2653 0.2670 0.9265
vn 0.1513 0.1522 0.9767
vn 0.1513 0.1522 -0.9767
vn 0.2653 0.2670 -0.9265
vn 0.6493 0.6535 -0.3891
vn 0.6915 0.6959 -0.1938
vn 0.9055 0.3775 0.1939
vn 0.8503 0.3544 0.3891
vn 0.3474 0.1448 0.9265
vn 0.1982 0.0826 0.9767
vn 0.1981 0.0826 -0.9767
vn 0.3473 0.1448 -0.9265
vn 0.8503 0.3544 -0.3891
vn 0.9055 0.3775 -0.1939
vn 0.9810 -0.0000 0.1939
vn 0.9212 -0.0000 0.3892
vn 0.3763 -0.0000 0.9265
vn 0.2147 -0.0000 0.9767
vn 0.2147 -0.0000 -0.9767
vn 0.3763 -0.0000 -0.9265
vn 0.9212 -0.0000 -0.3892
vn 0.9810 -0.0000 -0.1939
vn 0.9055 -0.3775 0.1939
vn 0.8503 -0.3544 0.3891
vn 0.3474 -0.1448 0.9265
vn 0.1982 -0.0826 0.9767
vn 0.1981 -0.0826 -0.9767
vn 0.3473 -0.1448 -0.9265
vn 0.8503 -0.3544 -0.3891
vn 0.9055 -0.3775 -0.1939
vn 0.6915 -0.6959 0.1938
vn 0.6493 -0.6535 0.3890
vn 0.2653 -0.2670 0.9265
vn 0.1513 -0.1522 0.9767
vn 0.1513 -0.1522 -0.9767
vn 0.2653 -0.2670 -0.9265
vn 0.6493 -0.6535 -0.3890
vn 0.6915 -0.6959 -0.1938
vn 0.3792 -0.9048 0.1938
vn 0.3562 -0.8498 0.3886
vn 0.1457 -0.3476 0.9263
vn 0.0827 -0.1974 0.9768
vn 0.0827 -0.1974 -0.9768
vn 0.1456 -0.3475 -0.9263
vn 0.3562 -0.8498 -0.3886
vn 0.3792 -0.9048 -0.1938
vn 0.0118 -0.9810 0.1938
vn 0.0111 -0.9212 0.3890
vn 0.0045 -0.3764 0.9264
vn 0.0026 -0.2146 0.9767
vn 0.0026 -0.2145 -0.9767
vn 0.0045 -0.3764 -0.9265
vn 0.0111 -0.9212 -0.3890
vn 0.0118 -0.9810 -0.1938
vn -0.3682 -0.9093 0.1939
vn -0.3457 -0.8537 0.3893
vn -0.1412 -0.3486 0.9266
vn -0.0807 -0.1993 0.9766
vn -0.0807 -0.1992 -0.9766
vn -0.1412 -0.3486 -0.9266
vn -0.3457 -0.8537 -0.3893
vn -0.3682 -0.9093 -0.1939
vn -0.6915 -0.6959 0.1938
vn -0.6493 -0.6535 0.3890
vn -0.2653 -0.2670 0.9265
vn -0.1513 -0.1522 0.9767
vn -0.1513 -0.1522 -0.9767
vn -0.2653 -0.2670 -0.9265
vn -0.6493 -0.6535 -0.3890
vn -0.6915 -0.6959 -0.1938
vn -0.9055 -0.3775 0.1939
vn -0.8503 -0.3544 0.3891
vn -0.3474 -0.1448 0.9265
vn -0.1982 -0.0826 0.9767
vn -0.1981 -0.0826 -0.9767
vn -0.3473 -0.1448 -0.9265
vn -0.8503 -0.3544 -0.3891
vn -0.9055 -0.3775 -0.1939
vn -0.9810 -0.0000 0.1939
vn -0.9212 -0.0000 0.3892
vn -0.3763 -0.0000 0.9265
vn -0.2147 -0.0000 0.9767
vn -0.2147 -0.0000 -0.9767
vn -0.3763 -0.0000 -0.9265
vn -0.9212 -0.0000 -0.3892
vn -0.9810 -0.0000 -0.1939
vn -0.9055 0.3775 0.1939
vn -0.8503 0.3544 0.3891
vn -0.3474 0.1448 0.9265
vn -0.1982 0.0826 0.9767
vn -0.1981 0.0826 -0.9767
vn -0.3473 0.1448 -0.9265
vn -0.8503 0.3544 -0.3891
vn -0.9055 0.3775 -0.1939
vn -0.6915 0.6959 0.1938
vn -0.6493 0.6535 0.3891
vn -0.2653 0.2670 0.9265
vn -0.1513 0.1522 0.9767
vn -0.1513 0.1522 -0.9767
vn -0.2653 0.2670 -0.9265
vn -0.6493 0.6535 -0.3891
vn -0.6915 0.6959 -0.1938
vn 0.1457 0.3475 0.9263
vn 0.0045 0.3764 0.9265
vn 0.0026 0.2145 0.9767
vn -0.0807 0.1992 0.9766
vn 0.3473 0.1448 0.9265
vn 0.1981 0.0826 0.9767
vn 0.3473 -0.1448 0.9265
vn 0.1981 -0.0826 0.9767
vn 0.1456 -0.3475 0.9263
vn 0.0045 -0.3764 0.9265
vn 0.0026 -0.2145 0.9767
vn -0.0807 -0.1992 0.9766
vn -0.3473 -0.1448 0.9265
vn -0.1981 -0.0826 0.9767
vn -0.3473 0.1448 0.9265
vn -0.1981 0.0826 0.9767
vn -0.0000 -0.0000 1.0000
vn -0.0000 -0.0000 -1.0000
vt 0.362140 0.760625
vt 0.379655 0.756012
vt 0.380122 0.770099
vt 0.362513 0.771855
vt 0.588747 0.766245
vt 0.572372 0.764629
vt 0.571865 0.749751
vt 0.588343 0.754385
vt 0.588747 0.779070
vt 0.572372 0.780716
vt 0.588343 0.790907
vt 0.571865 0.795564
vt 0.590511 0.708406
vt 0.573973 0.703660
vt 0.573362 0.692035
vt 0.590025 0.699139
vt 0.590531 0.732525
vt 0.573998 0.733914
vt 0.574187 0.718711
vt 0.590682 0.720404
vt 0.590023 0.745152
vt 0.573362 0.749751
vt 0.366704 0.526266
vt 0.384425 0.527871
vt 0.383918 0.542747
vt 0.366298 0.538126
vt 0.366705 0.513441
vt 0.384425 0.511788
vt 0.366300 0.501604
vt 0.383918 0.496943
vt 0.365552 0.492558
vt 0.382981 0.485596
vt 0.380214 0.787274
vt 0.362587 0.785548
vt 0.382980 0.554150
vt 0.365549 0.547217
vt 0.361484 0.751322
vt 0.378834 0.744343
vt 0.379865 0.802105
vt 0.362311 0.797373
vt 0.851213 0.484017
vt 0.846918 0.466422
vt 0.866904 0.466118
vt 0.868341 0.483757
vt 0.772519 0.485606
vt 0.771111 0.502001
vt 0.750022 0.502989
vt 0.754446 0.486453
vt 0.792070 0.485358
vt 0.793923 0.501711
vt 0.810122 0.485746
vt 0.814988 0.502163
vt 0.727124 0.486297
vt 0.731925 0.469773
vt 0.748413 0.468961
vt 0.741255 0.485600
vt 0.690353 0.486205
vt 0.689018 0.469668
vt 0.710579 0.470007
vt 0.708831 0.486497
vt 0.671104 0.485366
vt 0.666559 0.468690
vt 0.429026 0.001764
vt 0.427422 0.019485
vt 0.406323 0.018764
vt 0.410942 0.001144
vt 0.448582 0.001765
vt 0.450237 0.019484
vt 0.466631 0.001145
vt 0.471294 0.018762
vt 0.480423 0.000000
vt 0.487387 0.017429
vt 0.891261 0.466425
vt 0.889217 0.484018
vt 0.390151 0.017432
vt 0.397084 0.000000
vt 0.837015 0.484761
vt 0.830350 0.467289
vt 0.912287 0.467295
vt 0.907239 0.484761
vt 0.179675 0.810269
vt 0.163159 0.808634
vt 0.162758 0.794546
vt 0.179355 0.799038
vt 0.366012 0.703164
vt 0.383633 0.698530
vt 0.384140 0.713408
vt 0.366417 0.715024
vt 0.384140 0.729495
vt 0.366417 0.727849
vt 0.383633 0.744343
vt 0.366012 0.739685
vt 0.064169 0.495355
vt 0.081966 0.489591
vt 0.081966 0.501232
vt 0.064169 0.504635
vt 0.063709 0.516626
vt 0.081390 0.516273
vt 0.080402 0.531446
vt 0.062923 0.528722
vt 0.078932 0.547227
vt 0.061752 0.541304
vt 0.075583 0.673122
vt 0.059041 0.677471
vt 0.059796 0.662605
vt 0.076183 0.661270
vt 0.060061 0.646524
vt 0.076394 0.648447
vt 0.059796 0.631674
vt 0.076183 0.636605
vt 0.059041 0.620312
vt 0.075583 0.627548
vt 0.179684 0.823963
vt 0.163172 0.825810
vt 0.077425 0.558425
vt 0.060552 0.550234
vt 0.365264 0.694073
vt 0.382694 0.687128
vt 0.179351 0.835787
vt 0.162758 0.840639
vt 0.039445 0.746023
vt 0.056043 0.750515
vt 0.056362 0.761746
vt 0.039847 0.760111
vt 0.083180 0.708479
vt 0.065456 0.710095
vt 0.065052 0.698235
vt 0.082672 0.693602
vt 0.083180 0.724566
vt 0.065456 0.722920
vt 0.082672 0.739414
vt 0.065052 0.734756
vt 0.384425 0.565791
vt 0.366627 0.569194
vt 0.366627 0.559914
vt 0.384425 0.554150
vt 0.382861 0.596005
vt 0.365381 0.593281
vt 0.366168 0.581185
vt 0.383848 0.580833
vt 0.381390 0.611787
vt 0.364211 0.605864
vt 0.059796 0.600719
vt 0.076183 0.599383
vt 0.075583 0.611235
vt 0.059042 0.615584
vt 0.060061 0.584637
vt 0.076394 0.586560
vt 0.059796 0.569787
vt 0.076183 0.574718
vt 0.059042 0.558425
vt 0.075583 0.565661
vt 0.056371 0.775439
vt 0.039860 0.777287
vt 0.379883 0.622985
vt 0.363011 0.614794
vt 0.064304 0.689144
vt 0.081734 0.682199
vt 0.056039 0.787264
vt 0.039445 0.792116
vt 0.623028 -0.000000
vt 0.621175 0.016493
vt 0.601189 0.016798
vt 0.605900 0.000261
vt 0.507985 0.964461
vt 0.503574 0.946783
vt 0.524680 0.946329
vt 0.526073 0.964071
vt 0.547493 0.946616
vt 0.545624 0.964317
vt 0.568539 0.947601
vt 0.563660 0.965161
vt 0.090920 0.000000
vt 0.097840 0.017381
vt 0.081367 0.018465
vt 0.076802 0.000929
vt 0.058515 0.001432
vt 0.060028 0.019051
vt 0.038465 0.019068
vt 0.040035 0.001447
vt 0.015992 0.018461
vt 0.020774 0.000929
vt 0.118632 0.489307
vt 0.114012 0.472840
vt 0.135111 0.473561
vt 0.136716 0.489924
vt 0.157926 0.473561
vt 0.156272 0.489923
vt 0.178983 0.472840
vt 0.174321 0.489306
vt 0.195076 0.471507
vt 0.188113 0.488165
vt 0.643903 0.000263
vt 0.645533 0.016798
vt -0.000000 0.017374
vt 0.007065 0.000000
vt 0.494112 0.965426
vt 0.487387 0.947910
vt 0.661925 0.001010
vt 0.666559 0.017666
vt 0.764981 0.016798
vt 0.769691 0.000261
vt 0.786819 0.000000
vt 0.784967 0.016493
vt 0.867644 0.950174
vt 0.869034 0.967916
vt 0.850946 0.968304
vt 0.846537 0.950625
vt 0.890457 0.950464
vt 0.888585 0.968164
vt 0.911503 0.951451
vt 0.906621 0.969011
vt 0.276443 0.018465
vt 0.271878 0.000929
vt 0.285996 -0.000000
vt 0.292916 0.017381
vt 0.233541 0.019068
vt 0.235111 0.001447
vt 0.253590 0.001432
vt 0.255104 0.019051
vt 0.211068 0.018461
vt 0.215850 0.000929
vt 0.330187 0.469233
vt 0.331792 0.485596
vt 0.313708 0.484979
vt 0.309088 0.468512
vt 0.353002 0.469233
vt 0.351348 0.485595
vt 0.374058 0.468512
vt 0.369396 0.484978
vt 0.390151 0.467179
vt 0.383189 0.483837
vt 0.807695 0.000263
vt 0.809325 0.016798
vt 0.195076 0.017374
vt 0.202141 -0.000000
vt 0.837074 0.969267
vt 0.830350 0.951750
vt 0.825717 0.001010
vt 0.830350 0.017666
vt 0.603876 0.832544
vt 0.595162 0.830840
vt 0.601982 0.813664
vt 0.609489 0.818414
vt 0.486595 0.484967
vt 0.487387 0.484955
vt 0.487214 0.496025
vt 0.484683 0.496061
vt 0.616508 0.798669
vt 0.621442 0.806079
vt 0.487387 0.509711
vt 0.486841 0.509719
vt 0.360002 0.751331
vt 0.362931 0.760620
vt 0.603875 0.848704
vt 0.595162 0.850480
vt 0.610043 0.863595
vt 0.602658 0.868578
vt 0.593880 0.766245
vt 0.589823 0.754385
vt 0.595162 0.779070
vt 0.621439 0.874949
vt 0.616508 0.882379
vt 0.593475 0.790907
vt 0.636329 0.881039
vt 0.634606 0.889780
vt 0.591993 0.708424
vt 0.595162 0.699201
vt 0.652446 0.880937
vt 0.654194 0.889655
vt 0.589890 0.720395
vt 0.667336 0.874658
vt 0.672292 0.882025
vt 0.678176 0.863996
vt 0.685468 0.869068
vt 0.479946 0.497071
vt 0.477414 0.497071
vt 0.477438 0.484955
vt 0.478231 0.484955
vt 0.478286 0.509881
vt 0.477740 0.509881
vt 0.684897 0.848190
vt 0.693643 0.849857
vt 0.363991 0.538126
vt 0.366094 0.547217
vt 0.684895 0.832032
vt 0.693646 0.830215
vt 0.678726 0.817145
vt 0.686152 0.812113
vt 0.360765 0.526266
vt 0.359490 0.513441
vt 0.667332 0.805794
vt 0.672299 0.798309
vt 0.360361 0.501604
vt 0.652446 0.799705
vt 0.654198 0.790907
vt 0.363245 0.492558
vt 0.636332 0.799805
vt 0.634606 0.791034
vt 0.363133 0.785544
vt 0.360002 0.797387
vt 0.855863 0.196655
vt 0.872265 0.196406
vt 0.892256 0.196658
vt 0.842266 0.197366
vt 0.776575 0.772956
vt 0.759268 0.773766
vt 0.795297 0.772718
vt 0.812585 0.773089
vt 0.730396 0.198670
vt 0.743928 0.198003
vt 0.712877 0.198862
vt 0.695183 0.198584
vt 0.676750 0.197781
vt 0.412133 0.288195
vt 0.398861 0.287102
vt 0.429449 0.288787
vt 0.448173 0.288786
vt 0.465455 0.288194
vt 0.478662 0.287100
vt 0.909512 0.197372
vt 0.132646 0.836172
vt 0.127033 0.822042
vt 0.134540 0.817293
vt 0.141360 0.834468
vt 0.279545 0.496321
vt 0.277558 0.510012
vt 0.277012 0.510014
vt 0.277012 0.496326
vt 0.278115 0.485258
vt 0.277324 0.485260
vt 0.115080 0.809708
vt 0.120014 0.802297
vt 0.132647 0.852332
vt 0.141360 0.854109
vt 0.292916 0.485258
vt 0.291434 0.494597
vt 0.292225 0.494581
vt 0.291434 0.485288
vt 0.126479 0.867223
vt 0.133864 0.872207
vt 0.361284 0.715024
vt 0.364531 0.703164
vt 0.115083 0.878577
vt 0.120014 0.886007
vt 0.360002 0.727849
vt 0.100193 0.884667
vt 0.101916 0.893408
vt 0.360880 0.739685
vt 0.084076 0.884565
vt 0.082328 0.893284
vt 0.062690 0.504539
vt 0.059041 0.495023
vt 0.069186 0.878286
vt 0.064231 0.885653
vt 0.064500 0.516677
vt 0.058346 0.867624
vt 0.051054 0.872696
vt 0.472006 0.497049
vt 0.473918 0.484955
vt 0.474710 0.484965
vt 0.474538 0.497080
vt 0.051625 0.851818
vt 0.042879 0.853485
vt 0.474164 0.509885
vt 0.474710 0.509892
vt 0.051628 0.835660
vt 0.042876 0.833843
vt 0.077890 0.673160
vt 0.074139 0.682190
vt 0.074684 0.682199
vt 0.057796 0.820773
vt 0.050370 0.815741
vt 0.082122 0.661367
vt 0.069190 0.809422
vt 0.064223 0.801937
vt 0.083608 0.648565
vt 0.084077 0.803333
vt 0.082324 0.794536
vt 0.082122 0.636703
vt 0.100190 0.803433
vt 0.101916 0.794662
vt 0.077890 0.627586
vt 0.179138 0.823963
vt 0.181661 0.835784
vt 0.684933 0.733672
vt 0.679320 0.719541
vt 0.686826 0.714792
vt 0.693646 0.731968
vt 0.484682 0.496018
vt 0.482696 0.509710
vt 0.482150 0.509711
vt 0.482150 0.496023
vt 0.483253 0.484955
vt 0.482462 0.484957
vt 0.667366 0.707207
vt 0.672300 0.699796
vt 0.684934 0.749832
vt 0.693646 0.751608
vt 0.481429 0.484955
vt 0.479946 0.494294
vt 0.480738 0.494278
vt 0.479946 0.484986
vt 0.678766 0.764722
vt 0.686151 0.769706
vt 0.060324 0.710095
vt 0.063571 0.698235
vt 0.667370 0.776076
vt 0.672300 0.783506
vt 0.059041 0.722920
vt 0.652480 0.782166
vt 0.654203 0.790907
vt 0.059919 0.734756
vt 0.636363 0.782064
vt 0.634615 0.790783
vt 0.365148 0.569098
vt 0.361500 0.559582
vt 0.621473 0.775786
vt 0.616517 0.783153
vt 0.366958 0.581236
vt 0.610633 0.765123
vt 0.603340 0.770195
vt 0.474710 0.497049
vt 0.476622 0.484955
vt 0.477414 0.484965
vt 0.477242 0.497080
vt 0.603911 0.749317
vt 0.595166 0.750985
vt 0.476868 0.509885
vt 0.477414 0.509892
vt 0.603914 0.733160
vt 0.595162 0.731342
vt 0.077890 0.611273
vt 0.074139 0.620303
vt 0.074684 0.620312
vt 0.610083 0.718273
vt 0.602657 0.713240
vt 0.082122 0.599481
vt 0.621477 0.706922
vt 0.616510 0.699437
vt 0.083608 0.586679
vt 0.636363 0.700832
vt 0.634611 0.692035
vt 0.082122 0.574816
vt 0.652477 0.700932
vt 0.654202 0.692162
vt 0.077890 0.565699
vt 0.055826 0.775440
vt 0.058348 0.787261
vt 0.821001 0.288605
vt 0.803745 0.287893
vt 0.368203 0.197635
vt 0.381410 0.196541
vt 0.350921 0.198227
vt 0.332197 0.198227
vt 0.314881 0.197635
vt 0.292916 0.467179
vt 0.301609 0.196541
vt 0.235836 0.288828
vt 0.217393 0.288330
vt 0.253533 0.288814
vt 0.271046 0.288333
vt 0.284566 0.287443
vt 0.891820 0.681147
vt 0.909092 0.681958
vt 0.873097 0.680909
vt 0.855775 0.681280
vt 0.748413 0.017666
vt 0.767352 0.287893
vt 0.753755 0.288605
vt 0.783755 0.287642
vt 0.657179 0.291098
vt 0.639924 0.290386
vt 0.173127 0.199473
vt 0.186334 0.198379
vt 0.155845 0.200064
vt 0.137121 0.200064
vt 0.119805 0.199472
vt 0.097840 0.471507
vt 0.106533 0.198379
vt 0.040763 0.291321
vt 0.022320 0.290823
vt 0.058460 0.291307
vt 0.075973 0.290826
vt 0.089493 0.289937
vt 0.548855 0.674809
vt 0.566128 0.675618
vt 0.530133 0.674574
vt 0.512811 0.674946
vt 0.584622 0.017666
vt 0.603530 0.290386
vt 0.589933 0.291098
vt 0.619933 0.290135
vt 0.057310 0.716076
vt 0.045291 0.717274
vt 0.044918 0.706044
vt 0.056873 0.702896
vt 0.141360 0.794546
vt 0.152607 0.797708
vt 0.153011 0.809569
vt 0.141835 0.808465
vt 0.153011 0.822393
vt 0.141835 0.823517
vt 0.152607 0.834230
vt 0.141360 0.837409
vt 0.059041 0.739414
vt 0.070414 0.744262
vt 0.070901 0.753529
vt 0.059613 0.750290
vt 0.059813 0.764372
vt 0.071072 0.765528
vt 0.070921 0.777648
vt 0.059637 0.778597
vt 0.070413 0.790275
vt 0.059041 0.793415
vt 0.383665 0.676458
vt 0.371640 0.673305
vt 0.372046 0.661445
vt 0.384140 0.662540
vt 0.372046 0.648620
vt 0.384140 0.647491
vt 0.371641 0.636783
vt 0.383666 0.633602
vt 0.370892 0.627737
vt 0.382788 0.622985
vt 0.057396 0.732145
vt 0.045366 0.730967
vt 0.382788 0.687128
vt 0.370890 0.682396
vt 0.044263 0.696741
vt 0.056104 0.691978
vt 0.057071 0.746023
vt 0.045090 0.742793
vt 0.231629 0.948540
vt 0.232611 0.960578
vt 0.214575 0.960853
vt 0.211643 0.948844
vt 0.294525 0.498038
vt 0.297544 0.486752
vt 0.316574 0.485859
vt 0.315613 0.497048
vt 0.337160 0.485596
vt 0.338426 0.496757
vt 0.356168 0.486003
vt 0.359490 0.497207
vt 0.472006 0.951087
vt 0.467120 0.962443
vt 0.452240 0.963175
vt 0.455517 0.951898
vt 0.434171 0.952129
vt 0.432977 0.963384
vt 0.413521 0.963076
vt 0.412611 0.951789
vt 0.393253 0.962190
vt 0.390151 0.950808
vt 0.503558 0.013230
vt 0.506711 0.001204
vt 0.525752 0.001856
vt 0.524657 0.013951
vt 0.546343 0.001856
vt 0.547472 0.013950
vt 0.565346 0.001205
vt 0.568529 0.013229
vt 0.579869 0.000000
vt 0.584622 0.011896
vt 0.255987 0.948846
vt 0.254592 0.960853
vt 0.487387 0.011898
vt 0.492118 0.000000
vt 0.199625 0.961636
vt 0.195076 0.949711
vt 0.277012 0.949715
vt 0.273567 0.961636
vt 0.164674 0.509861
vt 0.172593 0.498090
vt 0.186467 0.511734
vt 0.174817 0.519836
vt 0.042375 0.706059
vt 0.044488 0.717279
vt 0.195073 0.531962
vt 0.181106 0.534625
vt 0.042576 0.730983
vt 0.039445 0.696770
vt 0.150743 0.503986
vt 0.153536 0.490055
vt 0.135664 0.503891
vt 0.132910 0.489924
vt 0.161475 0.809569
vt 0.157419 0.797708
vt 0.162758 0.822394
vt 0.121732 0.509588
vt 0.113854 0.497717
vt 0.161070 0.834230
vt 0.111070 0.520211
vt 0.099270 0.512248
vt 0.075718 0.753588
vt 0.078887 0.744365
vt 0.105299 0.534143
vt 0.091377 0.531305
vt 0.073614 0.765559
vt 0.105300 0.549263
vt 0.091377 0.551985
vt 0.110551 0.562484
vt 0.098559 0.570071
vt 0.071724 0.777658
vt 0.073202 0.790309
vt 0.121734 0.574024
vt 0.113854 0.585860
vt 0.366001 0.673305
vt 0.368104 0.682395
vt 0.135665 0.579896
vt 0.132911 0.593898
vt 0.150743 0.579990
vt 0.153539 0.594031
vt 0.362775 0.661444
vt 0.361500 0.648620
vt 0.164671 0.574293
vt 0.172597 0.586237
vt 0.362370 0.636783
vt 0.175333 0.563672
vt 0.187183 0.571704
vt 0.365254 0.627737
vt 0.181104 0.549743
vt 0.195076 0.552645
vt 0.039445 0.742826
vt 0.220524 0.683753
vt 0.236926 0.683503
vt 0.256917 0.683754
vt 0.206927 0.684465
vt 0.321039 0.763332
vt 0.303732 0.764144
vt 0.339762 0.763092
vt 0.357049 0.763462
vt 0.453942 0.685471
vt 0.467474 0.684805
vt 0.436423 0.685661
vt 0.418729 0.685381
vt 0.400296 0.684576
vt 0.509365 0.277990
vt 0.496093 0.276896
vt 0.526682 0.278581
vt 0.545406 0.278581
vt 0.562687 0.277989
vt 0.575895 0.276895
vt 0.274173 0.684468
vt 0.665807 0.489691
vt 0.680895 0.489696
vt 0.680895 0.691056
vt 0.665807 0.691051
vt 0.653822 0.490020
vt 0.653822 0.691381
vt 0.643663 0.490674
vt 0.643663 0.692035
vt 0.012825 0.893120
vt 0.000000 0.893558
vt -0.000000 0.692416
vt 0.012825 0.691978
vt 0.026669 0.893120
vt 0.026669 0.691978
vt 0.039445 0.893556
vt 0.039445 0.692415
vt 0.733596 0.490338
vt 0.743612 0.489691
vt 0.743612 0.691054
vt 0.733596 0.691702
vt 0.720511 0.490682
vt 0.720511 0.692045
vt 0.707570 0.490679
vt 0.707570 0.692042
vt 0.693646 0.490288
vt 0.693646 0.691651
vt 0.009815 0.691539
vt 0.000000 0.690731
vt 0.000000 0.489592
vt 0.009815 0.490399
vt 0.022640 0.691978
vt 0.022640 0.490838
vt 0.036484 0.691978
vt 0.036484 0.490839
vt 0.049260 0.691540
vt 0.049260 0.490401
vt 0.059041 0.690730
vt 0.059041 0.489591
vt 0.693646 0.490069
vt 0.693646 0.691429
vt 0.101535 0.594360
vt 0.113520 0.594031
vt 0.113520 0.793552
vt 0.101535 0.793881
vt 0.128609 0.594036
vt 0.128609 0.793557
vt 0.091377 0.595014
vt 0.091377 0.794536
vt 0.706472 0.891350
vt 0.693646 0.891788
vt 0.693646 0.692484
vt 0.706472 0.692046
vt 0.720315 0.891349
vt 0.720315 0.692045
vt 0.733092 0.891786
vt 0.733092 0.692482
vt 0.181309 0.594678
vt 0.191326 0.594031
vt 0.191326 0.793554
vt 0.181309 0.794202
vt 0.168225 0.595022
vt 0.168225 0.794546
vt 0.155284 0.595019
vt 0.155284 0.794543
vt 0.141360 0.594628
vt 0.141360 0.794152
vt 0.594437 0.689801
vt 0.584622 0.688993
vt 0.584622 0.489691
vt 0.594437 0.490499
vt 0.607262 0.690240
vt 0.607262 0.490938
vt 0.621106 0.690240
vt 0.621106 0.490938
vt 0.633882 0.689803
vt 0.633882 0.490501
vt 0.643663 0.688993
vt 0.643663 0.489691
vt 0.141360 0.594409
vt 0.141360 0.793930
vt 0.617614 0.481588
vt 0.637604 0.481838
vt 0.636908 0.489022
vt 0.618085 0.488786
vt 0.124005 0.912003
vt 0.131373 0.929326
vt 0.124362 0.930757
vt 0.118098 0.916029
vt 0.987881 0.597985
vt 0.976745 0.586491
vt 0.980787 0.580586
vt 0.993886 0.594106
vt 0.239897 0.485258
vt 0.258719 0.485495
vt 0.259246 0.492302
vt 0.239256 0.492051
vt 0.601211 0.481838
vt 0.602731 0.489021
vt 0.112194 0.900388
vt 0.108235 0.906329
vt 0.992987 0.610842
vt 1.000000 0.609502
vt 0.224543 0.485492
vt 0.222853 0.492300
vt 0.587614 0.482551
vt 0.589954 0.489691
vt 0.095908 0.893520
vt 0.094469 0.900524
vt 0.992987 0.625781
vt 1.000000 0.627177
vt 0.307915 0.962555
vt 0.295457 0.963741
vt 0.292916 0.956648
vt 0.306173 0.955387
vt 0.532544 0.483330
vt 0.515222 0.483703
vt 0.516958 0.476937
vt 0.533210 0.476587
vt 0.078307 0.893408
vt 0.079665 0.900430
vt 0.987322 0.639459
vt 0.993265 0.643439
vt 0.324154 0.961793
vt 0.323480 0.954575
vt 0.551266 0.483566
vt 0.550771 0.476809
vt 0.062052 0.900055
vt 0.066007 0.906016
vt 0.976869 0.649873
vt 0.980824 0.655833
vt 0.341714 0.961569
vt 0.342203 0.954336
vt 0.568539 0.484374
vt 0.566971 0.477567
vt 0.049611 0.912450
vt 0.055554 0.916430
vt 0.963211 0.655459
vt 0.964569 0.662481
vt 0.357928 0.961916
vt 0.359490 0.954705
vt 0.076187 0.482296
vt 0.089707 0.481406
vt 0.087283 0.488291
vt 0.074598 0.489126
vt 0.042876 0.928711
vt 0.049889 0.930108
vt 0.948407 0.655365
vt 0.946968 0.662369
vt 0.455420 0.486836
vt 0.468117 0.486212
vt 0.470438 0.493359
vt 0.456906 0.494024
vt 0.058674 0.482777
vt 0.058140 0.489578
vt 0.042876 0.946387
vt 0.049889 0.945047
vt 0.934641 0.649560
vt 0.930682 0.655502
vt 0.438957 0.487015
vt 0.439387 0.494214
vt 0.040977 0.482791
vt 0.041575 0.489591
vt 0.048990 0.961783
vt 0.054995 0.957904
vt 0.924778 0.639860
vt 0.918871 0.643886
vt 0.422393 0.486753
vt 0.421692 0.493935
vt 0.022534 0.482292
vt 0.024209 0.489122
vt 0.062088 0.975303
vt 0.066131 0.969398
vt 0.918514 0.625133
vt 0.911503 0.626563
vt 0.405038 0.485996
vt 0.403260 0.493130
vt 0.119803 0.008216
vt 0.106531 0.007122
vt 0.109006 0.000000
vt 0.121453 0.001026
vt 0.078341 0.982156
vt 0.079782 0.975155
vt 0.918514 0.610318
vt 0.911503 0.608925
vt 0.392745 0.484955
vt 0.390151 0.492021
vt 0.137119 0.008808
vt 0.137700 0.001581
vt 0.095942 0.982268
vt 0.094586 0.975249
vt 0.924179 0.596640
vt 0.918238 0.592664
vt 0.527270 0.476588
vt 0.511023 0.476033
vt 0.509373 0.469246
vt 0.526689 0.469838
vt 0.155843 0.008808
vt 0.155262 0.001581
vt 0.112197 0.975621
vt 0.108244 0.969663
vt 0.934632 0.586226
vt 0.930679 0.580269
vt 0.544832 0.476587
vt 0.545413 0.469837
vt 0.173124 0.008216
vt 0.171470 0.001026
vt 0.124638 0.963226
vt 0.118697 0.959249
vt 0.948290 0.580640
vt 0.946934 0.573621
vt 0.561041 0.476032
vt 0.562694 0.469245
vt 0.186332 0.007123
vt 0.183862 0.000000
vt 0.131373 0.946965
vt 0.124362 0.945571
vt 0.963094 0.580734
vt 0.964534 0.573733
vt 0.573433 0.475005
vt 0.575902 0.468151
vt 0.654860 0.482551
vt 0.653090 0.489691
vt 0.274902 0.486164
vt 0.276502 0.493016
vt 0.765055 0.477506
vt 0.781458 0.477255
vt 0.781929 0.484454
vt 0.766575 0.484688
vt 0.664481 0.896759
vt 0.676291 0.908375
vt 0.670384 0.912401
vt 0.660521 0.902701
vt 0.992987 0.521982
vt 0.987881 0.509125
vt 0.993886 0.505246
vt 1.000000 0.520642
vt 0.859865 0.000233
vt 0.875219 0.000000
vt 0.874578 0.006793
vt 0.858175 0.007042
vt 0.801448 0.477506
vt 0.800752 0.484690
vt 0.683660 0.925698
vt 0.676649 0.927128
vt 0.976745 0.497631
vt 0.980787 0.491726
vt 0.894042 0.000237
vt 0.894568 0.007044
vt 0.751458 0.478219
vt 0.753798 0.485358
vt 0.648194 0.889892
vt 0.646756 0.896896
vt 0.992987 0.536921
vt 1.000000 0.538318
vt 0.763412 0.970341
vt 0.750954 0.971525
vt 0.748413 0.964433
vt 0.761670 0.963172
vt 0.875508 0.491504
vt 0.858185 0.491874
vt 0.859922 0.485109
vt 0.876175 0.484761
vt 0.630594 0.889780
vt 0.631952 0.896802
vt 0.987322 0.550599
vt 0.993264 0.554579
vt 0.779650 0.969580
vt 0.778978 0.962361
vt 0.894230 0.491741
vt 0.893735 0.484984
vt 0.614339 0.896428
vt 0.618294 0.902388
vt 0.976868 0.561013
vt 0.980823 0.566974
vt 0.797211 0.969357
vt 0.797700 0.962124
vt 0.911503 0.492552
vt 0.909935 0.485744
vt 0.601898 0.908823
vt 0.607841 0.912802
vt 0.963211 0.566599
vt 0.964568 0.573621
vt 0.813425 0.969705
vt 0.814988 0.962495
vt 0.271258 0.477963
vt 0.284778 0.477073
vt 0.282354 0.483958
vt 0.269669 0.484793
vt 0.595162 0.925084
vt 0.602175 0.926480
vt 0.948406 0.566505
vt 0.946968 0.573509
vt 0.731827 0.001875
vt 0.744523 0.001250
vt 0.746846 0.008396
vt 0.733313 0.009063
vt 0.253745 0.478444
vt 0.253211 0.485245
vt 0.595162 0.942759
vt 0.602175 0.941419
vt 0.934641 0.560700
vt 0.930682 0.566642
vt 0.715364 0.002055
vt 0.715795 0.009254
vt 0.236048 0.478458
vt 0.236646 0.485258
vt 0.601277 0.958155
vt 0.607281 0.954276
vt 0.924778 0.551000
vt 0.918871 0.555026
vt 0.698800 0.001795
vt 0.698100 0.008976
vt 0.217605 0.477959
vt 0.219280 0.484789
vt 0.614375 0.971675
vt 0.618417 0.965770
vt 0.918514 0.536273
vt 0.911502 0.537703
vt 0.681445 0.001039
vt 0.679667 0.008174
vt 0.314878 0.008216
vt 0.301606 0.007122
vt 0.304082 0.000000
vt 0.316529 0.001026
vt 0.630628 0.978528
vt 0.632068 0.971527
vt 0.918514 0.521458
vt 0.911502 0.520065
vt 0.669151 0.000000
vt 0.666559 0.007066
vt 0.332195 0.008808
vt 0.332776 0.001581
vt 0.648228 0.978640
vt 0.646872 0.971621
vt 0.924179 0.507780
vt 0.918238 0.503804
vt 0.430040 0.484955
vt 0.413793 0.484401
vt 0.412142 0.477614
vt 0.429458 0.478206
vt 0.350919 0.008808
vt 0.350337 0.001581
vt 0.664483 0.971992
vt 0.660530 0.966035
vt 0.934632 0.497366
vt 0.930679 0.491409
vt 0.447602 0.484955
vt 0.448182 0.478205
vt 0.368200 0.008216
vt 0.366546 0.001026
vt 0.676924 0.959597
vt 0.670983 0.955621
vt 0.948290 0.491780
vt 0.946934 0.484761
vt 0.463810 0.484399
vt 0.465464 0.477613
vt 0.381408 0.007123
vt 0.378938 0.000000
vt 0.683660 0.943336
vt 0.676649 0.941943
vt 0.963094 0.491875
vt 0.964534 0.484873
vt 0.476202 0.483373
vt 0.478671 0.476518
vt 0.818704 0.478219
vt 0.816934 0.485358
vt 0.910224 0.000907
vt 0.911824 0.007759
vt 0.116173 0.917340
vt 0.106936 0.908277
vt 0.122091 0.931219
vt 0.990687 0.611282
vt 0.985926 0.599249
vt 0.975436 0.588403
vt 0.962626 0.583014
vt 0.122080 0.945117
vt 0.094001 0.902804
vt 0.990705 0.625327
vt 0.209256 0.493012
vt 0.080106 0.902713
vt 0.985390 0.638165
vt 0.067293 0.907952
vt 0.975583 0.647937
vt 0.057486 0.917724
vt 0.962770 0.653176
vt 0.052171 0.930562
vt 0.948875 0.653085
vt 0.052189 0.944607
vt 0.935940 0.647612
vt 0.056950 0.956640
vt 0.926703 0.638550
vt 0.067440 0.967486
vt 0.920784 0.624670
vt 0.080250 0.972875
vt 0.920796 0.610772
vt 0.496101 0.468153
vt 0.094144 0.972966
vt 0.926111 0.597934
vt 0.106958 0.967727
vt 0.935917 0.588163
vt 0.116765 0.957955
vt 0.948731 0.582923
vt 0.659222 0.904649
vt 0.646287 0.899176
vt 0.668460 0.913712
vt 0.990705 0.536467
vt 0.990687 0.522422
vt 0.985926 0.510389
vt 0.844578 0.007753
vt 0.975436 0.499543
vt 0.674378 0.927591
vt 0.962626 0.494154
vt 0.674366 0.941489
vt 0.632393 0.899085
vt 0.985389 0.549305
vt 0.619579 0.904324
vt 0.975583 0.559077
vt 0.609773 0.914096
vt 0.962769 0.564316
vt 0.604458 0.926934
vt 0.948875 0.564225
vt 0.604475 0.940979
vt 0.935940 0.558752
vt 0.609237 0.953012
vt 0.926702 0.549689
vt 0.619726 0.963858
vt 0.920784 0.535810
vt 0.632537 0.969247
vt 0.920796 0.521912
vt 0.398870 0.476521
vt 0.646431 0.969338
vt 0.926111 0.509074
vt 0.659245 0.964098
vt 0.935917 0.499303
vt 0.669051 0.954327
vt 0.948731 0.494063
s 1
f 68/1/1 67/2/2 66/3/3 65/4/4
f 72/5/5 71/6/6 70/7/7 69/8/8
f 74/9/9 73/10/10 71/6/6 72/5/5
f 76/11/11 75/12/12 73/10/10 74/9/9
f 78/13/13 77/14/14 75/15/12 76/16/11
f 82/17/15 81/18/16 80/19/17 79/20/18
f 84/21/19 83/22/20 81/18/16 82/17/15
f 88/23/21 87/24/22 86/25/23 85/26/24
f 90/27/25 89/28/26 87/24/22 88/23/21
f 92/29/27 91/30/28 89/28/26 90/27/25
f 94/31/29 93/32/30 91/30/28 92/29/27
f 65/4/4 66/3/3 96/33/31 95/34/32
f 85/26/24 86/25/23 83/35/20 84/36/19
f 79/20/18 80/19/17 77/14/14 78/13/13
f 69/37/8 70/38/7 67/2/2 68/1/1
f 95/34/32 96/33/31 93/39/30 94/40/29
f 100/41/33 99/42/34 98/43/35 97/44/36
f 104/45/37 103/46/38 102/47/39 101/48/40
f 106/49/41 105/50/42 103/46/38 104/45/37
f 108/51/43 107/52/44 105/50/42 106/49/41
f 110/53/45 109/54/46 107/55/44 108/56/43
f 114/57/47 113/58/48 112/59/49 111/60/50
f 116/61/51 115/62/52 113/58/48 114/57/47
f 120/63/53 119/64/54 118/65/55 117/66/56
f 122/67/57 121/68/58 119/64/54 120/63/53
f 124/69/59 123/70/60 121/68/58 122/67/57
f 126/71/61 125/72/62 123/70/60 124/69/59
f 97/44/36 98/43/35 128/73/63 127/74/64
f 117/66/56 118/65/55 115/75/52 116/76/51
f 111/60/50 112/59/49 109/54/46 110/53/45
f 101/77/40 102/78/39 99/42/34 100/41/33
f 127/74/64 128/73/63 125/79/62 126/80/61
f 130/81/65 129/82/66 132/83/67 131/84/68
f 134/85/69 133/86/70 136/87/71 135/88/72
f 135/88/72 136/87/71 138/89/73 137/90/74
f 137/90/74 138/89/73 140/91/75 139/92/76
f 139/93/76 140/94/75 142/95/77 141/96/78
f 144/97/79 143/98/80 146/99/81 145/100/82
f 145/100/82 146/99/81 148/101/83 147/102/84
f 150/103/85 149/104/86 152/105/87 151/106/88
f 151/106/88 152/105/87 154/107/89 153/108/90
f 153/108/90 154/107/89 156/109/91 155/110/92
f 155/110/92 156/109/91 158/111/93 157/112/94
f 160/113/95 159/114/96 129/82/66 130/81/65
f 147/102/84 148/101/83 149/115/86 150/116/85
f 141/96/78 142/95/77 143/98/80 144/97/79
f 131/117/68 132/118/67 133/86/70 134/85/69
f 157/119/94 158/120/93 159/114/96 160/113/95
f 164/121/97 163/122/68 162/123/65 161/124/66
f 168/125/71 167/126/72 166/127/69 165/128/70
f 170/129/73 169/130/74 167/126/72 168/125/71
f 172/131/75 171/132/76 169/130/74 170/129/73
f 174/133/77 173/134/78 171/135/76 172/136/75
f 178/137/81 177/138/82 176/139/98 175/140/80
f 180/141/83 179/142/84 177/138/82 178/137/81
f 184/143/87 183/144/88 182/145/85 181/146/86
f 186/147/89 185/148/90 183/144/88 184/143/87
f 188/149/91 187/150/92 185/148/90 186/147/89
f 190/151/93 189/152/94 187/150/92 188/149/91
f 161/124/66 162/123/65 192/153/95 191/154/96
f 181/155/86 182/156/85 179/142/84 180/141/83
f 175/140/80 176/139/98 173/134/78 174/133/77
f 165/128/70 166/127/69 163/157/68 164/158/97
f 191/154/96 192/153/95 189/159/94 190/160/93
f 194/161/99 193/162/100 196/163/101 195/164/102
f 198/165/103 197/166/104 200/167/105 199/168/106
f 199/168/106 200/167/105 202/169/107 201/170/108
f 201/170/108 202/169/107 204/171/109 203/172/110
f 203/173/110 204/174/109 206/175/111 205/176/112
f 208/177/113 207/178/114 210/179/115 209/180/116
f 209/180/116 210/179/115 212/181/117 211/182/118
f 214/183/119 213/184/120 216/185/121 215/186/122
f 215/186/122 216/185/121 218/187/123 217/188/124
f 217/188/124 218/187/123 220/189/125 219/190/126
f 219/190/126 220/189/125 222/191/127 221/192/128
f 224/193/129 223/194/130 193/162/100 194/161/99
f 211/182/118 212/181/117 213/195/120 214/196/119
f 205/176/112 206/175/111 207/178/114 208/177/113
f 195/197/102 196/198/101 197/166/104 198/165/103
f 221/199/128 222/200/127 223/194/130 224/193/129
f 228/201/131 227/202/102 226/203/99 225/204/132
f 232/205/133 231/206/106 230/207/103 229/208/134
f 234/209/135 233/210/108 231/206/106 232/205/133
f 236/211/136 235/212/110 233/210/108 234/209/135
f 238/213/137 237/214/112 235/215/110 236/216/136
f 242/217/138 241/218/116 240/219/113 239/220/139
f 244/221/140 243/222/118 241/218/116 242/217/138
f 248/223/141 247/224/122 246/225/119 245/226/142
f 250/227/143 249/228/124 247/224/122 248/223/141
f 252/229/144 251/230/126 249/228/124 250/227/143
f 254/231/145 253/232/128 251/230/126 252/229/144
f 225/204/132 226/203/99 256/233/129 255/234/146
f 245/235/142 246/236/119 243/222/118 244/221/140
f 239/220/139 240/219/113 237/214/112 238/213/137
f 229/208/134 230/207/103 227/237/102 228/238/131
f 255/234/146 256/233/129 253/239/128 254/240/145
f 67/241/2 100/242/33 97/243/36 66/244/3
f 18/245/147 68/246/147 65/247/148 17/248/149
f 66/244/3 97/243/36 127/249/64 96/250/31
f 17/248/149 65/247/148 95/251/150 32/252/150
f 19/253/151 69/37/8 68/1/1 18/254/152
f 70/255/7 101/256/40 100/242/33 67/241/2
f 71/257/6 104/258/37 101/256/40 70/255/7
f 20/259/153 72/5/5 69/8/8 19/260/151
f 21/261/154 74/9/9 72/5/5 20/259/153
f 73/262/10 106/263/41 104/258/37 71/257/6
f 22/264/155 76/11/11 74/9/9 21/261/154
f 75/265/12 108/266/43 106/263/41 73/262/10
f 23/267/156 78/13/13 76/16/11 22/268/155
f 77/269/14 110/270/45 108/266/43 75/265/12
f 24/271/157 79/20/18 78/13/13 23/267/156
f 80/272/17 111/273/50 110/270/45 77/269/14
f 81/274/16 114/275/47 111/273/50 80/272/17
f 25/276/158 82/277/159 79/278/160 24/279/160
f 26/280/161 84/281/161 82/277/159 25/276/158
f 83/282/20 116/283/51 114/275/47 81/274/16
f 27/284/162 85/26/24 84/36/19 26/285/163
f 86/286/23 117/287/56 116/283/51 83/282/20
f 87/288/22 120/289/53 117/287/56 86/286/23
f 28/290/164 88/23/21 85/26/24 27/284/162
f 29/291/165 90/27/25 88/23/21 28/290/164
f 89/292/26 122/293/57 120/289/53 87/288/22
f 30/294/166 92/29/27 90/27/25 29/291/165
f 91/295/28 124/296/59 122/293/57 89/292/26
f 31/297/167 94/31/29 92/29/27 30/294/166
f 93/298/30 126/299/61 124/296/59 91/295/28
f 32/300/168 95/34/32 94/40/29 31/301/167
f 96/250/31 127/249/64 126/299/61 93/298/30
f 258/302/169 259/303/170 98/43/35 99/42/34
f 259/303/170 261/304/171 128/73/63 98/43/35
f 264/305/172 258/302/169 99/42/34 102/78/39
f 266/306/173 264/307/172 102/47/39 103/46/38
f 268/308/174 266/306/173 103/46/38 105/50/42
f 270/309/175 268/308/174 105/50/42 107/52/44
f 272/310/176 270/311/175 107/55/44 109/54/46
f 274/312/177 272/310/176 109/54/46 112/59/49
f 276/313/178 274/312/177 112/59/49 113/58/48
f 278/314/179 276/313/178 113/58/48 115/62/52
f 280/315/180 278/316/179 115/75/52 118/65/55
f 282/317/181 280/315/180 118/65/55 119/64/54
f 284/318/182 282/317/181 119/64/54 121/68/58
f 286/319/183 284/318/182 121/68/58 123/70/60
f 288/320/184 286/319/183 123/70/60 125/72/62
f 261/304/171 288/321/184 125/79/62 128/73/63
f 132/322/67 129/323/66 194/324/99 195/325/102
f 33/326/149 48/327/185 160/328/185 130/329/148
f 34/330/186 33/326/149 130/329/148 131/331/186
f 129/323/66 159/332/96 224/333/129 194/324/99
f 133/334/70 132/322/67 195/325/102 198/335/103
f 35/336/151 34/337/152 131/338/68 134/339/69
f 136/340/71 133/334/70 198/335/103 199/341/106
f 36/342/153 35/343/151 134/85/69 135/88/72
f 138/344/73 136/340/71 199/341/106 201/345/108
f 37/346/154 36/342/153 135/88/72 137/90/74
f 140/347/75 138/344/73 201/345/108 203/348/110
f 38/349/155 37/346/154 137/90/74 139/92/76
f 142/350/77 140/347/75 203/348/110 205/351/112
f 39/352/156 38/353/155 139/93/76 141/96/78
f 143/354/80 142/350/77 205/351/112 208/355/113
f 40/356/157 39/352/156 141/96/78 144/97/79
f 146/357/81 143/354/80 208/355/113 209/358/116
f 41/359/158 40/360/160 144/361/160 145/362/159
f 148/363/83 146/357/81 209/358/116 211/364/118
f 42/365/161 41/359/158 145/362/159 147/366/161
f 149/367/86 148/363/83 211/364/118 214/368/119
f 43/369/162 42/370/163 147/371/84 150/103/85
f 152/372/87 149/367/86 214/368/119 215/373/122
f 44/374/164 43/369/162 150/103/85 151/106/88
f 154/375/89 152/372/87 215/373/122 217/376/124
f 45/377/165 44/374/164 151/106/88 153/108/90
f 156/378/91 154/375/89 217/376/124 219/379/126
f 46/380/166 45/377/165 153/108/90 155/110/92
f 158/381/93 156/378/91 219/379/126 221/382/128
f 47/383/167 46/380/166 155/110/92 157/112/94
f 159/332/96 158/381/93 221/382/128 224/333/129
f 48/384/187 47/385/167 157/119/94 160/113/95
f 164/386/97 161/387/66 226/388/99 227/389/102
f 49/390/149 64/391/150 192/392/150 162/393/148
f 50/394/147 49/390/149 162/393/148 163/395/147
f 161/387/66 191/396/96 256/397/129 226/388/99
f 165/398/70 164/386/97 227/389/102 230/399/103
f 51/400/151 50/401/152 163/402/68 166/403/69
f 168/404/71 165/398/70 230/399/103 231/405/106
f 52/406/153 51/407/151 166/127/69 167/126/72
f 170/408/73 168/404/71 231/405/106 233/409/108
f 53/410/154 52/406/153 167/126/72 169/130/74
f 172/411/75 170/408/73 233/409/108 235/412/110
f 54/413/155 53/410/154 169/130/74 171/132/76
f 174/414/77 172/411/75 235/412/110 237/415/112
f 55/416/156 54/417/155 171/135/76 173/134/78
f 175/418/80 174/414/77 237/415/112 240/419/113
f 56/420/157 55/416/156 173/134/78 176/139/98
f 178/421/81 175/418/80 240/419/113 241/422/116
f 57/423/158 56/424/160 176/425/160 177/426/159
f 180/427/83 178/421/81 241/422/116 243/428/118
f 58/429/161 57/423/158 177/426/159 179/430/161
f 181/431/86 180/427/83 243/428/118 246/432/119
f 59/433/162 58/434/163 179/435/84 182/145/85
f 184/436/87 181/431/86 246/432/119 247/437/122
f 60/438/164 59/433/162 182/145/85 183/144/88
f 186/439/89 184/436/87 247/437/122 249/440/124
f 61/441/165 60/438/164 183/144/88 185/148/90
f 188/442/91 186/439/89 249/440/124 251/443/126
f 62/444/166 61/441/165 185/148/90 187/150/92
f 190/445/93 188/442/91 251/443/126 253/446/128
f 63/447/167 62/444/166 187/150/92 189/152/94
f 191/396/96 190/445/93 253/446/128 256/397/129
f 64/448/187 63/449/167 189/159/94 192/153/95
f 255/234/146 254/240/145 287/450/188 262/451/189
f 254/231/145 252/229/144 285/452/190 287/453/188
f 252/229/144 250/227/143 283/454/191 285/452/190
f 250/227/143 248/223/141 281/455/192 283/454/191
f 248/223/141 245/226/142 279/456/193 281/455/192
f 245/226/142 244/457/140 277/458/194 279/456/193
f 244/221/140 242/217/138 275/459/195 277/460/194
f 242/217/138 239/220/139 273/461/196 275/459/195
f 239/220/139 238/213/137 271/462/197 273/461/196
f 238/213/137 236/216/136 269/463/198 271/462/197
f 236/211/136 234/209/135 267/464/199 269/465/198
f 234/209/135 232/205/133 265/466/200 267/464/199
f 232/205/133 229/208/134 263/467/201 265/466/200
f 229/468/134 228/201/131 257/469/202 263/470/201
f 225/204/132 255/234/146 262/451/189 260/471/203
f 228/201/131 225/204/132 260/471/203 257/469/202
f 223/194/130 222/200/127 319/472/204 292/473/205
f 222/191/127 220/189/125 317/474/206 319/475/204
f 220/189/125 218/187/123 315/476/207 317/474/206
f 218/187/123 216/185/121 313/477/208 315/476/207
f 216/185/121 213/184/120 311/478/209 313/477/208
f 213/184/120 212/479/117 309/480/210 311/478/209
f 212/181/117 210/179/115 307/481/211 309/482/210
f 210/179/115 207/178/114 305/483/212 307/481/211
f 207/178/114 206/175/111 303/484/213 305/483/212
f 206/175/111 204/174/109 301/485/214 303/484/213
f 204/171/109 202/169/107 299/486/215 301/487/214
f 202/169/107 200/167/105 297/488/216 299/486/215
f 200/167/105 197/166/104 295/489/217 297/488/216
f 197/490/104 196/163/101 293/491/218 295/492/217
f 196/163/101 193/162/100 289/493/219 293/491/218
f 193/162/100 223/194/130 292/473/205 289/493/219
f 322/494/3 321/495/220 324/496/221 323/497/2
f 326/498/7 325/499/8 328/500/5 327/501/222
f 327/501/222 328/500/5 330/502/9 329/503/10
f 329/503/10 330/502/9 332/504/11 331/505/223
f 331/506/223 332/507/11 334/508/13 333/509/14
f 336/510/224 335/511/225 338/512/226 337/513/16
f 337/513/16 338/512/226 340/514/227 339/515/20
f 342/516/23 341/517/24 344/518/21 343/519/22
f 343/519/22 344/518/21 346/520/25 345/521/26
f 345/521/26 346/520/25 348/522/27 347/523/28
f 347/523/28 348/522/27 350/524/29 349/525/228
f 352/526/31 351/527/229 321/495/220 322/494/3
f 339/528/20 340/529/227 341/517/24 342/516/23
f 333/509/14 334/508/13 335/511/225 336/510/224
f 323/497/2 324/496/221 325/530/8 326/531/7
f 349/532/228 350/533/29 351/527/229 352/526/31
f 354/534/230 353/535/36 356/536/33 355/537/231
f 358/538/232 357/539/40 360/540/37 359/541/233
f 359/541/233 360/540/37 362/542/41 361/543/234
f 361/543/234 362/542/41 364/544/43 363/545/235
f 363/546/235 364/547/43 366/548/45 365/549/236
f 368/550/237 367/551/50 370/552/47 369/553/238
f 369/553/238 370/552/47 372/554/51 371/555/239
f 374/556/240 373/557/56 376/558/53 375/559/241
f 375/559/241 376/558/53 378/560/57 377/561/242
f 377/561/242 378/560/57 380/562/59 379/563/243
f 379/563/243 380/562/59 382/564/61 381/565/244
f 384/566/245 383/567/64 353/535/36 354/534/230
f 371/568/239 372/569/51 373/557/56 374/556/240
f 365/549/236 366/548/45 367/551/50 368/550/237
f 355/537/231 356/536/33 357/570/40 358/571/232
f 381/572/244 382/573/61 383/567/64 384/566/245
f 323/574/2 356/575/33 353/576/36 322/577/3
f 2/578/246 324/496/221 321/495/220 1/579/247
f 322/577/3 353/576/36 383/580/64 352/581/31
f 1/579/247 321/495/220 351/527/229 16/582/248
f 3/583/151 325/530/8 324/496/221 2/578/246
f 326/584/7 357/585/40 356/575/33 323/574/2
f 327/586/222 360/587/37 357/585/40 326/584/7
f 4/588/153 328/500/5 325/499/8 3/589/151
f 5/590/154 330/502/9 328/500/5 4/588/153
f 329/591/10 362/592/41 360/587/37 327/586/222
f 6/593/155 332/504/11 330/502/9 5/590/154
f 331/594/223 364/595/43 362/592/41 329/591/10
f 7/596/156 334/508/13 332/507/11 6/597/155
f 333/598/14 366/599/45 364/595/43 331/594/223
f 8/600/249 335/511/225 334/508/13 7/596/156
f 336/601/224 367/602/50 366/599/45 333/598/14
f 337/603/16 370/604/47 367/602/50 336/601/224
f 9/605/250 338/512/226 335/511/225 8/600/249
f 10/606/251 340/514/227 338/512/226 9/605/250
f 339/607/20 372/608/51 370/604/47 337/603/16
f 11/609/162 341/517/24 340/529/227 10/610/251
f 342/611/23 373/612/56 372/608/51 339/607/20
f 343/613/22 376/614/53 373/612/56 342/611/23
f 12/615/164 344/518/21 341/517/24 11/609/162
f 13/616/165 346/520/25 344/518/21 12/615/164
f 345/617/26 378/618/57 376/614/53 343/613/22
f 14/619/166 348/522/27 346/520/25 13/616/165
f 347/620/28 380/621/59 378/618/57 345/617/26
f 15/622/167 350/524/29 348/522/27 14/619/166
f 349/623/228 382/624/61 380/621/59 347/620/28
f 16/582/248 351/527/229 350/533/29 15/625/167
f 352/581/31 383/580/64 382/624/61 349/623/228
f 294/626/252 290/627/253 354/534/230 355/537/231
f 290/627/253 291/628/254 384/566/245 354/534/230
f 296/629/255 294/626/252 355/537/231 358/571/232
f 298/630/256 296/631/255 358/538/232 359/541/233
f 300/632/257 298/630/256 359/541/233 361/543/234
f 302/633/258 300/632/257 361/543/234 363/545/235
f 304/634/259 302/635/258 363/546/235 365/549/236
f 306/636/260 304/634/259 365/549/236 368/550/237
f 308/637/261 306/636/260 368/550/237 369/553/238
f 310/638/262 308/637/261 369/553/238 371/555/239
f 312/639/263 310/640/262 371/568/239 374/556/240
f 314/641/264 312/639/263 374/556/240 375/559/241
f 316/642/265 314/641/264 375/559/241 377/561/242
f 318/643/266 316/642/265 377/561/242 379/563/243
f 320/644/267 318/643/266 379/563/243 381/565/244
f 291/628/254 320/645/267 381/572/244 384/566/245
f 385/646/268 388/647/269 387/648/269 386/649/268
f 389/650/270 385/646/268 386/649/268 390/651/270
f 391/652/271 389/650/270 390/651/270 392/653/271
f 393/654/272 391/655/271 392/656/271 394/657/272
f 395/658/154 393/654/272 394/657/272 396/659/154
f 397/660/273 395/658/154 396/659/154 398/661/273
f 399/662/274 397/663/273 398/664/273 400/665/274
f 401/666/275 399/662/274 400/665/274 402/667/275
f 403/668/276 401/666/275 402/667/275 404/669/276
f 405/670/277 403/668/276 404/669/276 406/671/277
f 407/672/278 405/673/277 406/674/277 408/675/278
f 409/676/279 407/672/278 408/675/278 410/677/279
f 411/678/165 409/676/279 410/677/279 412/679/165
f 413/680/280 411/678/165 412/679/165 414/681/280
f 415/682/281 413/680/280 414/681/280 416/683/281
f 388/647/269 415/684/281 416/685/281 387/648/269
f 417/686/270 420/687/268 419/688/268 418/689/270
f 420/687/268 422/690/269 421/691/269 419/688/268
f 423/692/282 417/686/270 418/689/270 424/693/282
f 425/694/272 423/695/282 424/696/282 426/697/272
f 427/698/154 425/694/272 426/697/272 428/699/154
f 429/700/273 427/698/154 428/699/154 430/701/273
f 431/702/274 429/703/273 430/704/273 432/705/274
f 433/706/275 431/702/274 432/705/274 434/707/275
f 435/708/276 433/706/275 434/707/275 436/709/276
f 437/710/283 435/708/276 436/709/276 438/711/283
f 439/712/278 437/713/283 438/714/283 440/715/278
f 441/716/279 439/712/278 440/715/278 442/717/279
f 443/718/165 441/716/279 442/717/279 444/719/165
f 445/720/280 443/718/165 444/719/165 446/721/280
f 447/722/281 445/720/280 446/721/280 448/723/281
f 422/690/269 447/724/281 448/725/281 421/691/269
f 450/726/284 458/727/285 460/728/286 451/729/287
f 451/730/288 460/731/289 459/732/290 449/733/291
f 453/734/292 455/735/293 457/736/294 454/737/295
f 454/738/296 457/739/297 456/740/298 452/741/299
f 462/742/300 450/726/284 451/729/287 463/743/301
f 463/744/302 451/730/288 449/733/291 461/745/303
f 465/746/304 453/734/292 454/737/295 466/747/305
f 466/748/306 454/738/296 452/741/299 464/749/307
f 468/750/308 462/742/300 463/743/301 469/751/309
f 469/752/310 463/744/302 461/745/303 467/753/311
f 471/754/312 465/746/304 466/747/305 472/755/313
f 472/756/314 466/757/306 464/758/307 470/759/315
f 474/760/316 468/761/308 469/762/309 475/763/317
f 475/764/318 469/752/310 467/753/311 473/765/319
f 477/766/320 471/754/312 472/755/313 478/767/321
f 478/768/322 472/756/314 470/759/315 476/769/323
f 480/770/324 474/760/316 475/763/317 481/771/325
f 481/772/326 475/764/318 473/765/319 479/773/327
f 483/774/328 477/766/320 478/767/321 484/775/329
f 484/776/330 478/768/322 476/769/323 482/777/331
f 486/778/332 480/770/324 481/771/325 487/779/333
f 487/780/334 481/772/326 479/773/327 485/781/335
f 489/782/336 483/774/328 484/775/329 490/783/337
f 490/784/338 484/776/330 482/777/331 488/785/339
f 492/786/340 486/787/332 487/788/333 493/789/341
f 493/790/342 487/780/334 485/781/335 491/791/343
f 495/792/344 489/782/336 490/783/337 496/793/345
f 496/794/346 490/795/338 488/796/339 494/797/347
f 498/798/348 492/786/340 493/789/341 499/799/349
f 499/800/350 493/790/342 491/791/343 497/801/351
f 501/802/352 495/792/344 496/793/345 502/803/353
f 502/804/354 496/794/346 494/797/347 500/805/355
f 504/806/356 498/798/348 499/799/349 505/807/357
f 505/808/358 499/800/350 497/801/351 503/809/359
f 507/810/360 501/802/352 502/803/353 508/811/361
f 508/812/362 502/804/354 500/805/355 506/813/363
f 510/814/364 504/806/356 505/807/357 511/815/365
f 511/816/366 505/808/358 503/809/359 509/817/367
f 513/818/368 507/810/360 508/811/361 514/819/369
f 514/820/370 508/812/362 506/813/363 512/821/371
f 516/822/372 510/823/364 511/824/365 517/825/373
f 517/826/374 511/816/366 509/817/367 515/827/375
f 519/828/376 513/818/368 514/819/369 520/829/377
f 520/830/378 514/820/370 512/821/371 518/831/379
f 522/832/380 516/822/372 517/825/373 523/833/381
f 523/834/382 517/826/374 515/827/375 521/835/383
f 525/836/384 519/828/376 520/829/377 526/837/385
f 526/838/386 520/839/378 518/840/379 524/841/387
f 528/842/388 522/832/380 523/833/381 529/843/389
f 529/844/390 523/834/382 521/835/383 527/845/391
f 531/846/392 525/836/384 526/837/385 532/847/393
f 532/848/394 526/838/386 524/841/387 530/849/395
f 534/850/396 528/842/388 529/843/389 535/851/397
f 535/852/398 529/844/390 527/845/391 533/853/399
f 537/854/400 531/846/392 532/847/393 538/855/401
f 538/856/402 532/848/394 530/849/395 536/857/403
f 540/858/404 534/850/396 535/851/397 541/859/405
f 541/860/406 535/852/398 533/853/399 539/861/407
f 543/862/408 537/854/400 538/855/401 544/863/409
f 544/864/410 538/856/402 536/857/403 542/865/411
f 458/727/285 540/866/404 541/867/405 460/728/286
f 460/731/289 541/860/406 539/861/407 459/732/290
f 455/735/293 543/862/408 544/863/409 457/736/294
f 457/739/297 544/868/410 542/869/411 456/740/298
f 546/870/300 554/871/284 556/872/287 547/873/301
f 547/874/412 556/875/413 555/876/414 545/877/303
f 549/878/304 551/879/292 553/880/295 550/881/305
f 550/882/306 553/883/296 552/884/299 548/885/307
f 554/871/284 560/886/285 562/887/286 556/872/287
f 556/875/413 562/888/289 561/889/415 555/876/414
f 551/879/292 557/890/293 559/891/294 553/880/295
f 553/883/296 559/892/297 558/893/298 552/884/299
f 564/894/308 546/870/300 547/873/301 565/895/309
f 565/896/310 547/874/412 545/877/303 563/897/311
f 567/898/312 549/878/304 550/881/305 568/899/313
f 568/900/314 550/901/306 548/902/307 566/903/315
f 570/904/316 564/905/308 565/906/309 571/907/317
f 571/908/416 565/896/310 563/897/311 569/909/417
f 573/910/320 567/898/312 568/899/313 574/911/321
f 574/912/322 568/900/314 566/903/315 572/913/323
f 576/914/324 570/904/316 571/907/317 577/915/325
f 577/916/326 571/908/416 569/909/417 575/917/327
f 579/918/328 573/910/320 574/911/321 580/919/329
f 580/920/330 574/912/322 572/913/323 578/921/331
f 582/922/332 576/914/324 577/915/325 583/923/333
f 583/924/418 577/916/326 575/917/327 581/925/419
f 585/926/336 579/918/328 580/919/329 586/927/337
f 586/928/338 580/920/330 578/921/331 584/929/339
f 588/930/340 582/931/332 583/932/333 589/933/341
f 589/934/342 583/924/418 581/925/419 587/935/343
f 591/936/344 585/926/336 586/927/337 592/937/345
f 592/938/346 586/939/338 584/940/339 590/941/347
f 594/942/348 588/930/340 589/933/341 595/943/349
f 595/944/420 589/934/342 587/935/343 593/945/351
f 597/946/352 591/936/344 592/937/345 598/947/353
f 598/948/354 592/938/346 590/941/347 596/949/355
f 600/950/356 594/942/348 595/943/349 601/951/357
f 601/952/421 595/944/420 593/945/351 599/953/422
f 603/954/360 597/946/352 598/947/353 604/955/361
f 604/956/362 598/948/354 596/949/355 602/957/363
f 606/958/364 600/950/356 601/951/357 607/959/365
f 607/960/366 601/952/421 599/953/422 605/961/423
f 609/962/368 603/954/360 604/955/361 610/963/369
f 610/964/370 604/956/362 602/957/363 608/965/371
f 612/966/372 606/967/364 607/968/365 613/969/373
f 613/970/374 607/960/366 605/961/423 611/971/375
f 615/972/376 609/962/368 610/963/369 616/973/377
f 616/974/378 610/964/370 608/965/371 614/975/379
f 618/976/380 612/966/372 613/969/373 619/977/381
f 619/978/424 613/970/374 611/971/375 617/979/425
f 621/980/384 615/972/376 616/973/377 622/981/385
f 622/982/386 616/983/378 614/984/379 620/985/387
f 624/986/388 618/976/380 619/977/381 625/987/389
f 625/988/390 619/978/424 617/979/425 623/989/391
f 627/990/392 621/980/384 622/981/385 628/991/393
f 628/992/394 622/982/386 620/985/387 626/993/395
f 630/994/396 624/986/388 625/987/389 631/995/397
f 631/996/426 625/988/390 623/989/391 629/997/427
f 633/998/400 627/990/392 628/991/393 634/999/401
f 634/1000/402 628/992/394 626/993/395 632/1001/403
f 636/1002/404 630/994/396 631/995/397 637/1003/405
f 637/1004/406 631/996/426 629/997/427 635/1005/407
f 639/1006/408 633/998/400 634/999/401 640/1007/409
f 640/1008/410 634/1000/402 632/1001/403 638/1009/411
f 560/886/285 636/1010/404 637/1011/405 562/887/286
f 562/888/289 637/1004/406 635/1005/407 561/889/415
f 557/890/293 639/1006/408 640/1007/409 559/891/294
f 559/892/297 640/1012/410 638/1013/411 558/893/298
f 293/491/218 289/493/219 450/726/284 462/742/300
f 449/733/291 385/1014/428 389/1015/428 461/745/303
f 289/493/219 292/473/205 458/727/285 450/726/284
f 459/732/290 388/1016/428 385/1014/428 449/733/291
f 452/741/299 456/740/298 291/628/254 290/627/253
f 465/746/304 390/1017/429 386/1018/429 453/734/292
f 453/734/292 386/1018/429 387/1019/429 455/735/293
f 464/749/307 452/741/299 290/627/253 294/626/252
f 456/740/298 542/869/411 320/645/267 291/628/254
f 455/735/293 387/1019/429 416/1020/429 543/862/408
f 292/473/205 319/472/204 540/866/404 458/727/285
f 539/861/407 415/1021/428 388/1016/428 459/732/290
f 295/492/217 293/491/218 462/742/300 468/750/308
f 461/745/303 389/1015/428 391/1022/428 467/753/311
f 471/754/312 392/1023/429 390/1017/429 465/746/304
f 470/1024/315 464/749/307 294/626/252 296/629/255
f 297/488/216 295/489/217 468/761/308 474/760/316
f 467/753/311 391/1022/428 393/1025/428 473/765/319
f 477/766/320 394/1026/429 392/1023/429 471/754/312
f 476/769/323 470/759/315 296/631/255 298/630/256
f 299/486/215 297/488/216 474/760/316 480/770/324
f 473/765/319 393/1025/428 395/1027/428 479/773/327
f 483/774/328 396/1028/429 394/1026/429 477/766/320
f 482/777/331 476/769/323 298/630/256 300/632/257
f 301/487/214 299/486/215 480/770/324 486/778/332
f 479/773/327 395/1027/428 397/1029/428 485/781/335
f 489/782/336 398/1030/429 396/1028/429 483/774/328
f 488/785/339 482/777/331 300/632/257 302/633/258
f 303/484/213 301/485/214 486/787/332 492/786/340
f 485/781/335 397/1029/428 399/1031/428 491/791/343
f 495/792/344 400/1032/429 398/1030/429 489/782/336
f 494/797/347 488/796/339 302/635/258 304/634/259
f 305/483/212 303/484/213 492/786/340 498/798/348
f 491/791/343 399/1031/428 401/1033/428 497/801/351
f 501/802/352 402/1034/429 400/1032/429 495/792/344
f 500/805/355 494/797/347 304/634/259 306/636/260
f 307/481/211 305/483/212 498/798/348 504/806/356
f 497/801/351 401/1033/428 403/1035/428 503/809/359
f 507/810/360 404/1036/429 402/1034/429 501/802/352
f 506/813/363 500/805/355 306/636/260 308/637/261
f 309/482/210 307/481/211 504/806/356 510/814/364
f 503/809/359 403/1035/428 405/1037/428 509/817/367
f 513/818/368 406/1038/429 404/1036/429 507/810/360
f 512/821/371 506/813/363 308/637/261 310/638/262
f 311/478/209 309/480/210 510/823/364 516/822/372
f 509/817/367 405/1037/428 407/1039/428 515/827/375
f 519/828/376 408/1040/429 406/1038/429 513/818/368
f 518/840/379 512/1041/371 310/640/262 312/639/263
f 313/477/208 311/478/209 516/822/372 522/832/380
f 515/827/375 407/1039/428 409/1042/428 521/835/383
f 525/836/384 410/1043/429 408/1040/429 519/828/376
f 524/841/387 518/840/379 312/639/263 314/641/264
f 315/476/207 313/477/208 522/832/380 528/842/388
f 521/835/383 409/1042/428 411/1044/428 527/845/391
f 531/846/392 412/1045/429 410/1043/429 525/836/384
f 530/849/395 524/841/387 314/641/264 316/642/265
f 317/474/206 315/476/207 528/842/388 534/850/396
f 527/845/391 411/1044/428 413/1046/428 533/853/399
f 537/854/400 414/1047/429 412/1045/429 531/846/392
f 536/857/403 530/849/395 316/642/265 318/643/266
f 319/475/204 317/474/206 534/850/396 540/858/404
f 533/853/399 413/1046/428 415/1021/428 539/861/407
f 543/862/408 416/1020/429 414/1047/429 537/854/400
f 542/865/411 536/857/403 318/643/266 320/644/267
f 263/470/201 257/469/202 546/870/300 564/894/308
f 545/877/303 417/1048/428 423/1049/428 563/897/311
f 257/469/202 260/471/203 554/871/284 546/870/300
f 555/876/414 420/1050/428 417/1048/428 545/877/303
f 548/885/307 552/884/299 259/303/170 258/302/169
f 567/898/312 424/1051/429 418/1052/429 549/878/304
f 549/878/304 418/1052/429 419/1053/429 551/879/292
f 566/1054/315 548/885/307 258/302/169 264/305/172
f 552/884/299 558/893/298 261/304/171 259/303/170
f 551/879/292 419/1053/429 421/1055/429 557/890/293
f 260/471/203 262/451/189 560/886/285 554/871/284
f 561/889/415 422/1056/428 420/1050/428 555/876/414
f 558/893/298 638/1013/411 288/321/184 261/304/171
f 557/890/293 421/1055/429 448/1057/429 639/1006/408
f 262/451/189 287/450/188 636/1010/404 560/886/285
f 635/1005/407 447/1058/428 422/1056/428 561/889/415
f 265/466/200 263/467/201 564/905/308 570/904/316
f 563/897/311 423/1049/428 425/1059/428 569/909/417
f 573/910/320 426/1060/429 424/1051/429 567/898/312
f 572/913/323 566/903/315 264/307/172 266/306/173
f 267/464/199 265/466/200 570/904/316 576/914/324
f 569/909/417 425/1059/428 427/1061/428 575/917/327
f 579/918/328 428/1062/429 426/1060/429 573/910/320
f 578/921/331 572/913/323 266/306/173 268/308/174
f 269/465/198 267/464/199 576/914/324 582/922/332
f 575/917/327 427/1061/428 429/1063/428 581/925/419
f 585/926/336 430/1064/429 428/1062/429 579/918/328
f 584/929/339 578/921/331 268/308/174 270/309/175
f 271/462/197 269/463/198 582/931/332 588/930/340
f 581/925/419 429/1063/428 431/1065/428 587/935/343
f 591/936/344 432/1066/429 430/1064/429 585/926/336
f 590/941/347 584/940/339 270/311/175 272/310/176
f 273/461/196 271/462/197 588/930/340 594/942/348
f 587/935/343 431/1065/428 433/1067/428 593/945/351
f 597/946/352 434/1068/429 432/1066/429 591/936/344
f 596/949/355 590/941/347 272/310/176 274/312/177
f 275/459/195 273/461/196 594/942/348 600/950/356
f 593/945/351 433/1067/428 435/1069/428 599/953/422
f 603/954/360 436/1070/429 434/1068/429 597/946/352
f 602/957/363 596/949/355 274/312/177 276/313/178
f 277/460/194 275/459/195 600/950/356 606/958/364
f 599/953/422 435/1069/428 437/1071/428 605/961/423
f 609/962/368 438/1072/429 436/1070/429 603/954/360
f 608/965/371 602/957/363 276/313/178 278/314/179
f 279/456/193 277/458/194 606/967/364 612/966/372
f 605/961/423 437/1071/428 439/1073/428 611/971/375
f 615/972/376 440/1074/429 438/1072/429 609/962/368
f 614/984/379 608/1075/371 278/316/179 280/315/180
f 281/455/192 279/456/193 612/966/372 618/976/380
f 611/971/375 439/1073/428 441/1076/428 617/979/425
f 621/980/384 442/1077/429 440/1074/429 615/972/376
f 620/985/387 614/984/379 280/315/180 282/317/181
f 283/454/191 281/455/192 618/976/380 624/986/388
f 617/979/425 441/1076/428 443/1078/428 623/989/391
f 627/990/392 444/1079/429 442/1077/429 621/980/384
f 626/993/395 620/985/387 282/317/181 284/318/182
f 285/452/190 283/454/191 624/986/388 630/994/396
f 623/989/391 443/1078/428 445/1080/428 629/997/427
f 633/998/400 446/1081/429 444/1079/429 627/990/392
f 632/1001/403 626/993/395 284/318/182 286/319/183
f 287/453/188 285/452/190 630/994/396 636/1002/404
f 629/997/427 445/1080/428 447/1058/428 635/1005/407
f 639/1006/408 448/1057/429 446/1081/429 633/998/400
f 638/1009/411 632/1001/403 286/319/183 288/320/184
