# Blender 4.2.4 LTS
# www.blender.org
mtllib FenceMiddle.mtl
o Pole.003
v 0.000183 3.665119 0.188436
v 0.057443 3.665119 0.179303
v 0.109078 3.665119 0.152923
v 0.150035 3.665118 0.111878
v 0.176303 3.665119 0.060186
v 0.185312 3.665119 0.002907
v 0.176179 3.665118 -0.054353
v 0.149799 3.665119 -0.105989
v 0.108754 3.665119 -0.146945
v 0.057062 3.665119 -0.173213
v -0.000030 3.665119 -0.182222
v -0.057477 3.665119 -0.173089
v -0.109112 3.665119 -0.146709
v -0.150069 3.665119 -0.105664
v -0.176337 3.665119 -0.053972
v -0.185346 3.665119 0.003307
v -0.176213 3.665119 0.060567
v -0.149833 3.665119 0.112203
v -0.108788 3.665119 0.153159
v -0.057096 3.665119 0.179427
v 0.109091 6.313969 0.152940
v -0.176214 6.311821 0.060566
v -0.185344 6.311380 0.003309
v -0.176334 6.311037 -0.053968
v -0.150064 6.310822 -0.105658
v -0.108804 6.312813 0.153138
v 0.150047 6.313905 0.111895
v -0.109108 6.310759 -0.146703
v -0.057473 6.310852 -0.173083
v -0.000030 6.311092 -0.182218
v 0.057063 6.311459 -0.173211
v 0.108753 6.311913 -0.146946
v 0.149795 6.312412 -0.105993
v 0.176173 6.312904 -0.054362
v 0.185303 6.313345 0.002896
v 0.176292 6.313690 0.060173
v -0.149854 6.312315 0.112176
v 0.057445 6.313875 0.179305
v 0.000192 6.313633 0.188447
v -0.057085 6.313268 0.179441
v -0.108788 5.082682 0.153178
v -0.057094 5.596207 0.179430
v -0.057088 5.888641 0.179438
v 0.000185 5.596224 0.188438
v 0.000190 5.888709 0.188445
v 0.057443 5.596234 0.179304
v 0.057444 5.888752 0.179305
v 0.109081 5.596239 0.152927
v 0.109089 5.888770 0.152937
v 0.150037 5.596236 0.111882
v 0.150045 5.888758 0.111892
v 0.176301 5.596227 0.060184
v 0.176294 5.888719 0.060175
v 0.185310 5.596210 0.002905
v 0.185305 5.888656 0.002898
v 0.176178 5.596190 -0.054355
v 0.176174 5.888575 -0.054360
v 0.149799 5.596168 -0.105989
v 0.149796 5.888484 -0.105992
v 0.108754 5.596145 -0.146945
v 0.108753 5.888393 -0.146946
v 0.057062 5.596125 -0.173213
v 0.057063 5.888310 -0.173212
v -0.000030 5.596107 -0.182221
v -0.000030 5.888244 -0.182218
v -0.057476 5.596097 -0.173088
v -0.057474 5.888199 -0.173085
v -0.109112 5.596092 -0.146708
v -0.109109 5.888182 -0.146704
v -0.150068 5.596095 -0.105663
v -0.150065 5.888194 -0.105660
v -0.176336 5.596105 -0.053971
v -0.176334 5.888233 -0.053969
v -0.185345 5.596121 0.003307
v -0.185345 5.888296 0.003309
v -0.176213 5.596141 0.060567
v -0.176214 5.888377 0.060567
v -0.149837 5.596164 0.112197
v -0.149850 5.888467 0.112182
v -0.108795 5.596186 0.153162
v -0.108800 5.888555 0.153150
v -0.185345 5.839516 0.003308
v -0.176335 5.839468 -0.053970
v -0.150066 5.839437 -0.105661
v -0.109110 5.839428 -0.146705
v 0.108754 5.839590 -0.146946
v 0.149797 5.839659 -0.105991
v 0.176175 5.839727 -0.054358
v 0.185306 5.839789 0.002900
v 0.176296 5.839837 0.060178
v 0.150043 5.839867 0.111889
v 0.109086 5.839876 0.152934
v 0.057444 5.839863 0.179304
v 0.000189 5.839829 0.188443
v -0.057090 5.839778 0.179436
v -0.108798 5.839712 0.153153
v -0.149846 5.839645 0.112187
v -0.176214 5.839577 0.060567
v -0.185212 5.763449 0.003516
v -0.176447 5.763303 -0.054185
v -0.150375 5.762877 -0.106413
v -0.102093 5.763566 -0.151083
v 0.102878 5.763669 -0.150668
v 0.150138 5.762961 -0.106853
v 0.176286 5.763508 -0.054572
v 0.185165 5.763689 0.003138
v 0.176222 5.763596 0.060233
v 0.150032 5.763584 0.111796
v 0.109069 5.763626 0.152879
v 0.057425 5.763623 0.179281
v 0.000186 5.763588 0.188407
v -0.057074 5.763553 0.179403
v -0.108781 5.763497 0.153107
v -0.149832 5.763414 0.112116
v -0.176135 5.763390 0.060612
v -0.176112 5.805048 0.060658
v -0.185277 5.804644 0.003499
v -0.176532 5.804935 -0.054358
v -0.150132 5.806211 -0.106350
v -0.117020 5.804941 -0.138832
v 0.117727 5.805069 -0.138367
v 0.149864 5.806762 -0.106790
v 0.176359 5.805181 -0.054704
v 0.185237 5.804797 0.003120
v 0.176202 5.805281 0.060268
v 0.150013 5.805424 0.111801
v 0.109075 5.805315 0.152870
v 0.057432 5.805279 0.179281
v 0.000187 5.805273 0.188414
v -0.057080 5.805210 0.179402
v -0.108787 5.805168 0.153093
v -0.149815 5.805197 0.112119
v -0.185279 5.723494 0.003499
v -0.176531 5.722976 -0.054360
v -0.150126 5.721492 -0.106353
v -0.117020 5.723236 -0.138835
v 0.117727 5.723335 -0.138369
v 0.149854 5.721287 -0.106793
v 0.176357 5.723153 -0.054704
v 0.185242 5.723774 0.003123
v 0.176203 5.723320 0.060269
v 0.150011 5.723186 0.111800
v 0.109073 5.723321 0.152867
v 0.057431 5.723347 0.179280
v 0.000186 5.723298 0.188412
v -0.057081 5.723279 0.179402
v -0.108786 5.723210 0.153094
v -0.149813 5.723063 0.112122
v -0.176112 5.723144 0.060659
v -0.185345 5.689047 0.003308
v -0.176336 5.689019 -0.053971
v -0.150067 5.689001 -0.105662
v -0.109111 5.688995 -0.146707
v 0.108754 5.689090 -0.146945
v 0.149798 5.689131 -0.105990
v 0.176177 5.689171 -0.054356
v 0.185309 5.689207 0.002903
v 0.176299 5.689235 0.060181
v 0.150039 5.689253 0.111884
v 0.109083 5.689258 0.152929
v 0.057444 5.689250 0.179304
v 0.000186 5.689230 0.188440
v -0.057092 5.689200 0.179432
v -0.108796 5.689162 0.153158
v -0.149841 5.689123 0.112193
v -0.176214 5.689083 0.060567
v -0.185345 5.649004 0.003308
v -0.176336 5.648981 -0.053971
v -0.150067 5.648966 -0.105663
v -0.109111 5.648962 -0.146707
v -0.057476 5.648968 -0.173088
v -0.000030 5.648984 -0.182220
v 0.057063 5.649011 -0.173212
v 0.108754 5.649042 -0.146945
v 0.149798 5.649076 -0.105990
v 0.176177 5.649111 -0.054356
v 0.185309 5.649140 0.002903
v 0.176300 5.649165 0.060182
v 0.150039 5.649179 0.111883
v 0.109082 5.649185 0.152928
v 0.057444 5.649178 0.179304
v 0.000186 5.649160 0.188439
v -0.057093 5.649136 0.179431
v -0.108796 5.649103 0.153160
v -0.149840 5.649070 0.112195
v -0.176213 5.649035 0.060567
v -0.000030 5.854508 -0.181845
v -0.032504 5.847660 -0.177069
v -0.061894 5.828156 -0.170828
v -0.081532 5.798967 -0.160795
v -0.088428 5.764538 -0.157273
v -0.081532 5.730108 -0.160796
v -0.061894 5.700920 -0.170830
v -0.032504 5.681417 -0.177070
v -0.000030 5.674569 -0.181846
v 0.036832 5.681417 -0.176394
v 0.066222 5.700920 -0.168558
v 0.085859 5.730108 -0.158579
v 0.092755 5.764538 -0.155075
v 0.085859 5.798967 -0.158579
v 0.066222 5.828156 -0.168558
v 0.036832 5.847660 -0.176393
v -0.000030 5.870395 -0.181845
v -0.038625 5.862337 -0.176092
v -0.073205 5.839390 -0.165049
v -0.095932 5.803627 -0.153718
v -0.095932 5.725137 -0.153720
v -0.073205 5.689687 -0.165051
v -0.038625 5.666739 -0.176094
v -0.000030 5.658682 -0.181846
v 0.042953 5.666739 -0.175431
v 0.077532 5.689687 -0.162811
v 0.099053 5.725186 -0.152079
v 0.099053 5.803649 -0.152078
v 0.077532 5.839390 -0.162811
v 0.042953 5.862337 -0.175431
v 0.118678 5.763414 -0.138016
v -0.119013 5.763274 -0.137753
v -0.176214 5.863976 0.060567
v -0.185345 5.863905 0.003309
v -0.176335 5.863851 -0.053969
v -0.150066 5.863816 -0.105660
v -0.109109 5.863806 -0.146705
v 0.108754 5.863992 -0.146946
v 0.149797 5.864072 -0.105992
v 0.176175 5.864151 -0.054359
v 0.185305 5.864223 0.002899
v 0.176295 5.864278 0.060177
v 0.150044 5.864313 0.111890
v 0.109088 5.864323 0.152935
v 0.057444 5.864307 0.179305
v 0.000189 5.864269 0.188444
v -0.057089 5.864210 0.179437
v -0.108799 5.864134 0.153152
v -0.149848 5.864057 0.112184
v -0.102093 4.014338 -0.151083
v 0.102878 4.014440 -0.150668
v -0.000030 4.105279 -0.181845
v -0.032504 4.098432 -0.177069
v -0.061894 4.078928 -0.170828
v -0.081532 4.049740 -0.160795
v -0.088428 4.015309 -0.157273
v -0.081532 3.980880 -0.160796
v -0.061894 3.951692 -0.170830
v -0.032504 3.932189 -0.177070
v -0.000030 3.925340 -0.181846
v 0.036832 3.932189 -0.176394
v 0.066222 3.951692 -0.168558
v 0.085859 3.980880 -0.158579
v 0.092755 4.015309 -0.155075
v 0.085859 4.049740 -0.158579
v 0.066222 4.078928 -0.168558
v 0.036832 4.098432 -0.176393
v -0.000030 4.121166 -0.181845
v -0.038625 4.113109 -0.176092
v -0.073205 4.090161 -0.165049
v -0.095932 4.054399 -0.153718
v -0.095932 3.975908 -0.153720
v -0.073205 3.940458 -0.165051
v -0.038625 3.917512 -0.176094
v -0.000030 3.909454 -0.181846
v 0.042953 3.917512 -0.175431
v 0.077532 3.940458 -0.162811
v 0.099053 3.975958 -0.152079
v 0.099053 4.054420 -0.152078
v 0.077532 4.090161 -0.162811
v 0.042953 4.113109 -0.175431
v -0.057096 4.054998 0.179428
v 0.000184 4.055002 0.188436
v 0.057443 4.055005 0.179303
v 0.109079 4.055005 0.152924
v 0.150035 4.055005 0.111879
v 0.176303 4.055003 0.060186
v 0.185311 4.054999 0.002907
v 0.176179 4.054995 -0.054353
v 0.149799 4.054991 -0.105989
v 0.108754 4.054986 -0.146945
v -0.109112 4.054976 -0.146709
v -0.150069 4.054976 -0.105664
v -0.176337 4.054978 -0.053972
v -0.185346 4.054982 0.003307
v -0.176213 4.054986 0.060567
v -0.149834 4.054990 0.112202
v -0.057096 4.015013 0.179428
v 0.000184 4.015016 0.188436
v 0.057443 4.015018 0.179303
v 0.109079 4.015018 0.152924
v 0.150035 4.015018 0.111879
v 0.176303 4.015017 0.060186
v 0.185311 4.015014 0.002907
v 0.176179 4.015010 -0.054353
v 0.149799 4.015006 -0.105989
v 0.108754 4.015002 -0.146945
v -0.109112 4.014993 -0.146709
v -0.150069 4.014994 -0.105664
v -0.176337 4.014995 -0.053972
v -0.185346 4.014997 0.003307
v -0.176213 4.015000 0.060567
v -0.149834 4.015006 0.112202
v -0.057096 3.975684 0.179427
v 0.000184 3.975686 0.188436
v 0.057443 3.975688 0.179303
v 0.109079 3.975689 0.152924
v 0.150035 3.975688 0.111879
v 0.176303 3.975687 0.060186
v 0.185311 3.975685 0.002907
v 0.176179 3.975681 -0.054353
v 0.149799 3.975677 -0.105989
v 0.108754 3.975674 -0.146945
v -0.109112 3.975666 -0.146709
v -0.150069 3.975666 -0.105664
v -0.176337 3.975668 -0.053972
v -0.185346 3.975670 0.003307
v -0.176213 3.975674 0.060567
v -0.149834 3.975677 0.112202
v -0.057096 3.940423 0.179427
v 0.000183 3.940426 0.188436
v 0.057443 3.940427 0.179303
v 0.109079 3.940428 0.152924
v 0.150035 3.940427 0.111879
v 0.176303 3.940426 0.060186
v 0.185311 3.940423 0.002907
v 0.176179 3.940421 -0.054353
v 0.149799 3.940418 -0.105989
v 0.108754 3.940415 -0.146945
v -0.109112 3.940407 -0.146709
v -0.150069 3.940408 -0.105664
v -0.176337 3.940409 -0.053972
v -0.185346 3.940411 0.003307
v -0.176213 3.940414 0.060567
v -0.149834 3.940417 0.112202
v -0.057096 3.903311 0.179427
v 0.000183 3.903313 0.188436
v 0.057443 3.903315 0.179303
v 0.109079 3.903315 0.152924
v 0.150035 3.903315 0.111879
v 0.176303 3.903314 0.060186
v 0.185312 3.903311 0.002907
v 0.176179 3.903309 -0.054353
v 0.149799 3.903306 -0.105989
v 0.108754 3.903304 -0.146945
v 0.057062 3.903301 -0.173213
v -0.000030 3.903300 -0.182222
v -0.057477 3.903298 -0.173089
v -0.109112 3.903297 -0.146709
v -0.150069 3.903298 -0.105664
v -0.176337 3.903299 -0.053972
v -0.185346 3.903301 0.003307
v -0.176213 3.903303 0.060567
v -0.149834 3.903306 0.112202
v -0.057096 4.139579 0.179428
v 0.000184 4.139583 0.188436
v 0.057443 4.139585 0.179303
v 0.109079 4.139586 0.152924
v 0.150035 4.139585 0.111879
v 0.176302 4.139584 0.060186
v 0.185311 4.139580 0.002906
v 0.176179 4.139575 -0.054353
v 0.149799 4.139570 -0.105989
v 0.108754 4.139564 -0.146945
v 0.057062 4.139559 -0.173213
v -0.000030 4.139555 -0.182222
v -0.057477 4.139553 -0.173089
v -0.109112 4.139552 -0.146709
v -0.150069 4.139553 -0.105664
v -0.176337 4.139555 -0.053972
v -0.185346 4.139559 0.003307
v -0.176213 4.139563 0.060567
v -0.149834 4.139568 0.112201
v -0.057096 4.091247 0.179428
v 0.000184 4.091250 0.188436
v 0.057443 4.091254 0.179303
v 0.109079 4.091255 0.152924
v 0.150035 4.091254 0.111879
v 0.176302 4.091251 0.060186
v 0.185311 4.091248 0.002906
v 0.176179 4.091244 -0.054353
v 0.149799 4.091238 -0.105989
v 0.108754 4.091234 -0.146945
v -0.109112 4.091223 -0.146709
v -0.150069 4.091224 -0.105664
v -0.176337 4.091226 -0.053972
v -0.185346 4.091228 0.003307
v -0.176213 4.091233 0.060567
v -0.149834 4.091238 0.112201
v -0.108788 4.091243 0.153165
v -0.108788 4.139574 0.153165
v -0.108788 4.054995 0.153164
v -0.108788 4.015008 0.153163
v -0.108788 3.975681 0.153163
v -0.108788 3.940420 0.153163
v -0.108788 3.903309 0.153162
v -0.057096 4.115413 0.179428
v 0.000184 4.115417 0.188436
v 0.057443 4.115419 0.179303
v 0.109079 4.115420 0.152924
v 0.150035 4.115419 0.111879
v 0.176302 4.115417 0.060186
v 0.185311 4.115414 0.002906
v 0.176179 4.115409 -0.054353
v 0.149799 4.115405 -0.105989
v 0.108754 4.115398 -0.146945
v -0.109112 4.115386 -0.146709
v -0.150069 4.115387 -0.105664
v -0.176337 4.115390 -0.053972
v -0.185346 4.115394 0.003307
v -0.176213 4.115397 0.060567
v -0.149834 4.115404 0.112201
v -0.108788 4.115407 0.153165
v -0.057096 3.921867 0.179427
v 0.000183 3.921869 0.188436
v 0.057443 3.921871 0.179303
v 0.109079 3.921872 0.152924
v 0.150035 3.921871 0.111879
v 0.176303 3.921870 0.060186
v 0.185312 3.921868 0.002907
v 0.176179 3.921865 -0.054353
v 0.149799 3.921862 -0.105989
v 0.108754 3.921859 -0.146945
v -0.109112 3.921853 -0.146709
v -0.150069 3.921853 -0.105664
v -0.176337 3.921854 -0.053972
v -0.185346 3.921856 0.003307
v -0.176213 3.921859 0.060567
v -0.149834 3.921861 0.112202
v -0.108788 3.921864 0.153162
vn 0.2343 0.0150 -0.9720
vn 0.2608 -0.0031 -0.9654
vn 0.4190 0.0279 -0.9076
vn 0.3823 0.0145 -0.9239
vn -0.3679 0.0266 -0.9295
vn -0.4091 0.0427 -0.9115
vn -0.2471 0.0030 -0.9690
vn -0.2201 0.0271 -0.9751
vn 0.5792 0.0054 -0.8152
vn 0.3264 0.0093 -0.9452
vn 0.2526 0.0020 -0.9676
vn 0.4209 0.0055 -0.9071
vn 0.5807 0.0075 -0.8141
vn -0.5790 0.0053 -0.8153
vn -0.5790 0.0086 -0.8153
vn -0.4112 0.0005 -0.9116
vn -0.2385 -0.0043 -0.9711
vn -0.3305 0.0091 -0.9438
vn -0.8084 -0.0000 0.5886
vn -0.5870 -0.0000 0.8096
vn -0.5864 -0.0000 0.8101
vn -0.8079 -0.0000 0.5893
vn -0.3081 -0.0000 0.9514
vn -0.3074 -0.0000 0.9516
vn 0.8098 -0.0000 0.5867
vn 0.8097 -0.0000 0.5869
vn 0.5886 -0.0000 0.8084
vn 0.5886 -0.0000 0.8085
vn 0.9515 -0.0000 0.3078
vn 0.9513 -0.0000 0.3082
vn 0.3103 -0.0000 0.9507
vn 0.3100 -0.0000 0.9507
vn 0.8084 -0.0000 -0.5887
vn 0.8089 -0.0000 -0.5880
vn 0.9510 -0.0000 -0.3093
vn 0.9507 -0.0000 -0.3100
vn -0.8096 -0.0000 -0.5869
vn -0.8098 -0.0000 -0.5867
vn -0.5886 -0.0000 -0.8084
vn -0.5800 -0.0257 -0.8142
vn -0.3244 -0.0365 -0.9452
vn -0.3096 -0.0000 -0.9509
vn -0.0001 -0.0000 -1.0000
vn -0.0005 -0.0034 -1.0000
vn 0.0017 -0.0000 1.0000
vn 0.0012 -0.0000 1.0000
vn 0.5802 -0.0199 -0.8142
vn 0.5876 -0.0000 -0.8092
vn 1.0000 -0.0000 -0.0004
vn 1.0000 -0.0000 -0.0010
vn -0.9507 -0.0000 0.3100
vn -0.9505 -0.0000 0.3108
vn -1.0000 -0.0000 0.0017
vn -1.0000 -0.0000 0.0011
vn 0.3089 -0.0000 -0.9511
vn 0.3205 -0.0272 -0.9469
vn -0.9515 -0.0000 -0.3076
vn -0.9514 -0.0000 -0.3080
vn -0.8097 -0.0000 -0.5869
vn -0.0006 -0.0000 -1.0000
vn 0.3082 -0.0000 -0.9513
vn 0.3203 -0.0270 -0.9469
vn 1.0000 -0.0000 -0.0011
vn 0.9514 -0.0000 0.3079
vn 0.9514 -0.0000 0.3080
vn 0.0011 -0.0000 1.0000
vn -0.3079 -0.0000 0.9514
vn 0.5803 -0.0198 -0.8142
vn 0.5869 -0.0000 -0.8097
vn -0.3241 -0.0363 -0.9453
vn -0.3098 -0.0000 -0.9508
vn -0.5887 -0.0000 -0.8084
vn -0.5801 -0.0256 -0.8141
vn -0.5869 -0.0000 0.8097
vn -0.5869 -0.0000 0.8096
vn -0.0005 0.0054 -1.0000
vn 0.8097 -0.0000 0.5868
vn -0.3080 -0.0000 0.9514
vn -0.0002 -0.0030 -1.0000
vn -0.8084 -0.0008 0.5886
vn -0.5870 -0.0008 0.8096
vn -0.3081 -0.0006 0.9514
vn 0.0011 -0.0004 1.0000
vn 0.3101 -0.0005 0.9507
vn 0.5887 -0.0009 0.8084
vn 0.5886 -0.0001 0.8084
vn 0.8097 -0.0009 0.5868
vn 0.9514 -0.0008 0.3078
vn 1.0000 0.0001 -0.0005
vn 0.9512 0.0033 -0.3087
vn 0.8085 0.0059 -0.5884
vn 0.5800 0.0132 -0.8145
vn 0.5717 -0.0051 -0.8204
vn -0.5697 -0.0047 -0.8218
vn -0.5785 0.0183 -0.8155
vn -0.8094 0.0047 -0.5872
vn -0.9518 0.0033 -0.3068
vn -1.0000 0.0001 0.0016
vn -0.8085 -0.0008 0.5885
vn -0.9506 -0.0009 0.3104
vn -0.8085 -0.0000 0.5885
vn -0.5872 -0.0007 0.8094
vn -0.5872 -0.0000 0.8094
vn -0.3082 -0.0006 0.9513
vn -0.3082 -0.0000 0.9513
vn 0.0011 -0.0005 1.0000
vn 0.3102 -0.0005 0.9507
vn 0.3102 -0.0000 0.9507
vn 0.5889 -0.0008 0.8082
vn 0.5890 -0.0000 0.8082
vn 0.8098 -0.0008 0.5867
vn 0.9513 -0.0009 0.3083
vn 1.0000 -0.0006 0.0015
vn 1.0000 -0.0000 0.0018
vn 0.9517 0.0032 -0.3070
vn 0.9525 -0.0000 -0.3047
vn 0.8073 0.0084 -0.5901
vn 0.8083 -0.0002 -0.5887
vn -0.9522 0.0030 -0.3056
vn -0.8081 0.0075 -0.5891
vn -0.8090 -0.0002 -0.5878
vn -0.9529 -0.0000 -0.3032
vn -1.0000 -0.0006 0.0036
vn -1.0000 -0.0000 0.0040
vn -0.9507 -0.0008 0.3100
vn -0.6385 0.0071 -0.7696
vn 0.6432 0.0071 -0.7657
vn -0.9506 0.0010 0.3104
vn -0.8085 0.0008 0.5885
vn -0.5872 0.0007 0.8094
vn -0.3082 0.0006 0.9513
vn 0.0011 0.0004 1.0000
vn 0.3102 0.0005 0.9507
vn 0.5890 0.0007 0.8082
vn 0.8098 0.0008 0.5867
vn 0.9513 0.0010 0.3083
vn 1.0000 0.0007 0.0015
vn 0.9517 -0.0032 -0.3071
vn 0.8072 -0.0086 -0.5902
vn -0.8080 -0.0076 -0.5891
vn -0.9522 -0.0030 -0.3056
vn -1.0000 0.0006 0.0036
vn -0.9507 0.0008 0.3100
vn -0.8084 0.0009 0.5886
vn -0.5870 0.0008 0.8096
vn -0.3080 0.0006 0.9514
vn 0.3101 0.0005 0.9507
vn 0.5887 0.0008 0.8084
vn 0.8097 0.0009 0.5869
vn 0.9514 0.0008 0.3079
vn 1.0000 -0.0001 -0.0006
vn 0.9511 -0.0033 -0.3087
vn 0.8086 -0.0060 -0.5884
vn 0.6429 -0.0073 -0.7659
vn -0.6381 -0.0073 -0.7699
vn -0.8094 -0.0047 -0.5872
vn -0.9518 -0.0033 -0.3068
vn -1.0000 -0.0001 0.0017
vn -0.0002 0.0052 -1.0000
vn -0.0009 0.0019 -1.0000
vn -0.4386 -0.0009 -0.8987
vn -0.4979 -0.0005 -0.8673
vn -0.4273 -0.0000 -0.9041
vn -0.5228 -0.0001 -0.8525
vn -0.4385 0.0009 -0.8987
vn -0.4981 0.0002 -0.8671
vn -0.3679 -0.0266 -0.9295
vn -0.0008 -0.0019 -1.0000
vn -0.2201 -0.0271 -0.9751
vn 0.2343 -0.0151 -0.9720
vn 0.4364 0.0002 -0.8997
vn 0.5041 0.0003 -0.8636
vn 0.3823 -0.0145 -0.9239
vn 0.4235 0.0001 -0.9059
vn 0.5241 -0.0001 -0.8517
vn 0.4366 -0.0002 -0.8997
vn 0.5039 -0.0005 -0.8638
vn -0.6529 -0.0004 -0.7574
vn 0.6566 -0.0003 -0.7543
vn 0.2611 -0.0029 -0.9653
vn 0.4100 0.0305 -0.9116
vn -0.4015 0.0453 -0.9147
vn -0.2475 0.0031 -0.9689
vn -0.4568 0.0035 -0.8896
vn -0.4628 -0.0003 -0.8865
vn -0.4569 -0.0036 -0.8895
vn -0.4035 -0.0524 -0.9135
vn -0.0002 0.0073 -1.0000
vn -0.2344 0.0020 -0.9721
vn 0.2481 0.0092 -0.9687
vn 0.4568 -0.0033 -0.8896
vn 0.4116 -0.0358 -0.9107
vn 0.4615 -0.0003 -0.8872
vn 0.4567 0.0033 -0.8896
vn 0.5887 -0.0000 0.8084
vn -0.5975 0.0035 -0.8019
vn -0.6050 0.0002 -0.7962
vn 0.6056 0.0002 -0.7958
vn 0.5967 0.0030 -0.8024
vn 0.5970 -0.0031 -0.8022
vn -0.5977 -0.0036 -0.8017
vn -0.5800 -0.0269 -0.8141
vn 0.5799 -0.0193 -0.8145
vn 0.5716 0.0098 -0.8205
vn -0.5697 0.0104 -0.8218
vn 0.3044 0.1516 -0.9404
vn 0.3303 0.0462 -0.9427
vn 0.5792 0.0300 -0.8146
vn 0.5800 0.1518 -0.8004
vn -0.5820 0.1518 -0.7989
vn -0.5788 0.0384 -0.8146
vn -0.3335 0.0613 -0.9408
vn -0.3064 0.1521 -0.9397
vn 0.8003 0.1518 0.5800
vn 0.5819 0.1518 0.7989
vn 0.9404 0.1518 0.3043
vn 0.3066 0.1518 0.9397
vn 0.7989 0.1518 -0.5819
vn 0.9397 0.1518 -0.3065
vn -0.8003 0.1518 -0.5800
vn -0.0005 0.0072 -1.0000
vn -0.0003 0.1518 -0.9884
vn 0.0012 0.1518 0.9884
vn -0.3043 0.1518 0.9404
vn 0.9884 0.1518 -0.0012
vn -0.9397 0.1518 0.3066
vn -0.9884 0.1518 0.0012
vn -0.9404 0.1518 -0.3043
vn -0.7989 0.1518 0.5819
vn -0.5696 -0.0051 -0.8219
vn 0.5716 -0.0053 -0.8205
vn 0.5787 0.0164 -0.8154
vn -0.5786 0.0230 -0.8153
vn -0.5800 0.1518 0.8003
vt 0.640370 0.148632
vt 0.641934 0.144693
vt 0.650387 0.150678
vt 0.647698 0.153742
vt 0.614151 0.153927
vt 0.610895 0.150892
vt 0.620534 0.144805
vt 0.622187 0.148728
vt 0.657757 0.201379
vt 0.645480 0.201669
vt 0.641888 0.196968
vt 0.650351 0.190687
vt 0.657766 0.190676
vt 0.600505 0.201682
vt 0.600514 0.190983
vt 0.610859 0.190902
vt 0.620487 0.197080
vt 0.615381 0.201829
vt 0.445108 0.137673
vt 0.432561 0.137369
vt 0.432565 0.023983
vt 0.445110 0.024397
vt 0.424924 0.137369
vt 0.412375 0.137627
vt 0.412375 0.024142
vt 0.424924 0.023982
vt 0.354839 0.137315
vt 0.354838 0.023691
vt 0.367380 0.023955
vt 0.367381 0.137592
vt 0.567811 0.137606
vt 0.567808 0.024029
vt 0.580364 0.023691
vt 0.580364 0.137314
vt 0.382127 0.024127
vt 0.382127 0.137744
vt 0.522819 0.137668
vt 0.522817 0.024371
vt 0.537559 0.024386
vt 0.537561 0.137792
vt 0.587763 0.137464
vt 0.587864 0.024514
vt 0.600663 0.024813
vt 0.600562 0.137749
vt 0.615438 0.137893
vt 0.615539 0.024937
vt 0.631085 0.024872
vt 0.630984 0.137881
vt 0.397629 0.024192
vt 0.397630 0.137756
vt 0.510280 0.137412
vt 0.510279 0.024223
vt 0.553062 0.024269
vt 0.553064 0.137770
vt 0.459847 0.137845
vt 0.459847 0.024676
vt 0.475350 0.024794
vt 0.475350 0.137866
vt 0.645638 0.024626
vt 0.645537 0.137715
vt 0.490095 0.024738
vt 0.490095 0.137736
vt 0.502637 0.024515
vt 0.502637 0.137465
vt 0.445102 0.605079
vt 0.445103 0.215793
vt 0.459847 0.215947
vt 0.459847 0.605228
vt 0.490096 0.605083
vt 0.490096 0.215809
vt 0.502638 0.215531
vt 0.502638 0.604803
vt 0.475351 0.605230
vt 0.475351 0.215952
vt 0.630569 0.605229
vt 0.630915 0.215956
vt 0.645468 0.215804
vt 0.645122 0.605080
vt 0.553073 0.605224
vt 0.553067 0.215928
vt 0.567814 0.215777
vt 0.567819 0.605075
vt 0.537569 0.605225
vt 0.537564 0.215934
vt 0.397633 0.605223
vt 0.397631 0.215925
vt 0.412377 0.215782
vt 0.412379 0.605077
vt 0.510286 0.604800
vt 0.510281 0.215518
vt 0.522820 0.215792
vt 0.522825 0.605079
vt 0.382129 0.605222
vt 0.382128 0.215922
vt 0.615023 0.605230
vt 0.615369 0.215959
vt 0.587347 0.604800
vt 0.587693 0.215529
vt 0.600492 0.215812
vt 0.600146 0.605082
vt 0.367385 0.605075
vt 0.367383 0.215773
vt 0.580362 0.215493
vt 0.580366 0.604794
vt 0.354843 0.604794
vt 0.354841 0.215493
vt 0.424923 0.604797
vt 0.424923 0.215507
vt 0.424923 0.352745
vt 0.432557 0.604797
vt 0.432553 0.352745
vt 0.432558 0.215507
vt 0.459847 0.201811
vt 0.475351 0.201819
vt 0.490095 0.201678
vt 0.502638 0.201401
vt 0.587706 0.201399
vt 0.630928 0.201824
vt 0.657744 0.215516
vt 0.657398 0.604796
vt 0.510281 0.201380
vt 0.522820 0.201652
vt 0.537563 0.201790
vt 0.553067 0.201782
vt 0.567813 0.201628
vt 0.580363 0.201344
vt 0.354841 0.201344
vt 0.367382 0.201623
vt 0.382128 0.201773
vt 0.397631 0.201777
vt 0.412377 0.201636
vt 0.424923 0.201364
vt 0.432559 0.201364
vt 0.445104 0.201654
vt 0.630961 0.142648
vt 0.445107 0.144197
vt 0.445106 0.150721
vt 0.432560 0.150422
vt 0.432561 0.143896
vt 0.424924 0.143896
vt 0.424924 0.150422
vt 0.412376 0.150686
vt 0.412376 0.144156
vt 0.397630 0.150820
vt 0.397630 0.144288
vt 0.382127 0.150811
vt 0.382127 0.144277
vt 0.367381 0.150659
vt 0.367381 0.144126
vt 0.354840 0.150381
vt 0.354839 0.143848
vt 0.580364 0.143848
vt 0.580364 0.150381
vt 0.567812 0.150670
vt 0.567811 0.144138
vt 0.553065 0.150830
vt 0.553065 0.144300
vt 0.537562 0.150847
vt 0.537561 0.144319
vt 0.522819 0.150717
vt 0.522819 0.144193
vt 0.510280 0.150455
vt 0.510280 0.143933
vt 0.600556 0.144264
vt 0.600550 0.150779
vt 0.587751 0.150494
vt 0.587757 0.143979
vt 0.502637 0.143980
vt 0.502638 0.150496
vt 0.490095 0.150769
vt 0.490095 0.144252
vt 0.475350 0.150903
vt 0.475350 0.144385
vt 0.445123 0.159927
vt 0.459819 0.160114
vt 0.459832 0.171248
vt 0.445124 0.171094
vt 0.432576 0.159655
vt 0.432572 0.170791
vt 0.412372 0.159924
vt 0.424918 0.159654
vt 0.424917 0.170791
vt 0.412371 0.171057
vt 0.397630 0.160055
vt 0.397630 0.171195
vt 0.382130 0.160053
vt 0.382132 0.171186
vt 0.367382 0.159896
vt 0.367384 0.171037
vt 0.354844 0.159586
vt 0.354839 0.170768
vt 0.567831 0.159904
vt 0.580339 0.159586
vt 0.580339 0.170768
vt 0.567823 0.171045
vt 0.553120 0.160181
vt 0.553122 0.171167
vt 0.537478 0.160081
vt 0.537510 0.171218
vt 0.522611 0.159511
vt 0.522606 0.171219
vt 0.490206 0.159999
vt 0.502822 0.159375
vt 0.502849 0.170958
vt 0.490157 0.171125
vt 0.475297 0.160223
vt 0.475290 0.171232
vt 0.459847 0.150887
vt 0.598073 0.159942
vt 0.587760 0.159380
vt 0.512923 0.159743
vt 0.459818 0.182004
vt 0.445122 0.181878
vt 0.432576 0.181558
vt 0.424918 0.181558
vt 0.412372 0.181820
vt 0.397630 0.181963
vt 0.382130 0.181950
vt 0.367382 0.181809
vt 0.354844 0.181564
vt 0.580339 0.181564
vt 0.567832 0.181809
vt 0.553122 0.181835
vt 0.537478 0.182004
vt 0.522610 0.182355
vt 0.502823 0.182017
vt 0.490206 0.181903
vt 0.475297 0.181911
vt 0.459847 0.191108
vt 0.445104 0.190949
vt 0.432559 0.190658
vt 0.424923 0.190658
vt 0.412377 0.190929
vt 0.397631 0.191068
vt 0.382128 0.191063
vt 0.367382 0.190913
vt 0.354841 0.190634
vt 0.580363 0.190634
vt 0.567813 0.190919
vt 0.553066 0.191074
vt 0.537563 0.191084
vt 0.522820 0.190947
vt 0.512923 0.181587
vt 0.510281 0.190677
vt 0.587742 0.182022
vt 0.598054 0.181778
vt 0.587715 0.190700
vt 0.502638 0.190701
vt 0.490095 0.190977
vt 0.475351 0.191117
vt 0.630911 0.199230
vt 0.459847 0.144366
vt 0.630958 0.146894
vt 0.608486 0.161672
vt 0.604352 0.160387
vt 0.606491 0.170853
vt 0.602593 0.171080
vt 0.608470 0.180075
vt 0.604334 0.181364
vt 0.614121 0.187932
vt 0.630915 0.194984
vt 0.622148 0.193157
vt 0.640331 0.193061
vt 0.652339 0.179838
vt 0.655481 0.181083
vt 0.647668 0.187746
vt 0.653984 0.170599
vt 0.656425 0.170782
vt 0.652355 0.161435
vt 0.655500 0.160114
vt 0.657808 0.143932
vt 0.657813 0.137411
vt 0.657914 0.024222
vt 0.657802 0.150454
vt 0.659725 0.159598
vt 0.659706 0.181442
vt 0.587689 0.170962
vt 0.597486 0.171072
vt 0.513056 0.170883
vt 0.509051 0.170703
vt 0.508518 0.159988
vt 0.508518 0.180958
vt 0.639955 0.616124
vt 0.641519 0.612186
vt 0.649971 0.618170
vt 0.647283 0.621234
vt 0.613735 0.621419
vt 0.610479 0.618385
vt 0.620118 0.612297
vt 0.621772 0.616220
vt 0.630546 0.610141
vt 0.630542 0.614386
vt 0.608071 0.629164
vt 0.603937 0.627879
vt 0.606076 0.638346
vt 0.602178 0.638573
vt 0.608054 0.647567
vt 0.603918 0.648857
vt 0.613705 0.655424
vt 0.610444 0.658394
vt 0.630500 0.662476
vt 0.630496 0.666722
vt 0.620072 0.664572
vt 0.621732 0.660649
vt 0.639915 0.660553
vt 0.641472 0.664460
vt 0.651923 0.647331
vt 0.655065 0.648576
vt 0.649936 0.658179
vt 0.647252 0.655239
vt 0.653569 0.638091
vt 0.656009 0.638275
vt 0.651939 0.628927
vt 0.655084 0.627606
vt 0.354843 0.638086
vt 0.354843 0.627399
vt 0.367385 0.627680
vt 0.367385 0.638366
vt 0.567820 0.638367
vt 0.567820 0.627680
vt 0.580367 0.627399
vt 0.580367 0.638086
vt 0.382129 0.627827
vt 0.382129 0.638514
vt 0.522826 0.638370
vt 0.522826 0.627683
vt 0.537569 0.627830
vt 0.537569 0.638516
vt 0.587317 0.638089
vt 0.587327 0.627403
vt 0.600126 0.627685
vt 0.600117 0.638371
vt 0.397633 0.627828
vt 0.397633 0.638515
vt 0.510287 0.638090
vt 0.510287 0.627404
vt 0.412379 0.627681
vt 0.412379 0.638368
vt 0.553073 0.627829
vt 0.553073 0.638515
vt 0.459847 0.638519
vt 0.459847 0.627832
vt 0.475351 0.627833
vt 0.475351 0.638519
vt 0.490096 0.627687
vt 0.490096 0.638373
vt 0.502638 0.627406
vt 0.502638 0.638092
vt 0.445102 0.638370
vt 0.445102 0.627684
vt 0.445102 0.648881
vt 0.459847 0.649029
vt 0.490096 0.648883
vt 0.502638 0.648603
vt 0.475351 0.649030
vt 0.553073 0.649026
vt 0.567820 0.648878
vt 0.537569 0.649027
vt 0.397633 0.649026
vt 0.412379 0.648879
vt 0.510287 0.648601
vt 0.522826 0.648880
vt 0.382129 0.649025
vt 0.587308 0.648599
vt 0.600107 0.648881
vt 0.367385 0.648877
vt 0.580367 0.648597
vt 0.354843 0.648597
vt 0.354843 0.658021
vt 0.367385 0.658301
vt 0.567820 0.658302
vt 0.580367 0.658021
vt 0.382129 0.658449
vt 0.522826 0.658304
vt 0.537569 0.658451
vt 0.587300 0.658022
vt 0.600099 0.658305
vt 0.397633 0.658450
vt 0.510287 0.658024
vt 0.412379 0.658302
vt 0.553073 0.658450
vt 0.459847 0.658453
vt 0.475351 0.658453
vt 0.490096 0.658306
vt 0.502638 0.658026
vt 0.445102 0.658304
vt 0.445102 0.663263
vt 0.459847 0.663412
vt 0.490096 0.663265
vt 0.502638 0.662985
vt 0.475351 0.663412
vt 0.553073 0.663409
vt 0.567820 0.663261
vt 0.537569 0.663410
vt 0.397633 0.663409
vt 0.412379 0.663262
vt 0.510287 0.662983
vt 0.522826 0.663263
vt 0.382130 0.663409
vt 0.587295 0.662981
vt 0.600094 0.663263
vt 0.367385 0.663261
vt 0.580367 0.662980
vt 0.354843 0.662980
vt 0.645009 0.731877
vt 0.645066 0.668221
vt 0.657342 0.667938
vt 0.657286 0.731595
vt 0.600033 0.731877
vt 0.600090 0.668222
vt 0.614966 0.668371
vt 0.614910 0.732026
vt 0.354843 0.731599
vt 0.354843 0.667939
vt 0.367385 0.668220
vt 0.367385 0.731880
vt 0.567821 0.731880
vt 0.567820 0.668220
vt 0.580367 0.667939
vt 0.580368 0.731599
vt 0.382130 0.668368
vt 0.382130 0.732027
vt 0.522827 0.731880
vt 0.522826 0.668222
vt 0.537569 0.668369
vt 0.537570 0.732027
vt 0.587234 0.731595
vt 0.587291 0.667940
vt 0.630513 0.668370
vt 0.630457 0.732025
vt 0.397633 0.668368
vt 0.397634 0.732027
vt 0.510288 0.731599
vt 0.510287 0.667942
vt 0.412379 0.668221
vt 0.412379 0.731880
vt 0.553073 0.668368
vt 0.553074 0.732027
vt 0.459847 0.732027
vt 0.459847 0.668371
vt 0.475351 0.668371
vt 0.475351 0.732027
vt 0.490096 0.668224
vt 0.490096 0.731880
vt 0.502638 0.667944
vt 0.502638 0.731599
vt 0.445101 0.731880
vt 0.445102 0.668222
vt 0.354843 0.611253
vt 0.367385 0.611533
vt 0.567820 0.611534
vt 0.580367 0.611253
vt 0.382129 0.611681
vt 0.522826 0.611537
vt 0.537569 0.611684
vt 0.587341 0.611258
vt 0.600140 0.611540
vt 0.397633 0.611682
vt 0.510286 0.611258
vt 0.412379 0.611535
vt 0.553073 0.611682
vt 0.459847 0.611687
vt 0.475351 0.611688
vt 0.490096 0.611541
vt 0.502638 0.611261
vt 0.445102 0.617996
vt 0.459847 0.618145
vt 0.490096 0.617999
vt 0.502638 0.617719
vt 0.475351 0.618146
vt 0.553073 0.618141
vt 0.567820 0.617992
vt 0.537569 0.618142
vt 0.397633 0.618140
vt 0.412379 0.617994
vt 0.510286 0.617716
vt 0.522826 0.617996
vt 0.382129 0.618140
vt 0.587336 0.617716
vt 0.600135 0.617998
vt 0.367385 0.617992
vt 0.580367 0.617711
vt 0.354843 0.617711
vt 0.445102 0.611538
vt 0.657346 0.662979
vt 0.657359 0.648597
vt 0.657351 0.658020
vt 0.657369 0.638086
vt 0.657378 0.627400
vt 0.657387 0.617713
vt 0.657392 0.611255
vt 0.432557 0.627402
vt 0.432557 0.617714
vt 0.424923 0.627402
vt 0.424923 0.617714
vt 0.432557 0.611256
vt 0.424923 0.611256
vt 0.432557 0.638088
vt 0.424923 0.638088
vt 0.432557 0.648599
vt 0.424923 0.648599
vt 0.432557 0.658023
vt 0.424923 0.658023
vt 0.432557 0.662982
vt 0.424923 0.662982
vt 0.432558 0.731599
vt 0.432557 0.667941
vt 0.424923 0.731599
vt 0.424923 0.667941
s 1
f 202/1/1 216/2/2 215/3/3 201/4/4
f 189/5/5 205/6/6 204/7/7 188/8/8
f 174/9/9 173/10/10 211/11/11 212/12/12 154/13/13
f 170/14/14 153/15/15 208/16/16 209/17/17 171/18/18
f 79/19/19 81/20/20 26/21/21 37/22/22
f 81/23/20 43/24/23 40/25/24 26/26/21
f 51/27/25 27/28/26 21/29/27 49/30/28
f 53/31/29 36/32/30 27/33/26 51/34/25
f 49/30/28 21/29/27 38/35/31 47/36/32
f 59/37/33 33/38/34 34/39/35 57/40/36
f 71/41/37 25/42/38 28/43/39 69/44/40
f 67/45/41 29/46/42 30/47/43 65/48/44
f 47/36/32 38/35/31 39/49/45 45/50/46
f 61/51/47 32/52/48 33/38/34 59/37/33
f 45/50/46 39/49/45 40/25/24 43/24/23
f 57/40/36 34/39/35 35/53/49 55/54/50
f 77/55/51 22/56/52 23/57/53 75/58/54
f 55/54/50 35/53/49 36/32/30 53/31/29
f 65/48/44 30/47/43 31/59/55 63/60/56
f 75/58/54 23/57/53 24/61/57 73/62/58
f 73/62/58 24/61/57 25/63/38 71/64/37
f 79/19/19 37/22/22 22/56/52 77/55/51
f 369/65/19 78/66/19 76/67/51 368/68/51
f 366/69/58 72/70/58 70/71/59 365/72/59
f 367/73/54 74/74/54 72/70/58 366/69/58
f 362/75/44 64/76/60 62/77/61 361/78/62
f 357/79/63 54/80/63 52/81/64 356/82/65
f 368/68/51 76/67/51 74/74/54 367/73/54
f 358/83/36 56/84/36 54/80/63 357/79/63
f 352/85/66 44/86/66 42/87/67 351/88/67
f 360/89/68 60/90/69 58/91/33 359/92/33
f 353/93/32 46/94/32 44/86/66 352/85/66
f 363/95/70 66/96/71 64/76/60 362/75/44
f 365/97/59 70/98/59 68/99/72 364/100/73
f 359/92/33 58/91/33 56/84/36 358/83/36
f 354/101/27 48/102/27 46/94/32 353/93/32
f 356/82/65 52/81/64 50/103/26 355/104/26
f 355/105/26 50/106/26 48/102/27 354/101/27
f 387/107/74 351/88/67 42/87/67 80/108/75 41/109/74
f 369/65/19 387/110/74 41/111/74 80/112/75 78/66/19
f 186/113/51 167/114/54 74/74/54 76/67/51
f 167/114/54 168/115/58 72/70/58 74/74/54
f 168/115/58 169/116/37 70/71/59 72/70/58
f 169/117/37 170/14/14 68/99/72 70/98/59
f 364/100/73 68/99/72 66/96/71 363/95/70
f 171/18/18 172/118/76 64/76/60 66/96/71
f 172/118/76 173/10/10 62/77/61 64/76/60
f 361/78/62 62/77/61 60/119/69 360/120/68
f 174/121/9 175/122/33 58/91/33 60/90/69
f 175/122/33 176/123/36 56/84/36 58/91/33
f 176/123/36 177/124/63 54/80/63 56/84/36
f 177/124/63 178/125/64 52/81/64 54/80/63
f 178/125/64 179/126/77 50/103/26 52/81/64
f 179/127/77 180/128/27 48/102/27 50/106/26
f 180/128/27 181/129/32 46/94/32 48/102/27
f 181/129/32 182/130/66 44/86/66 46/94/32
f 182/130/66 183/131/78 42/87/67 44/86/66
f 183/131/78 184/132/75 80/108/75 42/87/67
f 184/133/75 185/134/19 78/66/19 80/112/75
f 185/134/19 186/113/51 76/67/51 78/66/19
f 63/60/56 216/2/2 203/135/79 65/48/44
f 235/136/19 97/137/80 96/138/81 234/139/20
f 234/140/20 96/141/81 95/142/82 233/143/78
f 233/143/78 95/142/82 94/144/83 232/145/46
f 232/145/46 94/144/83 93/146/84 231/147/32
f 231/147/32 93/146/84 92/148/85 230/149/86
f 230/149/86 92/148/85 91/150/87 229/151/25
f 229/152/25 91/153/87 90/154/88 228/155/29
f 228/155/29 90/154/88 89/156/89 227/157/63
f 227/157/63 89/156/89 88/158/90 226/159/36
f 226/159/36 88/158/90 87/160/91 225/161/33
f 225/161/33 87/160/91 86/162/92 224/163/93
f 223/164/94 85/165/95 84/166/96 222/167/37
f 222/168/37 84/169/96 83/170/97 221/171/58
f 221/171/58 83/170/97 82/172/98 220/173/54
f 132/174/99 116/175/100 115/176/51 114/177/101
f 131/178/102 132/174/99 114/177/101 113/179/103
f 130/180/104 131/181/102 113/182/103 112/183/105
f 129/184/106 130/180/104 112/183/105 111/185/66
f 128/186/107 129/184/106 111/185/66 110/187/108
f 127/188/109 128/186/107 110/187/108 109/189/110
f 126/190/111 127/188/109 109/189/110 108/191/25
f 125/192/112 126/193/111 108/194/25 107/195/64
f 124/196/113 125/192/112 107/195/64 106/197/114
f 123/198/115 124/196/113 106/197/114 105/199/116
f 122/200/117 123/198/115 105/199/116 104/201/118
f 118/202/119 119/203/120 101/204/121 100/205/122
f 117/206/123 118/202/119 100/205/122 99/207/124
f 116/175/100 117/206/123 99/207/124 115/176/51
f 98/208/125 82/172/98 117/206/123 116/175/100
f 82/172/98 83/170/97 118/202/119 117/206/123
f 83/170/97 84/169/96 119/203/120 118/202/119
f 84/166/96 85/165/95 120/209/126 119/210/120
f 86/162/92 87/160/91 122/200/117 121/211/127
f 87/160/91 88/158/90 123/198/115 122/200/117
f 88/158/90 89/156/89 124/196/113 123/198/115
f 89/156/89 90/154/88 125/192/112 124/196/113
f 90/154/88 91/153/87 126/193/111 125/192/112
f 91/150/87 92/148/85 127/188/109 126/190/111
f 92/148/85 93/146/84 128/186/107 127/188/109
f 93/146/84 94/144/83 129/184/106 128/186/107
f 94/144/83 95/142/82 130/180/104 129/184/106
f 95/142/82 96/141/81 131/181/102 130/180/104
f 96/138/81 97/137/80 132/174/99 131/178/102
f 97/137/80 98/208/125 116/175/100 132/174/99
f 114/177/101 115/176/51 149/212/128 148/213/129
f 113/179/103 114/177/101 148/213/129 147/214/130
f 112/183/105 113/182/103 147/215/130 146/216/131
f 111/185/66 112/183/105 146/216/131 145/217/132
f 110/187/108 111/185/66 145/217/132 144/218/133
f 109/189/110 110/187/108 144/218/133 143/219/134
f 108/191/25 109/189/110 143/219/134 142/220/135
f 107/195/64 108/194/25 142/221/135 141/222/136
f 106/197/114 107/195/64 141/222/136 140/223/137
f 105/199/116 106/197/114 140/223/137 139/224/138
f 104/201/118 105/199/116 139/224/138 138/225/139
f 100/205/122 101/204/121 135/226/140 134/227/141
f 99/207/124 100/205/122 134/227/141 133/228/142
f 115/176/51 99/207/124 133/228/142 149/212/128
f 148/213/129 149/212/128 166/229/143 165/230/144
f 147/214/130 148/213/129 165/230/144 164/231/145
f 146/216/131 147/215/130 164/232/145 163/233/146
f 145/217/132 146/216/131 163/233/146 162/234/132
f 144/218/133 145/217/132 162/234/132 161/235/147
f 143/219/134 144/218/133 161/235/147 160/236/148
f 142/220/135 143/219/134 160/236/148 159/237/149
f 141/222/136 142/221/135 159/238/149 158/239/150
f 140/223/137 141/222/136 158/239/150 157/240/151
f 139/224/138 140/223/137 157/240/151 156/241/152
f 138/225/139 139/224/138 156/241/152 155/242/153
f 137/243/154 138/225/139 155/242/153 154/244/13
f 135/245/140 136/246/155 153/15/15 152/247/156
f 134/227/141 135/226/140 152/248/156 151/249/157
f 133/228/142 134/227/141 151/249/157 150/250/158
f 149/212/128 133/228/142 150/250/158 166/229/143
f 209/17/17 210/251/159 172/118/76 171/18/18
f 165/230/144 185/134/19 184/133/75 164/231/145
f 164/232/145 184/132/75 183/131/78 163/233/146
f 163/233/146 183/131/78 182/130/66 162/234/132
f 162/234/132 182/130/66 181/129/32 161/235/147
f 161/235/147 181/129/32 180/128/27 160/236/148
f 160/236/148 180/128/27 179/127/77 159/237/149
f 159/238/149 179/126/77 178/125/64 158/239/150
f 158/239/150 178/125/64 177/124/63 157/240/151
f 157/240/151 177/124/63 176/123/36 156/241/152
f 156/241/152 176/123/36 175/122/33 155/242/153
f 155/242/153 175/122/33 174/121/9 154/244/13
f 153/15/15 170/14/14 169/117/37 152/247/156
f 152/248/156 169/116/37 168/115/58 151/249/157
f 151/249/157 168/115/58 167/114/54 150/250/158
f 220/173/54 82/172/98 98/208/125 219/252/51
f 150/250/158 167/114/54 186/113/51 166/229/143
f 188/8/8 204/7/7 203/135/79 187/253/160
f 204/7/7 205/6/6 85/165/95 223/164/94
f 190/254/161 206/255/162 205/6/6 189/5/5
f 191/256/163 102/257/164 206/255/162 190/254/161
f 192/258/165 207/259/166 102/257/164 191/256/163
f 193/260/167 208/16/16 207/259/166 192/258/165
f 170/14/14 171/18/18 66/96/71 68/99/72
f 195/261/168 210/251/159 209/17/17 194/262/169
f 196/263/170 211/11/11 210/251/159 195/261/168
f 173/10/10 174/9/9 60/119/69 62/77/61
f 198/264/171 213/265/172 212/12/12 197/266/173
f 199/267/174 103/268/175 213/265/172 198/264/171
f 200/269/176 214/270/177 103/268/175 199/267/174
f 201/4/4 215/3/3 214/270/177 200/269/176
f 187/253/160 203/135/79 216/2/2 202/1/1
f 153/15/15 136/246/155 207/259/166 208/16/16
f 120/209/126 85/165/95 205/6/6 206/255/162
f 224/271/93 216/2/2 63/60/56 61/272/47
f 63/60/56 31/59/55 32/273/48 61/272/47
f 203/135/79 204/7/7 67/45/41 65/48/44
f 86/274/92 121/275/127 214/270/177 215/3/3
f 137/276/154 154/13/13 212/12/12 213/265/172
f 69/44/40 28/43/39 29/46/42 67/45/41
f 194/262/169 209/17/17 208/16/16 193/260/167
f 210/251/159 211/11/11 173/10/10 172/118/76
f 101/277/121 119/210/120 120/209/126 218/278/178
f 218/278/178 102/257/164 207/259/166 136/246/155
f 104/201/118 138/225/139 137/243/154 217/279/179
f 103/280/175 214/281/177 121/211/127 217/279/179
f 122/200/117 104/201/118 217/279/179 121/211/127
f 213/282/172 103/280/175 217/279/179 137/243/154
f 120/209/126 206/255/162 102/257/164 218/278/178
f 135/245/140 101/277/121 218/278/178 136/246/155
f 166/229/143 186/113/51 185/134/19 165/230/144
f 219/252/51 98/208/125 97/137/80 235/136/19
f 197/266/173 212/12/12 211/11/11 196/263/170
f 77/55/51 219/252/51 235/136/19 79/19/19
f 75/58/54 220/173/54 219/252/51 77/55/51
f 73/62/58 221/171/58 220/173/54 75/58/54
f 71/64/37 222/168/37 221/171/58 73/62/58
f 69/44/40 223/164/94 222/167/37 71/41/37
f 59/37/33 225/161/33 224/163/93 61/51/47
f 57/40/36 226/159/36 225/161/33 59/37/33
f 55/54/50 227/157/63 226/159/36 57/40/36
f 53/31/29 228/155/29 227/157/63 55/54/50
f 51/34/25 229/152/25 228/155/29 53/31/29
f 49/30/28 230/149/86 229/151/25 51/27/25
f 47/36/32 231/147/32 230/149/86 49/30/28
f 45/50/46 232/145/46 231/147/32 47/36/32
f 43/24/23 233/143/78 232/145/46 45/50/46
f 81/23/20 234/140/20 233/143/78 43/24/23
f 79/19/19 235/136/19 234/139/20 81/20/20
f 67/45/41 204/7/7 223/164/94 69/44/40
f 86/274/92 215/3/3 216/2/2 224/271/93
f 253/283/1 267/284/180 266/285/181 252/286/4
f 240/287/5 256/288/182 255/289/183 239/290/8
f 239/290/8 255/289/183 254/291/79 238/292/160
f 241/293/161 257/294/184 256/288/182 240/287/5
f 242/295/163 236/296/185 257/294/184 241/293/161
f 243/297/165 258/298/186 236/296/185 242/295/163
f 244/299/167 259/300/187 258/298/186 243/297/165
f 246/301/168 261/302/188 260/303/189 245/304/169
f 247/305/170 262/306/190 261/302/188 246/301/168
f 249/307/171 264/308/191 263/309/192 248/310/173
f 250/311/174 237/312/193 264/308/191 249/307/171
f 251/313/176 265/314/194 237/312/193 250/311/174
f 252/286/4 266/285/181 265/314/194 251/313/176
f 238/292/160 254/291/79 267/284/180 253/283/1
f 245/304/169 260/303/189 259/300/187 244/299/167
f 248/310/173 263/309/192 262/306/190 247/305/170
f 288/315/26 272/316/26 271/317/195 287/318/195
f 289/319/65 273/320/65 272/321/26 288/322/26
f 287/318/195 271/317/195 270/323/32 286/324/32
f 292/325/33 276/326/33 275/327/36 291/328/36
f 295/329/37 279/330/37 278/331/196 294/332/197
f 286/324/32 270/323/32 269/333/66 285/334/66
f 293/335/198 277/336/199 276/326/33 292/325/33
f 285/334/66 269/333/66 268/337/78 284/338/78
f 291/328/36 275/327/36 274/339/63 290/340/63
f 298/341/51 282/342/51 281/343/54 297/344/54
f 290/340/63 274/339/63 273/320/65 289/319/65
f 297/344/54 281/343/54 280/345/58 296/346/58
f 296/346/58 280/345/58 279/347/37 295/348/37
f 299/349/19 283/350/19 282/342/51 298/341/51
f 315/351/19 299/349/19 298/341/51 314/352/51
f 312/353/58 296/346/58 295/348/37 311/354/37
f 313/355/54 297/344/54 296/346/58 312/353/58
f 306/356/63 290/340/63 289/319/65 305/357/65
f 314/352/51 298/341/51 297/344/54 313/355/54
f 307/358/36 291/328/36 290/340/63 306/356/63
f 301/359/66 285/334/66 284/338/78 300/360/78
f 309/361/200 293/335/198 292/325/33 308/362/33
f 302/363/32 286/324/32 285/334/66 301/359/66
f 311/364/37 295/329/37 294/332/197 310/365/201
f 308/362/33 292/325/33 291/328/36 307/358/36
f 303/366/195 287/318/195 286/324/32 302/363/32
f 305/357/65 289/319/65 288/322/26 304/367/26
f 304/368/26 288/315/26 287/318/195 303/366/195
f 320/369/26 304/368/26 303/366/195 319/370/195
f 321/371/65 305/357/65 304/367/26 320/372/26
f 319/370/195 303/366/195 302/363/32 318/373/32
f 324/374/33 308/362/33 307/358/36 323/375/36
f 327/376/37 311/364/37 310/365/201 326/377/202
f 318/373/32 302/363/32 301/359/66 317/378/66
f 325/379/203 309/361/200 308/362/33 324/374/33
f 317/378/66 301/359/66 300/360/78 316/380/78
f 323/375/36 307/358/36 306/356/63 322/381/63
f 330/382/51 314/352/51 313/355/54 329/383/54
f 322/381/63 306/356/63 305/357/65 321/371/65
f 329/383/54 313/355/54 312/353/58 328/384/58
f 328/384/58 312/353/58 311/354/37 327/385/37
f 331/386/19 315/351/19 314/352/51 330/382/51
f 425/387/19 331/386/19 330/382/51 424/388/51
f 422/389/58 328/384/58 327/385/37 421/390/59
f 423/391/54 329/383/54 328/384/58 422/389/58
f 416/392/63 322/381/63 321/371/65 415/393/65
f 424/388/51 330/382/51 329/383/54 423/391/54
f 417/394/36 323/375/36 322/381/63 416/392/63
f 411/395/66 317/378/66 316/380/78 410/396/78
f 419/397/204 325/379/203 324/374/33 418/398/33
f 412/399/32 318/373/32 317/378/66 411/395/66
f 421/400/59 327/376/37 326/377/202 420/401/205
f 418/398/33 324/374/33 323/375/36 417/394/36
f 413/402/195 319/370/195 318/373/32 412/399/32
f 415/393/65 321/371/65 320/372/26 414/403/26
f 414/404/26 320/369/26 319/370/195 413/402/195
f 10/405/206 342/406/207 341/407/208 9/408/209
f 13/409/210 345/410/211 344/411/212 12/412/213
f 4/413/214 336/414/26 335/415/195 3/416/215
f 5/417/216 337/418/65 336/419/26 4/420/214
f 3/416/215 335/415/195 334/421/32 2/422/217
f 8/423/218 340/424/33 339/425/36 7/426/219
f 14/427/220 346/428/59 345/410/211 13/409/210
f 12/412/213 344/411/212 343/429/221 11/430/222
f 2/422/217 334/421/32 333/431/66 1/432/223
f 9/433/209 341/434/208 340/424/33 8/423/218
f 1/432/223 333/431/66 332/435/78 20/436/224
f 7/426/219 339/425/36 338/437/63 6/438/225
f 17/439/226 349/440/51 348/441/54 16/442/227
f 6/438/225 338/437/63 337/418/65 5/417/216
f 11/430/222 343/429/221 342/406/207 10/405/206
f 16/442/227 348/441/54 347/443/58 15/444/228
f 15/444/228 347/443/58 346/445/59 14/446/220
f 18/447/229 350/448/19 349/440/51 17/439/226
f 397/449/26 355/105/26 354/101/27 396/450/195
f 398/451/65 356/82/65 355/104/26 397/452/26
f 396/450/195 354/101/27 353/93/32 395/453/32
f 401/454/33 359/92/33 358/83/36 400/455/36
f 404/456/37 365/97/59 364/100/73 403/457/230
f 395/453/32 353/93/32 352/85/66 394/458/66
f 402/459/231 360/89/68 359/92/33 401/454/33
f 394/458/66 352/85/66 351/88/67 393/460/67
f 400/455/36 358/83/36 357/79/63 399/461/63
f 407/462/51 368/68/51 367/73/54 406/463/54
f 399/461/63 357/79/63 356/82/65 398/451/65
f 406/463/54 367/73/54 366/69/58 405/464/58
f 405/464/58 366/69/58 365/72/59 404/465/37
f 283/350/19 385/466/19 384/467/51 282/342/51
f 280/345/58 382/468/58 381/469/37 279/347/37
f 281/343/54 383/470/54 382/468/58 280/345/58
f 274/339/63 376/471/63 375/472/65 273/320/65
f 282/342/51 384/467/51 383/470/54 281/343/54
f 275/327/36 377/473/36 376/471/63 274/339/63
f 269/333/66 371/474/66 370/475/67 268/337/78
f 277/336/199 379/476/232 378/477/33 276/326/33
f 270/323/32 372/478/32 371/474/66 269/333/66
f 279/330/37 381/479/37 380/480/233 278/331/196
f 276/326/33 378/477/33 377/473/36 275/327/36
f 271/317/195 373/481/195 372/478/32 270/323/32
f 273/320/65 375/472/65 374/482/26 272/321/26
f 272/316/26 374/483/26 373/481/195 271/317/195
f 408/484/19 369/65/19 368/68/51 407/462/51
f 254/291/79 255/289/183 363/95/70 362/75/44
f 255/289/183 256/288/182 380/480/233 403/457/230
f 256/288/182 257/294/184 278/331/196 380/480/233
f 257/294/184 236/296/185 294/332/197 278/331/196
f 236/296/185 258/298/186 310/365/201 294/332/197
f 258/298/186 259/300/187 326/377/202 310/365/201
f 260/303/189 344/411/212 345/410/211 420/401/205
f 261/302/188 343/429/221 344/411/212 260/303/189
f 262/306/190 342/406/207 343/429/221 261/302/188
f 262/306/190 419/485/204 341/407/208 342/406/207
f 264/308/191 309/486/200 325/487/203 263/309/192
f 237/312/193 293/488/198 309/486/200 264/308/191
f 265/314/194 277/489/199 293/488/198 237/312/193
f 266/285/181 379/490/232 277/489/199 265/314/194
f 267/284/180 361/78/62 360/120/68 402/491/231
f 267/284/180 254/291/79 362/75/44 361/78/62
f 283/350/19 388/492/74 386/493/74 385/466/19
f 388/494/74 268/337/78 370/475/67 386/495/74
f 408/484/19 409/496/74 387/110/74 369/65/19
f 409/497/74 393/460/67 351/88/67 387/107/74
f 299/349/19 389/498/74 388/492/74 283/350/19
f 389/499/74 284/338/78 268/337/78 388/494/74
f 315/351/19 390/500/74 389/498/74 299/349/19
f 390/501/74 300/360/78 284/338/78 389/499/74
f 331/386/19 391/502/74 390/500/74 315/351/19
f 391/503/74 316/380/78 300/360/78 390/501/74
f 425/387/19 426/504/74 391/502/74 331/386/19
f 426/505/74 410/396/78 316/380/78 391/503/74
f 18/447/229 19/506/234 392/507/74 350/448/19
f 19/508/234 20/436/224 332/435/78 392/509/74
f 386/495/74 370/475/67 393/460/67 409/497/74
f 385/466/19 386/493/74 409/496/74 408/484/19
f 385/466/19 408/484/19 407/462/51 384/467/51
f 382/468/58 405/464/58 404/465/37 381/469/37
f 383/470/54 406/463/54 405/464/58 382/468/58
f 376/471/63 399/461/63 398/451/65 375/472/65
f 384/467/51 407/462/51 406/463/54 383/470/54
f 377/473/36 400/455/36 399/461/63 376/471/63
f 371/474/66 394/458/66 393/460/67 370/475/67
f 379/476/232 402/459/231 401/454/33 378/477/33
f 372/478/32 395/453/32 394/458/66 371/474/66
f 381/479/37 404/456/37 403/457/230 380/480/233
f 378/477/33 401/454/33 400/455/36 377/473/36
f 373/481/195 396/450/195 395/453/32 372/478/32
f 375/472/65 398/451/65 397/452/26 374/482/26
f 374/483/26 397/449/26 396/450/195 373/481/195
f 392/509/74 332/435/78 410/396/78 426/505/74
f 350/448/19 392/507/74 426/504/74 425/387/19
f 336/414/26 414/404/26 413/402/195 335/415/195
f 337/418/65 415/393/65 414/403/26 336/419/26
f 335/415/195 413/402/195 412/399/32 334/421/32
f 340/424/33 418/398/33 417/394/36 339/425/36
f 346/428/59 421/400/59 420/401/205 345/410/211
f 334/421/32 412/399/32 411/395/66 333/431/66
f 341/434/208 419/397/204 418/398/33 340/424/33
f 333/431/66 411/395/66 410/396/78 332/435/78
f 339/425/36 417/394/36 416/392/63 338/437/63
f 349/440/51 424/388/51 423/391/54 348/441/54
f 338/437/63 416/392/63 415/393/65 337/418/65
f 348/441/54 423/391/54 422/389/58 347/443/58
f 347/443/58 422/389/58 421/390/59 346/445/59
f 350/448/19 425/387/19 424/388/51 349/440/51
f 263/309/192 325/487/203 419/485/204 262/306/190
f 259/300/187 260/303/189 420/401/205 326/377/202
f 363/95/70 255/289/183 403/457/230 364/100/73
f 266/285/181 267/284/180 402/491/231 379/490/232
