# Blender 4.2.4 LTS
# www.blender.org
mtllib FenceBottom.mtl
o Pole
v 0.000272 0.703552 0.270884
v 0.083006 0.703552 0.257689
v 0.157612 0.703552 0.219573
v 0.216789 0.703552 0.160268
v 0.254743 0.703552 0.085580
v 0.267760 0.703552 0.002818
v 0.254564 0.703552 -0.079916
v 0.216449 0.703552 -0.154522
v 0.157144 0.703552 -0.213699
v 0.082448 0.703552 -0.251657
v -0.000012 0.703552 -0.264670
v -0.083047 0.703552 -0.251471
v -0.157646 0.703552 -0.213359
v -0.216823 0.703552 -0.154054
v -0.254777 0.703552 -0.079365
v -0.267794 0.703552 0.003396
v -0.254598 0.703552 0.086130
v -0.216483 0.703552 0.160736
v -0.157178 0.703552 0.219913
v -0.082489 0.703552 0.257867
v 0.000217 0.965666 0.219304
v 0.000183 1.016586 0.188436
v -0.000227 0.987398 0.197477
v 0.067014 0.965666 0.208651
v 0.057443 1.016586 0.179303
v 0.059847 0.987398 0.188029
v 0.127249 0.965667 0.177877
v 0.109078 1.016586 0.152923
v 0.114061 0.987398 0.160479
v 0.175027 0.965666 0.129996
v 0.150035 1.016585 0.111878
v 0.157108 0.987398 0.117525
v 0.205671 0.965666 0.069694
v 0.176303 1.016586 0.060186
v 0.184775 0.987398 0.063370
v 0.216180 0.965667 0.002873
v 0.185312 1.016586 0.002907
v 0.194353 0.987398 0.003317
v 0.205527 0.965666 -0.063924
v 0.176179 1.016585 -0.054353
v 0.184905 0.987398 -0.056757
v 0.174753 0.965666 -0.124159
v 0.149799 1.016586 -0.105989
v 0.157355 0.987398 -0.110971
v 0.126872 0.965667 -0.171937
v 0.108754 1.016586 -0.146945
v 0.114401 0.987398 -0.154018
v 0.066570 0.965667 -0.202581
v 0.057062 1.016586 -0.173213
v 0.060246 0.987398 -0.181685
v -0.000030 0.965666 -0.213090
v -0.000030 1.016586 -0.182222
v -0.000030 0.987398 -0.191263
v -0.067048 0.965666 -0.202437
v -0.057477 1.016586 -0.173089
v -0.059881 0.987398 -0.181815
v -0.127283 0.965667 -0.171663
v -0.109112 1.016586 -0.146709
v -0.114095 0.987398 -0.154265
v -0.175061 0.965666 -0.123782
v -0.150069 1.016586 -0.105664
v -0.157142 0.987398 -0.111310
v -0.205705 0.965666 -0.063480
v -0.176337 1.016586 -0.053972
v -0.184809 0.987398 -0.057156
v -0.216214 0.965667 0.003341
v -0.185346 1.016586 0.003307
v -0.194387 0.987398 0.002897
v -0.205561 0.965666 0.070138
v -0.176213 1.016586 0.060567
v -0.184939 0.987398 0.062971
v -0.174787 0.965667 0.130373
v -0.149833 1.016586 0.112203
v -0.157389 0.987398 0.117185
v -0.126906 0.965667 0.178151
v -0.108788 1.016586 0.153159
v -0.114434 0.987398 0.160232
v -0.057096 1.016586 0.179427
v -0.066604 0.965666 0.208795
v -0.060280 0.987398 0.187899
v 0.000298 0.904960 0.294211
v 0.000276 0.936332 0.274319
v -0.000325 0.922940 0.288027
v 0.090238 0.904960 0.279867
v 0.084071 0.936332 0.260954
v 0.087735 0.922941 0.274177
v 0.171344 0.904960 0.238431
v 0.159634 0.936332 0.222350
v 0.167206 0.922941 0.233793
v 0.235676 0.904960 0.173959
v 0.219570 0.936332 0.162284
v 0.230307 0.922941 0.170827
v 0.276937 0.904960 0.092764
v 0.258011 0.936332 0.086637
v 0.270862 0.922941 0.091444
v 0.291087 0.904960 0.002792
v 0.271194 0.936332 0.002814
v 0.284903 0.922941 0.003414
v 0.276742 0.904960 -0.087148
v 0.257830 0.936332 -0.080981
v 0.271053 0.922941 -0.084646
v 0.235306 0.904960 -0.168254
v 0.219226 0.936332 -0.156544
v 0.230669 0.922941 -0.164116
v 0.170835 0.904960 -0.232586
v 0.159160 0.936332 -0.216480
v 0.167703 0.922941 -0.227217
v 0.089640 0.904960 -0.273847
v 0.083513 0.936332 -0.254921
v 0.088321 0.922941 -0.267773
v -0.000030 0.904961 -0.287997
v -0.000030 0.936332 -0.268104
v -0.000030 0.922941 -0.281813
v -0.090272 0.904960 -0.273652
v -0.084105 0.936332 -0.254740
v -0.087769 0.922941 -0.267963
v -0.171378 0.904960 -0.232216
v -0.159668 0.936332 -0.216135
v -0.167240 0.922941 -0.227579
v -0.235710 0.904960 -0.167745
v -0.219604 0.936332 -0.156070
v -0.230341 0.922941 -0.164613
v -0.276971 0.904960 -0.086550
v -0.258045 0.936332 -0.080423
v -0.270897 0.922941 -0.085231
v -0.291121 0.904960 0.003421
v -0.271229 0.936332 0.003400
v -0.284937 0.922941 0.002799
v -0.276776 0.904960 0.093362
v -0.257864 0.936332 0.087195
v -0.271087 0.922941 0.090859
v -0.235340 0.904960 0.174468
v -0.219260 0.936332 0.162758
v -0.230703 0.922941 0.170330
v -0.170869 0.904960 0.238800
v -0.159194 0.936332 0.222694
v -0.167737 0.922941 0.233431
v -0.083547 0.936332 0.261135
v -0.089674 0.904960 0.280061
v -0.088355 0.922941 0.273986
v 0.109091 3.665436 0.152940
v -0.176214 3.663288 0.060566
v -0.185344 3.662848 0.003309
v -0.176334 3.662504 -0.053968
v -0.150064 3.662289 -0.105658
v -0.108804 3.664280 0.153138
v 0.150047 3.665372 0.111895
v -0.109108 3.662226 -0.146703
v -0.057473 3.662319 -0.173083
v -0.000030 3.662560 -0.182218
v 0.057063 3.662926 -0.173211
v 0.108753 3.663380 -0.146946
v 0.149795 3.663879 -0.105993
v 0.176173 3.664372 -0.054362
v 0.185303 3.664813 0.002896
v 0.176292 3.665157 0.060173
v -0.149854 3.663782 0.112176
v 0.057445 3.665342 0.179305
v 0.000192 3.665101 0.188447
v -0.057085 3.664735 0.179441
v -0.108788 2.434149 0.153178
v -0.057094 2.947674 0.179430
v -0.057088 3.240109 0.179438
v 0.000185 2.947691 0.188438
v 0.000190 3.240176 0.188445
v 0.057443 2.947702 0.179304
v 0.057444 3.240220 0.179305
v 0.109081 2.947706 0.152927
v 0.109089 3.240237 0.152937
v 0.150037 2.947703 0.111882
v 0.150045 3.240225 0.111892
v 0.176301 2.947694 0.060184
v 0.176294 3.240186 0.060175
v 0.185310 2.947678 0.002905
v 0.185305 3.240123 0.002898
v 0.176178 2.947658 -0.054355
v 0.176174 3.240042 -0.054360
v 0.149799 2.947635 -0.105989
v 0.149796 3.239952 -0.105992
v 0.108754 2.947612 -0.146945
v 0.108753 3.239861 -0.146946
v 0.057062 2.947592 -0.173213
v 0.057063 3.239778 -0.173212
v -0.000030 2.947575 -0.182221
v -0.000030 3.239711 -0.182218
v -0.057476 2.947564 -0.173088
v -0.057474 3.239666 -0.173085
v -0.109112 2.947559 -0.146708
v -0.109109 3.239649 -0.146704
v -0.150068 2.947562 -0.105663
v -0.150065 3.239661 -0.105660
v -0.176336 2.947572 -0.053971
v -0.176334 3.239700 -0.053969
v -0.185345 2.947588 0.003307
v -0.185345 3.239763 0.003309
v -0.176213 2.947608 0.060567
v -0.176214 3.239844 0.060567
v -0.149837 2.947631 0.112197
v -0.149850 3.239934 0.112182
v -0.108795 2.947653 0.153162
v -0.108800 3.240022 0.153150
v -0.185345 3.190983 0.003308
v -0.176335 3.190935 -0.053970
v -0.150066 3.190905 -0.105661
v -0.109110 3.190896 -0.146705
v 0.108754 3.191057 -0.146946
v 0.149797 3.191126 -0.105991
v 0.176175 3.191195 -0.054358
v 0.185306 3.191257 0.002900
v 0.176296 3.191304 0.060178
v 0.150043 3.191334 0.111889
v 0.109086 3.191343 0.152934
v 0.057444 3.191330 0.179304
v 0.000189 3.191297 0.188443
v -0.057090 3.191246 0.179436
v -0.108798 3.191179 0.153153
v -0.149846 3.191113 0.112187
v -0.176214 3.191044 0.060567
v -0.185212 3.114916 0.003516
v -0.176447 3.114770 -0.054185
v -0.150375 3.114345 -0.106413
v -0.102093 3.115034 -0.151083
v 0.102878 3.115136 -0.150668
v 0.150138 3.114429 -0.106853
v 0.176286 3.114975 -0.054572
v 0.185165 3.115156 0.003138
v 0.176222 3.115063 0.060233
v 0.150032 3.115051 0.111796
v 0.109069 3.115093 0.152879
v 0.057425 3.115090 0.179281
v 0.000186 3.115056 0.188407
v -0.057074 3.115020 0.179403
v -0.108781 3.114965 0.153107
v -0.149832 3.114882 0.112116
v -0.176135 3.114857 0.060612
v -0.176112 3.156515 0.060658
v -0.185277 3.156111 0.003499
v -0.176532 3.156403 -0.054358
v -0.150132 3.157678 -0.106350
v -0.117020 3.156408 -0.138832
v 0.117727 3.156537 -0.138367
v 0.149864 3.158229 -0.106790
v 0.176359 3.156648 -0.054704
v 0.185237 3.156264 0.003120
v 0.176202 3.156748 0.060268
v 0.150013 3.156891 0.111801
v 0.109075 3.156782 0.152870
v 0.057432 3.156746 0.179281
v 0.000187 3.156740 0.188414
v -0.057080 3.156677 0.179402
v -0.108787 3.156635 0.153093
v -0.149815 3.156664 0.112119
v -0.185279 3.074961 0.003499
v -0.176531 3.074443 -0.054360
v -0.150126 3.072959 -0.106353
v -0.117020 3.074703 -0.138835
v 0.117727 3.074802 -0.138369
v 0.149854 3.072754 -0.106793
v 0.176357 3.074620 -0.054704
v 0.185242 3.075242 0.003123
v 0.176203 3.074788 0.060269
v 0.150011 3.074654 0.111800
v 0.109073 3.074789 0.152867
v 0.057431 3.074814 0.179280
v 0.000186 3.074765 0.188412
v -0.057081 3.074747 0.179402
v -0.108786 3.074678 0.153094
v -0.149813 3.074530 0.112122
v -0.176112 3.074611 0.060659
v -0.185345 3.040514 0.003308
v -0.176336 3.040486 -0.053971
v -0.150067 3.040468 -0.105662
v -0.109111 3.040463 -0.146707
v 0.108754 3.040557 -0.146945
v 0.149798 3.040598 -0.105990
v 0.176177 3.040638 -0.054356
v 0.185309 3.040674 0.002903
v 0.176299 3.040702 0.060181
v 0.150039 3.040720 0.111884
v 0.109083 3.040725 0.152929
v 0.057444 3.040717 0.179304
v 0.000186 3.040698 0.188440
v -0.057092 3.040668 0.179432
v -0.108796 3.040629 0.153158
v -0.149841 3.040590 0.112193
v -0.176214 3.040550 0.060567
v -0.185345 3.000472 0.003308
v -0.176336 3.000448 -0.053971
v -0.150067 3.000433 -0.105663
v -0.109111 3.000429 -0.146707
v -0.057476 3.000435 -0.173088
v -0.000030 3.000452 -0.182220
v 0.057063 3.000478 -0.173212
v 0.108754 3.000509 -0.146945
v 0.149798 3.000543 -0.105990
v 0.176177 3.000578 -0.054356
v 0.185309 3.000608 0.002903
v 0.176300 3.000632 0.060182
v 0.150039 3.000647 0.111883
v 0.109082 3.000652 0.152928
v 0.057444 3.000645 0.179304
v 0.000186 3.000628 0.188439
v -0.057093 3.000603 0.179431
v -0.108796 3.000570 0.153160
v -0.149840 3.000537 0.112195
v -0.176213 3.000503 0.060567
v -0.000030 3.205976 -0.181845
v -0.032504 3.199127 -0.177069
v -0.061894 3.179624 -0.170828
v -0.081532 3.150435 -0.160795
v -0.088428 3.116005 -0.157273
v -0.081532 3.081575 -0.160796
v -0.061894 3.052387 -0.170830
v -0.032504 3.032884 -0.177070
v -0.000030 3.026036 -0.181846
v 0.036832 3.032884 -0.176394
v 0.066222 3.052387 -0.168558
v 0.085859 3.081575 -0.158579
v 0.092755 3.116005 -0.155075
v 0.085859 3.150435 -0.158579
v 0.066222 3.179624 -0.168558
v 0.036832 3.199127 -0.176393
v -0.000030 3.221862 -0.181845
v -0.038625 3.213804 -0.176092
v -0.073205 3.190857 -0.165049
v -0.095932 3.155095 -0.153718
v -0.095932 3.076604 -0.153720
v -0.073205 3.041154 -0.165051
v -0.038625 3.018207 -0.176094
v -0.000030 3.010149 -0.181846
v 0.042953 3.018207 -0.175431
v 0.077532 3.041154 -0.162811
v 0.099053 3.076654 -0.152079
v 0.099053 3.155117 -0.152078
v 0.077532 3.190857 -0.162811
v 0.042953 3.213804 -0.175431
v 0.118678 3.114882 -0.138016
v -0.119013 3.114741 -0.137753
v -0.176214 3.215444 0.060567
v -0.185345 3.215373 0.003309
v -0.176335 3.215318 -0.053969
v -0.150066 3.215283 -0.105660
v -0.109109 3.215273 -0.146705
v 0.108754 3.215459 -0.146946
v 0.149797 3.215539 -0.105992
v 0.176175 3.215619 -0.054359
v 0.185305 3.215690 0.002899
v 0.176295 3.215745 0.060177
v 0.150044 3.215780 0.111890
v 0.109088 3.215790 0.152935
v 0.057444 3.215775 0.179305
v 0.000189 3.215736 0.188444
v -0.057089 3.215677 0.179437
v -0.108799 3.215601 0.153152
v -0.149848 3.215524 0.112184
v -0.102093 1.365805 -0.151083
v 0.102878 1.365907 -0.150668
v -0.000030 1.456747 -0.181845
v -0.032504 1.449899 -0.177069
v -0.061894 1.430395 -0.170828
v -0.081532 1.401207 -0.160795
v -0.088428 1.366777 -0.157273
v -0.081532 1.332347 -0.160796
v -0.061894 1.303159 -0.170830
v -0.032504 1.283656 -0.177070
v -0.000030 1.276807 -0.181846
v 0.036832 1.283656 -0.176394
v 0.066222 1.303159 -0.168558
v 0.085859 1.332347 -0.158579
v 0.092755 1.366777 -0.155075
v 0.085859 1.401207 -0.158579
v 0.066222 1.430395 -0.168558
v 0.036832 1.449899 -0.176393
v -0.000030 1.472633 -0.181845
v -0.038625 1.464576 -0.176092
v -0.073205 1.441629 -0.165049
v -0.095932 1.405867 -0.153718
v -0.095932 1.327375 -0.153720
v -0.073205 1.291925 -0.165051
v -0.038625 1.268979 -0.176094
v -0.000030 1.260921 -0.181846
v 0.042953 1.268979 -0.175431
v 0.077532 1.291925 -0.162811
v 0.099053 1.327425 -0.152079
v 0.099053 1.405888 -0.152078
v 0.077532 1.441629 -0.162811
v 0.042953 1.464576 -0.175431
v -0.057096 1.406466 0.179428
v 0.000184 1.406469 0.188436
v 0.057443 1.406472 0.179303
v 0.109079 1.406472 0.152924
v 0.150035 1.406472 0.111879
v 0.176303 1.406470 0.060186
v 0.185311 1.406467 0.002907
v 0.176179 1.406462 -0.054353
v 0.149799 1.406458 -0.105989
v 0.108754 1.406454 -0.146945
v -0.109112 1.406443 -0.146709
v -0.150069 1.406444 -0.105664
v -0.176337 1.406446 -0.053972
v -0.185346 1.406449 0.003307
v -0.176213 1.406453 0.060567
v -0.149834 1.406457 0.112202
v -0.057096 1.366480 0.179428
v 0.000184 1.366483 0.188436
v 0.057443 1.366485 0.179303
v 0.109079 1.366486 0.152924
v 0.150035 1.366485 0.111879
v 0.176303 1.366484 0.060186
v 0.185311 1.366481 0.002907
v 0.176179 1.366477 -0.054353
v 0.149799 1.366473 -0.105989
v 0.108754 1.366469 -0.146945
v -0.109112 1.366460 -0.146709
v -0.150069 1.366461 -0.105664
v -0.176337 1.366462 -0.053972
v -0.185346 1.366465 0.003307
v -0.176213 1.366468 0.060567
v -0.149834 1.366473 0.112202
v -0.057096 1.327151 0.179427
v 0.000184 1.327153 0.188436
v 0.057443 1.327155 0.179303
v 0.109079 1.327156 0.152924
v 0.150035 1.327155 0.111879
v 0.176303 1.327154 0.060186
v 0.185311 1.327152 0.002907
v 0.176179 1.327148 -0.054353
v 0.149799 1.327145 -0.105989
v 0.108754 1.327141 -0.146945
v -0.109112 1.327133 -0.146709
v -0.150069 1.327133 -0.105664
v -0.176337 1.327135 -0.053972
v -0.185346 1.327137 0.003307
v -0.176213 1.327141 0.060567
v -0.149834 1.327144 0.112202
v -0.057096 1.291890 0.179427
v 0.000183 1.291893 0.188436
v 0.057443 1.291894 0.179303
v 0.109079 1.291895 0.152924
v 0.150035 1.291894 0.111879
v 0.176303 1.291893 0.060186
v 0.185311 1.291891 0.002907
v 0.176179 1.291888 -0.054353
v 0.149799 1.291885 -0.105989
v 0.108754 1.291882 -0.146945
v -0.109112 1.291874 -0.146709
v -0.150069 1.291875 -0.105664
v -0.176337 1.291876 -0.053972
v -0.185346 1.291878 0.003307
v -0.176213 1.291881 0.060567
v -0.149834 1.291884 0.112202
v -0.057096 1.254778 0.179427
v 0.000183 1.254780 0.188436
v 0.057443 1.254782 0.179303
v 0.109079 1.254782 0.152924
v 0.150035 1.254782 0.111879
v 0.176303 1.254781 0.060186
v 0.185312 1.254779 0.002907
v 0.176179 1.254776 -0.054353
v 0.149799 1.254773 -0.105989
v 0.108754 1.254771 -0.146945
v 0.057062 1.254768 -0.173213
v -0.000030 1.254767 -0.182222
v -0.057477 1.254765 -0.173089
v -0.109112 1.254764 -0.146709
v -0.150069 1.254765 -0.105664
v -0.176337 1.254766 -0.053972
v -0.185346 1.254768 0.003307
v -0.176213 1.254770 0.060567
v -0.149834 1.254773 0.112202
v -0.057096 1.491046 0.179428
v 0.000184 1.491050 0.188436
v 0.057443 1.491053 0.179303
v 0.109079 1.491054 0.152924
v 0.150035 1.491053 0.111879
v 0.176302 1.491051 0.060186
v 0.185311 1.491047 0.002906
v 0.176179 1.491042 -0.054353
v 0.149799 1.491037 -0.105989
v 0.108754 1.491031 -0.146945
v 0.057062 1.491026 -0.173213
v -0.000030 1.491023 -0.182222
v -0.057477 1.491020 -0.173089
v -0.109112 1.491019 -0.146709
v -0.150069 1.491020 -0.105664
v -0.176337 1.491022 -0.053972
v -0.185346 1.491026 0.003307
v -0.176213 1.491030 0.060567
v -0.149834 1.491036 0.112201
v -0.057096 1.442714 0.179428
v 0.000184 1.442718 0.188436
v 0.057443 1.442721 0.179303
v 0.109079 1.442722 0.152924
v 0.150035 1.442721 0.111879
v 0.176302 1.442719 0.060186
v 0.185311 1.442715 0.002906
v 0.176179 1.442711 -0.054353
v 0.149799 1.442706 -0.105989
v 0.108754 1.442701 -0.146945
v -0.109112 1.442690 -0.146709
v -0.150069 1.442691 -0.105664
v -0.176337 1.442693 -0.053972
v -0.185346 1.442696 0.003307
v -0.176213 1.442700 0.060567
v -0.149834 1.442705 0.112201
v -0.108788 1.442710 0.153165
v -0.108788 1.491041 0.153165
v -0.108788 1.406462 0.153164
v -0.108788 1.366476 0.153163
v -0.108788 1.327148 0.153163
v -0.108788 1.291887 0.153163
v -0.108788 1.254776 0.153162
v -0.057096 1.466880 0.179428
v 0.000184 1.466884 0.188436
v 0.057443 1.466887 0.179303
v 0.109079 1.466888 0.152924
v 0.150035 1.466887 0.111879
v 0.176302 1.466885 0.060186
v 0.185311 1.466881 0.002906
v 0.176179 1.466876 -0.054353
v 0.149799 1.466872 -0.105989
v 0.108754 1.466866 -0.146945
v -0.109112 1.466854 -0.146709
v -0.150069 1.466855 -0.105664
v -0.176337 1.466857 -0.053972
v -0.185346 1.466861 0.003307
v -0.176213 1.466865 0.060567
v -0.149834 1.466871 0.112201
v -0.108788 1.466875 0.153165
v -0.057096 1.273334 0.179427
v 0.000183 1.273336 0.188436
v 0.057443 1.273338 0.179303
v 0.109079 1.273339 0.152924
v 0.150035 1.273338 0.111879
v 0.176303 1.273337 0.060186
v 0.185312 1.273335 0.002907
v 0.176179 1.273332 -0.054353
v 0.149799 1.273329 -0.105989
v 0.108754 1.273326 -0.146945
v -0.109112 1.273320 -0.146709
v -0.150069 1.273320 -0.105664
v -0.176337 1.273321 -0.053972
v -0.185346 1.273323 0.003307
v -0.176213 1.273326 0.060567
v -0.149834 1.273328 0.112202
v -0.108788 1.273331 0.153162
v 0.000306 0.703552 0.302420
v -0.092202 0.703552 0.287870
v 0.092783 0.703552 0.287671
v 0.176176 0.703552 0.245066
v 0.242322 0.703552 0.178777
v 0.284746 0.703552 0.095292
v 0.299296 0.703552 0.002784
v 0.284546 0.703552 -0.089693
v 0.241942 0.703552 -0.173086
v 0.175653 0.703552 -0.239232
v 0.092168 0.703552 -0.281656
v -0.000030 0.703552 -0.296206
v -0.092817 0.703552 -0.281457
v -0.176210 0.703552 -0.238852
v -0.242356 0.703552 -0.172563
v -0.284780 0.703552 -0.089078
v -0.299330 0.703552 0.003430
v -0.284580 0.703552 0.095907
v -0.241976 0.703552 0.179300
v -0.175687 0.703552 0.245446
v -0.000021 0.703552 0.003108
v 0.025636 0.703552 0.081778
v -0.025677 0.703552 -0.075561
v 0.053174 0.703552 -0.101276
v 0.078786 0.703552 -0.022592
v 0.104398 0.703552 0.056092
v -0.104342 0.703552 -0.049908
v -0.078687 0.703552 0.028763
v -0.053032 0.703552 0.107432
v -0.029887 0.703552 0.178402
v 0.048781 0.703552 0.152747
v 0.127503 0.703552 0.127074
v -0.127486 0.703552 -0.120877
v -0.048823 0.703552 -0.146530
v 0.030068 0.703552 -0.172258
vn -0.0000 -1.0000 -0.0000
vn 0.2343 0.0150 -0.9720
vn 0.2608 -0.0031 -0.9654
vn 0.4190 0.0279 -0.9076
vn 0.3823 0.0145 -0.9239
vn -0.3679 0.0266 -0.9295
vn -0.4091 0.0427 -0.9115
vn -0.2471 0.0030 -0.9690
vn -0.2201 0.0271 -0.9751
vn 0.0012 0.1519 0.9884
vn -0.3043 0.1519 0.9404
vn -0.2634 0.5285 0.8070
vn -0.0012 0.5285 0.8489
vn -0.1800 0.8112 0.5564
vn 0.0008 0.8112 0.5848
vn 0.1815 0.8112 0.5559
vn 0.2612 0.5285 0.8077
vn 0.3066 0.1519 0.9397
vn 0.3444 0.8112 0.4727
vn 0.4981 0.5285 0.6875
vn 0.5819 0.1519 0.7989
vn 0.4736 0.8112 0.3431
vn 0.6861 0.5285 0.4999
vn 0.8003 0.1519 0.5800
vn 0.5564 0.8112 0.1800
vn 0.8070 0.5285 0.2634
vn 0.9404 0.1519 0.3043
vn 0.5848 0.8112 -0.0008
vn 0.8489 0.5285 0.0012
vn 0.9884 0.1519 -0.0012
vn 0.5559 0.8112 -0.1815
vn 0.8077 0.5285 -0.2612
vn 0.9397 0.1519 -0.3066
vn 0.4727 0.8112 -0.3444
vn 0.6875 0.5285 -0.4981
vn 0.7989 0.1519 -0.5819
vn 0.3431 0.8112 -0.4736
vn 0.4999 0.5285 -0.6861
vn 0.5800 0.1519 -0.8003
vn 0.5792 0.0054 -0.8152
vn 0.3264 0.0093 -0.9452
vn 0.2526 0.0020 -0.9676
vn 0.4209 0.0055 -0.9071
vn 0.5807 0.0075 -0.8141
vn 0.1800 0.8113 -0.5563
vn 0.2634 0.5285 -0.8070
vn -0.0002 0.8112 -0.5848
vn -0.0001 0.5285 -0.8489
vn -0.0003 0.1519 -0.9884
vn 0.3044 0.1516 -0.9404
vn -0.1814 0.8111 -0.5561
vn -0.2612 0.5285 -0.8077
vn -0.3064 0.1521 -0.9397
vn -0.5790 0.0053 -0.8153
vn -0.5790 0.0086 -0.8153
vn -0.4112 0.0005 -0.9116
vn -0.2385 -0.0043 -0.9711
vn -0.3305 0.0091 -0.9438
vn -0.3444 0.8112 -0.4727
vn -0.4981 0.5285 -0.6875
vn -0.4736 0.8112 -0.3431
vn -0.6861 0.5285 -0.4999
vn -0.8003 0.1519 -0.5800
vn -0.5819 0.1519 -0.7989
vn -0.5564 0.8112 -0.1800
vn -0.8070 0.5285 -0.2634
vn -0.5848 0.8112 0.0008
vn -0.8489 0.5285 -0.0012
vn -0.9884 0.1519 0.0012
vn -0.9404 0.1519 -0.3043
vn -0.5559 0.8112 0.1815
vn -0.8077 0.5285 0.2612
vn -0.9397 0.1519 0.3066
vn -0.4727 0.8112 0.3444
vn -0.6875 0.5285 0.4981
vn -0.7989 0.1519 0.5819
vn -0.3431 0.8112 0.4736
vn -0.4999 0.5285 0.6861
vn -0.5800 0.1519 0.8003
vn 0.0014 0.8003 0.5996
vn -0.1840 0.8003 0.5707
vn -0.2657 0.5246 0.8088
vn -0.0028 0.5246 0.8514
vn -0.3018 0.1824 0.9358
vn 0.0021 0.1824 0.9832
vn 0.3059 0.1824 0.9344
vn 0.2605 0.5246 0.8105
vn 0.1866 0.8003 0.5699
vn 0.5796 0.1824 0.7942
vn 0.4982 0.5246 0.6904
vn 0.3536 0.8003 0.4843
vn 0.7967 0.1824 0.5762
vn 0.6871 0.5246 0.5026
vn 0.4859 0.8003 0.3513
vn 0.9358 0.1824 0.3018
vn 0.8088 0.5246 0.2657
vn 0.5707 0.8003 0.1840
vn 0.9832 0.1824 -0.0021
vn 0.8514 0.5246 0.0028
vn 0.5996 0.8003 -0.0014
vn 0.9345 0.1823 -0.3059
vn 0.8105 0.5246 -0.2605
vn 0.5698 0.8003 -0.1866
vn 0.7942 0.1824 -0.5796
vn 0.6904 0.5246 -0.4982
vn 0.4843 0.8003 -0.3536
vn 0.5762 0.1824 -0.7967
vn 0.5026 0.5246 -0.6871
vn 0.3513 0.8003 -0.4859
vn 0.3019 0.1830 -0.9356
vn 0.2657 0.5248 -0.8087
vn -0.0004 0.1824 -0.9832
vn -0.0000 0.5246 -0.8514
vn -0.0000 0.8003 -0.5996
vn 0.1841 0.8000 -0.5710
vn -0.3057 0.1818 -0.9346
vn -0.2605 0.5244 -0.8106
vn -0.1865 0.8005 -0.5695
vn -0.5796 0.1824 -0.7942
vn -0.4982 0.5246 -0.6904
vn -0.7967 0.1824 -0.5762
vn -0.6871 0.5246 -0.5026
vn -0.4859 0.8003 -0.3513
vn -0.3536 0.8003 -0.4843
vn -0.9358 0.1824 -0.3018
vn -0.8088 0.5246 -0.2657
vn -0.9832 0.1824 0.0021
vn -0.8514 0.5246 -0.0028
vn -0.5996 0.8003 0.0014
vn -0.5707 0.8003 -0.1840
vn -0.9345 0.1824 0.3059
vn -0.8105 0.5246 0.2605
vn -0.5699 0.8003 0.1866
vn -0.7942 0.1824 0.5796
vn -0.6904 0.5246 0.4982
vn -0.4843 0.8003 0.3536
vn -0.5762 0.1824 0.7967
vn -0.5026 0.5246 0.6871
vn -0.3513 0.8003 0.4859
vn 0.3098 0.0407 0.9499
vn 0.0011 0.0407 0.9992
vn -0.3077 0.0407 0.9506
vn 0.5882 0.0407 0.8077
vn 0.8090 0.0407 0.5864
vn 0.9506 0.0407 0.3077
vn 0.9992 0.0407 -0.0011
vn 0.9499 0.0407 -0.3098
vn 0.8077 0.0407 -0.5882
vn 0.5864 0.0407 -0.8090
vn 0.3080 0.0407 -0.9505
vn -0.0006 0.0407 -0.9992
vn -0.3095 0.0407 -0.9500
vn -0.5882 0.0407 -0.8077
vn -0.8090 0.0407 -0.5864
vn -0.9506 0.0407 -0.3077
vn -0.9992 0.0407 0.0011
vn -0.9499 0.0407 0.3098
vn -0.8077 0.0407 0.5882
vn -0.5864 0.0407 0.8090
vn -0.8084 -0.0000 0.5886
vn -0.5870 -0.0000 0.8096
vn -0.5864 -0.0000 0.8101
vn -0.8079 -0.0000 0.5893
vn -0.3081 -0.0000 0.9514
vn -0.3074 -0.0000 0.9516
vn 0.8098 -0.0000 0.5867
vn 0.8097 -0.0000 0.5869
vn 0.5886 -0.0000 0.8084
vn 0.5886 -0.0000 0.8085
vn 0.9515 -0.0000 0.3078
vn 0.9513 -0.0000 0.3082
vn 0.3103 -0.0000 0.9507
vn 0.3100 -0.0000 0.9507
vn 0.8084 -0.0000 -0.5887
vn 0.8089 -0.0000 -0.5880
vn 0.9510 -0.0000 -0.3093
vn 0.9507 -0.0000 -0.3100
vn -0.8096 -0.0000 -0.5869
vn -0.8098 -0.0000 -0.5867
vn -0.5886 -0.0000 -0.8084
vn -0.5800 -0.0257 -0.8142
vn -0.3244 -0.0365 -0.9452
vn -0.3096 -0.0000 -0.9509
vn -0.0001 -0.0000 -1.0000
vn -0.0005 -0.0034 -1.0000
vn 0.0017 -0.0000 1.0000
vn 0.0012 -0.0000 1.0000
vn 0.5802 -0.0199 -0.8142
vn 0.5876 -0.0000 -0.8092
vn 1.0000 -0.0000 -0.0004
vn 1.0000 -0.0000 -0.0010
vn -0.9507 -0.0000 0.3100
vn -0.9505 -0.0000 0.3108
vn -1.0000 -0.0000 0.0017
vn -1.0000 -0.0000 0.0011
vn 0.3089 -0.0000 -0.9511
vn 0.3205 -0.0272 -0.9469
vn -0.9515 -0.0000 -0.3076
vn -0.9514 -0.0000 -0.3080
vn -0.8097 -0.0000 -0.5869
vn -0.0006 -0.0000 -1.0000
vn 0.3082 -0.0000 -0.9513
vn 0.3203 -0.0270 -0.9469
vn 1.0000 -0.0000 -0.0011
vn 0.9514 -0.0000 0.3079
vn 0.9514 -0.0000 0.3080
vn 0.0011 -0.0000 1.0000
vn -0.3079 -0.0000 0.9514
vn 0.5803 -0.0198 -0.8142
vn 0.5869 -0.0000 -0.8097
vn -0.3241 -0.0363 -0.9453
vn -0.3098 -0.0000 -0.9508
vn -0.5887 -0.0000 -0.8084
vn -0.5801 -0.0256 -0.8141
vn -0.5869 -0.0000 0.8097
vn -0.5869 -0.0000 0.8096
vn -0.0005 0.0054 -1.0000
vn 0.8097 -0.0000 0.5868
vn -0.3080 -0.0000 0.9514
vn -0.0002 -0.0030 -1.0000
vn -0.8084 -0.0008 0.5886
vn -0.5870 -0.0008 0.8096
vn -0.3081 -0.0006 0.9514
vn 0.0011 -0.0004 1.0000
vn 0.3101 -0.0005 0.9507
vn 0.5887 -0.0009 0.8084
vn 0.5886 -0.0001 0.8084
vn 0.8097 -0.0009 0.5868
vn 0.9514 -0.0008 0.3078
vn 1.0000 0.0001 -0.0005
vn 0.9511 0.0033 -0.3087
vn 0.8085 0.0059 -0.5884
vn 0.5800 0.0132 -0.8145
vn 0.5717 -0.0051 -0.8204
vn -0.5697 -0.0047 -0.8218
vn -0.5785 0.0183 -0.8155
vn -0.8094 0.0047 -0.5872
vn -0.9518 0.0033 -0.3068
vn -1.0000 0.0001 0.0016
vn -0.8085 -0.0008 0.5885
vn -0.9506 -0.0009 0.3104
vn -0.8085 -0.0000 0.5885
vn -0.5872 -0.0007 0.8094
vn -0.5872 -0.0000 0.8094
vn -0.3082 -0.0006 0.9513
vn -0.3082 -0.0000 0.9513
vn 0.0011 -0.0005 1.0000
vn 0.3102 -0.0005 0.9507
vn 0.3102 -0.0000 0.9507
vn 0.5889 -0.0008 0.8082
vn 0.5890 -0.0000 0.8082
vn 0.8098 -0.0008 0.5867
vn 0.9513 -0.0009 0.3083
vn 1.0000 -0.0006 0.0015
vn 1.0000 -0.0000 0.0018
vn 0.9517 0.0032 -0.3070
vn 0.9525 -0.0000 -0.3047
vn 0.8073 0.0084 -0.5901
vn 0.8083 -0.0002 -0.5887
vn -0.9522 0.0030 -0.3056
vn -0.8081 0.0075 -0.5891
vn -0.8090 -0.0002 -0.5878
vn -0.9529 -0.0000 -0.3032
vn -1.0000 -0.0006 0.0036
vn -1.0000 -0.0000 0.0040
vn -0.9507 -0.0008 0.3100
vn -0.6385 0.0071 -0.7696
vn 0.6432 0.0071 -0.7657
vn -0.9506 0.0010 0.3104
vn -0.8085 0.0008 0.5885
vn -0.5872 0.0007 0.8094
vn -0.3082 0.0006 0.9513
vn 0.0011 0.0004 1.0000
vn 0.3102 0.0005 0.9507
vn 0.5890 0.0007 0.8082
vn 0.8098 0.0008 0.5867
vn 0.9513 0.0010 0.3083
vn 1.0000 0.0007 0.0015
vn 0.9517 -0.0032 -0.3071
vn 0.8072 -0.0086 -0.5902
vn -0.8080 -0.0076 -0.5891
vn -0.9522 -0.0030 -0.3056
vn -1.0000 0.0006 0.0036
vn -0.9507 0.0008 0.3100
vn -0.8084 0.0009 0.5886
vn -0.5870 0.0008 0.8096
vn -0.3080 0.0006 0.9514
vn 0.3101 0.0005 0.9507
vn 0.5887 0.0008 0.8084
vn 0.8097 0.0009 0.5869
vn 0.9514 0.0008 0.3079
vn 1.0000 -0.0001 -0.0006
vn 0.9511 -0.0033 -0.3087
vn 0.8086 -0.0060 -0.5884
vn 0.6429 -0.0073 -0.7659
vn -0.6381 -0.0073 -0.7699
vn -0.8094 -0.0047 -0.5872
vn -0.9518 -0.0033 -0.3068
vn -1.0000 -0.0001 0.0017
vn -0.0002 0.0052 -1.0000
vn -0.0009 0.0019 -1.0000
vn -0.4386 -0.0009 -0.8987
vn -0.4979 -0.0005 -0.8673
vn -0.4273 -0.0000 -0.9041
vn -0.5228 -0.0001 -0.8525
vn -0.4385 0.0009 -0.8987
vn -0.4981 0.0002 -0.8671
vn -0.3679 -0.0266 -0.9295
vn -0.0008 -0.0019 -1.0000
vn -0.2201 -0.0271 -0.9751
vn 0.2343 -0.0151 -0.9720
vn 0.4364 0.0002 -0.8997
vn 0.5041 0.0003 -0.8636
vn 0.3823 -0.0145 -0.9239
vn 0.4235 0.0001 -0.9059
vn 0.5241 -0.0001 -0.8517
vn 0.4366 -0.0002 -0.8997
vn 0.5039 -0.0005 -0.8638
vn -0.6529 -0.0004 -0.7574
vn 0.6566 -0.0003 -0.7543
vn 0.2611 -0.0029 -0.9653
vn 0.4100 0.0305 -0.9116
vn -0.4015 0.0453 -0.9147
vn -0.2475 0.0031 -0.9689
vn -0.4568 0.0035 -0.8896
vn -0.4628 -0.0003 -0.8865
vn -0.4569 -0.0036 -0.8895
vn -0.4035 -0.0524 -0.9135
vn -0.0002 0.0073 -1.0000
vn -0.2344 0.0020 -0.9721
vn 0.2481 0.0092 -0.9687
vn 0.4568 -0.0033 -0.8896
vn 0.4116 -0.0358 -0.9107
vn 0.4615 -0.0003 -0.8872
vn 0.4567 0.0033 -0.8896
vn 0.5887 -0.0000 0.8084
vn -0.5975 0.0035 -0.8019
vn -0.6050 0.0002 -0.7962
vn 0.6056 0.0002 -0.7958
vn 0.5967 0.0030 -0.8024
vn 0.5970 -0.0031 -0.8022
vn -0.5977 -0.0036 -0.8017
vn -0.5800 -0.0269 -0.8141
vn 0.5799 -0.0193 -0.8145
vn 0.5716 0.0098 -0.8205
vn -0.5697 0.0104 -0.8218
vn 0.3303 0.0462 -0.9427
vn 0.5792 0.0300 -0.8146
vn -0.5788 0.0384 -0.8146
vn -0.3335 0.0613 -0.9408
vn -0.0005 0.0072 -1.0000
vn -0.5696 -0.0051 -0.8219
vn 0.5716 -0.0053 -0.8205
vn 0.5787 0.0164 -0.8154
vn -0.5786 0.0230 -0.8153
vt 0.541495 0.839047
vt 0.566809 0.813733
vt 0.566809 0.836134
vt 0.559886 0.857439
vt 0.640370 0.148632
vt 0.641934 0.144693
vt 0.650387 0.150678
vt 0.647698 0.153742
vt 0.614151 0.153927
vt 0.610895 0.150892
vt 0.620534 0.144805
vt 0.622187 0.148728
vt 0.397634 0.732027
vt 0.412379 0.731880
vt 0.413577 0.739745
vt 0.398122 0.739901
vt 0.696689 0.797538
vt 0.687132 0.784383
vt 0.691347 0.780345
vt 0.701946 0.795000
vt 0.398924 0.745887
vt 0.380838 0.745887
vt 0.381862 0.739902
vt 0.382130 0.732027
vt 0.707498 0.812213
vt 0.707459 0.830299
vt 0.701714 0.829263
vt 0.701714 0.813002
vt 0.366388 0.739748
vt 0.367385 0.731880
vt 0.701833 0.847488
vt 0.696689 0.844727
vt 0.353213 0.739455
vt 0.354843 0.731599
vt 0.691170 0.862097
vt 0.687132 0.857882
vt 0.582156 0.739450
vt 0.569018 0.739745
vt 0.567821 0.731880
vt 0.580368 0.731599
vt 0.676515 0.872696
vt 0.673977 0.867440
vt 0.553562 0.739901
vt 0.553074 0.732027
vt 0.554362 0.745887
vt 0.536276 0.745887
vt 0.537302 0.739902
vt 0.537570 0.732027
vt 0.659302 0.878248
vt 0.641216 0.878209
vt 0.642252 0.872464
vt 0.658513 0.872464
vt 0.521829 0.739748
vt 0.522827 0.731880
vt 0.624027 0.872583
vt 0.626788 0.867440
vt 0.508657 0.739455
vt 0.510288 0.731599
vt 0.657757 0.201379
vt 0.645480 0.201669
vt 0.641888 0.196968
vt 0.650351 0.190687
vt 0.657766 0.190676
vt 0.609418 0.861920
vt 0.613633 0.857882
vt 0.598845 0.847318
vt 0.604048 0.844674
vt 0.646259 0.739743
vt 0.630899 0.739900
vt 0.630457 0.732025
vt 0.645009 0.731877
vt 0.631978 0.745886
vt 0.613841 0.745886
vt 0.614705 0.739901
vt 0.614910 0.732026
vt 0.600505 0.201682
vt 0.600514 0.190983
vt 0.610859 0.190902
vt 0.620487 0.197080
vt 0.615381 0.201829
vt 0.593267 0.830052
vt 0.593306 0.811966
vt 0.599051 0.813002
vt 0.599051 0.829263
vt 0.598932 0.794777
vt 0.604075 0.797538
vt 0.599093 0.739746
vt 0.585649 0.739451
vt 0.587234 0.731595
vt 0.600033 0.731877
vt 0.609595 0.780168
vt 0.613633 0.784383
vt 0.624250 0.769569
vt 0.626788 0.774826
vt 0.491293 0.739745
vt 0.475840 0.739901
vt 0.475351 0.732027
vt 0.490096 0.731880
vt 0.476642 0.745887
vt 0.458556 0.745887
vt 0.459579 0.739902
vt 0.459847 0.732027
vt 0.641463 0.764017
vt 0.659549 0.764056
vt 0.658513 0.769801
vt 0.642252 0.769801
vt 0.444104 0.739748
vt 0.445101 0.731880
vt 0.676738 0.769682
vt 0.673977 0.774826
vt 0.430928 0.739455
vt 0.432558 0.731599
vt 0.426712 0.739450
vt 0.424923 0.731599
vt 0.715067 0.788350
vt 0.701771 0.769966
vt 0.704252 0.767263
vt 0.718262 0.786546
vt 0.908981 0.068668
vt 0.909210 0.091322
vt 0.904357 0.091926
vt 0.904125 0.068764
vt 0.904125 0.044412
vt 0.908980 0.044833
vt 0.912671 0.045244
vt 0.912671 0.067933
vt 0.904356 0.021252
vt 0.909205 0.022149
vt 0.725628 0.809215
vt 0.725628 0.833050
vt 0.721983 0.832631
vt 0.722032 0.809943
vt 0.904798 0.001552
vt 0.909635 0.002838
vt 0.718262 0.855719
vt 0.714925 0.854194
vt 0.904798 0.224811
vt 0.904357 0.205104
vt 0.909210 0.204500
vt 0.909643 0.223759
vt 0.704252 0.875002
vt 0.701549 0.872521
vt 0.904125 0.181940
vt 0.908981 0.181844
vt 0.684969 0.889012
vt 0.683165 0.885817
vt 0.904125 0.157587
vt 0.908979 0.158009
vt 0.912671 0.158422
vt 0.912671 0.181110
vt 0.904356 0.134430
vt 0.909205 0.135328
vt 0.662300 0.896378
vt 0.638465 0.896378
vt 0.638883 0.892733
vt 0.661572 0.892782
vt 0.904797 0.114734
vt 0.909635 0.116020
vt 0.615796 0.889012
vt 0.617321 0.885675
vt 0.659113 0.739446
vt 0.657286 0.731595
vt 0.858102 0.341093
vt 0.858544 0.360376
vt 0.853691 0.361020
vt 0.853256 0.342178
vt 0.858777 0.383232
vt 0.853921 0.383535
vt 0.596513 0.875002
vt 0.582464 0.855642
vt 0.585732 0.853982
vt 0.598994 0.872299
vt 0.858777 0.407654
vt 0.853921 0.407275
vt 0.850230 0.406965
vt 0.850230 0.384213
vt 0.858543 0.431021
vt 0.853695 0.430160
vt 0.858100 0.451125
vt 0.853262 0.449866
vt 0.575137 0.809215
vt 0.582503 0.786546
vt 0.585840 0.788071
vt 0.578782 0.809634
vt 0.504427 0.739450
vt 0.502638 0.731599
vt 0.858103 0.227916
vt 0.858544 0.247617
vt 0.853691 0.248221
vt 0.853258 0.228969
vt 0.858776 0.270778
vt 0.853919 0.270874
vt 0.596513 0.767263
vt 0.615796 0.753253
vt 0.617600 0.756448
vt 0.599216 0.769744
vt 0.858776 0.295130
vt 0.853921 0.294709
vt 0.850230 0.294299
vt 0.850230 0.271610
vt 0.858544 0.318291
vt 0.853696 0.317394
vt 0.638465 0.745887
vt 0.662300 0.745887
vt 0.661881 0.749532
vt 0.639193 0.749483
vt 0.858103 0.337993
vt 0.853265 0.336708
vt 0.684969 0.753253
vt 0.683444 0.756590
vt 0.904798 0.111630
vt 0.909643 0.110577
vt 0.850230 0.044068
vt 0.850230 0.069108
vt 0.850468 0.092923
vt 0.850468 0.020255
vt 0.850922 0.000000
vt 0.850468 0.206101
vt 0.850922 0.226364
vt 0.850230 0.182284
vt 0.850230 0.157244
vt 0.850468 0.133433
vt 0.850922 0.113182
vt 0.912433 0.359373
vt 0.911977 0.339546
vt 0.912671 0.382873
vt 0.912671 0.407984
vt 0.578733 0.832322
vt 0.575137 0.833050
vt 0.912431 0.432010
vt 0.911975 0.452681
vt 0.912432 0.246621
vt 0.911979 0.226364
vt 0.912671 0.270434
vt 0.912671 0.295474
vt 0.912432 0.319288
vt 0.911979 0.339546
vt 0.445108 0.137673
vt 0.432561 0.137369
vt 0.432565 0.023983
vt 0.445110 0.024397
vt 0.424924 0.137369
vt 0.412375 0.137627
vt 0.412375 0.024142
vt 0.424924 0.023982
vt 0.354839 0.137315
vt 0.354838 0.023691
vt 0.367380 0.023955
vt 0.367381 0.137592
vt 0.567811 0.137606
vt 0.567808 0.024029
vt 0.580364 0.023691
vt 0.580364 0.137314
vt 0.382127 0.024127
vt 0.382127 0.137744
vt 0.522819 0.137668
vt 0.522817 0.024371
vt 0.537559 0.024386
vt 0.537561 0.137792
vt 0.587763 0.137464
vt 0.587864 0.024514
vt 0.600663 0.024813
vt 0.600562 0.137749
vt 0.615438 0.137893
vt 0.615539 0.024937
vt 0.631085 0.024872
vt 0.630984 0.137881
vt 0.397629 0.024192
vt 0.397630 0.137756
vt 0.510280 0.137412
vt 0.510279 0.024223
vt 0.553062 0.024269
vt 0.553064 0.137770
vt 0.459847 0.137845
vt 0.459847 0.024676
vt 0.475350 0.024794
vt 0.475350 0.137866
vt 0.645638 0.024626
vt 0.645537 0.137715
vt 0.490095 0.024738
vt 0.490095 0.137736
vt 0.502637 0.024515
vt 0.502637 0.137465
vt 0.445102 0.605079
vt 0.445103 0.215793
vt 0.459847 0.215947
vt 0.459847 0.605228
vt 0.490096 0.605083
vt 0.490096 0.215809
vt 0.502638 0.215531
vt 0.502638 0.604803
vt 0.475351 0.605230
vt 0.475351 0.215952
vt 0.630569 0.605229
vt 0.630915 0.215956
vt 0.645468 0.215804
vt 0.645122 0.605080
vt 0.553073 0.605224
vt 0.553067 0.215928
vt 0.567814 0.215777
vt 0.567819 0.605075
vt 0.537569 0.605225
vt 0.537564 0.215934
vt 0.397633 0.605223
vt 0.397631 0.215925
vt 0.412377 0.215782
vt 0.412379 0.605077
vt 0.510286 0.604800
vt 0.510281 0.215518
vt 0.522820 0.215792
vt 0.522825 0.605079
vt 0.382129 0.605222
vt 0.382128 0.215922
vt 0.615023 0.605230
vt 0.615369 0.215959
vt 0.587347 0.604800
vt 0.587693 0.215529
vt 0.600492 0.215812
vt 0.600146 0.605082
vt 0.367385 0.605075
vt 0.367383 0.215773
vt 0.580362 0.215493
vt 0.580366 0.604794
vt 0.354843 0.604794
vt 0.354841 0.215493
vt 0.424923 0.604797
vt 0.424923 0.215507
vt 0.424923 0.352745
vt 0.432557 0.604797
vt 0.432553 0.352745
vt 0.432558 0.215507
vt 0.459847 0.201811
vt 0.475351 0.201819
vt 0.490095 0.201678
vt 0.502638 0.201401
vt 0.587706 0.201399
vt 0.630928 0.201824
vt 0.657744 0.215516
vt 0.657398 0.604796
vt 0.510281 0.201380
vt 0.522820 0.201652
vt 0.537563 0.201790
vt 0.553067 0.201782
vt 0.567813 0.201628
vt 0.580363 0.201344
vt 0.354841 0.201344
vt 0.367382 0.201623
vt 0.382128 0.201773
vt 0.397631 0.201777
vt 0.412377 0.201636
vt 0.424923 0.201364
vt 0.432559 0.201364
vt 0.445104 0.201654
vt 0.630961 0.142648
vt 0.445107 0.144197
vt 0.445106 0.150721
vt 0.432560 0.150422
vt 0.432561 0.143896
vt 0.424924 0.143896
vt 0.424924 0.150422
vt 0.412376 0.150686
vt 0.412376 0.144156
vt 0.397630 0.150820
vt 0.397630 0.144288
vt 0.382127 0.150811
vt 0.382127 0.144277
vt 0.367381 0.150659
vt 0.367381 0.144126
vt 0.354840 0.150381
vt 0.354839 0.143848
vt 0.580364 0.143848
vt 0.580364 0.150381
vt 0.567812 0.150670
vt 0.567811 0.144138
vt 0.553065 0.150830
vt 0.553065 0.144300
vt 0.537562 0.150847
vt 0.537561 0.144319
vt 0.522819 0.150717
vt 0.522819 0.144193
vt 0.510280 0.150455
vt 0.510280 0.143933
vt 0.600556 0.144264
vt 0.600550 0.150779
vt 0.587751 0.150494
vt 0.587757 0.143979
vt 0.502637 0.143980
vt 0.502638 0.150496
vt 0.490095 0.150769
vt 0.490095 0.144252
vt 0.475350 0.150903
vt 0.475350 0.144385
vt 0.445123 0.159927
vt 0.459819 0.160114
vt 0.459832 0.171248
vt 0.445124 0.171094
vt 0.432576 0.159655
vt 0.432572 0.170791
vt 0.412372 0.159924
vt 0.424918 0.159654
vt 0.424917 0.170791
vt 0.412371 0.171057
vt 0.397630 0.160055
vt 0.397630 0.171195
vt 0.382130 0.160053
vt 0.382132 0.171186
vt 0.367382 0.159896
vt 0.367384 0.171037
vt 0.354844 0.159586
vt 0.354839 0.170768
vt 0.567831 0.159904
vt 0.580339 0.159586
vt 0.580339 0.170768
vt 0.567823 0.171045
vt 0.553120 0.160181
vt 0.553122 0.171167
vt 0.537478 0.160081
vt 0.537510 0.171218
vt 0.522611 0.159511
vt 0.522606 0.171219
vt 0.490206 0.159999
vt 0.502822 0.159375
vt 0.502849 0.170958
vt 0.490157 0.171125
vt 0.475297 0.160223
vt 0.475290 0.171232
vt 0.459847 0.150887
vt 0.598073 0.159942
vt 0.587760 0.159380
vt 0.512923 0.159743
vt 0.459818 0.182004
vt 0.445122 0.181878
vt 0.432576 0.181558
vt 0.424918 0.181558
vt 0.412372 0.181820
vt 0.397630 0.181963
vt 0.382130 0.181950
vt 0.367382 0.181809
vt 0.354844 0.181564
vt 0.580339 0.181564
vt 0.567832 0.181809
vt 0.553122 0.181835
vt 0.537478 0.182004
vt 0.522610 0.182355
vt 0.502823 0.182017
vt 0.490206 0.181903
vt 0.475297 0.181911
vt 0.459847 0.191108
vt 0.445104 0.190949
vt 0.432559 0.190658
vt 0.424923 0.190658
vt 0.412377 0.190929
vt 0.397631 0.191068
vt 0.382128 0.191063
vt 0.367382 0.190913
vt 0.354841 0.190634
vt 0.580363 0.190634
vt 0.567813 0.190919
vt 0.553066 0.191074
vt 0.537563 0.191084
vt 0.522820 0.190947
vt 0.512923 0.181587
vt 0.510281 0.190677
vt 0.587742 0.182022
vt 0.598054 0.181778
vt 0.587715 0.190700
vt 0.502638 0.190701
vt 0.490095 0.190977
vt 0.475351 0.191117
vt 0.630911 0.199230
vt 0.459847 0.144366
vt 0.630958 0.146894
vt 0.608486 0.161672
vt 0.604352 0.160387
vt 0.606491 0.170853
vt 0.602593 0.171080
vt 0.608470 0.180075
vt 0.604334 0.181364
vt 0.614121 0.187932
vt 0.630915 0.194984
vt 0.622148 0.193157
vt 0.640331 0.193061
vt 0.652339 0.179838
vt 0.655481 0.181083
vt 0.647668 0.187746
vt 0.653984 0.170599
vt 0.656425 0.170782
vt 0.652355 0.161435
vt 0.655500 0.160114
vt 0.657808 0.143932
vt 0.657813 0.137411
vt 0.657914 0.024222
vt 0.657802 0.150454
vt 0.659725 0.159598
vt 0.659706 0.181442
vt 0.587689 0.170962
vt 0.597486 0.171072
vt 0.513056 0.170883
vt 0.509051 0.170703
vt 0.508518 0.159988
vt 0.508518 0.180958
vt 0.639955 0.616124
vt 0.641519 0.612186
vt 0.649971 0.618170
vt 0.647283 0.621234
vt 0.613735 0.621419
vt 0.610479 0.618385
vt 0.620118 0.612297
vt 0.621772 0.616220
vt 0.630546 0.610141
vt 0.630542 0.614386
vt 0.608071 0.629164
vt 0.603937 0.627879
vt 0.606076 0.638346
vt 0.602178 0.638573
vt 0.608054 0.647567
vt 0.603918 0.648857
vt 0.613705 0.655424
vt 0.610444 0.658394
vt 0.630500 0.662476
vt 0.630496 0.666722
vt 0.620072 0.664572
vt 0.621732 0.660649
vt 0.639915 0.660553
vt 0.641472 0.664460
vt 0.651923 0.647331
vt 0.655065 0.648576
vt 0.649936 0.658179
vt 0.647252 0.655239
vt 0.653569 0.638091
vt 0.656009 0.638275
vt 0.651939 0.628927
vt 0.655084 0.627606
vt 0.354843 0.638086
vt 0.354843 0.627399
vt 0.367385 0.627680
vt 0.367385 0.638366
vt 0.567820 0.638367
vt 0.567820 0.627680
vt 0.580367 0.627399
vt 0.580367 0.638086
vt 0.382129 0.627827
vt 0.382129 0.638514
vt 0.522826 0.638370
vt 0.522826 0.627683
vt 0.537569 0.627830
vt 0.537569 0.638516
vt 0.587317 0.638089
vt 0.587327 0.627403
vt 0.600126 0.627685
vt 0.600117 0.638371
vt 0.397633 0.627828
vt 0.397633 0.638515
vt 0.510287 0.638090
vt 0.510287 0.627404
vt 0.412379 0.627681
vt 0.412379 0.638368
vt 0.553073 0.627829
vt 0.553073 0.638515
vt 0.459847 0.638519
vt 0.459847 0.627832
vt 0.475351 0.627833
vt 0.475351 0.638519
vt 0.490096 0.627687
vt 0.490096 0.638373
vt 0.502638 0.627406
vt 0.502638 0.638092
vt 0.445102 0.638370
vt 0.445102 0.627684
vt 0.445102 0.648881
vt 0.459847 0.649029
vt 0.490096 0.648883
vt 0.502638 0.648603
vt 0.475351 0.649030
vt 0.553073 0.649026
vt 0.567820 0.648878
vt 0.537569 0.649027
vt 0.397633 0.649026
vt 0.412379 0.648879
vt 0.510287 0.648601
vt 0.522826 0.648880
vt 0.382129 0.649025
vt 0.587308 0.648599
vt 0.600107 0.648881
vt 0.367385 0.648877
vt 0.580367 0.648597
vt 0.354843 0.648597
vt 0.354843 0.658021
vt 0.367385 0.658301
vt 0.567820 0.658302
vt 0.580367 0.658021
vt 0.382129 0.658449
vt 0.522826 0.658304
vt 0.537569 0.658451
vt 0.587300 0.658022
vt 0.600099 0.658305
vt 0.397633 0.658450
vt 0.510287 0.658024
vt 0.412379 0.658302
vt 0.553073 0.658450
vt 0.459847 0.658453
vt 0.475351 0.658453
vt 0.490096 0.658306
vt 0.502638 0.658026
vt 0.445102 0.658304
vt 0.445102 0.663263
vt 0.459847 0.663412
vt 0.490096 0.663265
vt 0.502638 0.662985
vt 0.475351 0.663412
vt 0.553073 0.663409
vt 0.567820 0.663261
vt 0.537569 0.663410
vt 0.397633 0.663409
vt 0.412379 0.663262
vt 0.510287 0.662983
vt 0.522826 0.663263
vt 0.382130 0.663409
vt 0.587295 0.662981
vt 0.600094 0.663263
vt 0.367385 0.663261
vt 0.580367 0.662980
vt 0.354843 0.662980
vt 0.645066 0.668221
vt 0.657342 0.667938
vt 0.600090 0.668222
vt 0.614966 0.668371
vt 0.354843 0.667939
vt 0.367385 0.668220
vt 0.567820 0.668220
vt 0.580367 0.667939
vt 0.382130 0.668368
vt 0.522826 0.668222
vt 0.537569 0.668369
vt 0.587291 0.667940
vt 0.630513 0.668370
vt 0.397633 0.668368
vt 0.510287 0.667942
vt 0.412379 0.668221
vt 0.553073 0.668368
vt 0.459847 0.668371
vt 0.475351 0.668371
vt 0.490096 0.668224
vt 0.502638 0.667944
vt 0.445102 0.668222
vt 0.354843 0.611253
vt 0.367385 0.611533
vt 0.567820 0.611534
vt 0.580367 0.611253
vt 0.382129 0.611681
vt 0.522826 0.611537
vt 0.537569 0.611684
vt 0.587341 0.611258
vt 0.600140 0.611540
vt 0.397633 0.611682
vt 0.510286 0.611258
vt 0.412379 0.611535
vt 0.553073 0.611682
vt 0.459847 0.611687
vt 0.475351 0.611688
vt 0.490096 0.611541
vt 0.502638 0.611261
vt 0.445102 0.617996
vt 0.459847 0.618145
vt 0.490096 0.617999
vt 0.502638 0.617719
vt 0.475351 0.618146
vt 0.553073 0.618141
vt 0.567820 0.617992
vt 0.537569 0.618142
vt 0.397633 0.618140
vt 0.412379 0.617994
vt 0.510286 0.617716
vt 0.522826 0.617996
vt 0.382129 0.618140
vt 0.587336 0.617716
vt 0.600135 0.617998
vt 0.367385 0.617992
vt 0.580367 0.617711
vt 0.354843 0.617711
vt 0.445102 0.611538
vt 0.657346 0.662979
vt 0.657359 0.648597
vt 0.657351 0.658020
vt 0.657369 0.638086
vt 0.657378 0.627400
vt 0.657387 0.617713
vt 0.657392 0.611255
vt 0.432557 0.627402
vt 0.432557 0.617714
vt 0.424923 0.627402
vt 0.424923 0.617714
vt 0.432557 0.611256
vt 0.424923 0.611256
vt 0.432557 0.638088
vt 0.424923 0.638088
vt 0.432557 0.648599
vt 0.424923 0.648599
vt 0.432557 0.658023
vt 0.424923 0.658023
vt 0.432557 0.662982
vt 0.424923 0.662982
vt 0.432557 0.667941
vt 0.424923 0.667941
vt 0.484890 0.754216
vt 0.463586 0.761138
vt 0.459757 0.753625
vt 0.483571 0.745887
vt 0.445463 0.774305
vt 0.439500 0.768343
vt 0.432295 0.792428
vt 0.424782 0.788600
vt 0.425373 0.813733
vt 0.417045 0.812414
vt 0.425373 0.836134
vt 0.417045 0.837453
vt 0.432295 0.857439
vt 0.424782 0.861267
vt 0.445462 0.875562
vt 0.439500 0.881525
vt 0.463585 0.888729
vt 0.459757 0.896242
vt 0.484890 0.895652
vt 0.483571 0.903980
vt 0.507294 0.895652
vt 0.528526 0.888765
vt 0.532350 0.896280
vt 0.508610 0.903980
vt 0.546721 0.875561
vt 0.552682 0.881525
vt 0.575137 0.837454
vt 0.567400 0.861268
vt 0.559887 0.792428
vt 0.567400 0.788600
vt 0.575137 0.812414
vt 0.546719 0.774305
vt 0.552682 0.768343
vt 0.528596 0.761138
vt 0.532425 0.753625
vt 0.507292 0.754216
vt 0.508611 0.745887
vt 0.464783 0.824952
vt 0.480419 0.840605
vt 0.510162 0.870380
vt 0.525851 0.854691
vt 0.496091 0.793644
vt 0.511736 0.809289
vt 0.481977 0.779530
vt 0.480446 0.809288
vt 0.466333 0.795175
vt 0.450677 0.810830
vt 0.527381 0.824934
vt 0.496092 0.824933
vt 0.511737 0.840578
vt 0.496056 0.856259
s 1
f 579/1/1 15/2/1 14/3/1 13/4/1
f 322/5/2 336/6/3 335/7/4 321/8/5
f 309/9/6 325/10/7 324/11/8 308/12/9
f 22/13/10 78/14/11 80/15/12 23/16/13
f 23/17/13 80/18/12 79/19/14 21/20/15
f 21/21/15 24/22/16 26/23/17 23/16/13
f 23/16/13 26/23/17 25/24/18 22/13/10
f 24/25/16 27/26/19 29/27/20 26/28/17
f 26/23/17 29/29/20 28/30/21 25/24/18
f 27/26/19 30/31/22 32/32/23 29/27/20
f 29/29/20 32/33/23 31/34/24 28/30/21
f 30/31/22 33/35/25 35/36/26 32/32/23
f 32/37/23 35/38/26 34/39/27 31/40/24
f 33/35/25 36/41/28 38/42/29 35/36/26
f 35/38/26 38/43/29 37/44/30 34/39/27
f 36/45/28 39/46/31 41/47/32 38/43/29
f 38/43/29 41/47/32 40/48/33 37/44/30
f 39/49/31 42/50/34 44/51/35 41/52/32
f 41/47/32 44/53/35 43/54/36 40/48/33
f 42/50/34 45/55/37 47/56/38 44/51/35
f 44/53/35 47/57/38 46/58/39 43/54/36
f 294/59/40 293/60/41 331/61/42 332/62/43 274/63/44
f 45/55/37 48/64/45 50/65/46 47/56/38
f 48/64/45 51/66/47 53/67/48 50/65/46
f 50/68/46 53/69/48 52/70/49 49/71/50
f 51/72/47 54/73/51 56/74/52 53/69/48
f 53/69/48 56/74/52 55/75/53 52/70/49
f 290/76/54 273/77/55 328/78/56 329/79/57 291/80/58
f 54/81/51 57/82/59 59/83/60 56/84/52
f 57/82/59 60/85/61 62/86/62 59/83/60
f 59/87/60 62/88/62 61/89/63 58/90/64
f 60/85/61 63/91/65 65/92/66 62/86/62
f 63/91/65 66/93/67 68/94/68 65/92/66
f 65/95/66 68/96/68 67/97/69 64/98/70
f 66/99/67 69/100/71 71/101/72 68/96/68
f 68/96/68 71/101/72 70/102/73 67/97/69
f 69/103/71 72/104/74 74/105/75 71/106/72
f 71/101/72 74/107/75 73/108/76 70/102/73
f 72/104/74 75/109/77 77/110/78 74/105/75
f 74/107/75 77/111/78 76/112/79 73/108/76
f 75/109/77 79/19/14 80/18/12 77/110/78
f 77/113/78 80/15/12 78/14/11 76/114/79
f 82/115/80 138/116/81 140/117/82 83/118/83
f 83/119/83 140/120/82 139/121/84 81/122/85
f 81/122/85 84/123/86 86/124/87 83/119/83
f 83/119/83 86/124/87 85/125/88 82/126/80
f 84/123/86 87/127/89 89/128/90 86/124/87
f 86/129/87 89/130/90 88/131/91 85/132/88
f 87/127/89 90/133/92 92/134/93 89/128/90
f 89/130/90 92/135/93 91/136/94 88/131/91
f 90/137/92 93/138/95 95/139/96 92/140/93
f 92/135/93 95/141/96 94/142/97 91/136/94
f 93/138/95 96/143/98 98/144/99 95/139/96
f 95/141/96 98/145/99 97/146/100 94/142/97
f 96/143/98 99/147/101 101/148/102 98/144/99
f 98/144/99 101/148/102 100/149/103 97/150/100
f 99/147/101 102/151/104 104/152/105 101/148/102
f 101/153/102 104/154/105 103/155/106 100/156/103
f 102/151/104 105/157/107 107/158/108 104/152/105
f 104/154/105 107/159/108 106/160/109 103/155/106
f 47/161/38 50/68/46 49/71/50 46/162/39
f 105/163/107 108/164/110 110/165/111 107/166/108
f 108/164/110 111/167/112 113/168/113 110/165/111
f 110/169/111 113/170/113 112/171/114 109/172/115
f 111/167/112 114/173/116 116/174/117 113/168/113
f 113/168/113 116/174/117 115/175/118 112/176/114
f 56/74/52 59/87/60 58/90/64 55/75/53
f 114/173/116 117/177/119 119/178/120 116/174/117
f 117/177/119 120/179/121 122/180/122 119/178/120
f 119/181/120 122/182/122 121/183/123 118/184/124
f 62/185/62 65/95/66 64/98/70 61/186/63
f 120/187/121 123/188/125 125/189/126 122/190/122
f 123/188/125 126/191/127 128/192/128 125/189/126
f 125/193/126 128/194/128 127/195/129 124/196/130
f 126/191/127 129/197/131 131/198/132 128/192/128
f 128/192/128 131/198/132 130/199/133 127/200/129
f 129/197/131 132/201/134 134/202/135 131/198/132
f 131/203/132 134/204/135 133/205/136 130/206/133
f 132/201/134 135/207/137 137/208/138 134/202/135
f 134/204/135 137/209/138 136/210/139 133/205/136
f 135/211/137 139/121/84 140/120/82 137/212/138
f 137/209/138 140/117/82 138/116/81 136/210/139
f 549/213/140 84/123/86 81/122/85 547/214/141
f 547/214/141 81/122/85 139/121/84 548/215/142
f 85/132/88 24/25/16 21/20/15 82/115/80
f 82/115/80 21/20/15 79/19/14 138/116/81
f 550/216/143 87/127/89 84/123/86 549/213/140
f 88/131/91 27/26/19 24/25/16 85/132/88
f 551/217/144 90/133/92 87/127/89 550/216/143
f 91/136/94 30/31/22 27/26/19 88/131/91
f 552/218/145 93/138/95 90/137/92 551/219/144
f 94/142/97 33/35/25 30/31/22 91/136/94
f 553/220/146 96/143/98 93/138/95 552/218/145
f 97/146/100 36/41/28 33/35/25 94/142/97
f 554/221/147 99/147/101 96/143/98 553/220/146
f 100/156/103 39/49/31 36/41/28 97/146/100
f 555/222/148 102/151/104 99/147/101 554/221/147
f 103/155/106 42/50/34 39/49/31 100/156/103
f 556/223/149 105/157/107 102/151/104 555/222/148
f 106/160/109 45/55/37 42/50/34 103/155/106
f 107/159/108 110/169/111 109/172/115 106/160/109
f 557/224/150 108/164/110 105/163/107 556/225/149
f 558/226/151 111/167/112 108/164/110 557/224/150
f 112/171/114 51/66/47 48/64/45 109/172/115
f 559/227/152 114/173/116 111/167/112 558/226/151
f 115/228/118 54/81/51 51/66/47 112/171/114
f 116/229/117 119/181/120 118/184/124 115/228/118
f 560/230/153 117/177/119 114/173/116 559/227/152
f 561/231/154 120/179/121 117/177/119 560/230/153
f 121/183/123 60/85/61 57/82/59 118/184/124
f 122/182/122 125/193/126 124/196/130 121/183/123
f 562/232/155 123/188/125 120/187/121 561/233/154
f 563/234/156 126/191/127 123/188/125 562/232/155
f 127/195/129 66/93/67 63/91/65 124/196/130
f 564/235/157 129/197/131 126/191/127 563/234/156
f 130/206/133 69/103/71 66/93/67 127/195/129
f 565/236/158 132/201/134 129/197/131 564/235/157
f 133/205/136 72/104/74 69/103/71 130/206/133
f 566/237/159 135/207/137 132/201/134 565/236/158
f 136/210/139 75/109/77 72/104/74 133/205/136
f 548/215/142 139/121/84 135/211/137 566/223/159
f 138/116/81 79/19/14 75/109/77 136/210/139
f 199/238/160 201/239/161 146/240/162 157/241/163
f 201/242/161 163/243/164 160/244/165 146/245/162
f 124/196/130 63/91/65 60/85/61 121/183/123
f 171/246/166 147/247/167 141/248/168 169/249/169
f 173/250/170 156/251/171 147/252/167 171/253/166
f 169/249/169 141/248/168 158/254/172 167/255/173
f 179/256/174 153/257/175 154/258/176 177/259/177
f 191/260/178 145/261/179 148/262/180 189/263/181
f 187/264/182 149/265/183 150/266/184 185/267/185
f 167/255/173 158/254/172 159/268/186 165/269/187
f 181/270/188 152/271/189 153/257/175 179/256/174
f 165/269/187 159/268/186 160/244/165 163/243/164
f 177/259/177 154/258/176 155/272/190 175/273/191
f 197/274/192 142/275/193 143/276/194 195/277/195
f 175/273/191 155/272/190 156/251/171 173/250/170
f 185/267/185 150/266/184 151/278/196 183/279/197
f 195/277/195 143/276/194 144/280/198 193/281/199
f 193/281/199 144/280/198 145/282/179 191/283/178
f 199/238/160 157/241/163 142/275/193 197/274/192
f 489/284/160 198/285/160 196/286/192 488/287/192
f 486/288/199 192/289/199 190/290/200 485/291/200
f 487/292/195 194/293/195 192/289/199 486/288/199
f 482/294/185 184/295/201 182/296/202 481/297/203
f 477/298/204 174/299/204 172/300/205 476/301/206
f 488/287/192 196/286/192 194/293/195 487/292/195
f 478/302/177 176/303/177 174/299/204 477/298/204
f 472/304/207 164/305/207 162/306/208 471/307/208
f 480/308/209 180/309/210 178/310/174 479/311/174
f 473/312/173 166/313/173 164/305/207 472/304/207
f 483/314/211 186/315/212 184/295/201 482/294/185
f 485/316/200 190/317/200 188/318/213 484/319/214
f 479/311/174 178/310/174 176/303/177 478/302/177
f 109/172/115 48/64/45 45/55/37 106/160/109
f 474/320/168 168/321/168 166/313/173 473/312/173
f 476/301/206 172/300/205 170/322/167 475/323/167
f 118/184/124 57/82/59 54/81/51 115/228/118
f 475/324/167 170/325/167 168/321/168 474/320/168
f 507/326/215 471/307/208 162/306/208 200/327/216 161/328/215
f 489/284/160 507/329/215 161/330/215 200/331/216 198/285/160
f 306/332/192 287/333/195 194/293/195 196/286/192
f 287/333/195 288/334/199 192/289/199 194/293/195
f 288/334/199 289/335/178 190/290/200 192/289/199
f 289/336/178 290/76/54 188/318/213 190/317/200
f 484/319/214 188/318/213 186/315/212 483/314/211
f 291/80/58 292/337/217 184/295/201 186/315/212
f 292/337/217 293/60/41 182/296/202 184/295/201
f 481/297/203 182/296/202 180/338/210 480/339/209
f 294/340/40 295/341/174 178/310/174 180/309/210
f 295/341/174 296/342/177 176/303/177 178/310/174
f 296/342/177 297/343/204 174/299/204 176/303/177
f 297/343/204 298/344/205 172/300/205 174/299/204
f 298/344/205 299/345/218 170/322/167 172/300/205
f 299/346/218 300/347/168 168/321/168 170/325/167
f 300/347/168 301/348/173 166/313/173 168/321/168
f 301/348/173 302/349/207 164/305/207 166/313/173
f 302/349/207 303/350/219 162/306/208 164/305/207
f 303/350/219 304/351/216 200/327/216 162/306/208
f 304/352/216 305/353/160 198/285/160 200/331/216
f 305/353/160 306/332/192 196/286/192 198/285/160
f 183/279/197 336/6/3 323/354/220 185/267/185
f 355/355/160 217/356/221 216/357/222 354/358/161
f 354/359/161 216/360/222 215/361/223 353/362/219
f 353/362/219 215/361/223 214/363/224 352/364/187
f 352/364/187 214/363/224 213/365/225 351/366/173
f 351/366/173 213/365/225 212/367/226 350/368/227
f 350/368/227 212/367/226 211/369/228 349/370/166
f 349/371/166 211/372/228 210/373/229 348/374/170
f 348/374/170 210/373/229 209/375/230 347/376/204
f 347/376/204 209/375/230 208/377/231 346/378/177
f 346/378/177 208/377/231 207/379/232 345/380/174
f 345/380/174 207/379/232 206/381/233 344/382/234
f 343/383/235 205/384/236 204/385/237 342/386/178
f 342/387/178 204/388/237 203/389/238 341/390/199
f 341/390/199 203/389/238 202/391/239 340/392/195
f 252/393/240 236/394/241 235/395/192 234/396/242
f 251/397/243 252/393/240 234/396/242 233/398/244
f 250/399/245 251/400/243 233/401/244 232/402/246
f 249/403/247 250/399/245 232/402/246 231/404/207
f 248/405/248 249/403/247 231/404/207 230/406/249
f 247/407/250 248/405/248 230/406/249 229/408/251
f 246/409/252 247/407/250 229/408/251 228/410/166
f 245/411/253 246/412/252 228/413/166 227/414/205
f 244/415/254 245/411/253 227/414/205 226/416/255
f 243/417/256 244/415/254 226/416/255 225/418/257
f 242/419/258 243/417/256 225/418/257 224/420/259
f 238/421/260 239/422/261 221/423/262 220/424/263
f 237/425/264 238/421/260 220/424/263 219/426/265
f 236/394/241 237/425/264 219/426/265 235/395/192
f 218/427/266 202/391/239 237/425/264 236/394/241
f 202/391/239 203/389/238 238/421/260 237/425/264
f 203/389/238 204/388/237 239/422/261 238/421/260
f 204/385/237 205/384/236 240/428/267 239/429/261
f 206/381/233 207/379/232 242/419/258 241/430/268
f 207/379/232 208/377/231 243/417/256 242/419/258
f 208/377/231 209/375/230 244/415/254 243/417/256
f 209/375/230 210/373/229 245/411/253 244/415/254
f 210/373/229 211/372/228 246/412/252 245/411/253
f 211/369/228 212/367/226 247/407/250 246/409/252
f 212/367/226 213/365/225 248/405/248 247/407/250
f 213/365/225 214/363/224 249/403/247 248/405/248
f 214/363/224 215/361/223 250/399/245 249/403/247
f 215/361/223 216/360/222 251/400/243 250/399/245
f 216/357/222 217/356/221 252/393/240 251/397/243
f 217/356/221 218/427/266 236/394/241 252/393/240
f 234/396/242 235/395/192 269/431/269 268/432/270
f 233/398/244 234/396/242 268/432/270 267/433/271
f 232/402/246 233/401/244 267/434/271 266/435/272
f 231/404/207 232/402/246 266/435/272 265/436/273
f 230/406/249 231/404/207 265/436/273 264/437/274
f 229/408/251 230/406/249 264/437/274 263/438/275
f 228/410/166 229/408/251 263/438/275 262/439/276
f 227/414/205 228/413/166 262/440/276 261/441/277
f 226/416/255 227/414/205 261/441/277 260/442/278
f 225/418/257 226/416/255 260/442/278 259/443/279
f 224/420/259 225/418/257 259/443/279 258/444/280
f 220/424/263 221/423/262 255/445/281 254/446/282
f 219/426/265 220/424/263 254/446/282 253/447/283
f 235/395/192 219/426/265 253/447/283 269/431/269
f 268/432/270 269/431/269 286/448/284 285/449/285
f 267/433/271 268/432/270 285/449/285 284/450/286
f 266/435/272 267/434/271 284/451/286 283/452/287
f 265/436/273 266/435/272 283/452/287 282/453/273
f 264/437/274 265/436/273 282/453/273 281/454/288
f 263/438/275 264/437/274 281/454/288 280/455/289
f 262/439/276 263/438/275 280/455/289 279/456/290
f 261/441/277 262/440/276 279/457/290 278/458/291
f 260/442/278 261/441/277 278/458/291 277/459/292
f 259/443/279 260/442/278 277/459/292 276/460/293
f 258/444/280 259/443/279 276/460/293 275/461/294
f 257/462/295 258/444/280 275/461/294 274/463/44
f 255/464/281 256/465/296 273/77/55 272/466/297
f 254/446/282 255/445/281 272/467/297 271/468/298
f 253/447/283 254/446/282 271/468/298 270/469/299
f 269/431/269 253/447/283 270/469/299 286/448/284
f 329/79/57 330/470/300 292/337/217 291/80/58
f 285/449/285 305/353/160 304/352/216 284/450/286
f 284/451/286 304/351/216 303/350/219 283/452/287
f 283/452/287 303/350/219 302/349/207 282/453/273
f 282/453/273 302/349/207 301/348/173 281/454/288
f 281/454/288 301/348/173 300/347/168 280/455/289
f 280/455/289 300/347/168 299/346/218 279/456/290
f 279/457/290 299/345/218 298/344/205 278/458/291
f 278/458/291 298/344/205 297/343/204 277/459/292
f 277/459/292 297/343/204 296/342/177 276/460/293
f 276/460/293 296/342/177 295/341/174 275/461/294
f 275/461/294 295/341/174 294/340/40 274/463/44
f 273/77/55 290/76/54 289/336/178 272/466/297
f 272/467/297 289/335/178 288/334/199 271/468/298
f 271/468/298 288/334/199 287/333/195 270/469/299
f 340/392/195 202/391/239 218/427/266 339/471/192
f 270/469/299 287/333/195 306/332/192 286/448/284
f 308/12/9 324/11/8 323/354/220 307/472/301
f 324/11/8 325/10/7 205/384/236 343/383/235
f 310/473/302 326/474/303 325/10/7 309/9/6
f 311/475/304 222/476/305 326/474/303 310/473/302
f 312/477/306 327/478/307 222/476/305 311/475/304
f 313/479/308 328/78/56 327/478/307 312/477/306
f 290/76/54 291/80/58 186/315/212 188/318/213
f 315/480/309 330/470/300 329/79/57 314/481/310
f 316/482/311 331/61/42 330/470/300 315/480/309
f 293/60/41 294/59/40 180/338/210 182/296/202
f 318/483/312 333/484/313 332/62/43 317/485/314
f 319/486/315 223/487/316 333/484/313 318/483/312
f 320/488/317 334/489/318 223/487/316 319/486/315
f 321/8/5 335/7/4 334/489/318 320/488/317
f 307/472/301 323/354/220 336/6/3 322/5/2
f 273/77/55 256/465/296 327/478/307 328/78/56
f 240/428/267 205/384/236 325/10/7 326/474/303
f 344/490/234 336/6/3 183/279/197 181/491/188
f 183/279/197 151/278/196 152/492/189 181/491/188
f 323/354/220 324/11/8 187/264/182 185/267/185
f 206/493/233 241/494/268 334/489/318 335/7/4
f 257/495/295 274/63/44 332/62/43 333/484/313
f 189/263/181 148/262/180 149/265/183 187/264/182
f 314/481/310 329/79/57 328/78/56 313/479/308
f 330/470/300 331/61/42 293/60/41 292/337/217
f 221/496/262 239/429/261 240/428/267 338/497/319
f 338/497/319 222/476/305 327/478/307 256/465/296
f 224/420/259 258/444/280 257/462/295 337/498/320
f 223/499/316 334/500/318 241/430/268 337/498/320
f 242/419/258 224/420/259 337/498/320 241/430/268
f 333/501/313 223/499/316 337/498/320 257/462/295
f 240/428/267 326/474/303 222/476/305 338/497/319
f 255/464/281 221/496/262 338/497/319 256/465/296
f 286/448/284 306/332/192 305/353/160 285/449/285
f 339/471/192 218/427/266 217/356/221 355/355/160
f 317/485/314 332/62/43 331/61/42 316/482/311
f 197/274/192 339/471/192 355/355/160 199/238/160
f 195/277/195 340/392/195 339/471/192 197/274/192
f 193/281/199 341/390/199 340/392/195 195/277/195
f 191/283/178 342/387/178 341/390/199 193/281/199
f 189/263/181 343/383/235 342/386/178 191/260/178
f 179/256/174 345/380/174 344/382/234 181/270/188
f 177/259/177 346/378/177 345/380/174 179/256/174
f 175/273/191 347/376/204 346/378/177 177/259/177
f 173/250/170 348/374/170 347/376/204 175/273/191
f 171/253/166 349/371/166 348/374/170 173/250/170
f 169/249/169 350/368/227 349/370/166 171/246/166
f 167/255/173 351/366/173 350/368/227 169/249/169
f 165/269/187 352/364/187 351/366/173 167/255/173
f 163/243/164 353/362/219 352/364/187 165/269/187
f 201/242/161 354/359/161 353/362/219 163/243/164
f 199/238/160 355/355/160 354/358/161 201/239/161
f 187/264/182 324/11/8 343/383/235 189/263/181
f 206/493/233 335/7/4 336/6/3 344/490/234
f 373/502/2 387/503/321 386/504/322 372/505/5
f 360/506/6 376/507/323 375/508/324 359/509/9
f 359/509/9 375/508/324 374/510/220 358/511/301
f 361/512/302 377/513/325 376/507/323 360/506/6
f 362/514/304 356/515/326 377/513/325 361/512/302
f 363/516/306 378/517/327 356/515/326 362/514/304
f 364/518/308 379/519/328 378/517/327 363/516/306
f 366/520/309 381/521/329 380/522/330 365/523/310
f 367/524/311 382/525/331 381/521/329 366/520/309
f 369/526/312 384/527/332 383/528/333 368/529/314
f 370/530/315 357/531/334 384/527/332 369/526/312
f 371/532/317 385/533/335 357/531/334 370/530/315
f 372/505/5 386/504/322 385/533/335 371/532/317
f 358/511/301 374/510/220 387/503/321 373/502/2
f 365/523/310 380/522/330 379/519/328 364/518/308
f 368/529/314 383/528/333 382/525/331 367/524/311
f 408/534/167 392/535/167 391/536/336 407/537/336
f 409/538/206 393/539/206 392/540/167 408/541/167
f 407/537/336 391/536/336 390/542/173 406/543/173
f 412/544/174 396/545/174 395/546/177 411/547/177
f 415/548/178 399/549/178 398/550/337 414/551/338
f 406/543/173 390/542/173 389/552/207 405/553/207
f 413/554/339 397/555/340 396/545/174 412/544/174
f 405/553/207 389/552/207 388/556/219 404/557/219
f 411/547/177 395/546/177 394/558/204 410/559/204
f 418/560/192 402/561/192 401/562/195 417/563/195
f 410/559/204 394/558/204 393/539/206 409/538/206
f 417/563/195 401/562/195 400/564/199 416/565/199
f 416/565/199 400/564/199 399/566/178 415/567/178
f 419/568/160 403/569/160 402/561/192 418/560/192
f 435/570/160 419/568/160 418/560/192 434/571/192
f 432/572/199 416/565/199 415/567/178 431/573/178
f 433/574/195 417/563/195 416/565/199 432/572/199
f 426/575/204 410/559/204 409/538/206 425/576/206
f 434/571/192 418/560/192 417/563/195 433/574/195
f 427/577/177 411/547/177 410/559/204 426/575/204
f 421/578/207 405/553/207 404/557/219 420/579/219
f 429/580/341 413/554/339 412/544/174 428/581/174
f 422/582/173 406/543/173 405/553/207 421/578/207
f 431/583/178 415/548/178 414/551/338 430/584/342
f 428/581/174 412/544/174 411/547/177 427/577/177
f 423/585/336 407/537/336 406/543/173 422/582/173
f 425/576/206 409/538/206 408/541/167 424/586/167
f 424/587/167 408/534/167 407/537/336 423/585/336
f 440/588/167 424/587/167 423/585/336 439/589/336
f 441/590/206 425/576/206 424/586/167 440/591/167
f 439/589/336 423/585/336 422/582/173 438/592/173
f 444/593/174 428/581/174 427/577/177 443/594/177
f 447/595/178 431/583/178 430/584/342 446/596/343
f 438/592/173 422/582/173 421/578/207 437/597/207
f 445/598/344 429/580/341 428/581/174 444/593/174
f 437/597/207 421/578/207 420/579/219 436/599/219
f 443/594/177 427/577/177 426/575/204 442/600/204
f 450/601/192 434/571/192 433/574/195 449/602/195
f 442/600/204 426/575/204 425/576/206 441/590/206
f 449/602/195 433/574/195 432/572/199 448/603/199
f 448/603/199 432/572/199 431/573/178 447/604/178
f 451/605/160 435/570/160 434/571/192 450/601/192
f 545/606/160 451/605/160 450/601/192 544/607/192
f 542/608/199 448/603/199 447/604/178 541/609/178
f 543/610/195 449/602/195 448/603/199 542/608/199
f 536/611/204 442/600/204 441/590/206 535/612/206
f 544/607/192 450/601/192 449/602/195 543/610/195
f 537/613/177 443/594/177 442/600/204 536/611/204
f 531/614/207 437/597/207 436/599/219 530/615/219
f 539/616/345 445/598/344 444/593/174 538/617/174
f 532/618/173 438/592/173 437/597/207 531/614/207
f 541/619/178 447/595/178 446/596/343 540/620/346
f 538/617/174 444/593/174 443/594/177 537/613/177
f 533/621/336 439/589/336 438/592/173 532/618/173
f 535/612/206 441/590/206 440/591/167 534/622/167
f 534/623/167 440/588/167 439/589/336 533/621/336
f 49/71/50 462/624/347 461/625/348 46/162/39
f 58/90/64 465/626/349 464/627/350 55/75/53
f 31/34/24 456/628/167 455/629/336 28/30/21
f 34/39/27 457/630/206 456/631/167 31/40/24
f 28/30/21 455/629/336 454/632/173 25/24/18
f 43/54/36 460/633/174 459/634/177 40/48/33
f 61/89/63 466/635/178 465/626/349 58/90/64
f 55/75/53 464/627/350 463/636/351 52/70/49
f 25/24/18 454/632/173 453/637/207 22/13/10
f 46/58/39 461/638/348 460/633/174 43/54/36
f 22/13/10 453/637/207 452/639/219 78/14/11
f 40/48/33 459/634/177 458/640/204 37/44/30
f 70/102/73 469/641/192 468/642/195 67/97/69
f 37/44/30 458/640/204 457/630/206 34/39/27
f 52/70/49 463/636/351 462/624/347 49/71/50
f 67/97/69 468/642/195 467/643/199 64/98/70
f 64/98/70 467/643/199 466/644/178 61/186/63
f 73/108/76 470/645/160 469/641/192 70/102/73
f 517/646/167 475/324/167 474/320/168 516/647/336
f 518/648/206 476/301/206 475/323/167 517/649/167
f 516/647/336 474/320/168 473/312/173 515/650/173
f 521/651/174 479/311/174 478/302/177 520/652/177
f 524/653/200 485/316/200 484/319/214 523/654/352
f 515/650/173 473/312/173 472/304/207 514/655/207
f 522/656/353 480/308/209 479/311/174 521/651/174
f 514/655/207 472/304/207 471/307/208 513/657/208
f 520/652/177 478/302/177 477/298/204 519/658/204
f 527/659/192 488/287/192 487/292/195 526/660/195
f 519/658/204 477/298/204 476/301/206 518/648/206
f 526/660/195 487/292/195 486/288/199 525/661/199
f 525/661/199 486/288/199 485/291/200 524/662/200
f 403/569/160 505/663/160 504/664/192 402/561/192
f 400/564/199 502/665/199 501/666/200 399/566/178
f 401/562/195 503/667/195 502/665/199 400/564/199
f 394/558/204 496/668/204 495/669/206 393/539/206
f 402/561/192 504/664/192 503/667/195 401/562/195
f 395/546/177 497/670/177 496/668/204 394/558/204
f 389/552/207 491/671/207 490/672/208 388/556/219
f 397/555/340 499/673/354 498/674/174 396/545/174
f 390/542/173 492/675/173 491/671/207 389/552/207
f 399/549/178 501/676/200 500/677/355 398/550/337
f 396/545/174 498/674/174 497/670/177 395/546/177
f 391/536/336 493/678/336 492/675/173 390/542/173
f 393/539/206 495/669/206 494/679/167 392/540/167
f 392/535/167 494/680/167 493/678/336 391/536/336
f 528/681/160 489/284/160 488/287/192 527/659/192
f 374/510/220 375/508/324 483/314/211 482/294/185
f 375/508/324 376/507/323 500/677/355 523/654/352
f 376/507/323 377/513/325 398/550/337 500/677/355
f 377/513/325 356/515/326 414/551/338 398/550/337
f 356/515/326 378/517/327 430/584/342 414/551/338
f 378/517/327 379/519/328 446/596/343 430/584/342
f 380/522/330 464/627/350 465/626/349 540/620/346
f 381/521/329 463/636/351 464/627/350 380/522/330
f 382/525/331 462/624/347 463/636/351 381/521/329
f 382/525/331 539/682/345 461/625/348 462/624/347
f 384/527/332 429/683/341 445/684/344 383/528/333
f 357/531/334 413/685/339 429/683/341 384/527/332
f 385/533/335 397/686/340 413/685/339 357/531/334
f 386/504/322 499/687/354 397/686/340 385/533/335
f 387/503/321 481/297/203 480/339/209 522/688/353
f 387/503/321 374/510/220 482/294/185 481/297/203
f 403/569/160 508/689/215 506/690/215 505/663/160
f 508/691/215 388/556/219 490/672/208 506/692/215
f 528/681/160 529/693/215 507/329/215 489/284/160
f 529/694/215 513/657/208 471/307/208 507/326/215
f 419/568/160 509/695/215 508/689/215 403/569/160
f 509/696/215 404/557/219 388/556/219 508/691/215
f 435/570/160 510/697/215 509/695/215 419/568/160
f 510/698/215 420/579/219 404/557/219 509/696/215
f 451/605/160 511/699/215 510/697/215 435/570/160
f 511/700/215 436/599/219 420/579/219 510/698/215
f 545/606/160 546/701/215 511/699/215 451/605/160
f 546/702/215 530/615/219 436/599/219 511/700/215
f 73/108/76 76/112/79 512/703/215 470/645/160
f 76/114/79 78/14/11 452/639/219 512/704/215
f 506/692/215 490/672/208 513/657/208 529/694/215
f 505/663/160 506/690/215 529/693/215 528/681/160
f 505/663/160 528/681/160 527/659/192 504/664/192
f 502/665/199 525/661/199 524/662/200 501/666/200
f 503/667/195 526/660/195 525/661/199 502/665/199
f 496/668/204 519/658/204 518/648/206 495/669/206
f 504/664/192 527/659/192 526/660/195 503/667/195
f 497/670/177 520/652/177 519/658/204 496/668/204
f 491/671/207 514/655/207 513/657/208 490/672/208
f 499/673/354 522/656/353 521/651/174 498/674/174
f 492/675/173 515/650/173 514/655/207 491/671/207
f 501/676/200 524/653/200 523/654/352 500/677/355
f 498/674/174 521/651/174 520/652/177 497/670/177
f 493/678/336 516/647/336 515/650/173 492/675/173
f 495/669/206 518/648/206 517/649/167 494/679/167
f 494/680/167 517/646/167 516/647/336 493/678/336
f 512/704/215 452/639/219 530/615/219 546/702/215
f 470/645/160 512/703/215 546/701/215 545/606/160
f 456/628/167 534/623/167 533/621/336 455/629/336
f 457/630/206 535/612/206 534/622/167 456/631/167
f 455/629/336 533/621/336 532/618/173 454/632/173
f 460/633/174 538/617/174 537/613/177 459/634/177
f 466/635/178 541/619/178 540/620/346 465/626/349
f 454/632/173 532/618/173 531/614/207 453/637/207
f 461/638/348 539/616/345 538/617/174 460/633/174
f 453/637/207 531/614/207 530/615/219 452/639/219
f 459/634/177 537/613/177 536/611/204 458/640/204
f 469/641/192 544/607/192 543/610/195 468/642/195
f 458/640/204 536/611/204 535/612/206 457/630/206
f 468/642/195 543/610/195 542/608/199 467/643/199
f 467/643/199 542/608/199 541/609/178 466/644/178
f 470/645/160 545/606/160 544/607/192 469/641/192
f 383/528/333 445/684/344 539/682/345 382/525/331
f 379/519/328 380/522/330 540/620/346 446/596/343
f 483/314/211 375/508/324 523/654/352 484/319/214
f 386/504/322 387/503/321 522/688/353 499/687/354
f 20/705/1 1/706/1 547/707/1 548/708/1
f 1/706/1 2/709/1 549/710/1 547/707/1
f 2/709/1 3/711/1 550/712/1 549/710/1
f 3/711/1 4/713/1 551/714/1 550/712/1
f 4/713/1 5/715/1 552/716/1 551/714/1
f 5/715/1 6/717/1 553/718/1 552/716/1
f 6/717/1 7/719/1 554/720/1 553/718/1
f 7/719/1 8/721/1 555/722/1 554/720/1
f 8/721/1 9/723/1 556/724/1 555/722/1
f 10/725/1 11/726/1 558/727/1 557/728/1
f 11/726/1 12/729/1 559/730/1 558/727/1
f 13/4/1 14/3/1 561/731/1 560/732/1
f 15/2/1 16/733/1 563/734/1 562/735/1
f 16/733/1 17/736/1 564/737/1 563/734/1
f 17/736/1 18/738/1 565/739/1 564/737/1
f 18/738/1 19/740/1 566/741/1 565/739/1
f 19/740/1 20/705/1 548/708/1 566/741/1
f 14/3/1 15/2/1 562/735/1 561/731/1
f 9/723/1 10/725/1 557/728/1 556/724/1
f 12/729/1 13/4/1 560/732/1 559/730/1
f 572/742/1 571/743/1 7/719/1 6/717/1
f 581/744/1 580/745/1 12/729/1 11/726/1
f 575/746/1 18/738/1 17/736/1 574/747/1
f 576/748/1 575/746/1 568/749/1 577/750/1
f 578/751/1 572/742/1 6/717/1 5/715/1
f 574/747/1 17/736/1 16/733/1 573/752/1
f 571/743/1 567/753/1 569/754/1 570/755/1
f 568/749/1 567/753/1 571/743/1 572/742/1
f 7/719/1 571/743/1 570/755/1 8/721/1
f 9/723/1 581/744/1 11/726/1 10/725/1
f 577/750/1 568/749/1 572/742/1 578/751/1
f 568/749/1 575/746/1 574/747/1 567/753/1
f 567/753/1 574/747/1 573/752/1 569/754/1
f 580/745/1 579/1/1 13/4/1 12/729/1
f 19/740/1 18/738/1 575/746/1 576/748/1
f 2/709/1 577/750/1 578/751/1 3/711/1
f 1/706/1 576/748/1 577/750/1 2/709/1
f 20/705/1 19/740/1 576/748/1 1/706/1
f 3/711/1 578/751/1 5/715/1 4/713/1
f 570/755/1 569/754/1 580/745/1 581/744/1
f 569/754/1 573/752/1 579/1/1 580/745/1
f 573/752/1 16/733/1 15/2/1 579/1/1
f 8/721/1 570/755/1 581/744/1 9/723/1
