# Blender 4.2.4 LTS
# www.blender.org
mtllib FenceTop.mtl
o Pole.001
v -0.000979 8.289548 0.074825
v 0.057439 8.289548 0.046040
v 0.071701 8.289548 0.004068
v 0.068488 8.289548 -0.018141
v 0.058569 8.289548 -0.038270
v 0.042915 8.289548 -0.054349
v 0.023059 8.289548 -0.064804
v -0.057474 8.289548 -0.039826
v -0.042950 8.289548 0.060563
v 0.000139 8.006622 0.147949
v 0.044890 8.006622 0.140811
v 0.085245 8.006622 0.120194
v 0.117254 8.006622 0.088116
v 0.137784 8.006622 0.047717
v 0.144825 8.006620 0.002950
v 0.137687 8.006622 -0.041800
v 0.117070 8.006622 -0.082155
v 0.084992 8.006622 -0.114164
v 0.044593 8.006622 -0.134694
v -0.000030 8.006622 -0.141735
v -0.044924 8.006620 -0.134597
v -0.085279 8.006620 -0.113980
v -0.117288 8.006620 -0.081902
v -0.137818 8.006622 -0.041503
v -0.144859 8.006622 0.003264
v -0.137721 8.006622 0.048014
v -0.117104 8.006622 0.088369
v -0.085026 8.006622 0.120378
v -0.044627 8.006622 0.140908
v 0.021231 8.289548 0.071612
v 0.041360 8.289548 0.061693
v 0.067894 8.289548 0.026183
v 0.000944 8.289548 -0.068611
v -0.021265 8.289548 -0.065398
v -0.041395 8.289548 -0.055479
v -0.067929 8.289548 -0.019969
v -0.071736 8.289548 0.002146
v -0.068523 8.289548 0.024355
v -0.058604 8.289548 0.044484
v -0.023094 8.289548 0.071018
v 0.000207 7.025485 0.210711
v -0.000224 7.016439 0.194960
v 0.064349 7.025485 0.200481
v 0.059072 7.016438 0.185634
v 0.122191 7.025485 0.170930
v 0.112584 7.016439 0.158441
v 0.168070 7.025485 0.124952
v 0.155074 7.016439 0.116043
v 0.197495 7.025485 0.067047
v 0.182382 7.016439 0.062590
v 0.207587 7.025485 0.002883
v 0.191836 7.016438 0.003314
v 0.197357 7.025485 -0.061259
v 0.182510 7.016439 -0.055982
v 0.167806 7.025485 -0.119101
v 0.155317 7.016438 -0.109494
v 0.121828 7.025485 -0.164980
v 0.112919 7.016439 -0.151984
v 0.063923 7.025485 -0.194405
v 0.059466 7.016438 -0.179292
v -0.000030 7.025485 -0.204497
v -0.000030 7.016438 -0.188746
v -0.064383 7.025485 -0.194266
v -0.059106 7.016439 -0.179420
v -0.122225 7.025485 -0.164716
v -0.112618 7.016438 -0.152227
v -0.168104 7.025485 -0.118738
v -0.155107 7.016438 -0.109829
v -0.197529 7.025485 -0.060833
v -0.182416 7.016438 -0.056376
v -0.207621 7.025485 0.003331
v -0.191870 7.016438 0.002900
v -0.197390 7.025485 0.067473
v -0.182544 7.016438 0.062196
v -0.167840 7.025485 0.125315
v -0.155351 7.016439 0.115708
v -0.121862 7.025485 0.171194
v -0.112953 7.016439 0.158197
v -0.063957 7.025485 0.200619
v -0.059500 7.016439 0.185506
v 0.000682 7.096852 0.649751
v 0.000709 7.126191 0.675115
v -0.000735 7.107153 0.667686
v 0.200471 7.096852 0.617886
v 0.208335 7.126191 0.642001
v 0.204667 7.107153 0.635381
v 0.380636 7.096852 0.525842
v 0.395567 7.126191 0.546347
v 0.390032 7.107153 0.541185
v 0.523539 7.096852 0.382630
v 0.544076 7.126191 0.397516
v 0.537217 7.107153 0.394317
v 0.615193 7.096852 0.202267
v 0.639325 7.126191 0.210079
v 0.631813 7.107153 0.209156
v 0.646626 7.096852 0.002409
v 0.671991 7.126191 0.002381
v 0.664562 7.107153 0.003825
v 0.614762 7.096852 -0.197381
v 0.638876 7.126191 -0.205245
v 0.632257 7.107153 -0.201577
v 0.522718 7.096852 -0.377545
v 0.543222 7.126191 -0.392477
v 0.538061 7.107153 -0.386942
v 0.379505 7.096852 -0.520449
v 0.394392 7.126191 -0.540986
v 0.391193 7.107153 -0.534127
v 0.199142 7.096852 -0.612103
v 0.206955 7.126191 -0.636235
v 0.206032 7.107153 -0.628724
v -0.000030 7.096852 -0.643536
v -0.000030 7.126191 -0.668901
v -0.000030 7.107153 -0.661472
v -0.200505 7.096852 -0.611671
v -0.208369 7.126192 -0.635787
v -0.204701 7.107153 -0.629167
v -0.380670 7.096852 -0.519628
v -0.395601 7.126191 -0.540133
v -0.390066 7.107153 -0.534971
v -0.523573 7.096852 -0.376415
v -0.544110 7.126191 -0.391302
v -0.537251 7.107153 -0.388103
v -0.615227 7.096852 -0.196052
v -0.639359 7.126191 -0.203865
v -0.631848 7.107153 -0.202942
v -0.646661 7.096852 0.003806
v -0.672025 7.126191 0.003833
v -0.664596 7.107153 0.002389
v -0.614796 7.096852 0.203596
v -0.638911 7.126191 0.211459
v -0.632291 7.107153 0.207791
v -0.522752 7.096852 0.383760
v -0.543257 7.126191 0.398691
v -0.538095 7.107153 0.393156
v -0.379539 7.096852 0.526663
v -0.394426 7.126191 0.547200
v -0.391227 7.107153 0.540341
v -0.206988 7.126191 0.642450
v -0.199176 7.096852 0.618318
v -0.206066 7.107153 0.634937
v 0.000709 7.174649 0.675115
v 0.000686 7.214106 0.653896
v 0.000702 7.196650 0.668901
v 0.208335 7.174649 0.642001
v 0.201757 7.214106 0.621827
v 0.206409 7.196650 0.636092
v 0.395567 7.174649 0.546347
v 0.383076 7.214106 0.529193
v 0.391908 7.196650 0.541323
v 0.544076 7.174649 0.397516
v 0.526896 7.214106 0.385063
v 0.539044 7.196650 0.393869
v 0.639325 7.174649 0.210079
v 0.619138 7.214106 0.203543
v 0.633412 7.196650 0.208165
v 0.671991 7.174649 0.002381
v 0.650772 7.214106 0.002404
v 0.665776 7.196650 0.002388
v 0.638876 7.174649 -0.205245
v 0.618703 7.214106 -0.198667
v 0.632968 7.196650 -0.203319
v 0.543222 7.174649 -0.392477
v 0.526069 7.214106 -0.379986
v 0.538198 7.196650 -0.388818
v 0.394392 7.174649 -0.540986
v 0.381939 7.214106 -0.523806
v 0.390745 7.196650 -0.535954
v 0.206955 7.174649 -0.636235
v 0.200419 7.214106 -0.616048
v 0.205040 7.196650 -0.630322
v -0.000030 7.174649 -0.668901
v -0.000030 7.214106 -0.647682
v -0.000030 7.196650 -0.662686
v -0.208369 7.174649 -0.635787
v -0.201791 7.214106 -0.615613
v -0.206443 7.196650 -0.629878
v -0.395601 7.174649 -0.540133
v -0.383110 7.214106 -0.522979
v -0.391942 7.196650 -0.535108
v -0.544110 7.174649 -0.391302
v -0.526930 7.214106 -0.378849
v -0.539078 7.196650 -0.387655
v -0.639359 7.174649 -0.203865
v -0.619172 7.214106 -0.197329
v -0.633446 7.196650 -0.201950
v -0.672025 7.174649 0.003833
v -0.650806 7.214106 0.003810
v -0.665810 7.196650 0.003826
v -0.638911 7.174649 0.211459
v -0.618737 7.214106 0.204881
v -0.633002 7.196650 0.209533
v -0.543257 7.174649 0.398691
v -0.526103 7.214106 0.386200
v -0.538232 7.196650 0.395033
v -0.394426 7.174649 0.547200
v -0.381973 7.214106 0.530020
v -0.390779 7.196650 0.542168
v -0.200453 7.214106 0.622262
v -0.206988 7.174649 0.642449
v -0.205074 7.196650 0.636537
v 0.000525 7.314277 0.504631
v 0.000380 7.438347 0.370786
v 0.155478 7.314277 0.479917
v 0.113980 7.438347 0.352668
v 0.295210 7.314277 0.408530
v 0.216421 7.438347 0.300333
v 0.406043 7.314277 0.297457
v 0.297675 7.438347 0.218902
v 0.477128 7.314277 0.157571
v 0.349790 7.438347 0.116349
v 0.501507 7.314277 0.002565
v 0.367662 7.438347 0.002710
v 0.476793 7.314277 -0.152388
v 0.349544 7.438347 -0.110890
v 0.405406 7.314277 -0.292120
v 0.297208 7.438347 -0.213331
v 0.294333 7.314277 -0.402953
v 0.215778 7.438347 -0.294585
v 0.154447 7.314277 -0.474038
v 0.113224 7.438347 -0.346700
v -0.000030 7.314277 -0.498417
v -0.000030 7.438347 -0.364572
v -0.155512 7.314277 -0.473703
v -0.114014 7.438347 -0.346454
v -0.295244 7.314277 -0.402316
v -0.216455 7.438347 -0.294118
v -0.406077 7.314277 -0.291243
v -0.297709 7.438347 -0.212688
v -0.477162 7.314277 -0.151357
v -0.349824 7.438347 -0.110134
v -0.501541 7.314277 0.003649
v -0.367696 7.438347 0.003504
v -0.476827 7.314277 0.158602
v -0.349578 7.438347 0.117104
v -0.405440 7.314277 0.298334
v -0.297242 7.438347 0.219545
v -0.294367 7.314277 0.409167
v -0.215812 7.438347 0.300799
v -0.113258 7.438347 0.352914
v -0.154481 7.314277 0.480252
v 0.000329 7.499257 0.322936
v 0.000241 7.660048 0.242045
v 0.099144 7.499257 0.307176
v 0.074064 7.660048 0.230271
v 0.188253 7.499257 0.261651
v 0.140636 7.660049 0.196260
v 0.258933 7.499257 0.190818
v 0.193439 7.660048 0.143342
v 0.304265 7.499257 0.101611
v 0.227306 7.660048 0.076697
v 0.319812 7.499257 0.002762
v 0.238921 7.660049 0.002849
v 0.304052 7.499257 -0.096054
v 0.227146 7.660048 -0.070974
v 0.258527 7.499257 -0.185163
v 0.193136 7.660049 -0.137546
v 0.187694 7.499257 -0.255843
v 0.140218 7.660048 -0.190349
v 0.098487 7.499257 -0.301175
v 0.073573 7.660048 -0.224216
v -0.000030 7.499257 -0.316722
v -0.000030 7.660049 -0.235831
v -0.099178 7.499257 -0.300962
v -0.074098 7.660049 -0.224056
v -0.188287 7.499257 -0.255437
v -0.140670 7.660049 -0.190046
v -0.258967 7.499257 -0.184604
v -0.193473 7.660049 -0.137128
v -0.304299 7.499257 -0.095397
v -0.227340 7.660048 -0.070483
v -0.319846 7.499257 0.003453
v -0.238955 7.660049 0.003365
v -0.304086 7.499257 0.102268
v -0.227180 7.660048 0.077188
v -0.258561 7.499257 0.191378
v -0.193170 7.660049 0.143760
v -0.187728 7.499257 0.262057
v -0.140252 7.660049 0.196563
v -0.073607 7.660048 0.230430
v -0.098521 7.499257 0.307389
v 0.000161 8.049046 0.168265
v 0.000177 8.112325 0.182662
v 0.051189 8.049046 0.160126
v 0.055653 8.112325 0.173814
v 0.097205 8.049046 0.136617
v 0.105679 8.112325 0.148256
v 0.133703 8.049046 0.100040
v 0.145360 8.112325 0.108490
v 0.157112 8.049046 0.053974
v 0.170810 8.112325 0.058408
v 0.165141 8.049046 0.002929
v 0.179538 8.112325 0.002913
v 0.157002 8.049046 -0.048099
v 0.170690 8.112325 -0.052563
v 0.133493 8.049046 -0.094115
v 0.145132 8.112325 -0.102589
v 0.096916 8.049046 -0.130613
v 0.105366 8.112325 -0.142270
v 0.050850 8.049046 -0.154022
v 0.055284 8.112325 -0.167720
v -0.000030 8.049046 -0.162051
v -0.000030 8.112325 -0.176448
v -0.051223 8.049046 -0.153912
v -0.055687 8.112325 -0.167600
v -0.097239 8.049046 -0.130403
v -0.105713 8.112325 -0.142042
v -0.133737 8.049046 -0.093826
v -0.145394 8.112325 -0.102275
v -0.157146 8.049046 -0.047760
v -0.170843 8.112325 -0.052194
v -0.165175 8.049046 0.003286
v -0.179572 8.112325 0.003301
v -0.157036 8.049046 0.054313
v -0.170724 8.112325 0.058777
v -0.133527 8.049046 0.100329
v -0.145166 8.112325 0.108803
v -0.096950 8.049046 0.136827
v -0.105400 8.112325 0.148484
v -0.055318 8.112325 0.173934
v -0.050884 8.049046 0.160236
v 0.000177 8.141275 0.182662
v 0.000154 8.200086 0.161078
v 0.055653 8.141275 0.173814
v 0.048961 8.200086 0.153293
v 0.105679 8.141275 0.148256
v 0.092974 8.200086 0.130807
v 0.145360 8.141275 0.108490
v 0.127884 8.200086 0.095822
v 0.170810 8.141275 0.058408
v 0.150275 8.200086 0.051760
v 0.179538 8.141275 0.002913
v 0.157954 8.200086 0.002936
v 0.170690 8.141275 -0.052563
v 0.150169 8.200086 -0.045871
v 0.145132 8.141275 -0.102589
v 0.127684 8.200086 -0.089884
v 0.105366 8.141275 -0.142270
v 0.092698 8.200086 -0.124794
v 0.055284 8.141275 -0.167720
v 0.048636 8.200086 -0.147185
v -0.000030 8.141275 -0.176447
v -0.000030 8.200086 -0.154864
v -0.055687 8.141275 -0.167600
v -0.048995 8.200086 -0.147079
v -0.105713 8.141275 -0.142042
v -0.093008 8.200086 -0.124594
v -0.145394 8.141275 -0.102275
v -0.127918 8.200086 -0.089608
v -0.170843 8.141275 -0.052194
v -0.150309 8.200086 -0.045546
v -0.179572 8.141275 0.003301
v -0.157987 8.200086 0.003278
v -0.170724 8.141275 0.058777
v -0.150203 8.200086 0.052085
v -0.145166 8.141275 0.108804
v -0.127717 8.200086 0.096098
v -0.105400 8.141275 0.148484
v -0.092732 8.200086 0.131008
v -0.048670 8.200086 0.153399
v -0.055318 8.141275 0.173934
v 0.042849 8.238792 0.134554
v 0.000132 8.238792 0.141367
v -0.042600 8.238792 0.134646
v 0.081370 8.238792 0.114874
v 0.111925 8.238792 0.084253
v 0.131522 8.238792 0.045690
v 0.138242 8.238792 0.002958
v 0.131429 8.238792 -0.039760
v 0.111749 8.238792 -0.078281
v 0.081129 8.238792 -0.108835
v 0.042565 8.238792 -0.128432
v -0.000167 8.238792 -0.135153
v -0.042884 8.238792 -0.128340
v -0.081406 8.238792 -0.108660
v -0.111960 8.238792 -0.078039
v -0.131557 8.238792 -0.039475
v -0.138278 8.238792 0.003257
v -0.131464 8.238792 0.045974
v -0.111784 8.238792 0.084495
v -0.081164 8.238792 0.115050
v 0.092671 8.277501 0.003207
v 0.088165 8.277501 -0.025440
v 0.075028 8.277501 -0.051293
v 0.054544 8.277501 -0.071821
v 0.028530 8.277501 0.091290
v 0.054382 8.277501 0.078153
v 0.000082 8.277501 -0.089582
v -0.028565 8.277501 -0.085076
v -0.088139 8.277501 -0.025631
v -0.092706 8.277501 0.003007
v -0.088201 8.277501 0.031654
v -0.075063 8.277501 0.057507
v 0.088104 8.277501 0.031845
v 0.074910 8.277501 0.057669
v -0.054580 8.277501 0.078035
v -0.028755 8.277501 0.091228
v -0.000118 8.277501 0.095796
v -0.074946 8.277501 -0.051455
v -0.054418 8.277501 -0.071939
v 0.028720 8.277501 -0.085014
v -0.000016 8.289548 0.003107
v 0.007114 8.289548 -0.017878
v -0.007148 8.289548 0.024093
v -0.013872 8.289548 -0.025010
v -0.021003 8.289548 -0.004024
v -0.028134 8.289548 0.016962
v 0.028099 8.289548 -0.010748
v 0.020968 8.289548 0.010238
v 0.013837 8.289548 0.031224
v -0.034567 8.289548 0.035893
v -0.013581 8.289548 0.043024
v 0.007404 8.289548 0.050155
v -0.007439 8.289548 -0.043941
v 0.013547 8.289548 -0.036810
v 0.034532 8.289548 -0.029679
v 0.000183 6.348271 0.188436
v 0.000258 6.434506 0.257403
v 0.000205 6.402376 0.208636
v 0.057443 6.348271 0.179303
v 0.078826 6.434506 0.244872
v 0.063706 6.402376 0.198508
v 0.109079 6.348271 0.152924
v 0.149677 6.434506 0.208675
v 0.120969 6.402376 0.169253
v 0.150035 6.348271 0.111879
v 0.205874 6.434506 0.152356
v 0.166390 6.402376 0.123734
v 0.176303 6.348271 0.060186
v 0.241918 6.434506 0.081427
v 0.195521 6.402376 0.066407
v 0.185312 6.348271 0.002907
v 0.254279 6.434506 0.002832
v 0.205512 6.402376 0.002885
v 0.176179 6.348271 -0.054353
v 0.241748 6.434506 -0.075736
v 0.195384 6.402376 -0.060616
v 0.149799 6.348271 -0.105988
v 0.205551 6.434506 -0.146587
v 0.166129 6.402376 -0.117880
v 0.108754 6.348271 -0.146944
v 0.149232 6.434506 -0.202785
v 0.120610 6.402376 -0.163300
v 0.057062 6.348271 -0.173213
v 0.078303 6.434506 -0.238828
v 0.063284 6.402376 -0.192431
v -0.000030 6.348271 -0.182222
v -0.000030 6.434506 -0.251189
v -0.000030 6.402376 -0.202422
v -0.057477 6.348271 -0.173089
v -0.078860 6.434506 -0.238658
v -0.063740 6.402376 -0.192294
v -0.109113 6.348271 -0.146709
v -0.149711 6.434506 -0.202462
v -0.121003 6.402376 -0.163039
v -0.150069 6.348271 -0.105664
v -0.205908 6.434506 -0.146142
v -0.166424 6.402376 -0.117520
v -0.176337 6.348271 -0.053972
v -0.241952 6.434506 -0.075214
v -0.195555 6.402376 -0.060194
v -0.185346 6.348271 0.003307
v -0.254313 6.434506 0.003382
v -0.205546 6.402376 0.003329
v -0.176213 6.348271 0.060567
v -0.241782 6.434506 0.081950
v -0.195418 6.402376 0.066830
v -0.149833 6.348271 0.112203
v -0.205585 6.434506 0.152801
v -0.166163 6.402376 0.124093
v -0.108788 6.348271 0.153159
v -0.149266 6.434506 0.208998
v -0.120644 6.402376 0.169514
v -0.078338 6.434506 0.245042
v -0.057096 6.348271 0.179427
v -0.063318 6.402376 0.198645
v 0.000259 6.689540 0.258469
v 0.000183 6.770707 0.188436
v 0.000205 6.718086 0.208948
v 0.079157 6.689540 0.245885
v 0.057443 6.770707 0.179303
v 0.063803 6.718086 0.198805
v 0.150304 6.689540 0.209537
v 0.109078 6.770707 0.152923
v 0.121153 6.718086 0.169505
v 0.206737 6.689540 0.152982
v 0.150035 6.770707 0.111878
v 0.166643 6.718086 0.123918
v 0.242932 6.689540 0.081756
v 0.176303 6.770707 0.060186
v 0.195818 6.718086 0.066504
v 0.255345 6.689540 0.002831
v 0.185312 6.770707 0.002907
v 0.205824 6.718086 0.002885
v 0.242761 6.689540 -0.076066
v 0.176179 6.770707 -0.054353
v 0.195681 6.718086 -0.060712
v 0.206413 6.689540 -0.147214
v 0.149799 6.770707 -0.105989
v 0.166381 6.718086 -0.118063
v 0.149858 6.689540 -0.203647
v 0.108754 6.770707 -0.146945
v 0.120793 6.718086 -0.163552
v 0.078632 6.689540 -0.239841
v 0.057062 6.770707 -0.173213
v 0.063380 6.718086 -0.192728
v -0.000030 6.689540 -0.252254
v -0.000030 6.770707 -0.182222
v -0.000030 6.718086 -0.202733
v -0.079190 6.689540 -0.239671
v -0.057477 6.770707 -0.173089
v -0.063837 6.718086 -0.192590
v -0.150338 6.689540 -0.203323
v -0.109112 6.770707 -0.146710
v -0.121187 6.718086 -0.163291
v -0.206771 6.689540 -0.146767
v -0.150069 6.770707 -0.105665
v -0.166676 6.718086 -0.117703
v -0.242966 6.689540 -0.075541
v -0.176337 6.770707 -0.053972
v -0.195852 6.718086 -0.060290
v -0.255379 6.689540 0.003383
v -0.185346 6.770707 0.003307
v -0.205858 6.718086 0.003330
v -0.242795 6.689540 0.082281
v -0.176213 6.770707 0.060567
v -0.195715 6.718086 0.066927
v -0.206447 6.689540 0.153428
v -0.149833 6.770707 0.112202
v -0.166415 6.718086 0.124278
v -0.149892 6.689540 0.209861
v -0.108788 6.770707 0.153158
v -0.120827 6.718086 0.169767
v -0.057096 6.770707 0.179427
v -0.078666 6.689540 0.246056
v -0.063414 6.718086 0.198942
v 0.000331 6.450809 0.325173
v 0.000383 6.512804 0.373029
v -0.000402 6.473909 0.359737
v 0.099838 6.450809 0.309303
v 0.114675 6.512804 0.354801
v 0.109822 6.473909 0.342401
v 0.189570 6.450809 0.263460
v 0.217741 6.512803 0.302145
v 0.209293 6.473909 0.291853
v 0.260745 6.450809 0.192131
v 0.299491 6.512804 0.220219
v 0.288276 6.473909 0.213040
v 0.306394 6.450809 0.102300
v 0.351924 6.512804 0.117039
v 0.339039 6.473909 0.113678
v 0.322049 6.450809 0.002759
v 0.369905 6.512803 0.002707
v 0.356613 6.473909 0.003492
v 0.306179 6.450809 -0.096748
v 0.351677 6.512804 -0.111585
v 0.339277 6.473909 -0.106731
v 0.260336 6.450809 -0.186480
v 0.299022 6.512804 -0.214651
v 0.288729 6.473909 -0.206203
v 0.189007 6.450809 -0.257655
v 0.217095 6.512803 -0.296401
v 0.209917 6.473909 -0.285187
v 0.099176 6.450809 -0.303304
v 0.113915 6.512803 -0.348834
v 0.110554 6.473909 -0.335950
v -0.000030 6.450809 -0.318959
v -0.000030 6.512804 -0.366815
v -0.000030 6.473909 -0.353523
v -0.099872 6.450809 -0.303089
v -0.114709 6.512804 -0.348586
v -0.109856 6.473909 -0.336188
v -0.189604 6.450809 -0.257246
v -0.217775 6.512804 -0.295931
v -0.209327 6.473909 -0.285639
v -0.260779 6.450809 -0.185917
v -0.299525 6.512803 -0.214004
v -0.288311 6.473909 -0.206827
v -0.306428 6.450809 -0.096086
v -0.351958 6.512804 -0.110825
v -0.339074 6.473909 -0.107464
v -0.322083 6.450809 0.003455
v -0.369939 6.512804 0.003507
v -0.356647 6.473909 0.002722
v -0.306213 6.450809 0.102962
v -0.351711 6.512804 0.117799
v -0.339312 6.473909 0.112945
v -0.260370 6.450809 0.192694
v -0.299056 6.512804 0.220865
v -0.288763 6.473909 0.212417
v -0.189041 6.450809 0.263869
v -0.217129 6.512804 0.302616
v -0.209951 6.473909 0.291400
v -0.113949 6.512804 0.355048
v -0.099210 6.450809 0.309518
v -0.110588 6.473909 0.342163
v 0.000379 6.621541 0.369230
v -0.000356 6.679893 0.317109
v 0.000361 6.659369 0.353240
v 0.113497 6.621541 0.351188
v 0.096693 6.679893 0.301846
v 0.108540 6.659369 0.335986
v 0.215505 6.621541 0.299074
v 0.184275 6.679893 0.257339
v 0.206092 6.659369 0.286148
v 0.296415 6.621541 0.217989
v 0.253817 6.679893 0.187947
v 0.283469 6.659369 0.208604
v 0.348309 6.621541 0.115869
v 0.298512 6.679893 0.100461
v 0.333096 6.659369 0.110944
v 0.366106 6.621541 0.002711
v 0.313985 6.679893 0.003446
v 0.350116 6.659369 0.002729
v 0.348065 6.621541 -0.110407
v 0.298722 6.679893 -0.093603
v 0.332862 6.659369 -0.105450
v 0.295950 6.621541 -0.212415
v 0.254216 6.679893 -0.181185
v 0.283024 6.659369 -0.203002
v 0.214865 6.621541 -0.293325
v 0.184823 6.679893 -0.250727
v 0.205480 6.659369 -0.280379
v 0.112745 6.621541 -0.345219
v 0.097338 6.679893 -0.295422
v 0.107820 6.659369 -0.330006
v -0.000030 6.621541 -0.363016
v -0.000030 6.679893 -0.310895
v -0.000030 6.659369 -0.347026
v -0.113531 6.621541 -0.344975
v -0.096727 6.679893 -0.295632
v -0.108574 6.659369 -0.329772
v -0.215539 6.621541 -0.292860
v -0.184309 6.679893 -0.251126
v -0.206126 6.659369 -0.279934
v -0.296449 6.621541 -0.211775
v -0.253851 6.679893 -0.181733
v -0.283503 6.659369 -0.202390
v -0.348343 6.621541 -0.109655
v -0.298546 6.679893 -0.094248
v -0.333130 6.659369 -0.104730
v -0.366140 6.621541 0.003503
v -0.314020 6.679893 0.002768
v -0.350150 6.659369 0.003485
v -0.348099 6.621541 0.116621
v -0.298756 6.679893 0.099817
v -0.332896 6.659369 0.111664
v -0.295984 6.621541 0.218629
v -0.254250 6.679893 0.187399
v -0.283058 6.659369 0.209216
v -0.214899 6.621541 0.299539
v -0.184857 6.679893 0.256941
v -0.205514 6.659369 0.286593
v -0.097372 6.679893 0.301636
v -0.112779 6.621541 0.351433
v -0.107854 6.659369 0.336220
v 0.000183 7.001032 0.188436
v -0.000224 7.017751 0.194960
v 0.057443 7.001032 0.179303
v 0.059072 7.017750 0.185634
v 0.109078 7.001032 0.152923
v 0.112584 7.017751 0.158441
v 0.150035 7.001032 0.111878
v 0.155074 7.017751 0.116043
v 0.176303 7.001032 0.060186
v 0.182382 7.017751 0.062590
v 0.185312 7.001032 0.002907
v 0.191836 7.017750 0.003314
v 0.176179 7.001032 -0.054353
v 0.182510 7.017751 -0.055982
v 0.149799 7.001032 -0.105989
v 0.155317 7.017750 -0.109494
v 0.108754 7.001032 -0.146945
v 0.112919 7.017751 -0.151984
v 0.057062 7.001032 -0.173213
v 0.059466 7.017750 -0.179292
v -0.000030 7.001032 -0.182222
v -0.000030 7.017750 -0.188746
v -0.057477 7.001032 -0.173089
v -0.059106 7.017751 -0.179420
v -0.109112 7.001032 -0.146709
v -0.112618 7.017750 -0.152227
v -0.150069 7.001032 -0.105665
v -0.155107 7.017750 -0.109829
v -0.176337 7.001032 -0.053972
v -0.182416 7.017750 -0.056376
v -0.185346 7.001032 0.003307
v -0.191870 7.017750 0.002900
v -0.176213 7.001032 0.060567
v -0.182544 7.017750 0.062196
v -0.149833 7.001032 0.112203
v -0.155351 7.017751 0.115708
v -0.108788 7.001032 0.153159
v -0.112953 7.017751 0.158197
v -0.057096 7.001032 0.179427
v -0.059500 7.017751 0.185506
v 0.109091 6.313356 0.152940
v -0.176214 6.311208 0.060566
v -0.185344 6.310768 0.003309
v -0.176334 6.310424 -0.053968
v -0.150064 6.310209 -0.105658
v -0.108804 6.312201 0.153138
v 0.150047 6.313293 0.111895
v -0.109108 6.310146 -0.146703
v -0.057473 6.310239 -0.173083
v -0.000030 6.310480 -0.182218
v 0.057063 6.310846 -0.173211
v 0.108753 6.311300 -0.146946
v 0.149795 6.311799 -0.105993
v 0.176173 6.312292 -0.054362
v 0.185303 6.312734 0.002896
v 0.176292 6.313077 0.060173
v -0.149854 6.311702 0.112176
v 0.057445 6.313262 0.179305
v 0.000192 6.313021 0.188447
v -0.057085 6.312655 0.179441
vn -0.0000 1.0000 -0.0000
vn 0.0007 -0.9479 0.3186
vn -0.0978 -0.9479 0.3032
vn -0.1550 -0.8672 0.4733
vn -0.0011 -0.8672 0.4980
vn 0.1528 -0.8672 0.4740
vn 0.0991 -0.9479 0.3028
vn 0.2918 -0.8672 0.4036
vn 0.1878 -0.9479 0.2573
vn 0.4023 -0.8672 0.2936
vn 0.2581 -0.9479 0.1867
vn 0.4733 -0.8672 0.1550
vn 0.3032 -0.9479 0.0978
vn 0.4980 -0.8672 0.0011
vn 0.3186 -0.9479 -0.0007
vn 0.4740 -0.8672 -0.1528
vn 0.3028 -0.9479 -0.0991
vn 0.4036 -0.8671 -0.2918
vn 0.2573 -0.9479 -0.1878
vn 0.2936 -0.8671 -0.4023
vn 0.1867 -0.9479 -0.2581
vn 0.1549 -0.8674 -0.4729
vn -0.0001 -0.8671 -0.4981
vn -0.0001 -0.9479 -0.3186
vn 0.0978 -0.9480 -0.3030
vn -0.1529 -0.8669 -0.4744
vn -0.0991 -0.9478 -0.3030
vn -0.2918 -0.8671 -0.4036
vn -0.4023 -0.8671 -0.2937
vn -0.2581 -0.9479 -0.1867
vn -0.1878 -0.9479 -0.2573
vn -0.4733 -0.8671 -0.1550
vn -0.3032 -0.9479 -0.0978
vn -0.4981 -0.8671 -0.0011
vn -0.3186 -0.9479 0.0007
vn -0.4740 -0.8671 0.1529
vn -0.3028 -0.9479 0.0991
vn -0.4036 -0.8672 0.2918
vn -0.2573 -0.9479 0.1878
vn -0.2936 -0.8672 0.4023
vn -0.1867 -0.9479 0.2581
vn 0.0039 -0.1817 0.9833
vn -0.3001 -0.1817 0.9364
vn -0.2939 -0.3635 0.8840
vn -0.0064 -0.3635 0.9316
vn -0.0037 -0.8671 0.4980
vn -0.1574 -0.8671 0.4725
vn -0.1065 -0.9366 0.3338
vn 0.0018 -0.9366 0.3504
vn 0.1100 -0.9366 0.3326
vn 0.1504 -0.8671 0.4748
vn 0.2818 -0.3635 0.8879
vn 0.3076 -0.1817 0.9340
vn 0.2074 -0.9366 0.2824
vn 0.2897 -0.8671 0.4051
vn 0.5424 -0.3635 0.7574
vn 0.5812 -0.1817 0.7932
vn 0.2845 -0.9366 0.2044
vn 0.4007 -0.8671 0.2957
vn 0.7499 -0.3635 0.5527
vn 0.7979 -0.1817 0.5748
vn 0.3338 -0.9366 0.1065
vn 0.4725 -0.8671 0.1574
vn 0.8840 -0.3635 0.2939
vn 0.9364 -0.1817 0.3001
vn 0.3504 -0.9366 -0.0018
vn 0.4980 -0.8672 0.0037
vn 0.9316 -0.3635 0.0064
vn 0.9833 -0.1817 -0.0039
vn 0.3326 -0.9366 -0.1100
vn 0.4748 -0.8672 -0.1504
vn 0.8879 -0.3635 -0.2818
vn 0.9340 -0.1817 -0.3076
vn 0.2824 -0.9366 -0.2074
vn 0.4051 -0.8672 -0.2897
vn 0.7574 -0.3635 -0.5424
vn 0.7932 -0.1817 -0.5812
vn 0.2044 -0.9366 -0.2845
vn 0.2957 -0.8672 -0.4007
vn 0.5527 -0.3635 -0.7499
vn 0.5748 -0.1817 -0.7979
vn 0.1066 -0.9364 -0.3345
vn 0.0002 -0.9366 -0.3504
vn 0.0003 -0.8672 -0.4980
vn 0.1576 -0.8665 -0.4736
vn 0.2938 -0.3658 -0.8831
vn -0.0003 -0.3635 -0.9316
vn -0.0004 -0.1817 -0.9834
vn 0.3002 -0.1830 -0.9361
vn -0.1099 -0.9369 -0.3320
vn -0.1502 -0.8679 -0.4736
vn -0.2820 -0.3610 -0.8889
vn -0.3075 -0.1805 -0.9343
vn -0.2074 -0.9366 -0.2824
vn -0.2897 -0.8672 -0.4051
vn -0.2845 -0.9366 -0.2044
vn -0.4007 -0.8672 -0.2957
vn -0.5424 -0.3635 -0.7574
vn -0.7499 -0.3635 -0.5527
vn -0.7979 -0.1817 -0.5748
vn -0.5812 -0.1817 -0.7932
vn -0.3338 -0.9366 -0.1065
vn -0.4725 -0.8672 -0.1574
vn -0.8840 -0.3635 -0.2939
vn -0.9364 -0.1817 -0.3001
vn -0.3504 -0.9366 0.0018
vn -0.4980 -0.8671 -0.0037
vn -0.9316 -0.3635 -0.0064
vn -0.9833 -0.1817 0.0039
vn -0.3326 -0.9366 0.1100
vn -0.4748 -0.8671 0.1504
vn -0.8879 -0.3635 0.2818
vn -0.9340 -0.1817 0.3076
vn -0.2824 -0.9366 0.2074
vn -0.4051 -0.8671 0.2897
vn -0.7574 -0.3635 0.5424
vn -0.7932 -0.1817 0.5812
vn -0.2044 -0.9366 0.2845
vn -0.2957 -0.8671 0.4007
vn -0.5527 -0.3635 0.7499
vn -0.5748 -0.1817 0.7979
vn 0.0007 0.7413 0.6712
vn -0.2067 0.7413 0.6386
vn -0.2728 0.4642 0.8427
vn 0.0010 0.4642 0.8857
vn -0.3052 0.1354 0.9426
vn 0.0011 0.1354 0.9908
vn 0.3072 0.1354 0.9420
vn 0.2746 0.4642 0.8421
vn 0.2081 0.7413 0.6381
vn 0.5832 0.1354 0.8009
vn 0.5214 0.4642 0.7160
vn 0.3951 0.7413 0.5426
vn 0.8022 0.1354 0.5815
vn 0.7171 0.4642 0.5198
vn 0.5434 0.7413 0.3939
vn 0.9426 0.1354 0.3052
vn 0.8427 0.4642 0.2728
vn 0.6386 0.7413 0.2067
vn 0.9908 0.1354 -0.0011
vn 0.8857 0.4642 -0.0010
vn 0.6712 0.7413 -0.0007
vn 0.9420 0.1354 -0.3072
vn 0.8421 0.4642 -0.2746
vn 0.6381 0.7413 -0.2081
vn 0.8009 0.1354 -0.5832
vn 0.7160 0.4642 -0.5214
vn 0.5426 0.7413 -0.3951
vn 0.5815 0.1354 -0.8022
vn 0.5198 0.4642 -0.7171
vn 0.3939 0.7413 -0.5434
vn 0.3054 0.1354 -0.9425
vn -0.0005 0.1354 -0.9908
vn -0.0005 0.4642 -0.8857
vn 0.2730 0.4643 -0.8426
vn -0.0004 0.7413 -0.6712
vn 0.2069 0.7413 -0.6385
vn -0.3069 0.1354 -0.9420
vn -0.2744 0.4642 -0.8421
vn -0.2079 0.7413 -0.6382
vn -0.5832 0.1354 -0.8009
vn -0.5214 0.4642 -0.7160
vn -0.8022 0.1354 -0.5815
vn -0.7171 0.4642 -0.5198
vn -0.5434 0.7413 -0.3939
vn -0.3951 0.7413 -0.5426
vn -0.9426 0.1354 -0.3052
vn -0.8427 0.4642 -0.2728
vn -0.6386 0.7413 -0.2067
vn -0.9908 0.1354 0.0011
vn -0.8857 0.4642 0.0010
vn -0.6712 0.7413 0.0007
vn -0.9420 0.1354 0.3072
vn -0.8421 0.4642 0.2746
vn -0.6381 0.7413 0.2081
vn -0.8009 0.1354 0.5832
vn -0.7160 0.4642 0.5214
vn -0.5426 0.7413 0.3951
vn -0.5815 0.1354 0.8022
vn -0.5198 0.4642 0.7171
vn -0.3939 0.7413 0.5434
vn 0.0008 0.6816 0.7317
vn -0.2254 0.6816 0.6962
vn -0.1896 0.7881 0.5857
vn 0.0007 0.7881 0.6156
vn 0.1909 0.7881 0.5853
vn 0.2269 0.6816 0.6957
vn 0.3624 0.7881 0.4976
vn 0.4307 0.6816 0.5915
vn 0.4984 0.7881 0.3613
vn 0.5924 0.6816 0.4295
vn 0.5857 0.7881 0.1896
vn 0.6962 0.6816 0.2254
vn 0.6156 0.7881 -0.0007
vn 0.7317 0.6816 -0.0008
vn 0.5853 0.7881 -0.1909
vn 0.6957 0.6816 -0.2269
vn 0.4976 0.7881 -0.3624
vn 0.5915 0.6816 -0.4307
vn 0.3613 0.7881 -0.4984
vn 0.4295 0.6816 -0.5924
vn 0.1898 0.7881 -0.5856
vn -0.0003 0.7881 -0.6156
vn -0.0004 0.6816 -0.7317
vn 0.2255 0.6816 -0.6961
vn -0.1907 0.7881 -0.5853
vn -0.2267 0.6816 -0.6957
vn -0.3624 0.7881 -0.4976
vn -0.4984 0.7881 -0.3613
vn -0.5924 0.6816 -0.4295
vn -0.4307 0.6816 -0.5915
vn -0.5857 0.7881 -0.1896
vn -0.6962 0.6816 -0.2254
vn -0.6156 0.7881 0.0007
vn -0.7317 0.6816 0.0008
vn -0.5853 0.7881 0.1909
vn -0.6957 0.6816 0.2269
vn -0.4976 0.7881 0.3624
vn -0.5915 0.6816 0.4307
vn -0.3613 0.7881 0.4984
vn -0.4295 0.6816 0.5924
vn 0.0010 0.3609 0.9326
vn -0.2872 0.3609 0.8873
vn -0.2591 0.5408 0.8003
vn 0.0009 0.5408 0.8411
vn 0.2608 0.5408 0.7997
vn 0.2891 0.3609 0.8866
vn 0.4951 0.5408 0.6800
vn 0.5490 0.3609 0.7539
vn 0.6810 0.5408 0.4937
vn 0.7551 0.3609 0.5474
vn 0.8003 0.5408 0.2591
vn 0.8873 0.3609 0.2872
vn 0.8411 0.5408 -0.0009
vn 0.9326 0.3609 -0.0010
vn 0.7997 0.5408 -0.2608
vn 0.8866 0.3609 -0.2892
vn 0.6800 0.5408 -0.4951
vn 0.7539 0.3609 -0.5490
vn 0.4937 0.5408 -0.6810
vn 0.5474 0.3609 -0.7551
vn 0.2593 0.5408 -0.8002
vn -0.0005 0.5408 -0.8411
vn -0.0005 0.3609 -0.9326
vn 0.2875 0.3609 -0.8872
vn -0.2606 0.5408 -0.7998
vn -0.2889 0.3609 -0.8867
vn -0.4951 0.5408 -0.6800
vn -0.6810 0.5408 -0.4937
vn -0.7551 0.3609 -0.5474
vn -0.5490 0.3609 -0.7539
vn -0.8003 0.5408 -0.2591
vn -0.8873 0.3609 -0.2872
vn -0.8411 0.5408 0.0009
vn -0.9326 0.3609 0.0010
vn -0.7997 0.5408 0.2608
vn -0.8866 0.3609 0.2892
vn -0.6800 0.5408 0.4951
vn -0.7539 0.3609 0.5490
vn -0.4937 0.5408 0.6810
vn -0.5474 0.3609 0.7551
vn 0.2992 0.2620 0.9175
vn 0.0010 0.2620 0.9651
vn -0.2972 0.2620 0.9181
vn 0.5681 0.2620 0.7801
vn 0.7814 0.2620 0.5664
vn 0.9181 0.2620 0.2972
vn 0.9651 0.2620 -0.0010
vn 0.9175 0.2620 -0.2992
vn 0.7801 0.2620 -0.5681
vn 0.5664 0.2620 -0.7814
vn -0.0006 0.2620 -0.9651
vn 0.2975 0.2620 -0.9181
vn -0.2990 0.2620 -0.9176
vn -0.7814 0.2620 -0.5664
vn -0.5681 0.2620 -0.7801
vn -0.9181 0.2620 -0.2972
vn -0.9651 0.2620 0.0010
vn -0.9175 0.2620 0.2992
vn -0.7801 0.2620 0.5681
vn -0.5664 0.2620 0.7814
vn 0.0011 -0.1104 0.9939
vn -0.3061 -0.1104 0.9456
vn -0.2912 -0.3255 0.8996
vn 0.0010 -0.3255 0.9455
vn 0.2932 -0.3255 0.8989
vn 0.3082 -0.1104 0.9449
vn 0.5566 -0.3255 0.7643
vn 0.5851 -0.1104 0.8034
vn 0.7655 -0.3255 0.5549
vn 0.8047 -0.1104 0.5833
vn 0.8996 -0.3255 0.2912
vn 0.9456 -0.1104 0.3061
vn 0.9455 -0.3255 -0.0010
vn 0.9939 -0.1104 -0.0011
vn 0.8989 -0.3255 -0.2932
vn 0.9449 -0.1104 -0.3082
vn 0.7643 -0.3255 -0.5566
vn 0.8034 -0.1104 -0.5851
vn 0.5549 -0.3255 -0.7655
vn 0.5833 -0.1104 -0.8047
vn 0.2914 -0.3255 -0.8995
vn -0.0005 -0.3255 -0.9455
vn -0.0006 -0.1104 -0.9939
vn 0.3063 -0.1104 -0.9455
vn -0.2929 -0.3255 -0.8990
vn -0.3079 -0.1104 -0.9450
vn -0.5566 -0.3255 -0.7643
vn -0.7656 -0.3255 -0.5549
vn -0.8047 -0.1104 -0.5833
vn -0.5851 -0.1104 -0.8034
vn -0.8996 -0.3255 -0.2912
vn -0.9456 -0.1104 -0.3061
vn -0.9455 -0.3255 0.0010
vn -0.9939 -0.1104 0.0011
vn -0.8989 -0.3255 0.2932
vn -0.9449 -0.1104 0.3082
vn -0.7643 -0.3255 0.5566
vn -0.8034 -0.1104 0.5851
vn -0.5549 -0.3255 0.7655
vn -0.5833 -0.1104 0.8047
vn 0.0010 0.3977 0.9175
vn -0.2826 0.3977 0.8729
vn -0.3034 0.1720 0.9372
vn 0.0011 0.1720 0.9851
vn 0.3054 0.1720 0.9365
vn 0.2845 0.3977 0.8723
vn 0.5799 0.1720 0.7963
vn 0.5401 0.3977 0.7417
vn 0.7976 0.1720 0.5782
vn 0.7429 0.3977 0.5385
vn 0.9372 0.1720 0.3034
vn 0.8729 0.3977 0.2826
vn 0.9851 0.1720 -0.0011
vn 0.9175 0.3977 -0.0010
vn 0.9365 0.1720 -0.3054
vn 0.8723 0.3977 -0.2845
vn 0.7963 0.1720 -0.5799
vn 0.7417 0.3977 -0.5401
vn 0.5782 0.1720 -0.7976
vn 0.5385 0.3977 -0.7429
vn 0.3036 0.1720 -0.9371
vn -0.0006 0.1720 -0.9851
vn -0.0005 0.3977 -0.9175
vn 0.2827 0.3978 -0.8728
vn -0.3052 0.1720 -0.9366
vn -0.2843 0.3977 -0.8724
vn -0.5799 0.1720 -0.7963
vn -0.7976 0.1720 -0.5782
vn -0.7429 0.3977 -0.5385
vn -0.5401 0.3977 -0.7417
vn -0.9372 0.1720 -0.3034
vn -0.8729 0.3977 -0.2826
vn -0.9851 0.1720 0.0011
vn -0.9175 0.3977 0.0010
vn -0.9365 0.1720 0.3054
vn -0.8723 0.3977 0.2845
vn -0.7963 0.1720 0.5799
vn -0.7417 0.3977 0.5401
vn -0.5782 0.1720 0.7976
vn -0.5385 0.3977 0.7429
vn 0.2796 -0.4319 0.8575
vn 0.0010 -0.4319 0.9019
vn -0.2778 -0.4319 0.8581
vn 0.5309 -0.4319 0.7291
vn 0.7302 -0.4319 0.5293
vn 0.8581 -0.4319 0.2778
vn 0.9019 -0.4319 -0.0010
vn 0.8575 -0.4319 -0.2796
vn 0.7291 -0.4319 -0.5309
vn 0.5293 -0.4319 -0.7302
vn -0.0005 -0.4319 -0.9019
vn 0.2780 -0.4319 -0.8580
vn -0.2794 -0.4319 -0.8575
vn -0.5309 -0.4319 -0.7291
vn -0.7302 -0.4319 -0.5293
vn -0.8581 -0.4319 -0.2778
vn -0.9019 -0.4319 0.0010
vn -0.8575 -0.4319 0.2796
vn -0.7291 -0.4319 0.5309
vn -0.5293 -0.4319 0.7302
vn 0.2454 0.6107 0.7529
vn 0.1790 0.8137 0.5530
vn -0.0007 0.8137 0.5812
vn 0.0007 0.6107 0.7919
vn -0.1802 0.8137 0.5526
vn -0.2440 0.6107 0.7533
vn 0.4660 0.6107 0.6402
vn 0.3411 0.8137 0.4706
vn 0.6410 0.6107 0.4649
vn 0.4698 0.8137 0.3422
vn 0.7533 0.6107 0.2440
vn 0.5526 0.8137 0.1802
vn 0.7919 0.6107 -0.0007
vn 0.5812 0.8137 0.0006
vn 0.7529 0.6107 -0.2454
vn 0.5530 0.8137 -0.1790
vn 0.6402 0.6107 -0.4660
vn 0.4706 0.8137 -0.3411
vn 0.4649 0.6107 -0.6410
vn 0.3422 0.8137 -0.4698
vn -0.0007 0.6107 -0.7919
vn 0.0006 0.8137 -0.5812
vn 0.1802 0.8137 -0.5526
vn 0.2441 0.6108 -0.7533
vn -0.2453 0.6107 -0.7529
vn -0.1790 0.8137 -0.5530
vn -0.6410 0.6107 -0.4649
vn -0.4698 0.8137 -0.3422
vn -0.3411 0.8137 -0.4706
vn -0.4660 0.6107 -0.6402
vn -0.7533 0.6107 -0.2440
vn -0.5526 0.8137 -0.1802
vn -0.7919 0.6107 0.0007
vn -0.5812 0.8137 -0.0006
vn -0.7529 0.6107 0.2454
vn -0.5530 0.8137 0.1790
vn -0.6402 0.6107 0.4660
vn -0.4706 0.8137 0.3411
vn -0.4649 0.6107 0.6410
vn -0.3422 0.8137 0.4698
vn 0.4755 0.8670 -0.1488
vn 0.4982 0.8670 0.0054
vn 0.4062 0.8670 -0.2885
vn 0.2972 0.8670 -0.3999
vn 0.2885 0.8670 0.4062
vn 0.1488 0.8670 0.4755
vn -0.1488 0.8670 -0.4755
vn 0.0054 0.8670 -0.4982
vn -0.4982 0.8670 -0.0054
vn -0.4722 0.8670 -0.1591
vn -0.4755 0.8670 0.1488
vn -0.4062 0.8670 0.2885
vn 0.4722 0.8670 0.1591
vn 0.3999 0.8670 0.2972
vn -0.2972 0.8670 0.3999
vn -0.1591 0.8670 0.4722
vn -0.0054 0.8670 0.4982
vn -0.3999 0.8670 -0.2972
vn -0.2885 0.8670 -0.4062
vn 0.1591 0.8670 -0.4722
vn 0.0004 -0.9236 0.3833
vn -0.1180 -0.9236 0.3647
vn -0.1694 -0.8351 0.5234
vn 0.0006 -0.8351 0.5502
vn 0.0010 -0.3498 0.9368
vn -0.2885 -0.3498 0.8913
vn -0.3030 -0.1808 0.9357
vn 0.0011 -0.1808 0.9835
vn 0.3049 -0.1808 0.9351
vn 0.2905 -0.3498 0.8907
vn 0.1706 -0.8351 0.5231
vn 0.1188 -0.9236 0.3644
vn 0.5789 -0.1807 0.7951
vn 0.5515 -0.3498 0.7573
vn 0.3239 -0.8351 0.4447
vn 0.2256 -0.9236 0.3098
vn 0.7964 -0.1807 0.5772
vn 0.7585 -0.3498 0.5498
vn 0.4454 -0.8351 0.3229
vn 0.3103 -0.9236 0.2250
vn 0.9357 -0.1810 0.3029
vn 0.8913 -0.3498 0.2885
vn 0.5234 -0.8351 0.1694
vn 0.3647 -0.9236 0.1180
vn 0.9835 -0.1810 -0.0010
vn 0.9368 -0.3498 -0.0010
vn 0.5502 -0.8351 -0.0006
vn 0.3833 -0.9236 -0.0004
vn 0.9350 -0.1809 -0.3049
vn 0.8907 -0.3498 -0.2905
vn 0.5231 -0.8351 -0.1706
vn 0.3644 -0.9236 -0.1188
vn 0.7950 -0.1809 -0.5789
vn 0.7573 -0.3498 -0.5515
vn 0.4447 -0.8351 -0.3239
vn 0.3098 -0.9236 -0.2256
vn 0.5772 -0.1809 -0.7963
vn 0.5498 -0.3498 -0.7585
vn 0.3229 -0.8351 -0.4454
vn 0.2250 -0.9236 -0.3103
vn 0.3031 -0.1809 -0.9356
vn -0.0006 -0.1809 -0.9835
vn -0.0005 -0.3498 -0.9368
vn 0.2888 -0.3498 -0.8912
vn 0.1696 -0.8351 -0.5234
vn -0.0003 -0.8351 -0.5502
vn -0.0002 -0.9236 -0.3833
vn 0.1181 -0.9236 -0.3647
vn -0.3047 -0.1810 -0.9351
vn -0.2902 -0.3498 -0.8907
vn -0.1704 -0.8351 -0.5231
vn -0.1187 -0.9236 -0.3644
vn -0.5789 -0.1810 -0.7950
vn -0.5515 -0.3498 -0.7573
vn -0.7963 -0.1810 -0.5772
vn -0.7585 -0.3498 -0.5498
vn -0.3239 -0.8351 -0.4447
vn -0.4454 -0.8351 -0.3229
vn -0.3103 -0.9236 -0.2250
vn -0.2256 -0.9236 -0.3098
vn -0.9357 -0.1809 -0.3029
vn -0.8913 -0.3498 -0.2885
vn -0.5234 -0.8351 -0.1694
vn -0.3647 -0.9236 -0.1180
vn -0.9835 -0.1809 0.0011
vn -0.9368 -0.3498 0.0010
vn -0.5502 -0.8351 0.0006
vn -0.3833 -0.9236 0.0004
vn -0.9350 -0.1809 0.3049
vn -0.8907 -0.3498 0.2905
vn -0.5231 -0.8351 0.1706
vn -0.3644 -0.9236 0.1188
vn -0.7950 -0.1809 0.5790
vn -0.7573 -0.3498 0.5515
vn -0.4447 -0.8351 0.3239
vn -0.3098 -0.9236 0.2256
vn -0.5772 -0.1809 0.7963
vn -0.5498 -0.3498 0.7585
vn -0.3229 -0.8351 0.4454
vn -0.2250 -0.9236 0.3103
vn 0.0011 0.1882 0.9821
vn -0.3025 0.1882 0.9344
vn -0.2870 0.3632 0.8864
vn 0.0010 0.3632 0.9317
vn 0.0005 0.8664 0.4994
vn -0.1538 0.8664 0.4751
vn -0.0986 0.9473 0.3047
vn 0.0003 0.9473 0.3203
vn 0.0993 0.9473 0.3045
vn 0.1548 0.8664 0.4748
vn 0.2889 0.3632 0.8858
vn 0.3045 0.1882 0.9337
vn 0.1885 0.9473 0.2589
vn 0.2940 0.8664 0.4037
vn 0.5485 0.3632 0.7532
vn 0.5781 0.1882 0.7939
vn 0.2593 0.9473 0.1880
vn 0.4043 0.8664 0.2931
vn 0.7544 0.3632 0.5468
vn 0.7952 0.1882 0.5764
vn 0.3047 0.9473 0.0986
vn 0.4751 0.8664 0.1538
vn 0.8864 0.3632 0.2870
vn 0.9344 0.1882 0.3025
vn 0.3203 0.9473 -0.0003
vn 0.4994 0.8664 -0.0005
vn 0.9317 0.3632 -0.0010
vn 0.9821 0.1882 -0.0011
vn 0.3045 0.9473 -0.0993
vn 0.4748 0.8664 -0.1548
vn 0.8858 0.3632 -0.2889
vn 0.9337 0.1882 -0.3045
vn 0.2589 0.9473 -0.1885
vn 0.4037 0.8664 -0.2940
vn 0.7532 0.3632 -0.5485
vn 0.7939 0.1882 -0.5781
vn 0.1880 0.9473 -0.2593
vn 0.2931 0.8664 -0.4043
vn 0.5468 0.3632 -0.7544
vn 0.5764 0.1882 -0.7952
vn 0.0987 0.9473 -0.3047
vn -0.0001 0.9473 -0.3203
vn -0.0003 0.8664 -0.4994
vn 0.1539 0.8664 -0.4751
vn 0.2872 0.3632 -0.8864
vn -0.0005 0.3632 -0.9317
vn -0.0006 0.1882 -0.9821
vn 0.3027 0.1882 -0.9343
vn -0.0992 0.9474 -0.3044
vn -0.1547 0.8664 -0.4748
vn -0.2887 0.3632 -0.8859
vn -0.3043 0.1882 -0.9338
vn -0.1885 0.9473 -0.2589
vn -0.2940 0.8664 -0.4037
vn -0.2593 0.9473 -0.1880
vn -0.4043 0.8664 -0.2931
vn -0.5485 0.3632 -0.7532
vn -0.7544 0.3632 -0.5468
vn -0.7952 0.1882 -0.5764
vn -0.5781 0.1882 -0.7939
vn -0.3047 0.9473 -0.0986
vn -0.4751 0.8664 -0.1538
vn -0.8864 0.3632 -0.2870
vn -0.9344 0.1882 -0.3025
vn -0.3203 0.9473 0.0003
vn -0.4994 0.8664 0.0005
vn -0.9317 0.3632 0.0010
vn -0.9821 0.1882 0.0011
vn -0.3045 0.9473 0.0993
vn -0.4748 0.8664 0.1548
vn -0.8858 0.3632 0.2889
vn -0.9337 0.1882 0.3045
vn -0.2589 0.9473 0.1885
vn -0.4037 0.8664 0.2940
vn -0.7532 0.3632 0.5485
vn -0.7939 0.1882 0.5781
vn -0.1880 0.9473 0.2593
vn -0.2931 0.8664 0.4044
vn -0.5468 0.3632 0.7544
vn -0.5764 0.1882 0.7952
vn 1.0000 -0.0003 -0.0018
vn 0.9516 -0.0002 0.3074
vn 0.9505 -0.0001 -0.3108
vn 0.8079 -0.0000 -0.5894
vn 0.5862 -0.0000 -0.8101
vn -0.0011 -0.0001 -1.0000
vn 0.3075 -0.0000 -0.9515
vn -0.3101 -0.0002 -0.9507
vn -0.8095 -0.0002 -0.5871
vn -0.5887 -0.0002 -0.8084
vn -0.9512 -0.0001 -0.3085
vn -1.0000 -0.0000 0.0004
vn -0.9510 -0.0000 0.3092
vn 0.0015 -0.1441 0.9896
vn -0.3044 -0.1441 0.9416
vn -0.2941 -0.3234 0.8994
vn -0.0018 -0.3234 0.9463
vn -0.0010 -0.8314 0.5557
vn -0.1727 -0.8314 0.5282
vn -0.1278 -0.9096 0.3954
vn 0.0006 -0.9096 0.4155
vn 0.1290 -0.9096 0.3950
vn 0.1707 -0.8314 0.5288
vn 0.2907 -0.3234 0.9005
vn 0.3072 -0.1441 0.9407
vn 0.2448 -0.9096 0.3358
vn 0.3258 -0.8314 0.4502
vn 0.5548 -0.3234 0.7666
vn 0.5828 -0.1441 0.7997
vn 0.3365 -0.9096 0.2437
vn 0.4489 -0.8314 0.3275
vn 0.7645 -0.3234 0.5576
vn 0.8014 -0.1441 0.5805
vn 0.3954 -0.9096 0.1278
vn 0.5282 -0.8314 0.1727
vn 0.8994 -0.3234 0.2941
vn 0.9416 -0.1441 0.3044
vn 0.4155 -0.9096 -0.0006
vn 0.5557 -0.8314 0.0010
vn 0.9463 -0.3234 0.0018
vn 0.9896 -0.1441 -0.0015
vn 0.3950 -0.9096 -0.1290
vn 0.5288 -0.8314 -0.1707
vn 0.9005 -0.3234 -0.2907
vn 0.9407 -0.1441 -0.3072
vn 0.3358 -0.9096 -0.2448
vn 0.4502 -0.8314 -0.3258
vn 0.7666 -0.3234 -0.5548
vn 0.7997 -0.1441 -0.5828
vn 0.2437 -0.9096 -0.3365
vn 0.3275 -0.8314 -0.4489
vn 0.5576 -0.3234 -0.7645
vn 0.5805 -0.1441 -0.8014
vn 0.1279 -0.9095 -0.3955
vn -0.0000 -0.9096 -0.4155
vn 0.0001 -0.8314 -0.5557
vn 0.1728 -0.8312 -0.5285
vn 0.2940 -0.3241 -0.8992
vn -0.0001 -0.3234 -0.9463
vn -0.0003 -0.1441 -0.9896
vn 0.3045 -0.1445 -0.9415
vn -0.1290 -0.9097 -0.3948
vn -0.1707 -0.8316 -0.5285
vn -0.2908 -0.3227 -0.9007
vn -0.3071 -0.1438 -0.9408
vn -0.2448 -0.9096 -0.3358
vn -0.3258 -0.8314 -0.4502
vn -0.3365 -0.9096 -0.2437
vn -0.4489 -0.8314 -0.3275
vn -0.5548 -0.3234 -0.7666
vn -0.7645 -0.3234 -0.5576
vn -0.8014 -0.1441 -0.5805
vn -0.5828 -0.1441 -0.7997
vn -0.3954 -0.9096 -0.1278
vn -0.5281 -0.8314 -0.1727
vn -0.8994 -0.3234 -0.2941
vn -0.9416 -0.1441 -0.3044
vn -0.4155 -0.9096 0.0006
vn -0.5557 -0.8314 -0.0010
vn -0.9463 -0.3234 -0.0018
vn -0.9896 -0.1441 0.0015
vn -0.3950 -0.9096 0.1290
vn -0.5288 -0.8314 0.1707
vn -0.9005 -0.3234 0.2907
vn -0.9407 -0.1441 0.3072
vn -0.3358 -0.9096 0.2448
vn -0.4502 -0.8314 0.3258
vn -0.7666 -0.3234 0.5548
vn -0.7997 -0.1441 0.5828
vn -0.2437 -0.9096 0.3365
vn -0.3275 -0.8314 0.4489
vn -0.5576 -0.3234 0.7645
vn -0.5804 -0.1441 0.8014
vn -0.0005 0.9372 0.3488
vn -0.1083 0.9372 0.3315
vn -0.1518 0.8695 0.4700
vn 0.0009 0.8695 0.4939
vn 0.0010 0.3894 0.9211
vn -0.2837 0.3894 0.8763
vn -0.3010 0.2120 0.9298
vn 0.0011 0.2120 0.9773
vn 0.3030 0.2120 0.9291
vn 0.2856 0.3894 0.8757
vn 0.1535 0.8695 0.4695
vn 0.1073 0.9372 0.3319
vn 0.5753 0.2120 0.7900
vn 0.5422 0.3894 0.7446
vn 0.2911 0.8695 0.3991
vn 0.2046 0.9372 0.2825
vn 0.7912 0.2120 0.5736
vn 0.7458 0.3894 0.5406
vn 0.4001 0.8695 0.2896
vn 0.2818 0.9372 0.2054
vn 0.9298 0.2120 0.3010
vn 0.8763 0.3894 0.2837
vn 0.4700 0.8695 0.1518
vn 0.3315 0.9372 0.1083
vn 0.9773 0.2120 -0.0011
vn 0.9211 0.3894 -0.0010
vn 0.4939 0.8695 -0.0009
vn 0.3488 0.9372 0.0005
vn 0.9291 0.2120 -0.3030
vn 0.8757 0.3894 -0.2856
vn 0.4695 0.8695 -0.1535
vn 0.3319 0.9372 -0.1073
vn 0.7900 0.2120 -0.5753
vn 0.7446 0.3894 -0.5422
vn 0.3991 0.8695 -0.2911
vn 0.2825 0.9372 -0.2046
vn 0.5736 0.2120 -0.7912
vn 0.5406 0.3894 -0.7458
vn 0.2896 0.8695 -0.4001
vn 0.2054 0.9372 -0.2818
vn 0.3012 0.2120 -0.9297
vn -0.0005 0.2120 -0.9773
vn -0.0005 0.3894 -0.9211
vn 0.2839 0.3894 -0.8762
vn 0.1517 0.8697 -0.4697
vn -0.0001 0.8695 -0.4939
vn -0.0000 0.9372 -0.3488
vn 0.1083 0.9373 -0.3314
vn -0.3028 0.2120 -0.9292
vn -0.2853 0.3894 -0.8758
vn -0.1536 0.8693 -0.4698
vn -0.1073 0.9372 -0.3320
vn -0.5753 0.2120 -0.7900
vn -0.5422 0.3894 -0.7446
vn -0.7912 0.2120 -0.5736
vn -0.7458 0.3894 -0.5406
vn -0.2911 0.8695 -0.3991
vn -0.4001 0.8695 -0.2896
vn -0.2818 0.9372 -0.2054
vn -0.2046 0.9372 -0.2825
vn -0.9298 0.2120 -0.3010
vn -0.8763 0.3894 -0.2837
vn -0.4700 0.8695 -0.1518
vn -0.3315 0.9372 -0.1083
vn -0.9773 0.2120 0.0011
vn -0.9211 0.3894 0.0010
vn -0.4939 0.8695 0.0009
vn -0.3488 0.9372 -0.0005
vn -0.9291 0.2120 0.3030
vn -0.8757 0.3894 0.2856
vn -0.4695 0.8695 0.1535
vn -0.3319 0.9372 0.1073
vn -0.7900 0.2120 0.5753
vn -0.7446 0.3894 0.5422
vn -0.3991 0.8695 0.2911
vn -0.2825 0.9372 0.2046
vn -0.5736 0.2120 0.7912
vn -0.5406 0.3894 0.7458
vn -0.2896 0.8695 0.4001
vn -0.2054 0.9372 0.2818
vn -0.0022 -0.3635 0.9316
vn -0.2899 -0.3635 0.8853
vn -0.3020 -0.1884 0.9345
vn 0.0016 -0.1884 0.9821
vn 0.3050 -0.1884 0.9335
vn 0.2858 -0.3636 0.8866
vn 0.5786 -0.1884 0.7936
vn 0.5458 -0.3636 0.7549
vn 0.7955 -0.1884 0.5760
vn 0.7524 -0.3636 0.5493
vn 0.9345 -0.1884 0.3020
vn 0.8853 -0.3635 0.2899
vn 0.9821 -0.1884 -0.0016
vn 0.9316 -0.3635 0.0022
vn 0.9335 -0.1884 -0.3050
vn 0.8866 -0.3635 -0.2858
vn 0.7936 -0.1884 -0.5786
vn 0.7549 -0.3636 -0.5458
vn 0.5760 -0.1884 -0.7955
vn 0.5493 -0.3636 -0.7524
vn 0.3021 -0.1880 -0.9346
vn -0.0003 -0.1884 -0.9821
vn -0.0000 -0.3635 -0.9316
vn 0.2900 -0.3628 -0.8856
vn -0.3049 -0.1888 -0.9335
vn -0.2858 -0.3643 -0.8863
vn -0.5786 -0.1884 -0.7936
vn -0.5458 -0.3636 -0.7549
vn -0.7955 -0.1884 -0.5760
vn -0.7524 -0.3635 -0.5493
vn -0.9345 -0.1884 -0.3020
vn -0.8853 -0.3635 -0.2899
vn -0.9821 -0.1884 0.0016
vn -0.9316 -0.3635 -0.0022
vn -0.9335 -0.1884 0.3050
vn -0.8866 -0.3636 0.2858
vn -0.7936 -0.1884 0.5786
vn -0.7549 -0.3635 0.5458
vn -0.5760 -0.1884 0.7955
vn -0.5493 -0.3635 0.7524
vn 0.3097 0.0003 0.9508
vn 0.5886 0.0004 0.8084
vn -0.8090 -0.0000 0.5879
vn 0.8099 0.0003 0.5866
vn -0.5877 -0.0001 0.8091
vn 0.0006 0.0003 1.0000
vn -0.3087 0.0001 0.9512
vt 0.961290 0.494966
vt 0.966145 0.489969
vt 0.968081 0.495648
vt 0.968168 0.501648
vt 0.230318 0.166708
vt 0.230356 0.184076
vt 0.226178 0.183535
vt 0.226177 0.167486
vt 0.221218 0.152221
vt 0.224916 0.150203
vt 0.211784 0.139237
vt 0.214677 0.136174
vt 0.198800 0.129803
vt 0.200605 0.125996
vt 0.183535 0.124844
vt 0.184076 0.120665
vt 0.167486 0.124844
vt 0.166708 0.120703
vt 0.152221 0.129803
vt 0.150203 0.126105
vt 0.139237 0.139237
vt 0.136174 0.136344
vt 0.129803 0.152222
vt 0.125996 0.150416
vt 0.124844 0.167486
vt 0.124853 0.183594
vt 0.120694 0.184257
vt 0.120665 0.166945
vt 0.129803 0.198800
vt 0.126105 0.200818
vt 0.139237 0.211784
vt 0.152221 0.221218
vt 0.150416 0.225025
vt 0.136344 0.214847
vt 0.167486 0.226177
vt 0.166945 0.230356
vt 0.183535 0.226177
vt 0.184313 0.230318
vt 0.198800 0.221218
vt 0.200818 0.224916
vt 0.211784 0.211784
vt 0.214847 0.214677
vt 0.221218 0.198800
vt 0.225025 0.200605
vt 0.760393 0.901046
vt 0.760928 0.954515
vt 0.755900 0.953955
vt 0.755367 0.901115
vt 0.351021 0.147712
vt 0.351021 0.203309
vt 0.346343 0.202189
vt 0.346226 0.148094
vt 0.329398 0.096682
vt 0.333841 0.094837
vt 0.755363 0.845519
vt 0.760393 0.844828
vt 0.297507 0.052986
vt 0.301162 0.049859
vt 0.755889 0.792609
vt 0.760928 0.791364
vt 0.253674 0.021284
vt 0.256184 0.017180
vt 0.756893 0.747564
vt 0.761946 0.745887
vt 0.202190 0.004679
vt 0.203309 0.000000
vt 0.815342 0.998867
vt 0.814332 0.953947
vt 0.819360 0.954506
vt 0.820378 1.000000
vt 0.148094 0.004796
vt 0.147712 0.000000
vt 0.813799 0.901102
vt 0.818825 0.901033
vt 0.096682 0.021623
vt 0.094837 0.017180
vt 0.813796 0.845506
vt 0.818825 0.844815
vt 0.052986 0.053514
vt 0.049859 0.049859
vt 0.814322 0.792600
vt 0.819360 0.791355
vt 0.021284 0.097347
vt 0.017180 0.094837
vt 0.815325 0.747564
vt 0.820379 0.745887
vt 0.004679 0.148832
vt 0.004767 0.202746
vt 0.000031 0.203502
vt 0.000000 0.147712
vt 0.726694 0.954839
vt 0.725901 0.902330
vt 0.730930 0.902679
vt 0.731724 0.955435
vt 0.021623 0.254339
vt 0.017180 0.256184
vt 0.725628 0.846953
vt 0.730654 0.846298
vt 0.053514 0.298035
vt 0.049859 0.301162
vt 0.097348 0.329737
vt 0.094837 0.333841
vt 0.725895 0.793571
vt 0.726680 0.747602
vt 0.731724 0.745939
vt 0.730928 0.792353
vt 0.148832 0.346342
vt 0.147712 0.351021
vt 0.812249 0.747021
vt 0.813259 0.791928
vt 0.808231 0.791368
vt 0.807213 0.745887
vt 0.202927 0.346226
vt 0.203309 0.351021
vt 0.813792 0.844765
vt 0.808766 0.844834
vt 0.254339 0.329398
vt 0.256184 0.333841
vt 0.813796 0.900362
vt 0.808766 0.901052
vt 0.298035 0.297507
vt 0.301162 0.301162
vt 0.813270 0.953274
vt 0.808231 0.954518
vt 0.329737 0.253674
vt 0.333841 0.256184
vt 0.812266 0.998324
vt 0.807213 1.000000
vt 0.756910 0.998867
vt 0.761946 1.000000
vt 0.784061 0.900159
vt 0.784579 0.951939
vt 0.779804 0.953760
vt 0.779274 0.900786
vt 0.773879 0.954515
vt 0.773343 0.901046
vt 0.773343 0.844828
vt 0.779274 0.845089
vt 0.784061 0.845717
vt 0.773879 0.791364
vt 0.779804 0.792119
vt 0.784579 0.793941
vt 0.774897 0.745887
vt 0.780813 0.747063
vt 0.252690 0.364270
vt 0.297750 0.397009
vt 0.294913 0.399846
vt 0.250868 0.367845
vt 0.833329 1.000000
vt 0.832311 0.954506
vt 0.838237 0.953752
vt 0.839245 0.998825
vt 0.330488 0.442069
vt 0.326914 0.443891
vt 0.831776 0.901032
vt 0.837706 0.900773
vt 0.842494 0.900147
vt 0.843012 0.951932
vt 0.831776 0.844815
vt 0.837706 0.845075
vt 0.842494 0.845704
vt 0.832311 0.791355
vt 0.838237 0.792110
vt 0.843012 0.793933
vt 0.833329 0.745887
vt 0.839245 0.747063
vt 0.330488 0.603711
vt 0.297750 0.648771
vt 0.294913 0.645934
vt 0.326914 0.601889
vt 0.727923 0.998783
vt 0.732965 0.999944
vt 0.744675 0.955383
vt 0.743880 0.902627
vt 0.749810 0.902295
vt 0.750597 0.954563
vt 0.754594 0.901530
vt 0.755363 0.952620
vt 0.743604 0.846246
vt 0.749536 0.846435
vt 0.754326 0.846929
vt 0.743879 0.792302
vt 0.749808 0.792990
vt 0.744675 0.745887
vt 0.750597 0.747005
vt 0.755363 0.749740
vt 0.754592 0.794688
vt 0.794262 0.745887
vt 0.795280 0.791368
vt 0.789355 0.792122
vt 0.788346 0.747062
vt 0.045987 0.648771
vt 0.013249 0.603710
vt 0.016824 0.601889
vt 0.048824 0.645934
vt 0.795816 0.844834
vt 0.789885 0.845094
vt 0.785098 0.845721
vt 0.784580 0.793944
vt 0.795816 0.901052
vt 0.789885 0.900792
vt 0.785098 0.900164
vt 0.795280 0.954518
vt 0.789355 0.953764
vt 0.784580 0.951942
vt 0.794262 1.000000
vt 0.788346 0.998825
vt 0.013249 0.442069
vt 0.045988 0.397009
vt 0.048824 0.399845
vt 0.016824 0.443890
vt 0.774897 1.000000
vt 0.780813 0.998825
vt 0.091048 0.364270
vt 0.092869 0.367845
vt 0.745916 0.999892
vt 0.751826 0.998660
vt 0.252689 0.681510
vt 0.250868 0.677935
vt 0.156489 0.425788
vt 0.127236 0.435293
vt 0.110989 0.403406
vt 0.150891 0.390441
vt 0.192847 0.390441
vt 0.187248 0.425788
vt 0.232749 0.403406
vt 0.216501 0.435293
vt 0.266692 0.428067
vt 0.241386 0.453373
vt 0.291353 0.462010
vt 0.259465 0.478257
vt 0.304318 0.501912
vt 0.268970 0.507511
vt 0.304318 0.543868
vt 0.268970 0.538269
vt 0.291353 0.583770
vt 0.259465 0.567523
vt 0.266692 0.617713
vt 0.241386 0.592407
vt 0.232749 0.642374
vt 0.192986 0.655316
vt 0.187349 0.619975
vt 0.216501 0.610486
vt 0.150891 0.655339
vt 0.156489 0.619991
vt 0.110989 0.642374
vt 0.077046 0.617713
vt 0.102352 0.592407
vt 0.127236 0.610486
vt 0.052385 0.583770
vt 0.084272 0.567522
vt 0.039420 0.543868
vt 0.074767 0.538269
vt 0.039420 0.501912
vt 0.074767 0.507510
vt 0.052385 0.462010
vt 0.084272 0.478257
vt 0.077046 0.428067
vt 0.102352 0.453373
vt 0.741375 0.529115
vt 0.760386 0.528925
vt 0.770203 0.572491
vt 0.744756 0.572746
vt 0.718000 0.572746
vt 0.721386 0.529115
vt 0.692555 0.572491
vt 0.702377 0.528924
vt 0.670911 0.572006
vt 0.686207 0.528562
vt 0.269024 0.944592
vt 0.247372 0.945076
vt 0.237560 0.901510
vt 0.253736 0.901148
vt 0.221923 0.945331
vt 0.218547 0.901700
vt 0.195167 0.945331
vt 0.198558 0.901700
vt 0.169724 0.945076
vt 0.179551 0.901509
vt 0.148084 0.944591
vt 0.163384 0.901148
vt 0.386570 0.945083
vt 0.361459 0.945338
vt 0.357480 0.901704
vt 0.376241 0.901514
vt 0.334627 0.945339
vt 0.337435 0.901705
vt 0.308954 0.945083
vt 0.286866 0.944596
vt 0.301754 0.901150
vt 0.318255 0.901513
vt 0.129987 0.944592
vt 0.108341 0.945076
vt 0.098522 0.901510
vt 0.114692 0.901148
vt 0.082895 0.945331
vt 0.079511 0.901700
vt 0.056139 0.945331
vt 0.059523 0.901700
vt 0.030693 0.945076
vt 0.040512 0.901510
vt 0.009047 0.944592
vt 0.024341 0.901148
vt 0.791851 0.572006
vt 0.776559 0.528562
vt 0.144648 0.351021
vt 0.715997 0.589414
vt 0.746756 0.589414
vt 0.776010 0.589121
vt 0.199090 0.351021
vt 0.686745 0.589121
vt 0.661863 0.588564
vt 0.253176 0.961706
vt 0.278068 0.961149
vt 0.223919 0.961999
vt 0.343737 0.495669
vt 0.193161 0.961999
vt 0.343737 0.550111
vt 0.163911 0.961706
vt 0.139034 0.961149
vt 0.407756 0.944596
vt 0.392068 0.901150
vt 0.363821 0.962008
vt 0.392689 0.961714
vt 0.199272 0.694730
vt 0.332974 0.962009
vt 0.144647 0.694759
vt 0.303460 0.961714
vt 0.278068 0.961154
vt 0.092869 0.677935
vt 0.114150 0.961706
vt 0.084897 0.961999
vt 0.000000 0.550111
vt 0.054138 0.961999
vt 0.000000 0.495668
vt 0.024885 0.961706
vt 0.000000 0.961149
vt 0.800897 0.588564
vt 0.725325 0.435725
vt 0.737442 0.435725
vt 0.748966 0.435609
vt 0.713801 0.435609
vt 0.704000 0.435390
vt 0.226145 0.808195
vt 0.235951 0.807975
vt 0.214620 0.808310
vt 0.202503 0.808310
vt 0.190981 0.808195
vt 0.181181 0.807975
vt 0.417045 0.961155
vt 0.352888 0.808311
vt 0.364263 0.808196
vt 0.340739 0.808312
vt 0.319109 0.807975
vt 0.329112 0.808196
vt 0.087099 0.808195
vt 0.096902 0.807975
vt 0.075575 0.808310
vt 0.063458 0.808310
vt 0.051934 0.808195
vt 0.042131 0.807975
vt 0.758770 0.435390
vt 0.738892 0.407757
vt 0.753179 0.407614
vt 0.751432 0.424420
vt 0.738291 0.424552
vt 0.724474 0.424552
vt 0.723872 0.407757
vt 0.711335 0.424420
vt 0.709586 0.407614
vt 0.700158 0.424170
vt 0.697435 0.407342
vt 0.239790 0.796755
vt 0.228609 0.797006
vt 0.230356 0.780199
vt 0.242511 0.779927
vt 0.215468 0.797137
vt 0.216068 0.780342
vt 0.201651 0.797137
vt 0.201047 0.780342
vt 0.188512 0.797006
vt 0.186763 0.780199
vt 0.177338 0.796755
vt 0.174615 0.779927
vt 0.366877 0.797007
vt 0.353908 0.797139
vt 0.354638 0.780345
vt 0.368737 0.780202
vt 0.340053 0.797139
vt 0.339575 0.780345
vt 0.326796 0.797007
vt 0.315390 0.796756
vt 0.312762 0.779928
vt 0.325163 0.780202
vt 0.100743 0.796755
vt 0.089565 0.797006
vt 0.091313 0.780199
vt 0.103465 0.779927
vt 0.076425 0.797137
vt 0.077027 0.780342
vt 0.062608 0.797137
vt 0.062006 0.780342
vt 0.049468 0.797006
vt 0.047721 0.780199
vt 0.038290 0.796755
vt 0.035568 0.779927
vt 0.762610 0.424170
vt 0.765332 0.407342
vt 0.737990 0.384127
vt 0.750559 0.384001
vt 0.753179 0.399877
vt 0.738892 0.400020
vt 0.723872 0.400020
vt 0.724775 0.384127
vt 0.709586 0.399877
vt 0.712207 0.384001
vt 0.697435 0.399605
vt 0.701517 0.383762
vt 0.242511 0.772190
vt 0.230356 0.772462
vt 0.227737 0.756586
vt 0.238432 0.756347
vt 0.216068 0.772605
vt 0.215167 0.756712
vt 0.201047 0.772605
vt 0.201952 0.756712
vt 0.186763 0.772462
vt 0.189385 0.756586
vt 0.174615 0.772190
vt 0.178697 0.756347
vt 0.373857 0.807975
vt 0.368744 0.772465
vt 0.354644 0.772608
vt 0.353586 0.756714
vt 0.365991 0.756588
vt 0.339582 0.772609
vt 0.340335 0.756714
vt 0.325169 0.772465
vt 0.312769 0.772191
vt 0.316745 0.756347
vt 0.327655 0.756588
vt 0.103465 0.772190
vt 0.091313 0.772462
vt 0.088693 0.756586
vt 0.099384 0.756347
vt 0.077027 0.772605
vt 0.076124 0.756712
vt 0.062006 0.772605
vt 0.062909 0.756712
vt 0.047721 0.772462
vt 0.050341 0.756586
vt 0.035568 0.772190
vt 0.039649 0.756347
vt 0.765332 0.399605
vt 0.761252 0.383762
vt 0.377817 0.796756
vt 0.380631 0.779928
vt 0.380638 0.772191
vt 0.376455 0.756347
vt 0.985698 0.493139
vt 0.973655 0.494993
vt 0.971243 0.487623
vt 0.982124 0.482139
vt 0.966671 0.481360
vt 0.975325 0.472782
vt 0.985698 0.504706
vt 0.973671 0.502747
vt 0.982124 0.515706
vt 0.971291 0.510126
vt 0.975325 0.525063
vt 0.966747 0.516409
vt 0.965968 0.531862
vt 0.960484 0.520980
vt 0.954968 0.535436
vt 0.953115 0.523392
vt 0.943402 0.535436
vt 0.945361 0.523409
vt 0.932401 0.531862
vt 0.937981 0.521029
vt 0.916246 0.515706
vt 0.927127 0.510222
vt 0.931698 0.516485
vt 0.923044 0.525063
vt 0.912671 0.504706
vt 0.924715 0.502852
vt 0.916246 0.482139
vt 0.927078 0.487719
vt 0.924698 0.495098
vt 0.912671 0.493139
vt 0.923044 0.472782
vt 0.931622 0.481436
vt 0.932401 0.465983
vt 0.937886 0.476865
vt 0.943402 0.462409
vt 0.945255 0.474452
vt 0.954968 0.462409
vt 0.953009 0.474436
vt 0.965968 0.465983
vt 0.960388 0.476816
vt 0.748167 0.373511
vt 0.757525 0.373302
vt 0.043376 0.745887
vt 0.052733 0.746097
vt 0.063733 0.746207
vt 0.075300 0.746207
vt 0.086300 0.746097
vt 0.095657 0.745887
vt 0.320373 0.745887
vt 0.329921 0.746098
vt 0.341019 0.746209
vt 0.352581 0.746209
vt 0.363474 0.746098
vt 0.182425 0.745887
vt 0.191780 0.746097
vt 0.202778 0.746207
vt 0.214345 0.746207
vt 0.225346 0.746097
vt 0.234706 0.745887
vt 0.705244 0.373302
vt 0.714601 0.373511
vt 0.725600 0.373622
vt 0.737167 0.373622
vt 0.372633 0.745887
vt 0.952459 0.517819
vt 0.958138 0.515882
vt 0.946459 0.517906
vt 0.940727 0.516135
vt 0.930288 0.502197
vt 0.932225 0.507876
vt 0.940232 0.481963
vt 0.935429 0.485559
vt 0.945911 0.480026
vt 0.951910 0.479939
vt 0.962941 0.512286
vt 0.966397 0.507381
vt 0.957643 0.481710
vt 0.962548 0.485167
vt 0.931973 0.490464
vt 0.930201 0.496197
vt 0.935822 0.512678
vt 0.949306 0.507303
vt 0.953436 0.503052
vt 0.952789 0.486708
vt 0.957040 0.490837
vt 0.940805 0.499044
vt 0.944934 0.494793
vt 0.949185 0.498923
vt 0.945055 0.503173
vt 0.937079 0.502879
vt 0.941330 0.507008
vt 0.945581 0.511137
vt 0.949063 0.490542
vt 0.953314 0.494672
vt 0.957565 0.498801
vt 0.816563 0.063184
vt 0.823181 0.083402
vt 0.810306 0.085469
vt 0.804958 0.069128
vt 0.398475 0.000475
vt 0.414828 0.000311
vt 0.412377 0.014623
vt 0.397631 0.014771
vt 0.382127 0.014771
vt 0.381281 0.000475
vt 0.794821 0.055240
vt 0.804022 0.046000
vt 0.367383 0.014623
vt 0.364930 0.000311
vt 0.780890 0.045164
vt 0.786784 0.033533
vt 0.354841 0.014342
vt 0.351021 0.000000
vt 0.764526 0.039886
vt 0.766538 0.027003
vt 0.580359 0.014342
vt 0.567812 0.014623
vt 0.570262 0.000311
vt 0.584176 -0.000000
vt 0.747332 0.039924
vt 0.745264 0.027049
vt 0.553065 0.014771
vt 0.553908 0.000475
vt 0.730991 0.045272
vt 0.725046 0.033666
vt 0.537562 0.014771
vt 0.536714 0.000475
vt 0.717103 0.055408
vt 0.707863 0.046208
vt 0.522818 0.014623
vt 0.520364 0.000311
vt 0.707027 0.069340
vt 0.695396 0.063445
vt 0.510279 0.014342
vt 0.506458 -0.000000
vt 0.701749 0.085704
vt 0.688866 0.083692
vt 0.645646 0.014624
vt 0.631094 0.014772
vt 0.632110 0.000477
vt 0.648248 0.000313
vt 0.701786 0.102898
vt 0.707109 0.119189
vt 0.695497 0.125121
vt 0.688912 0.104965
vt 0.615547 0.014772
vt 0.614868 0.000477
vt 0.717271 0.133127
vt 0.708071 0.142367
vt 0.600671 0.014624
vt 0.598370 0.000313
vt 0.587872 0.014342
vt 0.731203 0.143203
vt 0.747567 0.148481
vt 0.745555 0.161364
vt 0.725308 0.154834
vt 0.502639 0.014342
vt 0.490096 0.014623
vt 0.492548 0.000311
vt 0.764760 0.148443
vt 0.766828 0.161318
vt 0.475351 0.014771
vt 0.476196 0.000475
vt 0.781101 0.143095
vt 0.787046 0.154701
vt 0.459847 0.014771
vt 0.459002 0.000475
vt 0.794989 0.132959
vt 0.804230 0.142159
vt 0.445102 0.014623
vt 0.442650 0.000311
vt 0.805066 0.119027
vt 0.816697 0.124921
vt 0.432559 0.014343
vt 0.428740 0.000000
vt 0.810343 0.102663
vt 0.823227 0.104675
vt 0.424921 0.014343
vt 0.959341 0.206240
vt 0.974087 0.206093
vt 0.976575 0.220307
vt 0.960198 0.220470
vt 0.705291 0.255847
vt 0.699969 0.272224
vt 0.686891 0.270153
vt 0.693493 0.249836
vt 0.706049 0.232553
vt 0.715412 0.241916
vt 0.942978 0.220469
vt 0.943837 0.206239
vt 0.723332 0.219997
vt 0.729343 0.231794
vt 0.926601 0.220304
vt 0.929093 0.206090
vt 0.743649 0.213395
vt 0.745721 0.226473
vt 0.912671 0.219991
vt 0.916551 0.205808
vt 0.765012 0.213395
vt 0.762940 0.226473
vt 0.990508 0.300642
vt 0.976573 0.300953
vt 0.974085 0.286739
vt 0.986632 0.286459
vt 0.785329 0.219997
vt 0.779317 0.231794
vt 0.960193 0.301116
vt 0.959338 0.286885
vt 0.802612 0.232553
vt 0.793249 0.241916
vt 0.942974 0.301115
vt 0.943834 0.286884
vt 0.815168 0.249836
vt 0.803370 0.255847
vt 0.926599 0.300950
vt 0.929091 0.286736
vt 0.821770 0.270153
vt 0.808692 0.272224
vt 0.912671 0.300637
vt 0.916552 0.286454
vt 0.657923 0.014342
vt 0.661863 0.000000
vt 0.821770 0.291516
vt 0.815200 0.311770
vt 0.803396 0.305771
vt 0.808691 0.289444
vt 0.976840 0.462246
vt 0.960678 0.462409
vt 0.959672 0.448178
vt 0.974225 0.448031
vt 0.802612 0.329115
vt 0.793249 0.319753
vt 0.943410 0.462408
vt 0.944126 0.448177
vt 0.785329 0.341672
vt 0.779317 0.329874
vt 0.765012 0.348273
vt 0.762940 0.335195
vt 0.926887 0.462242
vt 0.912671 0.461928
vt 0.916450 0.447745
vt 0.929249 0.448028
vt 0.743649 0.348273
vt 0.745720 0.335195
vt 0.990508 0.381287
vt 0.976577 0.381598
vt 0.974088 0.367384
vt 0.986631 0.367104
vt 0.723332 0.341672
vt 0.729343 0.329874
vt 0.960200 0.381761
vt 0.959343 0.367531
vt 0.706049 0.329115
vt 0.715412 0.319753
vt 0.942980 0.381760
vt 0.943839 0.367530
vt 0.693493 0.311833
vt 0.705290 0.305821
vt 0.926603 0.381595
vt 0.929094 0.367381
vt 0.686891 0.291516
vt 0.699969 0.289444
vt 0.912671 0.381282
vt 0.916551 0.367100
vt 0.990508 0.219996
vt 0.986631 0.205813
vt 0.553062 0.024269
vt 0.567808 0.024029
vt 0.537559 0.024386
vt 0.522817 0.024371
vt 0.510279 0.024223
vt 0.631085 0.024872
vt 0.645638 0.024626
vt 0.615539 0.024937
vt 0.587864 0.024514
vt 0.600663 0.024813
vt 0.490095 0.024738
vt 0.502637 0.024515
vt 0.475350 0.024794
vt 0.459847 0.024676
vt 0.860518 0.538092
vt 0.860812 0.567524
vt 0.850518 0.566095
vt 0.850232 0.537740
vt 0.841010 0.050892
vt 0.850230 0.079266
vt 0.841072 0.080528
vt 0.832691 0.054922
vt 0.816808 0.033159
vt 0.823474 0.026755
vt 0.850230 0.507905
vt 0.860518 0.507145
vt 0.794976 0.017370
vt 0.799338 0.009219
vt 0.850512 0.479512
vt 0.860812 0.477715
vt 0.769334 0.009099
vt 0.770963 0.000000
vt 0.851051 0.455340
vt 0.861373 0.452681
vt 0.742391 0.009157
vt 0.741129 0.000000
vt 0.851060 0.869960
vt 0.850518 0.845855
vt 0.860812 0.847284
vt 0.861373 0.872327
vt 0.716785 0.017539
vt 0.712755 0.009219
vt 0.850232 0.817497
vt 0.860518 0.817848
vt 0.695022 0.033422
vt 0.688618 0.026756
vt 0.850230 0.787663
vt 0.860518 0.786902
vt 0.679232 0.055254
vt 0.671082 0.050892
vt 0.850512 0.759272
vt 0.860812 0.757474
vt 0.670962 0.080896
vt 0.661863 0.079266
vt 0.851051 0.735105
vt 0.861373 0.732445
vt 0.990476 0.461933
vt 0.986502 0.447749
vt 0.657914 0.024222
vt 0.671020 0.107839
vt 0.679361 0.133365
vt 0.671131 0.137570
vt 0.661863 0.109101
vt 0.962815 0.026037
vt 0.963103 0.054218
vt 0.952816 0.053548
vt 0.952521 0.024504
vt 0.695285 0.155208
vt 0.688618 0.161611
vt 0.963104 0.083933
vt 0.952817 0.084583
vt 0.717117 0.170997
vt 0.712755 0.179148
vt 0.742759 0.179268
vt 0.741129 0.188367
vt 0.962820 0.112578
vt 0.962279 0.137244
vt 0.951957 0.139825
vt 0.952521 0.114277
vt 0.769702 0.179210
vt 0.770964 0.188367
vt 0.899829 0.594931
vt 0.900371 0.619029
vt 0.890076 0.617599
vt 0.889516 0.592563
vt 0.795308 0.170828
vt 0.799338 0.179148
vt 0.900657 0.647383
vt 0.890371 0.647030
vt 0.817071 0.154945
vt 0.823474 0.161611
vt 0.900659 0.677217
vt 0.890371 0.677977
vt 0.832860 0.133113
vt 0.841010 0.137475
vt 0.900376 0.705611
vt 0.890076 0.707408
vt 0.841131 0.107471
vt 0.850230 0.109101
vt 0.899838 0.729786
vt 0.889516 0.732445
vt 0.851060 0.590196
vt 0.861373 0.592563
vt 0.679440 0.242879
vt 0.671377 0.267879
vt 0.661863 0.266189
vt 0.670914 0.238332
vt 0.899849 0.537264
vt 0.900128 0.565123
vt 0.889901 0.567063
vt 0.889609 0.537933
vt 0.889609 0.507304
vt 0.899849 0.507973
vt 0.688131 0.214635
vt 0.694834 0.221594
vt 0.889901 0.478176
vt 0.900128 0.480117
vt 0.711828 0.197418
vt 0.716052 0.206108
vt 0.890456 0.453399
vt 0.900659 0.456423
vt 0.739685 0.188367
vt 0.741017 0.197937
vt 0.890456 0.871609
vt 0.889901 0.846822
vt 0.900128 0.844883
vt 0.900659 0.868586
vt 0.768976 0.188367
vt 0.767286 0.197880
vt 0.889610 0.817689
vt 0.899849 0.817022
vt 0.796833 0.197418
vt 0.792286 0.205944
vt 0.889610 0.787061
vt 0.899849 0.787731
vt 0.820530 0.214635
vt 0.813570 0.221338
vt 0.889901 0.757935
vt 0.900128 0.759878
vt 0.837747 0.238332
vt 0.829056 0.242556
vt 0.890456 0.733163
vt 0.900659 0.736188
vt 0.846798 0.266189
vt 0.837228 0.267521
vt 0.962270 0.002452
vt 0.951958 -0.000000
vt 0.923432 0.024965
vt 0.923724 0.053711
vt 0.913484 0.054496
vt 0.913204 0.027006
vt 0.846798 0.295480
vt 0.837791 0.323250
vt 0.829178 0.318873
vt 0.837284 0.293789
vt 0.923725 0.084427
vt 0.913485 0.083871
vt 0.820530 0.347034
vt 0.813827 0.340074
vt 0.923432 0.113816
vt 0.913204 0.111976
vt 0.922874 0.139101
vt 0.912671 0.136157
vt 0.796833 0.364251
vt 0.768976 0.373302
vt 0.767644 0.363732
vt 0.792609 0.355560
vt 0.860433 0.593281
vt 0.860987 0.618060
vt 0.850760 0.620001
vt 0.850230 0.596304
vt 0.739685 0.373302
vt 0.741376 0.363788
vt 0.861279 0.647189
vt 0.851039 0.647858
vt 0.711828 0.364251
vt 0.716375 0.355725
vt 0.861279 0.677818
vt 0.851039 0.677149
vt 0.688131 0.347034
vt 0.695091 0.340331
vt 0.860987 0.706947
vt 0.850760 0.705006
vt 0.670914 0.323337
vt 0.679605 0.319113
vt 0.860433 0.731727
vt 0.850230 0.728703
vt 0.661863 0.295480
vt 0.671433 0.294148
vt 0.890456 0.591845
vt 0.900659 0.588822
vt 0.922874 0.000713
vt 0.912671 0.003812
vt 0.959728 0.140268
vt 0.974982 0.140115
vt 0.974091 0.144537
vt 0.959345 0.144684
vt 0.943841 0.144683
vt 0.943678 0.140268
vt 0.929097 0.144534
vt 0.928404 0.140115
vt 0.916555 0.144252
vt 0.915400 0.139825
vt 0.986635 0.224903
vt 0.974089 0.225183
vt 0.974979 0.220761
vt 0.987947 0.220470
vt 0.959342 0.225329
vt 0.959723 0.220914
vt 0.943838 0.225328
vt 0.943674 0.220914
vt 0.929094 0.225180
vt 0.928401 0.220761
vt 0.916555 0.224898
vt 0.915400 0.220470
vt 0.974284 0.386475
vt 0.959731 0.386622
vt 0.960060 0.382207
vt 0.975222 0.382054
vt 0.944185 0.386621
vt 0.944075 0.382207
vt 0.929308 0.386472
vt 0.928666 0.382053
vt 0.916509 0.386189
vt 0.915397 0.381761
vt 0.986635 0.305548
vt 0.974092 0.305828
vt 0.974983 0.301406
vt 0.987947 0.301116
vt 0.959347 0.305975
vt 0.959729 0.301559
vt 0.943843 0.305974
vt 0.943680 0.301559
vt 0.929098 0.305825
vt 0.928405 0.301407
vt 0.916555 0.305544
vt 0.915400 0.301116
vt 0.986635 0.144257
vt 0.987947 0.139825
vt 0.986560 0.386194
vt 0.987909 0.381761
vt 0.382127 0.024127
vt 0.367380 0.023955
vt 0.445110 0.024397
vt 0.580364 0.023691
vt 0.432565 0.023983
vt 0.397629 0.024192
vt 0.424924 0.023982
vt 0.412375 0.024142
vt 0.354838 0.023691
s 1
f 412/1/1 1/2/1 30/3/1 31/4/1
f 41/5/2 79/6/3 80/7/4 42/8/5
f 42/8/5 44/9/6 43/10/7 41/5/2
f 44/9/6 46/11/8 45/12/9 43/10/7
f 46/11/8 48/13/10 47/14/11 45/12/9
f 48/13/10 50/15/12 49/16/13 47/14/11
f 50/15/12 52/17/14 51/18/15 49/16/13
f 52/17/14 54/19/16 53/20/17 51/18/15
f 54/19/16 56/21/18 55/22/19 53/20/17
f 56/21/18 58/23/20 57/24/21 55/22/19
f 60/25/22 62/26/23 61/27/24 59/28/25
f 62/26/23 64/29/26 63/30/27 61/27/24
f 66/31/28 68/32/29 67/33/30 65/34/31
f 68/32/29 70/35/32 69/36/33 67/33/30
f 70/35/32 72/37/34 71/38/35 69/36/33
f 72/37/34 74/39/36 73/40/37 71/38/35
f 74/39/36 76/41/38 75/42/39 73/40/37
f 76/41/38 78/43/40 77/44/41 75/42/39
f 78/43/40 80/7/4 79/6/3 77/44/41
f 64/29/26 66/31/28 65/34/31 63/30/27
f 82/45/42 138/46/43 140/47/44 83/48/45
f 83/49/46 140/50/47 139/51/48 81/52/49
f 81/52/49 84/53/50 86/54/51 83/49/46
f 83/48/45 86/55/52 85/56/53 82/45/42
f 84/53/50 87/57/54 89/58/55 86/54/51
f 86/55/52 89/59/56 88/60/57 85/56/53
f 87/57/54 90/61/58 92/62/59 89/58/55
f 89/59/56 92/63/60 91/64/61 88/60/57
f 90/61/58 93/65/62 95/66/63 92/62/59
f 92/67/60 95/68/64 94/69/65 91/70/61
f 93/65/62 96/71/66 98/72/67 95/66/63
f 95/68/64 98/73/68 97/74/69 94/69/65
f 96/71/66 99/75/70 101/76/71 98/72/67
f 98/73/68 101/77/72 100/78/73 97/74/69
f 99/75/70 102/79/74 104/80/75 101/76/71
f 101/77/72 104/81/76 103/82/77 100/78/73
f 102/79/74 105/83/78 107/84/79 104/80/75
f 104/81/76 107/85/80 106/86/81 103/82/77
f 58/23/20 60/25/22 59/28/25 57/24/21
f 108/87/82 111/88/83 113/89/84 110/90/85
f 110/91/86 113/92/87 112/93/88 109/94/89
f 111/88/83 114/95/90 116/96/91 113/89/84
f 113/92/87 116/97/92 115/98/93 112/93/88
f 114/95/90 117/99/94 119/100/95 116/96/91
f 117/99/94 120/101/96 122/102/97 119/100/95
f 119/103/98 122/104/99 121/105/100 118/106/101
f 120/101/96 123/107/102 125/108/103 122/102/97
f 122/109/99 125/110/104 124/111/105 121/112/100
f 123/107/102 126/113/106 128/114/107 125/108/103
f 125/110/104 128/115/108 127/116/109 124/111/105
f 126/113/106 129/117/110 131/118/111 128/114/107
f 128/115/108 131/119/112 130/120/113 127/116/109
f 129/117/110 132/121/114 134/122/115 131/118/111
f 131/119/112 134/123/116 133/124/117 130/120/113
f 132/121/114 135/125/118 137/126/119 134/122/115
f 134/123/116 137/127/120 136/128/121 133/124/117
f 135/125/118 139/51/48 140/50/47 137/126/119
f 137/129/120 140/47/44 138/46/43 136/130/121
f 142/131/122 198/132/123 200/133/124 143/134/125
f 143/134/125 200/133/124 199/135/126 141/136/127
f 141/136/127 144/137/128 146/138/129 143/134/125
f 143/134/125 146/138/129 145/139/130 142/131/122
f 144/137/128 147/140/131 149/141/132 146/138/129
f 146/138/129 149/141/132 148/142/133 145/139/130
f 147/140/131 150/143/134 152/144/135 149/141/132
f 149/145/132 152/146/135 151/147/136 148/148/133
f 150/149/134 153/150/137 155/151/138 152/152/135
f 152/146/135 155/153/138 154/154/139 151/147/136
f 153/150/137 156/155/140 158/156/141 155/151/138
f 155/151/138 158/156/141 157/157/142 154/158/139
f 156/155/140 159/159/143 161/160/144 158/156/141
f 158/156/141 161/160/144 160/161/145 157/157/142
f 159/159/143 162/162/146 164/163/147 161/160/144
f 161/160/144 164/163/147 163/164/148 160/161/145
f 162/162/146 165/165/149 167/166/150 164/163/147
f 164/167/147 167/168/150 166/169/151 163/170/148
f 105/83/78 108/87/82 110/90/85 107/84/79
f 107/171/80 110/91/86 109/94/89 106/172/81
f 168/173/152 171/174/153 173/175/154 170/176/155
f 170/176/155 173/175/154 172/177/156 169/178/157
f 171/174/153 174/179/158 176/180/159 173/175/154
f 173/175/154 176/180/159 175/181/160 172/177/156
f 116/97/92 119/103/98 118/106/101 115/98/93
f 174/179/158 177/182/161 179/183/162 176/180/159
f 177/182/161 180/184/163 182/185/164 179/183/162
f 179/183/162 182/185/164 181/186/165 178/187/166
f 180/188/163 183/189/167 185/190/168 182/191/164
f 182/192/164 185/193/168 184/194/169 181/195/165
f 183/189/167 186/196/170 188/197/171 185/190/168
f 185/190/168 188/197/171 187/198/172 184/199/169
f 186/196/170 189/200/173 191/201/174 188/197/171
f 188/197/171 191/201/174 190/202/175 187/198/172
f 189/200/173 192/203/176 194/204/177 191/201/174
f 191/201/174 194/204/177 193/205/178 190/202/175
f 192/203/176 195/206/179 197/207/180 194/204/177
f 194/208/177 197/209/180 196/210/181 193/211/178
f 195/212/179 199/135/126 200/133/124 197/213/180
f 197/209/180 200/214/124 198/215/123 196/210/181
f 41/5/2 81/52/49 139/51/48 79/6/3
f 85/56/53 144/137/128 141/136/127 82/45/42
f 82/45/42 141/136/127 199/135/126 138/46/43
f 43/10/7 84/53/50 81/52/49 41/5/2
f 88/60/57 147/140/131 144/137/128 85/56/53
f 45/12/9 87/57/54 84/53/50 43/10/7
f 91/64/61 150/143/134 147/140/131 88/60/57
f 47/14/11 90/61/58 87/57/54 45/12/9
f 94/69/65 153/150/137 150/149/134 91/70/61
f 49/16/13 93/65/62 90/61/58 47/14/11
f 97/74/69 156/155/140 153/150/137 94/69/65
f 51/18/15 96/71/66 93/65/62 49/16/13
f 100/78/73 159/159/143 156/155/140 97/74/69
f 53/20/17 99/75/70 96/71/66 51/18/15
f 103/82/77 162/162/146 159/159/143 100/78/73
f 55/22/19 102/79/74 99/75/70 53/20/17
f 106/86/81 165/165/149 162/162/146 103/82/77
f 57/24/21 105/83/78 102/79/74 55/22/19
f 165/216/149 168/173/152 170/176/155 167/217/150
f 167/168/150 170/218/155 169/219/157 166/169/151
f 112/93/88 171/174/153 168/173/152 109/94/89
f 61/27/24 111/88/83 108/87/82 59/28/25
f 115/98/93 174/179/158 171/174/153 112/93/88
f 63/30/27 114/95/90 111/88/83 61/27/24
f 176/180/159 179/183/162 178/187/166 175/181/160
f 118/106/101 177/182/161 174/179/158 115/98/93
f 121/105/100 180/184/163 177/182/161 118/106/101
f 67/33/30 120/101/96 117/99/94 65/34/31
f 124/111/105 183/189/167 180/188/163 121/112/100
f 69/36/33 123/107/102 120/101/96 67/33/30
f 127/116/109 186/196/170 183/189/167 124/111/105
f 71/38/35 126/113/106 123/107/102 69/36/33
f 130/120/113 189/200/173 186/196/170 127/116/109
f 73/40/37 129/117/110 126/113/106 71/38/35
f 133/124/117 192/203/176 189/200/173 130/120/113
f 75/42/39 132/121/114 129/117/110 73/40/37
f 136/128/121 195/206/179 192/203/176 133/124/117
f 77/44/41 135/125/118 132/121/114 75/42/39
f 138/46/43 199/135/126 195/212/179 136/130/121
f 79/6/3 139/51/48 135/125/118 77/44/41
f 202/220/182 239/221/183 240/222/184 201/223/185
f 201/223/185 203/224/186 204/225/187 202/220/182
f 203/224/186 205/226/188 206/227/189 204/225/187
f 205/226/188 207/228/190 208/229/191 206/227/189
f 207/228/190 209/230/192 210/231/193 208/229/191
f 209/230/192 211/232/194 212/233/195 210/231/193
f 211/232/194 213/234/196 214/235/197 212/233/195
f 213/234/196 215/236/198 216/237/199 214/235/197
f 215/236/198 217/238/200 218/239/201 216/237/199
f 109/94/89 168/173/152 165/216/149 106/172/81
f 219/240/202 221/241/203 222/242/204 220/243/205
f 221/241/203 223/244/206 224/245/207 222/242/204
f 65/34/31 117/99/94 114/95/90 63/30/27
f 225/246/208 227/247/209 228/248/210 226/249/211
f 227/247/209 229/250/212 230/251/213 228/248/210
f 229/250/212 231/252/214 232/253/215 230/251/213
f 231/252/214 233/254/216 234/255/217 232/253/215
f 233/254/216 235/256/218 236/257/219 234/255/217
f 235/256/218 237/258/220 238/259/221 236/257/219
f 237/258/220 240/222/184 239/221/183 238/259/221
f 242/260/222 279/261/223 280/262/224 241/263/225
f 241/263/225 243/264/226 244/265/227 242/260/222
f 243/264/226 245/266/228 246/267/229 244/265/227
f 245/266/228 247/268/230 248/269/231 246/267/229
f 247/270/230 249/271/232 250/272/233 248/273/231
f 249/271/232 251/274/234 252/275/235 250/272/233
f 251/274/234 253/276/236 254/277/237 252/275/235
f 253/276/236 255/278/238 256/279/239 254/277/237
f 255/278/238 257/280/240 258/281/241 256/279/239
f 59/28/25 108/87/82 105/83/78 57/24/21
f 259/282/242 261/283/243 262/284/244 260/285/245
f 261/283/243 263/286/246 264/287/247 262/284/244
f 223/244/206 225/246/208 226/249/211 224/245/207
f 265/288/248 267/289/249 268/290/250 266/291/251
f 267/292/249 269/293/252 270/294/253 268/295/250
f 269/293/252 271/296/254 272/297/255 270/294/253
f 271/296/254 273/298/256 274/299/257 272/297/255
f 273/298/256 275/300/258 276/301/259 274/299/257
f 275/300/258 277/302/260 278/303/261 276/301/259
f 277/304/260 280/262/224 279/261/223 278/305/261
f 142/306/122 201/223/185 240/222/184 198/215/123
f 204/307/187 243/264/226 241/263/225 202/308/182
f 202/308/182 241/263/225 280/262/224 239/309/183
f 145/310/130 203/224/186 201/223/185 142/306/122
f 206/311/189 245/266/228 243/264/226 204/307/187
f 148/148/133 205/226/188 203/224/186 145/310/130
f 208/312/191 247/268/230 245/266/228 206/311/189
f 151/147/136 207/228/190 205/226/188 148/148/133
f 210/313/193 249/271/232 247/270/230 208/314/191
f 154/154/139 209/230/192 207/228/190 151/147/136
f 212/315/195 251/274/234 249/271/232 210/313/193
f 157/316/142 211/232/194 209/230/192 154/154/139
f 214/317/197 253/276/236 251/274/234 212/315/195
f 160/318/145 213/234/196 211/232/194 157/316/142
f 216/319/199 255/278/238 253/276/236 214/317/197
f 163/170/148 215/236/198 213/234/196 160/318/145
f 218/320/201 257/280/240 255/278/238 216/319/199
f 166/169/151 217/238/200 215/236/198 163/170/148
f 217/238/200 219/240/202 220/243/205 218/239/201
f 257/321/240 259/282/242 260/285/245 258/322/241
f 222/323/204 261/283/243 259/282/242 220/324/205
f 172/325/156 221/241/203 219/240/202 169/219/157
f 224/326/207 263/286/246 261/283/243 222/323/204
f 175/327/160 223/244/206 221/241/203 172/325/156
f 263/286/246 265/288/248 266/291/251 264/287/247
f 226/328/211 265/288/248 263/286/246 224/326/207
f 228/329/210 267/289/249 265/288/248 226/328/211
f 181/195/165 227/247/209 225/246/208 178/330/166
f 230/331/213 269/293/252 267/292/249 228/320/210
f 184/194/169 229/250/212 227/247/209 181/195/165
f 232/332/215 271/296/254 269/293/252 230/331/213
f 187/333/172 231/252/214 229/250/212 184/194/169
f 234/334/217 273/298/256 271/296/254 232/332/215
f 190/335/175 233/254/216 231/252/214 187/333/172
f 236/336/219 275/300/258 273/298/256 234/334/217
f 193/211/178 235/256/218 233/254/216 190/335/175
f 238/337/221 277/302/260 275/300/258 236/336/219
f 196/210/181 237/258/220 235/256/218 193/211/178
f 239/309/183 280/262/224 277/304/260 238/338/221
f 198/215/123 240/222/184 237/258/220 196/210/181
f 244/265/227 11/339/262 10/340/263 242/260/222
f 242/260/222 10/340/263 29/341/264 279/261/223
f 246/267/229 12/342/265 11/339/262 244/265/227
f 248/269/231 13/343/266 12/342/265 246/267/229
f 250/272/233 14/344/267 13/345/266 248/273/231
f 252/275/235 15/346/268 14/344/267 250/272/233
f 254/277/237 16/347/269 15/346/268 252/275/235
f 256/279/239 17/348/270 16/347/269 254/277/237
f 258/281/241 18/349/271 17/348/270 256/279/239
f 220/324/205 259/282/242 257/321/240 218/350/201
f 262/284/244 20/351/272 19/352/273 260/285/245
f 264/287/247 21/353/274 20/351/272 262/284/244
f 178/330/166 225/246/208 223/244/206 175/327/160
f 268/290/250 23/354/275 22/355/276 266/291/251
f 270/294/253 24/356/277 23/357/275 268/295/250
f 272/297/255 25/358/278 24/356/277 270/294/253
f 274/299/257 26/359/279 25/358/278 272/297/255
f 276/301/259 27/360/280 26/359/279 274/299/257
f 278/303/261 28/361/281 27/360/280 276/301/259
f 279/261/223 29/341/264 28/362/281 278/305/261
f 282/363/282 319/364/283 320/365/284 281/366/285
f 281/366/285 283/367/286 284/368/287 282/363/282
f 283/367/286 285/369/288 286/370/289 284/368/287
f 285/369/288 287/371/290 288/372/291 286/370/289
f 287/373/290 289/374/292 290/375/293 288/376/291
f 289/374/292 291/377/294 292/378/295 290/375/293
f 291/377/294 293/379/296 294/380/297 292/378/295
f 293/379/296 295/381/298 296/382/299 294/380/297
f 295/381/298 297/383/300 298/384/301 296/382/299
f 169/219/157 219/240/202 217/238/200 166/169/151
f 299/385/302 301/386/303 302/387/304 300/388/305
f 301/386/303 303/389/306 304/390/307 302/387/304
f 266/291/251 22/355/276 21/353/274 264/287/247
f 305/391/308 307/392/309 308/393/310 306/394/311
f 307/395/309 309/396/312 310/397/313 308/398/310
f 309/396/312 311/399/314 312/400/315 310/397/313
f 311/399/314 313/401/316 314/402/317 312/400/315
f 313/401/316 315/403/318 316/404/319 314/402/317
f 315/403/318 317/405/320 318/406/321 316/404/319
f 317/407/320 320/365/284 319/364/283 318/408/321
f 322/409/322 359/410/323 360/411/324 321/412/325
f 321/412/325 323/413/326 324/414/327 322/409/322
f 323/413/326 325/415/328 326/416/329 324/414/327
f 325/415/328 327/417/330 328/418/331 326/416/329
f 327/419/330 329/420/332 330/421/333 328/422/331
f 329/420/332 331/423/334 332/424/335 330/421/333
f 331/423/334 333/425/336 334/426/337 332/424/335
f 333/425/336 335/427/338 336/428/339 334/426/337
f 335/427/338 337/429/340 338/430/341 336/428/339
f 260/285/245 19/352/273 18/431/271 258/322/241
f 339/432/342 341/433/343 342/434/344 340/435/345
f 341/433/343 343/436/346 344/437/347 342/434/344
f 303/389/306 305/391/308 306/394/311 304/390/307
f 345/438/348 347/439/349 348/440/350 346/441/351
f 347/442/349 349/443/352 350/444/353 348/445/350
f 349/443/352 351/446/354 352/447/355 350/444/353
f 351/446/354 353/448/356 354/449/357 352/447/355
f 353/448/356 355/450/358 356/451/359 354/449/357
f 355/450/358 357/452/360 358/453/361 356/451/359
f 357/454/360 360/411/324 359/410/323 358/455/361
f 11/339/362 283/367/286 281/366/285 10/340/363
f 10/340/363 281/366/285 320/365/284 29/341/364
f 284/368/287 323/413/326 321/412/325 282/363/282
f 282/363/282 321/412/325 360/411/324 319/364/283
f 12/342/365 285/369/288 283/367/286 11/339/362
f 286/370/289 325/415/328 323/413/326 284/368/287
f 13/343/366 287/371/290 285/369/288 12/342/365
f 288/372/291 327/417/330 325/415/328 286/370/289
f 14/344/367 289/374/292 287/373/290 13/345/366
f 290/375/293 329/420/332 327/419/330 288/376/291
f 15/346/368 291/377/294 289/374/292 14/344/367
f 292/378/295 331/423/334 329/420/332 290/375/293
f 16/347/369 293/379/296 291/377/294 15/346/368
f 294/380/297 333/425/336 331/423/334 292/378/295
f 17/348/370 295/381/298 293/379/296 16/347/369
f 296/382/299 335/427/338 333/425/336 294/380/297
f 18/349/371 297/383/300 295/381/298 17/348/370
f 298/384/301 337/429/340 335/427/338 296/382/299
f 297/456/300 299/385/302 300/388/305 298/457/301
f 337/458/340 339/432/342 340/435/345 338/459/341
f 20/351/372 301/386/303 299/385/302 19/352/373
f 302/387/304 341/433/343 339/432/342 300/388/305
f 21/353/374 303/389/306 301/386/303 20/351/372
f 304/390/307 343/436/346 341/433/343 302/387/304
f 343/436/346 345/438/348 346/441/351 344/437/347
f 22/355/375 305/391/308 303/389/306 21/353/374
f 23/354/376 307/392/309 305/391/308 22/355/375
f 308/393/310 347/439/349 345/438/348 306/394/311
f 24/356/377 309/396/312 307/395/309 23/357/376
f 310/397/313 349/443/352 347/442/349 308/398/310
f 25/358/378 311/399/314 309/396/312 24/356/377
f 312/400/315 351/446/354 349/443/352 310/397/313
f 26/359/379 313/401/316 311/399/314 25/358/378
f 314/402/317 353/448/356 351/446/354 312/400/315
f 27/360/380 315/403/318 313/401/316 26/359/379
f 316/404/319 355/450/358 353/448/356 314/402/317
f 28/361/381 317/405/320 315/403/318 27/360/380
f 318/406/321 357/452/360 355/450/358 316/404/319
f 29/341/364 320/365/284 317/407/320 28/362/381
f 319/364/283 360/411/324 357/454/360 318/408/321
f 361/460/382 385/461/383 397/462/384 362/463/385
f 362/463/385 397/462/384 396/464/386 363/465/387
f 364/466/388 386/467/389 385/461/383 361/460/382
f 365/468/390 394/469/391 386/467/389 364/466/388
f 366/470/392 393/471/393 394/469/391 365/468/390
f 367/472/394 381/473/395 393/471/393 366/470/392
f 368/474/396 382/475/397 381/473/395 367/472/394
f 369/476/398 383/477/399 382/475/397 368/474/396
f 370/478/400 384/479/401 383/477/399 369/476/398
f 19/352/373 299/385/302 297/456/300 18/431/371
f 372/480/402 387/481/403 400/482/404 371/483/405
f 373/484/406 388/485/407 387/481/403 372/480/402
f 306/394/311 345/438/348 343/436/346 304/390/307
f 375/486/408 398/487/409 399/488/410 374/489/411
f 376/490/412 389/491/413 398/487/409 375/486/408
f 377/492/414 390/493/415 389/491/413 376/490/412
f 378/494/416 391/495/417 390/493/415 377/492/414
f 379/496/418 392/497/419 391/495/417 378/494/416
f 380/498/420 395/499/421 392/497/419 379/496/418
f 363/465/387 396/464/386 395/499/421 380/498/420
f 359/410/323 363/500/387 380/501/420 358/455/361
f 358/453/361 380/502/420 379/503/418 356/451/359
f 356/451/359 379/503/418 378/504/416 354/449/357
f 354/449/357 378/504/416 377/505/414 352/447/355
f 352/447/355 377/505/414 376/506/412 350/444/353
f 350/444/353 376/506/412 375/507/408 348/445/350
f 348/440/350 375/508/408 374/509/411 346/441/351
f 374/489/411 399/488/410 388/485/407 373/484/406
f 344/437/347 373/510/406 372/511/402 342/434/344
f 342/434/344 372/511/402 371/512/405 340/435/345
f 300/388/305 339/432/342 337/458/340 298/457/301
f 338/430/341 370/513/400 369/514/398 336/428/339
f 336/428/339 369/514/398 368/515/396 334/426/337
f 334/426/337 368/515/396 367/516/394 332/424/335
f 332/424/335 367/516/394 366/517/392 330/421/333
f 330/421/333 366/517/392 365/518/390 328/422/331
f 328/418/331 365/519/390 364/520/388 326/416/329
f 326/416/329 364/520/388 361/521/382 324/414/327
f 322/409/322 362/522/385 363/500/387 359/410/323
f 324/414/327 361/521/382 362/522/385 322/409/322
f 346/441/351 374/509/411 373/510/406 344/437/347
f 371/483/405 400/482/404 384/479/401 370/478/400
f 340/435/345 371/512/405 370/523/400 338/459/341
f 4/524/422 3/525/423 381/473/395 382/475/397
f 5/526/424 4/524/422 382/475/397 383/477/399
f 6/527/425 5/526/424 383/477/399 384/479/401
f 31/4/426 30/3/427 385/461/383 386/467/389
f 34/528/428 33/529/429 387/481/403 388/485/407
f 37/530/430 36/531/431 389/491/413 390/493/415
f 38/532/432 37/530/430 390/493/415 391/495/417
f 39/533/433 38/532/432 391/495/417 392/497/419
f 3/525/423 32/534/434 393/471/393 381/473/395
f 32/534/434 2/535/435 394/469/391 393/471/393
f 9/536/436 39/533/433 392/497/419 395/499/421
f 2/535/435 31/4/426 386/467/389 394/469/391
f 40/537/437 9/536/436 395/499/421 396/464/386
f 1/2/438 40/537/437 396/464/386 397/462/384
f 30/3/427 1/2/438 397/462/384 385/461/383
f 36/531/431 8/538/439 398/487/409 389/491/413
f 8/538/439 35/539/440 399/488/410 398/487/409
f 33/529/429 7/540/441 400/482/404 387/481/403
f 35/539/440 34/528/428 388/485/407 399/488/410
f 7/540/441 6/527/425 384/479/401 400/482/404
f 407/541/1 408/542/1 32/534/1 3/525/1
f 410/543/1 9/536/1 40/537/1 411/544/1
f 404/545/1 405/546/1 401/547/1 402/548/1
f 413/549/1 404/545/1 402/548/1 414/550/1
f 415/551/1 407/541/1 3/525/1 4/524/1
f 405/546/1 406/552/1 403/553/1 401/547/1
f 408/542/1 409/554/1 2/535/1 32/534/1
f 36/531/1 37/530/1 406/552/1 405/546/1
f 8/538/1 36/531/1 405/546/1 404/545/1
f 35/539/1 8/538/1 404/545/1 413/549/1
f 38/532/1 39/533/1 9/536/1 410/543/1
f 401/547/1 403/553/1 409/554/1 408/542/1
f 402/548/1 401/547/1 408/542/1 407/541/1
f 414/550/1 402/548/1 407/541/1 415/551/1
f 411/544/1 40/537/1 1/2/1 412/1/1
f 403/553/1 411/544/1 412/1/1 409/554/1
f 406/552/1 410/543/1 411/544/1 403/553/1
f 37/530/1 38/532/1 410/543/1 406/552/1
f 409/554/1 412/1/1 31/4/1 2/535/1
f 7/540/1 414/550/1 415/551/1 6/527/1
f 33/529/1 413/549/1 414/550/1 7/540/1
f 34/528/1 35/539/1 413/549/1 33/529/1
f 6/527/1 415/551/1 4/524/1 5/526/1
f 417/555/442 473/556/443 475/557/444 418/558/445
f 418/559/446 475/560/447 474/561/448 416/562/449
f 416/562/449 419/563/450 421/564/451 418/559/446
f 418/558/445 421/565/452 420/566/453 417/555/442
f 419/563/450 422/567/454 424/568/455 421/564/451
f 421/565/452 424/569/456 423/570/457 420/566/453
f 422/567/454 425/571/458 427/572/459 424/568/455
f 424/569/456 427/573/460 426/574/461 423/570/457
f 425/575/458 428/576/462 430/577/463 427/578/459
f 427/573/460 430/579/464 429/580/465 426/574/461
f 428/576/462 431/581/466 433/582/467 430/577/463
f 430/579/464 433/583/468 432/584/469 429/580/465
f 431/581/466 434/585/470 436/586/471 433/582/467
f 433/583/468 436/587/472 435/588/473 432/584/469
f 434/585/470 437/589/474 439/590/475 436/586/471
f 436/587/472 439/591/476 438/592/477 435/588/473
f 437/589/474 440/593/478 442/594/479 439/590/475
f 439/591/476 442/595/480 441/596/481 438/592/477
f 443/597/482 446/598/483 448/599/484 445/600/485
f 445/601/486 448/602/487 447/603/488 444/604/489
f 446/598/483 449/605/490 451/606/491 448/599/484
f 448/602/487 451/607/492 450/608/493 447/603/488
f 449/605/490 452/609/494 454/610/495 451/606/491
f 452/609/494 455/611/496 457/578/497 454/610/495
f 454/612/498 457/613/499 456/614/500 453/615/501
f 455/616/496 458/617/502 460/618/503 457/594/497
f 457/613/499 460/619/504 459/620/505 456/614/500
f 458/617/502 461/621/506 463/622/507 460/618/503
f 460/619/504 463/623/508 462/624/509 459/620/505
f 461/621/506 464/625/510 466/626/511 463/622/507
f 463/623/508 466/627/512 465/628/513 462/624/509
f 464/625/510 467/629/514 469/630/515 466/626/511
f 466/627/512 469/631/516 468/632/517 465/628/513
f 467/629/514 470/633/518 472/634/519 469/630/515
f 469/631/516 472/635/520 471/636/521 468/632/517
f 470/637/518 474/561/448 475/560/447 472/634/519
f 472/635/520 475/557/444 473/556/443 471/636/521
f 477/638/522 533/639/523 535/640/524 478/641/525
f 478/642/526 535/643/527 534/644/528 476/645/529
f 476/645/529 479/646/530 481/647/531 478/642/526
f 478/641/525 481/648/532 480/649/533 477/638/522
f 479/646/530 482/650/534 484/651/535 481/647/531
f 481/648/532 484/652/536 483/653/537 480/649/533
f 482/650/534 485/654/538 487/655/539 484/651/535
f 484/652/536 487/656/540 486/657/541 483/653/537
f 485/654/538 488/658/542 490/659/543 487/655/539
f 487/660/540 490/661/544 489/662/545 486/663/541
f 488/658/542 491/664/546 493/665/547 490/659/543
f 490/661/544 493/666/548 492/667/549 489/662/545
f 491/664/546 494/668/550 496/669/551 493/665/547
f 493/666/548 496/670/552 495/671/553 492/667/549
f 494/668/550 497/672/554 499/673/555 496/669/551
f 496/670/552 499/674/556 498/675/557 495/671/553
f 497/672/554 500/676/558 502/677/559 499/673/555
f 499/674/556 502/678/560 501/679/561 498/675/557
f 440/680/478 443/597/482 445/600/485 442/681/479
f 442/595/480 445/601/486 444/604/489 441/596/481
f 503/682/562 506/683/563 508/684/564 505/685/565
f 505/686/566 508/687/567 507/688/568 504/689/569
f 506/683/563 509/690/570 511/691/571 508/684/564
f 508/687/567 511/692/572 510/693/573 507/688/568
f 451/607/492 454/612/498 453/615/501 450/608/493
f 509/690/570 512/694/574 514/695/575 511/691/571
f 512/694/574 515/696/576 517/697/577 514/695/575
f 514/698/578 517/699/579 516/700/580 513/701/581
f 515/696/576 518/702/582 520/703/583 517/697/577
f 517/704/579 520/705/584 519/706/585 516/707/580
f 518/702/582 521/708/586 523/709/587 520/703/583
f 520/705/584 523/710/588 522/711/589 519/706/585
f 521/708/586 524/712/590 526/713/591 523/709/587
f 523/710/588 526/714/592 525/715/593 522/711/589
f 524/712/590 527/716/594 529/717/595 526/713/591
f 526/714/592 529/718/596 528/719/597 525/715/593
f 527/716/594 530/720/598 532/721/599 529/717/595
f 529/718/596 532/722/600 531/723/601 528/719/597
f 530/720/598 534/644/528 535/643/527 532/721/599
f 532/724/600 535/640/524 533/639/523 531/725/601
f 710/726/602 431/581/466 428/576/462 711/727/603
f 709/728/604 434/585/470 431/581/466 710/726/602
f 708/729/605 437/589/474 434/585/470 709/728/604
f 707/730/606 440/593/478 437/589/474 708/729/605
f 500/676/558 503/682/562 505/685/565 502/677/559
f 705/731/607 446/598/483 443/597/482 706/732/608
f 704/733/609 449/605/490 446/598/483 705/731/607
f 511/692/572 514/698/578 513/701/581 510/693/573
f 700/734/610 455/611/496 452/609/494 703/735/611
f 699/736/612 458/617/502 455/616/496 700/737/610
f 698/738/613 461/621/506 458/617/502 699/736/612
f 697/739/614 464/625/510 461/621/506 698/738/613
f 537/740/615 593/741/616 595/742/617 538/743/618
f 538/744/619 595/745/620 594/746/621 536/747/622
f 536/747/622 539/748/623 541/749/624 538/744/619
f 538/743/618 541/750/625 540/751/626 537/740/615
f 539/748/623 542/752/627 544/753/628 541/749/624
f 541/750/625 544/754/629 543/755/630 540/751/626
f 542/752/627 545/756/631 547/757/632 544/753/628
f 544/754/629 547/758/633 546/759/634 543/755/630
f 545/756/631 548/760/635 550/761/636 547/757/632
f 547/762/633 550/763/637 549/764/638 546/765/634
f 548/760/635 551/766/639 553/767/640 550/761/636
f 550/763/637 553/768/641 552/769/642 549/764/638
f 551/766/639 554/770/643 556/771/644 553/767/640
f 553/768/641 556/772/645 555/773/646 552/769/642
f 554/770/643 557/774/647 559/775/648 556/771/644
f 556/772/645 559/776/649 558/777/650 555/773/646
f 557/774/647 560/778/651 562/779/652 559/775/648
f 559/776/649 562/780/653 561/781/654 558/777/650
f 502/782/560 505/686/566 504/689/569 501/783/561
f 706/732/608 443/597/482 440/680/478 707/784/606
f 563/785/655 566/786/656 568/787/657 565/788/658
f 565/789/659 568/790/660 567/791/661 564/792/662
f 566/786/656 569/793/663 571/794/664 568/787/657
f 568/790/660 571/795/665 570/796/666 567/791/661
f 703/735/611 452/609/494 449/605/490 704/733/609
f 569/793/663 572/797/667 574/798/668 571/794/664
f 572/797/667 575/799/669 577/800/670 574/798/668
f 574/801/671 577/802/672 576/803/673 573/804/674
f 575/799/669 578/805/675 580/806/676 577/800/670
f 577/807/672 580/808/677 579/809/678 576/810/673
f 578/805/675 581/811/679 583/812/680 580/806/676
f 580/808/677 583/813/681 582/814/682 579/809/678
f 581/811/679 584/815/683 586/816/684 583/812/680
f 583/813/681 586/817/685 585/818/686 582/814/682
f 584/815/683 587/819/687 589/820/688 586/816/684
f 586/817/685 589/821/689 588/822/690 585/818/686
f 587/819/687 590/823/691 592/824/692 589/820/688
f 589/821/689 592/825/693 591/826/694 588/822/690
f 590/823/691 594/746/621 595/745/620 592/824/692
f 592/827/693 595/742/617 593/741/616 591/828/694
f 597/829/695 653/830/696 655/831/697 598/832/698
f 598/833/699 655/834/700 654/835/701 596/836/702
f 596/836/702 599/837/703 601/838/704 598/833/699
f 598/832/698 601/839/705 600/840/706 597/829/695
f 599/837/703 602/841/707 604/842/708 601/838/704
f 601/839/705 604/843/709 603/844/710 600/840/706
f 602/841/707 605/845/711 607/846/712 604/842/708
f 604/843/709 607/847/713 606/848/714 603/844/710
f 605/849/711 608/850/715 610/851/716 607/852/712
f 607/847/713 610/853/717 609/854/718 606/848/714
f 608/850/715 611/855/719 613/856/720 610/851/716
f 610/853/717 613/857/721 612/858/722 609/854/718
f 611/855/719 614/859/723 616/860/724 613/856/720
f 613/857/721 616/861/725 615/862/726 612/858/722
f 614/859/723 617/863/727 619/864/728 616/860/724
f 616/861/725 619/865/729 618/866/730 615/862/726
f 617/863/727 620/867/731 622/868/732 619/864/728
f 619/865/729 622/869/733 621/870/734 618/866/730
f 560/778/651 563/785/655 565/788/658 562/779/652
f 562/871/653 565/789/659 564/792/662 561/872/654
f 623/873/735 626/874/736 628/875/737 625/876/738
f 625/877/739 628/878/740 627/879/741 624/880/742
f 626/874/736 629/881/743 631/882/744 628/875/737
f 628/878/740 631/883/745 630/884/746 627/879/741
f 571/795/665 574/801/671 573/804/674 570/796/666
f 629/881/743 632/885/747 634/886/748 631/882/744
f 632/885/747 635/887/749 637/888/750 634/886/748
f 634/889/751 637/890/752 636/891/753 633/892/754
f 635/893/749 638/894/755 640/895/756 637/896/750
f 637/890/752 640/897/757 639/898/758 636/891/753
f 638/894/755 641/899/759 643/900/760 640/895/756
f 640/897/757 643/901/761 642/902/762 639/898/758
f 641/899/759 644/903/763 646/904/764 643/900/760
f 643/901/761 646/905/765 645/906/766 642/902/762
f 644/903/763 647/907/767 649/908/768 646/904/764
f 646/905/765 649/909/769 648/910/770 645/906/766
f 647/907/767 650/911/771 652/912/772 649/908/768
f 649/909/769 652/913/773 651/914/774 648/910/770
f 650/915/771 654/835/701 655/834/700 652/916/772
f 652/913/773 655/831/697 653/830/696 651/914/774
f 417/555/442 536/747/622 594/746/621 473/556/443
f 540/751/626 599/837/703 596/836/702 537/740/615
f 537/740/615 596/836/702 654/835/701 593/741/616
f 420/566/453 539/748/623 536/747/622 417/555/442
f 543/755/630 602/841/707 599/837/703 540/751/626
f 423/570/457 542/752/627 539/748/623 420/566/453
f 546/759/634 605/845/711 602/841/707 543/755/630
f 426/574/461 545/756/631 542/752/627 423/570/457
f 549/764/638 608/850/715 605/849/711 546/765/634
f 429/580/465 548/760/635 545/756/631 426/574/461
f 552/769/642 611/855/719 608/850/715 549/764/638
f 432/584/469 551/766/639 548/760/635 429/580/465
f 555/773/646 614/859/723 611/855/719 552/769/642
f 435/588/473 554/770/643 551/766/639 432/584/469
f 558/777/650 617/863/727 614/859/723 555/773/646
f 438/592/477 557/774/647 554/770/643 435/588/473
f 561/781/654 620/867/731 617/863/727 558/777/650
f 441/596/481 560/778/651 557/774/647 438/592/477
f 620/917/731 623/873/735 625/876/738 622/918/732
f 622/869/733 625/877/739 624/880/742 621/870/734
f 567/791/661 626/874/736 623/873/735 564/792/662
f 447/603/488 566/786/656 563/785/655 444/604/489
f 570/796/666 629/881/743 626/874/736 567/791/661
f 450/608/493 569/793/663 566/786/656 447/603/488
f 631/883/745 634/889/751 633/892/754 630/884/746
f 573/804/674 632/885/747 629/881/743 570/796/666
f 576/803/673 635/887/749 632/885/747 573/804/674
f 456/614/500 575/799/669 572/797/667 453/615/501
f 579/809/678 638/894/755 635/893/749 576/810/673
f 459/620/505 578/805/675 575/799/669 456/614/500
f 582/814/682 641/899/759 638/894/755 579/809/678
f 462/624/509 581/811/679 578/805/675 459/620/505
f 585/818/686 644/903/763 641/899/759 582/814/682
f 465/628/513 584/815/683 581/811/679 462/624/509
f 588/822/690 647/907/767 644/903/763 585/818/686
f 468/632/517 587/819/687 584/815/683 465/628/513
f 591/826/694 650/911/771 647/907/767 588/822/690
f 471/636/521 590/823/691 587/819/687 468/632/517
f 593/741/616 654/835/701 650/915/771 591/828/694
f 473/556/443 594/746/621 590/823/691 471/636/521
f 600/840/706 479/646/530 476/645/529 597/829/695
f 597/829/695 476/645/529 534/644/528 653/830/696
f 603/844/710 482/650/534 479/646/530 600/840/706
f 606/848/714 485/654/538 482/650/534 603/844/710
f 609/854/718 488/658/542 485/654/538 606/848/714
f 612/858/722 491/664/546 488/658/542 609/854/718
f 615/862/726 494/668/550 491/664/546 612/858/722
f 618/866/730 497/672/554 494/668/550 615/862/726
f 621/870/734 500/676/558 497/672/554 618/866/730
f 564/792/662 623/873/735 620/917/731 561/872/654
f 627/879/741 506/683/563 503/682/562 624/880/742
f 630/884/746 509/690/570 506/683/563 627/879/741
f 453/615/501 572/797/667 569/793/663 450/608/493
f 636/891/753 515/696/576 512/694/574 633/892/754
f 639/898/758 518/702/582 515/696/576 636/891/753
f 642/902/762 521/708/586 518/702/582 639/898/758
f 645/906/766 524/712/590 521/708/586 642/902/762
f 648/910/770 527/716/594 524/712/590 645/906/766
f 651/914/774 530/720/598 527/716/594 648/910/770
f 653/830/696 534/644/528 530/720/598 651/914/774
f 657/919/775 695/920/776 694/921/777 656/922/778
f 656/922/778 658/923/779 659/924/780 657/919/775
f 658/923/779 660/925/781 661/926/782 659/924/780
f 660/925/781 662/927/783 663/928/784 661/926/782
f 662/929/783 664/930/785 665/931/786 663/932/784
f 664/930/785 666/933/787 667/934/788 665/931/786
f 666/933/787 668/935/789 669/936/790 667/934/788
f 668/935/789 670/937/791 671/938/792 669/936/790
f 670/937/791 672/939/793 673/940/794 671/938/792
f 444/604/489 563/785/655 560/778/651 441/596/481
f 624/880/742 503/682/562 500/676/558 621/870/734
f 674/941/795 676/942/796 677/943/797 675/944/798
f 676/942/796 678/945/799 679/946/800 677/943/797
f 633/892/754 512/694/574 509/690/570 630/884/746
f 678/945/799 680/947/801 681/948/802 679/946/800
f 680/947/801 682/949/803 683/950/804 681/948/802
f 682/951/803 684/952/805 685/953/806 683/954/804
f 684/952/805 686/955/807 687/956/808 685/953/806
f 686/955/807 688/957/809 689/958/810 687/956/808
f 688/957/809 690/959/811 691/960/812 689/958/810
f 690/959/811 692/961/813 693/962/814 691/960/812
f 692/963/813 694/921/777 695/920/776 693/964/814
f 477/638/522 656/922/778 694/921/777 533/639/523
f 480/649/533 658/923/779 656/922/778 477/638/522
f 483/653/537 660/925/781 658/923/779 480/649/533
f 486/657/541 662/927/783 660/925/781 483/653/537
f 489/662/545 664/930/785 662/929/783 486/663/541
f 492/667/549 666/933/787 664/930/785 489/662/545
f 495/671/553 668/935/789 666/933/787 492/667/549
f 498/675/557 670/937/791 668/935/789 495/671/553
f 501/679/561 672/939/793 670/937/791 498/675/557
f 672/965/793 674/941/795 675/944/798 673/966/794
f 507/688/568 676/942/796 674/941/795 504/689/569
f 510/693/573 678/945/799 676/942/796 507/688/568
f 516/700/580 682/949/803 680/947/801 513/701/581
f 519/706/585 684/952/805 682/951/803 516/707/580
f 522/711/589 686/955/807 684/952/805 519/706/585
f 525/715/593 688/957/809 686/955/807 522/711/589
f 528/719/597 690/959/811 688/957/809 525/715/593
f 531/723/601 692/961/813 690/959/811 528/719/597
f 533/639/523 694/921/777 692/963/813 531/725/601
f 504/689/569 674/941/795 672/965/793 501/783/561
f 513/701/581 680/947/801 678/945/799 510/693/573
f 713/967/815 696/968/816 422/567/454 419/563/450
f 697/739/614 712/969/817 467/629/514 464/625/510
f 702/970/818 711/727/603 428/576/462 425/575/458
f 712/969/817 701/971/819 470/633/518 467/629/514
f 714/972/820 713/967/815 419/563/450 416/562/449
f 701/973/819 715/974/821 474/561/448 470/637/518
f 715/974/821 714/972/820 416/562/449 474/561/448
f 696/968/816 702/975/818 425/571/458 422/567/454
