# Blender 4.5.2 LTS
# www.blender.org
mtllib 4_JUNCTIONINTERIOR.mtl
o 4_JUNCTIONINTERIOR
v -0.243731 -0.602571 0.055774
v -0.225241 -0.602571 0.108615
v -0.195457 -0.602571 0.156016
v -0.155871 -0.602571 0.195601
v -0.108470 -0.602571 0.225386
v -0.055629 -0.602571 0.243876
v 0.000001 -0.602571 0.250144
v 0.055632 -0.602571 0.243876
v 0.108472 -0.602571 0.225386
v 0.155874 -0.602571 0.195601
v 0.195459 -0.602571 0.156016
v 0.225244 -0.602571 0.108614
v 0.243733 -0.602571 0.055774
v 0.250001 -0.602571 0.000143
v 0.243733 -0.602571 -0.055487
v 0.225243 -0.602571 -0.108328
v 0.195459 -0.602571 -0.155729
v 0.155873 -0.602571 -0.195314
v 0.108471 -0.602571 -0.225099
v 0.055631 -0.602571 -0.243588
v 0.000000 -0.602571 -0.249856
v -0.055630 -0.602571 -0.243588
v -0.108470 -0.602571 -0.225098
v -0.155872 -0.602571 -0.195314
v -0.195457 -0.602571 -0.155729
v -0.225241 -0.602571 -0.108327
v -0.243731 -0.602571 -0.055486
v -0.249999 -0.602571 0.000144
v -0.243731 -0.055630 0.055774
v -0.225241 -0.108471 0.108615
v -0.195457 -0.155872 0.156016
v -0.155871 -0.195458 0.195602
v -0.108470 -0.225242 0.225386
v -0.055629 -0.243732 0.243876
v 0.000001 -0.250000 0.250144
v 0.055632 -0.243732 0.243876
v 0.108472 -0.225242 0.225386
v 0.155874 -0.195458 0.195601
v 0.195459 -0.155872 0.156016
v 0.225244 -0.108471 0.108614
v 0.243733 -0.055630 0.055774
v 0.243733 -0.055630 -0.055487
v 0.225243 -0.108471 -0.108327
v 0.195459 -0.155873 -0.155729
v 0.155873 -0.195458 -0.195314
v 0.108471 -0.225242 -0.225099
v 0.055631 -0.243732 -0.243588
v 0.000000 -0.250000 -0.249856
v -0.055630 -0.243732 -0.243588
v -0.108470 -0.225242 -0.225098
v -0.155872 -0.195457 -0.195314
v -0.195457 -0.155872 -0.155728
v -0.225241 -0.108470 -0.108327
v -0.243731 -0.055630 -0.055486
v -0.249999 0.000000 0.000144
v -0.243731 0.602572 -0.055486
v -0.225241 0.602572 -0.108327
v -0.195457 0.602572 -0.155729
v -0.155871 0.602572 -0.195314
v -0.108470 0.602572 -0.225098
v -0.055629 0.602572 -0.243588
v 0.000001 0.602572 -0.249856
v 0.055632 0.602572 -0.243588
v 0.108472 0.602572 -0.225098
v 0.155874 0.602572 -0.195314
v 0.195459 0.602572 -0.155728
v 0.225244 0.602572 -0.108327
v 0.243733 0.602572 -0.055486
v 0.250001 0.602572 0.000144
v 0.243733 0.602572 0.055774
v 0.225243 0.602572 0.108615
v 0.195459 0.602572 0.156017
v 0.155873 0.602572 0.195602
v 0.108471 0.602572 0.225386
v 0.055631 0.602572 0.243876
v 0.000000 0.602572 0.250144
v -0.055630 0.602572 0.243876
v -0.108470 0.602572 0.225386
v -0.155872 0.602572 0.195601
v -0.195457 0.602572 0.156016
v -0.225241 0.602572 0.108614
v -0.243731 0.602572 0.055774
v -0.249999 0.602572 0.000144
v -0.243731 0.055630 -0.055486
v -0.225241 0.108471 -0.108327
v -0.195457 0.155873 -0.155729
v -0.155871 0.195458 -0.195314
v -0.108470 0.225242 -0.225098
v -0.055629 0.243732 -0.243588
v 0.000001 0.250000 -0.249856
v 0.055632 0.243732 -0.243588
v 0.108472 0.225242 -0.225098
v 0.155874 0.195458 -0.195314
v 0.195459 0.155872 -0.155728
v 0.225244 0.108471 -0.108327
v 0.243733 0.055630 -0.055486
v 0.250001 0.000000 0.000144
v 0.243733 0.055631 0.055774
v 0.225243 0.108471 0.108615
v 0.195459 0.155873 0.156017
v 0.155873 0.195458 0.195602
v 0.108471 0.225243 0.225386
v 0.055631 0.243732 0.243876
v 0.000000 0.250000 0.250144
v -0.055630 0.243732 0.243876
v -0.108470 0.225242 0.225386
v -0.155872 0.195458 0.195601
v -0.195457 0.155872 0.156016
v -0.225241 0.108471 0.108614
v -0.243731 0.055630 0.055774
v -0.243731 -0.055630 0.596023
v -0.225241 -0.108471 0.596023
v -0.195457 -0.155872 0.596023
v -0.155871 -0.195458 0.596023
v -0.108470 -0.225242 0.596023
v -0.055629 -0.243732 0.596023
v 0.000001 -0.250000 0.596023
v 0.055632 -0.243732 0.596023
v 0.108472 -0.225242 0.596023
v 0.155874 -0.195458 0.596023
v 0.195459 -0.155872 0.596023
v 0.225244 -0.108470 0.596023
v 0.243733 -0.055630 0.596023
v -0.249999 0.000000 0.596023
v 0.250001 0.000000 0.596023
v 0.243733 0.055631 0.596023
v 0.225243 0.108472 0.596022
v 0.195459 0.155873 0.596022
v 0.155873 0.195458 0.596022
v 0.108471 0.225243 0.596022
v 0.055631 0.243732 0.596022
v 0.000000 0.250000 0.596022
v -0.055630 0.243732 0.596022
v -0.108470 0.225242 0.596022
v -0.155872 0.195458 0.596022
v -0.195457 0.155872 0.596022
v -0.225241 0.108471 0.596022
v -0.243731 0.055630 0.596023
v 0.243733 -0.055631 -0.596582
v 0.225243 -0.108471 -0.596582
v 0.195459 -0.155873 -0.596582
v 0.155873 -0.195458 -0.596582
v 0.108471 -0.225242 -0.596582
v 0.055631 -0.243732 -0.596582
v 0.000000 -0.250000 -0.596582
v -0.055630 -0.243732 -0.596582
v -0.108470 -0.225242 -0.596582
v -0.155872 -0.195458 -0.596582
v -0.195457 -0.155872 -0.596582
v -0.225241 -0.108471 -0.596582
v -0.243731 -0.055630 -0.596582
v -0.249999 -0.000000 -0.596582
v -0.243731 0.055630 -0.596582
v -0.225241 0.108471 -0.596582
v -0.195457 0.155872 -0.596582
v -0.155871 0.195458 -0.596582
v -0.108470 0.225242 -0.596582
v -0.055629 0.243732 -0.596582
v 0.000001 0.250000 -0.596582
v 0.055632 0.243732 -0.596582
v 0.108472 0.225242 -0.596582
v 0.155874 0.195458 -0.596582
v 0.195459 0.155872 -0.596582
v 0.225244 0.108471 -0.596582
v 0.243733 0.055630 -0.596582
v 0.250001 -0.000000 -0.596582
vn 0.9749 -0.0000 -0.2225
vn 0.9010 -0.0000 -0.4339
vn 0.7818 -0.0000 -0.6235
vn 0.6235 -0.0000 -0.7818
vn 0.4339 -0.0000 -0.9010
vn 0.2225 -0.0000 -0.9749
vn -0.0000 -0.0000 -1.0000
vn -0.2225 -0.0000 -0.9749
vn -0.4339 -0.0000 -0.9010
vn -0.6235 -0.0000 -0.7818
vn -0.7818 -0.0000 -0.6235
vn -0.9010 -0.0000 -0.4339
vn -0.9749 -0.0000 -0.2225
vn -1.0000 -0.0000 -0.0000
vn -0.9749 -0.0000 0.2225
vn -0.9010 -0.0000 0.4339
vn -0.7818 -0.0000 0.6235
vn -0.6235 -0.0000 0.7818
vn -0.4339 -0.0000 0.9010
vn -0.2225 -0.0000 0.9749
vn -0.0000 -0.0000 1.0000
vn 0.2225 -0.0000 0.9749
vn 0.4339 -0.0000 0.9010
vn 0.6235 -0.0000 0.7818
vn 0.7818 -0.0000 0.6235
vn 0.9010 -0.0000 0.4339
vn 0.9749 -0.0000 0.2225
vn 1.0000 -0.0000 -0.0000
vn 0.9927 0.0851 -0.0851
vn 0.9587 0.2012 -0.2012
vn 0.8899 0.3225 -0.3225
vn 0.7730 0.4486 -0.4486
vn 0.5894 0.5712 -0.5712
vn 0.3256 0.6686 -0.6686
vn -0.0000 0.7071 -0.7071
vn -0.3256 0.6686 -0.6686
vn -0.5894 0.5712 -0.5712
vn -0.7731 0.4485 -0.4485
vn -0.8899 0.3225 -0.3225
vn -0.9587 0.2012 -0.2012
vn -0.9927 0.0851 -0.0851
vn -0.9927 0.0851 0.0851
vn -0.9587 0.2012 0.2012
vn -0.8899 0.3225 0.3225
vn -0.7730 0.4486 0.4486
vn -0.5894 0.5712 0.5712
vn -0.3256 0.6686 0.6686
vn -0.0000 0.7071 0.7071
vn 0.3256 0.6686 0.6686
vn 0.5894 0.5712 0.5712
vn 0.7731 0.4485 0.4485
vn 0.8899 0.3225 0.3225
vn 0.9587 0.2012 0.2012
vn 0.9927 0.0851 0.0851
vn 0.9927 -0.0851 0.0851
vn 0.9587 -0.2012 0.2012
vn 0.8899 -0.3225 0.3225
vn 0.7730 -0.4486 0.4486
vn 0.5894 -0.5712 0.5712
vn 0.3256 -0.6686 0.6686
vn -0.0000 -0.7071 0.7071
vn -0.3256 -0.6686 0.6686
vn -0.5894 -0.5712 0.5712
vn -0.7731 -0.4485 0.4485
vn -0.8899 -0.3225 0.3225
vn -0.9587 -0.2012 0.2012
vn -0.9927 -0.0851 0.0851
vn -0.9927 -0.0851 -0.0851
vn -0.9587 -0.2012 -0.2012
vn -0.8899 -0.3225 -0.3225
vn -0.7730 -0.4486 -0.4486
vn -0.5894 -0.5712 -0.5712
vn -0.3256 -0.6686 -0.6686
vn -0.0000 -0.7071 -0.7071
vn 0.3256 -0.6686 -0.6686
vn 0.5894 -0.5712 -0.5712
vn 0.7731 -0.4485 -0.4485
vn 0.8899 -0.3225 -0.3225
vn 0.9587 -0.2012 -0.2012
vn 0.9927 -0.0851 -0.0851
vn 0.9749 0.2225 -0.0000
vn 0.9010 0.4339 -0.0000
vn 0.7818 0.6235 -0.0000
vn 0.6235 0.7818 -0.0000
vn 0.4339 0.9010 -0.0000
vn 0.2225 0.9749 -0.0000
vn -0.0000 1.0000 -0.0000
vn -0.2225 0.9749 -0.0000
vn -0.4339 0.9010 -0.0000
vn -0.6235 0.7818 -0.0000
vn -0.7818 0.6235 -0.0000
vn -0.9010 0.4339 -0.0000
vn -0.9749 0.2225 -0.0000
vn -0.9749 -0.2225 -0.0000
vn -0.9010 -0.4339 -0.0000
vn -0.7818 -0.6235 -0.0000
vn -0.6235 -0.7818 -0.0000
vn -0.4339 -0.9010 -0.0000
vn -0.2225 -0.9749 -0.0000
vn -0.0000 -1.0000 -0.0000
vn 0.2225 -0.9749 -0.0000
vn 0.4339 -0.9010 -0.0000
vn 0.6235 -0.7818 -0.0000
vn 0.7818 -0.6235 -0.0000
vn 0.9010 -0.4339 -0.0000
vn 0.9749 -0.2225 -0.0000
vt 0.507220 0.976191
vt 0.507220 1.000000
vt 0.763497 1.000000
vt 0.739837 0.976191
vt 0.507220 0.952381
vt 0.717364 0.952381
vt 0.507220 0.928572
vt 0.697204 0.928572
vt 0.507220 0.904762
vt 0.680368 0.904762
vt 0.507220 0.880953
vt 0.667700 0.880952
vt 0.507220 0.857143
vt 0.659836 0.857143
vt 0.507220 0.833333
vt 0.657171 0.833333
vt 0.507220 0.809524
vt 0.659836 0.809524
vt 0.507220 0.785714
vt 0.667700 0.785714
vt 0.507220 0.761905
vt 0.680368 0.761905
vt 0.507220 0.738095
vt 0.697204 0.738095
vt 0.507220 0.714286
vt 0.717364 0.714286
vt 0.507220 0.690476
vt 0.739837 0.690476
vt 0.507220 0.666667
vt 0.763497 0.666667
vt 0.507220 0.309524
vt 0.507220 0.333333
vt 0.763497 0.333333
vt 0.739837 0.309524
vt 0.507220 0.285714
vt 0.717364 0.285714
vt 0.507220 0.261905
vt 0.697203 0.261905
vt 0.507220 0.238095
vt 0.680368 0.238095
vt 0.507220 0.214286
vt 0.667700 0.214286
vt 0.507220 0.190476
vt 0.659836 0.190476
vt 0.507220 0.166667
vt 0.657171 0.166667
vt 0.507220 0.142857
vt 0.659836 0.142857
vt 0.507220 0.119048
vt 0.667700 0.119048
vt 0.507220 0.095238
vt 0.680368 0.095238
vt 0.507220 0.071429
vt 0.697204 0.071429
vt 0.507220 0.047619
vt 0.717364 0.047619
vt 0.507220 0.023810
vt 0.739837 0.023810
vt 0.507220 0.000000
vt 0.763497 0.000000
vt 0.507220 0.642857
vt 0.507220 0.666667
vt 0.763497 0.666667
vt 0.739837 0.642857
vt 0.507220 0.619048
vt 0.717364 0.619048
vt 0.507220 0.595238
vt 0.697204 0.595238
vt 0.507220 0.571429
vt 0.680368 0.571429
vt 0.507220 0.547619
vt 0.667700 0.547619
vt 0.507220 0.523810
vt 0.659836 0.523810
vt 0.507220 0.500000
vt 0.657171 0.500000
vt 0.507220 0.476191
vt 0.659836 0.476191
vt 0.507220 0.452381
vt 0.667700 0.452381
vt 0.507220 0.428571
vt 0.680368 0.428571
vt 0.507220 0.404762
vt 0.697204 0.404762
vt 0.507220 0.380952
vt 0.717364 0.380952
vt 0.507220 0.357143
vt 0.739837 0.357143
vt 0.507220 0.333333
vt 0.763497 0.333333
vt 0.250944 0.976190
vt 0.250944 1.000000
vt 0.507220 1.000000
vt 0.483560 0.976190
vt 0.250944 0.952380
vt 0.461087 0.952380
vt 0.250944 0.928571
vt 0.440927 0.928571
vt 0.250944 0.904761
vt 0.424091 0.904761
vt 0.250944 0.880952
vt 0.411424 0.880952
vt 0.250944 0.857142
vt 0.403560 0.857142
vt 0.250944 0.833333
vt 0.400894 0.833333
vt 0.250944 0.809523
vt 0.403560 0.809523
vt 0.250944 0.785714
vt 0.411424 0.785714
vt 0.250944 0.761904
vt 0.424091 0.761904
vt 0.250944 0.738095
vt 0.440927 0.738095
vt 0.250944 0.714285
vt 0.461087 0.714285
vt 0.250944 0.690476
vt 0.483561 0.690476
vt 0.250944 0.666666
vt 0.507220 0.666667
vt 0.403560 0.190476
vt 0.253790 0.190476
vt 0.253790 0.214286
vt 0.411424 0.214286
vt 0.403560 0.523809
vt 0.253790 0.523809
vt 0.253790 0.547619
vt 0.411424 0.547619
vt 0.424091 0.095238
vt 0.253790 0.095238
vt 0.253790 0.119048
vt 0.411424 0.119048
vt 0.424091 0.428571
vt 0.253790 0.428571
vt 0.253790 0.452381
vt 0.411424 0.452381
vt 0.507220 0.000000
vt 0.253790 0.000000
vt 0.253790 0.023810
vt 0.483561 0.023810
vt 0.483561 0.309524
vt 0.253790 0.309524
vt 0.253790 0.333333
vt 0.507220 0.333333
vt 0.253790 0.238095
vt 0.424091 0.238095
vt 0.253790 0.357143
vt 0.483561 0.357143
vt 0.253790 0.571428
vt 0.424091 0.571428
vt 0.253790 0.142857
vt 0.403560 0.142857
vt 0.253790 0.476190
vt 0.403560 0.476190
vt 0.253790 0.047619
vt 0.461087 0.047619
vt 0.483561 0.642857
vt 0.253790 0.642857
vt 0.253790 0.666666
vt 0.507220 0.666666
vt 0.253790 0.261905
vt 0.440927 0.261905
vt 0.253790 0.380952
vt 0.461087 0.380952
vt 0.253790 0.595238
vt 0.440927 0.595238
vt 0.253790 0.166667
vt 0.400894 0.166667
vt 0.253790 0.500000
vt 0.400894 0.500000
vt 0.253790 0.071429
vt 0.440927 0.071429
vt 0.253790 0.285714
vt 0.461087 0.285714
vt 0.253790 0.404762
vt 0.440927 0.404762
vt 0.253790 0.619047
vt 0.461087 0.619047
vt 0.083129 0.571428
vt 0.253790 0.571428
vt 0.253790 0.547619
vt 0.095797 0.547619
vt 0.023660 0.357142
vt 0.253790 0.357143
vt 0.253790 0.333333
vt 0.000000 0.333333
vt 0.083129 0.238095
vt 0.253790 0.238095
vt 0.253790 0.214285
vt 0.095797 0.214285
vt 0.095797 0.452381
vt 0.253790 0.452381
vt 0.253790 0.428571
vt 0.083129 0.428571
vt 0.095797 0.119047
vt 0.253790 0.119047
vt 0.253790 0.095238
vt 0.083129 0.095238
vt 0.253790 0.309524
vt 0.023660 0.309523
vt 0.253790 0.523809
vt 0.103660 0.523809
vt 0.253790 0.190476
vt 0.103661 0.190476
vt 0.000000 0.666666
vt 0.253790 0.666666
vt 0.253790 0.642857
vt 0.023660 0.642857
vt 0.253790 0.619047
vt 0.046133 0.619047
vt 0.253790 0.404762
vt 0.066293 0.404762
vt 0.253790 0.285714
vt 0.046133 0.285714
vt 0.253790 0.071428
vt 0.066293 0.071428
vt 0.253790 0.500000
vt 0.106326 0.500000
vt 0.253790 0.166666
vt 0.106326 0.166666
vt 0.253790 0.595238
vt 0.066293 0.595238
vt 0.253790 0.380952
vt 0.046133 0.380952
vt 0.253790 0.261904
vt 0.066294 0.261904
vt 0.253790 0.047619
vt 0.046133 0.047619
vt 0.253790 0.476190
vt 0.103660 0.476190
vt 0.253790 0.142857
vt 0.103660 0.142857
vt 0.253790 0.023809
vt 0.023660 0.023809
vt 0.253790 0.000000
vt 0.000000 0.000000
s 1
usemtl 
f 1/1/1 28/2/28 55/3/28 29/4/29
f 2/5/2 1/1/1 29/4/29 30/6/30
f 3/7/3 2/5/2 30/6/30 31/8/31
f 4/9/4 3/7/3 31/8/31 32/10/32
f 5/11/5 4/9/4 32/10/32 33/12/33
f 6/13/6 5/11/5 33/12/33 34/14/34
f 7/15/7 6/13/6 34/14/34 35/16/35
f 8/17/8 7/15/7 35/16/35 36/18/36
f 9/19/9 8/17/8 36/18/36 37/20/37
f 10/21/10 9/19/9 37/20/37 38/22/38
f 11/23/11 10/21/10 38/22/38 39/24/39
f 12/25/12 11/23/11 39/24/39 40/26/40
f 13/27/13 12/25/12 40/26/40 41/28/41
f 14/29/14 13/27/13 41/28/41 97/30/14
f 15/31/15 14/32/14 97/33/14 42/34/42
f 16/35/16 15/31/15 42/34/42 43/36/43
f 17/37/17 16/35/16 43/36/43 44/38/44
f 18/39/18 17/37/17 44/38/44 45/40/45
f 19/41/19 18/39/18 45/40/45 46/42/46
f 20/43/20 19/41/19 46/42/46 47/44/47
f 21/45/21 20/43/20 47/44/47 48/46/48
f 22/47/22 21/45/21 48/46/48 49/48/49
f 23/49/23 22/47/22 49/48/49 50/50/50
f 24/51/24 23/49/23 50/50/50 51/52/51
f 25/53/25 24/51/24 51/52/51 52/54/52
f 26/55/26 25/53/25 52/54/52 53/56/53
f 27/57/27 26/55/26 53/56/53 54/58/54
f 28/59/28 27/57/27 54/58/54 55/60/28
f 56/61/27 83/62/28 55/63/28 84/64/55
f 57/65/26 56/61/27 84/64/55 85/66/56
f 58/67/25 57/65/26 85/66/56 86/68/57
f 59/69/24 58/67/25 86/68/57 87/70/58
f 60/71/23 59/69/24 87/70/58 88/72/59
f 61/73/22 60/71/23 88/72/59 89/74/60
f 62/75/21 61/73/22 89/74/60 90/76/61
f 63/77/20 62/75/21 90/76/61 91/78/62
f 64/79/19 63/77/20 91/78/62 92/80/63
f 65/81/18 64/79/19 92/80/63 93/82/64
f 66/83/17 65/81/18 93/82/64 94/84/65
f 67/85/16 66/83/17 94/84/65 95/86/66
f 68/87/15 67/85/16 95/86/66 96/88/67
f 69/89/14 68/87/15 96/88/67 97/90/14
f 70/91/13 69/92/14 97/93/14 98/94/68
f 71/95/12 70/91/13 98/94/68 99/96/69
f 72/97/11 71/95/12 99/96/69 100/98/70
f 73/99/10 72/97/11 100/98/70 101/100/71
f 74/101/9 73/99/10 101/100/71 102/102/72
f 75/103/8 74/101/9 102/102/72 103/104/73
f 76/105/7 75/103/8 103/104/73 104/106/74
f 77/107/6 76/105/7 104/106/74 105/108/75
f 78/109/5 77/107/6 105/108/75 106/110/76
f 79/111/4 78/109/5 106/110/76 107/112/77
f 80/113/3 79/111/4 107/112/77 108/114/78
f 81/115/2 80/113/3 108/114/78 109/116/79
f 82/117/1 81/115/2 109/116/79 110/118/80
f 83/119/28 82/117/1 110/118/80 55/120/28
f 36/121/36 118/122/88 119/123/89 37/124/37
f 105/125/75 133/126/101 134/127/102 106/128/76
f 32/129/32 114/130/84 115/131/85 33/132/33
f 101/133/71 129/134/97 130/135/98 102/136/72
f 55/137/28 124/138/28 111/139/81 29/140/29
f 41/141/41 123/142/93 125/143/14 97/144/14
f 37/124/37 119/123/89 120/145/90 38/146/38
f 97/144/14 125/143/14 126/147/94 98/148/68
f 106/128/76 134/127/102 135/149/103 107/150/77
f 33/132/33 115/131/85 116/151/86 34/152/34
f 102/136/72 130/135/98 131/153/99 103/154/73
f 29/140/29 111/139/81 112/155/82 30/156/30
f 110/157/80 138/158/106 124/159/28 55/160/28
f 38/146/38 120/145/90 121/161/91 39/162/39
f 98/148/68 126/147/94 127/163/95 99/164/69
f 107/150/77 135/149/103 136/165/104 108/166/78
f 34/152/34 116/151/86 117/167/87 35/168/35
f 103/154/73 131/153/99 132/169/100 104/170/74
f 30/156/30 112/155/82 113/171/83 31/172/31
f 39/162/39 121/161/91 122/173/92 40/174/40
f 99/164/69 127/163/95 128/175/96 100/176/70
f 108/166/78 136/165/104 137/177/105 109/178/79
f 35/168/35 117/167/87 118/122/88 36/121/36
f 104/170/74 132/169/100 133/126/101 105/125/75
f 31/172/31 113/171/83 114/130/84 32/129/32
f 40/174/40 122/173/92 123/142/93 41/141/41
f 100/176/70 128/175/96 129/134/97 101/133/71
f 109/178/79 137/177/105 138/158/106 110/157/80
f 87/179/58 156/180/103 157/181/102 88/182/59
f 96/183/67 165/184/94 166/185/14 97/186/14
f 45/187/45 142/188/90 143/189/89 46/190/46
f 92/191/63 161/192/98 162/193/97 93/194/64
f 50/195/50 147/196/85 148/197/84 51/198/51
f 97/186/14 166/185/14 139/199/93 42/200/42
f 88/182/59 157/181/102 158/201/101 89/202/60
f 46/190/46 143/189/89 144/203/88 47/204/47
f 55/205/28 152/206/28 153/207/106 84/208/55
f 84/208/55 153/207/106 154/209/105 85/210/56
f 93/194/64 162/193/97 163/211/96 94/212/65
f 42/200/42 139/199/93 140/213/92 43/214/43
f 51/198/51 148/197/84 149/215/83 52/216/52
f 89/202/60 158/201/101 159/217/100 90/218/61
f 47/204/47 144/203/88 145/219/87 48/220/48
f 85/210/56 154/209/105 155/221/104 86/222/57
f 94/212/65 163/211/96 164/223/95 95/224/66
f 43/214/43 140/213/92 141/225/91 44/226/44
f 52/216/52 149/215/83 150/227/82 53/228/53
f 90/218/61 159/217/100 160/229/99 91/230/62
f 48/220/48 145/219/87 146/231/86 49/232/49
f 86/222/57 155/221/104 156/180/103 87/179/58
f 95/224/66 164/223/95 165/184/94 96/183/67
f 44/226/44 141/225/91 142/188/90 45/187/45
f 53/228/53 150/227/82 151/233/81 54/234/54
f 91/230/62 160/229/99 161/192/98 92/191/63
f 49/232/49 146/231/86 147/196/85 50/195/50
f 54/234/54 151/233/81 152/235/28 55/236/28
