# Blender 4.5.2 LTS
# www.blender.org
mtllib HEXAGONE1.mtl
o HEXAGONE1
v 0.000000 -0.430180 0.137687
v 0.000000 -0.430180 -0.137205
v -0.372547 -0.215090 0.137687
v -0.372547 -0.215090 -0.137205
v -0.372547 0.215090 0.137687
v -0.372547 0.215090 -0.137205
v 0.000000 0.430180 0.137687
v 0.000000 0.430180 -0.137205
v 0.372547 0.215090 0.137687
v 0.372547 0.215090 -0.137205
v 0.372547 -0.215090 0.137687
v 0.372547 -0.215090 -0.137205
v -0.372547 -0.071697 0.137687
v -0.372547 0.071697 0.137687
v -0.372547 0.071697 -0.137205
v -0.372547 -0.071697 -0.137205
v 0.372547 0.071697 0.137687
v 0.372547 -0.071697 0.137687
v 0.372547 -0.071697 -0.137205
v 0.372547 0.071697 -0.137205
v -0.186273 0.322635 0.137687
v -0.186273 0.322635 -0.137205
v -0.279410 0.268863 -0.137205
v 0.279410 0.268863 0.137687
v -0.279410 0.268863 0.137687
v -0.093137 0.376408 0.137687
v -0.093137 0.376408 -0.137205
v -0.186273 -0.322635 0.137687
v -0.186273 -0.322635 -0.137205
v 0.093137 0.376408 -0.137205
v 0.186273 0.322635 -0.137205
v 0.279410 0.268863 -0.137205
v 0.186274 0.322635 0.137687
v -0.279410 -0.268863 0.137687
v 0.093137 0.376408 0.137687
v -0.279410 -0.268863 -0.137205
v -0.250000 0.000000 -0.137074
v -0.243732 -0.055630 -0.137074
v -0.225242 -0.108471 -0.137074
v -0.195458 -0.155872 -0.137074
v -0.093137 -0.376408 -0.137205
v -0.093137 -0.376408 0.137687
v 0.279410 -0.268863 0.137687
v 0.186273 -0.322635 0.137687
v 0.093137 -0.376408 0.137687
v 0.093137 -0.376408 -0.137205
v 0.186274 -0.322635 -0.137205
v 0.279410 -0.268863 -0.137205
v -0.155873 -0.195458 -0.137074
v -0.108471 -0.225242 -0.137074
v -0.055631 -0.243732 -0.137074
v -0.000000 -0.250000 -0.137074
v 0.055630 -0.243732 -0.137074
v 0.108471 -0.225242 -0.137074
v 0.155872 -0.195458 -0.137074
v 0.195458 -0.155873 -0.137074
v 0.225242 -0.108471 -0.137074
v 0.243732 -0.055631 -0.137074
v 0.250000 -0.000000 -0.137074
v 0.243732 0.055630 -0.137074
v 0.225242 0.108471 -0.137074
v 0.195458 0.155872 -0.137074
v 0.155873 0.195458 -0.137074
v 0.108471 0.225242 -0.137074
v 0.055630 0.243732 -0.137074
v 0.000000 0.250000 -0.137074
v -0.243732 0.055630 0.136587
v -0.225242 0.108471 0.136587
v -0.195458 0.155873 0.136587
v -0.155872 0.195458 0.136587
v -0.108471 0.225242 0.136587
v -0.055630 0.243732 0.136587
v 0.000000 0.250000 0.136587
v 0.055630 0.243732 0.136587
v 0.108471 0.225242 0.136587
v 0.155873 0.195458 0.136587
v 0.195458 0.155872 0.136587
v 0.225242 0.108471 0.136587
v 0.243732 0.055630 0.136587
v 0.250000 -0.000000 0.136587
v 0.243732 -0.055631 0.136587
v 0.225242 -0.108471 0.136587
v 0.195458 -0.155873 0.136587
v 0.155872 -0.195458 0.136587
v 0.108471 -0.225242 0.136587
v 0.055630 -0.243732 0.136587
v -0.000000 -0.250000 0.136587
v -0.055631 -0.243732 0.136587
v -0.108471 -0.225242 0.136587
v -0.155873 -0.195458 0.136587
v -0.195458 -0.155872 0.136587
v -0.225242 -0.108471 0.136587
v -0.243732 -0.055630 0.136587
v -0.250000 0.000000 0.136587
v -0.372547 -0.143393 -0.137205
v 0.372547 -0.143393 0.137687
v -0.372547 -0.143393 0.137687
v 0.372547 -0.143393 -0.137205
v -0.055630 0.243732 -0.137074
v -0.108471 0.225242 -0.137074
v -0.372547 0.000000 0.137687
v -0.372547 0.000000 -0.137205
v 0.372547 0.000000 0.137687
v 0.372547 0.000000 -0.137205
v -0.155872 0.195458 -0.137074
v -0.195458 0.155872 -0.137074
v -0.372547 0.143393 0.137687
v 0.372547 0.143393 -0.137205
v -0.372547 0.143393 -0.137205
v 0.372547 0.143393 0.137687
v -0.225242 0.108471 -0.137074
v -0.243732 0.055630 -0.137074
vn -0.5000 -0.8660 -0.0000
vn -1.0000 -0.0000 -0.0000
vn 0.5000 0.8660 -0.0000
vn -0.0005 -0.0009 -1.0000
vn -0.0005 -0.0008 -1.0000
vn 1.0000 -0.0000 -0.0000
vn 0.5000 -0.8660 -0.0000
vn -0.0007 -0.0004 -1.0000
vn -0.0006 -0.0005 -1.0000
vn -0.0006 0.0005 -1.0000
vn -0.0007 0.0004 -1.0000
vn -0.0005 0.0008 -1.0000
vn -0.5000 0.8660 -0.0000
vn 0.0008 -0.0002 -1.0000
vn 0.0007 -0.0004 -1.0000
vn 0.0006 -0.0005 -1.0000
vn 0.0069 0.0014 1.0000
vn 0.0082 0.0008 1.0000
vn 0.0045 -0.0068 1.0000
vn 0.0056 -0.0035 1.0000
vn 0.0052 -0.0045 1.0000
vn 0.0045 -0.0071 1.0000
vn -0.0010 -0.0001 -1.0000
vn -0.0010 -0.0000 -1.0000
vn -0.0010 0.0001 -1.0000
vn -0.0008 0.0002 -1.0000
vn 0.0087 -0.0000 1.0000
vn 0.0082 -0.0008 1.0000
vn 0.0069 -0.0014 1.0000
vn -0.0032 -0.0071 1.0000
vn -0.0000 -0.0067 1.0000
vn -0.0032 -0.0072 1.0000
vn 0.0042 -0.0076 1.0000
vn 0.0041 -0.0076 1.0000
vn 0.0010 0.0001 -1.0000
vn 0.0008 0.0002 -1.0000
vn 0.0010 -0.0000 -1.0000
vn 0.0010 -0.0001 -1.0000
vn -0.0082 -0.0008 1.0000
vn -0.0069 -0.0014 1.0000
vn -0.0056 -0.0035 1.0000
vn -0.0045 -0.0068 1.0000
vn -0.0045 -0.0071 1.0000
vn -0.0052 -0.0045 1.0000
vn 0.0032 -0.0071 1.0000
vn 0.0032 -0.0072 1.0000
vn 0.0006 0.0005 -1.0000
vn 0.0005 0.0008 -1.0000
vn 0.0007 0.0004 -1.0000
vn 0.0056 0.0035 1.0000
vn 0.0052 0.0045 1.0000
vn 0.0045 0.0068 1.0000
vn 0.0042 0.0076 1.0000
vn 0.0041 0.0076 1.0000
vn 0.0045 0.0071 1.0000
vn -0.0042 -0.0076 1.0000
vn -0.0041 -0.0076 1.0000
vn -0.0042 0.0076 1.0000
vn -0.0045 0.0068 1.0000
vn -0.0045 0.0071 1.0000
vn -0.0041 0.0076 1.0000
vn -0.0032 0.0071 1.0000
vn -0.0032 0.0072 1.0000
vn 0.0032 0.0071 1.0000
vn -0.0000 0.0067 1.0000
vn 0.0032 0.0072 1.0000
vn -0.0069 0.0014 1.0000
vn -0.0082 0.0008 1.0000
vn -0.0056 0.0035 1.0000
vn -0.0052 0.0045 1.0000
vn -0.0087 -0.0000 1.0000
vn -0.0008 -0.0002 -1.0000
vn 0.0005 -0.0009 -1.0000
vn 0.0005 -0.0008 -1.0000
vn -0.0000 -0.0008 -1.0000
vn -0.0004 -0.0008 -1.0000
vn -0.0004 -0.0009 -1.0000
vn 0.0004 -0.0009 -1.0000
vn 0.0004 -0.0008 -1.0000
vn -0.0005 0.0009 -1.0000
vn -0.0004 0.0009 -1.0000
vn -0.0004 0.0008 -1.0000
vn -0.0000 0.0008 -1.0000
vn 0.0005 0.0009 -1.0000
vn 0.0004 0.0009 -1.0000
vn 0.0004 0.0008 -1.0000
vt 0.000000 0.125000
vt 0.000000 0.166667
vt 0.333333 0.166667
vt 0.333333 0.125000
vt 0.000000 0.305556
vt 0.000000 0.333333
vt 0.333333 0.333333
vt 0.333333 0.305556
vt 0.000000 0.625000
vt 0.000000 0.666667
vt 0.333333 0.666667
vt 0.333333 0.625000
vt 0.381084 0.492835
vt 0.333334 0.500072
vt 0.333334 0.541739
vt 0.381895 0.514509
vt 0.000000 0.805555
vt 0.000000 0.833333
vt 0.333333 0.833333
vt 0.333333 0.805555
vt 0.000000 0.958333
vt 0.000000 1.000000
vt 0.333333 1.000000
vt 0.333333 0.958333
vt 0.333333 0.583405
vt 0.387509 0.535459
vt 0.492107 0.595851
vt 0.477670 0.666741
vt 0.513754 0.645908
vt 0.513058 0.590238
vt 0.333333 0.458333
vt 0.000000 0.458333
vt 0.000000 0.500000
vt 0.333333 0.500000
vt 0.501730 0.347296
vt 0.477673 0.333407
vt 0.463237 0.404297
vt 0.484911 0.403486
vt 0.470428 0.263307
vt 0.449121 0.259250
vt 0.429502 0.305579
vt 0.453544 0.319493
vt 0.333366 0.208259
vt 0.333333 0.249926
vt 0.387562 0.202021
vt 0.381966 0.181066
vt 0.411791 0.571075
vt 0.381446 0.611184
vt 0.405502 0.625073
vt 0.429242 0.583955
vt 0.449121 0.592629
vt 0.429558 0.638962
vt 0.453614 0.652852
vt 0.470433 0.596662
vt 0.429251 0.250555
vt 0.411812 0.237659
vt 0.381418 0.277752
vt 0.405460 0.291665
vt 0.397679 0.221206
vt 0.357376 0.263839
vt 0.000000 0.694444
vt 0.000000 0.722222
vt 0.333333 0.722222
vt 0.333333 0.694444
vt 0.000000 0.750000
vt 0.000000 0.777778
vt 0.333333 0.777778
vt 0.333333 0.750000
vt 0.000000 0.194444
vt 0.000000 0.222222
vt 0.333333 0.222222
vt 0.333333 0.194444
vt 0.000000 0.250000
vt 0.000000 0.277778
vt 0.333333 0.277778
vt 0.333333 0.250000
vt 0.000000 0.375000
vt 0.000000 0.416667
vt 0.333333 0.416667
vt 0.333333 0.375000
vt 0.369557 0.062445
vt 0.333461 0.083259
vt 0.393905 0.118208
vt 0.406796 0.100765
vt 0.000000 0.583333
vt 0.333333 0.583333
vt 0.333398 0.166592
vt 0.381172 0.159391
vt 0.000000 0.041667
vt 0.000000 0.083333
vt 0.333333 0.083333
vt 0.333333 0.041667
vt 0.543553 0.429071
vt 0.557701 0.445511
vt 0.597954 0.402851
vt 0.573898 0.388962
vt 0.549842 0.375074
vt 0.525786 0.361185
vt 0.506223 0.407518
vt 0.526102 0.416192
vt 0.525946 0.027791
vt 0.501894 0.013895
vt 0.485053 0.070094
vt 0.506363 0.074135
vt 0.000000 0.541667
vt 0.333333 0.541667
vt 0.000000 -0.000000
vt 0.333333 0.000000
vt 0.477841 0.000000
vt 0.441747 0.020815
vt 0.442425 0.076502
vt 0.463378 0.070897
vt 0.333430 0.124926
vt 0.385219 0.138082
vt 0.567836 0.464687
vt 0.573450 0.485638
vt 0.622011 0.458407
vt 0.622011 0.416740
vt 0.477586 0.333407
vt 0.492103 0.262521
vt 0.000000 0.875000
vt 0.333333 0.875000
vt 0.000000 0.916667
vt 0.333333 0.916667
vt 0.513696 0.312619
vt 0.549807 0.291832
vt 0.532249 0.246822
vt 0.513060 0.256932
vt 0.405652 0.041630
vt 0.423244 0.086627
vt 0.622157 0.166704
vt 0.622157 0.125037
vt 0.573578 0.152268
vt 0.574388 0.173942
vt 0.622157 0.208370
vt 0.570357 0.195254
vt 0.585918 0.271045
vt 0.622030 0.250258
vt 0.561612 0.215263
vt 0.548708 0.232696
vt 0.622158 0.250037
vt 0.561687 0.215134
vt 0.557834 0.112140
vt 0.598105 0.069476
vt 0.574052 0.055581
vt 0.543688 0.095698
vt 0.622158 0.083370
vt 0.567966 0.131317
vt 0.526240 0.082814
vt 0.549999 0.041686
vt 0.357389 0.597295
vt 0.397643 0.554635
vt 0.423110 0.420045
vt 0.442286 0.409910
vt 0.441589 0.354240
vt 0.405504 0.375073
vt 0.393791 0.451644
vt 0.333335 0.416739
vt 0.333335 0.458405
vt 0.385117 0.471523
vt 0.406670 0.434192
vt 0.369420 0.395906
vt 0.532234 0.580103
vt 0.549839 0.625076
vt 0.548674 0.565956
vt 0.585924 0.604243
vt 0.561554 0.548505
vt 0.622009 0.583410
vt 0.574261 0.507312
vt 0.622011 0.500074
vt 0.570228 0.528623
vt 0.622011 0.541740
vt 0.561555 0.548503
vt 0.622011 0.583407
s 1
f 34/1/1 3/2/1 4/3/1 36/4/1
f 107/5/2 5/6/2 6/7/2 109/8/2
f 24/9/3 9/10/3 10/11/3 32/12/3
f 64/13/4 31/14/4 32/15/5 63/16/5
f 96/17/6 11/18/6 12/19/6 98/20/6
f 45/21/7 1/22/7 2/23/7 46/24/7
f 63/16/5 32/15/5 10/25/8 62/26/9
f 56/27/10 12/28/11 48/29/12 55/30/12
f 27/31/13 26/32/13 7/33/13 8/34/13
f 109/35/14 6/36/15 106/37/16 111/38/14
f 92/39/17 93/40/18 13/41/18 97/42/17
f 25/43/19 5/44/20 69/45/21 70/46/22
f 60/47/23 20/48/23 104/49/24 59/50/24
f 58/51/25 19/52/25 98/53/26 57/54/26
f 94/55/27 67/56/28 14/57/28 101/58/27
f 68/59/29 69/45/21 5/44/20 107/60/29
f 110/61/6 17/62/6 20/63/6 108/64/6
f 103/65/6 18/66/6 19/67/6 104/68/6
f 97/69/2 13/70/2 16/71/2 95/72/2
f 101/73/2 14/74/2 15/75/2 102/76/2
f 25/77/13 21/78/13 22/79/13 23/80/13
f 5/6/13 25/77/13 23/80/13 6/7/13
f 107/60/29 14/57/28 67/56/28 68/59/29
f 21/78/13 26/32/13 27/31/13 22/79/13
f 101/58/27 13/41/18 93/40/18 94/55/27
f 35/81/30 7/82/31 73/83/31 74/84/32
f 33/85/3 24/9/3 32/12/3 31/86/3
f 21/87/33 25/43/19 70/46/22 71/88/34
f 42/89/1 28/90/1 29/91/1 41/92/1
f 38/93/35 39/94/36 95/95/36 16/96/35
f 102/97/37 15/98/38 112/99/38 37/100/37
f 17/101/39 110/102/40 78/103/40 79/104/39
f 35/105/3 33/85/3 31/86/3 30/106/3
f 28/90/1 34/1/1 36/4/1 29/91/1
f 1/107/1 42/89/1 41/92/1 2/108/1
f 9/109/41 24/110/42 76/111/43 77/112/44
f 26/113/45 21/87/33 71/88/34 72/114/46
f 40/115/47 49/116/48 36/117/48 4/118/49
f 97/42/17 3/119/50 91/120/51 92/39/17
f 7/33/3 35/105/3 30/106/3 8/34/3
f 39/94/36 40/115/47 4/118/49 95/95/36
f 11/18/7 43/121/7 48/122/7 12/19/7
f 43/121/7 44/123/7 47/124/7 48/122/7
f 44/123/7 45/21/7 46/24/7 47/124/7
f 34/125/52 28/126/53 89/127/54 90/128/55
f 7/82/31 26/113/45 72/114/46 73/83/31
f 33/129/56 35/81/30 74/84/32 75/130/57
f 44/131/58 43/132/59 84/133/60 85/134/61
f 24/110/42 33/129/56 75/130/57 76/111/43
f 45/135/62 44/131/58 85/134/61 86/136/63
f 42/137/64 1/138/65 87/139/65 88/140/66
f 28/126/53 42/137/64 88/140/66 89/127/54
f 1/141/65 45/135/62 86/136/63 87/142/65
f 37/100/37 38/93/35 16/96/35 102/97/37
f 82/143/67 96/144/67 18/145/68 81/146/68
f 3/2/2 97/69/2 95/72/2 4/3/2
f 43/132/59 11/147/69 83/148/70 84/133/60
f 57/54/26 98/53/26 12/28/11 56/27/10
f 18/66/6 96/17/6 98/20/6 19/67/6
f 80/149/71 103/150/71 17/101/39 79/104/39
f 15/98/38 109/35/14 111/38/14 112/99/38
f 13/70/2 101/73/2 102/76/2 16/71/2
f 17/62/6 103/65/6 104/68/6 20/63/6
f 11/147/69 96/144/67 82/143/67 83/148/70
f 59/50/24 104/49/24 19/52/25 58/51/25
f 62/26/9 10/25/8 108/151/72 61/152/72
f 78/103/40 110/102/40 9/109/41 77/112/44
f 9/10/6 110/61/6 108/64/6 10/11/6
f 61/152/72 108/151/72 20/48/23 60/47/23
f 18/145/68 103/150/71 80/149/71 81/146/68
f 14/74/2 107/5/2 109/8/2 15/75/2
f 100/153/73 105/154/74 23/155/74 22/156/73
f 66/157/75 8/158/75 30/159/76 65/160/77
f 65/160/77 30/159/76 31/14/4 64/13/4
f 3/119/50 34/125/52 90/128/55 91/120/51
f 66/157/75 99/161/78 27/162/79 8/158/75
f 99/161/78 100/153/73 22/156/73 27/162/79
f 54/163/80 55/30/12 48/29/12 47/164/80
f 53/165/81 54/163/80 47/164/80 46/166/82
f 52/167/83 53/165/81 46/166/82 2/168/83
f 49/116/48 50/169/84 29/170/84 36/117/48
f 50/169/84 51/171/85 41/172/86 29/170/84
f 52/173/83 2/174/83 41/172/86 51/171/85
f 6/36/15 23/155/74 105/154/74 106/37/16
