# Blender 4.5.2 LTS
# www.blender.org
mtllib STAND.mtl
o STAND
v 0.403842 0.157383 0.000001
v 0.303272 0.157383 0.000001
v 0.403842 0.078691 0.136299
v 0.303272 0.078691 0.136299
v 0.403842 -0.078692 0.136299
v 0.303272 -0.078692 0.136299
v 0.403842 -0.157383 0.000001
v 0.303272 -0.157383 0.000001
v 0.403842 -0.078692 -0.136297
v 0.303272 -0.078692 -0.136297
v 0.403842 0.078691 -0.136297
v 0.303272 0.078691 -0.136297
v -0.317981 0.111839 0.000001
v -0.389448 0.111839 0.000001
v -0.317981 0.055919 0.096856
v -0.389448 0.055919 0.096856
v -0.317981 -0.055920 0.096856
v -0.389448 -0.055920 0.096856
v -0.317981 -0.111839 0.000001
v -0.389448 -0.111839 0.000001
v -0.317981 -0.055920 -0.096855
v -0.389448 -0.055920 -0.096855
v -0.317981 0.055919 -0.096855
v -0.389448 0.055919 -0.096855
v -0.010478 0.014247 0.062421
v -0.010478 0.027779 0.057685
v -0.010478 0.039919 0.050057
v -0.010478 0.050057 0.039920
v -0.010478 0.057684 0.027781
v -0.010478 0.062420 0.014248
v -0.010478 0.064025 0.000001
v -0.010478 0.062420 -0.014246
v -0.010478 0.057684 -0.027779
v -0.010478 0.050057 -0.039918
v -0.010478 0.039919 -0.050056
v -0.010478 0.027779 -0.057683
v -0.010478 0.014247 -0.062419
v -0.010478 -0.000000 -0.064024
v -0.010478 -0.014247 -0.062419
v -0.010478 -0.027779 -0.057683
v -0.010478 -0.039919 -0.050056
v -0.010478 -0.050057 -0.039918
v -0.010478 -0.057684 -0.027778
v -0.010478 -0.062420 -0.014246
v -0.010478 -0.064025 0.000001
v -0.010478 -0.062420 0.014248
v -0.010478 -0.057684 0.027781
v -0.010478 -0.050057 0.039920
v -0.010478 -0.039919 0.050058
v -0.010478 -0.027779 0.057685
v -0.010478 -0.014247 0.062421
v -0.010478 0.000000 0.064026
v -0.315544 0.014247 0.062421
v -0.315544 0.027779 0.057685
v -0.315544 0.039919 0.050058
v -0.315544 0.050057 0.039920
v -0.315544 0.057685 0.027781
v -0.315544 0.062420 0.014248
v -0.315544 0.064025 0.000001
v -0.315544 0.062420 -0.014246
v -0.315544 0.057685 -0.027779
v -0.315544 0.050057 -0.039918
v -0.315544 0.039919 -0.050056
v -0.315544 0.027779 -0.057683
v -0.315544 0.014247 -0.062419
v -0.315544 0.000000 -0.064024
v -0.315544 -0.014247 -0.062418
v -0.315544 -0.027779 -0.057683
v -0.315544 -0.039919 -0.050056
v -0.315544 -0.050057 -0.039918
v -0.315544 -0.057684 -0.027778
v -0.315544 -0.062420 -0.014246
v -0.315544 -0.064025 0.000001
v -0.315544 -0.062420 0.014248
v -0.315544 -0.057684 0.027781
v -0.315544 -0.050057 0.039920
v -0.315544 -0.039919 0.050058
v -0.315544 -0.027779 0.057685
v -0.315544 -0.014247 0.062421
v -0.315544 0.000000 0.064026
v -0.010478 0.019891 0.087148
v -0.010478 0.038784 0.080537
v -0.010478 0.055733 0.069888
v -0.010478 0.069887 0.055734
v -0.010478 0.080536 0.038785
v -0.010478 0.087147 0.019892
v -0.010478 0.089388 0.000001
v -0.010478 0.087147 -0.019890
v -0.010478 0.080536 -0.038783
v -0.010478 0.069887 -0.055732
v -0.010478 0.055733 -0.069886
v -0.010478 0.038784 -0.080535
v -0.010478 0.019891 -0.087146
v -0.010478 -0.000000 -0.089387
v -0.010478 -0.019891 -0.087146
v -0.010478 -0.038784 -0.080535
v -0.010478 -0.055733 -0.069886
v -0.010478 -0.069887 -0.055732
v -0.010478 -0.080536 -0.038783
v -0.010478 -0.087147 -0.019890
v -0.010478 -0.089388 0.000001
v -0.010478 -0.087147 0.019892
v -0.010478 -0.080536 0.038785
v -0.010478 -0.069887 0.055734
v -0.010478 -0.055733 0.069888
v -0.010478 -0.038784 0.080537
v -0.010478 -0.019891 0.087148
v -0.010478 0.000000 0.089389
v 0.016816 0.019891 0.087148
v 0.016816 0.038784 0.080537
v 0.016816 0.055733 0.069888
v 0.016816 0.069887 0.055734
v 0.016816 0.080536 0.038785
v 0.016816 0.087147 0.019892
v 0.016816 0.089388 0.000001
v 0.016816 0.087147 -0.019890
v 0.016816 0.080536 -0.038783
v 0.016816 0.069887 -0.055732
v 0.016816 0.055733 -0.069886
v 0.016816 0.038784 -0.080535
v 0.016816 0.019891 -0.087146
v 0.016816 -0.000000 -0.089387
v 0.016816 -0.019891 -0.087146
v 0.016816 -0.038784 -0.080535
v 0.016816 -0.055733 -0.069886
v 0.016816 -0.069887 -0.055732
v 0.016816 -0.080536 -0.038783
v 0.016816 -0.087147 -0.019890
v 0.016816 -0.089388 0.000001
v 0.016816 -0.087147 0.019892
v 0.016816 -0.080536 0.038785
v 0.016816 -0.069887 0.055734
v 0.016816 -0.055733 0.069888
v 0.016816 -0.038784 0.080537
v 0.016816 -0.019891 0.087148
v 0.016816 0.000000 0.089389
v 0.016816 0.027137 0.118897
v 0.016816 0.052914 0.109878
v 0.016816 0.076037 0.095348
v 0.016816 0.095347 0.076038
v 0.016816 0.109877 0.052915
v 0.016816 0.118896 0.027138
v 0.016816 0.121954 0.000001
v 0.016816 0.118896 -0.027136
v 0.016816 0.109877 -0.052913
v 0.016816 0.095347 -0.076036
v 0.016816 0.076037 -0.095346
v 0.016816 0.052914 -0.109876
v 0.016816 0.027137 -0.118896
v 0.016816 -0.000000 -0.121953
v 0.016816 -0.027137 -0.118896
v 0.016816 -0.052914 -0.109876
v 0.016816 -0.076037 -0.095346
v 0.016816 -0.095347 -0.076036
v 0.016816 -0.109877 -0.052913
v 0.016816 -0.118896 -0.027136
v 0.016816 -0.121954 0.000001
v 0.016816 -0.118896 0.027138
v 0.016816 -0.109877 0.052915
v 0.016816 -0.095347 0.076038
v 0.016816 -0.076037 0.095348
v 0.016816 -0.052914 0.109878
v 0.016816 -0.027137 0.118897
v 0.016816 0.000000 0.121955
v 0.302919 0.027137 0.118897
v 0.302919 0.052914 0.109878
v 0.302919 0.076037 0.095348
v 0.302919 0.095347 0.076038
v 0.302919 0.109877 0.052915
v 0.302919 0.118896 0.027138
v 0.302919 0.121954 0.000001
v 0.302919 0.118896 -0.027136
v 0.302919 0.109877 -0.052913
v 0.302919 0.095347 -0.076036
v 0.302919 0.076037 -0.095346
v 0.302919 0.052914 -0.109876
v 0.302919 0.027137 -0.118896
v 0.302919 -0.000000 -0.121953
v 0.302919 -0.027137 -0.118896
v 0.302919 -0.052914 -0.109876
v 0.302919 -0.076037 -0.095346
v 0.302919 -0.095347 -0.076036
v 0.302919 -0.109877 -0.052913
v 0.302919 -0.118896 -0.027136
v 0.302919 -0.121954 0.000001
v 0.302919 -0.118896 0.027138
v 0.302919 -0.109877 0.052915
v 0.302919 -0.095347 0.076038
v 0.302919 -0.076037 0.095348
v 0.302919 -0.052914 0.109878
v 0.302919 -0.027137 0.118897
v 0.302919 0.000000 0.121955
vn -0.0000 0.8660 0.5000
vn -0.0000 -0.0000 1.0000
vn -0.0000 -0.8660 0.5000
vn -0.0000 -0.8660 -0.5000
vn -1.0000 -0.0000 -0.0000
vn -0.0000 -0.0000 -1.0000
vn -0.0000 0.8660 -0.5000
vn 1.0000 -0.0000 -0.0000
vn -0.7332 0.1513 0.6630
vn -0.0000 0.2225 0.9749
vn -0.7332 -0.0000 0.6800
vn -0.7332 0.2951 0.6127
vn -0.0000 0.4339 0.9010
vn -0.7332 0.4240 0.5317
vn -0.0000 0.6235 0.7818
vn -0.7332 0.5317 0.4240
vn -0.0000 0.7818 0.6235
vn -0.7332 0.6127 0.2951
vn -0.0000 0.9010 0.4339
vn -0.7332 0.6630 0.1513
vn -0.0000 0.9749 0.2225
vn -0.7332 0.6800 -0.0000
vn -0.0000 1.0000 -0.0000
vn -0.7332 0.6630 -0.1513
vn -0.0000 0.9749 -0.2225
vn -0.7332 0.6127 -0.2951
vn -0.0000 0.9010 -0.4339
vn -0.7332 0.5317 -0.4240
vn -0.0000 0.7818 -0.6235
vn -0.7332 0.4240 -0.5317
vn -0.0000 0.6235 -0.7818
vn -0.7332 0.2951 -0.6127
vn -0.0000 0.4339 -0.9010
vn -0.7332 0.1513 -0.6630
vn -0.0000 0.2225 -0.9749
vn -0.7332 -0.0000 -0.6800
vn -0.7332 -0.1513 -0.6630
vn -0.0000 -0.2225 -0.9749
vn -0.7332 -0.2951 -0.6127
vn -0.0000 -0.4339 -0.9010
vn -0.7332 -0.4240 -0.5317
vn -0.0000 -0.6235 -0.7818
vn -0.7332 -0.5317 -0.4240
vn -0.0000 -0.7818 -0.6235
vn -0.7332 -0.6127 -0.2951
vn -0.0000 -0.9010 -0.4339
vn -0.7332 -0.6630 -0.1513
vn -0.0000 -0.9749 -0.2225
vn -0.7332 -0.6800 -0.0000
vn -0.0000 -1.0000 -0.0000
vn -0.7332 -0.6630 0.1513
vn -0.0000 -0.9749 0.2225
vn -0.7332 -0.6127 0.2951
vn -0.0000 -0.9010 0.4339
vn -0.7332 -0.5317 0.4240
vn -0.0000 -0.7818 0.6235
vn -0.7332 -0.4240 0.5317
vn -0.0000 -0.6235 0.7818
vn -0.7332 -0.2951 0.6127
vn -0.0000 -0.4339 0.9010
vn -0.7332 -0.1513 0.6630
vn -0.0000 -0.2225 0.9749
vn -0.6828 0.1626 0.7123
vn -0.6828 0.3170 0.6583
vn -0.6828 0.5712 -0.4555
vn -0.6828 0.4555 -0.5712
vn -0.6828 -0.6583 -0.3170
vn -0.6828 -0.7123 -0.1626
vn -0.6828 0.7123 0.1626
vn -0.6828 0.7306 -0.0000
vn -0.6828 -0.1626 -0.7123
vn -0.6828 -0.3170 -0.6583
vn -0.6828 -0.5712 0.4555
vn -0.6828 -0.4555 0.5712
vn -0.6828 0.4555 0.5712
vn -0.6828 0.3170 -0.6583
vn -0.6828 -0.7306 -0.0000
vn -0.6828 0.7123 -0.1626
vn -0.6828 -0.4555 -0.5712
vn -0.6828 -0.3170 0.6583
vn -0.6828 0.5712 0.4555
vn -0.6828 0.1626 -0.7123
vn -0.6828 -0.7123 0.1626
vn -0.6828 0.6583 -0.3170
vn -0.6828 -0.5712 -0.4555
vn -0.6828 -0.1626 0.7123
vn -0.6828 0.6583 0.3170
vn -0.6828 -0.0000 -0.7306
vn -0.6828 -0.6583 0.3170
vn -0.6828 -0.0000 0.7306
vn -0.7332 0.2950 0.6127
vn -0.7332 -0.2950 -0.6127
vn -0.7332 0.2950 -0.6127
vn -0.7332 -0.2950 0.6127
vt 0.098358 0.923529
vt 0.000000 0.923529
vt 0.000000 0.769608
vt 0.098358 0.769607
vt 0.000000 0.615686
vt 0.098358 0.615686
vt 0.000000 0.461765
vt 0.098358 0.461765
vt 0.000000 0.307843
vt 0.098358 0.307843
vt 0.418847 0.923039
vt 0.418847 0.769118
vt 0.552147 0.692157
vt 0.685447 0.769118
vt 0.000000 0.153922
vt 0.098358 0.153922
vt -0.000000 0.000000
vt 0.098358 0.000000
vt 0.818746 0.692157
vt 0.952046 0.769118
vt 0.952046 0.923039
vt 0.552147 1.000000
vt 0.685447 0.923039
vt 0.685446 0.923039
vt 0.818746 1.000000
vt 0.810200 0.656275
vt 0.740305 0.656275
vt 0.740305 0.546896
vt 0.810200 0.546896
vt 0.740305 0.437517
vt 0.810200 0.437517
vt 0.740305 0.328137
vt 0.810200 0.328137
vt 0.740305 0.218758
vt 0.810200 0.218758
vt 0.098358 0.856330
vt 0.098358 0.746951
vt 0.193084 0.692262
vt 0.287809 0.746951
vt 0.287809 0.856330
vt 0.193084 0.911020
vt 0.740305 0.109379
vt 0.810200 0.109379
vt 0.740305 0.000000
vt 0.810200 0.000000
vt 0.904925 0.218758
vt 0.810200 0.164069
vt 0.810200 0.054690
vt 0.904925 0.000000
vt 0.999651 0.054690
vt 0.999651 0.164069
vt 0.276169 0.311677
vt 0.274684 0.691066
vt 0.257748 0.691037
vt 0.257574 0.311037
vt 0.294804 0.312743
vt 0.291613 0.691146
vt 0.313345 0.313074
vt 0.308527 0.691275
vt 0.331562 0.313785
vt 0.325427 0.691450
vt 0.349342 0.316028
vt 0.342298 0.691681
vt 0.366708 0.318673
vt 0.359146 0.691956
vt 0.383292 0.321787
vt 0.375987 0.692262
vt 0.469656 0.316522
vt 0.476418 0.691886
vt 0.459453 0.692157
vt 0.452999 0.318884
vt 0.487164 0.314969
vt 0.493400 0.691651
vt 0.504950 0.313026
vt 0.510390 0.691450
vt 0.522988 0.311452
vt 0.527397 0.691288
vt 0.541375 0.311437
vt 0.544416 0.691177
vt 0.559837 0.310450
vt 0.561439 0.691104
vt 0.578405 0.311091
vt 0.578465 0.691076
vt 0.596984 0.310752
vt 0.595480 0.691102
vt 0.615511 0.312126
vt 0.612491 0.691168
vt 0.633985 0.312683
vt 0.629479 0.691280
vt 0.652150 0.313659
vt 0.646447 0.691435
vt 0.669971 0.315003
vt 0.663392 0.691633
vt 0.687164 0.317846
vt 0.680315 0.691872
vt 0.703790 0.320335
vt 0.697791 0.692157
vt 0.148860 0.318120
vt 0.156264 0.691956
vt 0.138822 0.692262
vt 0.132315 0.321130
vt 0.166236 0.315658
vt 0.173140 0.691685
vt 0.184079 0.313642
vt 0.190036 0.691455
vt 0.202160 0.311955
vt 0.206949 0.691272
vt 0.220583 0.311848
vt 0.223877 0.691142
vt 0.239059 0.310633
vt 0.240808 0.691063
vt 0.276791 0.281874
vt 0.296202 0.282563
vt 0.502250 0.284528
vt 0.521182 0.283119
vt 0.674237 0.287682
vt 0.693233 0.290857
vt 0.372615 0.291366
vt 0.392474 0.295932
vt 0.597784 0.281657
vt 0.617096 0.282208
vt 0.181240 0.285099
vt 0.200226 0.283644
vt 0.315499 0.283934
vt 0.540239 0.281967
vt 0.712531 0.295423
vt 0.445085 0.293882
vt 0.464288 0.289598
vt 0.636332 0.283555
vt 0.219261 0.282418
vt 0.334511 0.285725
vt 0.559367 0.281597
vt 0.123326 0.295335
vt 0.143134 0.290698
vt 0.483196 0.286538
vt 0.655418 0.285243
vt 0.238397 0.281876
vt 0.353532 0.288030
vt 0.578583 0.281195
vt 0.162233 0.287614
vt 0.257541 0.281822
vt 0.257678 0.255273
vt 0.277555 0.255067
vt 0.237863 0.254889
vt 0.578529 0.254543
vt 0.598499 0.254394
vt 0.297530 0.256060
vt 0.618448 0.255634
vt 0.317397 0.257529
vt 0.638291 0.257269
vt 0.337522 0.258511
vt 0.658240 0.258581
vt 0.357678 0.261151
vt 0.678419 0.260581
vt 0.377892 0.264476
vt 0.698369 0.264373
vt 0.397630 0.268960
vt 0.717825 0.268546
vt 0.440314 0.267429
vt 0.459581 0.263392
vt 0.118221 0.268545
vt 0.137972 0.264262
vt 0.479471 0.260318
vt 0.158083 0.260835
vt 0.499393 0.258334
vt 0.178191 0.258684
vt 0.519229 0.256219
vt 0.198106 0.256917
vt 0.539037 0.255780
vt 0.217965 0.255632
vt 0.558754 0.254938
vt 0.517271 0.227549
vt 0.537894 0.226281
vt 0.196596 0.227900
vt 0.217156 0.226998
vt 0.558516 0.225928
vt 0.237465 0.226686
vt 0.578981 0.225851
vt 0.257802 0.226239
vt 0.278149 0.226780
vt 0.599252 0.226312
vt 0.298521 0.227066
vt 0.619567 0.226684
vt 0.319329 0.227872
vt 0.640375 0.227474
vt 0.340279 0.229690
vt 0.661542 0.229279
vt 0.361551 0.231505
vt 0.682829 0.231709
vt 0.383656 0.234185
vt 0.704780 0.234460
vt 0.407219 0.238143
vt 0.727988 0.239008
vt 0.430269 0.238853
vt 0.453202 0.234316
vt 0.108578 0.237795
vt 0.132219 0.233779
vt 0.475054 0.231086
vt 0.154362 0.231078
vt 0.496406 0.228732
vt 0.175754 0.229203
vt 0.120668 0.003096
vt 0.143643 0.002174
vt 0.464211 0.002676
vt 0.487192 0.001779
vt 0.166571 0.001398
vt 0.510151 0.001045
vt 0.189473 0.000781
vt 0.533111 0.000491
vt 0.212371 0.000379
vt 0.556070 0.000128
vt 0.235235 0.000105
vt 0.579006 0.000000
vt 0.258112 0.000000
vt 0.281004 0.000066
vt 0.601963 0.000027
vt 0.303881 0.000346
vt 0.624948 0.000241
vt 0.326813 0.000750
vt 0.647959 0.000647
vt 0.349777 0.001338
vt 0.670993 0.001266
vt 0.372739 0.002126
vt 0.694059 0.002077
vt 0.395774 0.003018
vt 0.717165 0.003046
vt 0.418847 0.004067
vt 0.740305 0.004169
vt 0.418847 0.004805
vt 0.441188 0.003718
vt 0.098358 0.004072
s 0
f 1/1/1 2/2/1 4/3/1 3/4/1
f 3/4/2 4/3/2 6/5/2 5/6/2
f 5/6/3 6/5/3 8/7/3 7/8/3
f 7/8/4 8/7/4 10/9/4 9/10/4
f 2/11/5 12/12/5 10/13/5 8/14/5
f 9/10/6 10/9/6 12/15/6 11/16/6
f 11/16/7 12/15/7 2/17/7 1/18/7
f 1/14/8 3/19/8 5/20/8 7/21/8
f 4/22/5 2/11/5 8/14/5 6/23/5
f 11/24/8 1/14/8 7/21/8 9/25/8
f 13/26/1 14/27/1 16/28/1 15/29/1
f 15/29/2 16/28/2 18/30/2 17/31/2
f 17/31/3 18/30/3 20/32/3 19/33/3
f 19/33/4 20/32/4 22/34/4 21/35/4
f 16/36/5 14/37/5 24/38/5 22/39/5 20/40/5 18/41/5
f 21/35/6 22/34/6 24/42/6 23/43/6
f 23/43/7 24/42/7 14/44/7 13/45/7
f 13/46/8 15/47/8 17/48/8 19/49/8 21/50/8 23/51/8
s 1
f 25/52/9 53/53/10 80/54/2 52/55/11
f 26/56/12 54/57/13 53/53/10 25/52/9
f 27/58/14 55/59/15 54/57/13 26/56/12
f 28/60/16 56/61/17 55/59/15 27/58/14
f 29/62/18 57/63/19 56/61/17 28/60/16
f 30/64/20 58/65/21 57/63/19 29/62/18
f 31/66/22 59/67/23 58/65/21 30/64/20
f 32/68/24 60/69/25 59/70/23 31/71/22
f 33/72/26 61/73/27 60/69/25 32/68/24
f 34/74/28 62/75/29 61/73/27 33/72/26
f 35/76/30 63/77/31 62/75/29 34/74/28
f 36/78/32 64/79/33 63/77/31 35/76/30
f 37/80/34 65/81/35 64/79/33 36/78/32
f 38/82/36 66/83/6 65/81/35 37/80/34
f 39/84/37 67/85/38 66/83/6 38/82/36
f 40/86/39 68/87/40 67/85/38 39/84/37
f 41/88/41 69/89/42 68/87/40 40/86/39
f 42/90/43 70/91/44 69/89/42 41/88/41
f 43/92/45 71/93/46 70/91/44 42/90/43
f 44/94/47 72/95/48 71/93/46 43/92/45
f 45/96/49 73/97/50 72/95/48 44/94/47
f 46/98/51 74/99/52 73/100/50 45/101/49
f 47/102/53 75/103/54 74/99/52 46/98/51
f 48/104/55 76/105/56 75/103/54 47/102/53
f 49/106/57 77/107/58 76/105/56 48/104/55
f 50/108/59 78/109/60 77/107/58 49/106/57
f 51/110/61 79/111/62 78/109/60 50/108/59
f 52/55/11 80/54/2 79/111/62 51/110/61
f 26/56/12 25/52/9 81/112/63 82/113/64
f 35/76/30 34/74/28 90/114/65 91/115/66
f 44/94/47 43/92/45 99/116/67 100/117/68
f 31/66/22 30/64/20 86/118/69 87/119/70
f 40/86/39 39/84/37 95/120/71 96/121/72
f 49/106/57 48/104/55 104/122/73 105/123/74
f 27/58/14 26/56/12 82/113/64 83/124/75
f 36/78/32 35/76/30 91/115/66 92/125/76
f 45/96/49 44/94/47 100/117/68 101/126/77
f 32/68/24 31/71/22 87/127/70 88/128/78
f 41/88/41 40/86/39 96/121/72 97/129/79
f 50/108/59 49/106/57 105/123/74 106/130/80
f 28/60/16 27/58/14 83/124/75 84/131/81
f 37/80/34 36/78/32 92/125/76 93/132/82
f 46/98/51 45/101/49 101/133/77 102/134/83
f 33/72/26 32/68/24 88/128/78 89/135/84
f 42/90/43 41/88/41 97/129/79 98/136/85
f 51/110/61 50/108/59 106/130/80 107/137/86
f 29/62/18 28/60/16 84/131/81 85/138/87
f 38/82/36 37/80/34 93/132/82 94/139/88
f 47/102/53 46/98/51 102/134/83 103/140/89
f 25/52/9 52/55/11 108/141/90 81/112/63
f 34/74/28 33/72/26 89/135/84 90/114/65
f 43/92/45 42/90/43 98/136/85 99/116/67
f 52/55/11 51/110/61 107/137/86 108/141/90
f 30/64/20 29/62/18 85/138/87 86/118/69
f 39/84/37 38/82/36 94/139/88 95/120/71
f 48/104/55 47/102/53 103/140/89 104/122/73
f 81/112/63 108/141/90 136/142/11 109/143/9
f 108/141/90 107/137/86 135/144/61 136/142/11
f 95/120/71 94/139/88 122/145/36 123/146/37
f 82/113/64 81/112/63 109/143/9 110/147/91
f 96/121/72 95/120/71 123/146/37 124/148/92
f 83/124/75 82/113/64 110/147/91 111/149/14
f 97/129/79 96/121/72 124/148/92 125/150/41
f 84/131/81 83/124/75 111/149/14 112/151/16
f 98/136/85 97/129/79 125/150/41 126/152/43
f 85/138/87 84/131/81 112/151/16 113/153/18
f 99/116/67 98/136/85 126/152/43 127/154/45
f 86/118/69 85/138/87 113/153/18 114/155/20
f 100/117/68 99/116/67 127/154/45 128/156/47
f 87/119/70 86/118/69 114/155/20 115/157/22
f 101/126/77 100/117/68 128/156/47 129/158/49
f 88/128/78 87/127/70 115/159/22 116/160/24
f 102/134/83 101/133/77 129/161/49 130/162/51
f 89/135/84 88/128/78 116/160/24 117/163/26
f 103/140/89 102/134/83 130/162/51 131/164/53
f 90/114/65 89/135/84 117/163/26 118/165/28
f 104/122/73 103/140/89 131/164/53 132/166/55
f 91/115/66 90/114/65 118/165/28 119/167/30
f 105/123/74 104/122/73 132/166/55 133/168/57
f 92/125/76 91/115/66 119/167/30 120/169/93
f 106/130/80 105/123/74 133/168/57 134/170/94
f 93/132/82 92/125/76 120/169/93 121/171/34
f 107/137/86 106/130/80 134/170/94 135/144/61
f 94/139/88 93/132/82 121/171/34 122/145/36
f 120/169/93 119/167/30 147/172/66 148/173/76
f 134/170/94 133/168/57 161/174/74 162/175/80
f 121/171/34 120/169/93 148/173/76 149/176/82
f 135/144/61 134/170/94 162/175/80 163/177/86
f 122/145/36 121/171/34 149/176/82 150/178/88
f 109/143/9 136/142/11 164/179/90 137/180/63
f 136/142/11 135/144/61 163/177/86 164/179/90
f 123/146/37 122/145/36 150/178/88 151/181/71
f 110/147/91 109/143/9 137/180/63 138/182/64
f 124/148/92 123/146/37 151/181/71 152/183/72
f 111/149/14 110/147/91 138/182/64 139/184/75
f 125/150/41 124/148/92 152/183/72 153/185/79
f 112/151/16 111/149/14 139/184/75 140/186/81
f 126/152/43 125/150/41 153/185/79 154/187/85
f 113/153/18 112/151/16 140/186/81 141/188/87
f 127/154/45 126/152/43 154/187/85 155/189/67
f 114/155/20 113/153/18 141/188/87 142/190/69
f 128/156/47 127/154/45 155/189/67 156/191/68
f 115/157/22 114/155/20 142/190/69 143/192/70
f 129/158/49 128/156/47 156/191/68 157/193/77
f 116/160/24 115/159/22 143/194/70 144/195/78
f 130/162/51 129/161/49 157/196/77 158/197/83
f 117/163/26 116/160/24 144/195/78 145/198/84
f 131/164/53 130/162/51 158/197/83 159/199/89
f 118/165/28 117/163/26 145/198/84 146/200/65
f 132/166/55 131/164/53 159/199/89 160/201/73
f 119/167/30 118/165/28 146/200/65 147/172/66
f 133/168/57 132/166/55 160/201/73 161/174/74
f 159/199/89 158/197/83 186/202/52 187/203/54
f 146/200/65 145/198/84 173/204/27 174/205/29
f 160/201/73 159/199/89 187/203/54 188/206/56
f 147/172/66 146/200/65 174/205/29 175/207/31
f 161/174/74 160/201/73 188/206/56 189/208/58
f 148/173/76 147/172/66 175/207/31 176/209/33
f 162/175/80 161/174/74 189/208/58 190/210/60
f 149/176/82 148/173/76 176/209/33 177/211/35
f 163/177/86 162/175/80 190/210/60 191/212/62
f 150/178/88 149/176/82 177/211/35 178/213/6
f 137/180/63 164/179/90 192/214/2 165/215/10
f 164/179/90 163/177/86 191/212/62 192/214/2
f 151/181/71 150/178/88 178/213/6 179/216/38
f 138/182/64 137/180/63 165/215/10 166/217/13
f 152/183/72 151/181/71 179/216/38 180/218/40
f 139/184/75 138/182/64 166/217/13 167/219/15
f 153/185/79 152/183/72 180/218/40 181/220/42
f 140/186/81 139/184/75 167/219/15 168/221/17
f 154/187/85 153/185/79 181/220/42 182/222/44
f 141/188/87 140/186/81 168/221/17 169/223/19
f 155/189/67 154/187/85 182/222/44 183/224/46
f 142/190/69 141/188/87 169/223/19 170/225/21
f 156/191/68 155/189/67 183/224/46 184/226/48
f 143/192/70 142/190/69 170/225/21 171/227/23
f 157/193/77 156/191/68 184/226/48 185/228/50
f 144/195/78 143/194/70 171/229/23 172/230/25
f 158/197/83 157/196/77 185/231/50 186/202/52
f 145/198/84 144/195/78 172/230/25 173/204/27
