# Blender 4.2.4 LTS
# www.blender.org
mtllib BrokenGate.mtl
o Waterway_Gate
v 0.138633 -0.000330 0.710810
v 0.138633 0.223079 0.679231
v 0.138633 0.328532 0.640418
v 0.138633 0.426638 0.587299
v 0.138633 0.515206 0.521061
v 0.138633 0.592258 0.443183
v 0.138633 0.656072 0.355405
v 0.138633 0.705224 0.259688
v 0.138633 0.738615 0.158170
v 0.138633 0.755499 0.053119
v 0.138633 0.755499 -0.000000
v 0.138633 0.755499 0.026559
v 0.138633 0.684826 0.299411
v 0.138633 0.480527 0.546996
v 0.138633 0.446399 0.572520
v 0.000000 0.755499 -0.000000
v 0.000000 0.755499 0.026559
v 0.000000 0.755499 0.053119
v 0.000000 0.480527 0.546996
v 0.000000 0.738615 0.158170
v 0.000000 0.656072 0.355405
v 0.000000 0.592258 0.443183
v 0.000000 0.515206 0.521061
v 0.000000 0.446399 0.572520
v 0.000000 0.426638 0.587299
v 0.000000 0.705224 0.259688
v 0.000000 0.684826 0.299411
v 0.000000 0.328532 0.640418
v 0.000000 0.223079 0.679231
v 0.000000 -0.000330 0.710810
v 0.138633 -0.000330 -0.710810
v 0.138633 0.223079 -0.679231
v 0.138633 0.328532 -0.640418
v 0.138633 0.426638 -0.587299
v 0.138633 0.515206 -0.521061
v 0.138633 0.592258 -0.443183
v 0.138633 0.656072 -0.355405
v 0.138633 0.705224 -0.259688
v 0.138633 0.738615 -0.158170
v 0.138633 0.755499 -0.053119
v 0.138633 0.755499 -0.026559
v 0.138633 0.684826 -0.299411
v 0.138633 0.480527 -0.546996
v 0.138633 0.446399 -0.572520
v 0.000000 0.755499 -0.026559
v 0.000000 0.755499 -0.053119
v 0.000000 0.480527 -0.546996
v 0.000000 0.738615 -0.158170
v 0.000000 0.656072 -0.355405
v 0.000000 0.592258 -0.443183
v 0.000000 0.515206 -0.521061
v 0.000000 0.446399 -0.572520
v 0.000000 0.426638 -0.587299
v 0.000000 0.705224 -0.259688
v 0.000000 0.684826 -0.299411
v 0.000000 0.328532 -0.640418
v 0.000000 0.223079 -0.679231
v 0.000000 -0.000330 -0.710810
v -0.138633 -0.000330 0.710810
v -0.138633 0.223079 0.679231
v -0.138633 0.328532 0.640418
v -0.138633 0.426638 0.587299
v -0.138633 0.515206 0.521061
v -0.138633 0.592258 0.443183
v -0.138633 0.656072 0.355405
v -0.138633 0.705224 0.259688
v -0.138633 0.738615 0.158170
v -0.138633 0.755499 0.053119
v -0.138633 0.755499 -0.000000
v -0.138633 0.755499 0.026559
v -0.138633 0.684826 0.299411
v -0.138633 0.480527 0.546996
v -0.138633 0.446399 0.572520
v -0.138633 -0.000330 -0.710810
v -0.138633 0.223079 -0.679231
v -0.138633 0.328532 -0.640418
v -0.138633 0.426638 -0.587299
v -0.138633 0.515206 -0.521061
v -0.138633 0.592258 -0.443183
v -0.138633 0.656072 -0.355405
v -0.138633 0.705224 -0.259688
v -0.138633 0.738615 -0.158170
v -0.138633 0.755499 -0.053119
v -0.138633 0.755499 -0.026559
v -0.138633 0.684826 -0.299411
v -0.138633 0.480527 -0.546996
v -0.138633 0.446399 -0.572520
v 0.000000 0.891210 0.031960
v 0.140875 0.891210 0.031960
v 0.000000 0.578056 0.658214
v 0.140875 0.578056 0.658214
v 0.140875 0.000000 0.866028
v 0.140875 0.284858 0.817336
v 0.140875 0.404953 0.770631
v 0.140875 0.516683 0.706712
v 0.140875 0.539188 0.688928
v 0.140875 0.705301 0.533293
v 0.140875 0.617550 0.627006
v 0.140875 0.777977 0.427668
v 0.140875 0.810724 0.360288
v 0.140875 0.871982 0.190330
v 0.140875 0.833954 0.312489
v 0.140875 0.891210 0.063919
v 0.000000 0.617550 0.627006
v 0.000000 0.810724 0.360288
v 0.140875 0.891210 -0.000000
v 0.000000 0.000000 0.866028
v 0.000000 0.891210 -0.000000
v 0.000000 0.891210 0.063919
v 0.000000 0.871982 0.190330
v 0.000000 0.777977 0.427668
v 0.000000 0.705301 0.533293
v 0.000000 0.539188 0.688928
v 0.000000 0.516683 0.706712
v 0.000000 0.833954 0.312489
v 0.000000 0.404953 0.770631
v 0.000000 0.284858 0.817336
v 0.000000 0.891210 -0.031960
v 0.140875 0.891210 -0.031960
v 0.000000 0.578056 -0.658214
v 0.140875 0.578056 -0.658214
v 0.140875 -0.000000 -0.866028
v 0.140875 0.284858 -0.817336
v 0.140875 0.404953 -0.770631
v 0.140875 0.516683 -0.706712
v 0.140875 0.539188 -0.688928
v 0.140875 0.705301 -0.533293
v 0.140875 0.617550 -0.627006
v 0.140875 0.777977 -0.427668
v 0.140875 0.810724 -0.360288
v 0.140875 0.871982 -0.190330
v 0.140875 0.833954 -0.312489
v 0.140875 0.891210 -0.063919
v 0.000000 0.617550 -0.627006
v 0.000000 0.810724 -0.360288
v 0.000000 -0.000000 -0.866028
v 0.000000 0.891210 -0.063919
v 0.000000 0.871982 -0.190330
v 0.000000 0.777977 -0.427668
v 0.000000 0.705301 -0.533293
v 0.000000 0.539188 -0.688928
v 0.000000 0.516683 -0.706712
v 0.000000 0.833954 -0.312489
v 0.000000 0.404953 -0.770631
v 0.000000 0.284858 -0.817336
v -0.140875 0.891210 0.031960
v -0.140875 0.578056 0.658214
v -0.140875 0.000000 0.866028
v -0.140875 0.284858 0.817336
v -0.140875 0.404953 0.770631
v -0.140875 0.516683 0.706712
v -0.140875 0.539188 0.688928
v -0.140875 0.705301 0.533293
v -0.140875 0.617550 0.627006
v -0.140875 0.777977 0.427668
v -0.140875 0.810724 0.360288
v -0.140875 0.871982 0.190330
v -0.140875 0.833954 0.312489
v -0.140875 0.891210 0.063919
v -0.140875 0.891210 -0.000000
v -0.140875 0.891210 -0.031960
v -0.140875 0.578056 -0.658214
v -0.140875 -0.000000 -0.866028
v -0.140875 0.284858 -0.817336
v -0.140875 0.404953 -0.770631
v -0.140875 0.516683 -0.706712
v -0.140875 0.539188 -0.688928
v -0.140875 0.705301 -0.533293
v -0.140875 0.617550 -0.627006
v -0.140875 0.777977 -0.427668
v -0.140875 0.810724 -0.360288
v -0.140875 0.871982 -0.190330
v -0.140875 0.833954 -0.312489
v -0.140875 0.891210 -0.063919
v 0.138633 0.149797 0.694917
v 0.138633 0.074552 0.705548
v 0.000000 0.074559 0.705547
v 0.000000 0.149798 0.694917
v 0.138633 0.074552 -0.705548
v 0.138633 0.149797 -0.694917
v 0.000000 0.149798 -0.694917
v 0.000000 0.074559 -0.705547
v -0.138633 0.074552 0.705548
v -0.138633 0.149797 0.694917
v -0.138633 0.149797 -0.694917
v -0.138633 0.074552 -0.705548
v 0.141838 0.108235 0.856656
v 0.141830 0.182986 0.843807
v 0.000000 0.182986 0.843807
v 0.000000 0.108238 0.856655
v 0.141830 0.182986 -0.843807
v 0.141838 0.108235 -0.856656
v 0.000000 0.108238 -0.856655
v 0.000000 0.182986 -0.843807
v -0.141830 0.182986 0.843807
v -0.141838 0.108235 0.856656
v -0.141838 0.108235 -0.856656
v -0.141830 0.182986 -0.843807
vn 0.9998 -0.0012 -0.0199
vn 0.9999 -0.0020 -0.0168
vn 0.9999 -0.0025 -0.0164
vn -0.0000 -0.0701 -0.9975
vn -0.0000 -0.1051 -0.9945
vn -0.0000 -0.2781 -0.9606
vn -0.0000 -0.4118 -0.9113
vn -0.0000 -0.8896 -0.4568
vn -0.0000 -0.9226 -0.3858
vn -0.0000 -0.5390 -0.8423
vn -0.0000 -0.5989 -0.8008
vn -0.0000 -0.6567 -0.7542
vn -0.0000 -0.7620 -0.6475
vn -0.0000 -0.8517 -0.5240
vn -0.0000 -0.9717 -0.2363
vn -0.0000 -0.9968 -0.0796
vn -0.0000 -1.0000 -0.0000
vn 0.9999 -0.0020 0.0168
vn 0.9998 -0.0012 0.0199
vn 0.9999 -0.0025 0.0164
vn -0.0000 -0.0701 0.9975
vn -0.0000 -0.1051 0.9945
vn -0.0000 -0.2781 0.9606
vn -0.0000 -0.4118 0.9113
vn -0.0000 -0.8896 0.4568
vn -0.0000 -0.9226 0.3858
vn -0.0000 -0.5390 0.8423
vn -0.0000 -0.5989 0.8008
vn -0.0000 -0.6567 0.7542
vn -0.0000 -0.7620 0.6475
vn -0.0000 -0.8517 0.5240
vn -0.0000 -0.9717 0.2363
vn -0.0000 -0.9968 0.0796
vn -0.0000 -0.1747 -0.9846
vn 0.9998 -0.0050 0.0187
vn 0.9998 -0.0066 0.0170
vn 0.9998 -0.0048 0.0189
vn -0.0000 -0.1747 0.9846
vn -0.9998 -0.0050 -0.0187
vn -0.9998 -0.0066 -0.0170
vn -0.9998 -0.0048 -0.0189
vn -0.0000 0.2105 0.9776
vn -0.0000 0.3073 0.9516
vn -0.0000 0.3075 0.9515
vn -0.0000 0.2106 0.9776
vn -0.0000 0.0863 0.9963
vn -0.0000 0.1279 0.9918
vn -0.0000 0.1281 0.9918
vn -0.0000 0.4307 0.9025
vn -0.0000 0.8994 0.4371
vn -0.0000 0.9297 0.3682
vn -0.0000 0.5598 0.8286
vn -0.0000 0.6200 0.7846
vn -0.0000 0.6769 0.7361
vn -0.0000 0.7791 0.6269
vn -0.0000 0.8641 0.5034
vn -0.0000 0.9745 0.2244
vn -0.0000 0.9972 0.0754
vn -0.0000 1.0000 -0.0000
vn -0.0000 0.2105 -0.9776
vn -0.0000 0.2106 -0.9776
vn -0.0000 0.3075 -0.9515
vn -0.0000 0.3073 -0.9516
vn -0.0000 0.0863 -0.9963
vn -0.0000 0.1281 -0.9918
vn -0.0000 0.1279 -0.9918
vn -0.0000 0.4307 -0.9025
vn -0.0000 0.8994 -0.4371
vn -0.0000 0.9297 -0.3682
vn -0.0000 0.5598 -0.8286
vn -0.0000 0.6200 -0.7846
vn -0.0000 0.6769 -0.7361
vn -0.0000 0.7791 -0.6269
vn -0.0000 0.8641 -0.5034
vn -0.0000 0.9745 -0.2244
vn -0.0000 0.9972 -0.0754
vn -0.9999 -0.0149 0.0061
vn -0.9999 -0.0159 0.0037
vn -0.9999 -0.0159 0.0038
vn -0.9999 -0.0164 0.0013
vn -0.9999 -0.0165 -0.0000
vn 0.9999 -0.0062 -0.0136
vn 0.9999 -0.0064 -0.0135
vn 0.9999 -0.0082 -0.0125
vn 0.9999 -0.0083 -0.0125
vn -0.9999 -0.0143 0.0071
vn 0.9999 -0.0092 -0.0119
vn -0.9999 -0.0020 -0.0168
vn -0.9998 -0.0012 -0.0199
vn -0.9999 -0.0025 -0.0164
vn 0.9999 -0.0062 0.0136
vn 0.9999 -0.0064 0.0135
vn -0.9999 -0.0093 0.0120
vn -0.9999 -0.0102 0.0114
vn 0.9999 -0.0102 -0.0114
vn 0.9999 -0.0120 -0.0099
vn -0.9998 -0.0066 0.0170
vn -0.9998 -0.0050 0.0187
vn -0.9998 -0.0048 0.0189
vn 0.9999 -0.0082 0.0125
vn 0.9999 -0.0083 0.0125
vn -0.9999 -0.0092 0.0119
vn 0.9999 -0.0135 -0.0081
vn -0.9999 -0.0062 -0.0136
vn -0.9999 -0.0064 -0.0135
vn 0.9999 -0.0092 0.0119
vn 0.9999 -0.0143 -0.0071
vn -0.9999 -0.0082 -0.0125
vn -0.9999 -0.0083 -0.0125
vn 0.9999 -0.0120 0.0099
vn 0.9999 -0.0102 0.0114
vn 0.9999 -0.0149 -0.0061
vn 0.9999 -0.0159 -0.0037
vn 0.9999 -0.0159 -0.0038
vn -0.9999 -0.0092 -0.0119
vn 0.9999 -0.0135 0.0081
vn 0.9999 -0.0164 -0.0013
vn -0.9999 -0.0120 -0.0099
vn -0.9999 -0.0102 -0.0114
vn 0.9999 -0.0143 0.0071
vn 0.9999 -0.0165 -0.0000
vn -0.9999 -0.0135 -0.0081
vn 0.9999 -0.0159 0.0037
vn 0.9999 -0.0149 0.0061
vn 0.9999 -0.0159 0.0038
vn -0.9999 -0.0143 -0.0071
vn 0.9999 -0.0164 0.0013
vn -0.9999 -0.0159 -0.0037
vn -0.9999 -0.0149 -0.0061
vn -0.9999 -0.0159 -0.0038
vn -0.9999 -0.0164 -0.0013
vn -0.9998 -0.0012 0.0199
vn -0.9999 -0.0020 0.0168
vn -0.9999 -0.0025 0.0164
vn 0.9999 -0.0093 -0.0120
vn -0.9999 -0.0062 0.0136
vn -0.9999 -0.0064 0.0135
vn -0.9999 -0.0082 0.0125
vn -0.9999 -0.0083 0.0125
vn 0.9999 -0.0093 0.0120
vn -0.9999 -0.0120 0.0099
vn -0.9999 -0.0093 -0.0120
vn -0.9999 -0.0135 0.0081
vn 0.9998 -0.0048 -0.0189
vn 0.9998 -0.0050 -0.0187
vn 0.9998 -0.0066 -0.0170
vt 0.060962 0.726056
vt 0.066717 0.752531
vt 0.033786 0.770158
vt 0.026572 0.738263
vt 0.958244 0.179801
vt 0.957876 0.201964
vt 0.918036 0.201316
vt 0.918405 0.179151
vt 0.877453 0.245330
vt 0.917294 0.245981
vt 0.916741 0.279301
vt 0.876899 0.278648
vt 0.874384 0.429838
vt 0.914230 0.430493
vt 0.914004 0.444062
vt 0.874159 0.443406
vt 0.916189 0.312514
vt 0.876347 0.311861
vt 0.916067 0.319896
vt 0.876224 0.319243
vt 0.875796 0.344947
vt 0.915640 0.345601
vt 0.915092 0.378551
vt 0.875248 0.377896
vt 0.914547 0.411366
vt 0.874702 0.410711
vt 0.913462 0.476662
vt 0.873616 0.476006
vt 0.876012 0.331992
vt 0.915855 0.332646
vt 0.912922 0.509202
vt 0.873075 0.508546
vt 0.872940 0.516675
vt 0.912787 0.517332
vt 0.912652 0.525462
vt 0.872804 0.524805
vt 0.565165 0.752531
vt 0.570921 0.726056
vt 0.605310 0.738263
vt 0.598096 0.770158
vt 0.867044 0.871109
vt 0.867413 0.848947
vt 0.907267 0.849608
vt 0.906899 0.871773
vt 0.868156 0.804280
vt 0.868710 0.770962
vt 0.908562 0.771624
vt 0.908009 0.804943
vt 0.871225 0.619772
vt 0.871450 0.606204
vt 0.911300 0.606863
vt 0.911074 0.620431
vt 0.869262 0.737749
vt 0.909114 0.738410
vt 0.869385 0.730367
vt 0.909237 0.731028
vt 0.869813 0.704663
vt 0.870361 0.671713
vt 0.910211 0.672374
vt 0.909664 0.705324
vt 0.870907 0.638899
vt 0.910756 0.639558
vt 0.871993 0.573604
vt 0.911841 0.574262
vt 0.869597 0.717617
vt 0.909449 0.718278
vt 0.872534 0.541064
vt 0.912382 0.541722
vt 0.872669 0.532935
vt 0.912517 0.533592
vt 0.957503 0.224474
vt 0.957135 0.246633
vt 0.917662 0.223823
vt 0.574821 0.698872
vt 0.576752 0.671819
vt 0.611215 0.682331
vt 0.608773 0.715211
vt 0.956583 0.279953
vt 0.954075 0.431148
vt 0.953849 0.444717
vt 0.956032 0.313167
vt 0.955909 0.320549
vt 0.955483 0.346254
vt 0.954936 0.379205
vt 0.954392 0.412021
vt 0.953309 0.477319
vt 0.955698 0.333299
vt 0.952769 0.509859
vt 0.952634 0.517989
vt 0.952499 0.526119
vt 0.947494 0.827765
vt 0.907641 0.827102
vt 0.947862 0.805606
vt 0.574821 0.448873
vt 0.576752 0.421820
vt 0.611215 0.432331
vt 0.608773 0.465212
vt 0.948415 0.772286
vt 0.950923 0.621090
vt 0.951148 0.607521
vt 0.948966 0.739072
vt 0.949089 0.731689
vt 0.949515 0.705984
vt 0.950062 0.673034
vt 0.950606 0.640217
vt 0.951689 0.574920
vt 0.949300 0.718939
vt 0.952229 0.542379
vt 0.952364 0.534249
vt 0.754027 0.877846
vt 0.754546 0.849341
vt 0.796296 0.850303
vt 0.795778 0.878830
vt 0.836639 0.929035
vt 0.794886 0.928014
vt 0.795408 0.899228
vt 0.837160 0.900228
vt 0.755251 0.810627
vt 0.796999 0.811559
vt 0.758447 0.634954
vt 0.758734 0.619189
vt 0.800475 0.619972
vt 0.800188 0.635750
vt 0.755953 0.772036
vt 0.797699 0.772938
vt 0.756109 0.763458
vt 0.797855 0.764353
vt 0.756652 0.733592
vt 0.757349 0.695307
vt 0.799092 0.696149
vt 0.798397 0.734464
vt 0.758043 0.657178
vt 0.799785 0.657991
vt 0.759423 0.581310
vt 0.801162 0.582063
vt 0.756379 0.748645
vt 0.798124 0.749528
vt 0.760111 0.543501
vt 0.801849 0.544225
vt 0.760283 0.534055
vt 0.760455 0.524609
vt 0.802192 0.525318
vt 0.802020 0.534772
vt 0.766884 0.171371
vt 0.808605 0.171807
vt 0.808088 0.200335
vt 0.766365 0.199876
vt 0.851217 0.123022
vt 0.850696 0.151830
vt 0.808975 0.151410
vt 0.809498 0.122623
vt 0.807385 0.239079
vt 0.765660 0.238590
vt 0.762464 0.414263
vt 0.804195 0.414887
vt 0.803909 0.430665
vt 0.762177 0.430028
vt 0.806684 0.277700
vt 0.764958 0.277181
vt 0.806529 0.286284
vt 0.764802 0.285759
vt 0.764259 0.315625
vt 0.805986 0.316173
vt 0.805291 0.354488
vt 0.763562 0.353910
vt 0.804599 0.392646
vt 0.762868 0.392039
vt 0.803221 0.468574
vt 0.761487 0.467908
vt 0.764533 0.300573
vt 0.806260 0.301109
vt 0.802535 0.506412
vt 0.760799 0.505716
vt 0.760627 0.515163
vt 0.802363 0.515865
vt 0.837529 0.879813
vt 0.838045 0.851264
vt 0.767778 0.122225
vt 0.767255 0.150988
vt 0.838747 0.812490
vt 0.841929 0.636545
vt 0.842215 0.620755
vt 0.839446 0.773839
vt 0.839601 0.765248
vt 0.840142 0.735336
vt 0.840836 0.696991
vt 0.841527 0.658803
vt 0.842901 0.582817
vt 0.839870 0.750411
vt 0.843586 0.544950
vt 0.843757 0.535489
vt 0.843928 0.526028
vt 0.850327 0.172244
vt 0.849811 0.200793
vt 0.849109 0.239567
vt 0.845927 0.415512
vt 0.845642 0.431302
vt 0.848410 0.278218
vt 0.848255 0.286809
vt 0.847714 0.316721
vt 0.847021 0.355066
vt 0.846330 0.393254
vt 0.844955 0.469240
vt 0.847987 0.301646
vt 0.844270 0.507107
vt 0.844099 0.516568
vt 0.220656 0.676717
vt 0.257905 0.688781
vt 0.250237 0.722829
vt 0.208066 0.709702
vt 0.296451 0.694880
vt 0.293876 0.729466
vt 0.306196 0.694880
vt 0.304908 0.729466
vt 0.878565 0.178501
vt 0.878196 0.200663
vt 0.877822 0.223171
vt 0.315941 0.694880
vt 0.315941 0.729466
vt 0.080959 0.790628
vt 0.049909 0.811614
vt 0.867787 0.826439
vt 0.100449 0.826071
vt 0.071975 0.850182
vt 0.946753 0.872437
vt 0.947121 0.850274
vt 0.206081 0.669348
vt 0.191565 0.701683
vt 0.105872 0.833210
vt 0.078114 0.857951
vt 0.565165 0.502531
vt 0.570921 0.476057
vt 0.605310 0.488263
vt 0.598096 0.520159
vt 0.550924 0.790628
vt 0.581973 0.811614
vt 0.115237 0.595540
vt 0.124753 0.608069
vt 0.099490 0.635001
vt 0.088717 0.621368
vt 0.124753 0.858068
vt 0.153328 0.885905
vt 0.131841 0.915291
vt 0.099491 0.885000
vt 0.055130 0.421820
vt 0.057061 0.448873
vt 0.023110 0.465212
vt 0.020668 0.432331
vt 0.531434 0.826071
vt 0.559908 0.850182
vt 0.105872 0.583211
vt 0.078114 0.607951
vt 0.185536 0.908959
vt 0.168305 0.940378
vt 0.550924 0.540629
vt 0.581973 0.561615
vt 0.526011 0.833210
vt 0.553768 0.857951
vt 0.206081 0.919348
vt 0.191565 0.951682
vt 0.531433 0.576072
vt 0.559907 0.600183
vt 0.478554 0.885905
vt 0.507129 0.858068
vt 0.532392 0.885000
vt 0.500041 0.915291
vt 0.220656 0.926717
vt 0.257905 0.938780
vt 0.250237 0.972828
vt 0.208066 0.959701
vt 0.526011 0.583211
vt 0.553768 0.607951
vt 0.446347 0.908959
vt 0.463578 0.940378
vt 0.296451 0.944880
vt 0.293876 0.979465
vt 0.478554 0.635906
vt 0.507129 0.608069
vt 0.532392 0.635001
vt 0.500041 0.665292
vt 0.425801 0.919348
vt 0.440318 0.951682
vt 0.306196 0.944880
vt 0.304908 0.979465
vt 0.446347 0.658960
vt 0.463578 0.690379
vt 0.373977 0.938780
vt 0.411226 0.926717
vt 0.423817 0.959701
vt 0.381646 0.972828
vt 0.425801 0.669348
vt 0.440318 0.701683
vt 0.335432 0.944880
vt 0.338007 0.979465
vt 0.373977 0.688781
vt 0.411226 0.676717
vt 0.423817 0.709702
vt 0.381646 0.722829
vt 0.325686 0.944880
vt 0.326974 0.979465
vt 0.315941 0.944880
vt 0.315941 0.979465
vt 0.335432 0.694880
vt 0.338007 0.729466
vt 0.325687 0.694880
vt 0.326974 0.729466
vt 0.060962 0.476057
vt 0.066717 0.502531
vt 0.033786 0.520159
vt 0.026572 0.488263
vt 0.753133 0.926992
vt 0.753657 0.898229
vt 0.115237 0.845540
vt 0.088717 0.871367
vt 0.080959 0.540629
vt 0.049909 0.561615
vt 0.100449 0.576072
vt 0.071975 0.600183
vt 0.516645 0.845540
vt 0.543166 0.871367
vt 0.153328 0.635906
vt 0.131841 0.665292
vt 0.516645 0.595541
vt 0.543165 0.621368
vt 0.185536 0.658960
vt 0.168304 0.690379
vt 0.023110 0.715211
vt 0.057061 0.698872
vt 0.055130 0.671819
vt 0.020668 0.682331
s 1
usemtl Door_Frame
f 175/1/1 2/2/2 93/3/3 188/4/1
f 59/5/4 183/6/5 177/7/5 30/8/4
f 2/9/6 29/10/6 28/11/7 3/12/7
f 13/13/8 27/14/8 26/15/9 8/16/9
f 3/12/7 28/11/7 25/17/10 4/18/10
f 4/18/10 25/17/10 24/19/11 15/20/11
f 5/21/12 23/22/12 22/23/13 6/24/13
f 6/24/13 22/23/13 21/25/14 7/26/14
f 7/26/14 21/25/14 27/14/8 13/13/8
f 8/16/9 26/15/9 20/27/15 9/28/15
f 14/29/11 19/30/11 23/22/12 5/21/12
f 9/28/15 20/27/15 18/31/16 10/32/16
f 12/33/17 17/34/17 16/35/17 11/36/17
f 15/20/11 24/19/11 19/30/11 14/29/11
f 10/32/16 18/31/16 17/34/17 12/33/17
f 32/37/18 180/38/19 191/39/19 123/40/20
f 31/41/21 179/42/22 182/43/22 58/44/21
f 32/45/23 33/46/24 56/47/24 57/48/23
f 42/49/25 38/50/26 54/51/26 55/52/25
f 33/46/24 34/53/27 53/54/27 56/47/24
f 34/53/27 44/55/28 52/56/28 53/54/27
f 35/57/29 36/58/30 50/59/30 51/60/29
f 36/58/30 37/61/31 49/62/31 50/59/30
f 37/61/31 42/49/25 55/52/25 49/62/31
f 38/50/26 39/63/32 48/64/32 54/51/26
f 43/65/28 35/57/29 51/60/29 47/66/28
f 39/63/32 40/67/33 46/68/33 48/64/32
f 41/69/17 11/36/17 16/35/17 45/70/17
f 44/55/28 43/65/28 47/66/28 52/56/28
f 40/67/33 41/69/17 45/70/17 46/68/33
f 184/71/34 60/72/6 29/10/6 178/73/34
f 179/74/35 31/75/36 122/76/36 192/77/37
f 60/72/6 61/78/7 28/11/7 29/10/6
f 71/79/8 66/80/9 26/15/9 27/14/8
f 61/78/7 62/81/10 25/17/10 28/11/7
f 62/81/10 73/82/11 24/19/11 25/17/10
f 63/83/12 64/84/13 22/23/13 23/22/12
f 64/84/13 65/85/14 21/25/14 22/23/13
f 65/85/14 71/79/8 27/14/8 21/25/14
f 66/80/9 67/86/15 20/27/15 26/15/9
f 72/87/11 63/83/12 23/22/12 19/30/11
f 67/86/15 68/88/16 18/31/16 20/27/15
f 70/89/17 69/90/17 16/35/17 17/34/17
f 73/82/11 72/87/11 19/30/11 24/19/11
f 68/88/16 70/89/17 17/34/17 18/31/16
f 185/91/38 181/92/38 57/48/23 75/93/23
f 183/94/39 59/95/40 148/96/40 196/97/41
f 75/93/23 57/48/23 56/47/24 76/98/24
f 85/99/25 55/52/25 54/51/26 81/100/26
f 76/98/24 56/47/24 53/54/27 77/101/27
f 77/101/27 53/54/27 52/56/28 87/102/28
f 78/103/29 51/60/29 50/59/30 79/104/30
f 79/104/30 50/59/30 49/62/31 80/105/31
f 80/105/31 49/62/31 55/52/25 85/99/25
f 81/100/26 54/51/26 48/64/32 82/106/32
f 86/107/28 47/66/28 51/60/29 78/103/29
f 82/106/32 48/64/32 46/68/33 83/108/33
f 84/109/17 45/70/17 16/35/17 69/90/17
f 87/102/28 52/56/28 47/66/28 86/107/28
f 83/108/33 46/68/33 45/70/17 84/109/17
f 188/110/42 93/111/43 117/112/44 189/113/45
f 148/114/46 107/115/46 190/116/47 196/117/48
f 93/111/43 94/118/49 116/119/49 117/112/44
f 100/120/50 102/121/51 115/122/51 105/123/50
f 94/118/49 95/124/52 114/125/52 116/119/49
f 95/124/52 96/126/53 113/127/53 114/125/52
f 98/128/54 97/129/55 112/130/55 104/131/54
f 97/129/55 99/132/56 111/133/56 112/130/55
f 99/132/56 100/120/50 105/123/50 111/133/56
f 102/121/51 101/134/57 110/135/57 115/122/51
f 91/136/53 98/128/54 104/131/54 90/137/53
f 101/134/57 103/138/58 109/139/58 110/135/57
f 89/140/59 106/141/59 108/142/59 88/143/59
f 96/126/53 91/136/53 90/137/53 113/127/53
f 103/138/58 89/140/59 88/143/59 109/139/58
f 191/144/60 194/145/61 145/146/62 123/147/63
f 163/148/64 197/149/65 193/150/66 136/151/64
f 123/147/63 145/146/62 144/152/67 124/153/67
f 130/154/68 135/155/68 143/156/69 132/157/69
f 124/153/67 144/152/67 142/158/70 125/159/70
f 125/159/70 142/158/70 141/160/71 126/161/71
f 128/162/72 134/163/72 140/164/73 127/165/73
f 127/165/73 140/164/73 139/166/74 129/167/74
f 129/167/74 139/166/74 135/155/68 130/154/68
f 132/157/69 143/156/69 138/168/75 131/169/75
f 121/170/71 120/171/71 134/163/72 128/162/72
f 131/169/75 138/168/75 137/172/76 133/173/76
f 119/174/59 118/175/59 108/142/59 106/141/59
f 126/161/71 141/160/71 120/171/71 121/170/71
f 133/173/76 137/172/76 118/175/59 119/174/59
f 195/176/42 189/113/45 117/112/44 149/177/43
f 122/178/64 136/151/64 193/150/66 192/179/65
f 149/177/43 117/112/44 116/119/49 150/180/49
f 156/181/50 105/123/50 115/122/51 158/182/51
f 150/180/49 116/119/49 114/125/52 151/183/52
f 151/183/52 114/125/52 113/127/53 152/184/53
f 154/185/54 104/131/54 112/130/55 153/186/55
f 153/186/55 112/130/55 111/133/56 155/187/56
f 155/187/56 111/133/56 105/123/50 156/181/50
f 158/182/51 115/122/51 110/135/57 157/188/57
f 147/189/53 90/137/53 104/131/54 154/185/54
f 157/188/57 110/135/57 109/139/58 159/190/58
f 146/191/59 88/143/59 108/142/59 160/192/59
f 152/184/53 113/127/53 90/137/53 147/189/53
f 159/190/58 109/139/58 88/143/59 146/191/59
f 198/193/60 164/194/63 145/146/62 194/145/61
f 164/194/63 165/195/67 144/152/67 145/146/62
f 171/196/68 173/197/69 143/156/69 135/155/68
f 165/195/67 166/198/70 142/158/70 144/152/67
f 166/198/70 167/199/71 141/160/71 142/158/70
f 169/200/72 168/201/73 140/164/73 134/163/72
f 168/201/73 170/202/74 139/166/74 140/164/73
f 170/202/74 171/196/68 135/155/68 139/166/74
f 173/197/69 172/203/75 138/168/75 143/156/69
f 162/204/71 169/200/72 134/163/72 120/171/71
f 172/203/75 174/205/76 137/172/76 138/168/75
f 161/206/59 160/192/59 108/142/59 118/175/59
f 167/199/71 162/204/71 120/171/71 141/160/71
f 174/205/76 161/206/59 118/175/59 137/172/76
f 81/207/77 82/208/78 172/209/79 173/210/77
f 82/208/78 83/211/80 174/212/80 172/209/79
f 83/211/80 84/213/81 161/214/81 174/212/80
f 1/215/4 30/8/4 177/7/5 176/216/5
f 175/217/34 178/73/34 29/10/6 2/9/6
f 84/213/81 69/218/81 160/219/81 161/214/81
f 2/2/2 3/220/82 94/221/83 93/3/3
f 180/222/38 32/45/23 57/48/23 181/92/38
f 3/220/82 4/223/84 95/224/85 94/221/83
f 74/225/21 58/44/21 182/43/22 186/226/22
f 85/227/86 81/207/77 173/210/77 171/228/86
f 4/223/84 15/229/87 96/230/87 95/224/85
f 60/231/88 184/232/89 195/233/89 149/234/90
f 33/235/91 32/37/18 123/40/20 124/236/92
f 86/237/93 78/238/94 169/239/94 162/240/93
f 5/241/95 6/242/96 97/243/96 98/244/95
f 74/245/97 186/246/98 197/247/99 163/248/97
f 34/249/100 33/235/91 124/236/92 125/250/101
f 87/251/102 86/237/93 162/240/93 167/252/102
f 6/242/96 7/253/103 99/254/103 97/243/96
f 61/255/104 60/231/88 149/234/90 150/256/105
f 44/257/106 34/249/100 125/250/101 126/258/106
f 7/253/103 13/259/107 100/260/107 99/254/103
f 62/261/108 61/255/104 150/256/105 151/262/109
f 36/263/110 35/264/111 128/265/111 127/266/110
f 8/267/112 9/268/113 101/269/114 102/270/112
f 73/271/115 62/261/108 151/262/109 152/272/115
f 37/273/116 36/263/110 127/266/110 129/274/116
f 9/268/113 10/275/117 103/276/117 101/269/114
f 64/277/118 63/278/119 154/279/119 153/280/118
f 42/281/120 37/273/116 129/274/116 130/282/120
f 10/275/117 12/283/121 89/284/121 103/276/117
f 65/285/122 64/277/118 153/280/118 155/286/122
f 39/287/123 38/288/124 132/289/124 131/290/125
f 71/291/126 65/285/122 155/286/122 156/292/126
f 40/293/127 39/287/123 131/290/125 133/294/127
f 67/295/128 66/296/129 158/297/129 157/298/130
f 41/299/121 40/293/127 133/294/127 119/300/121
f 12/283/121 11/301/121 106/302/121 89/284/121
f 68/303/131 67/295/128 157/298/130 159/304/131
f 70/305/81 68/303/131 159/304/131 146/306/81
f 185/307/132 75/308/133 164/309/134 198/310/132
f 13/259/107 8/267/112 102/270/112 100/260/107
f 11/301/121 41/299/121 119/300/121 106/302/121
f 92/311/46 187/312/48 190/116/47 107/115/46
f 14/313/135 5/241/95 98/244/95 91/314/135
f 75/308/133 76/315/136 165/316/137 164/309/134
f 15/229/87 14/313/135 91/314/135 96/230/87
f 69/218/81 70/305/81 146/306/81 160/219/81
f 38/288/124 42/281/120 130/282/120 132/289/124
f 76/315/136 77/317/138 166/318/139 165/316/137
f 35/264/111 43/319/140 121/320/140 128/265/111
f 77/317/138 87/251/102 167/252/102 166/318/139
f 66/296/129 71/291/126 156/292/126 158/297/129
f 43/319/140 44/257/106 126/258/106 121/320/140
f 78/238/94 79/321/141 168/322/141 169/239/94
f 63/278/119 72/323/142 147/324/142 154/279/119
f 79/321/141 80/325/143 170/326/143 168/322/141
f 72/323/142 73/271/115 152/272/115 147/324/142
f 80/325/143 85/227/86 171/228/86 170/326/143
f 176/216/5 177/7/5 178/73/34 175/217/34
f 180/222/38 181/92/38 182/43/22 179/42/22
f 184/71/34 178/73/34 177/7/5 183/6/5
f 186/226/22 182/43/22 181/92/38 185/91/38
f 188/110/42 189/113/45 190/116/47 187/312/48
f 192/179/65 193/150/66 194/145/61 191/144/60
f 196/117/48 190/116/47 189/113/45 195/176/42
f 198/193/60 194/145/61 193/150/66 197/149/65
f 175/1/1 188/4/1 187/327/144 176/328/145
f 191/39/19 180/38/19 179/74/35 192/77/37
f 195/233/89 184/232/89 183/94/39 196/97/41
f 185/307/132 198/310/132 197/247/99 186/246/98
f 1/329/146 176/328/145 187/327/144 92/330/146
o Poles
v 0.000000 -0.000274 0.464863
v 0.000000 0.675102 0.464863
v 0.013446 -0.000274 0.467538
v 0.013446 0.675102 0.467538
v 0.024846 -0.000274 0.475154
v 0.024846 0.675102 0.475154
v 0.032463 -0.000274 0.486554
v 0.032463 0.675102 0.486554
v 0.035137 -0.000274 0.500000
v 0.035137 0.675102 0.500000
v 0.032463 -0.000274 0.513447
v 0.032463 0.675102 0.513447
v 0.024846 -0.000274 0.524846
v 0.024846 0.675102 0.524846
v 0.013446 -0.000274 0.532463
v 0.013446 0.675102 0.532463
v 0.000000 -0.000274 0.535137
v 0.000000 0.675102 0.535137
v -0.013446 -0.000274 0.532463
v -0.013446 0.675102 0.532463
v -0.024846 -0.000274 0.524846
v -0.024846 0.675102 0.524846
v -0.032463 -0.000274 0.513447
v -0.032463 0.675102 0.513447
v -0.035137 -0.000274 0.500000
v -0.035137 0.675102 0.500000
v -0.032463 -0.000274 0.486554
v -0.032463 0.675102 0.486554
v -0.024846 -0.000274 0.475154
v -0.024846 0.675102 0.475154
v -0.013446 -0.000274 0.467538
v -0.013446 0.675102 0.467538
v 0.000000 0.253910 0.498896
v 0.007079 0.253910 0.500304
v 0.013081 0.253910 0.504314
v 0.017091 0.253910 0.510316
v 0.018499 0.253910 0.517395
v 0.017091 0.253910 0.524474
v 0.013081 0.253910 0.530476
v 0.007079 0.253910 0.534486
v 0.000000 0.253910 0.535894
v -0.007079 0.253910 0.534486
v -0.013081 0.253910 0.530476
v -0.017091 0.253910 0.524474
v -0.018499 0.253910 0.517395
v -0.017091 0.253910 0.510316
v -0.013081 0.253910 0.504314
v -0.007079 0.253910 0.500304
v 0.000000 0.001240 -0.288262
v 0.000000 0.789638 -0.288262
v 0.013446 0.001240 -0.285588
v 0.013446 0.789638 -0.285588
v 0.024846 0.001240 -0.277971
v 0.024846 0.789638 -0.277971
v 0.032463 0.001240 -0.266572
v 0.032463 0.789638 -0.266572
v 0.035137 0.001240 -0.253125
v 0.035137 0.789638 -0.253125
v 0.032463 0.001240 -0.239679
v 0.032463 0.789638 -0.239679
v 0.024846 0.001240 -0.228280
v 0.024846 0.789638 -0.228280
v 0.013446 0.001240 -0.220663
v 0.013446 0.789638 -0.220663
v 0.000000 0.001240 -0.217988
v 0.000000 0.789638 -0.217988
v -0.013446 0.001240 -0.220663
v -0.013446 0.789638 -0.220663
v -0.024846 0.001240 -0.228280
v -0.024846 0.789638 -0.228280
v -0.032463 0.001240 -0.239679
v -0.032463 0.789638 -0.239679
v -0.035137 0.001240 -0.253125
v -0.035137 0.789638 -0.253125
v -0.032463 0.001240 -0.266572
v -0.032463 0.789638 -0.266572
v -0.024846 0.001240 -0.277971
v -0.024846 0.789638 -0.277971
v -0.013446 0.001240 -0.285588
v -0.013446 0.789638 -0.285588
v 0.000000 0.246086 -0.369143
v 0.008662 0.246086 -0.367421
v 0.016006 0.246086 -0.362514
v 0.020913 0.246086 -0.355170
v 0.022635 0.246086 -0.346508
v 0.020913 0.246086 -0.337846
v 0.016006 0.246086 -0.330502
v 0.008662 0.246086 -0.325595
v 0.000000 0.246086 -0.323872
v -0.008662 0.246086 -0.325595
v -0.016006 0.246086 -0.330502
v -0.020913 0.246086 -0.337846
v -0.022635 0.246086 -0.346508
v -0.020913 0.246086 -0.355170
v -0.016006 0.246086 -0.362514
v -0.008662 0.246086 -0.367421
v 0.000000 -0.000274 -0.535137
v 0.000000 0.675102 -0.535137
v 0.013446 -0.000274 -0.532463
v 0.013446 0.675102 -0.532463
v 0.024846 -0.000274 -0.524846
v 0.024846 0.675102 -0.524846
v 0.032463 -0.000274 -0.513447
v 0.032463 0.675102 -0.513447
v 0.035137 -0.000274 -0.500000
v 0.035137 0.675102 -0.500000
v 0.032463 -0.000274 -0.486554
v 0.032463 0.675102 -0.486554
v 0.024846 -0.000274 -0.475154
v 0.024846 0.675102 -0.475154
v 0.013446 -0.000274 -0.467538
v 0.013446 0.675102 -0.467538
v 0.000000 -0.000274 -0.464863
v 0.000000 0.675102 -0.464863
v -0.013446 -0.000274 -0.467538
v -0.013446 0.675102 -0.467538
v -0.024846 -0.000274 -0.475154
v -0.024846 0.675102 -0.475154
v -0.032463 -0.000274 -0.486554
v -0.032463 0.675102 -0.486554
v -0.035137 -0.000274 -0.500000
v -0.035137 0.675102 -0.500000
v -0.032463 -0.000274 -0.513447
v -0.032463 0.675102 -0.513447
v -0.024846 -0.000274 -0.524846
v -0.024846 0.675102 -0.524846
v -0.013446 -0.000274 -0.532463
v -0.013446 0.675102 -0.532463
v 0.000000 0.308050 -0.521723
v 0.008313 0.308050 -0.520070
v 0.015361 0.308050 -0.515361
v 0.020070 0.308050 -0.508313
v 0.021723 0.308050 -0.500000
v 0.020070 0.308050 -0.491687
v 0.015361 0.308050 -0.484639
v 0.008313 0.308050 -0.479931
v 0.000000 0.308050 -0.478277
v -0.008313 0.308050 -0.479931
v -0.015361 0.308050 -0.484639
v -0.020070 0.308050 -0.491687
v -0.021723 0.308050 -0.500000
v -0.020070 0.308050 -0.508313
v -0.015361 0.308050 -0.515361
v -0.008313 0.308050 -0.520070
v 0.000000 0.001240 0.214976
v 0.000000 0.789638 0.214976
v 0.013446 0.001240 0.217650
v 0.013446 0.789638 0.217650
v 0.024846 0.001240 0.225267
v 0.024846 0.789638 0.225267
v 0.032463 0.001240 0.236666
v 0.032463 0.789638 0.236666
v 0.035137 0.001240 0.250113
v 0.035137 0.789638 0.250113
v 0.032463 0.001240 0.263559
v 0.032463 0.789638 0.263559
v 0.024846 0.001240 0.274959
v 0.024846 0.789638 0.274959
v 0.013446 0.001240 0.282575
v 0.013446 0.789638 0.282575
v 0.000000 0.001240 0.285250
v 0.000000 0.789638 0.285250
v -0.013446 0.001240 0.282575
v -0.013446 0.789638 0.282575
v -0.024846 0.001240 0.274959
v -0.024846 0.789638 0.274959
v -0.032463 0.001240 0.263559
v -0.032463 0.789638 0.263559
v -0.035137 0.001240 0.250113
v -0.035137 0.789638 0.250113
v -0.032463 0.001240 0.236666
v -0.032463 0.789638 0.236666
v -0.024846 0.001240 0.225267
v -0.024846 0.789638 0.225267
v -0.013446 0.001240 0.217650
v -0.013446 0.789638 0.217650
v 0.000000 0.308349 0.330403
v 0.007112 0.308349 0.331817
v 0.013142 0.308349 0.335846
v 0.017171 0.308349 0.341876
v 0.018586 0.308349 0.348989
v 0.017171 0.308349 0.356101
v 0.013142 0.308349 0.362131
v 0.007112 0.308349 0.366159
v 0.000000 0.308349 0.367574
v -0.007112 0.308349 0.366159
v -0.013142 0.308349 0.362131
v -0.017171 0.308349 0.356101
v -0.018586 0.308349 0.348989
v -0.017171 0.308349 0.341876
v -0.013142 0.308349 0.335846
v -0.007112 0.308349 0.331817
vn -0.0000 0.0266 -0.9996
vn -0.0000 -0.0805 -0.9968
vn 0.3797 -0.0775 -0.9218
vn 0.3850 0.0255 -0.9226
vn 0.7029 -0.0686 -0.7080
vn 0.7103 0.0225 -0.7035
vn 0.9207 -0.0554 -0.3864
vn 0.9262 0.0181 -0.3767
vn 0.9992 -0.0397 -0.0051
vn 0.9999 0.0128 0.0069
vn 0.9254 -0.0239 0.3782
vn 0.9214 0.0076 0.3885
vn 0.7096 -0.0104 0.7045
vn 0.7037 0.0033 0.7105
vn 0.3845 -0.0014 0.9231
vn 0.3802 0.0004 0.9249
vn -0.0000 0.0018 1.0000
vn -0.0000 -0.0006 1.0000
vn -0.3845 -0.0014 0.9231
vn -0.3802 0.0004 0.9249
vn -0.7096 -0.0104 0.7045
vn -0.7037 0.0033 0.7105
vn -0.9254 -0.0239 0.3782
vn -0.9214 0.0076 0.3885
vn -0.9992 -0.0397 -0.0051
vn -0.9999 0.0128 0.0069
vn -0.9207 -0.0554 -0.3864
vn -0.9262 0.0181 -0.3767
vn -0.7029 -0.0686 -0.7080
vn -0.7103 0.0225 -0.7035
vn -0.3797 -0.0775 -0.9218
vn -0.3850 0.0255 -0.9226
vn -0.3766 0.1277 -0.9175
vn -0.0000 0.1327 -0.9912
vn -0.6984 0.1134 -0.7067
vn -0.9170 0.0917 -0.3881
vn -0.9978 0.0659 -0.0083
vn -0.9261 0.0397 0.3752
vn -0.7112 0.0174 0.7028
vn -0.3857 0.0023 0.9226
vn -0.0000 -0.0030 1.0000
vn 0.3857 0.0023 0.9226
vn 0.7112 0.0174 0.7028
vn 0.9261 0.0397 0.3752
vn 0.9978 0.0659 -0.0083
vn 0.9170 0.0917 -0.3881
vn 0.6984 0.1134 -0.7067
vn 0.3766 0.1277 -0.9175
vn -0.0000 -0.0832 -0.9965
vn -0.0000 0.1472 -0.9891
vn 0.3868 0.1340 -0.9124
vn 0.3704 -0.0776 -0.9256
vn 0.7144 0.0962 -0.6931
vn 0.6897 -0.0604 -0.7216
vn 0.9305 0.0396 -0.3641
vn 0.9115 -0.0313 -0.4102
vn 0.9994 -0.0266 0.0210
vn 0.9994 0.0072 -0.0334
vn 0.9125 -0.0914 0.3986
vn 0.9343 0.0480 0.3532
vn 0.6894 -0.1447 0.7097
vn 0.7214 0.0825 0.6876
vn 0.3694 -0.1793 0.9118
vn 0.3925 0.1044 0.9138
vn -0.0000 -0.1912 0.9815
vn -0.3694 -0.1793 0.9118
vn -0.3925 0.1044 0.9138
vn -0.6894 -0.1447 0.7097
vn -0.7214 0.0825 0.6876
vn -0.9125 -0.0914 0.3986
vn -0.9343 0.0480 0.3532
vn -0.9994 -0.0266 0.0210
vn -0.9994 0.0072 -0.0334
vn -0.9305 0.0396 -0.3641
vn -0.9115 -0.0313 -0.4102
vn -0.7144 0.0962 -0.6931
vn -0.6897 -0.0604 -0.7216
vn -0.3868 0.1340 -0.9124
vn -0.3704 -0.0776 -0.9256
vn -0.3827 -0.2861 -0.8784
vn -0.0000 -0.3137 -0.9495
vn -0.7147 -0.2051 -0.6687
vn -0.9364 -0.0795 -0.3419
vn -0.9967 0.0679 0.0446
vn -0.8883 0.2064 0.4102
vn -0.6516 0.3122 0.6914
vn -0.3412 0.3759 0.8616
vn -0.0000 0.3969 0.9179
vn 0.3412 0.3759 0.8616
vn 0.6516 0.3122 0.6914
vn 0.8883 0.2064 0.4102
vn 0.9967 0.0679 0.0446
vn 0.9364 -0.0796 -0.3419
vn 0.7147 -0.2051 -0.6687
vn 0.3827 -0.2861 -0.8784
vn -0.0000 0.0035 -1.0000
vn -0.0000 -0.0365 -0.9993
vn 0.3824 -0.0365 -0.9233
vn 0.3827 0.0035 -0.9239
vn 0.7066 -0.0365 -0.7066
vn 0.7071 0.0035 -0.7071
vn 0.9233 -0.0365 -0.3824
vn 0.9239 0.0035 -0.3827
vn 0.9993 -0.0365 -0.0000
vn 1.0000 0.0035 -0.0000
vn 0.9233 -0.0365 0.3824
vn 0.9239 0.0035 0.3827
vn 0.7066 -0.0365 0.7067
vn 0.7071 0.0035 0.7071
vn 0.3824 -0.0365 0.9233
vn 0.3827 0.0035 0.9239
vn -0.0000 -0.0365 0.9993
vn -0.0000 0.0035 1.0000
vn -0.3824 -0.0365 0.9233
vn -0.3827 0.0035 0.9239
vn -0.7066 -0.0365 0.7067
vn -0.7071 0.0035 0.7071
vn -0.9233 -0.0365 0.3824
vn -0.9239 0.0035 0.3827
vn -0.9993 -0.0365 -0.0000
vn -1.0000 0.0035 -0.0000
vn -0.9233 -0.0365 -0.3824
vn -0.9239 0.0035 -0.3827
vn -0.7066 -0.0365 -0.7066
vn -0.7071 0.0035 -0.7071
vn -0.3824 -0.0365 -0.9233
vn -0.3827 0.0035 -0.9239
vn -0.3823 0.0435 -0.9230
vn -0.0000 0.0435 -0.9991
vn -0.7064 0.0435 -0.7065
vn -0.9230 0.0435 -0.3823
vn -0.9991 0.0435 -0.0000
vn -0.9230 0.0435 0.3823
vn -0.7064 0.0435 0.7065
vn -0.3823 0.0435 0.9230
vn -0.0000 0.0435 0.9991
vn 0.3823 0.0435 0.9230
vn 0.7064 0.0435 0.7065
vn 0.9230 0.0435 0.3823
vn 0.9991 0.0435 -0.0000
vn 0.9230 0.0435 -0.3823
vn 0.7064 0.0435 -0.7065
vn 0.3823 0.0435 -0.9230
vn -0.0000 -0.2332 -0.9724
vn 0.3651 -0.2194 -0.9047
vn 0.3935 0.0602 -0.9173
vn 0.6837 -0.1792 -0.7075
vn 0.7225 0.0479 -0.6898
vn 0.9087 -0.1165 -0.4008
vn 0.9346 0.0288 -0.3546
vn 0.9989 -0.0395 -0.0249
vn 0.9995 0.0061 0.0321
vn 0.9319 0.0397 0.3606
vn 0.9122 -0.0154 0.4094
vn 0.7156 0.1076 0.6901
vn 0.6910 -0.0319 0.7221
vn 0.3872 0.1528 0.9092
vn 0.3715 -0.0418 0.9275
vn -0.0000 0.1686 0.9857
vn -0.0000 -0.0451 0.9990
vn -0.3872 0.1528 0.9092
vn -0.3715 -0.0418 0.9275
vn -0.7156 0.1076 0.6901
vn -0.6910 -0.0319 0.7221
vn -0.9319 0.0397 0.3606
vn -0.9122 -0.0154 0.4094
vn -0.9989 -0.0395 -0.0249
vn -0.9995 0.0061 0.0321
vn -0.9087 -0.1165 -0.4008
vn -0.9346 0.0288 -0.3546
vn -0.6837 -0.1792 -0.7075
vn -0.7225 0.0479 -0.6898
vn -0.3651 -0.2194 -0.9047
vn -0.3935 0.0602 -0.9173
vn -0.3490 0.3329 -0.8760
vn -0.0000 0.3518 -0.9361
vn -0.6620 0.2761 -0.6968
vn -0.8947 0.1840 -0.4070
vn -0.9971 0.0660 -0.0381
vn -0.9356 -0.0584 0.3483
vn -0.7168 -0.1650 0.6774
vn -0.3858 -0.2349 0.8922
vn -0.0000 -0.2589 0.9659
vn 0.3858 -0.2349 0.8922
vn 0.7168 -0.1650 0.6774
vn 0.9356 -0.0584 0.3483
vn 0.9971 0.0660 -0.0381
vn 0.8947 0.1840 -0.4070
vn 0.6620 0.2761 -0.6968
vn 0.3490 0.3329 -0.8760
vt 0.184577 0.178891
vt 0.184577 0.228226
vt 0.174688 0.228226
vt 0.174688 0.178892
vt 0.164800 0.228226
vt 0.164800 0.178892
vt 0.154911 0.228226
vt 0.154911 0.178892
vt 0.145023 0.228226
vt 0.145023 0.178892
vt 0.135134 0.228226
vt 0.135134 0.178892
vt 0.125246 0.228226
vt 0.125246 0.178892
vt 0.115357 0.228226
vt 0.115357 0.178892
vt 0.105469 0.228226
vt 0.105469 0.178892
vt 0.095580 0.228226
vt 0.095580 0.178892
vt 0.085692 0.228226
vt 0.085692 0.178892
vt 0.075803 0.228226
vt 0.075803 0.178892
vt 0.065915 0.228226
vt 0.065915 0.178892
vt 0.056026 0.228226
vt 0.056026 0.178892
vt 0.046138 0.228226
vt 0.046138 0.178892
vt 0.036249 0.228226
vt 0.036249 0.178892
vt 0.026361 0.228226
vt 0.026361 0.178891
vt 0.036249 0.149119
vt 0.026361 0.149118
vt 0.046138 0.149119
vt 0.056026 0.149119
vt 0.065915 0.149119
vt 0.075803 0.149119
vt 0.085692 0.149119
vt 0.095580 0.149119
vt 0.105469 0.149119
vt 0.115357 0.149119
vt 0.125246 0.149119
vt 0.135134 0.149119
vt 0.145023 0.149119
vt 0.154911 0.149119
vt 0.164800 0.149119
vt 0.174688 0.149119
vt 0.184577 0.149118
vt 0.690940 0.303635
vt 0.690940 0.356408
vt 0.680256 0.356408
vt 0.680256 0.303635
vt 0.669572 0.356408
vt 0.669572 0.303635
vt 0.658888 0.356408
vt 0.658888 0.303635
vt 0.648204 0.356408
vt 0.648204 0.303635
vt 0.637520 0.356408
vt 0.637520 0.303635
vt 0.626837 0.356408
vt 0.626837 0.303635
vt 0.616153 0.356408
vt 0.616153 0.303635
vt 0.605469 0.356408
vt 0.605469 0.303635
vt 0.594785 0.356408
vt 0.594785 0.303635
vt 0.584101 0.356408
vt 0.584101 0.303635
vt 0.573417 0.356408
vt 0.573417 0.303635
vt 0.562733 0.356408
vt 0.562733 0.303635
vt 0.552049 0.356408
vt 0.552049 0.303635
vt 0.541365 0.356408
vt 0.541365 0.303635
vt 0.530681 0.356408
vt 0.530681 0.303635
vt 0.519998 0.356408
vt 0.519998 0.303635
vt 0.530681 0.270937
vt 0.519998 0.270937
vt 0.541365 0.270937
vt 0.552049 0.270937
vt 0.562733 0.270937
vt 0.573417 0.270937
vt 0.584101 0.270937
vt 0.594785 0.270937
vt 0.605469 0.270937
vt 0.616153 0.270937
vt 0.626837 0.270937
vt 0.637520 0.270937
vt 0.648204 0.270937
vt 0.658888 0.270937
vt 0.669572 0.270937
vt 0.680256 0.270937
vt 0.690940 0.270937
vt 0.684576 0.185233
vt 0.684576 0.228226
vt 0.674688 0.228226
vt 0.674688 0.185233
vt 0.664799 0.228226
vt 0.664799 0.185233
vt 0.654911 0.228226
vt 0.654911 0.185233
vt 0.645022 0.228226
vt 0.645022 0.185233
vt 0.635134 0.228226
vt 0.635134 0.185233
vt 0.625245 0.228226
vt 0.625245 0.185233
vt 0.615357 0.228226
vt 0.615357 0.185233
vt 0.605468 0.228226
vt 0.605468 0.185233
vt 0.595580 0.228226
vt 0.595580 0.185233
vt 0.585691 0.228226
vt 0.585691 0.185233
vt 0.575803 0.228226
vt 0.575803 0.185233
vt 0.565914 0.228226
vt 0.565914 0.185233
vt 0.556026 0.228226
vt 0.556026 0.185233
vt 0.546137 0.228226
vt 0.546137 0.185233
vt 0.536249 0.228226
vt 0.536249 0.185233
vt 0.526360 0.228226
vt 0.526360 0.185233
vt 0.536249 0.149118
vt 0.526360 0.149118
vt 0.546137 0.149118
vt 0.556026 0.149118
vt 0.565914 0.149118
vt 0.575803 0.149118
vt 0.585691 0.149118
vt 0.595580 0.149118
vt 0.605468 0.149118
vt 0.615357 0.149118
vt 0.625245 0.149118
vt 0.635134 0.149118
vt 0.645022 0.149118
vt 0.654911 0.149118
vt 0.664799 0.149118
vt 0.674688 0.149118
vt 0.684576 0.149118
vt 0.190940 0.304231
vt 0.190940 0.356408
vt 0.180256 0.356408
vt 0.180256 0.304231
vt 0.169572 0.356408
vt 0.169572 0.304231
vt 0.158888 0.356408
vt 0.158888 0.304231
vt 0.148204 0.356408
vt 0.148204 0.304231
vt 0.137521 0.356408
vt 0.137521 0.304231
vt 0.126837 0.356408
vt 0.126837 0.304231
vt 0.116153 0.356408
vt 0.116153 0.304231
vt 0.105469 0.356408
vt 0.105469 0.304231
vt 0.094785 0.356408
vt 0.094785 0.304231
vt 0.084101 0.356408
vt 0.084101 0.304231
vt 0.073417 0.356408
vt 0.073417 0.304231
vt 0.062733 0.356408
vt 0.062733 0.304231
vt 0.052049 0.356408
vt 0.052049 0.304231
vt 0.041366 0.356408
vt 0.041366 0.304231
vt 0.030682 0.356408
vt 0.030682 0.304231
vt 0.019998 0.356408
vt 0.019998 0.304231
vt 0.030682 0.270937
vt 0.019998 0.270937
vt 0.041366 0.270937
vt 0.052049 0.270937
vt 0.062733 0.270937
vt 0.073417 0.270937
vt 0.084101 0.270937
vt 0.094785 0.270937
vt 0.105469 0.270937
vt 0.116153 0.270937
vt 0.126837 0.270937
vt 0.137521 0.270937
vt 0.148204 0.270937
vt 0.158888 0.270937
vt 0.169572 0.270937
vt 0.180256 0.270937
vt 0.190940 0.270937
s 1
usemtl Pole
f 231/331/147 200/332/148 202/333/149 232/334/150
f 232/334/150 202/333/149 204/335/151 233/336/152
f 233/336/152 204/335/151 206/337/153 234/338/154
f 234/338/154 206/337/153 208/339/155 235/340/156
f 235/340/156 208/339/155 210/341/157 236/342/158
f 236/342/158 210/341/157 212/343/159 237/344/160
f 237/344/160 212/343/159 214/345/161 238/346/162
f 238/346/162 214/345/161 216/347/163 239/348/164
f 239/348/164 216/347/163 218/349/165 240/350/166
f 240/350/166 218/349/165 220/351/167 241/352/168
f 241/352/168 220/351/167 222/353/169 242/354/170
f 242/354/170 222/353/169 224/355/171 243/356/172
f 243/356/172 224/355/171 226/357/173 244/358/174
f 244/358/174 226/357/173 228/359/175 245/360/176
f 245/360/176 228/359/175 230/361/177 246/362/178
f 246/362/178 230/361/177 200/363/148 231/364/147
f 229/365/179 246/362/178 231/364/147 199/366/180
f 227/367/181 245/360/176 246/362/178 229/365/179
f 225/368/182 244/358/174 245/360/176 227/367/181
f 223/369/183 243/356/172 244/358/174 225/368/182
f 221/370/184 242/354/170 243/356/172 223/369/183
f 219/371/185 241/352/168 242/354/170 221/370/184
f 217/372/186 240/350/166 241/352/168 219/371/185
f 215/373/187 239/348/164 240/350/166 217/372/186
f 213/374/188 238/346/162 239/348/164 215/373/187
f 211/375/189 237/344/160 238/346/162 213/374/188
f 209/376/190 236/342/158 237/344/160 211/375/189
f 207/377/191 235/340/156 236/342/158 209/376/190
f 205/378/192 234/338/154 235/340/156 207/377/191
f 203/379/193 233/336/152 234/338/154 205/378/192
f 201/380/194 232/334/150 233/336/152 203/379/193
f 199/381/180 231/331/147 232/334/150 201/380/194
f 279/382/195 248/383/196 250/384/197 280/385/198
f 280/385/198 250/384/197 252/386/199 281/387/200
f 281/387/200 252/386/199 254/388/201 282/389/202
f 282/389/202 254/388/201 256/390/203 283/391/204
f 283/391/204 256/390/203 258/392/205 284/393/206
f 284/393/206 258/392/205 260/394/207 285/395/208
f 285/395/208 260/394/207 262/396/209 286/397/210
f 286/397/210 262/396/209 264/398/211 287/399/211
f 287/399/211 264/398/211 266/400/212 288/401/213
f 288/401/213 266/400/212 268/402/214 289/403/215
f 289/403/215 268/402/214 270/404/216 290/405/217
f 290/405/217 270/404/216 272/406/218 291/407/219
f 291/407/219 272/406/218 274/408/220 292/409/221
f 292/409/221 274/408/220 276/410/222 293/411/223
f 293/411/223 276/410/222 278/412/224 294/413/225
f 294/413/225 278/412/224 248/414/196 279/415/195
f 277/416/226 294/413/225 279/415/195 247/417/227
f 275/418/228 293/411/223 294/413/225 277/416/226
f 273/419/229 292/409/221 293/411/223 275/418/228
f 271/420/230 291/407/219 292/409/221 273/419/229
f 269/421/231 290/405/217 291/407/219 271/420/230
f 267/422/232 289/403/215 290/405/217 269/421/231
f 265/423/233 288/401/213 289/403/215 267/422/232
f 263/424/234 287/399/234 288/401/213 265/423/233
f 261/425/235 286/397/210 287/399/234 263/424/234
f 259/426/236 285/395/208 286/397/210 261/425/235
f 257/427/237 284/393/206 285/395/208 259/426/236
f 255/428/238 283/391/204 284/393/206 257/427/237
f 253/429/239 282/389/202 283/391/204 255/428/238
f 251/430/240 281/387/200 282/389/202 253/429/239
f 249/431/241 280/385/198 281/387/200 251/430/240
f 247/432/227 279/382/195 280/385/198 249/431/241
f 327/433/242 296/434/243 298/435/244 328/436/245
f 328/436/245 298/435/244 300/437/246 329/438/247
f 329/438/247 300/437/246 302/439/248 330/440/249
f 330/440/249 302/439/248 304/441/250 331/442/251
f 331/442/251 304/441/250 306/443/252 332/444/253
f 332/444/253 306/443/252 308/445/254 333/446/255
f 333/446/255 308/445/254 310/447/256 334/448/257
f 334/448/257 310/447/256 312/449/258 335/450/259
f 335/450/259 312/449/258 314/451/260 336/452/261
f 336/452/261 314/451/260 316/453/262 337/454/263
f 337/454/263 316/453/262 318/455/264 338/456/265
f 338/456/265 318/455/264 320/457/266 339/458/267
f 339/458/267 320/457/266 322/459/268 340/460/269
f 340/460/269 322/459/268 324/461/270 341/462/271
f 341/462/271 324/461/270 326/463/272 342/464/273
f 342/464/273 326/463/272 296/465/243 327/466/242
f 325/467/274 342/464/273 327/466/242 295/468/275
f 323/469/276 341/462/271 342/464/273 325/467/274
f 321/470/277 340/460/269 341/462/271 323/469/276
f 319/471/278 339/458/267 340/460/269 321/470/277
f 317/472/279 338/456/265 339/458/267 319/471/278
f 315/473/280 337/454/263 338/456/265 317/472/279
f 313/474/281 336/452/261 337/454/263 315/473/280
f 311/475/282 335/450/259 336/452/261 313/474/281
f 309/476/283 334/448/257 335/450/259 311/475/282
f 307/477/284 333/446/255 334/448/257 309/476/283
f 305/478/285 332/444/253 333/446/255 307/477/284
f 303/479/286 331/442/251 332/444/253 305/478/285
f 301/480/287 330/440/249 331/442/251 303/479/286
f 299/481/288 329/438/247 330/440/249 301/480/287
f 297/482/289 328/436/245 329/438/247 299/481/288
f 295/483/275 327/433/242 328/436/245 297/482/289
f 375/484/290 344/485/290 346/486/291 376/487/292
f 376/487/292 346/486/291 348/488/293 377/489/294
f 377/489/294 348/488/293 350/490/295 378/491/296
f 378/491/296 350/490/295 352/492/297 379/493/298
f 379/493/298 352/492/297 354/494/299 380/495/300
f 380/495/300 354/494/299 356/496/301 381/497/302
f 381/497/302 356/496/301 358/498/303 382/499/304
f 382/499/304 358/498/303 360/500/305 383/501/306
f 383/501/306 360/500/305 362/502/307 384/503/308
f 384/503/308 362/502/307 364/504/309 385/505/310
f 385/505/310 364/504/309 366/506/311 386/507/312
f 386/507/312 366/506/311 368/508/313 387/509/314
f 387/509/314 368/508/313 370/510/315 388/511/316
f 388/511/316 370/510/315 372/512/317 389/513/318
f 389/513/318 372/512/317 374/514/319 390/515/320
f 390/515/320 374/514/319 344/516/290 375/517/290
f 373/518/321 390/515/320 375/517/322 343/519/322
f 371/520/323 389/513/318 390/515/320 373/518/321
f 369/521/324 388/511/316 389/513/318 371/520/323
f 367/522/325 387/509/314 388/511/316 369/521/324
f 365/523/326 386/507/312 387/509/314 367/522/325
f 363/524/327 385/505/310 386/507/312 365/523/326
f 361/525/328 384/503/308 385/505/310 363/524/327
f 359/526/329 383/501/306 384/503/308 361/525/328
f 357/527/330 382/499/304 383/501/306 359/526/329
f 355/528/331 381/497/302 382/499/304 357/527/330
f 353/529/332 380/495/300 381/497/302 355/528/331
f 351/530/333 379/493/298 380/495/300 353/529/332
f 349/531/334 378/491/296 379/493/298 351/530/333
f 347/532/335 377/489/294 378/491/296 349/531/334
f 345/533/336 376/487/292 377/489/294 347/532/335
f 343/534/322 375/484/322 376/487/292 345/533/336
