# Blender 4.2.4 LTS
# www.blender.org
mtllib CratenoBolts.mtl
o Crate
v 0.310564 0.310564 0.000000
v 0.310564 0.234745 0.000000
v 0.234948 0.310564 0.000000
v 0.283385 0.234745 0.000000
v 0.310564 0.062113 0.000000
v 0.310564 0.000000 0.000000
v 0.000000 0.310564 -0.479526
v 0.000000 0.234745 -0.479526
v 0.000000 0.310564 -0.396693
v 0.000000 0.234745 -0.452347
v 0.000000 0.283385 -0.396693
v 0.000000 0.000000 -0.452347
v 0.000000 0.062113 -0.452347
v 0.000000 0.283385 -0.058553
v 0.310564 0.310564 -0.479526
v 0.310564 0.310564 -0.396693
v 0.310564 0.234745 -0.479526
v 0.310564 0.234745 -0.396693
v 0.234948 0.310564 -0.396693
v 0.234948 0.310564 -0.479526
v 0.234948 0.234745 -0.479526
v 0.283385 0.234745 -0.396693
v 0.234948 0.234745 -0.452347
v 0.234948 0.283385 -0.396693
v 0.310564 0.000000 -0.479526
v 0.310564 0.000000 -0.396693
v 0.234948 0.000000 -0.479526
v 0.283385 0.000000 -0.396693
v 0.234948 0.000000 -0.452347
v 0.310564 0.062113 -0.479526
v 0.310564 0.062113 -0.396693
v 0.234948 0.062113 -0.479526
v 0.283385 0.062113 -0.396693
v 0.234948 0.062113 -0.452347
v 0.310564 0.310564 -0.058553
v 0.310564 0.234745 -0.058553
v 0.234948 0.310564 -0.058553
v 0.283385 0.234745 -0.058553
v 0.234948 0.283385 -0.058553
v 0.283385 0.000000 -0.058553
v 0.283385 0.062113 -0.058553
v 0.283385 0.118964 -0.065600
v 0.310564 0.118964 -0.065600
v 0.310564 0.052033 -0.165177
v 0.283385 0.052033 -0.165177
v 0.283385 0.068446 -0.291761
v 0.310564 0.068446 -0.291761
v 0.310564 0.097237 -0.190402
v 0.283385 0.013503 -0.294101
v 0.283385 0.152060 -0.111063
v 0.310564 0.013503 -0.294101
v 0.283385 0.097237 -0.190402
v 0.310564 0.152060 -0.111063
v 0.283385 0.234745 -0.029277
v 0.283385 0.000000 -0.029277
v 0.283385 0.062113 -0.029277
v 0.310564 0.180674 -0.030636
v 0.283385 0.182508 -0.029434
v 0.310564 0.000000 -0.029277
v 0.310564 0.062113 -0.029277
v 0.062113 0.310564 -0.396693
v 0.062113 0.283385 -0.396693
v 0.062113 0.283385 -0.058553
v 0.062113 0.310564 -0.479526
v 0.062113 0.234745 -0.479526
v 0.062113 0.234745 -0.452347
v 0.062113 0.000000 -0.452347
v 0.062113 0.062113 -0.452347
v 0.073058 0.168818 -0.479526
v 0.107673 0.112440 -0.479526
v 0.171901 0.073626 -0.479526
v 0.156372 0.027042 -0.452347
v 0.076617 0.081384 -0.452347
v 0.026473 0.153289 -0.452347
v 0.156372 0.027042 -0.479526
v 0.076617 0.081384 -0.479526
v 0.026473 0.153289 -0.479526
v 0.073058 0.168818 -0.452347
v 0.107673 0.112440 -0.452347
v 0.171901 0.073626 -0.452347
v 0.068450 0.310564 -0.289047
v 0.162888 0.310564 -0.102519
v 0.097474 0.310564 -0.181310
v 0.068450 0.283385 -0.289047
v 0.097474 0.283385 -0.181310
v 0.162888 0.283385 -0.102519
v 0.126161 0.283385 -0.063264
v 0.056328 0.283385 -0.156258
v 0.016376 0.283385 -0.271834
v 0.016376 0.310564 -0.271834
v 0.056328 0.310564 -0.156258
v 0.126161 0.310564 -0.063264
v 0.000000 0.283385 -0.029277
v 0.185102 0.283385 -0.028988
v 0.062113 0.283385 -0.029277
v 0.185103 0.310564 -0.028987
v 0.000000 0.310246 0.000000
v 0.234948 0.310246 0.000000
v 0.062113 0.310246 0.000000
v 0.283385 0.088974 -0.029277
v 0.000000 0.310246 -0.029277
v 0.062113 0.310246 -0.029277
v 0.000000 0.310564 0.479526
v 0.000000 0.234745 0.479526
v 0.000000 0.310564 0.396693
v 0.000000 0.234745 0.452347
v 0.000000 0.283385 0.396693
v 0.000000 0.000000 0.452347
v 0.000000 0.062113 0.452347
v 0.000000 0.283385 0.058553
v 0.310564 0.310564 0.479526
v 0.310564 0.310564 0.396693
v 0.310564 0.234745 0.479526
v 0.310564 0.234745 0.396693
v 0.234948 0.310564 0.396693
v 0.234948 0.310564 0.479526
v 0.234948 0.234745 0.479526
v 0.283385 0.234745 0.396693
v 0.234948 0.234745 0.452347
v 0.234948 0.283385 0.396693
v 0.310564 0.000000 0.479526
v 0.310564 0.000000 0.396693
v 0.234948 0.000000 0.479526
v 0.283385 0.000000 0.396693
v 0.234948 0.000000 0.452347
v 0.310564 0.062113 0.479526
v 0.310564 0.062113 0.396693
v 0.234948 0.062113 0.479526
v 0.283385 0.062113 0.396693
v 0.234948 0.062113 0.452347
v 0.310564 0.310564 0.058553
v 0.310564 0.234745 0.058553
v 0.234948 0.310564 0.058553
v 0.283385 0.234745 0.058553
v 0.234948 0.283385 0.058553
v 0.283385 0.000000 0.058553
v 0.283385 0.062113 0.058553
v 0.283385 0.118964 0.065600
v 0.310564 0.118964 0.065600
v 0.310564 0.052033 0.165177
v 0.283385 0.052033 0.165177
v 0.283385 0.068446 0.291761
v 0.310564 0.068446 0.291761
v 0.310564 0.097237 0.190402
v 0.283385 0.013503 0.294101
v 0.283385 0.152060 0.111063
v 0.310564 0.013503 0.294101
v 0.283385 0.097237 0.190402
v 0.310564 0.152060 0.111063
v 0.283385 0.234745 0.029277
v 0.283385 0.000000 0.029277
v 0.283385 0.062113 0.029277
v 0.310564 0.180674 0.030636
v 0.283385 0.182508 0.029434
v 0.310564 0.000000 0.029277
v 0.310564 0.062113 0.029277
v 0.062113 0.310564 0.396693
v 0.062113 0.283385 0.396693
v 0.062113 0.283385 0.058553
v 0.062113 0.310564 0.479526
v 0.062113 0.234745 0.479526
v 0.062113 0.234745 0.452347
v 0.062113 0.000000 0.452347
v 0.062113 0.062113 0.452347
v 0.073058 0.168818 0.479526
v 0.107673 0.112440 0.479526
v 0.171901 0.073626 0.479526
v 0.156372 0.027042 0.452347
v 0.076617 0.081384 0.452347
v 0.026473 0.153289 0.452347
v 0.156372 0.027042 0.479526
v 0.076617 0.081384 0.479526
v 0.026473 0.153289 0.479526
v 0.073058 0.168818 0.452347
v 0.107673 0.112440 0.452347
v 0.171901 0.073626 0.452347
v 0.068450 0.310564 0.289047
v 0.162888 0.310564 0.102519
v 0.097474 0.310564 0.181310
v 0.068450 0.283385 0.289047
v 0.097474 0.283385 0.181310
v 0.162888 0.283385 0.102519
v 0.126161 0.283385 0.063264
v 0.056328 0.283385 0.156258
v 0.016376 0.283385 0.271834
v 0.016376 0.310564 0.271834
v 0.056328 0.310564 0.156258
v 0.126161 0.310564 0.063264
v 0.000000 0.283385 0.029277
v 0.185102 0.283385 0.028988
v 0.062113 0.283385 0.029277
v 0.185103 0.310564 0.028987
v 0.283385 0.088974 0.029277
v 0.283385 0.209369 0.029434
v 0.000000 0.310246 0.029277
v 0.062113 0.310246 0.029277
v -0.310564 0.310564 0.000000
v -0.310564 0.234745 0.000000
v -0.234948 0.310564 0.000000
v -0.283385 0.234745 0.000000
v -0.310564 0.062113 0.000000
v -0.310564 0.000000 0.000000
v -0.310564 0.310564 -0.479526
v -0.310564 0.310564 -0.396693
v -0.310564 0.234745 -0.479526
v -0.310564 0.234745 -0.396693
v -0.234948 0.310564 -0.396693
v -0.234948 0.310564 -0.479526
v -0.234948 0.234745 -0.479526
v -0.283385 0.234745 -0.396693
v -0.234948 0.234745 -0.452347
v -0.234948 0.283385 -0.396693
v -0.310564 0.000000 -0.479526
v -0.310564 0.000000 -0.396693
v -0.234948 0.000000 -0.479526
v -0.283385 0.000000 -0.396693
v -0.234948 0.000000 -0.452347
v -0.310564 0.062113 -0.479526
v -0.310564 0.062113 -0.396693
v -0.234948 0.062113 -0.479526
v -0.283385 0.062113 -0.396693
v -0.234948 0.062113 -0.452347
v -0.310564 0.310564 -0.058553
v -0.310564 0.234745 -0.058553
v -0.234948 0.310564 -0.058553
v -0.283385 0.234745 -0.058553
v -0.234948 0.283385 -0.058553
v -0.283385 0.000000 -0.058553
v -0.283385 0.062113 -0.058553
v -0.283385 0.118964 -0.065600
v -0.310564 0.118964 -0.065600
v -0.310564 0.052033 -0.165177
v -0.283385 0.052033 -0.165177
v -0.283385 0.068446 -0.291761
v -0.310564 0.068446 -0.291761
v -0.310564 0.097237 -0.190402
v -0.283385 0.013503 -0.294101
v -0.283385 0.152060 -0.111063
v -0.310564 0.013503 -0.294101
v -0.283385 0.097237 -0.190402
v -0.310564 0.152060 -0.111063
v -0.283385 0.234745 -0.029277
v -0.283385 0.000000 -0.029277
v -0.283385 0.062113 -0.029277
v -0.310564 0.180674 -0.030636
v -0.283385 0.182508 -0.029434
v -0.310564 0.000000 -0.029277
v -0.310564 0.062113 -0.029277
v -0.062113 0.310564 -0.396693
v -0.062113 0.283385 -0.396693
v -0.062113 0.283385 -0.058553
v -0.062113 0.310564 -0.479526
v -0.062113 0.234745 -0.479526
v -0.062113 0.234745 -0.452347
v -0.062113 0.000000 -0.452347
v -0.062113 0.062113 -0.452347
v -0.073058 0.168818 -0.479526
v -0.107673 0.112440 -0.479526
v -0.171901 0.073626 -0.479526
v -0.156372 0.027042 -0.452347
v -0.076617 0.081384 -0.452347
v -0.026473 0.153289 -0.452347
v -0.156372 0.027042 -0.479526
v -0.076617 0.081384 -0.479526
v -0.026473 0.153289 -0.479526
v -0.073058 0.168818 -0.452347
v -0.107673 0.112440 -0.452347
v -0.171901 0.073626 -0.452347
v -0.068450 0.310564 -0.289047
v -0.162888 0.310564 -0.102519
v -0.097474 0.310564 -0.181310
v -0.068450 0.283385 -0.289047
v -0.097474 0.283385 -0.181310
v -0.162888 0.283385 -0.102519
v -0.126161 0.283385 -0.063264
v -0.056328 0.283385 -0.156258
v -0.016376 0.283385 -0.271834
v -0.016376 0.310564 -0.271834
v -0.056328 0.310564 -0.156258
v -0.126161 0.310564 -0.063264
v -0.185102 0.283385 -0.028988
v -0.062113 0.283385 -0.029277
v -0.185103 0.310564 -0.028987
v -0.234948 0.310246 0.000000
v -0.062113 0.310246 0.000000
v -0.283385 0.088974 -0.029277
v -0.283385 0.209369 -0.029434
v -0.062113 0.310246 -0.029277
v -0.310564 0.310564 0.479526
v -0.310564 0.310564 0.396693
v -0.310564 0.234745 0.479526
v -0.310564 0.234745 0.396693
v -0.234948 0.310564 0.396693
v -0.234948 0.310564 0.479526
v -0.234948 0.234745 0.479526
v -0.283385 0.234745 0.396693
v -0.234948 0.234745 0.452347
v -0.234948 0.283385 0.396693
v -0.310564 0.000000 0.479526
v -0.310564 0.000000 0.396693
v -0.234948 0.000000 0.479526
v -0.283385 0.000000 0.396693
v -0.234948 0.000000 0.452347
v -0.310564 0.062113 0.479526
v -0.310564 0.062113 0.396693
v -0.234948 0.062113 0.479526
v -0.283385 0.062113 0.396693
v -0.234948 0.062113 0.452347
v -0.310564 0.310564 0.058553
v -0.310564 0.234745 0.058553
v -0.234948 0.310564 0.058553
v -0.283385 0.234745 0.058553
v -0.234948 0.283385 0.058553
v -0.283385 0.000000 0.058553
v -0.283385 0.062113 0.058553
v -0.283385 0.118964 0.065600
v -0.310564 0.118964 0.065600
v -0.310564 0.052033 0.165177
v -0.283385 0.052033 0.165177
v -0.283385 0.068446 0.291761
v -0.310564 0.068446 0.291761
v -0.310564 0.097237 0.190402
v -0.283385 0.013503 0.294101
v -0.283385 0.152060 0.111063
v -0.310564 0.013503 0.294101
v -0.283385 0.097237 0.190402
v -0.310564 0.152060 0.111063
v -0.283385 0.234745 0.029277
v -0.283385 0.000000 0.029277
v -0.283385 0.062113 0.029277
v -0.310564 0.180674 0.030636
v -0.283385 0.182508 0.029434
v -0.310564 0.000000 0.029277
v -0.310564 0.062113 0.029277
v -0.062113 0.310564 0.396693
v -0.062113 0.283385 0.396693
v -0.062113 0.283385 0.058553
v -0.062113 0.310564 0.479526
v -0.062113 0.234745 0.479526
v -0.062113 0.234745 0.452347
v -0.062113 0.000000 0.452347
v -0.062113 0.062113 0.452347
v -0.073058 0.168818 0.479526
v -0.107673 0.112440 0.479526
v -0.171901 0.073626 0.479526
v -0.156372 0.027042 0.452347
v -0.076617 0.081384 0.452347
v -0.026473 0.153289 0.452347
v -0.156372 0.027042 0.479526
v -0.076617 0.081384 0.479526
v -0.026473 0.153289 0.479526
v -0.073058 0.168818 0.452347
v -0.107673 0.112440 0.452347
v -0.171901 0.073626 0.452347
v -0.068450 0.310564 0.289047
v -0.162888 0.310564 0.102519
v -0.097474 0.310564 0.181310
v -0.068450 0.283385 0.289047
v -0.097474 0.283385 0.181310
v -0.162888 0.283385 0.102519
v -0.126161 0.283385 0.063264
v -0.056328 0.283385 0.156258
v -0.016376 0.283385 0.271834
v -0.016376 0.310564 0.271834
v -0.056328 0.310564 0.156258
v -0.126161 0.310564 0.063264
v -0.185102 0.283385 0.028988
v -0.062113 0.283385 0.029277
v -0.185103 0.310564 0.028987
v -0.283385 0.088974 0.029277
v -0.283385 0.209369 0.029434
v -0.062113 0.310246 0.029277
v 0.310564 -0.310564 0.000000
v 0.310564 -0.234745 0.000000
v 0.234948 -0.310564 0.000000
v 0.283385 -0.234745 0.000000
v 0.310564 -0.062113 0.000000
v 0.000000 -0.310564 -0.479526
v 0.000000 -0.234745 -0.479526
v 0.000000 -0.310564 -0.396693
v 0.000000 -0.234745 -0.452347
v 0.000000 -0.283385 -0.396693
v 0.000000 -0.062113 -0.452347
v 0.000000 -0.283385 -0.058553
v 0.310564 -0.310564 -0.479526
v 0.310564 -0.310564 -0.396693
v 0.310564 -0.234745 -0.479526
v 0.310564 -0.234745 -0.396693
v 0.234948 -0.310564 -0.396693
v 0.234948 -0.310564 -0.479526
v 0.234948 -0.234745 -0.479526
v 0.283385 -0.234745 -0.396693
v 0.234948 -0.234745 -0.452347
v 0.234948 -0.283385 -0.396693
v 0.310564 -0.062113 -0.479526
v 0.310564 -0.062113 -0.396693
v 0.234948 -0.062113 -0.479526
v 0.283385 -0.062113 -0.396693
v 0.234948 -0.062113 -0.452347
v 0.310564 -0.310564 -0.058553
v 0.310564 -0.234745 -0.058553
v 0.234948 -0.310564 -0.058553
v 0.283385 -0.234745 -0.058553
v 0.234948 -0.283385 -0.058553
v 0.283385 -0.062113 -0.058553
v 0.283385 -0.118964 -0.065600
v 0.310564 -0.118964 -0.065600
v 0.310564 -0.052033 -0.165177
v 0.283385 -0.052033 -0.165177
v 0.283385 -0.068446 -0.291761
v 0.310564 -0.068446 -0.291761
v 0.310564 -0.097237 -0.190402
v 0.283385 -0.013503 -0.294101
v 0.283385 -0.152060 -0.111063
v 0.310564 -0.013503 -0.294101
v 0.283385 -0.097237 -0.190402
v 0.310564 -0.152060 -0.111063
v 0.283385 -0.234745 -0.029277
v 0.283385 -0.062113 -0.029277
v 0.310564 -0.180674 -0.030636
v 0.283385 -0.182508 -0.029434
v 0.310564 -0.062113 -0.029277
v 0.062113 -0.310564 -0.396693
v 0.062113 -0.283385 -0.396693
v 0.062113 -0.283385 -0.058553
v 0.062113 -0.310564 -0.479526
v 0.062113 -0.234745 -0.479526
v 0.062113 -0.234745 -0.452347
v 0.062113 -0.062113 -0.452347
v 0.073058 -0.168818 -0.479526
v 0.107673 -0.112440 -0.479526
v 0.171901 -0.073626 -0.479526
v 0.156372 -0.027042 -0.452347
v 0.076617 -0.081384 -0.452347
v 0.026473 -0.153289 -0.452347
v 0.156372 -0.027042 -0.479526
v 0.076617 -0.081384 -0.479526
v 0.026473 -0.153289 -0.479526
v 0.073058 -0.168818 -0.452347
v 0.107673 -0.112440 -0.452347
v 0.171901 -0.073626 -0.452347
v 0.068450 -0.310564 -0.289047
v 0.162888 -0.310564 -0.102519
v 0.097474 -0.310564 -0.181310
v 0.068450 -0.283385 -0.289047
v 0.097474 -0.283385 -0.181310
v 0.162888 -0.283385 -0.102519
v 0.126161 -0.283385 -0.063264
v 0.056328 -0.283385 -0.156258
v 0.016376 -0.283385 -0.271834
v 0.016376 -0.310564 -0.271834
v 0.056328 -0.310564 -0.156258
v 0.126161 -0.310564 -0.063264
v 0.000000 -0.283385 -0.029277
v 0.185102 -0.283385 -0.028988
v 0.062113 -0.283385 -0.029277
v 0.185103 -0.310564 -0.028987
v 0.000000 -0.310246 0.000000
v 0.234948 -0.310246 0.000000
v 0.062113 -0.310246 0.000000
v 0.283385 -0.088974 -0.029277
v 0.000000 -0.310246 -0.029277
v 0.062113 -0.310246 -0.029277
v 0.000000 -0.310564 0.479526
v 0.000000 -0.234745 0.479526
v 0.000000 -0.310564 0.396693
v 0.000000 -0.234745 0.452347
v 0.000000 -0.283385 0.396693
v 0.000000 -0.062113 0.452347
v 0.000000 -0.283385 0.058553
v 0.310564 -0.310564 0.479526
v 0.310564 -0.310564 0.396693
v 0.310564 -0.234745 0.479526
v 0.310564 -0.234745 0.396693
v 0.234948 -0.310564 0.396693
v 0.234948 -0.310564 0.479526
v 0.234948 -0.234745 0.479526
v 0.283385 -0.234745 0.396693
v 0.234948 -0.234745 0.452347
v 0.234948 -0.283385 0.396693
v 0.310564 -0.062113 0.479526
v 0.310564 -0.062113 0.396693
v 0.234948 -0.062113 0.479526
v 0.283385 -0.062113 0.396693
v 0.234948 -0.062113 0.452347
v 0.310564 -0.310564 0.058553
v 0.310564 -0.234745 0.058553
v 0.234948 -0.310564 0.058553
v 0.283385 -0.234745 0.058553
v 0.234948 -0.283385 0.058553
v 0.283385 -0.062113 0.058553
v 0.283385 -0.118964 0.065600
v 0.310564 -0.118964 0.065600
v 0.310564 -0.052033 0.165177
v 0.283385 -0.052033 0.165177
v 0.283385 -0.068446 0.291761
v 0.310564 -0.068446 0.291761
v 0.310564 -0.097237 0.190402
v 0.283385 -0.013503 0.294101
v 0.283385 -0.152060 0.111063
v 0.310564 -0.013503 0.294101
v 0.283385 -0.097237 0.190402
v 0.310564 -0.152060 0.111063
v 0.283385 -0.234745 0.029277
v 0.283385 -0.062113 0.029277
v 0.310564 -0.180674 0.030636
v 0.283385 -0.182508 0.029434
v 0.310564 -0.062113 0.029277
v 0.062113 -0.310564 0.396693
v 0.062113 -0.283385 0.396693
v 0.062113 -0.283385 0.058553
v 0.062113 -0.310564 0.479526
v 0.062113 -0.234745 0.479526
v 0.062113 -0.234745 0.452347
v 0.062113 -0.062113 0.452347
v 0.073058 -0.168818 0.479526
v 0.107673 -0.112440 0.479526
v 0.171901 -0.073626 0.479526
v 0.156372 -0.027042 0.452347
v 0.076617 -0.081384 0.452347
v 0.026473 -0.153289 0.452347
v 0.156372 -0.027042 0.479526
v 0.076617 -0.081384 0.479526
v 0.026473 -0.153289 0.479526
v 0.073058 -0.168818 0.452347
v 0.107673 -0.112440 0.452347
v 0.171901 -0.073626 0.452347
v 0.068450 -0.310564 0.289047
v 0.162888 -0.310564 0.102519
v 0.097474 -0.310564 0.181310
v 0.068450 -0.283385 0.289047
v 0.097474 -0.283385 0.181310
v 0.162888 -0.283385 0.102519
v 0.126161 -0.283385 0.063264
v 0.056328 -0.283385 0.156258
v 0.016376 -0.283385 0.271834
v 0.016376 -0.310564 0.271834
v 0.056328 -0.310564 0.156258
v 0.126161 -0.310564 0.063264
v 0.000000 -0.283385 0.029277
v 0.185102 -0.283385 0.028988
v 0.062113 -0.283385 0.029277
v 0.185103 -0.310564 0.028987
v 0.283385 -0.088974 0.029277
v 0.283385 -0.209369 0.029434
v 0.000000 -0.310246 0.029277
v 0.062113 -0.310246 0.029277
v -0.310564 -0.310564 0.000000
v -0.310564 -0.234745 0.000000
v -0.234948 -0.310564 0.000000
v -0.283385 -0.234745 0.000000
v -0.310564 -0.062113 0.000000
v -0.310564 -0.310564 -0.479526
v -0.310564 -0.310564 -0.396693
v -0.310564 -0.234745 -0.479526
v -0.310564 -0.234745 -0.396693
v -0.234948 -0.310564 -0.396693
v -0.234948 -0.310564 -0.479526
v -0.234948 -0.234745 -0.479526
v -0.283385 -0.234745 -0.396693
v -0.234948 -0.234745 -0.452347
v -0.234948 -0.283385 -0.396693
v -0.310564 -0.062113 -0.479526
v -0.310564 -0.062113 -0.396693
v -0.234948 -0.062113 -0.479526
v -0.283385 -0.062113 -0.396693
v -0.234948 -0.062113 -0.452347
v -0.310564 -0.310564 -0.058553
v -0.310564 -0.234745 -0.058553
v -0.234948 -0.310564 -0.058553
v -0.283385 -0.234745 -0.058553
v -0.234948 -0.283385 -0.058553
v -0.283385 -0.062113 -0.058553
v -0.283385 -0.118964 -0.065600
v -0.310564 -0.118964 -0.065600
v -0.310564 -0.052033 -0.165177
v -0.283385 -0.052033 -0.165177
v -0.283385 -0.068446 -0.291761
v -0.310564 -0.068446 -0.291761
v -0.310564 -0.097237 -0.190402
v -0.283385 -0.013503 -0.294101
v -0.283385 -0.152060 -0.111063
v -0.310564 -0.013503 -0.294101
v -0.283385 -0.097237 -0.190402
v -0.310564 -0.152060 -0.111063
v -0.283385 -0.234745 -0.029277
v -0.283385 -0.062113 -0.029277
v -0.310564 -0.180674 -0.030636
v -0.283385 -0.182508 -0.029434
v -0.310564 -0.062113 -0.029277
v -0.062113 -0.310564 -0.396693
v -0.062113 -0.283385 -0.396693
v -0.062113 -0.283385 -0.058553
v -0.062113 -0.310564 -0.479526
v -0.062113 -0.234745 -0.479526
v -0.062113 -0.234745 -0.452347
v -0.062113 -0.062113 -0.452347
v -0.073058 -0.168818 -0.479526
v -0.107673 -0.112440 -0.479526
v -0.171901 -0.073626 -0.479526
v -0.156372 -0.027042 -0.452347
v -0.076617 -0.081384 -0.452347
v -0.026473 -0.153289 -0.452347
v -0.156372 -0.027042 -0.479526
v -0.076617 -0.081384 -0.479526
v -0.026473 -0.153289 -0.479526
v -0.073058 -0.168818 -0.452347
v -0.107673 -0.112440 -0.452347
v -0.171901 -0.073626 -0.452347
v -0.068450 -0.310564 -0.289047
v -0.162888 -0.310564 -0.102519
v -0.097474 -0.310564 -0.181310
v -0.068450 -0.283385 -0.289047
v -0.097474 -0.283385 -0.181310
v -0.162888 -0.283385 -0.102519
v -0.126161 -0.283385 -0.063264
v -0.056328 -0.283385 -0.156258
v -0.016376 -0.283385 -0.271834
v -0.016376 -0.310564 -0.271834
v -0.056328 -0.310564 -0.156258
v -0.126161 -0.310564 -0.063264
v -0.185102 -0.283385 -0.028988
v -0.062113 -0.283385 -0.029277
v -0.185103 -0.310564 -0.028987
v -0.234948 -0.310246 0.000000
v -0.062113 -0.310246 0.000000
v -0.283385 -0.088974 -0.029277
v -0.283385 -0.209369 -0.029434
v -0.062113 -0.310246 -0.029277
v -0.310564 -0.310564 0.479526
v -0.310564 -0.310564 0.396693
v -0.310564 -0.234745 0.479526
v -0.310564 -0.234745 0.396693
v -0.234948 -0.310564 0.396693
v -0.234948 -0.310564 0.479526
v -0.234948 -0.234745 0.479526
v -0.283385 -0.234745 0.396693
v -0.234948 -0.234745 0.452347
v -0.234948 -0.283385 0.396693
v -0.310564 -0.062113 0.479526
v -0.310564 -0.062113 0.396693
v -0.234948 -0.062113 0.479526
v -0.283385 -0.062113 0.396693
v -0.234948 -0.062113 0.452347
v -0.310564 -0.310564 0.058553
v -0.310564 -0.234745 0.058553
v -0.234948 -0.310564 0.058553
v -0.283385 -0.234745 0.058553
v -0.234948 -0.283385 0.058553
v -0.283385 -0.062113 0.058553
v -0.283385 -0.118964 0.065600
v -0.310564 -0.118964 0.065600
v -0.310564 -0.052033 0.165177
v -0.283385 -0.052033 0.165177
v -0.283385 -0.068446 0.291761
v -0.310564 -0.068446 0.291761
v -0.310564 -0.097237 0.190402
v -0.283385 -0.013503 0.294101
v -0.283385 -0.152060 0.111063
v -0.310564 -0.013503 0.294101
v -0.283385 -0.097237 0.190402
v -0.310564 -0.152060 0.111063
v -0.283385 -0.234745 0.029277
v -0.283385 -0.062113 0.029277
v -0.310564 -0.180674 0.030636
v -0.283385 -0.182508 0.029434
v -0.310564 -0.062113 0.029277
v -0.062113 -0.310564 0.396693
v -0.062113 -0.283385 0.396693
v -0.062113 -0.283385 0.058553
v -0.062113 -0.310564 0.479526
v -0.062113 -0.234745 0.479526
v -0.062113 -0.234745 0.452347
v -0.062113 -0.062113 0.452347
v -0.073058 -0.168818 0.479526
v -0.107673 -0.112440 0.479526
v -0.171901 -0.073626 0.479526
v -0.156372 -0.027042 0.452347
v -0.076617 -0.081384 0.452347
v -0.026473 -0.153289 0.452347
v -0.156372 -0.027042 0.479526
v -0.076617 -0.081384 0.479526
v -0.026473 -0.153289 0.479526
v -0.073058 -0.168818 0.452347
v -0.107673 -0.112440 0.452347
v -0.171901 -0.073626 0.452347
v -0.068450 -0.310564 0.289047
v -0.162888 -0.310564 0.102519
v -0.097474 -0.310564 0.181310
v -0.068450 -0.283385 0.289047
v -0.097474 -0.283385 0.181310
v -0.162888 -0.283385 0.102519
v -0.126161 -0.283385 0.063264
v -0.056328 -0.283385 0.156258
v -0.016376 -0.283385 0.271834
v -0.016376 -0.310564 0.271834
v -0.056328 -0.310564 0.156258
v -0.126161 -0.310564 0.063264
v -0.185102 -0.283385 0.028988
v -0.062113 -0.283385 0.029277
v -0.185103 -0.310564 0.028987
v -0.283385 -0.088974 0.029277
v -0.283385 -0.209369 0.029434
v -0.062113 -0.310246 0.029277
vn 1.0000 -0.0000 -0.0000
vn -1.0000 -0.0000 -0.0000
vn -0.0000 1.0000 -0.0000
vn -0.0000 -0.0000 -1.0000
vn -0.0000 -0.0000 1.0000
vn -0.0000 -1.0000 -0.0000
vn -0.0000 -0.9914 0.1305
vn -0.0000 0.8227 -0.5685
vn 0.0026 -0.4938 0.8696
vn -0.0000 -0.8299 0.5578
vn -0.0000 0.9982 -0.0602
vn -0.0000 0.9619 -0.2732
vn -0.0000 -0.9581 0.2863
vn -0.0000 0.5361 -0.8442
vn -0.0026 0.4919 -0.8706
vn -0.0223 -0.0063 -0.9997
vn 0.1796 0.9837 -0.0000
vn -0.3254 -0.9456 -0.0000
vn -0.9510 -0.3091 -0.0000
vn -0.8203 -0.5720 -0.0000
vn -0.5631 -0.8264 -0.0000
vn 0.9865 0.1638 -0.0000
vn 0.8522 0.5232 -0.0000
vn 0.5172 0.8559 -0.0000
vn -0.9915 -0.0000 0.1300
vn 0.9983 -0.0000 -0.0588
vn 0.5208 -0.0000 -0.8537
vn 0.7694 -0.0000 -0.6388
vn 0.9656 -0.0000 -0.2601
vn -0.7996 -0.0000 0.6005
vn -0.9451 -0.0000 0.3267
vn -0.5027 -0.0000 0.8645
vn -1.0000 -0.0000 -0.0002
vn 0.0024 -0.0000 -1.0000
vn -0.0022 1.0000 0.0082
vn -0.0000 -0.9914 -0.1305
vn -0.0000 0.8227 0.5685
vn 0.0026 -0.4938 -0.8696
vn -0.0000 -0.8299 -0.5578
vn -0.0000 0.9982 0.0602
vn -0.0000 0.9619 0.2732
vn -0.0000 -0.9581 -0.2863
vn -0.0000 0.5361 0.8442
vn -0.0026 0.4919 0.8706
vn -0.0223 -0.0063 0.9997
vn -0.9915 -0.0000 -0.1300
vn 0.9983 -0.0000 0.0588
vn 0.5208 -0.0000 0.8537
vn 0.7694 -0.0000 0.6388
vn 0.9656 -0.0000 0.2601
vn -0.7996 -0.0000 -0.6005
vn -0.9451 -0.0000 -0.3267
vn -0.5027 -0.0000 -0.8645
vn -1.0000 -0.0000 0.0003
vn 0.0024 -0.0000 1.0000
vn -0.0022 1.0000 -0.0082
vn -0.0026 -0.4938 0.8696
vn 0.0026 0.4919 -0.8706
vn 0.0223 -0.0063 -0.9997
vn -0.1796 0.9837 -0.0000
vn 0.3254 -0.9456 -0.0000
vn 0.9510 -0.3091 -0.0000
vn 0.8203 -0.5720 -0.0000
vn 0.5631 -0.8264 -0.0000
vn -0.9865 0.1638 -0.0000
vn -0.8522 0.5232 -0.0000
vn -0.5172 0.8559 -0.0000
vn 0.9915 -0.0000 0.1300
vn -0.9983 -0.0000 -0.0588
vn -0.5208 -0.0000 -0.8537
vn -0.7694 -0.0000 -0.6388
vn -0.9656 -0.0000 -0.2601
vn 0.7996 -0.0000 0.6005
vn 0.9451 -0.0000 0.3267
vn 0.5027 -0.0000 0.8645
vn 1.0000 -0.0000 -0.0003
vn -0.0024 -0.0000 -1.0000
vn 0.0022 1.0000 0.0082
vn -0.0026 -0.4938 -0.8696
vn 0.0026 0.4919 0.8706
vn 0.0223 -0.0063 0.9997
vn 0.9915 -0.0000 -0.1300
vn -0.9983 -0.0000 0.0588
vn -0.5208 -0.0000 0.8537
vn -0.7694 -0.0000 0.6388
vn -0.9656 -0.0000 0.2601
vn 0.7996 -0.0000 -0.6005
vn 0.9451 -0.0000 -0.3267
vn 0.5027 -0.0000 -0.8645
vn 1.0000 -0.0000 0.0007
vn -0.0024 -0.0000 1.0000
vn 0.0022 1.0000 -0.0082
vn -0.0000 0.9914 0.1305
vn -0.0000 -0.8227 -0.5685
vn 0.0026 0.4938 0.8696
vn -0.0000 0.8299 0.5578
vn -0.0000 -0.9982 -0.0602
vn -0.0000 -0.9619 -0.2732
vn -0.0000 0.9581 0.2863
vn -0.0000 -0.5361 -0.8442
vn -0.0026 -0.4919 -0.8706
vn -0.0223 0.0063 -0.9997
vn 0.1796 -0.9837 -0.0000
vn -0.3254 0.9456 -0.0000
vn -0.9510 0.3091 -0.0000
vn -0.8203 0.5720 -0.0000
vn -0.5631 0.8264 -0.0000
vn 0.9865 -0.1638 -0.0000
vn 0.8522 -0.5232 -0.0000
vn 0.5172 -0.8559 -0.0000
vn -1.0000 -0.0000 -0.0003
vn -0.0022 -1.0000 0.0082
vn -0.0000 0.9914 -0.1305
vn -0.0000 -0.8227 0.5685
vn 0.0026 0.4938 -0.8696
vn -0.0000 0.8299 -0.5578
vn -0.0000 -0.9982 0.0602
vn -0.0000 -0.9619 0.2732
vn -0.0000 0.9581 -0.2863
vn -0.0000 -0.5361 0.8442
vn -0.0026 -0.4919 0.8706
vn -0.0223 0.0063 0.9997
vn -1.0000 -0.0000 0.0007
vn -0.0022 -1.0000 -0.0082
vn -0.0026 0.4938 0.8696
vn 0.0026 -0.4919 -0.8706
vn 0.0223 0.0063 -0.9997
vn -0.1796 -0.9837 -0.0000
vn 0.3254 0.9456 -0.0000
vn 0.9510 0.3091 -0.0000
vn 0.8203 0.5720 -0.0000
vn 0.5631 0.8264 -0.0000
vn -0.9865 -0.1638 -0.0000
vn -0.8522 -0.5232 -0.0000
vn -0.5172 -0.8559 -0.0000
vn 1.0000 -0.0000 -0.0007
vn 0.0022 -1.0000 0.0082
vn -0.0026 0.4938 -0.8696
vn 0.0026 -0.4919 0.8706
vn 0.0223 0.0063 0.9997
vn 1.0000 -0.0000 0.0003
vn 0.0022 -1.0000 -0.0082
vt 0.027438 0.234045
vt 0.027438 0.255413
vt 0.007880 0.255413
vt 0.007880 0.234045
vt 0.027438 0.146818
vt 0.007880 0.146818
vt 0.071971 0.234045
vt 0.071971 0.255413
vt 0.634259 0.305009
vt 0.627248 0.305009
vt 0.627248 0.260476
vt 0.634259 0.260476
vt 0.183867 0.029381
vt 0.183867 0.008013
vt 0.203373 0.008013
vt 0.203373 0.029381
vt 0.564687 0.532232
vt 0.545181 0.532232
vt 0.545181 0.512674
vt 0.564687 0.512674
vt 0.183867 0.116609
vt 0.203373 0.116608
vt 0.564687 0.576765
vt 0.545181 0.576765
vt 0.767956 0.480010
vt 0.855158 0.480010
vt 0.855158 0.435490
vt 0.767956 0.435490
vt 0.388934 0.305180
vt 0.381923 0.305180
vt 0.381923 0.260595
vt 0.388934 0.260595
vt 0.493434 0.156973
vt 0.500445 0.156973
vt 0.500445 0.244200
vt 0.493434 0.244200
vt 0.493434 0.007996
vt 0.500445 0.007996
vt 0.500445 0.052529
vt 0.493434 0.052529
vt 0.767956 0.496028
vt 0.855158 0.496028
vt 0.564687 0.592788
vt 0.545181 0.592788
vt 0.087994 0.234045
vt 0.087994 0.255413
vt 0.630145 0.778016
vt 0.616163 0.780176
vt 0.604980 0.754707
vt 0.619247 0.747414
vt 0.388934 0.497199
vt 0.381923 0.497199
vt 0.381923 0.409972
vt 0.388934 0.409972
vt 0.760406 0.496028
vt 0.760406 0.480010
vt 0.760406 0.435490
vt 0.760447 0.448961
vt 0.183867 0.131713
vt 0.203373 0.131713
vt 0.027438 0.131713
vt 0.007880 0.131713
vt 0.875272 0.704080
vt 0.866341 0.729234
vt 0.852070 0.721949
vt 0.862923 0.697097
vt 0.881542 0.669939
vt 0.868198 0.670433
vt 0.560341 0.145884
vt 0.560341 0.119191
vt 0.567352 0.119191
vt 0.567352 0.145884
vt 0.858938 0.610558
vt 0.867768 0.623939
vt 0.877845 0.639211
vt 0.864908 0.645774
vt 0.852070 0.624011
vt 0.493434 0.106828
vt 0.500445 0.106828
vt 0.500445 0.131705
vt 0.493434 0.131705
vt 0.560341 0.211545
vt 0.567352 0.211545
vt 0.567352 0.229842
vt 0.560341 0.230406
vt 0.560341 0.180595
vt 0.567352 0.180595
vt 0.493434 0.079647
vt 0.500445 0.079647
vt 0.278547 0.748159
vt 0.270995 0.748159
vt 0.270995 0.732136
vt 0.278547 0.732136
vt 0.665675 0.655147
vt 0.665675 0.671170
vt 0.649653 0.671170
vt 0.649653 0.655147
vt 0.138738 0.864213
vt 0.127405 0.869871
vt 0.118013 0.856265
vt 0.129349 0.844942
vt 0.183767 0.748159
vt 0.183767 0.732136
vt 0.605120 0.671170
vt 0.605120 0.655147
vt 0.247958 0.029381
vt 0.247958 0.008013
vt 0.263981 0.008013
vt 0.263981 0.029381
vt 0.500596 0.532232
vt 0.484573 0.532232
vt 0.484573 0.512674
vt 0.500596 0.512674
vt 0.165857 0.938731
vt 0.158846 0.938731
vt 0.158846 0.922700
vt 0.165857 0.923264
vt 0.701165 0.207738
vt 0.694154 0.207738
vt 0.694154 0.191715
vt 0.701165 0.191715
vt 0.367537 0.589595
vt 0.375089 0.589595
vt 0.375440 0.620179
vt 0.367537 0.634127
vt 0.367537 0.573572
vt 0.375089 0.573572
vt 0.701172 0.238795
vt 0.694154 0.238324
vt 0.649653 0.610562
vt 0.605120 0.610562
vt 0.270995 0.792744
vt 0.183767 0.792744
vt 0.634259 0.419791
vt 0.627248 0.419791
vt 0.627248 0.375206
vt 0.634259 0.375206
vt 0.665675 0.610562
vt 0.278622 0.779886
vt 0.634259 0.321542
vt 0.627248 0.321542
vt 0.809020 0.754749
vt 0.807612 0.746313
vt 0.829126 0.745652
vt 0.824411 0.750798
vt 0.746609 0.760463
vt 0.740569 0.756135
vt 0.759042 0.752161
vt 0.759179 0.758030
vt 0.780875 0.754238
vt 0.781666 0.761935
vt 0.627248 0.357967
vt 0.634259 0.357967
vt 0.627248 0.340901
vt 0.634259 0.340901
vt 0.129336 0.930617
vt 0.118013 0.919281
vt 0.128050 0.905265
vt 0.139377 0.910936
vt 0.132030 0.888669
vt 0.143359 0.888676
vt 0.324313 0.911301
vt 0.326424 0.918081
vt 0.301127 0.920457
vt 0.304925 0.915548
vt 0.388934 0.332996
vt 0.381923 0.332996
vt 0.381923 0.388196
vt 0.388934 0.388196
vt 0.381923 0.361780
vt 0.388934 0.361779
vt 0.369793 0.873596
vt 0.378381 0.875949
vt 0.355581 0.903832
vt 0.350361 0.897798
vt 0.611854 0.866118
vt 0.604980 0.852668
vt 0.616370 0.834109
vt 0.629415 0.838814
vt 0.619900 0.853607
vt 0.622145 0.808331
vt 0.634537 0.809254
vt 0.371469 0.856834
vt 0.378160 0.854368
vt 0.350563 0.838732
vt 0.335621 0.830131
vt 0.339409 0.823166
vt 0.355376 0.832223
vt 0.760119 0.480007
vt 0.760098 0.473080
vt 0.896881 0.683240
vt 0.896881 0.666675
vt 0.904688 0.666677
vt 0.904683 0.683231
vt 0.897043 0.716031
vt 0.904670 0.722732
vt 0.904670 0.722807
vt 0.027438 0.029381
vt 0.007880 0.029381
vt 0.007880 0.008013
vt 0.027438 0.008013
vt 0.027438 0.116609
vt 0.007880 0.116609
vt 0.071971 0.029381
vt 0.071971 0.008013
vt 0.627248 0.480081
vt 0.627248 0.435548
vt 0.634259 0.435548
vt 0.634259 0.480081
vt 0.183867 0.234045
vt 0.203373 0.234045
vt 0.203373 0.255413
vt 0.183867 0.255413
vt 0.148549 0.534732
vt 0.168108 0.534732
vt 0.168108 0.554238
vt 0.148549 0.554238
vt 0.183867 0.146818
vt 0.203373 0.146818
vt 0.104017 0.534732
vt 0.104017 0.554238
vt 0.095007 0.787238
vt 0.095007 0.831771
vt 0.007780 0.831771
vt 0.007780 0.787238
vt 0.426527 0.052582
vt 0.426527 0.007997
vt 0.433538 0.007997
vt 0.433538 0.052582
vt 0.433539 0.409571
vt 0.433539 0.496798
vt 0.426527 0.496798
vt 0.426527 0.409571
vt 0.433539 0.260594
vt 0.433539 0.305127
vt 0.426527 0.305127
vt 0.426527 0.260594
vt 0.095007 0.771215
vt 0.007780 0.771215
vt 0.087994 0.534732
vt 0.087994 0.554238
vt 0.087994 0.029381
vt 0.087994 0.008013
vt 0.539763 0.776699
vt 0.528866 0.807301
vt 0.514599 0.800009
vt 0.525781 0.774539
vt 0.426527 0.244601
vt 0.426527 0.157374
vt 0.433538 0.157374
vt 0.433538 0.244601
vt 0.102559 0.771215
vt 0.102559 0.787238
vt 0.102519 0.818296
vt 0.102559 0.831771
vt 0.913454 0.772464
vt 0.901106 0.779446
vt 0.890252 0.754595
vt 0.904523 0.747309
vt 0.919724 0.806604
vt 0.906380 0.806111
vt 0.589654 0.398482
vt 0.582643 0.398482
vt 0.582643 0.371789
vt 0.589654 0.371789
vt 0.897120 0.865985
vt 0.890252 0.852533
vt 0.903090 0.830770
vt 0.916027 0.837333
vt 0.905950 0.852604
vt 0.433539 0.359426
vt 0.433539 0.384303
vt 0.426527 0.384303
vt 0.426527 0.359426
vt 0.589654 0.464144
vt 0.589654 0.483005
vt 0.582643 0.482440
vt 0.582643 0.464144
vt 0.589654 0.433193
vt 0.582643 0.433193
vt 0.433539 0.332245
vt 0.426527 0.332245
vt 0.766766 0.052405
vt 0.766766 0.068428
vt 0.759214 0.068428
vt 0.759214 0.052405
vt 0.244363 0.611303
vt 0.228340 0.611303
vt 0.228340 0.595280
vt 0.244363 0.595280
vt 0.804144 0.211026
vt 0.794755 0.230297
vt 0.783419 0.218974
vt 0.792811 0.205368
vt 0.671986 0.068428
vt 0.671986 0.052405
vt 0.183807 0.611303
vt 0.183807 0.595280
vt 0.247958 0.234045
vt 0.263981 0.234045
vt 0.263981 0.255413
vt 0.247958 0.255413
vt 0.148549 0.598823
vt 0.168108 0.598823
vt 0.168108 0.614846
vt 0.148549 0.614846
vt 0.165857 0.954199
vt 0.158846 0.954763
vt 0.716470 0.207738
vt 0.716470 0.191715
vt 0.723481 0.191715
vt 0.723481 0.207738
vt 0.359634 0.620179
vt 0.359984 0.589595
vt 0.359984 0.573572
vt 0.716463 0.238795
vt 0.723481 0.238324
vt 0.228340 0.655888
vt 0.183807 0.655888
vt 0.759214 0.007820
vt 0.671986 0.007820
vt 0.627248 0.594863
vt 0.627248 0.550278
vt 0.634259 0.550278
vt 0.634259 0.594863
vt 0.244363 0.655888
vt 0.766840 0.020679
vt 0.627248 0.496614
vt 0.634259 0.496614
vt 0.381398 0.766903
vt 0.382413 0.792583
vt 0.374951 0.784166
vt 0.373010 0.767598
vt 0.370931 0.680581
vt 0.376579 0.704592
vt 0.367285 0.705619
vt 0.365755 0.684055
vt 0.377763 0.735022
vt 0.368591 0.735678
vt 0.627248 0.533039
vt 0.634259 0.533039
vt 0.627248 0.515973
vt 0.634259 0.515973
vt 0.794742 0.144622
vt 0.804783 0.164303
vt 0.793456 0.169975
vt 0.783419 0.155958
vt 0.808765 0.186563
vt 0.797436 0.186570
vt 0.259607 0.837038
vt 0.256535 0.812374
vt 0.260333 0.807465
vt 0.267967 0.836217
vt 0.426527 0.080398
vt 0.433538 0.080398
vt 0.426527 0.135598
vt 0.433538 0.135598
vt 0.426527 0.109181
vt 0.433538 0.109181
vt 0.260223 0.906251
vt 0.258098 0.872431
vt 0.265836 0.872403
vt 0.267967 0.906180
vt 0.521473 0.688598
vt 0.529519 0.701108
vt 0.539034 0.715902
vt 0.525989 0.720606
vt 0.514599 0.702047
vt 0.544156 0.745461
vt 0.531764 0.746385
vt 0.261419 0.916506
vt 0.264527 0.922118
vt 0.241978 0.905747
vt 0.238563 0.913454
vt 0.222051 0.904756
vt 0.225839 0.897791
vt 0.978557 0.859764
vt 0.978528 0.861918
vt 0.978528 0.852262
vt 0.978557 0.850107
vt 0.912485 0.683245
vt 0.912495 0.666680
vt 0.912301 0.716036
vt 0.324537 0.497471
vt 0.344095 0.497471
vt 0.344095 0.518839
vt 0.324537 0.518839
vt 0.324537 0.410244
vt 0.344095 0.410244
vt 0.280004 0.497471
vt 0.280004 0.518839
vt 0.627248 0.052411
vt 0.627248 0.007878
vt 0.634259 0.007878
vt 0.634259 0.052411
vt 0.344095 0.029381
vt 0.324589 0.029381
vt 0.324589 0.008013
vt 0.344095 0.008013
vt 0.404459 0.532232
vt 0.404459 0.512674
vt 0.423965 0.512674
vt 0.423965 0.532232
vt 0.344095 0.116608
vt 0.324589 0.116608
vt 0.404459 0.576765
vt 0.423965 0.576765
vt 0.829058 0.687140
vt 0.829058 0.731673
vt 0.741831 0.731673
vt 0.741831 0.687140
vt 0.478143 0.200016
vt 0.478143 0.244601
vt 0.471132 0.244601
vt 0.471132 0.200016
vt 0.522747 0.156972
vt 0.522747 0.244200
vt 0.515736 0.244200
vt 0.515736 0.156972
vt 0.522747 0.007996
vt 0.522747 0.052529
vt 0.515736 0.052529
vt 0.515736 0.007996
vt 0.829058 0.671117
vt 0.741831 0.671117
vt 0.404459 0.592788
vt 0.423965 0.592788
vt 0.263981 0.497471
vt 0.263981 0.518839
vt 0.786693 0.291017
vt 0.797590 0.260414
vt 0.811858 0.267707
vt 0.800675 0.293177
vt 0.478143 0.007997
vt 0.478143 0.095224
vt 0.471132 0.095224
vt 0.471132 0.007997
vt 0.836611 0.671117
vt 0.836611 0.687140
vt 0.836570 0.718198
vt 0.836611 0.731673
vt 0.344095 0.131713
vt 0.324589 0.131713
vt 0.324537 0.395139
vt 0.344095 0.395139
vt 0.717931 0.772569
vt 0.705582 0.779551
vt 0.694729 0.754700
vt 0.708999 0.747414
vt 0.724201 0.806709
vt 0.710856 0.806216
vt 0.567352 0.398482
vt 0.560341 0.398482
vt 0.560341 0.371789
vt 0.567352 0.371789
vt 0.701597 0.866090
vt 0.694729 0.852638
vt 0.707567 0.830875
vt 0.720503 0.837438
vt 0.710427 0.852709
vt 0.522747 0.106828
vt 0.522747 0.131705
vt 0.515736 0.131705
vt 0.515736 0.106828
vt 0.567352 0.464144
vt 0.567352 0.483005
vt 0.560341 0.482440
vt 0.560341 0.464144
vt 0.567352 0.433193
vt 0.560341 0.433193
vt 0.522747 0.079647
vt 0.515736 0.079647
vt 0.278547 0.716114
vt 0.270995 0.716114
vt 0.665675 0.687193
vt 0.649653 0.687193
vt 0.885532 0.211026
vt 0.876143 0.230297
vt 0.864806 0.218974
vt 0.874198 0.205368
vt 0.183767 0.716114
vt 0.605120 0.687193
vt 0.280004 0.029381
vt 0.280004 0.008013
vt 0.468550 0.532232
vt 0.468550 0.512674
vt 0.536866 0.940040
vt 0.536866 0.924573
vt 0.543878 0.924009
vt 0.543878 0.940040
vt 0.761089 0.207738
vt 0.761089 0.191715
vt 0.768100 0.191715
vt 0.768100 0.207738
vt 0.328300 0.611251
vt 0.328300 0.655784
vt 0.320398 0.641835
vt 0.320748 0.611251
vt 0.328300 0.595228
vt 0.320748 0.595228
vt 0.761082 0.238795
vt 0.768100 0.238324
vt 0.649653 0.731778
vt 0.605120 0.731778
vt 0.270995 0.671529
vt 0.183767 0.671529
vt 0.627248 0.167193
vt 0.627248 0.122608
vt 0.634259 0.122608
vt 0.634259 0.167193
vt 0.665675 0.731778
vt 0.278622 0.684387
vt 0.627248 0.068944
vt 0.634259 0.068944
vt 0.750822 0.821711
vt 0.746184 0.837596
vt 0.740569 0.839083
vt 0.743584 0.820496
vt 0.749089 0.774023
vt 0.743073 0.774938
vt 0.753172 0.795433
vt 0.746205 0.795610
vt 0.627248 0.105369
vt 0.634259 0.105369
vt 0.627248 0.088303
vt 0.634259 0.088303
vt 0.876129 0.144622
vt 0.886170 0.164303
vt 0.874844 0.169975
vt 0.864806 0.155958
vt 0.890153 0.186563
vt 0.878823 0.186570
vt 0.301853 0.890884
vt 0.293493 0.891705
vt 0.478143 0.172200
vt 0.471132 0.172200
vt 0.478143 0.117000
vt 0.471132 0.117000
vt 0.478143 0.143417
vt 0.471132 0.143417
vt 0.301237 0.821671
vt 0.303362 0.855491
vt 0.295624 0.855519
vt 0.293493 0.821743
vt 0.804983 0.379118
vt 0.796937 0.366608
vt 0.787423 0.351814
vt 0.800467 0.347109
vt 0.811858 0.365668
vt 0.782300 0.322255
vt 0.794692 0.321331
vt 0.300041 0.811417
vt 0.296933 0.805804
vt 0.319482 0.822176
vt 0.322897 0.814468
vt 0.158864 0.979752
vt 0.158835 0.981906
vt 0.158835 0.972252
vt 0.158864 0.970099
vt 0.896891 0.650110
vt 0.904694 0.650124
vt 0.897074 0.617319
vt 0.904706 0.610548
vt 0.904706 0.610623
vt 0.324537 0.292807
vt 0.324537 0.271439
vt 0.344095 0.271439
vt 0.344095 0.292807
vt 0.324537 0.380035
vt 0.344095 0.380035
vt 0.280004 0.292807
vt 0.280004 0.271439
vt 0.604945 0.375259
vt 0.611957 0.375259
vt 0.611957 0.419792
vt 0.604945 0.419792
vt 0.344095 0.234045
vt 0.344095 0.255413
vt 0.324589 0.255413
vt 0.324589 0.234045
vt 0.148549 0.694960
vt 0.148549 0.675454
vt 0.168108 0.675454
vt 0.168108 0.694960
vt 0.344095 0.146818
vt 0.324589 0.146818
vt 0.104017 0.694960
vt 0.104017 0.675454
vt 0.491587 0.733134
vt 0.404359 0.733134
vt 0.404359 0.688601
vt 0.491587 0.688601
vt 0.359620 0.452614
vt 0.366632 0.452614
vt 0.366632 0.497199
vt 0.359621 0.497199
vt 0.471132 0.409571
vt 0.478143 0.409571
vt 0.478143 0.496798
vt 0.471132 0.496798
vt 0.471132 0.260594
vt 0.478143 0.260594
vt 0.478143 0.305127
vt 0.471132 0.305127
vt 0.491587 0.749157
vt 0.404359 0.749157
vt 0.087994 0.694960
vt 0.087994 0.675454
vt 0.263981 0.292807
vt 0.263981 0.271439
vt 0.807465 0.038419
vt 0.793483 0.040579
vt 0.782300 0.015109
vt 0.796567 0.007816
vt 0.359621 0.260595
vt 0.366632 0.260595
vt 0.366632 0.347822
vt 0.359620 0.347822
vt 0.499139 0.749157
vt 0.499139 0.733134
vt 0.499139 0.688601
vt 0.499098 0.702077
vt 0.656167 0.772569
vt 0.665098 0.747414
vt 0.679369 0.754700
vt 0.668516 0.779551
vt 0.649897 0.806709
vt 0.663242 0.806216
vt 0.589654 0.092498
vt 0.589654 0.119191
vt 0.582643 0.119191
vt 0.582643 0.092498
vt 0.672501 0.866090
vt 0.663671 0.852709
vt 0.653594 0.837438
vt 0.666531 0.830874
vt 0.679369 0.852638
vt 0.471132 0.359426
vt 0.478143 0.359426
vt 0.478143 0.384303
vt 0.471132 0.384303
vt 0.589654 0.026836
vt 0.582643 0.026836
vt 0.582643 0.008539
vt 0.589654 0.007975
vt 0.589654 0.057786
vt 0.582643 0.057786
vt 0.471132 0.332245
vt 0.478143 0.332245
vt 0.766766 0.084451
vt 0.759214 0.084451
vt 0.244363 0.579258
vt 0.228340 0.579258
vt 0.576011 0.842155
vt 0.564678 0.847813
vt 0.555286 0.834207
vt 0.566622 0.822884
vt 0.671986 0.084451
vt 0.183807 0.579258
vt 0.280004 0.234045
vt 0.280004 0.255413
vt 0.148549 0.630869
vt 0.168108 0.630869
vt 0.543878 0.956072
vt 0.536866 0.955508
vt 0.745784 0.207738
vt 0.738773 0.207738
vt 0.738773 0.191715
vt 0.745784 0.191715
vt 0.335853 0.611251
vt 0.336203 0.641835
vt 0.335853 0.595228
vt 0.745791 0.238795
vt 0.738773 0.238324
vt 0.228340 0.534672
vt 0.183807 0.534672
vt 0.759214 0.129036
vt 0.671986 0.129036
vt 0.604945 0.260476
vt 0.611957 0.260476
vt 0.611957 0.305061
vt 0.604945 0.305061
vt 0.244363 0.534672
vt 0.766840 0.116177
vt 0.604945 0.358726
vt 0.611957 0.358726
vt 0.307761 0.679346
vt 0.311655 0.685185
vt 0.299898 0.697794
vt 0.293078 0.695726
vt 0.351913 0.678001
vt 0.353782 0.671399
vt 0.332591 0.676858
vt 0.331559 0.670028
vt 0.611957 0.322301
vt 0.604945 0.322301
vt 0.611957 0.339367
vt 0.604945 0.339367
vt 0.566609 0.908559
vt 0.555286 0.897223
vt 0.565323 0.883206
vt 0.576650 0.888878
vt 0.569303 0.866611
vt 0.580633 0.866618
vt 0.237147 0.816621
vt 0.235036 0.809841
vt 0.359620 0.424798
vt 0.366632 0.424798
vt 0.366632 0.369598
vt 0.359620 0.369598
vt 0.366632 0.396015
vt 0.359620 0.396015
vt 0.191667 0.854326
vt 0.183079 0.851973
vt 0.205879 0.824090
vt 0.211099 0.830124
vt 0.789175 0.126520
vt 0.782300 0.113070
vt 0.793690 0.094511
vt 0.806735 0.099216
vt 0.797221 0.114009
vt 0.799465 0.068733
vt 0.811858 0.069657
vt 0.189991 0.871088
vt 0.183300 0.873554
vt 0.210897 0.889190
vt 0.206084 0.895700
vt 0.978298 0.207506
vt 0.978298 0.197860
vt 0.978327 0.200012
vt 0.978327 0.209658
vt 0.912495 0.650115
vt 0.912334 0.617324
vt 0.148549 0.234045
vt 0.168108 0.234045
vt 0.168108 0.255413
vt 0.148549 0.255413
vt 0.148549 0.146818
vt 0.168108 0.146818
vt 0.104017 0.234045
vt 0.104017 0.255413
vt 0.656561 0.122661
vt 0.656561 0.167193
vt 0.649550 0.167193
vt 0.649550 0.122661
vt 0.168108 0.292807
vt 0.148602 0.292807
vt 0.148602 0.271439
vt 0.168108 0.271439
vt 0.564687 0.653343
vt 0.564687 0.672902
vt 0.545181 0.672902
vt 0.545181 0.653343
vt 0.168108 0.380035
vt 0.148602 0.380035
vt 0.564687 0.608811
vt 0.545181 0.608811
vt 0.767956 0.512046
vt 0.767956 0.556565
vt 0.855158 0.556565
vt 0.855158 0.512046
vt 0.388934 0.200016
vt 0.388934 0.244602
vt 0.381923 0.244602
vt 0.381923 0.200016
vt 0.448830 0.347821
vt 0.448830 0.260594
vt 0.455841 0.260594
vt 0.455841 0.347821
vt 0.448830 0.496798
vt 0.448830 0.452265
vt 0.455841 0.452265
vt 0.455841 0.496798
vt 0.143184 0.798757
vt 0.132286 0.829360
vt 0.118019 0.822067
vt 0.129202 0.796597
vt 0.388934 0.007997
vt 0.388934 0.095224
vt 0.381923 0.095224
vt 0.381923 0.007997
vt 0.760406 0.512046
vt 0.760447 0.543094
vt 0.760406 0.556565
vt 0.168108 0.395139
vt 0.148602 0.395139
vt 0.148549 0.131713
vt 0.168108 0.131713
vt 0.851691 0.840831
vt 0.864039 0.833849
vt 0.874893 0.858700
vt 0.860622 0.865986
vt 0.845421 0.806691
vt 0.858765 0.807184
vt 0.560341 0.092498
vt 0.567352 0.092498
vt 0.868024 0.747309
vt 0.874893 0.760762
vt 0.862055 0.782525
vt 0.849118 0.775962
vt 0.859195 0.760690
vt 0.448830 0.397966
vt 0.448830 0.373089
vt 0.455841 0.373089
vt 0.455841 0.397966
vt 0.560341 0.026836
vt 0.560341 0.007975
vt 0.567352 0.008539
vt 0.567352 0.026836
vt 0.560341 0.057786
vt 0.567352 0.057786
vt 0.448830 0.425147
vt 0.455841 0.425147
vt 0.672061 0.337049
vt 0.672061 0.321026
vt 0.679613 0.321026
vt 0.679613 0.337049
vt 0.681698 0.655147
vt 0.681698 0.671170
vt 0.465672 0.891703
vt 0.456283 0.910974
vt 0.444947 0.899651
vt 0.454339 0.886045
vt 0.766841 0.321026
vt 0.766841 0.337049
vt 0.726231 0.655147
vt 0.726231 0.671170
vt 0.104017 0.292807
vt 0.087994 0.292807
vt 0.087994 0.271439
vt 0.104017 0.271439
vt 0.500596 0.653343
vt 0.500596 0.672902
vt 0.484573 0.672902
vt 0.484573 0.653343
vt 0.514564 0.940040
vt 0.514564 0.924573
vt 0.521575 0.924009
vt 0.521575 0.940040
vt 0.701165 0.175692
vt 0.694154 0.175692
vt 0.367537 0.557549
vt 0.367537 0.513016
vt 0.375440 0.526964
vt 0.375089 0.557549
vt 0.701172 0.144635
vt 0.694154 0.145106
vt 0.681698 0.610562
vt 0.726231 0.610562
vt 0.679613 0.381634
vt 0.766840 0.381634
vt 0.656561 0.007878
vt 0.656561 0.052464
vt 0.649550 0.052464
vt 0.649550 0.007878
vt 0.671986 0.368776
vt 0.656561 0.106128
vt 0.649550 0.106128
vt 0.821706 0.767534
vt 0.831223 0.768266
vt 0.812236 0.851803
vt 0.815687 0.829368
vt 0.823976 0.830411
vt 0.818614 0.856404
vt 0.816726 0.800224
vt 0.825895 0.801311
vt 0.656561 0.069703
vt 0.649550 0.069703
vt 0.656561 0.086769
vt 0.649550 0.086769
vt 0.456270 0.825298
vt 0.466311 0.844980
vt 0.454984 0.850651
vt 0.444947 0.836635
vt 0.470293 0.867240
vt 0.458964 0.867247
vt 0.545050 0.087110
vt 0.545050 0.119595
vt 0.538038 0.119595
vt 0.538038 0.087110
vt 0.388934 0.172200
vt 0.381923 0.172200
vt 0.388934 0.117000
vt 0.381923 0.117000
vt 0.388934 0.143417
vt 0.381923 0.143417
vt 0.545050 0.025565
vt 0.545050 0.055565
vt 0.538038 0.055565
vt 0.538038 0.025565
vt 0.124894 0.710656
vt 0.132940 0.723167
vt 0.142454 0.737960
vt 0.129409 0.742665
vt 0.118019 0.724106
vt 0.147576 0.767519
vt 0.135184 0.768443
vt 0.545050 0.007976
vt 0.538038 0.007976
vt 0.671852 0.176364
vt 0.678781 0.176364
vt 0.678781 0.192387
vt 0.671852 0.192387
vt 0.760098 0.518976
vt 0.760119 0.512048
vt 0.671852 0.144637
vt 0.678863 0.144637
vt 0.931032 0.508173
vt 0.923230 0.508159
vt 0.923235 0.491606
vt 0.931043 0.491608
vt 0.930849 0.540964
vt 0.923217 0.547735
vt 0.923217 0.547660
vt 0.148549 0.029381
vt 0.148549 0.008013
vt 0.168108 0.008013
vt 0.168108 0.029381
vt 0.148549 0.116609
vt 0.168108 0.116609
vt 0.104017 0.029381
vt 0.104017 0.008013
vt 0.649550 0.375259
vt 0.656561 0.375259
vt 0.656561 0.419792
vt 0.649550 0.419792
vt 0.168108 0.497471
vt 0.168108 0.518839
vt 0.148602 0.518839
vt 0.148602 0.497471
vt 0.027438 0.534732
vt 0.027438 0.554238
vt 0.007880 0.554238
vt 0.007880 0.534732
vt 0.168108 0.410244
vt 0.148602 0.410244
vt 0.071971 0.534732
vt 0.071971 0.554238
vt 0.095007 0.755193
vt 0.007780 0.755193
vt 0.007780 0.710660
vt 0.095007 0.710660
vt 0.455841 0.052582
vt 0.448830 0.052582
vt 0.448829 0.007997
vt 0.455841 0.007997
vt 0.500445 0.347821
vt 0.493434 0.347821
vt 0.493434 0.260594
vt 0.500445 0.260594
vt 0.500445 0.496798
vt 0.493434 0.496798
vt 0.493434 0.452265
vt 0.500445 0.452265
vt 0.852382 0.038419
vt 0.838400 0.040579
vt 0.827218 0.015109
vt 0.841485 0.007816
vt 0.455841 0.244601
vt 0.448829 0.244601
vt 0.448830 0.157374
vt 0.455841 0.157374
vt 0.102559 0.755193
vt 0.102559 0.710660
vt 0.102519 0.724135
vt 0.876888 0.460641
vt 0.885819 0.435486
vt 0.900090 0.442772
vt 0.889236 0.467623
vt 0.870618 0.494781
vt 0.883962 0.494288
vt 0.589654 0.345096
vt 0.582643 0.345096
vt 0.893222 0.554162
vt 0.884392 0.540781
vt 0.874315 0.525510
vt 0.887252 0.518947
vt 0.900090 0.540710
vt 0.500445 0.397966
vt 0.493434 0.397966
vt 0.493434 0.373089
vt 0.500445 0.373089
vt 0.589654 0.279434
vt 0.582643 0.279434
vt 0.582643 0.261137
vt 0.589654 0.260573
vt 0.589654 0.310384
vt 0.582643 0.310384
vt 0.500445 0.425147
vt 0.493434 0.425147
vt 0.649759 0.480075
vt 0.657311 0.480075
vt 0.657311 0.496098
vt 0.649759 0.496098
vt 0.260386 0.595280
vt 0.260386 0.611303
vt 0.535318 0.842154
vt 0.523984 0.847813
vt 0.514592 0.834207
vt 0.525929 0.822883
vt 0.744538 0.480075
vt 0.744538 0.496098
vt 0.304919 0.595280
vt 0.304919 0.611303
vt 0.104017 0.497471
vt 0.104017 0.518839
vt 0.087994 0.518839
vt 0.087994 0.497471
vt 0.027438 0.598823
vt 0.027438 0.614846
vt 0.007880 0.614846
vt 0.007880 0.598823
vt 0.521575 0.956072
vt 0.514564 0.955508
vt 0.716470 0.175692
vt 0.723481 0.175692
vt 0.359984 0.557549
vt 0.359634 0.526964
vt 0.716463 0.144635
vt 0.723481 0.145106
vt 0.260386 0.655888
vt 0.304919 0.655888
vt 0.657311 0.435490
vt 0.744538 0.435490
vt 0.649550 0.260476
vt 0.656561 0.260476
vt 0.656561 0.305061
vt 0.649550 0.305061
vt 0.649684 0.448349
vt 0.649550 0.358726
vt 0.656561 0.358726
vt 0.357949 0.787569
vt 0.359541 0.780332
vt 0.293078 0.778339
vt 0.297226 0.775028
vt 0.310052 0.773435
vt 0.310039 0.780606
vt 0.334341 0.773220
vt 0.333376 0.780618
vt 0.656561 0.322301
vt 0.649550 0.322301
vt 0.656561 0.339367
vt 0.649550 0.339367
vt 0.525915 0.908559
vt 0.514592 0.897223
vt 0.524630 0.883206
vt 0.535956 0.888878
vt 0.528609 0.866611
vt 0.539939 0.866618
vt 0.545050 0.404678
vt 0.538039 0.404678
vt 0.538039 0.372193
vt 0.545050 0.372193
vt 0.455841 0.080398
vt 0.448830 0.080398
vt 0.448830 0.135598
vt 0.455841 0.135598
vt 0.448830 0.109181
vt 0.455841 0.109181
vt 0.545050 0.466223
vt 0.538039 0.466223
vt 0.538039 0.436223
vt 0.545050 0.436223
vt 0.834092 0.126520
vt 0.827218 0.113070
vt 0.838608 0.094511
vt 0.851652 0.099216
vt 0.842138 0.114009
vt 0.844383 0.068733
vt 0.856775 0.069657
vt 0.545050 0.483812
vt 0.538039 0.483812
vt 0.589654 0.530487
vt 0.589654 0.546510
vt 0.582725 0.546510
vt 0.582725 0.530487
vt 0.277570 0.967996
vt 0.277570 0.977647
vt 0.277541 0.975494
vt 0.277541 0.965843
vt 0.589654 0.498760
vt 0.582643 0.498760
vt 0.915428 0.508168
vt 0.915428 0.491603
vt 0.915590 0.540959
vt 0.203426 0.497471
vt 0.203426 0.518839
vt 0.183867 0.518839
vt 0.183867 0.497471
vt 0.203426 0.410244
vt 0.183867 0.410244
vt 0.247958 0.497471
vt 0.247958 0.518839
vt 0.611956 0.052411
vt 0.604945 0.052411
vt 0.604945 0.007878
vt 0.611956 0.007878
vt 0.007880 0.292807
vt 0.007880 0.271439
vt 0.027386 0.271439
vt 0.027386 0.292807
vt 0.404459 0.653343
vt 0.423965 0.653343
vt 0.423965 0.672902
vt 0.404459 0.672902
vt 0.007880 0.380035
vt 0.027386 0.380035
vt 0.404459 0.608811
vt 0.423965 0.608811
vt 0.829058 0.655095
vt 0.741831 0.655095
vt 0.741831 0.610562
vt 0.829058 0.610562
vt 0.359620 0.200016
vt 0.366632 0.200016
vt 0.366632 0.244602
vt 0.359621 0.244602
vt 0.411236 0.347822
vt 0.404225 0.347822
vt 0.404225 0.260594
vt 0.411236 0.260594
vt 0.411236 0.496798
vt 0.404225 0.496798
vt 0.404225 0.452265
vt 0.411236 0.452265
vt 0.852382 0.291017
vt 0.838400 0.293177
vt 0.827218 0.267707
vt 0.841485 0.260414
vt 0.359621 0.007997
vt 0.366632 0.007997
vt 0.366632 0.095224
vt 0.359621 0.095224
vt 0.836611 0.655095
vt 0.836611 0.610562
vt 0.836570 0.624037
vt 0.007880 0.395139
vt 0.027386 0.395139
vt 0.203426 0.395139
vt 0.183867 0.395139
vt 0.895337 0.353936
vt 0.886405 0.379091
vt 0.872135 0.371805
vt 0.882988 0.346954
vt 0.901607 0.319796
vt 0.888262 0.320289
vt 0.567352 0.345095
vt 0.560341 0.345095
vt 0.879003 0.260414
vt 0.887832 0.273795
vt 0.897909 0.289067
vt 0.884973 0.295630
vt 0.872135 0.273867
vt 0.411236 0.397966
vt 0.404225 0.397966
vt 0.404225 0.373089
vt 0.411236 0.373089
vt 0.567352 0.279434
vt 0.560341 0.279434
vt 0.560341 0.261137
vt 0.567352 0.260573
vt 0.567352 0.310384
vt 0.560341 0.310384
vt 0.411236 0.425147
vt 0.404225 0.425147
vt 0.672061 0.305003
vt 0.679613 0.305003
vt 0.681698 0.687192
vt 0.424978 0.844570
vt 0.413645 0.850228
vt 0.404253 0.836622
vt 0.415590 0.825299
vt 0.766841 0.305003
vt 0.726231 0.687193
vt 0.071971 0.292807
vt 0.071971 0.271439
vt 0.468550 0.653343
vt 0.468550 0.672902
vt 0.566180 0.940040
vt 0.559169 0.940040
vt 0.559169 0.924009
vt 0.566180 0.924573
vt 0.761089 0.175692
vt 0.768100 0.175692
vt 0.328300 0.579205
vt 0.320748 0.579205
vt 0.320398 0.548621
vt 0.328300 0.534672
vt 0.761082 0.144635
vt 0.768100 0.145106
vt 0.681698 0.731778
vt 0.726231 0.731778
vt 0.679613 0.260418
vt 0.766841 0.260418
vt 0.611956 0.167193
vt 0.604945 0.167193
vt 0.604945 0.122608
vt 0.611956 0.122608
vt 0.671986 0.273277
vt 0.611956 0.068944
vt 0.604945 0.068944
vt 0.757389 0.849739
vt 0.752677 0.855516
vt 0.799050 0.864391
vt 0.797728 0.857887
vt 0.777071 0.865390
vt 0.778467 0.858650
vt 0.604945 0.105369
vt 0.611956 0.105369
vt 0.604945 0.088303
vt 0.611956 0.088303
vt 0.415576 0.910974
vt 0.404253 0.899638
vt 0.414291 0.885621
vt 0.425617 0.891293
vt 0.418270 0.869026
vt 0.429600 0.869033
vt 0.545050 0.152080
vt 0.538038 0.152080
vt 0.359621 0.172200
vt 0.366632 0.172200
vt 0.366632 0.117000
vt 0.359621 0.117000
vt 0.366632 0.143417
vt 0.359621 0.143417
vt 0.545050 0.213625
vt 0.538038 0.213625
vt 0.538038 0.183625
vt 0.545050 0.183625
vt 0.834092 0.379118
vt 0.827218 0.365668
vt 0.838608 0.347109
vt 0.851653 0.351814
vt 0.842138 0.366608
vt 0.844383 0.321331
vt 0.856775 0.322255
vt 0.545050 0.231214
vt 0.538038 0.231214
vt 0.671852 0.208410
vt 0.678781 0.208410
vt 0.978327 0.227123
vt 0.978327 0.236769
vt 0.978298 0.234617
vt 0.978298 0.224971
vt 0.671852 0.240136
vt 0.678863 0.240137
vt 0.931043 0.475043
vt 0.923241 0.475052
vt 0.930881 0.442252
vt 0.923254 0.435551
vt 0.923254 0.435476
vt 0.203426 0.292807
vt 0.183867 0.292807
vt 0.183867 0.271439
vt 0.203426 0.271439
vt 0.203426 0.380035
vt 0.183867 0.380035
vt 0.247958 0.292807
vt 0.247958 0.271439
vt 0.604945 0.480081
vt 0.604945 0.435548
vt 0.611957 0.435548
vt 0.611957 0.480081
vt 0.007880 0.497471
vt 0.027386 0.497471
vt 0.027386 0.518839
vt 0.007880 0.518839
vt 0.027438 0.694960
vt 0.007880 0.694960
vt 0.007880 0.675454
vt 0.027438 0.675454
vt 0.007880 0.410244
vt 0.027386 0.410244
vt 0.071971 0.694960
vt 0.071971 0.675454
vt 0.491587 0.765180
vt 0.491587 0.809713
vt 0.404359 0.809713
vt 0.404359 0.765180
vt 0.404225 0.052582
vt 0.404225 0.007996
vt 0.411236 0.007996
vt 0.411236 0.052582
vt 0.515736 0.347822
vt 0.515736 0.260594
vt 0.522747 0.260594
vt 0.522747 0.347822
vt 0.515736 0.496798
vt 0.515736 0.452265
vt 0.522748 0.452265
vt 0.522748 0.496798
vt 0.563909 0.719200
vt 0.574806 0.688598
vt 0.589073 0.695890
vt 0.577891 0.721360
vt 0.404225 0.244602
vt 0.404225 0.157374
vt 0.411236 0.157374
vt 0.411236 0.244602
vt 0.499139 0.765180
vt 0.499098 0.796237
vt 0.499139 0.809713
vt 0.895337 0.032971
vt 0.882988 0.039953
vt 0.872135 0.015102
vt 0.886405 0.007816
vt 0.901607 0.067111
vt 0.888262 0.066618
vt 0.589654 0.145884
vt 0.582643 0.145884
vt 0.879003 0.126492
vt 0.872135 0.113040
vt 0.884973 0.091277
vt 0.897909 0.097840
vt 0.887832 0.113111
vt 0.515736 0.397966
vt 0.515736 0.373089
vt 0.522748 0.373089
vt 0.522748 0.397966
vt 0.589654 0.211545
vt 0.589654 0.230406
vt 0.582643 0.229842
vt 0.582643 0.211545
vt 0.589654 0.180595
vt 0.582643 0.180595
vt 0.515736 0.425147
vt 0.522748 0.425147
vt 0.649759 0.512121
vt 0.657311 0.512121
vt 0.260386 0.579258
vt 0.844838 0.211026
vt 0.835449 0.230297
vt 0.824113 0.218974
vt 0.833505 0.205368
vt 0.744538 0.512121
vt 0.304919 0.579258
vt 0.071971 0.497471
vt 0.071971 0.518839
vt 0.027438 0.630869
vt 0.007880 0.630869
vt 0.566180 0.955508
vt 0.559169 0.956072
vt 0.745784 0.175692
vt 0.738773 0.175692
vt 0.336203 0.548621
vt 0.335853 0.579205
vt 0.745791 0.144635
vt 0.738773 0.145106
vt 0.260386 0.534672
vt 0.304919 0.534672
vt 0.657311 0.556706
vt 0.744538 0.556706
vt 0.604945 0.594864
vt 0.604945 0.550278
vt 0.611957 0.550278
vt 0.611957 0.594864
vt 0.649684 0.543847
vt 0.604945 0.496614
vt 0.611957 0.496614
vt 0.297546 0.714846
vt 0.304134 0.713851
vt 0.294656 0.761348
vt 0.301650 0.762790
vt 0.299031 0.738980
vt 0.306159 0.739489
vt 0.604945 0.533039
vt 0.611957 0.533039
vt 0.604945 0.515973
vt 0.611957 0.515973
vt 0.835436 0.144622
vt 0.845477 0.164303
vt 0.834150 0.169975
vt 0.824113 0.155958
vt 0.849459 0.186563
vt 0.838129 0.186570
vt 0.545050 0.339708
vt 0.538039 0.339708
vt 0.404225 0.080398
vt 0.411236 0.080398
vt 0.404225 0.135599
vt 0.411236 0.135599
vt 0.404225 0.109181
vt 0.411236 0.109181
vt 0.545050 0.278163
vt 0.545050 0.308163
vt 0.538039 0.308163
vt 0.538039 0.278163
vt 0.582199 0.807301
vt 0.574153 0.794791
vt 0.564638 0.779998
vt 0.577683 0.775293
vt 0.589073 0.793852
vt 0.559516 0.750438
vt 0.571908 0.749515
vt 0.545050 0.260575
vt 0.538039 0.260574
vt 0.589654 0.562533
vt 0.582725 0.562533
vt 0.514554 0.973564
vt 0.514583 0.971412
vt 0.514583 0.981058
vt 0.514554 0.983210
vt 0.589654 0.594259
vt 0.582643 0.594260
vt 0.915439 0.475038
vt 0.915622 0.442247
s 0
usemtl Crate
f 18/1/1 17/2/1 15/3/1 16/4/1
f 36/5/1 18/1/1 16/4/1 35/6/1
f 31/7/1 30/8/1 17/2/1 18/1/1
f 32/9/2 34/10/2 23/11/2 21/12/2
f 16/13/3 15/14/3 20/15/3 19/16/3
f 17/17/4 21/18/4 20/19/4 15/20/4
f 35/21/3 16/13/3 19/16/3 37/22/3
f 30/23/4 32/24/4 21/18/4 17/17/4
f 41/25/1 33/26/1 22/27/1 38/28/1
f 61/29/5 62/30/5 24/31/5 19/32/5
f 36/33/6 38/34/6 22/35/6 18/36/6
f 18/37/5 22/38/5 33/39/5 31/40/5
f 40/41/1 28/42/1 33/26/1 41/25/1
f 25/43/4 27/44/4 32/24/4 30/23/4
f 26/45/1 25/46/1 30/8/1 31/7/1
f 90/47/3 81/48/3 61/49/3 9/50/3
f 19/51/2 24/52/2 39/53/2 37/54/2
f 55/55/1 40/41/1 41/25/1 56/56/1
f 56/56/1 41/25/1 38/28/1 54/57/1 58/58/1
f 1/59/3 35/21/3 37/22/3 3/60/3
f 2/61/1 36/5/1 35/6/1 1/62/1
f 51/63/1 26/64/1 31/65/1 47/66/1
f 44/67/1 51/63/1 47/66/1 48/68/1
f 49/69/7 28/70/7 26/71/7 51/72/7
f 2/73/1 57/74/1 43/75/1 53/76/1 36/77/1
f 48/78/8 52/79/8 50/80/8 53/81/8
f 42/82/9 43/83/9 57/84/9 58/85/9
f 43/75/1 44/67/1 48/68/1 53/76/1
f 45/86/10 44/87/10 43/83/10 42/82/10
f 47/88/11 31/40/11 33/39/11 46/89/11
f 48/78/12 47/88/12 46/89/12 52/79/12
f 45/86/13 49/69/13 51/72/13 44/87/13
f 53/81/14 50/80/14 38/34/14 36/33/14
f 95/90/3 63/91/3 14/92/3 93/93/3
f 67/94/4 12/95/4 13/96/4 68/97/4
f 75/98/4 71/99/4 32/100/4 27/101/4
f 63/91/3 62/102/3 11/103/3 14/92/3
f 68/97/4 13/96/4 10/104/4 66/105/4
f 61/106/3 64/107/3 7/108/3 9/109/3
f 65/110/4 8/111/4 7/112/4 64/113/4
f 4/114/15 2/115/15 57/116/15 58/117/15
f 56/118/4 60/119/4 59/120/4 55/121/4
f 5/122/1 60/123/1 57/124/1 2/125/1
f 6/126/1 59/127/1 60/123/1 5/122/1
f 58/128/16 57/129/16 60/119/16 56/118/16
f 21/18/4 65/110/4 64/113/4 20/19/4
f 19/16/3 20/15/3 64/107/3 61/106/3
f 34/130/4 68/97/4 66/105/4 23/131/4
f 39/132/3 24/133/3 62/102/3 63/91/3
f 21/134/6 23/135/6 66/136/6 65/137/6
f 29/138/4 67/94/4 68/97/4 34/130/4
f 94/139/3 39/132/3 63/91/3 95/90/3
f 71/140/17 80/141/17 34/10/17 32/9/17
f 72/142/18 75/143/18 27/144/18 29/145/18
f 10/146/19 8/147/19 77/148/19 74/149/19
f 74/149/20 77/148/20 76/150/20 73/151/20
f 73/151/21 76/150/21 75/143/21 72/142/21
f 65/137/22 66/136/22 78/152/22 69/153/22
f 69/153/23 78/152/23 79/154/23 70/155/23
f 70/155/24 79/154/24 80/141/24 71/140/24
f 8/156/4 65/157/4 69/158/4 77/159/4
f 77/159/4 69/158/4 70/160/4 76/161/4
f 76/161/4 70/160/4 71/99/4 75/98/4
f 89/162/25 90/163/25 9/164/25 11/165/25
f 81/166/26 84/167/26 62/30/26 61/29/26
f 37/54/27 39/53/27 86/168/27 82/169/27
f 82/169/28 86/168/28 85/170/28 83/171/28
f 83/171/29 85/170/29 84/167/29 81/166/29
f 87/172/30 92/173/30 91/174/30 88/175/30
f 88/175/31 91/174/31 90/163/31 89/162/31
f 3/176/3 37/177/3 82/178/3 92/179/3 96/180/3
f 92/179/3 82/178/3 83/181/3 91/182/3
f 91/182/3 83/181/3 81/48/3 90/47/3
f 94/183/32 96/184/32 92/173/32 87/172/32
f 95/185/4 93/186/4 101/187/4 102/188/4
f 58/58/33 56/189/33 100/190/33 54/57/33
f 94/183/34 95/185/34 102/188/34 96/184/34
f 102/191/3 101/192/3 97/193/3 99/194/3
f 96/195/35 102/191/35 99/194/35 98/196/35 3/197/35
f 114/198/1 112/199/1 111/200/1 113/201/1
f 132/202/1 131/203/1 112/199/1 114/198/1
f 127/204/1 114/198/1 113/201/1 126/205/1
f 128/206/2 117/207/2 119/208/2 130/209/2
f 112/210/3 115/211/3 116/212/3 111/213/3
f 113/214/5 111/215/5 116/216/5 117/217/5
f 131/218/3 133/219/3 115/211/3 112/210/3
f 126/220/5 113/214/5 117/217/5 128/221/5
f 137/222/1 134/223/1 118/224/1 129/225/1
f 157/226/4 115/227/4 120/228/4 158/229/4
f 132/230/6 114/231/6 118/232/6 134/233/6
f 114/234/4 127/235/4 129/236/4 118/237/4
f 136/238/1 137/222/1 129/225/1 124/239/1
f 121/240/5 126/220/5 128/221/5 123/241/5
f 122/242/1 127/204/1 126/205/1 121/243/1
f 186/244/3 105/245/3 157/246/3 177/247/3
f 115/248/2 133/249/2 135/250/2 120/251/2
f 151/252/1 152/253/1 137/222/1 136/238/1
f 152/253/1 154/254/1 150/255/1 134/223/1 137/222/1
f 1/59/3 3/60/3 133/219/3 131/218/3
f 2/61/1 1/62/1 131/203/1 132/202/1
f 147/256/1 143/257/1 127/258/1 122/259/1
f 140/260/1 144/261/1 143/257/1 147/256/1
f 145/262/36 147/263/36 122/264/36 124/265/36
f 2/266/1 132/267/1 149/268/1 139/269/1 153/270/1
f 144/271/37 149/272/37 146/273/37 148/274/37
f 138/275/38 154/276/38 153/277/38 139/278/38
f 139/269/1 149/268/1 144/261/1 140/260/1
f 141/279/39 138/275/39 139/278/39 140/280/39
f 143/281/40 142/282/40 129/236/40 127/235/40
f 144/271/41 148/274/41 142/282/41 143/281/41
f 141/279/42 140/280/42 147/263/42 145/262/42
f 149/272/43 132/230/43 134/233/43 146/273/43
f 191/283/3 189/284/3 110/285/3 159/286/3
f 163/287/5 164/288/5 109/289/5 108/290/5
f 171/291/5 123/292/5 128/293/5 167/294/5
f 159/286/3 110/285/3 107/295/3 158/296/3
f 164/288/5 162/297/5 106/298/5 109/289/5
f 157/299/3 105/300/3 103/301/3 160/302/3
f 161/303/5 160/304/5 103/305/5 104/306/5
f 4/114/44 154/307/44 153/308/44 2/115/44
f 152/309/5 151/310/5 155/311/5 156/312/5
f 5/122/1 2/125/1 153/313/1 156/314/1
f 6/126/1 5/122/1 156/314/1 155/315/1
f 154/316/45 152/309/45 156/312/45 153/317/45
f 117/217/5 116/216/5 160/304/5 161/303/5
f 115/211/3 157/299/3 160/302/3 116/212/3
f 130/318/5 119/319/5 162/297/5 164/288/5
f 135/320/3 159/286/3 158/296/3 120/321/3
f 117/322/6 161/323/6 162/324/6 119/325/6
f 125/326/5 130/318/5 164/288/5 163/287/5
f 190/327/3 191/283/3 159/286/3 135/320/3
f 167/328/17 128/206/17 130/209/17 176/329/17
f 168/330/18 125/331/18 123/332/18 171/333/18
f 106/334/19 170/335/19 173/336/19 104/337/19
f 170/335/20 169/338/20 172/339/20 173/336/20
f 169/338/21 168/330/21 171/333/21 172/339/21
f 161/323/22 165/340/22 174/341/22 162/324/22
f 165/340/23 166/342/23 175/343/23 174/341/23
f 166/342/24 167/328/24 176/329/24 175/343/24
f 104/344/5 173/345/5 165/346/5 161/347/5
f 173/345/5 172/348/5 166/349/5 165/346/5
f 172/348/5 171/291/5 167/294/5 166/349/5
f 185/350/46 107/351/46 105/352/46 186/353/46
f 177/354/47 157/226/47 158/229/47 180/355/47
f 133/249/48 178/356/48 182/357/48 135/250/48
f 178/356/49 179/358/49 181/359/49 182/357/49
f 179/358/50 177/354/50 180/355/50 181/359/50
f 183/360/51 184/361/51 187/362/51 188/363/51
f 184/361/52 185/350/52 186/353/52 187/362/52
f 3/364/3 192/365/3 188/366/3 178/367/3 133/368/3
f 188/366/3 187/369/3 179/370/3 178/367/3
f 187/369/3 186/244/3 177/247/3 179/370/3
f 190/371/53 183/360/53 188/363/53 192/372/53
f 191/373/5 196/374/5 195/375/5 189/376/5
f 154/377/54 194/378/54 193/379/54 152/380/54
f 190/371/55 192/372/55 196/374/55 191/373/55
f 196/381/3 99/194/3 97/193/3 195/382/3
f 192/383/56 3/197/56 98/196/56 99/194/56 196/381/56
f 206/384/2 204/385/2 203/386/2 205/387/2
f 224/388/2 223/389/2 204/385/2 206/384/2
f 219/390/2 206/384/2 205/387/2 218/391/2
f 220/392/1 209/393/1 211/394/1 222/395/1
f 204/396/3 207/397/3 208/398/3 203/399/3
f 205/400/4 203/401/4 208/402/4 209/403/4
f 223/404/3 225/405/3 207/397/3 204/396/3
f 218/406/4 205/400/4 209/403/4 220/407/4
f 229/408/2 226/409/2 210/410/2 221/411/2
f 249/412/5 207/413/5 212/414/5 250/415/5
f 224/416/6 206/417/6 210/418/6 226/419/6
f 206/420/5 219/421/5 221/422/5 210/423/5
f 228/424/2 229/408/2 221/411/2 216/425/2
f 213/426/4 218/406/4 220/407/4 215/427/4
f 214/428/2 219/390/2 218/391/2 213/429/2
f 278/430/3 9/431/3 249/432/3 269/433/3
f 207/434/1 225/435/1 227/436/1 212/437/1
f 243/438/2 244/439/2 229/408/2 228/424/2
f 244/439/2 246/440/2 242/441/2 226/409/2 229/408/2
f 197/442/3 199/443/3 225/405/3 223/404/3
f 198/444/2 197/445/2 223/389/2 224/388/2
f 239/446/2 235/447/2 219/448/2 214/449/2
f 232/450/2 236/451/2 235/447/2 239/446/2
f 237/452/7 239/453/7 214/454/7 216/455/7
f 198/456/2 224/457/2 241/458/2 231/459/2 245/460/2
f 236/461/8 241/462/8 238/463/8 240/464/8
f 230/465/57 246/466/57 245/467/57 231/468/57
f 231/459/2 241/458/2 236/451/2 232/450/2
f 233/469/10 230/465/10 231/468/10 232/470/10
f 235/471/11 234/472/11 221/422/11 219/421/11
f 236/461/12 240/464/12 234/472/12 235/471/12
f 233/469/13 232/470/13 239/453/13 237/452/13
f 241/462/14 224/416/14 226/419/14 238/463/14
f 282/473/3 93/93/3 14/92/3 251/474/3
f 255/475/4 256/476/4 13/96/4 12/95/4
f 263/477/4 215/478/4 220/479/4 259/480/4
f 251/474/3 14/92/3 11/103/3 250/481/3
f 256/476/4 254/482/4 10/104/4 13/96/4
f 249/483/3 9/109/3 7/108/3 252/484/3
f 253/485/4 252/486/4 7/112/4 8/111/4
f 200/487/58 246/488/58 245/489/58 198/490/58
f 244/491/4 243/492/4 247/493/4 248/494/4
f 201/495/2 198/496/2 245/497/2 248/498/2
f 202/499/2 201/495/2 248/498/2 247/500/2
f 246/501/59 244/491/59 248/494/59 245/502/59
f 209/403/4 208/402/4 252/486/4 253/485/4
f 207/397/3 249/483/3 252/484/3 208/398/3
f 222/503/4 211/504/4 254/482/4 256/476/4
f 227/505/3 251/474/3 250/481/3 212/506/3
f 209/507/6 253/508/6 254/509/6 211/510/6
f 217/511/4 222/503/4 256/476/4 255/475/4
f 281/512/3 282/473/3 251/474/3 227/505/3
f 259/513/60 220/392/60 222/395/60 268/514/60
f 260/515/61 217/516/61 215/517/61 263/518/61
f 10/146/62 262/519/62 265/520/62 8/147/62
f 262/519/63 261/521/63 264/522/63 265/520/63
f 261/521/64 260/515/64 263/518/64 264/522/64
f 253/508/65 257/523/65 266/524/65 254/509/65
f 257/523/66 258/525/66 267/526/66 266/524/66
f 258/525/67 259/513/67 268/514/67 267/526/67
f 8/527/4 265/528/4 257/529/4 253/530/4
f 265/528/4 264/531/4 258/532/4 257/529/4
f 264/531/4 263/477/4 259/480/4 258/532/4
f 277/533/68 11/165/68 9/164/68 278/534/68
f 269/535/69 249/412/69 250/415/69 272/536/69
f 225/435/70 270/537/70 274/538/70 227/436/70
f 270/537/71 271/539/71 273/540/71 274/538/71
f 271/539/72 269/535/72 272/536/72 273/540/72
f 275/541/73 276/542/73 279/543/73 280/544/73
f 276/542/74 277/533/74 278/534/74 279/543/74
f 199/545/3 283/546/3 280/547/3 270/548/3 225/549/3
f 280/547/3 279/550/3 271/551/3 270/548/3
f 279/550/3 278/430/3 269/433/3 271/551/3
f 281/552/75 275/541/75 280/544/75 283/553/75
f 282/554/4 288/555/4 101/187/4 93/186/4
f 246/556/76 287/557/76 286/558/76 244/559/76
f 281/552/77 283/553/77 288/555/77 282/554/77
f 288/560/3 285/561/3 97/193/3 101/192/3
f 283/562/78 199/563/78 284/564/78 285/561/78 288/560/78
f 292/565/2 291/566/2 289/567/2 290/568/2
f 310/569/2 292/565/2 290/568/2 309/570/2
f 305/571/2 304/572/2 291/566/2 292/565/2
f 306/573/1 308/574/1 297/575/1 295/576/1
f 290/577/3 289/578/3 294/579/3 293/580/3
f 291/581/5 295/582/5 294/583/5 289/584/5
f 309/585/3 290/577/3 293/580/3 311/586/3
f 304/587/5 306/588/5 295/582/5 291/581/5
f 315/589/2 307/590/2 296/591/2 312/592/2
f 335/593/4 336/594/4 298/595/4 293/596/4
f 310/597/6 312/598/6 296/599/6 292/600/6
f 292/601/4 296/602/4 307/603/4 305/604/4
f 314/605/2 302/606/2 307/590/2 315/589/2
f 299/607/5 301/608/5 306/588/5 304/587/5
f 300/609/2 299/610/2 304/572/2 305/571/2
f 364/611/3 355/612/3 335/613/3 105/614/3
f 293/615/1 298/616/1 313/617/1 311/618/1
f 329/619/2 314/605/2 315/589/2 330/620/2
f 330/620/2 315/589/2 312/592/2 328/621/2 332/622/2
f 197/442/3 309/585/3 311/586/3 199/443/3
f 198/444/2 310/569/2 309/570/2 197/445/2
f 325/623/2 300/624/2 305/625/2 321/626/2
f 318/627/2 325/623/2 321/626/2 322/628/2
f 323/629/36 302/630/36 300/631/36 325/632/36
f 198/633/2 331/634/2 317/635/2 327/636/2 310/637/2
f 322/638/37 326/639/37 324/640/37 327/641/37
f 316/642/79 317/643/79 331/644/79 332/645/79
f 317/635/2 318/627/2 322/628/2 327/636/2
f 319/646/39 318/647/39 317/643/39 316/642/39
f 321/648/40 305/604/40 307/603/40 320/649/40
f 322/638/41 321/648/41 320/649/41 326/639/41
f 319/646/42 323/629/42 325/632/42 318/647/42
f 327/641/43 324/640/43 312/598/43 310/597/43
f 368/650/3 337/651/3 110/285/3 189/284/3
f 341/652/5 108/290/5 109/289/5 342/653/5
f 349/654/5 345/655/5 306/656/5 301/657/5
f 337/651/3 336/658/3 107/295/3 110/285/3
f 342/653/5 109/289/5 106/298/5 340/659/5
f 335/660/3 338/661/3 103/301/3 105/300/3
f 339/662/5 104/306/5 103/305/5 338/663/5
f 200/487/80 198/490/80 331/664/80 332/665/80
f 330/666/5 334/667/5 333/668/5 329/669/5
f 201/495/2 334/670/2 331/671/2 198/496/2
f 202/499/2 333/672/2 334/670/2 201/495/2
f 332/673/81 331/674/81 334/667/81 330/666/81
f 295/582/5 339/662/5 338/663/5 294/583/5
f 293/580/3 294/579/3 338/661/3 335/660/3
f 308/675/5 342/653/5 340/659/5 297/676/5
f 313/677/3 298/678/3 336/658/3 337/651/3
f 295/679/6 297/680/6 340/681/6 339/682/6
f 303/683/5 341/652/5 342/653/5 308/675/5
f 367/684/3 313/677/3 337/651/3 368/650/3
f 345/685/60 354/686/60 308/574/60 306/573/60
f 346/687/61 349/688/61 301/689/61 303/690/61
f 106/334/62 104/337/62 351/691/62 348/692/62
f 348/692/63 351/691/63 350/693/63 347/694/63
f 347/694/64 350/693/64 349/688/64 346/687/64
f 339/682/65 340/681/65 352/695/65 343/696/65
f 343/696/66 352/695/66 353/697/66 344/698/66
f 344/698/67 353/697/67 354/686/67 345/685/67
f 104/699/5 339/700/5 343/701/5 351/702/5
f 351/702/5 343/701/5 344/703/5 350/704/5
f 350/704/5 344/703/5 345/655/5 349/654/5
f 363/705/82 364/706/82 105/352/82 107/351/82
f 355/707/83 358/708/83 336/594/83 335/593/83
f 311/618/84 313/617/84 360/709/84 356/710/84
f 356/710/85 360/709/85 359/711/85 357/712/85
f 357/712/86 359/711/86 358/708/86 355/707/86
f 361/713/87 366/714/87 365/715/87 362/716/87
f 362/716/88 365/715/88 364/706/88 363/705/88
f 199/717/3 311/718/3 356/719/3 366/720/3 369/721/3
f 366/720/3 356/719/3 357/722/3 365/723/3
f 365/723/3 357/722/3 355/612/3 364/611/3
f 367/724/89 369/725/89 366/714/89 361/713/89
f 368/726/5 189/376/5 195/375/5 372/727/5
f 332/728/90 330/729/90 370/730/90 371/731/90
f 367/724/91 368/726/91 372/727/91 369/725/91
f 372/732/3 195/382/3 97/193/3 285/561/3
f 369/733/92 372/732/92 285/561/92 284/564/92 199/563/92
f 388/734/1 386/735/1 385/736/1 387/737/1
f 401/738/1 400/739/1 386/735/1 388/734/1
f 396/740/1 388/734/1 387/737/1 395/741/1
f 397/742/2 391/743/2 393/744/2 399/745/2
f 386/746/6 389/747/6 390/748/6 385/749/6
f 387/750/4 385/751/4 390/752/4 391/753/4
f 400/754/6 402/755/6 389/747/6 386/746/6
f 395/756/4 387/750/4 391/753/4 397/757/4
f 405/758/1 403/759/1 392/760/1 398/761/1
f 423/762/5 389/763/5 394/764/5 424/765/5
f 401/766/3 388/767/3 392/768/3 403/769/3
f 388/770/5 396/771/5 398/772/5 392/773/5
f 40/41/1 405/758/1 398/761/1 28/42/1
f 25/43/4 395/756/4 397/757/4 27/44/4
f 26/45/1 396/740/1 395/741/1 25/46/1
f 451/774/6 380/775/6 423/776/6 442/777/6
f 389/778/2 402/779/2 404/780/2 394/781/2
f 55/55/1 419/782/1 405/758/1 40/41/1
f 419/782/1 421/783/1 418/784/1 403/759/1 405/758/1
f 373/785/6 375/786/6 402/755/6 400/754/6
f 374/787/1 373/788/1 400/739/1 401/738/1
f 415/789/1 411/790/1 396/791/1 26/792/1
f 408/793/1 412/794/1 411/790/1 415/789/1
f 413/795/93 415/796/93 26/71/93 28/70/93
f 374/797/1 401/798/1 417/799/1 407/800/1 420/801/1
f 412/802/94 417/803/94 414/804/94 416/805/94
f 406/806/95 421/807/95 420/808/95 407/809/95
f 407/800/1 417/799/1 412/794/1 408/793/1
f 409/810/96 406/806/96 407/809/96 408/811/96
f 411/812/97 410/813/97 398/772/97 396/771/97
f 412/802/98 416/805/98 410/813/98 411/812/98
f 409/810/99 408/811/99 415/796/99 413/795/99
f 417/803/100 401/766/100 403/769/100 414/804/100
f 456/814/6 454/815/6 384/816/6 425/817/6
f 67/94/4 429/818/4 383/819/4 12/95/4
f 436/820/4 27/821/4 397/822/4 432/823/4
f 425/817/6 384/816/6 382/824/6 424/825/6
f 429/818/4 428/826/4 381/827/4 383/819/4
f 423/828/6 380/829/6 378/830/6 426/831/6
f 427/832/4 426/833/4 378/834/4 379/835/4
f 376/836/101 421/837/101 420/838/101 374/839/101
f 419/840/4 55/121/4 59/120/4 422/841/4
f 377/842/1 374/843/1 420/844/1 422/845/1
f 6/126/1 377/842/1 422/845/1 59/127/1
f 421/846/102 419/840/102 422/841/102 420/847/102
f 391/753/4 390/752/4 426/833/4 427/832/4
f 389/747/6 423/828/6 426/831/6 390/748/6
f 399/848/4 393/849/4 428/826/4 429/818/4
f 404/850/6 425/817/6 424/825/6 394/851/6
f 391/852/3 427/853/3 428/854/3 393/855/3
f 29/138/4 399/848/4 429/818/4 67/94/4
f 455/856/6 456/814/6 425/817/6 404/850/6
f 432/857/103 397/742/103 399/745/103 441/858/103
f 433/859/104 29/145/104 27/144/104 436/860/104
f 381/861/105 435/862/105 438/863/105 379/864/105
f 435/862/106 434/865/106 437/866/106 438/863/106
f 434/865/107 433/859/107 436/860/107 437/866/107
f 427/853/108 430/867/108 439/868/108 428/854/108
f 430/867/109 431/869/109 440/870/109 439/868/109
f 431/869/110 432/857/110 441/858/110 440/870/110
f 379/871/4 438/872/4 430/873/4 427/874/4
f 438/872/4 437/875/4 431/876/4 430/873/4
f 437/875/4 436/820/4 432/823/4 431/876/4
f 450/877/25 382/878/25 380/879/25 451/880/25
f 442/881/26 423/762/26 424/765/26 445/882/26
f 402/779/27 443/883/27 447/884/27 404/780/27
f 443/883/28 444/885/28 446/886/28 447/884/28
f 444/885/29 442/881/29 445/882/29 446/886/29
f 448/887/30 449/888/30 452/889/30 453/890/30
f 449/888/31 450/877/31 451/880/31 452/889/31
f 375/891/6 457/892/6 453/893/6 443/894/6 402/895/6
f 453/893/6 452/896/6 444/897/6 443/894/6
f 452/896/6 451/774/6 442/777/6 444/897/6
f 455/898/32 448/887/32 453/890/32 457/899/32
f 456/900/4 463/901/4 462/902/4 454/903/4
f 421/783/111 418/784/111 461/904/111 419/905/111
f 455/906/34 457/907/34 463/901/34 456/900/34
f 463/908/6 460/909/6 458/910/6 462/911/6
f 457/912/112 375/913/112 459/914/112 460/909/112 463/908/112
f 474/915/1 473/916/1 471/917/1 472/918/1
f 487/919/1 474/915/1 472/918/1 486/920/1
f 482/921/1 481/922/1 473/916/1 474/915/1
f 483/923/2 485/924/2 479/925/2 477/926/2
f 472/927/6 471/928/6 476/929/6 475/930/6
f 473/931/5 477/932/5 476/933/5 471/934/5
f 486/935/6 472/927/6 475/930/6 488/936/6
f 481/937/5 483/938/5 477/932/5 473/931/5
f 491/939/1 484/940/1 478/941/1 489/942/1
f 509/943/4 510/944/4 480/945/4 475/946/4
f 487/947/3 489/948/3 478/949/3 474/950/3
f 474/951/4 478/952/4 484/953/4 482/954/4
f 136/238/1 124/239/1 484/940/1 491/939/1
f 121/240/5 123/241/5 483/938/5 481/937/5
f 122/242/1 121/243/1 481/922/1 482/921/1
f 537/955/6 528/956/6 509/957/6 466/958/6
f 475/959/2 480/960/2 490/961/2 488/962/2
f 151/252/1 136/238/1 491/939/1 505/963/1
f 505/963/1 491/939/1 489/942/1 504/964/1 507/965/1
f 373/785/6 486/935/6 488/936/6 375/786/6
f 374/787/1 487/919/1 486/920/1 373/788/1
f 501/966/1 122/967/1 482/968/1 497/969/1
f 494/970/1 501/966/1 497/969/1 498/971/1
f 499/972/113 124/265/113 122/264/113 501/973/113
f 374/974/1 506/975/1 493/976/1 503/977/1 487/978/1
f 498/979/114 502/980/114 500/981/114 503/982/114
f 492/983/115 493/984/115 506/985/115 507/986/115
f 493/976/1 494/970/1 498/971/1 503/977/1
f 495/987/116 494/988/116 493/984/116 492/983/116
f 497/989/117 482/954/117 484/953/117 496/990/117
f 498/979/118 497/989/118 496/990/118 502/980/118
f 495/987/119 499/972/119 501/973/119 494/988/119
f 503/982/120 500/981/120 489/948/120 487/947/120
f 542/991/6 511/992/6 470/993/6 540/994/6
f 163/287/5 108/290/5 469/995/5 515/996/5
f 522/997/5 518/998/5 483/999/5 123/1000/5
f 511/992/6 510/1001/6 468/1002/6 470/993/6
f 515/996/5 469/995/5 467/1003/5 514/1004/5
f 509/1005/6 512/1006/6 464/1007/6 466/1008/6
f 513/1009/5 465/1010/5 464/1011/5 512/1012/5
f 376/836/121 374/839/121 506/1013/121 507/1014/121
f 505/1015/5 508/1016/5 155/311/5 151/310/5
f 377/842/1 508/1017/1 506/1018/1 374/843/1
f 6/126/1 155/315/1 508/1017/1 377/842/1
f 507/1019/122 506/1020/122 508/1016/122 505/1015/122
f 477/932/5 513/1009/5 512/1012/5 476/933/5
f 475/930/6 476/929/6 512/1006/6 509/1005/6
f 485/1021/5 515/996/5 514/1004/5 479/1022/5
f 490/1023/6 480/1024/6 510/1001/6 511/992/6
f 477/1025/3 479/1026/3 514/1027/3 513/1028/3
f 125/326/5 163/287/5 515/996/5 485/1021/5
f 541/1029/6 490/1023/6 511/992/6 542/991/6
f 518/1030/103 527/1031/103 485/924/103 483/923/103
f 519/1032/104 522/1033/104 123/332/104 125/331/104
f 467/1034/105 465/1035/105 524/1036/105 521/1037/105
f 521/1037/106 524/1036/106 523/1038/106 520/1039/106
f 520/1039/107 523/1038/107 522/1033/107 519/1032/107
f 513/1028/108 514/1027/108 525/1040/108 516/1041/108
f 516/1041/109 525/1040/109 526/1042/109 517/1043/109
f 517/1043/110 526/1042/110 527/1031/110 518/1030/110
f 465/1044/5 513/1045/5 516/1046/5 524/1047/5
f 524/1047/5 516/1046/5 517/1048/5 523/1049/5
f 523/1049/5 517/1048/5 518/998/5 522/997/5
f 536/1050/46 537/1051/46 466/1052/46 468/1053/46
f 528/1054/47 531/1055/47 510/944/47 509/943/47
f 488/962/48 490/961/48 533/1056/48 529/1057/48
f 529/1057/49 533/1056/49 532/1058/49 530/1059/49
f 530/1059/50 532/1058/50 531/1055/50 528/1054/50
f 534/1060/51 539/1061/51 538/1062/51 535/1063/51
f 535/1063/52 538/1062/52 537/1051/52 536/1050/52
f 375/1064/6 488/1065/6 529/1066/6 539/1067/6 543/1068/6
f 539/1067/6 529/1066/6 530/1069/6 538/1070/6
f 538/1070/6 530/1069/6 528/956/6 537/955/6
f 541/1071/53 543/1072/53 539/1061/53 534/1060/53
f 542/1073/5 540/1074/5 546/1075/5 547/1076/5
f 507/1077/123 505/1078/123 544/1079/123 545/1080/123
f 541/1081/55 542/1073/55 547/1076/55 543/1082/55
f 547/1083/6 546/1084/6 458/910/6 460/909/6
f 543/1085/124 547/1083/124 460/909/124 459/914/124 375/913/124
f 556/1086/2 555/1087/2 553/1088/2 554/1089/2
f 569/1090/2 556/1086/2 554/1089/2 568/1091/2
f 564/1092/2 563/1093/2 555/1087/2 556/1086/2
f 565/1094/1 567/1095/1 561/1096/1 559/1097/1
f 554/1098/6 553/1099/6 558/1100/6 557/1101/6
f 555/1102/4 559/1103/4 558/1104/4 553/1105/4
f 568/1106/6 554/1098/6 557/1101/6 570/1107/6
f 563/1108/4 565/1109/4 559/1103/4 555/1102/4
f 573/1110/2 566/1111/2 560/1112/2 571/1113/2
f 591/1114/5 592/1115/5 562/1116/5 557/1117/5
f 569/1118/3 571/1119/3 560/1120/3 556/1121/3
f 556/1122/5 560/1123/5 566/1124/5 564/1125/5
f 228/424/2 216/425/2 566/1111/2 573/1110/2
f 213/426/4 215/427/4 565/1109/4 563/1108/4
f 214/428/2 213/429/2 563/1093/2 564/1092/2
f 619/1126/6 610/1127/6 591/1128/6 380/1129/6
f 557/1130/1 562/1131/1 572/1132/1 570/1133/1
f 243/438/2 228/424/2 573/1110/2 587/1134/2
f 587/1134/2 573/1110/2 571/1113/2 586/1135/2 589/1136/2
f 548/1137/6 568/1106/6 570/1107/6 550/1138/6
f 549/1139/2 569/1090/2 568/1091/2 548/1140/2
f 583/1141/2 214/1142/2 564/1143/2 579/1144/2
f 576/1145/2 583/1141/2 579/1144/2 580/1146/2
f 581/1147/93 216/455/93 214/454/93 583/1148/93
f 549/1149/2 588/1150/2 575/1151/2 585/1152/2 569/1153/2
f 580/1154/94 584/1155/94 582/1156/94 585/1157/94
f 574/1158/125 575/1159/125 588/1160/125 589/1161/125
f 575/1151/2 576/1145/2 580/1146/2 585/1152/2
f 577/1162/96 576/1163/96 575/1159/96 574/1158/96
f 579/1164/97 564/1125/97 566/1124/97 578/1165/97
f 580/1154/98 579/1164/98 578/1165/98 584/1155/98
f 577/1162/99 581/1147/99 583/1148/99 576/1163/99
f 585/1157/100 582/1156/100 571/1119/100 569/1118/100
f 623/1166/6 593/1167/6 384/816/6 454/815/6
f 255/475/4 12/95/4 383/819/4 597/1168/4
f 604/1169/4 600/1170/4 565/1171/4 215/1172/4
f 593/1167/6 592/1173/6 382/824/6 384/816/6
f 597/1168/4 383/819/4 381/827/4 596/1174/4
f 591/1175/6 594/1176/6 378/830/6 380/829/6
f 595/1177/4 379/835/4 378/834/4 594/1178/4
f 551/1179/126 549/1180/126 588/1181/126 589/1182/126
f 587/1183/4 590/1184/4 247/493/4 243/492/4
f 552/1185/2 590/1186/2 588/1187/2 549/1188/2
f 202/499/2 247/500/2 590/1186/2 552/1185/2
f 589/1189/127 588/1190/127 590/1184/127 587/1183/127
f 559/1103/4 595/1177/4 594/1178/4 558/1104/4
f 557/1101/6 558/1100/6 594/1176/6 591/1175/6
f 567/1191/4 597/1168/4 596/1174/4 561/1192/4
f 572/1193/6 562/1194/6 592/1173/6 593/1167/6
f 559/1195/3 561/1196/3 596/1197/3 595/1198/3
f 217/511/4 255/475/4 597/1168/4 567/1191/4
f 622/1199/6 572/1193/6 593/1167/6 623/1166/6
f 600/1200/128 609/1201/128 567/1095/128 565/1094/128
f 601/1202/129 604/1203/129 215/517/129 217/516/129
f 381/861/130 379/864/130 606/1204/130 603/1205/130
f 603/1205/131 606/1204/131 605/1206/131 602/1207/131
f 602/1207/132 605/1206/132 604/1203/132 601/1202/132
f 595/1198/133 596/1197/133 607/1208/133 598/1209/133
f 598/1209/134 607/1208/134 608/1210/134 599/1211/134
f 599/1211/135 608/1210/135 609/1201/135 600/1200/135
f 379/1212/4 595/1213/4 598/1214/4 606/1215/4
f 606/1215/4 598/1214/4 599/1216/4 605/1217/4
f 605/1217/4 599/1216/4 600/1170/4 604/1169/4
f 618/1218/68 619/1219/68 380/879/68 382/878/68
f 610/1220/69 613/1221/69 592/1115/69 591/1114/69
f 570/1133/70 572/1132/70 615/1222/70 611/1223/70
f 611/1223/71 615/1222/71 614/1224/71 612/1225/71
f 612/1225/72 614/1224/72 613/1221/72 610/1220/72
f 616/1226/73 621/1227/73 620/1228/73 617/1229/73
f 617/1229/74 620/1228/74 619/1219/74 618/1218/74
f 550/1230/6 570/1231/6 611/1232/6 621/1233/6 624/1234/6
f 621/1233/6 611/1232/6 612/1235/6 620/1236/6
f 620/1236/6 612/1235/6 610/1127/6 619/1126/6
f 622/1237/75 624/1238/75 621/1227/75 616/1226/75
f 623/1239/4 454/903/4 462/902/4 629/1240/4
f 589/1241/136 587/1242/136 627/1243/136 628/1244/136
f 622/1245/77 623/1239/77 629/1240/77 624/1246/77
f 629/1247/6 462/911/6 458/910/6 626/1248/6
f 624/1249/137 629/1247/137 626/1248/137 625/1250/137 550/1251/137
f 633/1252/2 631/1253/2 630/1254/2 632/1255/2
f 646/1256/2 645/1257/2 631/1253/2 633/1252/2
f 641/1258/2 633/1252/2 632/1255/2 640/1259/2
f 642/1260/1 636/1261/1 638/1262/1 644/1263/1
f 631/1264/6 634/1265/6 635/1266/6 630/1267/6
f 632/1268/5 630/1269/5 635/1270/5 636/1271/5
f 645/1272/6 647/1273/6 634/1265/6 631/1264/6
f 640/1274/5 632/1268/5 636/1271/5 642/1275/5
f 650/1276/2 648/1277/2 637/1278/2 643/1279/2
f 668/1280/4 634/1281/4 639/1282/4 669/1283/4
f 646/1284/3 633/1285/3 637/1286/3 648/1287/3
f 633/1288/4 641/1289/4 643/1290/4 637/1291/4
f 314/605/2 650/1276/2 643/1279/2 302/606/2
f 299/607/5 640/1274/5 642/1275/5 301/608/5
f 300/609/2 641/1258/2 640/1259/2 299/610/2
f 696/1292/6 466/1293/6 668/1294/6 687/1295/6
f 634/1296/1 647/1297/1 649/1298/1 639/1299/1
f 329/619/2 664/1300/2 650/1276/2 314/605/2
f 664/1300/2 666/1301/2 663/1302/2 648/1277/2 650/1276/2
f 548/1137/6 550/1138/6 647/1273/6 645/1272/6
f 549/1139/2 548/1140/2 645/1257/2 646/1256/2
f 660/1303/2 656/1304/2 641/1305/2 300/1306/2
f 653/1307/2 657/1308/2 656/1304/2 660/1303/2
f 658/1309/113 660/1310/113 300/631/113 302/630/113
f 549/1311/2 646/1312/2 662/1313/2 652/1314/2 665/1315/2
f 657/1316/114 662/1317/114 659/1318/114 661/1319/114
f 651/1320/138 666/1321/138 665/1322/138 652/1323/138
f 652/1314/2 662/1313/2 657/1308/2 653/1307/2
f 654/1324/116 651/1320/116 652/1323/116 653/1325/116
f 656/1326/117 655/1327/117 643/1290/117 641/1289/117
f 657/1316/118 661/1319/118 655/1327/118 656/1326/118
f 654/1324/119 653/1325/119 660/1310/119 658/1309/119
f 662/1317/120 646/1284/120 648/1287/120 659/1318/120
f 700/1328/6 540/994/6 470/993/6 670/1329/6
f 341/652/5 674/1330/5 469/995/5 108/290/5
f 681/1331/5 301/1332/5 642/1333/5 677/1334/5
f 670/1329/6 470/993/6 468/1002/6 669/1335/6
f 674/1330/5 673/1336/5 467/1003/5 469/995/5
f 668/1337/6 466/1008/6 464/1007/6 671/1338/6
f 672/1339/5 671/1340/5 464/1011/5 465/1010/5
f 551/1179/139 666/1341/139 665/1342/139 549/1180/139
f 664/1343/5 329/669/5 333/668/5 667/1344/5
f 552/1185/2 549/1188/2 665/1345/2 667/1346/2
f 202/499/2 552/1185/2 667/1346/2 333/672/2
f 666/1347/140 664/1343/140 667/1344/140 665/1348/140
f 636/1271/5 635/1270/5 671/1340/5 672/1339/5
f 634/1265/6 668/1337/6 671/1338/6 635/1266/6
f 644/1349/5 638/1350/5 673/1336/5 674/1330/5
f 649/1351/6 670/1329/6 669/1335/6 639/1352/6
f 636/1353/3 672/1354/3 673/1355/3 638/1356/3
f 303/683/5 644/1349/5 674/1330/5 341/652/5
f 699/1357/6 700/1328/6 670/1329/6 649/1351/6
f 677/1358/128 642/1260/128 644/1263/128 686/1359/128
f 678/1360/129 303/690/129 301/689/129 681/1361/129
f 467/1034/130 680/1362/130 683/1363/130 465/1035/130
f 680/1362/131 679/1364/131 682/1365/131 683/1363/131
f 679/1364/132 678/1360/132 681/1361/132 682/1365/132
f 672/1354/133 675/1366/133 684/1367/133 673/1355/133
f 675/1366/134 676/1368/134 685/1369/134 684/1367/134
f 676/1368/135 677/1358/135 686/1359/135 685/1369/135
f 465/1370/5 683/1371/5 675/1372/5 672/1373/5
f 683/1371/5 682/1374/5 676/1375/5 675/1372/5
f 682/1374/5 681/1331/5 677/1334/5 676/1375/5
f 695/1376/82 468/1053/82 466/1052/82 696/1377/82
f 687/1378/83 668/1280/83 669/1283/83 690/1379/83
f 647/1297/84 688/1380/84 692/1381/84 649/1298/84
f 688/1380/85 689/1382/85 691/1383/85 692/1381/85
f 689/1382/86 687/1378/86 690/1379/86 691/1383/86
f 693/1384/87 694/1385/87 697/1386/87 698/1387/87
f 694/1385/88 695/1376/88 696/1377/88 697/1386/88
f 550/1388/6 701/1389/6 698/1390/6 688/1391/6 647/1392/6
f 698/1390/6 697/1393/6 689/1394/6 688/1391/6
f 697/1393/6 696/1292/6 687/1295/6 689/1394/6
f 699/1395/89 693/1384/89 698/1387/89 701/1396/89
f 700/1397/5 704/1398/5 546/1075/5 540/1074/5
f 666/1399/141 703/1400/141 702/1401/141 664/1402/141
f 699/1403/91 701/1404/91 704/1398/91 700/1397/91
f 704/1405/6 626/1248/6 458/910/6 546/1084/6
f 701/1406/142 550/1251/142 625/1250/142 626/1248/142 704/1405/142
