# Blender 4.3.2
# www.blender.org
mtllib Door.mtl
o Left_Door
v 0.124875 -0.470877 1.453893
v 0.124875 -0.633810 1.392990
v 0.124875 -0.238098 1.504495
v 0.124875 -0.000000 1.521488
v 0.124875 0.238098 1.504495
v 0.124875 0.470877 1.453893
v 0.124875 0.693137 1.370814
v 0.124875 0.899914 1.257113
v 0.124875 1.086589 1.115330
v 0.124875 1.248990 0.948633
v 0.124875 1.383492 0.760744
v 0.124875 1.487088 0.555862
v 0.124875 1.557465 0.338563
v 0.124875 1.593052 0.113701
v 0.124875 -0.501920 1.549741
v 0.124875 -0.738833 1.461185
v 0.124875 -0.253794 1.603679
v 0.124875 -0.000000 1.621793
v 0.124875 0.253794 1.603679
v 0.124875 0.501920 1.549741
v 0.124875 0.738833 1.461185
v 0.124875 0.959241 1.339988
v 0.124875 1.158222 1.188858
v 0.124875 1.331330 1.011171
v 0.124875 1.474699 0.810896
v 0.124875 1.585125 0.592507
v 0.124875 1.660142 0.360883
v 0.124875 1.698074 0.121197
v 0.124875 1.698074 0.000000
v 0.124875 1.593052 0.000000
v 0.124875 -0.738833 0.000000
v 0.124875 -0.633810 0.000000
v 0.124875 1.698074 0.060598
v 0.124875 1.593052 0.056850
v 0.124875 -0.633810 0.056850
v 0.124875 -0.140537 0.056850
v 0.124875 -0.106867 0.000000
v 0.124875 -0.140537 1.513110
v 0.124875 1.060613 0.000000
v 0.124875 1.060613 0.056850
v 0.124875 1.179479 0.000000
v 0.124875 1.179479 0.056850
v 0.124875 0.356965 1.478655
v 0.124875 -0.238098 0.056850
v 0.124875 -0.238098 0.000000
v 0.062891 -0.470877 1.453893
v 0.062891 -0.633810 1.392990
v 0.062891 -0.238098 1.504495
v 0.062891 0.238098 1.504495
v 0.062891 -0.000000 1.521488
v 0.062891 0.693137 1.370814
v 0.062891 0.470877 1.453893
v 0.062891 0.899914 1.257113
v 0.062891 1.086589 1.115330
v 0.062891 1.248990 0.948633
v 0.062891 1.383492 0.760744
v 0.062891 1.487088 0.555862
v 0.062891 1.557465 0.338563
v 0.062891 1.593052 0.113701
v 0.062891 1.593052 0.056850
v 0.062891 -0.633810 0.056850
v 0.062891 -0.238098 0.056850
v 0.062891 1.060613 0.056850
v 0.062891 -0.140537 0.056850
v 0.062891 -0.140537 1.513110
v 0.062891 1.179479 0.056850
v 0.062891 0.356965 1.478655
v 0.124875 1.539298 0.683139
v 0.124875 1.012318 0.186284
v 0.124875 0.385236 1.311711
v 0.124875 0.923948 0.395951
v 0.124875 0.804554 0.637076
v 0.124875 0.673966 0.868061
v 0.124875 0.521336 1.118520
v 0.124875 0.496292 1.299364
v 0.124875 1.135359 0.172986
v 0.124875 0.635010 1.105977
v 0.124875 0.782268 0.873300
v 0.124875 0.923650 0.624110
v 0.124875 1.045317 0.382798
v 0.062891 1.012054 0.186993
v 0.062891 0.386311 1.310302
v 0.062891 0.923818 0.396372
v 0.062891 0.804650 0.637099
v 0.062891 0.674358 0.867615
v 0.062891 0.522066 1.117581
v 0.062891 0.497496 1.297814
v 0.062891 1.135067 0.173755
v 0.062891 0.635828 1.104944
v 0.062891 0.782709 0.872808
v 0.062891 0.923759 0.624131
v 0.062891 1.045174 0.383254
v 0.124875 1.444096 0.640888
v 0.062891 1.444096 0.640888
v 0.062891 1.002120 0.468670
v 0.124875 0.885561 0.473477
v 0.124875 0.999602 0.473468
v 0.124875 1.080312 1.248032
v 0.124875 1.013498 1.170844
v 0.062891 1.013498 1.170844
v 0.062891 0.740695 0.949833
v 0.124875 0.741769 0.938148
v 0.124875 0.634101 0.938145
v 0.124875 1.003638 1.306268
v 0.124875 0.941565 1.225478
v 0.062891 0.941565 1.225478
v 0.062891 0.692621 1.015186
v 0.124875 0.691717 1.016377
v 0.124875 0.584815 1.016389
v 0.124875 -0.738833 0.938147
v 0.062891 -0.238098 0.941355
v 0.062891 0.628549 0.947279
v 0.124875 -0.140537 0.938144
v 0.124875 -0.238098 0.938145
v 0.124875 -0.633810 0.938148
v 0.124875 -0.140537 1.016393
v 0.124875 -0.738833 1.016393
v 0.124875 -0.238098 1.016391
v 0.062891 -0.238098 1.014666
v 0.124875 -0.633810 1.016392
v 0.062891 0.584814 1.013987
v 0.062891 -0.140537 0.940683
v 0.062891 -0.140537 1.015976
v 0.062891 -0.633810 1.014657
v 0.062891 -0.633810 0.941361
v -0.000000 -0.253794 1.603679
v -0.000000 -0.501920 1.549741
v -0.000000 -0.738833 1.461185
v 0.000000 1.698074 0.000000
v 0.000000 1.698074 0.060598
v 0.000000 1.698074 0.121197
v 0.000000 1.080312 1.248032
v 0.000000 1.660142 0.360883
v 0.000000 1.474699 0.810896
v 0.000000 1.331330 1.011171
v 0.000000 1.158222 1.188858
v -0.000000 -0.738833 0.000000
v 0.000000 1.003638 1.306268
v 0.000000 0.959241 1.339988
v -0.000000 -0.738833 1.016393
v -0.000000 -0.738833 0.938147
v 0.000000 1.585125 0.592507
v 0.000000 1.539298 0.683139
v 0.000000 0.738832 1.461185
v 0.000000 0.501919 1.549741
v 0.000000 0.253794 1.603679
v -0.000000 -0.000000 1.621793
v 0.124875 -0.029718 0.056850
v 0.124875 -0.028101 0.000000
v 0.062891 -0.029718 0.056850
v 0.124875 0.556139 0.784846
v 0.124875 -0.018054 0.140663
v 0.124875 0.477063 0.653088
v 0.124875 0.368707 0.508895
v 0.124875 0.241677 0.366381
v 0.124875 0.108408 0.239497
v 0.124875 0.055132 0.112856
v 0.124875 0.628966 0.757032
v 0.124875 0.183668 0.210688
v 0.124875 0.317985 0.337044
v 0.124875 0.444935 0.479556
v 0.124875 0.552092 0.624274
v 0.062891 -0.018378 0.141980
v 0.062891 0.550102 0.790231
v 0.062891 0.107057 0.241731
v 0.062891 0.239121 0.369570
v 0.062891 0.364887 0.512984
v 0.062891 0.472044 0.657934
v 0.062891 0.630883 0.759439
v 0.062891 0.058369 0.115119
v 0.062891 0.554182 0.626625
v 0.062891 0.447270 0.481860
v 0.062891 0.320611 0.339316
v 0.062891 0.186605 0.212946
v -0.124875 -0.470877 1.453893
v -0.124875 -0.633810 1.392990
v -0.124875 -0.238098 1.504495
v -0.124875 -0.000000 1.521488
v -0.124875 0.238098 1.504495
v -0.124875 0.470877 1.453893
v -0.124875 0.693137 1.370814
v -0.124875 0.899914 1.257113
v -0.124875 1.086589 1.115330
v -0.124875 1.248990 0.948633
v -0.124875 1.383492 0.760744
v -0.124875 1.487088 0.555862
v -0.124875 1.557465 0.338563
v -0.124875 1.593052 0.113701
v -0.124875 -0.501920 1.549741
v -0.124875 -0.738833 1.461185
v -0.124875 -0.253794 1.603679
v -0.124875 -0.000000 1.621793
v -0.124875 0.253794 1.603679
v -0.124875 0.501920 1.549741
v -0.124875 0.738833 1.461185
v -0.124875 0.959241 1.339988
v -0.124875 1.158222 1.188858
v -0.124875 1.331330 1.011171
v -0.124875 1.474699 0.810896
v -0.124875 1.585125 0.592507
v -0.124875 1.660142 0.360883
v -0.124875 1.698074 0.121197
v -0.124875 1.698074 0.000000
v -0.124875 1.593052 0.000000
v -0.124875 -0.738833 0.000000
v -0.124875 -0.633810 0.000000
v -0.124875 1.698074 0.060598
v -0.124875 1.593052 0.056850
v -0.124875 -0.633810 0.056850
v -0.124875 -0.140537 0.056850
v -0.124875 -0.106867 0.000000
v -0.124875 -0.140537 1.513110
v -0.124875 1.060613 0.000000
v -0.124875 1.060613 0.056850
v -0.124875 1.179479 0.000000
v -0.124875 1.179479 0.056850
v -0.124875 0.356965 1.478655
v -0.124875 -0.238098 0.056850
v -0.124875 -0.238098 0.000000
v -0.062891 -0.470877 1.453893
v -0.062891 -0.633810 1.392990
v -0.062891 -0.238098 1.504495
v -0.062891 0.238098 1.504495
v -0.062891 -0.000000 1.521488
v -0.062891 0.693137 1.370814
v -0.062891 0.470877 1.453893
v -0.062891 0.899914 1.257113
v -0.062891 1.086589 1.115330
v -0.062891 1.248990 0.948633
v -0.062891 1.383492 0.760744
v -0.062891 1.487088 0.555862
v -0.062891 1.557465 0.338563
v -0.062891 1.593052 0.113701
v -0.062891 1.593052 0.056850
v -0.062891 -0.633810 0.056850
v -0.062891 -0.238098 0.056850
v -0.062891 1.060613 0.056850
v -0.062891 -0.140537 0.056850
v -0.062891 -0.140537 1.513110
v -0.062891 1.179479 0.056850
v -0.062891 0.356965 1.478655
v -0.124875 1.539298 0.683139
v -0.124875 1.012318 0.186284
v -0.124875 0.385236 1.311711
v -0.124875 0.923948 0.395951
v -0.124875 0.804554 0.637076
v -0.124875 0.673966 0.868061
v -0.124875 0.521336 1.118520
v -0.124875 0.496292 1.299364
v -0.124875 1.135359 0.172986
v -0.124875 0.635010 1.105977
v -0.124875 0.782268 0.873300
v -0.124875 0.923650 0.624110
v -0.124875 1.045317 0.382798
v -0.062891 1.012054 0.186993
v -0.062891 0.386311 1.310302
v -0.062891 0.923818 0.396372
v -0.062891 0.804650 0.637099
v -0.062891 0.674358 0.867615
v -0.062891 0.522066 1.117581
v -0.062891 0.497496 1.297814
v -0.062891 1.135067 0.173755
v -0.062891 0.635828 1.104944
v -0.062891 0.782709 0.872808
v -0.062891 0.923759 0.624131
v -0.062891 1.045174 0.383254
v -0.124875 1.444096 0.640888
v -0.062891 1.444096 0.640888
v -0.062891 1.002120 0.468670
v -0.124875 0.885561 0.473477
v -0.124875 0.999602 0.473468
v -0.124875 1.080312 1.248032
v -0.124875 1.013498 1.170844
v -0.062891 1.013498 1.170844
v -0.062891 0.740695 0.949833
v -0.124875 0.741769 0.938148
v -0.124875 0.634101 0.938145
v -0.124875 1.003638 1.306268
v -0.124875 0.941565 1.225478
v -0.062891 0.941565 1.225478
v -0.062891 0.692621 1.015186
v -0.124875 0.691717 1.016377
v -0.124875 0.584815 1.016389
v -0.124875 -0.738833 0.938147
v -0.062891 -0.238098 0.941355
v -0.062891 0.628549 0.947279
v -0.124875 -0.140537 0.938144
v -0.124875 -0.238098 0.938145
v -0.124875 -0.633810 0.938148
v -0.124875 -0.140537 1.016393
v -0.124875 -0.738833 1.016393
v -0.124875 -0.238098 1.016391
v -0.062891 -0.238098 1.014666
v -0.124875 -0.633810 1.016392
v -0.062891 0.584814 1.013987
v -0.062891 -0.140537 0.940683
v -0.062891 -0.140537 1.015976
v -0.062891 -0.633810 1.014657
v -0.062891 -0.633810 0.941361
v -0.124875 -0.029718 0.056850
v -0.124875 -0.028101 0.000000
v -0.062891 -0.029718 0.056850
v -0.124875 0.556139 0.784846
v -0.124875 -0.018054 0.140663
v -0.124875 0.477063 0.653088
v -0.124875 0.368707 0.508895
v -0.124875 0.241677 0.366381
v -0.124875 0.108408 0.239497
v -0.124875 0.055132 0.112856
v -0.124875 0.628966 0.757032
v -0.124875 0.183668 0.210688
v -0.124875 0.317985 0.337044
v -0.124875 0.444935 0.479556
v -0.124875 0.552092 0.624274
v -0.062891 -0.018378 0.141980
v -0.062891 0.550102 0.790231
v -0.062891 0.107057 0.241731
v -0.062891 0.239121 0.369570
v -0.062891 0.364887 0.512984
v -0.062891 0.472044 0.657934
v -0.062891 0.630883 0.759439
v -0.062891 0.058369 0.115119
v -0.062891 0.554182 0.626625
v -0.062891 0.447270 0.481860
v -0.062891 0.320611 0.339316
v -0.062891 0.186605 0.212946
vn 1.0000 -0.0000 -0.0000
vn -0.0000 -0.5448 -0.8386
vn -0.0000 -0.4171 -0.9089
vn -0.0000 -0.2820 -0.9594
vn -0.0000 -0.9369 -0.3496
vn -0.0003 -0.9295 -0.3689
vn -0.0003 -0.9293 -0.3692
vn -0.0000 -1.0000 -0.0000
vn -0.0000 1.0000 -0.0000
vn -0.0000 -0.6048 -0.7963
vn -0.0000 -0.7669 -0.6418
vn -0.0000 -0.6624 -0.7492
vn -0.0000 0.7896 0.6136
vn 0.0005 0.8010 0.5986
vn 0.0006 0.8015 0.5980
vn -0.0000 -0.8553 -0.5182
vn -0.0000 -0.8924 -0.4512
vn -0.0000 -0.0000 1.0000
vn -0.0000 -0.9725 -0.2329
vn -0.0000 -0.9513 -0.3081
vn -0.0000 -0.9969 -0.0784
vn -0.0000 0.5678 0.8231
vn -0.0000 0.2820 -0.9594
vn -0.0000 0.8216 -0.5700
vn -0.0000 0.2124 -0.9772
vn -0.0000 -0.0059 -1.0000
vn -0.0000 0.0595 -0.9982
vn -0.0000 -0.2124 -0.9772
vn -0.0000 -0.4751 -0.8799
vn 0.0003 0.9272 0.3747
vn 0.0003 0.9270 0.3750
vn -0.0005 -0.8062 -0.5917
vn -0.0005 -0.8066 -0.5911
vn 0.0007 0.9190 0.3943
vn 0.0018 0.8816 0.4719
vn 0.0213 0.8669 0.4979
vn 0.0216 0.8669 0.4980
vn 0.0409 0.8637 0.5023
vn 0.0016 0.8289 0.5593
vn 0.0016 0.8294 0.5587
vn 0.0041 -0.8356 -0.5494
vn 0.0040 -0.8351 -0.5500
vn 0.0091 -0.8523 -0.5230
vn -0.0018 -0.8705 -0.4921
vn -0.0016 -0.8837 -0.4681
vn -0.0010 -0.9092 -0.4163
vn -0.0010 -0.9093 -0.4161
vn -0.0013 -0.8962 -0.4437
vn 0.0016 0.8929 0.4502
vn -0.0120 -0.6435 0.7653
vn 0.0021 0.8450 0.5347
vn -0.0777 0.6382 -0.7659
vn -0.0434 -0.3574 0.9329
vn -0.0038 0.3643 -0.9313
vn 0.1267 -0.8699 0.4766
vn 0.1264 -0.8694 0.4777
vn 0.1349 -0.8848 0.4459
vn -0.0227 0.0014 0.9997
vn -0.0000 0.1422 0.9898
vn -0.0000 0.2820 0.9594
vn -0.0000 0.4171 0.9089
vn -0.0000 0.8924 0.4512
vn -0.0000 0.9246 0.3808
vn -0.0000 0.5448 0.8386
vn -0.0000 0.6048 0.7963
vn -0.0000 0.6624 0.7492
vn -0.0000 0.7669 0.6418
vn -0.0000 0.8553 0.5182
vn -0.0000 0.9725 0.2329
vn -0.0000 0.9969 0.0784
vn -0.0000 -0.3501 0.9367
vn -0.0000 -0.2820 0.9594
vn -0.0000 -0.1422 0.9898
vn -0.0939 0.0043 -0.9956
vn -0.0279 -0.0000 0.9996
vn -0.0517 -0.0000 -0.9987
vn 0.0100 0.8977 -0.4404
vn 0.0101 0.8996 -0.4366
vn 0.0114 0.9273 -0.3743
vn -0.0008 0.5513 -0.8343
vn 0.0002 0.5801 -0.8145
vn 0.0001 0.5779 -0.8161
vn 0.1091 -0.8271 0.5514
vn 0.1089 -0.8264 0.5525
vn 0.0886 -0.7733 0.6278
vn 0.0885 -0.7729 0.6283
vn 0.0654 -0.7201 0.6908
vn 0.0652 -0.7198 0.6912
vn 0.0422 -0.6562 0.7534
vn 0.0421 -0.6558 0.7537
vn 0.0206 -0.5940 0.8042
vn 0.0205 -0.5937 0.8044
vn 0.0027 0.6482 -0.7614
vn 0.0026 0.6452 -0.7640
vn 0.0048 0.7182 -0.6959
vn 0.0047 0.7160 -0.6981
vn 0.0059 0.7773 -0.6291
vn 0.0059 0.7754 -0.6314
vn 0.0076 0.8371 -0.5469
vn 0.0075 0.8352 -0.5499
vn 0.0102 -0.5682 0.8228
vn -1.0000 -0.0000 -0.0000
vn 0.0003 -0.9293 -0.3692
vn 0.0003 -0.9295 -0.3689
vn -0.0006 0.8015 0.5980
vn -0.0005 0.8010 0.5986
vn -0.0003 0.9272 0.3747
vn -0.0003 0.9270 0.3750
vn 0.0005 -0.8062 -0.5917
vn 0.0005 -0.8066 -0.5911
vn -0.0007 0.9190 0.3943
vn -0.0018 0.8816 0.4719
vn -0.0216 0.8669 0.4980
vn -0.0213 0.8669 0.4979
vn -0.0409 0.8637 0.5023
vn -0.0016 0.8289 0.5593
vn -0.0016 0.8294 0.5587
vn -0.0040 -0.8351 -0.5500
vn -0.0041 -0.8356 -0.5494
vn -0.0091 -0.8523 -0.5230
vn 0.0018 -0.8705 -0.4921
vn 0.0016 -0.8837 -0.4681
vn 0.0013 -0.8962 -0.4437
vn 0.0010 -0.9093 -0.4161
vn 0.0010 -0.9092 -0.4163
vn -0.0016 0.8929 0.4502
vn 0.0120 -0.6435 0.7653
vn -0.0021 0.8450 0.5347
vn 0.0777 0.6382 -0.7659
vn 0.0434 -0.3574 0.9329
vn 0.0038 0.3643 -0.9313
vn -0.1267 -0.8699 0.4766
vn -0.1349 -0.8848 0.4459
vn -0.1264 -0.8694 0.4777
vn 0.0227 0.0014 0.9997
vn 0.0939 0.0043 -0.9956
vn 0.0279 -0.0000 0.9996
vn 0.0517 -0.0000 -0.9987
vn -0.0100 0.8977 -0.4404
vn -0.0114 0.9273 -0.3743
vn -0.0101 0.8996 -0.4366
vn 0.0008 0.5513 -0.8343
vn -0.0001 0.5779 -0.8161
vn -0.0002 0.5801 -0.8145
vn -0.1089 -0.8264 0.5525
vn -0.1091 -0.8271 0.5514
vn -0.0885 -0.7729 0.6283
vn -0.0886 -0.7733 0.6278
vn -0.0652 -0.7198 0.6912
vn -0.0654 -0.7201 0.6908
vn -0.0421 -0.6558 0.7537
vn -0.0422 -0.6562 0.7534
vn -0.0205 -0.5937 0.8044
vn -0.0206 -0.5940 0.8042
vn -0.0026 0.6452 -0.7640
vn -0.0027 0.6482 -0.7614
vn -0.0047 0.7160 -0.6981
vn -0.0048 0.7182 -0.6959
vn -0.0059 0.7754 -0.6314
vn -0.0059 0.7773 -0.6291
vn -0.0075 0.8352 -0.5499
vn -0.0076 0.8371 -0.5469
vn -0.0102 -0.5682 0.8228
vn -0.0000 -0.0000 -1.0000
vt 0.245812 0.758768
vt 0.245812 0.767927
vt 0.163080 0.767927
vt 0.163080 0.758768
vt 0.251148 0.758768
vt 0.251148 0.771087
vt 0.120382 0.721621
vt 0.114665 0.736916
vt 0.105667 0.734002
vt 0.113980 0.711762
vt 0.109915 0.758768
vt 0.100604 0.757295
vt 0.109106 0.767927
vt 0.108319 0.781119
vt 0.098903 0.781119
vt 0.109915 0.803471
vt 0.100604 0.804944
vt 0.112340 0.814629
vt 0.114665 0.825323
vt 0.105667 0.828237
vt 0.122464 0.846187
vt 0.113980 0.850477
vt 0.133138 0.865598
vt 0.125358 0.871168
vt 0.141236 0.876261
vt 0.146447 0.883122
vt 0.139545 0.889847
vt 0.133990 0.882533
vt 0.162096 0.898368
vt 0.156225 0.906097
vt 0.179734 0.910994
vt 0.175026 0.919556
vt 0.190985 0.916683
vt 0.198967 0.920719
vt 0.195527 0.929922
vt 0.187019 0.925621
vt 0.219366 0.927326
vt 0.217271 0.936964
vt 0.240475 0.930666
vt 0.239771 0.940525
vt 0.245812 0.930666
vt 0.251148 0.930666
vt 0.251148 0.940525
vt 0.245460 0.940525
vt 0.251148 0.711762
vt 0.251148 0.721621
vt 0.245812 0.721621
vt 0.163080 0.721621
vt 0.163080 0.711762
vt 0.245812 0.880684
vt 0.251148 0.880684
vt 0.251148 0.891843
vt 0.245812 0.891843
vt 0.416243 0.148105
vt 0.416124 0.170227
vt 0.410307 0.170211
vt 0.410431 0.148029
vt 0.416080 0.192499
vt 0.410261 0.192487
vt 0.336230 0.254863
vt 0.336180 0.241895
vt 0.341998 0.241801
vt 0.342049 0.254841
vt 0.245812 0.778330
vt 0.251148 0.778481
vt 0.608844 0.925067
vt 0.624076 0.883217
vt 0.643934 0.891195
vt 0.655003 0.895107
vt 0.655908 0.933921
vt 0.650572 0.934045
vt 0.629391 0.931197
vt 0.652679 0.695343
vt 0.652679 0.732490
vt 0.569646 0.732490
vt 0.569646 0.695343
vt 0.363776 0.285985
vt 0.364359 0.203194
vt 0.370179 0.203019
vt 0.369595 0.285961
vt 0.375729 0.140132
vt 0.374811 0.093530
vt 0.380626 0.093366
vt 0.381544 0.140044
vt 0.416378 0.143282
vt 0.410555 0.143030
vt 0.233661 0.876150
vt 0.234909 0.887701
vt 0.388104 0.212113
vt 0.388470 0.190269
vt 0.394288 0.190366
vt 0.393922 0.212210
vt 0.416063 0.203431
vt 0.416215 0.224695
vt 0.410397 0.224998
vt 0.410241 0.203441
vt 0.387741 0.233801
vt 0.393559 0.233899
vt 0.387530 0.246407
vt 0.393348 0.246505
vt 0.364534 0.323190
vt 0.370345 0.323039
vt 0.397964 0.205480
vt 0.397995 0.184038
vt 0.403813 0.184046
vt 0.403783 0.205489
vt 0.397933 0.226852
vt 0.403752 0.226860
vt 0.336626 0.357217
vt 0.342445 0.357194
vt 0.397925 0.232189
vt 0.403744 0.232197
vt 0.397870 0.271012
vt 0.403688 0.271021
vt 0.403043 0.160513
vt 0.402935 0.144184
vt 0.408754 0.144146
vt 0.408861 0.160475
vt 0.403190 0.182875
vt 0.409008 0.182836
vt 0.375737 0.153276
vt 0.381560 0.153334
vt 0.375401 0.175663
vt 0.381220 0.175759
vt 0.397936 0.118065
vt 0.397870 0.106403
vt 0.403688 0.106370
vt 0.403755 0.118110
vt 0.375033 0.198433
vt 0.380848 0.198681
vt 0.403877 0.139510
vt 0.398059 0.139498
vt 0.387506 0.114039
vt 0.393319 0.113762
vt 0.394580 0.140570
vt 0.388771 0.140905
vt 0.394985 0.148797
vt 0.389107 0.148074
vt 0.417071 0.246909
vt 0.411269 0.247379
vt 0.380623 0.220775
vt 0.374811 0.220649
vt 0.380780 0.232044
vt 0.374952 0.232037
vt 0.335898 0.170369
vt 0.341717 0.170400
vt 0.341816 0.195257
vt 0.335998 0.195278
vt 0.341916 0.220472
vt 0.336097 0.220536
vt 0.336065 0.212415
vt 0.215213 0.879248
vt 0.213979 0.867855
vt 0.206702 0.874957
vt 0.206701 0.864251
vt 0.191343 0.856646
vt 0.192560 0.867827
vt 0.169168 0.854554
vt 0.169660 0.844387
vt 0.163080 0.850753
vt 0.163080 0.840645
vt 0.146148 0.830060
vt 0.147325 0.840731
vt 0.129171 0.827709
vt 0.128012 0.817283
vt 0.502245 0.807816
vt 0.519265 0.820952
vt 0.537413 0.833878
vt 0.545857 0.839181
vt 0.526193 0.862616
vt 0.523211 0.858716
vt 0.512473 0.839340
vt 0.504605 0.818501
vt 0.386761 0.098219
vt 0.392549 0.097437
vt 0.388615 0.181654
vt 0.394433 0.181751
vt 0.136107 0.869508
vt 0.128523 0.875335
vt 0.538820 0.874302
vt 0.560223 0.849239
vt 0.567350 0.853369
vt 0.590343 0.867210
vt 0.604742 0.874941
vt 0.587506 0.915999
vt 0.576406 0.910020
vt 0.559101 0.896942
vt 0.543852 0.881296
vt 0.417931 0.112769
vt 0.412123 0.112447
vt 0.155736 0.846054
vt 0.155735 0.836019
vt 0.417931 0.256723
vt 0.412185 0.257410
vt 0.386761 0.290989
vt 0.392601 0.291028
vt 0.506928 0.750622
vt 0.553596 0.750750
vt 0.553596 0.818842
vt 0.543887 0.812925
vt 0.525831 0.800132
vt 0.507639 0.786168
vt 0.506105 0.763813
vt 0.155735 0.721621
vt 0.155735 0.711762
vt 0.155735 0.767927
vt 0.155735 0.758768
vt 0.402702 0.108832
vt 0.408520 0.108631
vt 0.343974 0.246213
vt 0.338110 0.246337
vt 0.338310 0.230175
vt 0.344200 0.229761
vt 0.345880 0.157624
vt 0.340058 0.157423
vt 0.340287 0.074663
vt 0.346104 0.074701
vt 0.409311 0.228818
vt 0.403491 0.228694
vt 0.552765 0.696068
vt 0.552765 0.733215
vt 0.506782 0.733215
vt 0.511532 0.711363
vt 0.517250 0.696068
vt 0.370345 0.166055
vt 0.364517 0.165839
vt 0.364263 0.083077
vt 0.370080 0.083083
vt 0.380966 0.300120
vt 0.375148 0.300145
vt 0.718906 0.299015
vt 0.742792 0.299015
vt 0.742792 0.310738
vt 0.718906 0.310738
vt 0.766628 0.299015
vt 0.766628 0.310738
vt 0.790371 0.299015
vt 0.790371 0.310738
vt 0.897288 0.299015
vt 0.906822 0.299015
vt 0.906822 0.310738
vt 0.897288 0.310738
vt 0.598341 0.299016
vt 0.605686 0.299016
vt 0.605686 0.310738
vt 0.598341 0.310738
vt 0.813984 0.299015
vt 0.813984 0.310738
vt 0.819217 0.299015
vt 0.819217 0.310738
vt 0.510273 0.299016
vt 0.510273 0.310738
vt 0.837440 0.299015
vt 0.860727 0.299015
vt 0.860727 0.310738
vt 0.837440 0.310738
vt 0.883849 0.299015
vt 0.883849 0.310738
vt 0.929677 0.299015
vt 0.929677 0.310738
vt 0.828256 0.299015
vt 0.828256 0.310738
vt 0.952457 0.299015
vt 0.952457 0.310738
vt 0.958146 0.299015
vt 0.963835 0.299015
vt 0.963835 0.310738
vt 0.958146 0.310738
vt 0.647441 0.299016
vt 0.671184 0.299016
vt 0.671184 0.310738
vt 0.647441 0.310738
vt 0.695021 0.299016
vt 0.695021 0.310738
vt 0.402702 0.265833
vt 0.408522 0.265957
vt 0.601240 0.847580
vt 0.579811 0.834984
vt 0.590033 0.831075
vt 0.602621 0.824088
vt 0.616379 0.814283
vt 0.629960 0.802622
vt 0.642035 0.790245
vt 0.651421 0.778364
vt 0.657030 0.770189
vt 0.655295 0.872528
vt 0.643157 0.867763
vt 0.623645 0.859149
vt 0.240554 0.786295
vt 0.237944 0.779425
vt 0.570990 0.820814
vt 0.571609 0.748616
vt 0.654579 0.748616
vt 0.646587 0.760084
vt 0.637223 0.771859
vt 0.625222 0.784257
vt 0.611759 0.796063
vt 0.598152 0.806122
vt 0.585733 0.813450
vt 0.336006 0.159123
vt 0.341822 0.159456
vt 0.177471 0.833327
vt 0.180082 0.840163
vt 0.342445 0.067919
vt 0.342385 0.077834
vt 0.336569 0.077428
vt 0.336626 0.067884
vt 0.231370 0.798361
vt 0.228666 0.791296
vt 0.219509 0.810970
vt 0.216755 0.803807
vt 0.206130 0.822888
vt 0.203376 0.815732
vt 0.192545 0.832947
vt 0.189840 0.825903
vt 0.343892 0.260648
vt 0.338037 0.260745
vt 0.343869 0.277589
vt 0.338026 0.277659
vt 0.343887 0.295499
vt 0.338052 0.295576
vt 0.344079 0.312707
vt 0.338250 0.312898
vt 0.344771 0.327609
vt 0.338973 0.328082
vt 0.342294 0.092975
vt 0.336477 0.092591
vt 0.342184 0.110265
vt 0.336367 0.109902
vt 0.342063 0.128165
vt 0.336246 0.127819
vt 0.341939 0.145059
vt 0.336123 0.144722
vt 0.340337 0.342035
vt 0.346104 0.341438
vt 0.296440 0.467892
vt 0.379171 0.467892
vt 0.379171 0.477051
vt 0.296440 0.477051
vt 0.291103 0.467892
vt 0.291103 0.480211
vt 0.421870 0.430745
vt 0.428271 0.420886
vt 0.436584 0.443126
vt 0.427587 0.446040
vt 0.441648 0.466419
vt 0.432337 0.467892
vt 0.443348 0.490243
vt 0.433932 0.490243
vt 0.433146 0.477051
vt 0.441648 0.514068
vt 0.432337 0.512595
vt 0.436584 0.537361
vt 0.427587 0.534447
vt 0.429911 0.523753
vt 0.428271 0.559601
vt 0.419788 0.555311
vt 0.416894 0.580292
vt 0.409114 0.574722
vt 0.401016 0.585385
vt 0.408262 0.591657
vt 0.402707 0.598971
vt 0.395804 0.592247
vt 0.386026 0.615221
vt 0.380156 0.607492
vt 0.367226 0.628680
vt 0.362518 0.620118
vt 0.351266 0.625807
vt 0.355233 0.634744
vt 0.346725 0.639046
vt 0.343285 0.629843
vt 0.324981 0.646088
vt 0.322886 0.636450
vt 0.302481 0.649649
vt 0.301777 0.639790
vt 0.296440 0.639790
vt 0.296792 0.649649
vt 0.291103 0.649649
vt 0.291103 0.639790
vt 0.291103 0.420886
vt 0.379171 0.420886
vt 0.379171 0.430745
vt 0.296440 0.430745
vt 0.291103 0.430745
vt 0.296440 0.589808
vt 0.296440 0.600967
vt 0.291103 0.600967
vt 0.291103 0.589808
vt 0.419746 0.167978
vt 0.413928 0.167923
vt 0.414136 0.145772
vt 0.419954 0.145826
vt 0.414345 0.123498
vt 0.420164 0.123553
vt 0.339512 0.254863
vt 0.333693 0.254841
vt 0.333743 0.241801
vt 0.339562 0.241895
vt 0.296440 0.487454
vt 0.291103 0.487605
vt 0.751313 0.634503
vt 0.730765 0.640633
vt 0.709584 0.643481
vt 0.704249 0.643356
vt 0.705154 0.604543
vt 0.716222 0.600631
vt 0.736080 0.592653
vt 0.707478 0.410839
vt 0.790510 0.410839
vt 0.790510 0.447987
vt 0.707478 0.447987
vt 0.355351 0.120448
vt 0.361164 0.120194
vt 0.364794 0.203147
vt 0.358968 0.203101
vt 0.373051 0.253380
vt 0.378866 0.253468
vt 0.377948 0.300145
vt 0.372133 0.299982
vt 0.419700 0.172887
vt 0.413882 0.172833
vt 0.308591 0.585274
vt 0.307342 0.596825
vt 0.390399 0.212113
vt 0.384581 0.212210
vt 0.384215 0.190366
vt 0.390033 0.190269
vt 0.420267 0.257075
vt 0.414448 0.257168
vt 0.414105 0.235671
vt 0.419926 0.235762
vt 0.390762 0.233801
vt 0.384944 0.233899
vt 0.390974 0.246407
vt 0.385156 0.246505
vt 0.353726 0.083336
vt 0.359540 0.083082
vt 0.401389 0.205480
vt 0.395570 0.205489
vt 0.395540 0.184046
vt 0.401358 0.184038
vt 0.401420 0.226852
vt 0.395601 0.226860
vt 0.339116 0.357217
vt 0.333297 0.357194
vt 0.401428 0.232188
vt 0.395609 0.232197
vt 0.401483 0.271012
vt 0.395665 0.271021
vt 0.400418 0.214075
vt 0.406237 0.214113
vt 0.406130 0.230442
vt 0.400311 0.230404
vt 0.400566 0.191713
vt 0.406384 0.191751
vt 0.373059 0.240235
vt 0.378882 0.240178
vt 0.414448 0.112555
vt 0.420267 0.112610
vt 0.372723 0.217849
vt 0.378542 0.217753
vt 0.401417 0.118065
vt 0.395598 0.118110
vt 0.395665 0.106370
vt 0.401483 0.106403
vt 0.372355 0.195079
vt 0.378170 0.194831
vt 0.401294 0.139498
vt 0.395476 0.139510
vt 0.390997 0.114039
vt 0.389733 0.140905
vt 0.383923 0.140571
vt 0.385185 0.113762
vt 0.389396 0.148074
vt 0.383518 0.148797
vt 0.419570 0.213423
vt 0.413750 0.213393
vt 0.372133 0.172862
vt 0.377945 0.172737
vt 0.372274 0.161474
vt 0.378102 0.161468
vt 0.339844 0.170369
vt 0.339744 0.195278
vt 0.333925 0.195257
vt 0.334025 0.170400
vt 0.339677 0.212415
vt 0.339645 0.220536
vt 0.333826 0.220472
vt 0.328273 0.576979
vt 0.327038 0.588372
vt 0.335551 0.573375
vt 0.335550 0.584081
vt 0.350908 0.565771
vt 0.372592 0.553511
vt 0.373084 0.563679
vt 0.349691 0.576950
vt 0.379171 0.549769
vt 0.379171 0.559877
vt 0.396104 0.539184
vt 0.414240 0.526407
vt 0.413080 0.536833
vt 0.394926 0.549855
vt 0.854421 0.519794
vt 0.852061 0.530480
vt 0.844193 0.551318
vt 0.833456 0.570694
vt 0.830473 0.574594
vt 0.810809 0.551160
vt 0.819253 0.545856
vt 0.837401 0.532930
vt 0.391743 0.098219
vt 0.385954 0.097437
vt 0.384071 0.181751
vt 0.389888 0.181654
vt 0.406144 0.578632
vt 0.413729 0.584460
vt 0.821336 0.589798
vt 0.816305 0.596792
vt 0.801056 0.612438
vt 0.783751 0.625516
vt 0.772651 0.631495
vt 0.755415 0.590437
vt 0.769813 0.582706
vt 0.792807 0.568865
vt 0.799933 0.564735
vt 0.419413 0.203470
vt 0.413592 0.203423
vt 0.386516 0.545143
vt 0.386515 0.555178
vt 0.391743 0.290989
vt 0.385902 0.291028
vt 0.853228 0.466118
vt 0.854051 0.479308
vt 0.852517 0.501664
vt 0.834325 0.515627
vt 0.816269 0.528421
vt 0.806560 0.534338
vt 0.806560 0.466246
vt 0.386517 0.420886
vt 0.386517 0.430745
vt 0.386517 0.467892
vt 0.386517 0.477051
vt 0.400078 0.265756
vt 0.405896 0.265957
vt 0.346022 0.246318
vt 0.345675 0.229842
vt 0.351565 0.230252
vt 0.351890 0.246394
vt 0.344369 0.157654
vt 0.346236 0.074706
vt 0.352053 0.074836
vt 0.350192 0.157547
vt 0.406687 0.145770
vt 0.400867 0.145894
vt 0.807391 0.411564
vt 0.842907 0.411564
vt 0.848624 0.426859
vt 0.853374 0.448711
vt 0.807392 0.448711
vt 0.364497 0.240293
vt 0.359535 0.323178
vt 0.353726 0.322831
vt 0.358671 0.240247
vt 0.378288 0.093392
vt 0.372470 0.093366
vt 0.718906 0.322461
vt 0.742792 0.322461
vt 0.766628 0.322461
vt 0.790371 0.322461
vt 0.897288 0.322461
vt 0.906822 0.322461
vt 0.598341 0.322461
vt 0.605686 0.322461
vt 0.813984 0.322461
vt 0.819217 0.322461
vt 0.510273 0.322461
vt 0.837440 0.322461
vt 0.860727 0.322461
vt 0.883849 0.322461
vt 0.929677 0.322461
vt 0.828256 0.322461
vt 0.952457 0.322461
vt 0.958146 0.322461
vt 0.963835 0.322461
vt 0.647441 0.322461
vt 0.671184 0.322461
vt 0.695021 0.322461
vt 0.400078 0.108755
vt 0.405898 0.108631
vt 0.758917 0.563076
vt 0.736511 0.574644
vt 0.716999 0.583260
vt 0.704861 0.588024
vt 0.703126 0.485685
vt 0.708735 0.493860
vt 0.718122 0.505741
vt 0.730196 0.518117
vt 0.743777 0.529779
vt 0.757535 0.539584
vt 0.770123 0.546571
vt 0.780346 0.550480
vt 0.301698 0.495419
vt 0.304308 0.488549
vt 0.789167 0.536310
vt 0.774424 0.528945
vt 0.762004 0.521618
vt 0.748397 0.511558
vt 0.734934 0.499752
vt 0.722933 0.487355
vt 0.713569 0.475580
vt 0.705578 0.464112
vt 0.788547 0.464112
vt 0.339736 0.159123
vt 0.333920 0.159456
vt 0.362169 0.549287
vt 0.364780 0.542451
vt 0.333297 0.067919
vt 0.339116 0.067884
vt 0.339173 0.077428
vt 0.333357 0.077834
vt 0.313586 0.500420
vt 0.310882 0.507485
vt 0.325497 0.512931
vt 0.322743 0.520094
vt 0.338876 0.524856
vt 0.336121 0.532012
vt 0.352412 0.535028
vt 0.349707 0.542071
vt 0.352053 0.260819
vt 0.346198 0.260737
vt 0.352053 0.277751
vt 0.346212 0.277659
vt 0.351921 0.295672
vt 0.346091 0.295565
vt 0.351704 0.312944
vt 0.345881 0.312818
vt 0.351455 0.328009
vt 0.345636 0.327861
vt 0.339265 0.092591
vt 0.333448 0.092975
vt 0.339375 0.109902
vt 0.333558 0.110265
vt 0.339496 0.127818
vt 0.333679 0.128165
vt 0.339619 0.144722
vt 0.333802 0.145059
vt 0.351207 0.341940
vt 0.345390 0.341836
vt 0.137823 0.097203
vt 0.149546 0.097203
vt 0.161268 0.097203
vt 0.161268 0.107062
vt 0.161268 0.144209
vt 0.161268 0.156528
vt 0.161268 0.163922
vt 0.161268 0.266125
vt 0.161268 0.277283
vt 0.161268 0.316107
vt 0.161268 0.325966
vt 0.149546 0.325966
vt 0.137823 0.325966
vt 0.137823 0.316107
vt 0.137823 0.277283
vt 0.137823 0.266125
vt 0.137823 0.163922
vt 0.137823 0.156528
vt 0.137823 0.144209
vt 0.137823 0.107062
s 1
usemtl Left_Door
f 44/1/1 36/2/1 113/3/1 114/4/1
f 45/5/1 37/6/1 36/2/1 44/1/1
f 2/7/1 1/8/1 15/9/1 16/10/1
f 1/8/1 3/11/1 17/12/1 15/9/1
f 3/11/1 38/13/1 4/14/1 18/15/1 17/12/1
f 4/14/1 5/16/1 19/17/1 18/15/1
f 5/16/1 43/18/1 6/19/1 20/20/1 19/17/1
f 6/19/1 7/21/1 21/22/1 20/20/1
f 7/21/1 8/23/1 22/24/1 21/22/1
f 99/25/1 9/26/1 23/27/1 98/28/1
f 9/26/1 10/29/1 24/30/1 23/27/1
f 10/29/1 11/31/1 25/32/1 24/30/1
f 93/33/1 12/34/1 26/35/1 68/36/1
f 12/34/1 13/37/1 27/38/1 26/35/1
f 13/37/1 14/39/1 28/40/1 27/38/1
f 34/41/1 30/42/1 29/43/1 33/44/1
f 31/45/1 32/46/1 35/47/1 115/48/1 110/49/1
f 14/39/1 34/41/1 33/44/1 28/40/1
f 40/50/1 39/51/1 41/52/1 42/53/1
f 8/54/2 7/55/3 51/56/3 53/57/2
f 7/55/3 6/58/4 52/59/4 51/56/3
f 42/53/1 41/52/1 30/42/1 34/41/1
f 40/60/5 69/61/6 81/62/7 63/63/5
f 148/64/1 149/65/1 39/51/1 40/50/1
f 32/46/1 45/5/1 44/1/1 35/47/1
f 57/66/1 92/67/1 88/68/1 66/69/1 60/70/1 59/71/1 58/72/1
f 61/73/1 62/74/1 111/75/1 125/76/1
f 44/77/8 114/78/8 111/79/8 62/80/8
f 38/81/9 116/82/9 123/83/9 65/84/9
f 105/85/10 8/54/2 53/57/2 106/86/10
f 69/87/1 40/50/1 42/53/1 76/88/1
f 10/89/11 9/90/12 54/91/12 55/92/11
f 43/93/13 75/94/14 87/95/15 67/96/13
f 11/97/16 10/89/11 55/92/11 56/98/16
f 93/99/17 11/97/16 56/98/16 94/100/17
f 35/101/18 44/77/18 62/80/18 61/102/18
f 13/103/19 12/104/20 57/105/20 58/106/19
f 14/107/21 13/103/19 58/106/19 59/108/21
f 148/109/18 40/60/18 63/63/18 150/110/18
f 34/111/8 14/107/21 59/108/21 60/112/8
f 42/113/22 34/111/18 60/112/18 66/114/22
f 1/115/23 2/116/24 47/117/24 46/118/23
f 3/119/25 1/115/23 46/118/23 48/120/25
f 4/121/26 38/81/27 65/84/27 50/122/26
f 6/58/4 43/93/28 67/96/28 52/59/4
f 5/123/29 4/121/26 50/122/26 49/124/29
f 76/125/30 42/126/22 66/127/22 88/128/31
f 70/129/32 5/123/29 49/124/29 82/130/33
f 76/125/30 88/128/31 92/131/34 80/132/34
f 79/133/35 91/134/35 90/135/36 78/136/37
f 78/136/37 90/135/36 101/137/38 102/138/38
f 77/139/39 89/140/40 87/95/15 75/94/14
f 70/129/32 82/130/33 86/141/41 74/142/42
f 74/142/42 86/141/41 121/143/43 109/144/43
f 73/145/44 85/146/44 84/147/45 72/148/45
f 72/148/45 84/147/45 83/149/46 71/150/47 96/151/48
f 71/150/47 83/149/46 81/62/7 69/61/6
f 69/87/1 76/88/1 80/152/1 71/153/1
f 71/153/1 80/152/1 97/154/1 96/155/1
f 72/156/1 79/157/1 78/158/1 73/159/1
f 73/159/1 78/158/1 102/160/1 103/161/1
f 74/162/1 77/163/1 75/164/1 70/165/1
f 5/16/1 70/165/1 75/164/1 43/18/1
f 12/34/1 93/33/1 97/154/1 80/152/1
f 11/31/1 93/33/1 68/36/1 25/32/1
f 67/166/1 87/167/1 89/168/1 107/169/1 106/170/1 53/171/1 51/172/1 52/173/1
f 97/174/49 95/175/49 91/134/35 79/133/35
f 96/155/1 97/154/1 79/157/1 72/156/1
f 9/90/12 99/176/10 100/177/10 54/91/12
f 105/178/1 99/25/1 98/28/1 104/179/1
f 100/180/1 101/181/1 90/182/1 91/183/1 95/184/1 94/185/1 56/186/1 55/187/1 54/188/1
f 108/189/50 105/85/50 106/86/50 107/190/50
f 103/161/1 102/160/1 108/191/1 109/192/1
f 8/23/1 105/178/1 104/179/1 22/24/1
f 99/25/1 105/178/1 108/191/1 102/160/1
f 108/193/51 107/194/51 89/140/40 77/139/39
f 109/192/1 108/191/1 77/163/1 74/162/1
f 99/176/52 102/138/52 101/137/52 100/177/52
f 97/195/53 93/99/53 94/100/53 95/196/53
f 92/131/54 57/105/54 12/104/54 80/132/54
f 65/197/1 123/198/1 121/199/1 86/200/1 82/201/1 49/202/1 50/203/1
f 110/49/1 115/48/1 120/204/1 117/205/1
f 114/4/1 113/3/1 116/206/1 118/207/1
f 120/208/9 124/209/9 47/117/24 2/116/24
f 164/210/55 151/211/56 103/212/57 112/213/57
f 117/205/1 120/204/1 2/7/1 16/10/1
f 118/207/1 116/206/1 38/13/1 3/11/1
f 122/214/9 113/215/9 36/216/9 64/217/9
f 116/206/1 113/3/1 103/161/1 109/192/1
f 119/218/8 118/219/8 3/119/8 48/120/8
f 124/220/1 119/221/1 48/222/1 46/223/1 47/224/1
f 114/4/1 118/207/1 120/204/1 115/48/1
f 125/225/9 115/226/9 35/227/9 61/228/9
f 123/229/58 116/230/58 109/144/58 121/143/58
f 18/231/18 19/232/59 146/233/59 147/234/18
f 19/232/59 20/235/60 145/236/60 146/233/59
f 20/235/60 21/237/61 144/238/61 145/236/60
f 68/239/62 26/240/63 142/241/63 143/242/62
f 110/243/8 117/244/8 140/245/8 141/246/8
f 21/237/61 22/247/64 139/248/64 144/238/61
f 22/247/64 104/249/65 138/250/65 139/248/64
f 31/251/8 110/243/8 141/246/8 137/252/8
f 23/253/66 24/254/67 135/255/67 136/256/66
f 24/254/67 25/257/68 134/258/68 135/255/67
f 25/257/68 68/239/62 143/242/62 134/258/68
f 26/240/63 27/259/69 133/260/69 142/241/63
f 98/261/65 23/253/66 136/256/66 132/262/65
f 27/259/69 28/263/70 131/264/70 133/260/69
f 33/265/9 29/266/9 129/267/9 130/268/9
f 104/249/65 98/261/65 132/262/65 138/250/65
f 28/263/70 33/265/9 130/268/9 131/264/70
f 16/269/71 15/270/72 127/271/72 128/272/71
f 15/270/72 17/273/73 126/274/73 127/271/72
f 17/273/73 18/231/18 147/234/18 126/274/73
f 117/244/8 16/269/8 128/272/8 140/245/8
f 103/212/74 113/215/74 122/214/74 112/213/74
f 120/275/75 118/219/75 119/218/75 124/276/75
f 114/78/76 115/226/76 125/225/76 111/79/76
f 36/2/1 37/6/1 149/65/1 148/64/1
f 84/277/1 85/278/1 169/279/1 171/280/1 172/281/1 173/282/1 174/283/1 170/284/1 150/285/1 63/286/1 81/287/1 83/288/1
f 157/289/1 152/290/1 36/2/1 148/64/1
f 112/291/1 122/292/1 64/293/1 163/294/1 165/295/1 166/296/1 167/297/1 168/298/1 164/299/1
f 158/300/77 169/301/78 85/146/79 73/145/79
f 73/159/1 103/161/1 151/302/1 158/303/1
f 150/304/80 170/305/81 157/306/82 148/307/80
f 152/290/1 157/289/1 159/308/1 156/309/1
f 156/309/1 159/308/1 160/310/1 155/311/1
f 155/311/1 160/310/1 161/312/1 154/313/1
f 154/313/1 161/312/1 162/314/1 153/315/1
f 153/315/1 162/314/1 158/303/1 151/302/1
f 151/211/56 164/210/55 168/316/83 153/317/84
f 153/317/84 168/316/83 167/318/85 154/319/86
f 154/319/86 167/318/85 166/320/87 155/321/88
f 155/321/88 166/320/87 165/322/89 156/323/90
f 156/323/90 165/322/89 163/324/91 152/325/92
f 157/306/82 170/305/81 174/326/93 159/327/94
f 159/327/94 174/326/93 173/328/95 160/329/96
f 160/329/96 173/328/95 172/330/97 161/331/98
f 161/331/98 172/330/97 171/332/99 162/333/100
f 162/333/100 171/332/99 169/301/78 158/300/77
f 36/334/101 152/325/92 163/324/91 64/335/101
f 218/336/102 288/337/102 287/338/102 210/339/102
f 219/340/102 218/336/102 210/339/102 211/341/102
f 176/342/102 190/343/102 189/344/102 175/345/102
f 175/345/102 189/344/102 191/346/102 177/347/102
f 177/347/102 191/346/102 192/348/102 178/349/102 212/350/102
f 178/349/102 192/348/102 193/351/102 179/352/102
f 179/352/102 193/351/102 194/353/102 180/354/102 217/355/102
f 180/354/102 194/353/102 195/356/102 181/357/102
f 181/357/102 195/356/102 196/358/102 182/359/102
f 273/360/102 272/361/102 197/362/102 183/363/102
f 183/363/102 197/362/102 198/364/102 184/365/102
f 184/365/102 198/364/102 199/366/102 185/367/102
f 267/368/102 242/369/102 200/370/102 186/371/102
f 186/371/102 200/370/102 201/372/102 187/373/102
f 187/373/102 201/372/102 202/374/102 188/375/102
f 208/376/102 207/377/102 203/378/102 204/379/102
f 205/380/102 284/381/102 289/382/102 209/383/102 206/384/102
f 188/375/102 202/374/102 207/377/102 208/376/102
f 214/385/102 216/386/102 215/387/102 213/388/102
f 182/389/2 227/390/2 225/391/3 181/392/3
f 181/392/3 225/391/3 226/393/4 180/394/4
f 216/386/102 208/376/102 204/379/102 215/387/102
f 214/395/5 237/396/5 255/397/103 243/398/104
f 300/399/102 214/385/102 213/388/102 301/400/102
f 206/384/102 209/383/102 218/336/102 219/340/102
f 231/401/102 232/402/102 233/403/102 234/404/102 240/405/102 262/406/102 266/407/102
f 235/408/102 299/409/102 285/410/102 236/411/102
f 218/412/8 236/413/8 285/414/8 288/415/8
f 212/416/9 239/417/9 297/418/9 290/419/9
f 279/420/10 280/421/10 227/390/2 182/389/2
f 243/422/102 250/423/102 216/386/102 214/385/102
f 184/424/11 229/425/11 228/426/12 183/427/12
f 217/428/13 241/429/13 261/430/105 249/431/106
f 185/432/16 230/433/16 229/425/11 184/424/11
f 267/434/17 268/435/17 230/433/16 185/432/16
f 209/436/18 235/437/18 236/413/18 218/412/18
f 187/438/19 232/439/19 231/440/20 186/441/20
f 188/442/21 233/443/21 232/439/19 187/438/19
f 300/444/18 302/445/18 237/396/18 214/395/18
f 208/446/8 234/447/8 233/443/21 188/442/21
f 216/448/22 240/449/22 234/447/18 208/446/18
f 175/450/23 220/451/23 221/452/24 176/453/24
f 177/454/25 222/455/25 220/451/23 175/450/23
f 178/456/26 224/457/26 239/417/27 212/416/27
f 180/394/4 226/393/4 241/458/28 217/459/28
f 179/460/29 223/461/29 224/457/26 178/456/26
f 250/462/107 262/463/108 240/464/22 216/465/22
f 244/466/109 256/467/110 223/461/29 179/460/29
f 250/462/107 254/468/111 266/469/111 262/463/108
f 253/470/112 252/471/113 264/472/114 265/473/112
f 252/471/113 276/474/115 275/475/115 264/472/114
f 251/476/116 249/431/106 261/430/105 263/477/117
f 244/466/109 248/478/118 260/479/119 256/467/110
f 248/478/118 283/480/120 295/481/120 260/479/119
f 247/482/121 246/483/122 258/484/122 259/485/121
f 246/483/122 270/486/123 245/487/124 257/488/125 258/484/122
f 245/487/124 243/398/104 255/397/103 257/488/125
f 243/422/102 245/489/102 254/490/102 250/423/102
f 245/489/102 270/491/102 271/492/102 254/490/102
f 246/493/102 247/494/102 252/495/102 253/496/102
f 247/494/102 277/497/102 276/498/102 252/495/102
f 248/499/102 244/500/102 249/501/102 251/502/102
f 179/352/102 217/355/102 249/501/102 244/500/102
f 186/371/102 254/490/102 271/492/102 267/368/102
f 185/367/102 199/366/102 242/369/102 267/368/102
f 241/503/102 226/504/102 225/505/102 227/506/102 280/507/102 281/508/102 263/509/102 261/510/102
f 271/511/126 253/470/112 265/473/112 269/512/126
f 270/491/102 246/493/102 253/496/102 271/492/102
f 183/427/12 228/426/12 274/513/10 273/514/10
f 279/515/102 278/516/102 272/361/102 273/360/102
f 274/517/102 228/518/102 229/519/102 230/520/102 268/521/102 269/522/102 265/523/102 264/524/102 275/525/102
f 282/526/127 281/527/127 280/421/127 279/420/127
f 277/497/102 283/528/102 282/529/102 276/498/102
f 182/359/102 196/358/102 278/516/102 279/515/102
f 273/360/102 276/498/102 282/529/102 279/515/102
f 282/526/128 251/476/116 263/477/117 281/527/128
f 283/528/102 248/499/102 251/502/102 282/529/102
f 273/514/129 274/513/129 275/475/129 276/474/129
f 271/530/130 269/531/130 268/435/130 267/434/130
f 266/469/131 254/468/131 186/441/131 231/440/131
f 239/532/102 224/533/102 223/534/102 256/535/102 260/536/102 295/537/102 297/538/102
f 284/381/102 291/539/102 294/540/102 289/382/102
f 288/337/102 292/541/102 290/542/102 287/338/102
f 294/543/9 176/453/24 221/452/24 298/544/9
f 316/545/132 286/546/133 277/547/133 303/548/134
f 291/539/102 190/343/102 176/342/102 294/540/102
f 292/541/102 177/347/102 212/350/102 290/542/102
f 296/549/9 238/550/9 210/551/9 287/552/9
f 290/542/102 283/528/102 277/497/102 287/338/102
f 293/553/8 222/455/8 177/454/8 292/554/8
f 298/555/102 221/556/102 220/557/102 222/558/102 293/559/102
f 288/337/102 289/382/102 294/540/102 292/541/102
f 299/560/9 235/561/9 209/562/9 289/563/9
f 297/564/135 295/481/135 283/480/135 290/565/135
f 192/566/18 147/234/18 146/233/59 193/567/59
f 193/567/59 146/233/59 145/236/60 194/568/60
f 194/568/60 145/236/60 144/238/61 195/569/61
f 242/570/62 143/242/62 142/241/63 200/571/63
f 284/572/8 141/246/8 140/245/8 291/573/8
f 195/569/61 144/238/61 139/248/64 196/574/64
f 196/574/64 139/248/64 138/250/65 278/575/65
f 205/576/8 137/252/8 141/246/8 284/572/8
f 197/577/66 136/256/66 135/255/67 198/578/67
f 198/578/67 135/255/67 134/258/68 199/579/68
f 199/579/68 134/258/68 143/242/62 242/570/62
f 200/571/63 142/241/63 133/260/69 201/580/69
f 272/581/65 132/262/65 136/256/66 197/577/66
f 201/580/69 133/260/69 131/264/70 202/582/70
f 207/583/9 130/268/9 129/267/9 203/584/9
f 278/575/65 138/250/65 132/262/65 272/581/65
f 202/582/70 131/264/70 130/268/9 207/583/9
f 190/585/71 128/272/71 127/271/72 189/586/72
f 189/586/72 127/271/72 126/274/73 191/587/73
f 191/587/73 126/274/73 147/234/18 192/566/18
f 291/573/8 140/245/8 128/272/8 190/585/8
f 277/547/136 286/546/136 296/549/136 287/552/136
f 294/588/137 298/589/137 293/553/137 292/554/137
f 288/415/138 285/414/138 299/560/138 289/563/138
f 210/339/102 300/399/102 301/400/102 211/341/102
f 258/590/102 257/591/102 255/592/102 237/593/102 302/594/102 322/595/102 326/596/102 325/597/102 324/598/102 323/599/102 321/600/102 259/601/102
f 309/602/102 300/399/102 210/339/102 304/603/102
f 286/604/102 316/605/102 320/606/102 319/607/102 318/608/102 317/609/102 315/610/102 238/611/102 296/612/102
f 310/613/139 247/482/140 259/485/140 321/614/141
f 247/494/102 310/615/102 303/616/102 277/497/102
f 302/617/142 300/618/142 309/619/143 322/620/144
f 304/603/102 308/621/102 311/622/102 309/602/102
f 308/621/102 307/623/102 312/624/102 311/622/102
f 307/623/102 306/625/102 313/626/102 312/624/102
f 306/625/102 305/627/102 314/628/102 313/626/102
f 305/627/102 303/616/102 310/615/102 314/628/102
f 303/548/134 305/629/145 320/630/146 316/545/132
f 305/629/145 306/631/147 319/632/148 320/630/146
f 306/631/147 307/633/149 318/634/150 319/632/148
f 307/633/149 308/635/151 317/636/152 318/634/150
f 308/635/151 304/637/153 315/638/154 317/636/152
f 309/619/143 311/639/155 326/640/156 322/620/144
f 311/639/155 312/641/157 325/642/158 326/640/156
f 312/641/157 313/643/159 324/644/160 325/642/158
f 313/643/159 314/645/161 323/646/162 324/644/160
f 314/645/161 310/613/139 321/614/141 323/646/162
f 210/647/163 238/648/163 315/638/154 304/637/153
f 31/649/164 137/650/164 205/651/164 206/652/164 219/653/164 211/654/164 301/655/164 213/656/164 215/657/164 204/658/164 203/659/164 129/660/164 29/661/164 30/662/164 41/663/164 39/664/164 149/665/164 37/666/164 45/667/164 32/668/164
o Right_Door
v 0.124875 1.698074 0.000000
v 0.124875 1.179479 0.000000
v 0.000000 1.698074 0.000000
v -0.000000 -0.738833 0.000000
v 0.124875 -0.028101 0.000000
v 0.124875 -0.633810 -1.392990
v 0.124875 -0.238098 -1.504495
v 0.124875 -0.000000 -1.521488
v 0.124875 0.238098 -1.504495
v 0.124875 0.693137 -1.370814
v 0.124875 1.086589 -1.115330
v 0.124875 -0.501920 -1.549741
v 0.124875 -0.253794 -1.603679
v 0.124875 1.158222 -1.188858
v 0.124875 1.698074 -0.121197
v 0.124875 -0.140537 -0.056850
v 0.124875 1.060613 -0.056850
v 0.124875 1.179479 -0.056850
v 0.062890 0.693137 -1.370814
v 0.062890 0.899914 -1.257113
v 0.062890 1.086589 -1.115330
v 0.062890 -0.633810 -0.056850
v 0.062890 -0.238098 -0.056850
v 0.124875 0.385236 -1.311711
v 0.124875 0.804554 -0.637076
v 0.124875 1.135359 -0.172986
v 0.124875 0.923650 -0.624110
v 0.124875 1.045317 -0.382798
v 0.062890 1.012054 -0.186993
v 0.062890 0.386311 -1.310302
v 0.062890 0.674358 -0.867615
v 0.062890 0.522066 -1.117581
v 0.062890 0.497496 -1.297814
v 0.062890 0.782709 -0.872808
v 0.124875 0.885561 -0.473477
v 0.124875 0.634101 -0.938145
v 0.124875 1.003638 -1.306268
v 0.124875 0.941565 -1.225478
v 0.062890 0.692621 -1.015186
v 0.124875 0.691717 -1.016377
v 0.124875 -0.140537 -0.938144
v 0.124875 -0.238098 -0.938145
v 0.124875 -0.633810 -0.938148
v 0.124875 -0.738833 -1.016393
v 0.124875 -0.238098 -1.016391
v 0.062890 -0.238098 -1.014666
v 0.062890 -0.140537 -0.940683
v 0.062890 -0.633810 -1.014657
v -0.000000 -0.253794 -1.603679
v -0.000000 -0.738833 -1.461185
v 0.000000 1.080312 -1.248032
v 0.000000 1.660142 -0.360883
v 0.000000 1.331330 -1.011171
v 0.000000 0.959241 -1.339988
v -0.000000 -0.738833 -0.938147
v 0.000000 0.738832 -1.461185
v 0.000000 0.501919 -1.549741
v -0.000000 -0.000000 -1.621793
v 0.124875 -0.029718 -0.056850
v 0.124875 0.556139 -0.784846
v 0.124875 -0.018054 -0.140663
v 0.124875 0.477063 -0.653088
v 0.124875 0.368707 -0.508895
v 0.124875 0.628966 -0.757032
v 0.062890 0.107057 -0.241731
v 0.062890 0.364887 -0.512984
v 0.062890 0.058369 -0.115119
v 0.062890 0.554182 -0.626625
v -0.124875 1.593052 0.000000
v -0.124875 -0.633810 0.000000
v -0.124875 1.179479 0.000000
v -0.124875 -0.028101 0.000000
v -0.124875 -0.633810 -1.392990
v -0.124875 -0.238098 -1.504495
v -0.124875 0.238098 -1.504495
v -0.124875 0.470877 -1.453893
v -0.124875 0.693137 -1.370814
v -0.124875 1.248990 -0.948633
v -0.124875 1.487088 -0.555862
v -0.124875 1.557465 -0.338563
v -0.124875 1.593052 -0.113701
v -0.124875 -0.738833 -1.461185
v -0.124875 0.253794 -1.603679
v -0.124875 0.501920 -1.549741
v -0.124875 0.738833 -1.461185
v -0.124875 1.158222 -1.188858
v -0.124875 1.331330 -1.011171
v -0.124875 1.474699 -0.810896
v -0.124875 1.660142 -0.360883
v -0.124875 1.698074 -0.121197
v -0.124875 -0.140537 -1.513110
v -0.124875 1.060613 -0.056850
v -0.124875 0.356965 -1.478655
v -0.062890 -0.470877 -1.453893
v -0.062890 -0.633810 -1.392990
v -0.062890 -0.238098 -1.504495
v -0.062890 0.693137 -1.370814
v -0.062890 0.899914 -1.257113
v -0.062890 1.248990 -0.948633
v -0.062890 1.383492 -0.760744
v -0.062890 1.487088 -0.555862
v -0.062890 1.557465 -0.338563
v -0.062890 1.593052 -0.056850
v -0.062890 -0.140537 -0.056850
v -0.062890 -0.140537 -1.513110
v -0.124875 1.012318 -0.186284
v -0.124875 0.385236 -1.311711
v -0.124875 0.804554 -0.637076
v -0.124875 0.521336 -1.118520
v -0.124875 0.496292 -1.299364
v -0.124875 1.135359 -0.172986
v -0.124875 0.635010 -1.105977
v -0.124875 0.782268 -0.873300
v -0.124875 0.923650 -0.624110
v -0.124875 1.045317 -0.382798
v -0.062890 1.135067 -0.173755
v -0.062890 0.635828 -1.104944
v -0.062890 0.923759 -0.624131
v -0.062890 1.045174 -0.383254
v -0.124875 1.444096 -0.640888
v -0.062890 1.002120 -0.468670
v -0.124875 0.885561 -0.473477
v -0.124875 0.999602 -0.473468
v -0.124875 1.080312 -1.248032
v -0.062890 1.013498 -1.170844
v -0.124875 0.741769 -0.938148
v -0.124875 0.634101 -0.938145
v -0.124875 0.941565 -1.225478
v -0.062890 0.941565 -1.225478
v -0.124875 0.584815 -1.016389
v -0.124875 -0.738833 -0.938147
v -0.062890 -0.238098 -0.941355
v -0.124875 -0.140537 -0.938144
v -0.124875 -0.238098 -0.938145
v -0.124875 -0.140537 -1.016393
v -0.062890 0.584814 -1.013987
v -0.124875 -0.029718 -0.056850
v -0.124875 0.477063 -0.653088
v -0.124875 0.368707 -0.508895
v -0.124875 0.241677 -0.366381
v -0.124875 0.628966 -0.757032
v -0.124875 0.552092 -0.624274
v -0.062890 -0.018378 -0.141980
v -0.062890 0.472044 -0.657934
v -0.062890 0.554182 -0.626625
v 0.124875 1.593052 0.000000
v 0.124875 -0.738833 0.000000
v 0.124875 -0.633810 0.000000
v 0.124875 -0.106867 0.000000
v 0.124875 1.060613 0.000000
v 0.124875 -0.238098 0.000000
v 0.124875 -0.470877 -1.453893
v 0.124875 0.470877 -1.453893
v 0.124875 0.899914 -1.257113
v 0.124875 1.248990 -0.948633
v 0.124875 1.383492 -0.760744
v 0.124875 1.487088 -0.555862
v 0.124875 1.557465 -0.338563
v 0.124875 1.593052 -0.113701
v 0.124875 -0.738833 -1.461185
v 0.124875 -0.000000 -1.621793
v 0.124875 0.253794 -1.603679
v 0.124875 0.501920 -1.549741
v 0.124875 0.738833 -1.461185
v 0.124875 0.959241 -1.339988
v 0.124875 1.331330 -1.011171
v 0.124875 1.474699 -0.810896
v 0.124875 1.585125 -0.592507
v 0.124875 1.660142 -0.360883
v 0.124875 1.698074 -0.060598
v 0.124875 1.593052 -0.056850
v 0.124875 -0.633810 -0.056850
v 0.124875 -0.140537 -1.513110
v 0.124875 0.356965 -1.478655
v 0.124875 -0.238098 -0.056850
v 0.062890 -0.470877 -1.453893
v 0.062890 -0.633810 -1.392990
v 0.062890 -0.238098 -1.504495
v 0.062890 0.238098 -1.504495
v 0.062890 -0.000000 -1.521488
v 0.062890 0.470877 -1.453893
v 0.062890 1.248990 -0.948633
v 0.062890 1.383492 -0.760744
v 0.062890 1.487088 -0.555862
v 0.062890 1.557465 -0.338563
v 0.062890 1.593052 -0.113701
v 0.062890 1.593052 -0.056850
v 0.062890 1.060613 -0.056850
v 0.062890 -0.140537 -0.056850
v 0.062890 -0.140537 -1.513110
v 0.062890 1.179479 -0.056850
v 0.062890 0.356965 -1.478655
v 0.124875 1.539298 -0.683139
v 0.124875 1.012318 -0.186284
v 0.124875 0.923948 -0.395951
v 0.124875 0.673966 -0.868061
v 0.124875 0.521336 -1.118520
v 0.124875 0.496292 -1.299364
v 0.124875 0.635010 -1.105977
v 0.124875 0.782268 -0.873300
v 0.062890 0.923818 -0.396372
v 0.062890 0.804650 -0.637099
v 0.062890 1.135067 -0.173755
v 0.062890 0.635828 -1.104944
v 0.062890 0.923759 -0.624131
v 0.062890 1.045174 -0.383254
v 0.124875 1.444096 -0.640888
v 0.062890 1.444096 -0.640888
v 0.062890 1.002120 -0.468670
v 0.124875 0.999602 -0.473468
v 0.124875 1.080312 -1.248032
v 0.124875 1.013498 -1.170844
v 0.062890 1.013498 -1.170844
v 0.062890 0.740695 -0.949833
v 0.124875 0.741769 -0.938148
v 0.062890 0.941565 -1.225478
v 0.124875 0.584815 -1.016389
v 0.124875 -0.738833 -0.938147
v 0.062890 -0.238098 -0.941355
v 0.062890 0.628549 -0.947279
v 0.124875 -0.140537 -1.016393
v 0.124875 -0.633810 -1.016392
v 0.062890 0.584814 -1.013987
v 0.062890 -0.140537 -1.015976
v 0.062890 -0.633810 -0.941361
v -0.000000 -0.501920 -1.549741
v 0.000000 1.698074 -0.060598
v 0.000000 1.698074 -0.121197
v 0.000000 1.474699 -0.810896
v 0.000000 1.158222 -1.188858
v 0.000000 1.003638 -1.306268
v -0.000000 -0.738833 -1.016393
v 0.000000 1.585125 -0.592507
v 0.000000 1.539298 -0.683139
v 0.000000 0.253794 -1.603679
v 0.062890 -0.029718 -0.056850
v 0.124875 0.241677 -0.366381
v 0.124875 0.108408 -0.239497
v 0.124875 0.055132 -0.112856
v 0.124875 0.183668 -0.210688
v 0.124875 0.317985 -0.337044
v 0.124875 0.444935 -0.479556
v 0.124875 0.552092 -0.624274
v 0.062890 -0.018378 -0.141980
v 0.062890 0.550102 -0.790231
v 0.062890 0.239121 -0.369570
v 0.062890 0.472044 -0.657934
v 0.062890 0.630883 -0.759439
v 0.062890 0.447270 -0.481860
v 0.062890 0.320611 -0.339316
v 0.062890 0.186605 -0.212946
v -0.124875 1.698074 0.000000
v -0.124875 -0.738833 0.000000
v -0.124875 -0.106867 0.000000
v -0.124875 1.060613 0.000000
v -0.124875 -0.238098 0.000000
v -0.124875 -0.470877 -1.453893
v -0.124875 -0.000000 -1.521488
v -0.124875 0.899914 -1.257113
v -0.124875 1.086589 -1.115330
v -0.124875 1.383492 -0.760744
v -0.124875 -0.501920 -1.549741
v -0.124875 -0.253794 -1.603679
v -0.124875 -0.000000 -1.621793
v -0.124875 0.959241 -1.339988
v -0.124875 1.585125 -0.592507
v -0.124875 1.698074 -0.060598
v -0.124875 1.593052 -0.056850
v -0.124875 -0.633810 -0.056850
v -0.124875 -0.140537 -0.056850
v -0.124875 1.179479 -0.056850
v -0.124875 -0.238098 -0.056850
v -0.062890 0.238098 -1.504495
v -0.062890 -0.000000 -1.521488
v -0.062890 0.470877 -1.453893
v -0.062890 1.086589 -1.115330
v -0.062890 1.593052 -0.113701
v -0.062890 -0.633810 -0.056850
v -0.062890 -0.238098 -0.056850
v -0.062890 1.060613 -0.056850
v -0.062890 1.179479 -0.056850
v -0.062890 0.356965 -1.478655
v -0.124875 1.539298 -0.683139
v -0.124875 0.923948 -0.395951
v -0.124875 0.673966 -0.868061
v -0.062890 1.012054 -0.186993
v -0.062890 0.386311 -1.310302
v -0.062890 0.923818 -0.396372
v -0.062890 0.804650 -0.637099
v -0.062890 0.674358 -0.867615
v -0.062890 0.522066 -1.117581
v -0.062890 0.497496 -1.297814
v -0.062890 0.782709 -0.872808
v -0.062890 1.444096 -0.640888
v -0.124875 1.013498 -1.170844
v -0.062890 0.740695 -0.949833
v -0.124875 1.003638 -1.306268
v -0.062890 0.692621 -1.015186
v -0.124875 0.691717 -1.016377
v -0.062890 0.628549 -0.947279
v -0.124875 -0.633810 -0.938148
v -0.124875 -0.738833 -1.016393
v -0.124875 -0.238098 -1.016391
v -0.062890 -0.238098 -1.014666
v -0.124875 -0.633810 -1.016392
v -0.062890 -0.140537 -0.940683
v -0.062890 -0.140537 -1.015976
v -0.062890 -0.633810 -1.014657
v -0.062890 -0.633810 -0.941361
v -0.062890 -0.029718 -0.056850
v -0.124875 0.556139 -0.784846
v -0.124875 -0.018054 -0.140663
v -0.124875 0.108408 -0.239497
v -0.124875 0.055132 -0.112856
v -0.124875 0.183668 -0.210688
v -0.124875 0.317985 -0.337044
v -0.124875 0.444935 -0.479556
v -0.062890 0.550102 -0.790231
v -0.062890 0.107057 -0.241731
v -0.062890 0.239121 -0.369570
v -0.062890 0.364887 -0.512984
v -0.062890 0.630883 -0.759439
v -0.062890 0.058369 -0.115119
v -0.062890 0.447270 -0.481860
v -0.062890 0.320611 -0.339316
v -0.062890 0.186605 -0.212946
vn 1.0000 -0.0000 -0.0000
vn -0.0000 -0.5448 0.8386
vn -0.0000 -0.4171 0.9089
vn -0.0000 -0.2820 0.9594
vn -0.0000 -0.9369 0.3496
vn -0.0003 -0.9293 0.3692
vn -0.0003 -0.9295 0.3689
vn -0.0000 -1.0000 -0.0000
vn -0.0000 -0.6048 0.7963
vn -0.0000 -0.7669 0.6418
vn -0.0000 -0.6624 0.7492
vn -0.0000 0.7896 -0.6136
vn 0.0006 0.8015 -0.5980
vn 0.0005 0.8010 -0.5986
vn -0.0000 -0.0000 -1.0000
vn -0.0000 0.5678 -0.8231
vn -0.0000 0.2820 0.9594
vn -0.0000 0.8216 0.5700
vn -0.0000 0.2124 0.9772
vn -0.0000 -0.0059 1.0000
vn -0.0000 0.0595 0.9982
vn -0.0000 -0.4751 0.8799
vn 0.0003 0.9272 -0.3747
vn 0.0003 0.9270 -0.3750
vn -0.0005 -0.8062 0.5917
vn -0.0005 -0.8066 0.5911
vn 0.0007 0.9190 -0.3943
vn 0.0018 0.8816 -0.4719
vn 0.0216 0.8669 -0.4980
vn 0.0213 0.8669 -0.4979
vn 0.0409 0.8637 -0.5023
vn 0.0016 0.8289 -0.5593
vn 0.0016 0.8294 -0.5587
vn 0.0040 -0.8351 0.5500
vn 0.0041 -0.8356 0.5494
vn 0.0091 -0.8523 0.5230
vn -0.0018 -0.8705 0.4921
vn -0.0016 -0.8837 0.4681
vn -0.0013 -0.8962 0.4437
vn -0.0010 -0.9093 0.4161
vn -0.0010 -0.9092 0.4163
vn 0.0016 0.8929 -0.4502
vn -0.0120 -0.6435 -0.7653
vn 0.0021 0.8450 -0.5347
vn -0.0038 0.3643 0.9313
vn -0.0000 1.0000 -0.0000
vn 0.1267 -0.8699 -0.4766
vn 0.1349 -0.8848 -0.4459
vn 0.1264 -0.8694 -0.4777
vn -0.0000 0.1422 -0.9898
vn -0.0000 0.2820 -0.9594
vn -0.0000 0.4171 -0.9089
vn -0.0000 0.5448 -0.8386
vn -0.0000 0.6048 -0.7963
vn -0.0000 0.6624 -0.7492
vn -0.0000 0.7669 -0.6418
vn -0.0000 0.8553 -0.5182
vn -0.0000 0.9246 -0.3808
vn -0.0000 0.9725 -0.2329
vn -0.0000 0.9969 -0.0784
vn -0.0000 -0.3501 -0.9367
vn -0.0000 -0.2820 -0.9594
vn -0.0000 -0.1422 -0.9898
vn -0.0939 0.0043 0.9956
vn -0.0279 -0.0000 -0.9996
vn -0.0517 -0.0000 0.9987
vn 0.0100 0.8977 0.4404
vn 0.0114 0.9273 0.3743
vn 0.0101 0.8996 0.4366
vn -0.0008 0.5513 0.8343
vn 0.0001 0.5779 0.8161
vn 0.0002 0.5801 0.8145
vn 0.1089 -0.8264 -0.5525
vn 0.1091 -0.8271 -0.5514
vn 0.0885 -0.7729 -0.6283
vn 0.0886 -0.7733 -0.6278
vn 0.0652 -0.7198 -0.6912
vn 0.0654 -0.7201 -0.6908
vn 0.0421 -0.6558 -0.7537
vn 0.0422 -0.6562 -0.7534
vn 0.0205 -0.5937 -0.8044
vn 0.0206 -0.5940 -0.8042
vn 0.0026 0.6452 0.7640
vn 0.0027 0.6482 0.7614
vn 0.0059 0.7754 0.6314
vn 0.0075 0.8352 0.5499
vn 0.0076 0.8371 0.5469
vn 0.0059 0.7773 0.6291
vn 0.0102 -0.5682 -0.8228
vn -1.0000 -0.0000 -0.0000
vn 0.0003 -0.9295 0.3689
vn 0.0003 -0.9293 0.3692
vn -0.0005 0.8010 -0.5986
vn -0.0006 0.8015 -0.5980
vn -0.0000 -0.8553 0.5182
vn -0.0000 -0.8924 0.4512
vn -0.0000 -0.9725 0.2329
vn -0.0000 -0.9513 0.3081
vn -0.0000 -0.9969 0.0784
vn -0.0000 -0.2124 0.9772
vn -0.0003 0.9272 -0.3747
vn -0.0003 0.9270 -0.3750
vn 0.0005 -0.8062 0.5917
vn 0.0005 -0.8066 0.5911
vn -0.0007 0.9190 -0.3943
vn -0.0018 0.8816 -0.4719
vn -0.0213 0.8669 -0.4979
vn -0.0216 0.8669 -0.4980
vn -0.0409 0.8637 -0.5023
vn -0.0016 0.8289 -0.5593
vn -0.0016 0.8294 -0.5587
vn -0.0041 -0.8356 0.5494
vn -0.0040 -0.8351 0.5500
vn -0.0091 -0.8523 0.5230
vn 0.0018 -0.8705 0.4921
vn 0.0016 -0.8837 0.4681
vn 0.0010 -0.9092 0.4163
vn 0.0010 -0.9093 0.4161
vn 0.0013 -0.8962 0.4437
vn -0.0016 0.8929 -0.4502
vn 0.0120 -0.6435 -0.7653
vn -0.0021 0.8450 -0.5347
vn 0.0777 0.6382 0.7659
vn 0.0434 -0.3574 -0.9329
vn 0.0038 0.3643 0.9313
vn -0.1267 -0.8699 -0.4766
vn -0.1264 -0.8694 -0.4777
vn -0.1349 -0.8848 -0.4459
vn 0.0227 0.0014 -0.9997
vn -0.0000 0.8924 -0.4512
vn 0.0939 0.0043 0.9956
vn 0.0517 -0.0000 0.9987
vn -0.0100 0.8977 0.4404
vn -0.0101 0.8996 0.4366
vn -0.0114 0.9273 0.3743
vn 0.0008 0.5513 0.8343
vn -0.0002 0.5801 0.8145
vn -0.0001 0.5779 0.8161
vn -0.1091 -0.8271 -0.5514
vn -0.1089 -0.8264 -0.5525
vn -0.0886 -0.7733 -0.6278
vn -0.0885 -0.7729 -0.6283
vn -0.0654 -0.7201 -0.6908
vn -0.0652 -0.7198 -0.6912
vn -0.0422 -0.6562 -0.7534
vn -0.0421 -0.6558 -0.7537
vn -0.0206 -0.5940 -0.8042
vn -0.0205 -0.5937 -0.8044
vn -0.0059 0.7754 0.6314
vn -0.0059 0.7773 0.6291
vn -0.0076 0.8371 0.5469
vn -0.0075 0.8352 0.5499
vn -0.0102 -0.5682 -0.8228
vn -0.0777 0.6382 0.7659
vn -0.0434 -0.3574 -0.9329
vn -0.0227 0.0014 -0.9997
vn 0.0047 0.7160 0.6981
vn 0.0048 0.7182 0.6959
vn 0.0279 -0.0000 -0.9996
vn -0.0027 0.6482 0.7614
vn -0.0026 0.6452 0.7640
vn -0.0048 0.7182 0.6959
vn -0.0047 0.7160 0.6981
vn -0.0000 -0.0000 1.0000
vt 0.296440 0.758768
vt 0.379171 0.758768
vt 0.379171 0.767926
vt 0.296440 0.767926
vt 0.291103 0.758768
vt 0.291103 0.771087
vt 0.421869 0.721621
vt 0.428271 0.711762
vt 0.436584 0.734001
vt 0.427587 0.736916
vt 0.441648 0.757294
vt 0.432337 0.758768
vt 0.443348 0.781119
vt 0.433932 0.781119
vt 0.433146 0.767926
vt 0.441648 0.804944
vt 0.432337 0.803470
vt 0.436584 0.828237
vt 0.427587 0.825323
vt 0.429911 0.814629
vt 0.428271 0.850477
vt 0.419788 0.846187
vt 0.416894 0.871167
vt 0.409114 0.865598
vt 0.401016 0.876261
vt 0.408262 0.882533
vt 0.402707 0.889847
vt 0.395804 0.883122
vt 0.386026 0.906097
vt 0.380156 0.898367
vt 0.322886 0.927326
vt 0.324981 0.936964
vt 0.302480 0.940525
vt 0.301777 0.930666
vt 0.296440 0.930666
vt 0.296792 0.940525
vt 0.291103 0.940525
vt 0.291103 0.930666
vt 0.291103 0.711762
vt 0.379171 0.711762
vt 0.379171 0.721621
vt 0.296440 0.721621
vt 0.291103 0.721621
vt 0.296440 0.880684
vt 0.296440 0.891842
vt 0.291103 0.891842
vt 0.291103 0.880684
vt 0.422395 0.167977
vt 0.416577 0.167923
vt 0.416785 0.145772
vt 0.422603 0.145826
vt 0.416994 0.123498
vt 0.422813 0.123553
vt 0.334311 0.254864
vt 0.328492 0.254841
vt 0.328542 0.241801
vt 0.334361 0.241895
vt 0.296440 0.778329
vt 0.291103 0.778481
vt 0.705407 0.693678
vt 0.788441 0.693678
vt 0.788440 0.730826
vt 0.705407 0.730826
vt 0.351020 0.120448
vt 0.356833 0.120194
vt 0.360464 0.203147
vt 0.354638 0.203101
vt 0.422349 0.172887
vt 0.416531 0.172832
vt 0.308590 0.876150
vt 0.307342 0.887701
vt 0.383914 0.212113
vt 0.378096 0.212210
vt 0.377730 0.190367
vt 0.383548 0.190269
vt 0.422916 0.257075
vt 0.417097 0.257168
vt 0.416754 0.235671
vt 0.422575 0.235762
vt 0.349396 0.083336
vt 0.355209 0.083082
vt 0.333915 0.357217
vt 0.328096 0.357195
vt 0.399089 0.271012
vt 0.393270 0.271021
vt 0.393215 0.232197
vt 0.399033 0.232189
vt 0.405667 0.214075
vt 0.411485 0.214113
vt 0.411378 0.230442
vt 0.405559 0.230404
vt 0.405814 0.191713
vt 0.411633 0.191751
vt 0.375730 0.153307
vt 0.369912 0.153243
vt 0.370056 0.140028
vt 0.375875 0.140091
vt 0.375485 0.175714
vt 0.369667 0.175650
vt 0.399023 0.118065
vt 0.393203 0.118110
vt 0.393270 0.106370
vt 0.399089 0.106403
vt 0.375237 0.198479
vt 0.369416 0.198581
vt 0.398900 0.139498
vt 0.393081 0.139510
vt 0.384512 0.114039
vt 0.383248 0.140905
vt 0.377438 0.140571
vt 0.378700 0.113762
vt 0.382911 0.148074
vt 0.377033 0.148797
vt 0.422219 0.213424
vt 0.416400 0.213393
vt 0.374995 0.220662
vt 0.369175 0.220709
vt 0.374872 0.231950
vt 0.369051 0.232079
vt 0.334643 0.170369
vt 0.334543 0.195278
vt 0.328724 0.195257
vt 0.328824 0.170400
vt 0.334476 0.212415
vt 0.334444 0.220536
vt 0.328625 0.220472
vt 0.328273 0.867855
vt 0.327038 0.879248
vt 0.335551 0.864251
vt 0.335550 0.874956
vt 0.350908 0.856646
vt 0.372592 0.844387
vt 0.373084 0.854554
vt 0.349691 0.867826
vt 0.379171 0.840645
vt 0.379171 0.850753
vt 0.396104 0.830060
vt 0.414239 0.817283
vt 0.413080 0.827708
vt 0.394926 0.840731
vt 0.343284 0.920719
vt 0.351266 0.916683
vt 0.853930 0.811106
vt 0.851570 0.821792
vt 0.843702 0.842630
vt 0.832964 0.862006
vt 0.829982 0.865906
vt 0.810318 0.842472
vt 0.818761 0.837168
vt 0.836910 0.824242
vt 0.385258 0.098219
vt 0.379470 0.097437
vt 0.377586 0.181751
vt 0.383404 0.181654
vt 0.406144 0.869508
vt 0.413728 0.875335
vt 0.821336 0.880674
vt 0.816305 0.887668
vt 0.801056 0.903314
vt 0.783751 0.916393
vt 0.772651 0.922371
vt 0.755415 0.881313
vt 0.769813 0.873582
vt 0.792807 0.859741
vt 0.799933 0.855611
vt 0.422062 0.203470
vt 0.416242 0.203423
vt 0.386516 0.836018
vt 0.386515 0.846054
vt 0.398964 0.184038
vt 0.393145 0.184046
vt 0.859758 0.754398
vt 0.860581 0.767588
vt 0.859047 0.789944
vt 0.840855 0.803907
vt 0.822798 0.816701
vt 0.813090 0.822618
vt 0.813090 0.754526
vt 0.386517 0.711762
vt 0.386516 0.721621
vt 0.386516 0.758768
vt 0.386517 0.767926
vt 0.405327 0.265756
vt 0.411144 0.265957
vt 0.342986 0.246319
vt 0.342639 0.229843
vt 0.348529 0.230253
vt 0.348854 0.246394
vt 0.341334 0.157654
vt 0.343200 0.074706
vt 0.349018 0.074837
vt 0.347156 0.157547
vt 0.411935 0.145770
vt 0.406115 0.145894
vt 0.807391 0.688589
vt 0.842907 0.688589
vt 0.848624 0.703884
vt 0.853374 0.725736
vt 0.807392 0.725736
vt 0.360167 0.240294
vt 0.355204 0.323178
vt 0.349396 0.322831
vt 0.354340 0.240247
vt 0.717064 0.270667
vt 0.717064 0.258944
vt 0.740949 0.258944
vt 0.740949 0.270667
vt 0.764786 0.258944
vt 0.764786 0.270667
vt 0.788529 0.258944
vt 0.788529 0.270667
vt 0.596499 0.270667
vt 0.596499 0.258944
vt 0.603844 0.258944
vt 0.603844 0.270667
vt 0.812142 0.258944
vt 0.812142 0.270667
vt 0.817375 0.258944
vt 0.817375 0.270667
vt 0.508431 0.270667
vt 0.508431 0.258944
vt 0.835598 0.270667
vt 0.835597 0.258944
vt 0.858885 0.258944
vt 0.858885 0.270667
vt 0.882007 0.258944
vt 0.882007 0.270667
vt 0.904980 0.270667
vt 0.904980 0.258944
vt 0.927835 0.258944
vt 0.927835 0.270667
vt 0.826414 0.270667
vt 0.826414 0.258944
vt 0.950615 0.258944
vt 0.950615 0.270667
vt 0.956304 0.270667
vt 0.956304 0.258944
vt 0.961993 0.258944
vt 0.961993 0.270667
vt 0.645599 0.270667
vt 0.645599 0.258944
vt 0.669342 0.258944
vt 0.669342 0.270667
vt 0.693179 0.258944
vt 0.693179 0.270667
vt 0.405327 0.108755
vt 0.411146 0.108631
vt 0.758917 0.853952
vt 0.736511 0.865521
vt 0.716999 0.874136
vt 0.704861 0.878901
vt 0.703126 0.776561
vt 0.708736 0.784736
vt 0.718122 0.796617
vt 0.730196 0.808994
vt 0.743777 0.820655
vt 0.757535 0.830459
vt 0.770123 0.837447
vt 0.780346 0.841356
vt 0.301697 0.786295
vt 0.304308 0.779424
vt 0.789167 0.827186
vt 0.774424 0.819822
vt 0.762004 0.812494
vt 0.748397 0.802435
vt 0.734934 0.790629
vt 0.722933 0.778231
vt 0.713569 0.766456
vt 0.705578 0.754988
vt 0.788547 0.754988
vt 0.334535 0.159123
vt 0.328718 0.159456
vt 0.362169 0.840163
vt 0.364780 0.833326
vt 0.328096 0.067919
vt 0.333915 0.067884
vt 0.333972 0.077428
vt 0.328155 0.077834
vt 0.313586 0.791296
vt 0.310881 0.798361
vt 0.325497 0.803807
vt 0.338876 0.815732
vt 0.336121 0.822887
vt 0.322743 0.810970
vt 0.352412 0.825903
vt 0.349707 0.832947
vt 0.349018 0.260818
vt 0.343163 0.260737
vt 0.349018 0.277750
vt 0.343176 0.277659
vt 0.348886 0.295672
vt 0.343055 0.295565
vt 0.348668 0.312944
vt 0.342846 0.312818
vt 0.348419 0.328009
vt 0.342601 0.327861
vt 0.334064 0.092591
vt 0.328247 0.092974
vt 0.334295 0.127818
vt 0.334418 0.144722
vt 0.328601 0.145059
vt 0.328478 0.128165
vt 0.348172 0.341939
vt 0.342354 0.341836
vt 0.245812 0.467892
vt 0.245811 0.477051
vt 0.163080 0.477051
vt 0.163080 0.467892
vt 0.120382 0.430745
vt 0.114665 0.446040
vt 0.105667 0.443126
vt 0.113980 0.420886
vt 0.109915 0.467892
vt 0.100604 0.466418
vt 0.109106 0.477051
vt 0.108319 0.490243
vt 0.098903 0.490243
vt 0.109915 0.512595
vt 0.100604 0.514068
vt 0.112340 0.523753
vt 0.114665 0.534447
vt 0.105667 0.537361
vt 0.122464 0.555311
vt 0.113980 0.559601
vt 0.133137 0.574722
vt 0.125358 0.580292
vt 0.141236 0.585385
vt 0.146447 0.592246
vt 0.139545 0.598971
vt 0.133990 0.591657
vt 0.162096 0.607491
vt 0.156225 0.615221
vt 0.179734 0.620118
vt 0.175026 0.628680
vt 0.190985 0.625807
vt 0.198967 0.629843
vt 0.195527 0.639046
vt 0.187019 0.634744
vt 0.219366 0.636449
vt 0.217271 0.646088
vt 0.240475 0.639790
vt 0.239771 0.649649
vt 0.245811 0.639790
vt 0.251148 0.639790
vt 0.251148 0.649649
vt 0.245460 0.649649
vt 0.251148 0.420886
vt 0.251148 0.430745
vt 0.245812 0.430745
vt 0.163080 0.430745
vt 0.163080 0.420886
vt 0.245811 0.589808
vt 0.251148 0.589808
vt 0.251148 0.600966
vt 0.245811 0.600966
vt 0.419411 0.167977
vt 0.419203 0.145826
vt 0.425021 0.145772
vt 0.425229 0.167923
vt 0.418993 0.123553
vt 0.424812 0.123498
vt 0.331029 0.254864
vt 0.330979 0.241895
vt 0.336797 0.241801
vt 0.336848 0.254841
vt 0.245811 0.487453
vt 0.251148 0.487605
vt 0.251148 0.467892
vt 0.608163 0.634503
vt 0.623395 0.592653
vt 0.643253 0.600631
vt 0.654322 0.604543
vt 0.655226 0.643356
vt 0.649891 0.643481
vt 0.628710 0.640633
vt 0.651998 0.410839
vt 0.651998 0.447986
vt 0.568965 0.447986
vt 0.568964 0.410839
vt 0.359681 0.285812
vt 0.363298 0.203160
vt 0.369125 0.203113
vt 0.365494 0.286066
vt 0.372973 0.253425
vt 0.373483 0.300051
vt 0.367665 0.300154
vt 0.367155 0.253489
vt 0.419457 0.172887
vt 0.425276 0.172832
vt 0.233661 0.585274
vt 0.234909 0.596824
vt 0.381620 0.212113
vt 0.381986 0.190269
vt 0.387804 0.190366
vt 0.387437 0.212210
vt 0.418891 0.257075
vt 0.419231 0.235762
vt 0.425052 0.235671
vt 0.424709 0.257167
vt 0.381256 0.233801
vt 0.387074 0.233899
vt 0.381045 0.246408
vt 0.386863 0.246505
vt 0.390781 0.205480
vt 0.390812 0.184038
vt 0.396631 0.184047
vt 0.396600 0.205489
vt 0.390751 0.226852
vt 0.396569 0.226860
vt 0.331425 0.357218
vt 0.337244 0.357195
vt 0.390743 0.232189
vt 0.396562 0.232197
vt 0.390687 0.271012
vt 0.396506 0.271021
vt 0.408291 0.160513
vt 0.408183 0.144184
vt 0.414002 0.144146
vt 0.414109 0.160475
vt 0.408438 0.182875
vt 0.414257 0.182836
vt 0.372829 0.240209
vt 0.367010 0.240273
vt 0.418891 0.112610
vt 0.424709 0.112555
vt 0.372584 0.217802
vt 0.366765 0.217866
vt 0.390754 0.118066
vt 0.390687 0.106403
vt 0.396506 0.106370
vt 0.396573 0.118110
vt 0.372335 0.195037
vt 0.366515 0.194934
vt 0.396695 0.139510
vt 0.390876 0.139498
vt 0.381022 0.114039
vt 0.386834 0.113762
vt 0.388095 0.140571
vt 0.382286 0.140905
vt 0.388500 0.148797
vt 0.382622 0.148074
vt 0.419587 0.213423
vt 0.425407 0.213392
vt 0.366273 0.172807
vt 0.372093 0.172855
vt 0.366149 0.161437
vt 0.371971 0.161567
vt 0.330696 0.170369
vt 0.336515 0.170400
vt 0.336615 0.195257
vt 0.330797 0.195278
vt 0.336714 0.220472
vt 0.330896 0.220536
vt 0.330864 0.212415
vt 0.215213 0.588372
vt 0.213979 0.576978
vt 0.206702 0.584080
vt 0.206701 0.573375
vt 0.191343 0.565770
vt 0.192560 0.576950
vt 0.169168 0.563678
vt 0.169660 0.553511
vt 0.163080 0.559876
vt 0.163080 0.549769
vt 0.146148 0.539183
vt 0.147325 0.549854
vt 0.129171 0.536833
vt 0.128012 0.526407
vt 0.504161 0.523311
vt 0.521181 0.536447
vt 0.539329 0.549373
vt 0.547773 0.554677
vt 0.528109 0.578112
vt 0.525126 0.574211
vt 0.514389 0.554836
vt 0.506521 0.533997
vt 0.380276 0.098219
vt 0.386064 0.097437
vt 0.382130 0.181654
vt 0.387948 0.181751
vt 0.136107 0.578632
vt 0.128523 0.584459
vt 0.538139 0.589798
vt 0.559542 0.564735
vt 0.566668 0.568865
vt 0.589662 0.582706
vt 0.604061 0.590437
vt 0.586825 0.631495
vt 0.575724 0.625516
vt 0.558419 0.612438
vt 0.543171 0.596792
vt 0.419744 0.203470
vt 0.425565 0.203423
vt 0.155736 0.555178
vt 0.155735 0.545143
vt 0.380276 0.290989
vt 0.386117 0.291028
vt 0.506247 0.466118
vt 0.552915 0.466246
vt 0.552915 0.534338
vt 0.543206 0.528421
vt 0.525150 0.515627
vt 0.506958 0.501664
vt 0.505424 0.479308
vt 0.155735 0.430745
vt 0.155735 0.420886
vt 0.155735 0.477051
vt 0.155735 0.467892
vt 0.407951 0.108832
vt 0.413768 0.108631
vt 0.349058 0.170326
vt 0.354925 0.170251
vt 0.354600 0.186392
vt 0.348710 0.186802
vt 0.347405 0.258991
vt 0.353227 0.259098
vt 0.355089 0.341808
vt 0.349272 0.341939
vt 0.414559 0.228818
vt 0.408740 0.228694
vt 0.552084 0.411563
vt 0.552084 0.448710
vt 0.506101 0.448711
vt 0.510851 0.426859
vt 0.516568 0.411564
vt 0.367665 0.093362
vt 0.373483 0.093491
vt 0.717064 0.247221
vt 0.740949 0.247221
vt 0.764786 0.247221
vt 0.788529 0.247221
vt 0.596499 0.247221
vt 0.603844 0.247221
vt 0.812142 0.247221
vt 0.817375 0.247221
vt 0.508431 0.247221
vt 0.835598 0.247221
vt 0.858885 0.247221
vt 0.882007 0.247221
vt 0.895446 0.247221
vt 0.895446 0.258944
vt 0.904980 0.247221
vt 0.927835 0.247221
vt 0.826414 0.247221
vt 0.950615 0.247221
vt 0.956304 0.247221
vt 0.961993 0.247221
vt 0.645599 0.247221
vt 0.669342 0.247221
vt 0.693179 0.247221
vt 0.363001 0.166014
vt 0.368827 0.165967
vt 0.251148 0.480211
vt 0.600916 0.563408
vt 0.579276 0.551177
vt 0.589431 0.547096
vt 0.601899 0.539896
vt 0.615489 0.529860
vt 0.628870 0.517969
vt 0.640733 0.505390
vt 0.649916 0.493352
vt 0.655386 0.485082
vt 0.655386 0.587437
vt 0.643169 0.582878
vt 0.623514 0.574595
vt 0.240554 0.495419
vt 0.237944 0.488548
vt 0.570309 0.536310
vt 0.570928 0.464112
vt 0.653897 0.464112
vt 0.645906 0.475580
vt 0.636542 0.487355
vt 0.624541 0.499752
vt 0.611078 0.511558
vt 0.597471 0.521618
vt 0.585051 0.528945
vt 0.330805 0.159123
vt 0.336621 0.159456
vt 0.177471 0.542451
vt 0.180082 0.549287
vt 0.337244 0.067919
vt 0.337184 0.077833
vt 0.331368 0.077428
vt 0.331425 0.067884
vt 0.228666 0.500420
vt 0.231370 0.507485
vt 0.219508 0.520094
vt 0.216754 0.512930
vt 0.206130 0.532011
vt 0.203376 0.524855
vt 0.192545 0.542071
vt 0.189840 0.535027
vt 0.349234 0.155908
vt 0.355089 0.155826
vt 0.349247 0.138986
vt 0.355089 0.138895
vt 0.349127 0.121080
vt 0.354957 0.120973
vt 0.348917 0.103827
vt 0.354740 0.103701
vt 0.348672 0.088784
vt 0.354490 0.088636
vt 0.331045 0.127818
vt 0.336861 0.128165
vt 0.336738 0.145059
vt 0.330921 0.144722
vt 0.354243 0.074706
vt 0.348425 0.074809
vt 0.367226 0.919556
vt 0.362518 0.910994
vt 0.355233 0.925620
vt 0.346725 0.929922
vt 0.751313 0.925380
vt 0.730765 0.931509
vt 0.709584 0.934357
vt 0.704249 0.934233
vt 0.705154 0.895419
vt 0.716222 0.891507
vt 0.736080 0.883529
vt 0.370567 0.093362
vt 0.376385 0.093465
vt 0.384278 0.233801
vt 0.378460 0.233899
vt 0.384489 0.246408
vt 0.378671 0.246505
vt 0.398995 0.205480
vt 0.393176 0.205489
vt 0.399026 0.226852
vt 0.393207 0.226860
vt 0.417097 0.112555
vt 0.422916 0.112610
vt 0.385258 0.290989
vt 0.379417 0.291028
vt 0.370567 0.300154
vt 0.376385 0.300025
vt 0.895446 0.270667
vt 0.334173 0.109902
vt 0.328357 0.110265
vt 0.358057 0.322924
vt 0.363870 0.323178
vt 0.358057 0.083430
vt 0.363865 0.083082
vt 0.407951 0.265833
vt 0.413770 0.265957
vt 0.337092 0.092974
vt 0.331276 0.092591
vt 0.336983 0.110265
vt 0.331166 0.109902
vt 0.221272 0.100295
vt 0.232995 0.100295
vt 0.232995 0.110154
vt 0.232995 0.147301
vt 0.232995 0.159620
vt 0.232995 0.167014
vt 0.232995 0.269217
vt 0.232995 0.280376
vt 0.232995 0.319199
vt 0.232995 0.329058
vt 0.221272 0.329058
vt 0.209550 0.329058
vt 0.209550 0.319199
vt 0.209550 0.280376
vt 0.209550 0.269217
vt 0.209550 0.167014
vt 0.209550 0.159620
vt 0.209550 0.147301
vt 0.209550 0.110154
vt 0.209550 0.100295
s 1
usemtl Right_Door
f 501/669/165 368/670/165 367/671/165 342/672/165
f 477/673/165 501/669/165 342/672/165 475/674/165
f 332/675/165 486/676/165 338/677/165 478/678/165
f 478/678/165 338/677/165 339/679/165 333/680/165
f 333/680/165 339/679/165 487/681/165 334/682/165 499/683/165
f 334/682/165 487/681/165 488/684/165 335/685/165
f 335/685/165 488/684/165 489/686/165 479/687/165 500/688/165
f 479/687/165 489/686/165 490/689/165 336/690/165
f 336/690/165 490/689/165 491/691/165 480/692/165
f 538/693/165 537/694/165 340/695/165 337/696/165
f 337/696/165 340/695/165 492/697/165 481/698/165
f 484/699/165 495/700/165 341/701/165 485/702/165
f 497/703/165 496/704/165 327/705/165 472/706/165
f 473/707/165 544/708/165 369/709/165 498/710/165 474/711/165
f 485/702/165 341/701/165 496/704/165 497/703/165
f 343/712/165 344/713/165 328/714/165 476/715/165
f 480/716/166 346/717/166 345/718/167 336/719/167
f 336/719/167 345/718/167 507/720/168 479/721/168
f 344/713/165 497/703/165 472/706/165 328/714/165
f 343/722/169 514/723/169 355/724/170 520/725/171
f 385/726/165 343/712/165 476/715/165 331/727/165
f 348/728/165 551/729/165 545/730/165 349/731/165
f 501/732/172 349/733/172 545/734/172 368/735/172
f 364/736/173 542/737/173 346/717/166 480/716/166
f 520/738/165 352/739/165 344/713/165 343/712/165
f 481/740/174 508/741/174 347/742/175 337/743/175
f 500/744/176 518/745/176 359/746/177 524/747/178
f 498/748/179 348/749/179 349/733/179 501/732/179
f 385/750/179 562/751/179 514/723/179 343/722/179
f 344/752/180 517/753/180 513/754/179 497/755/179
f 478/756/181 502/757/181 503/758/182 332/759/182
f 333/760/183 504/761/183 502/757/181 478/756/181
f 334/762/184 506/763/184 516/764/185 499/765/185
f 335/766/186 505/767/186 506/763/184 334/762/184
f 352/768/187 529/769/188 517/770/180 344/771/180
f 350/772/189 356/773/190 505/767/186 335/766/186
f 352/768/187 354/774/191 532/775/191 529/769/188
f 353/776/192 526/777/193 360/778/194 531/779/192
f 526/777/193 541/780/195 540/781/195 360/778/194
f 525/782/196 524/747/178 359/746/177 530/783/197
f 350/772/189 523/784/198 358/785/199 356/773/190
f 523/784/198 543/786/200 549/787/200 358/785/199
f 522/788/201 351/789/202 528/790/202 357/791/201
f 351/789/202 361/792/203 521/793/204 527/794/205 528/790/202
f 521/793/204 520/725/171 355/724/170 527/794/205
f 520/738/165 521/795/165 354/796/165 352/739/165
f 521/795/165 361/797/165 536/798/165 354/796/165
f 351/799/165 522/800/165 526/801/165 353/802/165
f 522/800/165 362/803/165 541/804/165 526/801/165
f 523/805/165 350/806/165 524/807/165 525/808/165
f 335/685/165 500/688/165 524/807/165 350/806/165
f 483/809/165 354/796/165 536/798/165 533/810/165
f 518/811/165 507/812/165 345/813/165 346/814/165 542/815/165 365/816/165 530/817/165 359/818/165
f 536/819/206 353/776/192 531/779/192 535/820/206
f 361/797/165 351/799/165 353/802/165 536/798/165
f 337/743/175 347/742/175 539/821/173 538/822/173
f 364/823/165 363/824/165 537/694/165 538/693/165
f 539/825/165 347/826/165 508/827/165 509/828/165 534/829/165 535/830/165 531/831/165 360/832/165 540/833/165
f 366/834/207 365/835/207 542/737/207 364/736/207
f 362/803/165 543/836/165 366/837/165 541/804/165
f 480/692/165 491/691/165 363/824/165 364/823/165
f 538/693/165 541/804/165 366/837/165 364/823/165
f 366/834/208 525/782/196 530/783/197 365/835/208
f 543/836/165 523/805/165 525/808/165 366/837/165
f 532/775/209 354/774/209 483/838/209 510/839/209
f 516/840/165 506/841/165 505/842/165 356/843/165 358/844/165 549/845/165 550/846/165
f 544/708/165 370/847/165 548/848/165 369/709/165
f 368/670/165 371/849/165 547/850/165 367/671/165
f 548/851/210 332/759/182 503/758/182 374/852/210
f 571/853/211 546/854/212 362/855/212 386/856/213
f 370/847/165 486/676/165 332/675/165 548/848/165
f 371/849/165 333/680/165 499/683/165 547/850/165
f 373/857/210 515/858/210 342/859/210 367/860/210
f 547/850/165 543/836/165 362/803/165 367/671/165
f 372/861/172 504/761/172 333/760/172 371/862/172
f 374/863/165 503/864/165 502/865/165 504/866/165 372/867/165
f 368/670/165 369/709/165 548/848/165 371/849/165
f 551/868/210 348/869/210 498/870/210 369/871/210
f 487/872/179 384/873/179 561/874/214 488/875/214
f 488/875/214 561/874/214 383/876/215 489/877/215
f 489/877/215 383/876/215 382/878/216 490/879/216
f 544/880/172 381/881/172 558/882/172 370/883/172
f 490/879/216 382/878/216 380/884/217 491/885/217
f 491/885/217 380/884/217 557/886/218 363/887/218
f 473/888/172 330/889/172 381/881/172 544/880/172
f 340/890/219 556/891/219 379/892/220 492/893/220
f 492/893/220 379/892/220 555/894/221 493/895/221
f 494/896/222 559/897/222 378/898/223 495/899/223
f 537/900/218 377/901/218 556/891/219 340/890/219
f 495/899/223 378/898/223 554/902/224 341/903/224
f 496/904/210 553/905/210 329/906/210 327/907/210
f 363/887/218 557/886/218 377/901/218 537/900/218
f 341/903/224 554/902/224 553/905/210 496/904/210
f 486/908/225 376/909/225 552/910/226 338/911/226
f 338/911/226 552/910/226 375/912/227 339/913/227
f 339/913/227 375/912/227 384/873/179 487/872/179
f 370/883/172 558/882/172 376/909/172 486/908/172
f 362/855/228 546/854/228 373/857/228 367/860/228
f 548/914/229 374/915/229 372/861/229 371/862/229
f 368/735/230 545/734/230 551/868/230 369/871/230
f 342/672/165 385/726/165 331/727/165 475/674/165
f 528/916/165 527/917/165 355/918/165 514/919/165 562/920/165 393/921/165 577/922/165 576/923/165 575/924/165 394/925/165 574/926/165 357/927/165
f 565/928/165 385/726/165 342/672/165 387/929/165
f 546/930/165 571/931/165 573/932/165 392/933/165 572/934/165 391/935/165 570/936/165 515/937/165 373/938/165
f 390/939/231 522/788/232 357/791/232 574/940/233
f 522/800/165 390/941/165 386/942/165 362/803/165
f 562/943/234 385/944/234 565/945/235 393/946/236
f 387/929/165 564/947/165 566/948/165 565/928/165
f 563/949/165 389/950/165 568/951/165 567/952/165
f 389/950/165 388/953/165 569/954/165 568/951/165
f 388/953/165 386/942/165 390/941/165 569/954/165
f 386/856/213 388/955/237 573/956/238 571/853/211
f 388/955/237 389/957/239 392/958/240 573/956/238
f 389/957/239 563/959/241 572/960/242 392/958/240
f 563/959/241 564/961/243 391/962/244 572/960/242
f 564/961/243 387/963/245 570/964/246 391/962/244
f 565/945/235 566/965/247 577/966/248 393/946/236
f 568/967/249 569/968/250 394/969/251 575/970/252
f 569/968/250 390/939/231 574/940/233 394/969/251
f 342/971/253 515/972/253 570/964/246 387/963/245
f 598/973/254 596/974/254 459/975/254 460/976/254
f 399/977/254 583/978/254 588/979/254 408/980/254
f 583/978/254 400/981/254 589/982/254 588/979/254
f 400/981/254 417/983/254 584/984/254 590/985/254 589/982/254
f 584/984/254 401/986/254 409/987/254 590/985/254
f 401/986/254 419/988/254 402/989/254 410/990/254 409/987/254
f 402/989/254 403/991/254 411/992/254 410/990/254
f 403/991/254 585/993/254 591/994/254 411/992/254
f 621/995/254 586/996/254 412/997/254 450/998/254
f 586/996/254 404/999/254 413/1000/254 412/997/254
f 404/999/254 587/1001/254 414/1002/254 413/1000/254
f 446/1003/254 405/1004/254 592/1005/254 609/1006/254
f 405/1004/254 406/1007/254 415/1008/254 592/1005/254
f 406/1007/254 407/1009/254 416/1010/254 415/1008/254
f 594/1011/254 395/1012/254 578/1013/254 593/1014/254
f 579/1015/254 396/1016/254 595/1017/254 627/1018/254 457/1019/254
f 407/1009/254 594/1011/254 593/1014/254 416/1010/254
f 418/1020/254 581/1021/254 397/1022/254 597/1023/254
f 585/1024/166 403/1025/167 423/1026/167 424/1027/166
f 403/1025/167 402/1028/168 601/1029/168 423/1026/167
f 597/1023/254 397/1022/254 395/1012/254 594/1011/254
f 418/1030/169 432/1031/255 612/1032/256 606/1033/169
f 463/1034/254 398/1035/254 581/1021/254 418/1020/254
f 396/1016/254 582/1036/254 598/973/254 595/1017/254
f 427/1037/254 445/1038/254 442/1039/254 607/1040/254 429/1041/254 603/1042/254 428/1043/254
f 604/1044/254 605/1045/254 458/1046/254 635/1047/254
f 598/1048/172 460/1049/172 458/1050/172 605/1051/172
f 417/1052/210 461/1053/210 633/1054/210 431/1055/210
f 454/1056/173 585/1024/166 424/1027/166 455/1057/173
f 432/1058/254 418/1020/254 597/1023/254 437/1059/254
f 404/1060/174 586/1061/175 602/1062/175 425/1063/174
f 419/1064/176 436/1065/257 618/1066/258 608/1067/176
f 587/1068/259 404/1060/174 425/1063/174 426/1069/259
f 446/1070/260 587/1068/259 426/1069/259 620/1071/260
f 406/1072/261 405/1073/262 427/1074/262 428/1075/261
f 407/1076/263 406/1072/261 428/1075/261 603/1077/263
f 463/1078/179 418/1030/179 606/1033/179 636/1079/179
f 594/1080/172 407/1076/263 603/1077/263 429/1081/172
f 597/1082/180 594/1080/179 429/1081/179 607/1083/180
f 583/1084/181 399/1085/182 421/1086/182 420/1087/181
f 400/1088/183 583/1084/181 420/1087/181 422/1089/183
f 584/1090/184 417/1052/185 431/1055/185 600/1091/184
f 402/1028/168 419/1092/264 608/1093/264 601/1029/168
f 401/1094/186 584/1090/184 600/1091/184 599/1095/186
f 437/1096/265 597/1097/180 607/1098/180 442/1099/266
f 433/1100/267 401/1094/186 599/1095/186 613/1101/268
f 437/1096/265 442/1099/266 445/1102/269 441/1103/269
f 440/1104/270 444/1105/270 619/1106/271 439/1107/272
f 439/1107/272 619/1106/271 622/1108/273 452/1109/273
f 438/1110/274 443/1111/275 618/1066/258 436/1065/257
f 433/1100/267 613/1101/268 617/1112/276 435/1113/277
f 435/1113/277 617/1112/276 462/1114/278 456/1115/278
f 611/1116/279 616/1117/279 615/1118/280 434/1119/280
f 434/1119/280 615/1118/280 614/1120/281 610/1121/282 448/1122/283
f 610/1121/282 614/1120/281 612/1032/256 432/1031/255
f 432/1058/254 437/1059/254 441/1123/254 610/1124/254
f 610/1124/254 441/1123/254 449/1125/254 448/1126/254
f 434/1127/254 440/1128/254 439/1129/254 611/1130/254
f 611/1130/254 439/1129/254 452/1131/254 453/1132/254
f 435/1133/254 438/1134/254 436/1135/254 433/1136/254
f 401/986/254 433/1136/254 436/1135/254 419/988/254
f 405/1004/254 446/1003/254 449/1125/254 441/1123/254
f 587/1001/254 446/1003/254 609/1006/254 414/1002/254
f 608/1137/254 618/1138/254 443/1139/254 624/1140/254 455/1141/254 424/1142/254 423/1143/254 601/1144/254
f 449/1145/284 447/1146/284 444/1105/270 440/1104/270
f 448/1126/254 449/1125/254 440/1128/254 434/1127/254
f 586/1061/175 621/1147/173 451/1148/173 602/1062/175
f 454/1149/254 621/995/254 450/998/254 623/1150/254
f 451/1151/254 622/1152/254 619/1153/254 444/1154/254 447/1155/254 620/1156/254 426/1157/254 425/1158/254 602/1159/254
f 625/1160/285 454/1056/285 455/1057/285 624/1161/285
f 453/1132/254 452/1131/254 625/1162/254 456/1163/254
f 585/993/254 454/1149/254 623/1150/254 591/994/254
f 621/995/254 454/1149/254 625/1162/254 452/1131/254
f 625/1160/286 624/1161/286 443/1111/275 438/1110/274
f 456/1163/254 625/1162/254 438/1134/254 435/1133/254
f 621/1147/287 452/1109/287 622/1108/287 451/1148/287
f 449/1164/288 446/1070/288 620/1071/288 447/1165/288
f 445/1102/289 427/1074/289 405/1073/289 441/1103/289
f 431/1166/254 633/1167/254 462/1168/254 617/1169/254 613/1170/254 599/1171/254 600/1172/254
f 457/1019/254 627/1018/254 631/1173/254 628/1174/254
f 460/976/254 459/975/254 461/1175/254 629/1176/254
f 631/1177/210 634/1178/210 421/1086/182 399/1085/182
f 644/1179/290 637/1180/291 453/1181/292 626/1182/292
f 628/1174/254 631/1173/254 399/977/254 408/980/254
f 629/1176/254 461/1175/254 417/983/254 400/981/254
f 632/1183/210 459/1184/210 596/1185/210 430/1186/210
f 461/1175/254 459/975/254 453/1132/254 456/1163/254
f 630/1187/172 629/1188/172 400/1088/172 422/1089/172
f 634/1189/254 630/1190/254 422/1191/254 420/1192/254 421/1193/254
f 460/976/254 629/1176/254 631/1173/254 627/1018/254
f 633/1194/293 461/1195/293 456/1115/293 462/1114/293
f 590/1196/179 409/1197/214 561/874/214 384/873/179
f 409/1197/214 410/1198/215 383/876/215 561/874/214
f 410/1198/215 411/1199/216 382/878/216 383/876/215
f 457/1200/172 628/1201/172 558/882/172 381/881/172
f 411/1199/216 591/1202/217 380/884/217 382/878/216
f 591/1202/217 623/1203/218 557/886/218 380/884/217
f 579/1204/172 457/1200/172 381/881/172 330/889/172
f 412/1205/219 413/1206/220 379/892/220 556/891/219
f 413/1206/220 414/1207/221 555/894/221 379/892/220
f 414/1207/221 609/1208/294 560/1209/294 555/894/221
f 592/1210/222 415/1211/223 378/898/223 559/897/222
f 450/1212/218 412/1205/219 556/891/219 377/901/218
f 415/1211/223 416/1213/224 554/902/224 378/898/223
f 593/1214/210 578/1215/210 329/906/210 553/905/210
f 623/1203/218 450/1212/218 377/901/218 557/886/218
f 416/1213/224 593/1214/210 553/905/210 554/902/224
f 408/1216/225 588/1217/226 552/910/226 376/909/225
f 588/1217/226 589/1218/227 375/912/227 552/910/226
f 589/1218/227 590/1196/179 384/873/179 375/912/227
f 628/1201/172 408/1216/172 376/909/172 558/882/172
f 453/1181/295 459/1184/295 632/1183/295 626/1182/295
f 460/1049/296 627/1219/296 635/1220/296 458/1050/296
f 596/974/254 580/1221/254 398/1035/254 463/1034/254
f 615/1222/254 616/1223/254 648/1224/254 471/1225/254 650/1226/254 651/1227/254 652/1228/254 649/1229/254 636/1230/254 606/1231/254 612/1232/254 614/1233/254
f 640/1234/254 638/1235/254 596/974/254 463/1034/254
f 626/1236/254 632/1237/254 430/1238/254 469/1239/254 645/1240/254 646/1241/254 647/1242/254 470/1243/254 644/1244/254
f 467/1245/297 648/1246/298 616/1117/299 611/1116/299
f 611/1130/254 453/1132/254 637/1247/254 467/1248/254
f 636/1249/300 649/1250/301 640/1251/302 463/1252/300
f 639/1253/254 641/1254/254 642/1255/254 466/1256/254
f 466/1256/254 642/1255/254 643/1257/254 465/1258/254
f 465/1258/254 643/1257/254 468/1259/254 464/1260/254
f 464/1260/254 468/1259/254 467/1248/254 637/1247/254
f 637/1180/291 644/1179/290 470/1261/303 464/1262/304
f 464/1262/304 470/1261/303 647/1263/305 465/1264/306
f 465/1264/306 647/1263/305 646/1265/307 466/1266/308
f 466/1266/308 646/1265/307 645/1267/309 639/1268/310
f 639/1268/310 645/1267/309 469/1269/311 638/1270/312
f 643/1271/313 650/1272/314 471/1273/315 468/1274/316
f 468/1274/316 471/1273/315 648/1246/298 467/1245/297
f 596/1275/317 638/1270/312 469/1269/311 430/1276/317
f 481/698/165 492/697/165 493/1277/165 482/1278/165
f 533/810/165 519/1279/165 494/1280/165 483/809/165
f 483/809/165 494/1280/165 495/700/165 484/699/165
f 474/711/165 498/710/165 501/669/165 477/673/165
f 510/1281/165 511/1282/165 512/1283/165 513/1284/165 517/1285/165 529/1286/165 532/1287/165
f 499/765/210 516/764/210 550/1288/210 547/1289/210
f 482/1290/259 509/1291/259 508/741/174 481/740/174
f 533/1292/260 534/1293/260 509/1291/259 482/1290/259
f 484/1294/261 511/1295/261 510/839/262 483/838/262
f 485/1296/263 512/1297/263 511/1295/261 484/1294/261
f 497/755/172 513/754/172 512/1297/263 485/1296/263
f 479/721/168 507/720/168 518/1298/264 500/1299/264
f 482/1278/165 493/1277/165 519/1279/165 533/810/165
f 538/822/318 539/821/318 540/781/318 541/780/318
f 536/1300/319 535/1301/319 534/1293/319 533/1292/319
f 550/1302/320 549/787/320 543/786/320 547/1303/320
f 519/1304/294 560/1209/294 559/897/222 494/896/222
f 493/895/221 555/894/221 560/1209/294 519/1304/294
f 564/947/165 563/949/165 567/952/165 566/948/165
f 566/965/247 567/1305/321 576/1306/322 577/966/248
f 567/1305/321 568/967/249 575/970/252 576/1306/322
f 582/1036/254 580/1221/254 596/974/254 598/973/254
f 595/1307/179 598/1048/179 605/1051/179 604/1308/179
f 635/1220/210 627/1219/210 595/1309/210 604/1310/210
f 609/1208/294 592/1210/222 559/897/222 560/1209/294
f 631/1311/323 629/1188/323 630/1187/323 634/1312/323
f 638/1235/254 640/1234/254 641/1254/254 639/1253/254
f 640/1251/302 649/1250/301 652/1313/324 641/1314/325
f 641/1314/325 652/1313/324 651/1315/326 642/1316/327
f 642/1316/327 651/1315/326 650/1272/314 643/1271/313
f 330/1317/328 473/1318/328 474/1319/328 477/1320/328 475/1321/328 331/1322/328 476/1323/328 328/1324/328 472/1325/328 327/1326/328 329/1327/328 578/1328/328 395/1329/328 397/1330/328 581/1331/328 398/1332/328 580/1333/328 582/1334/328 396/1335/328 579/1336/328
