# Blender 4.3.2
# www.blender.org
mtllib Waterway Gate.mtl
o Waterway_Gate
v 0.138633 -0.000330 0.710810
v 0.138633 0.223079 0.679231
v 0.138633 0.328532 0.640418
v 0.138633 0.426638 0.587299
v 0.138633 0.515206 0.521061
v 0.138633 0.592258 0.443183
v 0.138633 0.656072 0.355405
v 0.138633 0.705224 0.259688
v 0.138633 0.738615 0.158170
v 0.138633 0.755499 0.053119
v 0.138633 0.755499 0.000000
v 0.138633 0.755499 0.026559
v 0.138633 0.684826 0.299411
v 0.138633 0.480527 0.546996
v 0.138633 0.446399 0.572520
v 0.000000 0.755499 0.000000
v 0.000000 0.755499 0.026559
v 0.000000 0.755499 0.053119
v 0.000000 0.480527 0.546996
v 0.000000 0.738615 0.158170
v 0.000000 0.656072 0.355405
v 0.000000 0.592258 0.443183
v 0.000000 0.515206 0.521061
v 0.000000 0.446399 0.572520
v 0.000000 0.426638 0.587299
v 0.000000 0.705224 0.259688
v 0.000000 0.684826 0.299411
v 0.000000 0.328532 0.640418
v 0.000000 0.223079 0.679231
v -0.000000 -0.000330 0.710810
v 0.138633 -0.000330 -0.710810
v 0.138633 0.223079 -0.679231
v 0.138633 0.328532 -0.640418
v 0.138633 0.426638 -0.587299
v 0.138633 0.515206 -0.521061
v 0.138633 0.592258 -0.443183
v 0.138633 0.656072 -0.355405
v 0.138633 0.705224 -0.259688
v 0.138633 0.738615 -0.158170
v 0.138633 0.755499 -0.053119
v 0.138633 0.755499 -0.026559
v 0.138633 0.684826 -0.299411
v 0.138633 0.480527 -0.546996
v 0.138633 0.446399 -0.572520
v 0.000000 0.755499 -0.026559
v 0.000000 0.755499 -0.053119
v 0.000000 0.480527 -0.546996
v 0.000000 0.738615 -0.158170
v 0.000000 0.656072 -0.355405
v 0.000000 0.592258 -0.443183
v 0.000000 0.515206 -0.521061
v 0.000000 0.446399 -0.572520
v 0.000000 0.426638 -0.587299
v 0.000000 0.705224 -0.259688
v 0.000000 0.684826 -0.299411
v 0.000000 0.328532 -0.640418
v 0.000000 0.223079 -0.679231
v -0.000000 -0.000330 -0.710810
v -0.138633 -0.000330 0.710810
v -0.138633 0.223079 0.679231
v -0.138633 0.328532 0.640418
v -0.138633 0.426638 0.587299
v -0.138633 0.515206 0.521061
v -0.138633 0.592258 0.443183
v -0.138633 0.656072 0.355405
v -0.138633 0.705224 0.259688
v -0.138633 0.738615 0.158170
v -0.138633 0.755499 0.053119
v -0.138633 0.755499 0.000000
v -0.138633 0.755499 0.026559
v -0.138633 0.684826 0.299411
v -0.138633 0.480527 0.546996
v -0.138633 0.446399 0.572520
v -0.138633 -0.000330 -0.710810
v -0.138633 0.223079 -0.679231
v -0.138633 0.328532 -0.640418
v -0.138633 0.426638 -0.587299
v -0.138633 0.515206 -0.521061
v -0.138633 0.592258 -0.443183
v -0.138633 0.656072 -0.355405
v -0.138633 0.705224 -0.259688
v -0.138633 0.738615 -0.158170
v -0.138633 0.755499 -0.053119
v -0.138633 0.755499 -0.026559
v -0.138633 0.684826 -0.299411
v -0.138633 0.480527 -0.546996
v -0.138633 0.446399 -0.572520
v 0.000000 0.891210 0.031960
v 0.140875 0.891210 0.031960
v 0.000000 0.578056 0.658214
v 0.140875 0.578056 0.658214
v 0.140875 -0.000000 0.866028
v 0.140875 0.284858 0.817336
v 0.140875 0.404953 0.770631
v 0.140875 0.516683 0.706712
v 0.140875 0.539188 0.688928
v 0.140875 0.705301 0.533293
v 0.140875 0.617550 0.627006
v 0.140875 0.777977 0.427668
v 0.140875 0.810724 0.360288
v 0.140875 0.871982 0.190330
v 0.140875 0.833954 0.312489
v 0.140875 0.891210 0.063919
v 0.000000 0.617550 0.627006
v 0.000000 0.810724 0.360288
v 0.140875 0.891210 -0.000000
v 0.000000 0.000000 0.866028
v 0.000000 0.891210 -0.000000
v 0.000000 0.891210 0.063919
v 0.000000 0.871982 0.190330
v 0.000000 0.777977 0.427668
v 0.000000 0.705301 0.533293
v 0.000000 0.539188 0.688928
v 0.000000 0.516683 0.706712
v 0.000000 0.833954 0.312489
v 0.000000 0.404953 0.770631
v 0.000000 0.284858 0.817336
v 0.000000 0.891210 -0.031960
v 0.140875 0.891210 -0.031960
v 0.000000 0.578056 -0.658214
v 0.140875 0.578056 -0.658214
v 0.140875 -0.000000 -0.866028
v 0.140875 0.284858 -0.817336
v 0.140875 0.404953 -0.770631
v 0.140875 0.516683 -0.706712
v 0.140875 0.539188 -0.688928
v 0.140875 0.705301 -0.533293
v 0.140875 0.617550 -0.627006
v 0.140875 0.777977 -0.427668
v 0.140875 0.810724 -0.360288
v 0.140875 0.871982 -0.190330
v 0.140875 0.833954 -0.312489
v 0.140875 0.891210 -0.063919
v 0.000000 0.617550 -0.627006
v 0.000000 0.810724 -0.360288
v 0.000000 0.000000 -0.866028
v 0.000000 0.891210 -0.063919
v 0.000000 0.871982 -0.190330
v 0.000000 0.777977 -0.427668
v 0.000000 0.705301 -0.533293
v 0.000000 0.539188 -0.688928
v 0.000000 0.516683 -0.706712
v 0.000000 0.833954 -0.312489
v 0.000000 0.404953 -0.770631
v 0.000000 0.284858 -0.817336
v -0.140875 0.891210 0.031960
v -0.140875 0.578056 0.658214
v -0.140875 0.000000 0.866028
v -0.140875 0.284858 0.817336
v -0.140875 0.404953 0.770631
v -0.140875 0.516683 0.706712
v -0.140875 0.539188 0.688928
v -0.140875 0.705301 0.533293
v -0.140875 0.617550 0.627006
v -0.140875 0.777977 0.427668
v -0.140875 0.810724 0.360288
v -0.140875 0.871982 0.190330
v -0.140875 0.833954 0.312489
v -0.140875 0.891210 0.063919
v -0.140875 0.891210 -0.000000
v -0.140875 0.891210 -0.031960
v -0.140875 0.578056 -0.658214
v -0.140875 0.000000 -0.866028
v -0.140875 0.284858 -0.817336
v -0.140875 0.404953 -0.770631
v -0.140875 0.516683 -0.706712
v -0.140875 0.539188 -0.688928
v -0.140875 0.705301 -0.533293
v -0.140875 0.617550 -0.627006
v -0.140875 0.777977 -0.427668
v -0.140875 0.810724 -0.360288
v -0.140875 0.871982 -0.190330
v -0.140875 0.833954 -0.312489
v -0.140875 0.891210 -0.063919
v 0.138633 0.149797 0.694917
v 0.138633 0.074552 0.705548
v 0.000000 0.074559 0.705547
v 0.000000 0.149798 0.694917
v 0.138633 0.074552 -0.705548
v 0.138633 0.149797 -0.694917
v 0.000000 0.149798 -0.694917
v 0.000000 0.074559 -0.705547
v -0.138633 0.074552 0.705548
v -0.138633 0.149797 0.694917
v -0.138633 0.149797 -0.694917
v -0.138633 0.074552 -0.705548
v 0.141838 0.108235 0.856656
v 0.141830 0.182986 0.843807
v 0.000000 0.182986 0.843807
v 0.000000 0.108238 0.856655
v 0.141830 0.182986 -0.843807
v 0.141838 0.108235 -0.856656
v 0.000000 0.108238 -0.856655
v 0.000000 0.182986 -0.843807
v -0.141830 0.182986 0.843807
v -0.141838 0.108235 0.856656
v -0.141838 0.108235 -0.856656
v -0.141830 0.182986 -0.843807
vn 0.9998 -0.0012 -0.0199
vn 0.9999 -0.0020 -0.0168
vn 0.9999 -0.0025 -0.0164
vn -0.0000 -0.0701 -0.9975
vn -0.0000 -0.1051 -0.9945
vn -0.0000 -0.2781 -0.9606
vn -0.0000 -0.4118 -0.9113
vn -0.0000 -0.8896 -0.4568
vn -0.0000 -0.9226 -0.3858
vn -0.0000 -0.5390 -0.8423
vn -0.0000 -0.5989 -0.8008
vn -0.0000 -0.6567 -0.7542
vn -0.0000 -0.7620 -0.6475
vn -0.0000 -0.8517 -0.5240
vn -0.0000 -0.9717 -0.2363
vn -0.0000 -0.9968 -0.0796
vn -0.0000 -1.0000 -0.0000
vn 0.9999 -0.0020 0.0168
vn 0.9998 -0.0012 0.0199
vn 0.9999 -0.0025 0.0164
vn -0.0000 -0.0701 0.9975
vn -0.0000 -0.1051 0.9945
vn -0.0000 -0.2781 0.9606
vn -0.0000 -0.4118 0.9113
vn -0.0000 -0.8896 0.4568
vn -0.0000 -0.9226 0.3858
vn -0.0000 -0.5390 0.8423
vn -0.0000 -0.5989 0.8008
vn -0.0000 -0.6567 0.7542
vn -0.0000 -0.7620 0.6475
vn -0.0000 -0.8517 0.5240
vn -0.0000 -0.9717 0.2363
vn -0.0000 -0.9968 0.0796
vn -0.0000 -0.1747 -0.9846
vn 0.9998 -0.0050 0.0187
vn 0.9998 -0.0066 0.0170
vn 0.9998 -0.0048 0.0189
vn -0.0000 -0.1747 0.9846
vn -0.9998 -0.0050 -0.0187
vn -0.9998 -0.0066 -0.0170
vn -0.9998 -0.0048 -0.0189
vn -0.0000 0.2105 0.9776
vn -0.0000 0.3073 0.9516
vn -0.0000 0.3075 0.9515
vn -0.0000 0.2106 0.9776
vn -0.0000 0.0863 0.9963
vn -0.0000 0.1280 0.9918
vn -0.0000 0.1281 0.9918
vn -0.0000 0.4307 0.9025
vn -0.0000 0.8994 0.4371
vn -0.0000 0.9297 0.3682
vn -0.0000 0.5598 0.8286
vn -0.0000 0.6200 0.7846
vn -0.0000 0.6769 0.7361
vn -0.0000 0.7791 0.6269
vn -0.0000 0.8641 0.5034
vn -0.0000 0.9745 0.2244
vn -0.0000 0.9972 0.0754
vn -0.0000 1.0000 -0.0000
vn -0.0000 0.2105 -0.9776
vn -0.0000 0.2106 -0.9776
vn -0.0000 0.3075 -0.9515
vn -0.0000 0.3073 -0.9516
vn -0.0000 0.0863 -0.9963
vn -0.0000 0.1281 -0.9918
vn -0.0000 0.1280 -0.9918
vn -0.0000 0.4307 -0.9025
vn -0.0000 0.8994 -0.4371
vn -0.0000 0.9297 -0.3682
vn -0.0000 0.5598 -0.8286
vn -0.0000 0.6200 -0.7846
vn -0.0000 0.6769 -0.7361
vn -0.0000 0.7791 -0.6269
vn -0.0000 0.8641 -0.5034
vn -0.0000 0.9745 -0.2244
vn -0.0000 0.9972 -0.0754
vn -0.9999 -0.0149 0.0061
vn -0.9999 -0.0159 0.0037
vn -0.9999 -0.0164 0.0013
vn -0.9999 -0.0165 -0.0000
vn 0.9999 -0.0062 -0.0136
vn 0.9999 -0.0064 -0.0135
vn 0.9999 -0.0082 -0.0125
vn 0.9999 -0.0083 -0.0125
vn -0.9999 -0.0143 0.0071
vn 0.9999 -0.0092 -0.0119
vn -0.9999 -0.0020 -0.0168
vn -0.9998 -0.0012 -0.0199
vn -0.9999 -0.0025 -0.0164
vn 0.9999 -0.0062 0.0136
vn 0.9999 -0.0064 0.0135
vn -0.9999 -0.0093 0.0120
vn -0.9999 -0.0102 0.0114
vn 0.9999 -0.0102 -0.0114
vn 0.9999 -0.0119 -0.0099
vn 0.9999 -0.0120 -0.0099
vn -0.9998 -0.0066 0.0170
vn -0.9998 -0.0050 0.0187
vn -0.9998 -0.0048 0.0189
vn 0.9999 -0.0082 0.0125
vn 0.9999 -0.0083 0.0125
vn -0.9999 -0.0092 0.0119
vn 0.9999 -0.0135 -0.0081
vn -0.9999 -0.0062 -0.0136
vn -0.9999 -0.0064 -0.0135
vn 0.9999 -0.0092 0.0119
vn 0.9999 -0.0143 -0.0071
vn -0.9999 -0.0082 -0.0125
vn -0.9999 -0.0083 -0.0125
vn 0.9999 -0.0119 0.0099
vn 0.9999 -0.0102 0.0114
vn 0.9999 -0.0120 0.0099
vn 0.9999 -0.0149 -0.0061
vn 0.9999 -0.0159 -0.0037
vn 0.9999 -0.0159 -0.0038
vn -0.9999 -0.0092 -0.0119
vn 0.9999 -0.0135 0.0081
vn 0.9999 -0.0164 -0.0013
vn -0.9999 -0.0119 -0.0099
vn -0.9999 -0.0102 -0.0114
vn -0.9999 -0.0120 -0.0099
vn 0.9999 -0.0143 0.0071
vn 0.9999 -0.0165 -0.0000
vn -0.9999 -0.0135 -0.0081
vn 0.9999 -0.0159 0.0037
vn 0.9999 -0.0149 0.0061
vn 0.9999 -0.0159 0.0038
vn -0.9999 -0.0143 -0.0071
vn 0.9999 -0.0164 0.0013
vn -0.9999 -0.0159 -0.0037
vn -0.9999 -0.0149 -0.0061
vn -0.9999 -0.0164 -0.0013
vn -0.9998 -0.0012 0.0199
vn -0.9999 -0.0020 0.0168
vn -0.9999 -0.0025 0.0164
vn 0.9999 -0.0093 -0.0120
vn -0.9999 -0.0062 0.0136
vn -0.9999 -0.0064 0.0135
vn -0.9999 -0.0082 0.0125
vn -0.9999 -0.0083 0.0125
vn 0.9999 -0.0093 0.0120
vn -0.9999 -0.0119 0.0099
vn -0.9999 -0.0120 0.0099
vn -0.9999 -0.0093 -0.0120
vn -0.9999 -0.0135 0.0081
vn 0.9998 -0.0048 -0.0189
vn 0.9998 -0.0050 -0.0187
vn 0.9998 -0.0066 -0.0170
vt 0.060962 0.726056
vt 0.066717 0.752531
vt 0.033786 0.770158
vt 0.026572 0.738263
vt 0.958244 0.179801
vt 0.957876 0.201964
vt 0.918036 0.201316
vt 0.918405 0.179151
vt 0.877453 0.245330
vt 0.917294 0.245981
vt 0.916741 0.279301
vt 0.876899 0.278648
vt 0.874384 0.429838
vt 0.914230 0.430493
vt 0.914004 0.444062
vt 0.874159 0.443406
vt 0.916189 0.312514
vt 0.876347 0.311861
vt 0.916067 0.319896
vt 0.876224 0.319243
vt 0.875796 0.344947
vt 0.915640 0.345601
vt 0.915092 0.378551
vt 0.875248 0.377896
vt 0.914547 0.411366
vt 0.874702 0.410711
vt 0.913462 0.476662
vt 0.873616 0.476006
vt 0.876012 0.331992
vt 0.915855 0.332646
vt 0.912922 0.509202
vt 0.873075 0.508546
vt 0.872940 0.516675
vt 0.912787 0.517332
vt 0.912652 0.525462
vt 0.872804 0.524805
vt 0.565165 0.752531
vt 0.570921 0.726056
vt 0.605310 0.738263
vt 0.598096 0.770158
vt 0.867044 0.871109
vt 0.867413 0.848947
vt 0.907267 0.849608
vt 0.906899 0.871773
vt 0.868156 0.804280
vt 0.868710 0.770962
vt 0.908562 0.771624
vt 0.908009 0.804943
vt 0.871225 0.619772
vt 0.871450 0.606204
vt 0.911300 0.606863
vt 0.911074 0.620431
vt 0.869262 0.737749
vt 0.909114 0.738410
vt 0.869385 0.730367
vt 0.909237 0.731028
vt 0.869813 0.704663
vt 0.870361 0.671713
vt 0.910211 0.672374
vt 0.909664 0.705324
vt 0.870907 0.638899
vt 0.910756 0.639558
vt 0.871993 0.573604
vt 0.911841 0.574262
vt 0.869597 0.717617
vt 0.909449 0.718278
vt 0.872534 0.541064
vt 0.912382 0.541722
vt 0.872669 0.532935
vt 0.912517 0.533592
vt 0.957503 0.224474
vt 0.957135 0.246633
vt 0.917662 0.223823
vt 0.574821 0.698872
vt 0.576752 0.671819
vt 0.611215 0.682331
vt 0.608773 0.715211
vt 0.956583 0.279953
vt 0.954075 0.431148
vt 0.953849 0.444717
vt 0.956032 0.313167
vt 0.955909 0.320549
vt 0.955483 0.346254
vt 0.954936 0.379205
vt 0.954392 0.412021
vt 0.953309 0.477319
vt 0.955698 0.333299
vt 0.952769 0.509859
vt 0.952634 0.517989
vt 0.952499 0.526119
vt 0.947494 0.827765
vt 0.907641 0.827102
vt 0.947862 0.805606
vt 0.574821 0.448873
vt 0.576752 0.421820
vt 0.611215 0.432331
vt 0.608773 0.465212
vt 0.948415 0.772286
vt 0.950923 0.621090
vt 0.951148 0.607521
vt 0.948966 0.739072
vt 0.949089 0.731689
vt 0.949515 0.705984
vt 0.950062 0.673034
vt 0.950606 0.640217
vt 0.951689 0.574920
vt 0.949300 0.718939
vt 0.952229 0.542379
vt 0.952364 0.534249
vt 0.754027 0.877846
vt 0.754546 0.849341
vt 0.796296 0.850303
vt 0.795778 0.878830
vt 0.836639 0.929035
vt 0.794886 0.928014
vt 0.795408 0.899228
vt 0.837160 0.900228
vt 0.755251 0.810627
vt 0.796999 0.811559
vt 0.758447 0.634954
vt 0.758734 0.619189
vt 0.800475 0.619972
vt 0.800188 0.635750
vt 0.755953 0.772036
vt 0.797699 0.772938
vt 0.756109 0.763458
vt 0.797855 0.764353
vt 0.756652 0.733592
vt 0.757349 0.695307
vt 0.799092 0.696149
vt 0.798397 0.734464
vt 0.758043 0.657178
vt 0.799785 0.657991
vt 0.759423 0.581310
vt 0.801162 0.582063
vt 0.756379 0.748645
vt 0.798124 0.749528
vt 0.760111 0.543501
vt 0.801849 0.544225
vt 0.760283 0.534055
vt 0.760455 0.524609
vt 0.802192 0.525318
vt 0.802020 0.534772
vt 0.766884 0.171371
vt 0.808605 0.171807
vt 0.808088 0.200335
vt 0.766365 0.199876
vt 0.851217 0.123022
vt 0.850696 0.151830
vt 0.808975 0.151410
vt 0.809498 0.122623
vt 0.807385 0.239079
vt 0.765660 0.238590
vt 0.762464 0.414263
vt 0.804195 0.414887
vt 0.803909 0.430665
vt 0.762177 0.430028
vt 0.806684 0.277700
vt 0.764958 0.277181
vt 0.806529 0.286284
vt 0.764802 0.285759
vt 0.764259 0.315625
vt 0.805986 0.316173
vt 0.805291 0.354488
vt 0.763562 0.353910
vt 0.804599 0.392646
vt 0.762868 0.392039
vt 0.803221 0.468574
vt 0.761487 0.467908
vt 0.764533 0.300573
vt 0.806260 0.301109
vt 0.802535 0.506412
vt 0.760799 0.505716
vt 0.760627 0.515163
vt 0.802363 0.515865
vt 0.837529 0.879813
vt 0.838045 0.851264
vt 0.767778 0.122225
vt 0.767255 0.150988
vt 0.838747 0.812490
vt 0.841929 0.636545
vt 0.842215 0.620755
vt 0.839446 0.773839
vt 0.839601 0.765248
vt 0.840142 0.735336
vt 0.840836 0.696991
vt 0.841527 0.658803
vt 0.842901 0.582817
vt 0.839870 0.750411
vt 0.843586 0.544950
vt 0.843757 0.535489
vt 0.843928 0.526028
vt 0.850327 0.172244
vt 0.849811 0.200793
vt 0.849109 0.239567
vt 0.845927 0.415512
vt 0.845642 0.431302
vt 0.848410 0.278218
vt 0.848255 0.286809
vt 0.847714 0.316721
vt 0.847021 0.355066
vt 0.846330 0.393254
vt 0.844955 0.469240
vt 0.847987 0.301646
vt 0.844270 0.507107
vt 0.844099 0.516568
vt 0.220656 0.676717
vt 0.257905 0.688781
vt 0.250237 0.722829
vt 0.208066 0.709702
vt 0.296451 0.694880
vt 0.293876 0.729466
vt 0.306196 0.694880
vt 0.304908 0.729466
vt 0.878565 0.178501
vt 0.878196 0.200663
vt 0.877822 0.223171
vt 0.315941 0.694880
vt 0.315941 0.729466
vt 0.080959 0.790628
vt 0.049909 0.811614
vt 0.867787 0.826439
vt 0.100449 0.826071
vt 0.071975 0.850182
vt 0.946753 0.872437
vt 0.947121 0.850274
vt 0.206081 0.669348
vt 0.191565 0.701683
vt 0.105872 0.833210
vt 0.078114 0.857951
vt 0.565165 0.502531
vt 0.570921 0.476057
vt 0.605310 0.488263
vt 0.598096 0.520159
vt 0.550924 0.790628
vt 0.581973 0.811614
vt 0.115237 0.595540
vt 0.124753 0.608069
vt 0.099490 0.635001
vt 0.088717 0.621368
vt 0.124753 0.858068
vt 0.153328 0.885905
vt 0.131841 0.915291
vt 0.099491 0.885000
vt 0.055130 0.421820
vt 0.057061 0.448873
vt 0.023110 0.465212
vt 0.020668 0.432331
vt 0.531434 0.826071
vt 0.559908 0.850182
vt 0.105872 0.583211
vt 0.078114 0.607951
vt 0.185536 0.908959
vt 0.168305 0.940378
vt 0.550924 0.540629
vt 0.581973 0.561615
vt 0.526011 0.833210
vt 0.553768 0.857951
vt 0.206081 0.919348
vt 0.191565 0.951682
vt 0.531433 0.576072
vt 0.559907 0.600183
vt 0.478554 0.885905
vt 0.507129 0.858068
vt 0.532392 0.885000
vt 0.500041 0.915291
vt 0.220656 0.926717
vt 0.257905 0.938780
vt 0.250237 0.972828
vt 0.208066 0.959701
vt 0.526011 0.583211
vt 0.553768 0.607951
vt 0.446347 0.908959
vt 0.463578 0.940378
vt 0.296451 0.944880
vt 0.293876 0.979465
vt 0.478554 0.635906
vt 0.507129 0.608069
vt 0.532392 0.635001
vt 0.500041 0.665292
vt 0.425801 0.919348
vt 0.440318 0.951682
vt 0.306196 0.944880
vt 0.304908 0.979465
vt 0.446347 0.658960
vt 0.463578 0.690379
vt 0.373977 0.938780
vt 0.411226 0.926717
vt 0.423817 0.959701
vt 0.381646 0.972828
vt 0.425801 0.669348
vt 0.440318 0.701683
vt 0.335432 0.944880
vt 0.338007 0.979465
vt 0.373977 0.688781
vt 0.411226 0.676717
vt 0.423817 0.709702
vt 0.381646 0.722829
vt 0.325686 0.944880
vt 0.326974 0.979465
vt 0.315941 0.944880
vt 0.315941 0.979465
vt 0.335432 0.694880
vt 0.338007 0.729466
vt 0.325687 0.694880
vt 0.326974 0.729466
vt 0.060962 0.476057
vt 0.066717 0.502531
vt 0.033786 0.520159
vt 0.026572 0.488263
vt 0.753133 0.926992
vt 0.753657 0.898229
vt 0.115237 0.845540
vt 0.088717 0.871367
vt 0.080959 0.540629
vt 0.049909 0.561615
vt 0.100449 0.576072
vt 0.071975 0.600183
vt 0.516645 0.845540
vt 0.543166 0.871367
vt 0.153328 0.635906
vt 0.131841 0.665292
vt 0.516645 0.595541
vt 0.543165 0.621368
vt 0.185536 0.658960
vt 0.168304 0.690379
vt 0.023110 0.715211
vt 0.057061 0.698872
vt 0.055130 0.671819
vt 0.020668 0.682331
s 1
usemtl Door_Frame
f 175/1/1 2/2/2 93/3/3 188/4/1
f 59/5/4 183/6/5 177/7/5 30/8/4
f 2/9/6 29/10/6 28/11/7 3/12/7
f 13/13/8 27/14/8 26/15/9 8/16/9
f 3/12/7 28/11/7 25/17/10 4/18/10
f 4/18/10 25/17/10 24/19/11 15/20/11
f 5/21/12 23/22/12 22/23/13 6/24/13
f 6/24/13 22/23/13 21/25/14 7/26/14
f 7/26/14 21/25/14 27/14/8 13/13/8
f 8/16/9 26/15/9 20/27/15 9/28/15
f 14/29/11 19/30/11 23/22/12 5/21/12
f 9/28/15 20/27/15 18/31/16 10/32/16
f 12/33/17 17/34/17 16/35/17 11/36/17
f 15/20/11 24/19/11 19/30/11 14/29/11
f 10/32/16 18/31/16 17/34/17 12/33/17
f 32/37/18 180/38/19 191/39/19 123/40/20
f 31/41/21 179/42/22 182/43/22 58/44/21
f 32/45/23 33/46/24 56/47/24 57/48/23
f 42/49/25 38/50/26 54/51/26 55/52/25
f 33/46/24 34/53/27 53/54/27 56/47/24
f 34/53/27 44/55/28 52/56/28 53/54/27
f 35/57/29 36/58/30 50/59/30 51/60/29
f 36/58/30 37/61/31 49/62/31 50/59/30
f 37/61/31 42/49/25 55/52/25 49/62/31
f 38/50/26 39/63/32 48/64/32 54/51/26
f 43/65/28 35/57/29 51/60/29 47/66/28
f 39/63/32 40/67/33 46/68/33 48/64/32
f 41/69/17 11/36/17 16/35/17 45/70/17
f 44/55/28 43/65/28 47/66/28 52/56/28
f 40/67/33 41/69/17 45/70/17 46/68/33
f 184/71/34 60/72/6 29/10/6 178/73/34
f 179/74/35 31/75/36 122/76/36 192/77/37
f 60/72/6 61/78/7 28/11/7 29/10/6
f 71/79/8 66/80/9 26/15/9 27/14/8
f 61/78/7 62/81/10 25/17/10 28/11/7
f 62/81/10 73/82/11 24/19/11 25/17/10
f 63/83/12 64/84/13 22/23/13 23/22/12
f 64/84/13 65/85/14 21/25/14 22/23/13
f 65/85/14 71/79/8 27/14/8 21/25/14
f 66/80/9 67/86/15 20/27/15 26/15/9
f 72/87/11 63/83/12 23/22/12 19/30/11
f 67/86/15 68/88/16 18/31/16 20/27/15
f 70/89/17 69/90/17 16/35/17 17/34/17
f 73/82/11 72/87/11 19/30/11 24/19/11
f 68/88/16 70/89/17 17/34/17 18/31/16
f 185/91/38 181/92/38 57/48/23 75/93/23
f 183/94/39 59/95/40 148/96/40 196/97/41
f 75/93/23 57/48/23 56/47/24 76/98/24
f 85/99/25 55/52/25 54/51/26 81/100/26
f 76/98/24 56/47/24 53/54/27 77/101/27
f 77/101/27 53/54/27 52/56/28 87/102/28
f 78/103/29 51/60/29 50/59/30 79/104/30
f 79/104/30 50/59/30 49/62/31 80/105/31
f 80/105/31 49/62/31 55/52/25 85/99/25
f 81/100/26 54/51/26 48/64/32 82/106/32
f 86/107/28 47/66/28 51/60/29 78/103/29
f 82/106/32 48/64/32 46/68/33 83/108/33
f 84/109/17 45/70/17 16/35/17 69/90/17
f 87/102/28 52/56/28 47/66/28 86/107/28
f 83/108/33 46/68/33 45/70/17 84/109/17
f 188/110/42 93/111/43 117/112/44 189/113/45
f 148/114/46 107/115/46 190/116/47 196/117/48
f 93/111/43 94/118/49 116/119/49 117/112/44
f 100/120/50 102/121/51 115/122/51 105/123/50
f 94/118/49 95/124/52 114/125/52 116/119/49
f 95/124/52 96/126/53 113/127/53 114/125/52
f 98/128/54 97/129/55 112/130/55 104/131/54
f 97/129/55 99/132/56 111/133/56 112/130/55
f 99/132/56 100/120/50 105/123/50 111/133/56
f 102/121/51 101/134/57 110/135/57 115/122/51
f 91/136/53 98/128/54 104/131/54 90/137/53
f 101/134/57 103/138/58 109/139/58 110/135/57
f 89/140/59 106/141/59 108/142/59 88/143/59
f 96/126/53 91/136/53 90/137/53 113/127/53
f 103/138/58 89/140/59 88/143/59 109/139/58
f 191/144/60 194/145/61 145/146/62 123/147/63
f 163/148/64 197/149/65 193/150/66 136/151/64
f 123/147/63 145/146/62 144/152/67 124/153/67
f 130/154/68 135/155/68 143/156/69 132/157/69
f 124/153/67 144/152/67 142/158/70 125/159/70
f 125/159/70 142/158/70 141/160/71 126/161/71
f 128/162/72 134/163/72 140/164/73 127/165/73
f 127/165/73 140/164/73 139/166/74 129/167/74
f 129/167/74 139/166/74 135/155/68 130/154/68
f 132/157/69 143/156/69 138/168/75 131/169/75
f 121/170/71 120/171/71 134/163/72 128/162/72
f 131/169/75 138/168/75 137/172/76 133/173/76
f 119/174/59 118/175/59 108/142/59 106/141/59
f 126/161/71 141/160/71 120/171/71 121/170/71
f 133/173/76 137/172/76 118/175/59 119/174/59
f 195/176/42 189/113/45 117/112/44 149/177/43
f 122/178/64 136/151/64 193/150/66 192/179/65
f 149/177/43 117/112/44 116/119/49 150/180/49
f 156/181/50 105/123/50 115/122/51 158/182/51
f 150/180/49 116/119/49 114/125/52 151/183/52
f 151/183/52 114/125/52 113/127/53 152/184/53
f 154/185/54 104/131/54 112/130/55 153/186/55
f 153/186/55 112/130/55 111/133/56 155/187/56
f 155/187/56 111/133/56 105/123/50 156/181/50
f 158/182/51 115/122/51 110/135/57 157/188/57
f 147/189/53 90/137/53 104/131/54 154/185/54
f 157/188/57 110/135/57 109/139/58 159/190/58
f 146/191/59 88/143/59 108/142/59 160/192/59
f 152/184/53 113/127/53 90/137/53 147/189/53
f 159/190/58 109/139/58 88/143/59 146/191/59
f 198/193/60 164/194/63 145/146/62 194/145/61
f 164/194/63 165/195/67 144/152/67 145/146/62
f 171/196/68 173/197/69 143/156/69 135/155/68
f 165/195/67 166/198/70 142/158/70 144/152/67
f 166/198/70 167/199/71 141/160/71 142/158/70
f 169/200/72 168/201/73 140/164/73 134/163/72
f 168/201/73 170/202/74 139/166/74 140/164/73
f 170/202/74 171/196/68 135/155/68 139/166/74
f 173/197/69 172/203/75 138/168/75 143/156/69
f 162/204/71 169/200/72 134/163/72 120/171/71
f 172/203/75 174/205/76 137/172/76 138/168/75
f 161/206/59 160/192/59 108/142/59 118/175/59
f 167/199/71 162/204/71 120/171/71 141/160/71
f 174/205/76 161/206/59 118/175/59 137/172/76
f 81/207/77 82/208/78 172/209/78 173/210/77
f 82/208/78 83/211/79 174/212/79 172/209/78
f 83/211/79 84/213/80 161/214/80 174/212/79
f 1/215/4 30/8/4 177/7/5 176/216/5
f 175/217/34 178/73/34 29/10/6 2/9/6
f 84/213/80 69/218/80 160/219/80 161/214/80
f 2/2/2 3/220/81 94/221/82 93/3/3
f 180/222/38 32/45/23 57/48/23 181/92/38
f 3/220/81 4/223/83 95/224/84 94/221/82
f 74/225/21 58/44/21 182/43/22 186/226/22
f 85/227/85 81/207/77 173/210/77 171/228/85
f 4/223/83 15/229/86 96/230/86 95/224/84
f 60/231/87 184/232/88 195/233/88 149/234/89
f 33/235/90 32/37/18 123/40/20 124/236/91
f 86/237/92 78/238/93 169/239/93 162/240/92
f 5/241/94 6/242/95 97/243/96 98/244/94
f 74/245/97 186/246/98 197/247/99 163/248/97
f 34/249/100 33/235/90 124/236/91 125/250/101
f 87/251/102 86/237/92 162/240/92 167/252/102
f 6/242/95 7/253/103 99/254/103 97/243/96
f 61/255/104 60/231/87 149/234/89 150/256/105
f 44/257/106 34/249/100 125/250/101 126/258/106
f 7/253/103 13/259/107 100/260/107 99/254/103
f 62/261/108 61/255/104 150/256/105 151/262/109
f 36/263/110 35/264/111 128/265/111 127/266/112
f 8/267/113 9/268/114 101/269/115 102/270/113
f 73/271/116 62/261/108 151/262/109 152/272/116
f 37/273/117 36/263/110 127/266/112 129/274/117
f 9/268/114 10/275/118 103/276/118 101/269/115
f 64/277/119 63/278/120 154/279/120 153/280/121
f 42/281/122 37/273/117 129/274/117 130/282/122
f 10/275/118 12/283/123 89/284/123 103/276/118
f 65/285/124 64/277/119 153/280/121 155/286/124
f 39/287/125 38/288/126 132/289/126 131/290/127
f 71/291/128 65/285/124 155/286/124 156/292/128
f 40/293/129 39/287/125 131/290/127 133/294/129
f 67/295/130 66/296/131 158/297/131 157/298/130
f 41/299/123 40/293/129 133/294/129 119/300/123
f 12/283/123 11/301/123 106/302/123 89/284/123
f 68/303/132 67/295/130 157/298/130 159/304/132
f 70/305/80 68/303/132 159/304/132 146/306/80
f 185/307/133 75/308/134 164/309/135 198/310/133
f 13/259/107 8/267/113 102/270/113 100/260/107
f 11/301/123 41/299/123 119/300/123 106/302/123
f 92/311/46 187/312/48 190/116/47 107/115/46
f 14/313/136 5/241/94 98/244/94 91/314/136
f 75/308/134 76/315/137 165/316/138 164/309/135
f 15/229/86 14/313/136 91/314/136 96/230/86
f 69/218/80 70/305/80 146/306/80 160/219/80
f 38/288/126 42/281/122 130/282/122 132/289/126
f 76/315/137 77/317/139 166/318/140 165/316/138
f 35/264/111 43/319/141 121/320/141 128/265/111
f 77/317/139 87/251/102 167/252/102 166/318/140
f 66/296/131 71/291/128 156/292/128 158/297/131
f 43/319/141 44/257/106 126/258/106 121/320/141
f 78/238/93 79/321/142 168/322/143 169/239/93
f 63/278/120 72/323/144 147/324/144 154/279/120
f 79/321/142 80/325/145 170/326/145 168/322/143
f 72/323/144 73/271/116 152/272/116 147/324/144
f 80/325/145 85/227/85 171/228/85 170/326/145
f 176/216/5 177/7/5 178/73/34 175/217/34
f 180/222/38 181/92/38 182/43/22 179/42/22
f 184/71/34 178/73/34 177/7/5 183/6/5
f 186/226/22 182/43/22 181/92/38 185/91/38
f 188/110/42 189/113/45 190/116/47 187/312/48
f 192/179/65 193/150/66 194/145/61 191/144/60
f 196/117/48 190/116/47 189/113/45 195/176/42
f 198/193/60 194/145/61 193/150/66 197/149/65
f 175/1/1 188/4/1 187/327/146 176/328/147
f 191/39/19 180/38/19 179/74/35 192/77/37
f 195/233/88 184/232/88 183/94/39 196/97/41
f 185/307/133 198/310/133 197/247/99 186/246/98
f 1/329/148 176/328/147 187/327/146 92/330/148
o Poles
v 0.000000 0.001240 -0.035137
v 0.000000 0.789638 -0.035137
v 0.013446 0.001240 -0.032463
v 0.013446 0.789638 -0.032463
v 0.024846 0.001240 -0.024846
v 0.024846 0.789638 -0.024846
v 0.032463 0.001240 -0.013446
v 0.032463 0.789638 -0.013446
v 0.035137 0.001240 0.000000
v 0.035137 0.789638 0.000000
v 0.032463 0.001240 0.013446
v 0.032463 0.789638 0.013446
v 0.024846 0.001240 0.024846
v 0.024846 0.789638 0.024846
v 0.013446 0.001240 0.032463
v 0.013446 0.789638 0.032463
v 0.000000 0.001240 0.035137
v 0.000000 0.789638 0.035137
v -0.013446 0.001240 0.032463
v -0.013446 0.789638 0.032463
v -0.024846 0.001240 0.024846
v -0.024846 0.789638 0.024846
v -0.032463 0.001240 0.013446
v -0.032463 0.789638 0.013446
v -0.035137 0.001240 0.000000
v -0.035137 0.789638 0.000000
v -0.032463 0.001240 -0.013446
v -0.032463 0.789638 -0.013446
v -0.024846 0.001240 -0.024846
v -0.024846 0.789638 -0.024846
v -0.013446 0.001240 -0.032463
v -0.013446 0.789638 -0.032463
v 0.000000 0.001240 0.214976
v 0.000000 0.789638 0.214976
v 0.013446 0.001240 0.217650
v 0.013446 0.789638 0.217650
v 0.024846 0.001240 0.225267
v 0.024846 0.789638 0.225267
v 0.032463 0.001240 0.236666
v 0.032463 0.789638 0.236666
v 0.035137 0.001240 0.250113
v 0.035137 0.789638 0.250113
v 0.032463 0.001240 0.263559
v 0.032463 0.789638 0.263559
v 0.024846 0.001240 0.274959
v 0.024846 0.789638 0.274959
v 0.013446 0.001240 0.282575
v 0.013446 0.789638 0.282575
v 0.000000 0.001240 0.285250
v 0.000000 0.789638 0.285250
v -0.013446 0.001240 0.282575
v -0.013446 0.789638 0.282575
v -0.024846 0.001240 0.274959
v -0.024846 0.789638 0.274959
v -0.032463 0.001240 0.263559
v -0.032463 0.789638 0.263559
v -0.035137 0.001240 0.250113
v -0.035137 0.789638 0.250113
v -0.032463 0.001240 0.236666
v -0.032463 0.789638 0.236666
v -0.024846 0.001240 0.225267
v -0.024846 0.789638 0.225267
v -0.013446 0.001240 0.217650
v -0.013446 0.789638 0.217650
v 0.000000 -0.000274 0.464863
v 0.000000 0.675102 0.464863
v 0.013446 -0.000274 0.467538
v 0.013446 0.675102 0.467538
v 0.024846 -0.000274 0.475154
v 0.024846 0.675102 0.475154
v 0.032463 -0.000274 0.486554
v 0.032463 0.675102 0.486554
v 0.035137 -0.000274 0.500000
v 0.035137 0.675102 0.500000
v 0.032463 -0.000274 0.513447
v 0.032463 0.675102 0.513447
v 0.024846 -0.000274 0.524846
v 0.024846 0.675102 0.524846
v 0.013446 -0.000274 0.532463
v 0.013446 0.675102 0.532463
v 0.000000 -0.000274 0.535137
v 0.000000 0.675102 0.535137
v -0.013446 -0.000274 0.532463
v -0.013446 0.675102 0.532463
v -0.024846 -0.000274 0.524846
v -0.024846 0.675102 0.524846
v -0.032463 -0.000274 0.513447
v -0.032463 0.675102 0.513447
v -0.035137 -0.000274 0.500000
v -0.035137 0.675102 0.500000
v -0.032463 -0.000274 0.486554
v -0.032463 0.675102 0.486554
v -0.024846 -0.000274 0.475154
v -0.024846 0.675102 0.475154
v -0.013446 -0.000274 0.467538
v -0.013446 0.675102 0.467538
v 0.000000 0.001240 -0.288262
v 0.000000 0.789638 -0.288262
v 0.013446 0.001240 -0.285588
v 0.013446 0.789638 -0.285588
v 0.024846 0.001240 -0.277971
v 0.024846 0.789638 -0.277971
v 0.032463 0.001240 -0.266572
v 0.032463 0.789638 -0.266572
v 0.035137 0.001240 -0.253125
v 0.035137 0.789638 -0.253125
v 0.032463 0.001240 -0.239679
v 0.032463 0.789638 -0.239679
v 0.024846 0.001240 -0.228280
v 0.024846 0.789638 -0.228280
v 0.013446 0.001240 -0.220663
v 0.013446 0.789638 -0.220663
v 0.000000 0.001240 -0.217988
v 0.000000 0.789638 -0.217988
v -0.013446 0.001240 -0.220663
v -0.013446 0.789638 -0.220663
v -0.024846 0.001240 -0.228280
v -0.024846 0.789638 -0.228280
v -0.032463 0.001240 -0.239679
v -0.032463 0.789638 -0.239679
v -0.035137 0.001240 -0.253125
v -0.035137 0.789638 -0.253125
v -0.032463 0.001240 -0.266572
v -0.032463 0.789638 -0.266572
v -0.024846 0.001240 -0.277971
v -0.024846 0.789638 -0.277971
v -0.013446 0.001240 -0.285588
v -0.013446 0.789638 -0.285588
v 0.000000 -0.000274 -0.535137
v 0.000000 0.675102 -0.535137
v 0.013446 -0.000274 -0.532463
v 0.013446 0.675102 -0.532463
v 0.024846 -0.000274 -0.524846
v 0.024846 0.675102 -0.524846
v 0.032463 -0.000274 -0.513447
v 0.032463 0.675102 -0.513447
v 0.035137 -0.000274 -0.500000
v 0.035137 0.675102 -0.500000
v 0.032463 -0.000274 -0.486554
v 0.032463 0.675102 -0.486554
v 0.024846 -0.000274 -0.475154
v 0.024846 0.675102 -0.475154
v 0.013446 -0.000274 -0.467538
v 0.013446 0.675102 -0.467538
v 0.000000 -0.000274 -0.464863
v 0.000000 0.675102 -0.464863
v -0.013446 -0.000274 -0.467538
v -0.013446 0.675102 -0.467538
v -0.024846 -0.000274 -0.475154
v -0.024846 0.675102 -0.475154
v -0.032463 -0.000274 -0.486554
v -0.032463 0.675102 -0.486554
v -0.035137 -0.000274 -0.500000
v -0.035137 0.675102 -0.500000
v -0.032463 -0.000274 -0.513447
v -0.032463 0.675102 -0.513447
v -0.024846 -0.000274 -0.524846
v -0.024846 0.675102 -0.524846
v -0.013446 -0.000274 -0.532463
v -0.013446 0.675102 -0.532463
vn -0.0000 -0.0000 -1.0000
vn 0.3827 -0.0000 -0.9239
vn 0.7071 -0.0000 -0.7071
vn 0.9239 -0.0000 -0.3827
vn 1.0000 -0.0000 -0.0000
vn 0.9239 -0.0000 0.3827
vn 0.7071 -0.0000 0.7071
vn 0.3827 -0.0000 0.9239
vn -0.0000 -0.0000 1.0000
vn -0.3827 -0.0000 0.9239
vn -0.7071 -0.0000 0.7071
vn -0.9239 -0.0000 0.3827
vn -1.0000 -0.0000 -0.0000
vn -0.9239 -0.0000 -0.3827
vn -0.7071 -0.0000 -0.7071
vn -0.3827 -0.0000 -0.9239
vt 0.440940 0.270937
vt 0.440940 0.356408
vt 0.430256 0.356408
vt 0.430256 0.270937
vt 0.419572 0.356408
vt 0.419572 0.270937
vt 0.408888 0.356408
vt 0.408888 0.270937
vt 0.398204 0.356408
vt 0.398204 0.270937
vt 0.387521 0.356408
vt 0.387521 0.270937
vt 0.376837 0.356408
vt 0.376837 0.270937
vt 0.366153 0.356408
vt 0.366153 0.270937
vt 0.355469 0.356408
vt 0.355469 0.270937
vt 0.344785 0.356408
vt 0.344785 0.270937
vt 0.334101 0.356408
vt 0.334101 0.270937
vt 0.323417 0.356408
vt 0.323417 0.270937
vt 0.312733 0.356408
vt 0.312733 0.270937
vt 0.302049 0.356408
vt 0.302049 0.270937
vt 0.291366 0.356408
vt 0.291366 0.270937
vt 0.280682 0.356408
vt 0.280682 0.270937
vt 0.269998 0.356408
vt 0.269998 0.270937
vt 0.190940 0.270937
vt 0.190940 0.356408
vt 0.180256 0.356408
vt 0.180256 0.270937
vt 0.169572 0.356408
vt 0.169572 0.270937
vt 0.158888 0.356408
vt 0.158888 0.270937
vt 0.148204 0.356408
vt 0.148204 0.270937
vt 0.137521 0.356408
vt 0.137521 0.270937
vt 0.126837 0.356408
vt 0.126837 0.270937
vt 0.116153 0.356408
vt 0.116153 0.270937
vt 0.105469 0.356408
vt 0.105469 0.270937
vt 0.094785 0.356408
vt 0.094785 0.270937
vt 0.084101 0.356408
vt 0.084101 0.270937
vt 0.073417 0.356408
vt 0.073417 0.270937
vt 0.062733 0.356408
vt 0.062733 0.270937
vt 0.052049 0.356408
vt 0.052049 0.270937
vt 0.041366 0.356408
vt 0.041366 0.270937
vt 0.030682 0.356408
vt 0.030682 0.270937
vt 0.019998 0.356408
vt 0.019998 0.270937
vt 0.184577 0.149118
vt 0.184577 0.228226
vt 0.174688 0.228226
vt 0.174688 0.149119
vt 0.164800 0.228226
vt 0.164800 0.149119
vt 0.154911 0.228226
vt 0.154911 0.149119
vt 0.145023 0.228226
vt 0.145023 0.149119
vt 0.135134 0.228226
vt 0.135134 0.149119
vt 0.125246 0.228226
vt 0.125246 0.149119
vt 0.115357 0.228226
vt 0.115357 0.149119
vt 0.105469 0.228226
vt 0.105469 0.149119
vt 0.095580 0.228226
vt 0.095580 0.149119
vt 0.085692 0.228226
vt 0.085692 0.149119
vt 0.075803 0.228226
vt 0.075803 0.149119
vt 0.065915 0.228226
vt 0.065915 0.149119
vt 0.056026 0.228226
vt 0.056026 0.149119
vt 0.046138 0.228226
vt 0.046138 0.149119
vt 0.036249 0.228226
vt 0.036249 0.149119
vt 0.026361 0.228226
vt 0.026361 0.149118
vt 0.690940 0.270937
vt 0.690940 0.356408
vt 0.680256 0.356408
vt 0.680256 0.270937
vt 0.669572 0.356408
vt 0.669572 0.270937
vt 0.658888 0.356408
vt 0.658888 0.270937
vt 0.648204 0.356408
vt 0.648204 0.270937
vt 0.637520 0.356408
vt 0.637520 0.270937
vt 0.626837 0.356408
vt 0.626837 0.270937
vt 0.616153 0.356408
vt 0.616153 0.270937
vt 0.605469 0.356408
vt 0.605469 0.270937
vt 0.594785 0.356408
vt 0.594785 0.270937
vt 0.584101 0.356408
vt 0.584101 0.270937
vt 0.573417 0.356408
vt 0.573417 0.270937
vt 0.562733 0.356408
vt 0.562733 0.270937
vt 0.552049 0.356408
vt 0.552049 0.270937
vt 0.541365 0.356408
vt 0.541365 0.270937
vt 0.530681 0.356408
vt 0.530681 0.270937
vt 0.519998 0.356408
vt 0.519998 0.270937
vt 0.684576 0.149118
vt 0.684576 0.228226
vt 0.674688 0.228226
vt 0.674688 0.149118
vt 0.664799 0.228226
vt 0.664799 0.149118
vt 0.654911 0.228226
vt 0.654911 0.149118
vt 0.645022 0.228226
vt 0.645022 0.149118
vt 0.635134 0.228226
vt 0.635134 0.149118
vt 0.625245 0.228226
vt 0.625245 0.149118
vt 0.615357 0.228226
vt 0.615357 0.149118
vt 0.605468 0.228226
vt 0.605468 0.149118
vt 0.595580 0.228226
vt 0.595580 0.149118
vt 0.585691 0.228226
vt 0.585691 0.149118
vt 0.575803 0.228226
vt 0.575803 0.149118
vt 0.565914 0.228226
vt 0.565914 0.149118
vt 0.556026 0.228226
vt 0.556026 0.149118
vt 0.546137 0.228226
vt 0.546137 0.149118
vt 0.536249 0.228226
vt 0.536249 0.149118
vt 0.526360 0.228226
vt 0.526360 0.149118
s 1
usemtl Pole
f 199/331/149 200/332/149 202/333/150 201/334/150
f 201/334/150 202/333/150 204/335/151 203/336/151
f 203/336/151 204/335/151 206/337/152 205/338/152
f 205/338/152 206/337/152 208/339/153 207/340/153
f 207/340/153 208/339/153 210/341/154 209/342/154
f 209/342/154 210/341/154 212/343/155 211/344/155
f 211/344/155 212/343/155 214/345/156 213/346/156
f 213/346/156 214/345/156 216/347/157 215/348/157
f 215/348/157 216/347/157 218/349/158 217/350/158
f 217/350/158 218/349/158 220/351/159 219/352/159
f 219/352/159 220/351/159 222/353/160 221/354/160
f 221/354/160 222/353/160 224/355/161 223/356/161
f 223/356/161 224/355/161 226/357/162 225/358/162
f 225/358/162 226/357/162 228/359/163 227/360/163
f 227/360/163 228/359/163 230/361/164 229/362/164
f 229/362/164 230/361/164 200/363/149 199/364/149
f 231/365/149 232/366/149 234/367/150 233/368/150
f 233/368/150 234/367/150 236/369/151 235/370/151
f 235/370/151 236/369/151 238/371/152 237/372/152
f 237/372/152 238/371/152 240/373/153 239/374/153
f 239/374/153 240/373/153 242/375/154 241/376/154
f 241/376/154 242/375/154 244/377/155 243/378/155
f 243/378/155 244/377/155 246/379/156 245/380/156
f 245/380/156 246/379/156 248/381/157 247/382/157
f 247/382/157 248/381/157 250/383/158 249/384/158
f 249/384/158 250/383/158 252/385/159 251/386/159
f 251/386/159 252/385/159 254/387/160 253/388/160
f 253/388/160 254/387/160 256/389/161 255/390/161
f 255/390/161 256/389/161 258/391/162 257/392/162
f 257/392/162 258/391/162 260/393/163 259/394/163
f 259/394/163 260/393/163 262/395/164 261/396/164
f 261/396/164 262/395/164 232/397/149 231/398/149
f 263/399/149 264/400/149 266/401/150 265/402/150
f 265/402/150 266/401/150 268/403/151 267/404/151
f 267/404/151 268/403/151 270/405/152 269/406/152
f 269/406/152 270/405/152 272/407/153 271/408/153
f 271/408/153 272/407/153 274/409/154 273/410/154
f 273/410/154 274/409/154 276/411/155 275/412/155
f 275/412/155 276/411/155 278/413/156 277/414/156
f 277/414/156 278/413/156 280/415/157 279/416/157
f 279/416/157 280/415/157 282/417/158 281/418/158
f 281/418/158 282/417/158 284/419/159 283/420/159
f 283/420/159 284/419/159 286/421/160 285/422/160
f 285/422/160 286/421/160 288/423/161 287/424/161
f 287/424/161 288/423/161 290/425/162 289/426/162
f 289/426/162 290/425/162 292/427/163 291/428/163
f 291/428/163 292/427/163 294/429/164 293/430/164
f 293/430/164 294/429/164 264/431/149 263/432/149
f 295/433/149 296/434/149 298/435/150 297/436/150
f 297/436/150 298/435/150 300/437/151 299/438/151
f 299/438/151 300/437/151 302/439/152 301/440/152
f 301/440/152 302/439/152 304/441/153 303/442/153
f 303/442/153 304/441/153 306/443/154 305/444/154
f 305/444/154 306/443/154 308/445/155 307/446/155
f 307/446/155 308/445/155 310/447/156 309/448/156
f 309/448/156 310/447/156 312/449/157 311/450/157
f 311/450/157 312/449/157 314/451/158 313/452/158
f 313/452/158 314/451/158 316/453/159 315/454/159
f 315/454/159 316/453/159 318/455/160 317/456/160
f 317/456/160 318/455/160 320/457/161 319/458/161
f 319/458/161 320/457/161 322/459/162 321/460/162
f 321/460/162 322/459/162 324/461/163 323/462/163
f 323/462/163 324/461/163 326/463/164 325/464/164
f 325/464/164 326/463/164 296/465/149 295/466/149
f 327/467/149 328/468/149 330/469/150 329/470/150
f 329/470/150 330/469/150 332/471/151 331/472/151
f 331/472/151 332/471/151 334/473/152 333/474/152
f 333/474/152 334/473/152 336/475/153 335/476/153
f 335/476/153 336/475/153 338/477/154 337/478/154
f 337/478/154 338/477/154 340/479/155 339/480/155
f 339/480/155 340/479/155 342/481/156 341/482/156
f 341/482/156 342/481/156 344/483/157 343/484/157
f 343/484/157 344/483/157 346/485/158 345/486/158
f 345/486/158 346/485/158 348/487/159 347/488/159
f 347/488/159 348/487/159 350/489/160 349/490/160
f 349/490/160 350/489/160 352/491/161 351/492/161
f 351/492/161 352/491/161 354/493/162 353/494/162
f 353/494/162 354/493/162 356/495/163 355/496/163
f 355/496/163 356/495/163 358/497/164 357/498/164
f 357/498/164 358/497/164 328/499/149 327/500/149
