# Blender 4.2.4 LTS
# www.blender.org
mtllib DOOR2.mtl
o DOOR2
v -0.068309 0.451574 0.000002
v 0.119348 0.451574 0.000002
v 0.119348 -0.899487 0.281152
v -0.068309 -0.899487 0.281152
v -0.068309 0.186653 0.281199
v 0.119348 0.185969 0.281199
v 0.119348 0.292093 0.266064
v -0.068309 0.311499 0.266129
v 0.119348 0.375373 0.225089
v -0.068309 0.373769 0.226856
v 0.119348 0.431087 0.163691
v -0.068309 0.431087 0.163691
v 0.119348 0.451574 0.087853
v -0.068309 0.451574 0.087853
v 0.119348 -0.899487 0.000002
v -0.068309 -0.899487 0.000002
v 0.119348 -0.899487 -0.281194
v -0.068309 -0.899487 -0.281194
v -0.068309 0.186653 -0.281194
v 0.119348 0.185969 -0.281194
v 0.119348 0.292093 -0.266058
v -0.068309 0.311499 -0.266123
v 0.119348 0.375373 -0.225084
v -0.068309 0.373769 -0.226851
v 0.119348 0.431087 -0.163686
v -0.068309 0.431087 -0.163686
v 0.119348 0.451574 -0.087847
v -0.068309 0.451574 -0.087847
v -0.068309 0.498652 0.091267
v -0.068309 0.498652 0.000002
v 0.119348 0.498652 0.091267
v 0.119348 0.498652 0.000002
v -0.068309 0.475434 0.177217
v 0.119348 0.475434 0.177217
v -0.068309 0.409314 0.250082
v 0.119348 0.409314 0.250082
v -0.068309 0.332117 0.298768
v 0.119348 0.310359 0.298768
v -0.068309 0.190487 0.315865
v 0.119348 0.190487 0.315865
v -0.068309 -0.946565 0.315865
v 0.119348 -0.946565 0.315865
v 0.119348 -0.946565 0.000002
v -0.068309 -0.946565 0.000002
v -0.068309 0.498652 -0.091261
v 0.119348 0.498652 -0.091261
v -0.068309 0.475434 -0.177211
v 0.119348 0.475434 -0.177211
v -0.068309 0.409314 -0.250076
v 0.119348 0.409314 -0.250076
v -0.068309 0.332117 -0.298763
v 0.119348 0.310359 -0.298763
v -0.068309 0.190487 -0.315860
v 0.119348 0.190487 -0.315860
v -0.068309 -0.946565 -0.315860
v 0.119348 -0.946565 -0.315860
v 0.119348 -0.767177 0.000002
v 0.119348 -0.764115 -0.281194
v 0.119348 -0.763738 -0.315860
v 0.119348 -0.764116 0.281158
v 0.119348 -0.763738 0.315865
v -0.068309 -0.766280 0.000002
v -0.068309 -0.763820 -0.281194
v -0.068309 -0.763516 -0.315860
v -0.068309 -0.763820 0.281158
v -0.068309 -0.763516 0.315865
v -0.068309 -0.715603 0.037078
v -0.068309 -0.713792 0.244084
v -0.068309 0.182555 0.244123
v -0.068309 0.289447 0.231220
v -0.068309 0.335753 0.202016
v -0.068309 0.383657 0.149225
v -0.068309 0.401223 0.084201
v -0.068309 0.401223 0.037078
v -0.068309 -0.715603 -0.037073
v -0.068309 0.401223 -0.037073
v -0.068309 0.401223 -0.084196
v -0.068309 0.383657 -0.149219
v -0.068309 0.335753 -0.202011
v -0.068309 0.289447 -0.231215
v -0.068309 0.182554 -0.244118
v -0.068309 -0.713792 -0.244118
v -0.036959 -0.713792 0.244084
v -0.036959 -0.715603 0.037078
v -0.036959 0.401223 0.037078
v -0.036959 0.182555 0.244123
v -0.036959 0.289447 0.231220
v -0.036959 0.335753 0.202016
v -0.036959 0.383657 0.149225
v -0.036959 0.401223 0.084201
v -0.036959 0.401223 -0.037073
v -0.036959 -0.715603 -0.037073
v -0.036959 -0.713792 -0.244118
v -0.036959 0.401223 -0.084196
v -0.036959 0.383657 -0.149219
v -0.036959 0.335753 -0.202011
v -0.036959 0.289447 -0.231215
v -0.036959 0.182554 -0.244118
vn 1.0000 -0.0000 -0.0000
vn -0.0000 -0.9913 -0.1315
vn -0.0000 -1.0000 -0.0000
vn -1.0000 -0.0000 -0.0000
vn -0.0000 -0.6429 0.7659
vn -0.0000 -0.3348 0.9423
vn -0.0000 -0.0600 0.9982
vn -0.0000 1.0000 -0.0087
vn -0.0000 -0.0000 1.0000
vn -0.0000 -0.0000 -1.0000
vn -0.0000 -0.0600 -0.9982
vn -0.0000 1.0000 0.0087
vn -0.0000 -0.3348 -0.9423
vn -0.0000 -0.9913 0.1315
vn -0.0000 -0.6429 -0.7659
vn -0.0000 -0.8774 0.4798
vn -0.0000 -0.8774 -0.4797
vn 0.0038 0.0650 -0.9979
vn 0.0174 0.2996 -0.9539
vn 0.0188 0.3243 -0.9458
vn 0.0142 0.6205 -0.7841
vn -0.0000 0.8774 -0.4798
vn -0.0000 0.9913 -0.1315
vn -0.0000 1.0000 -0.0000
vn -0.0000 0.9913 0.1315
vn -0.0000 0.8774 0.4798
vn 0.0142 0.6205 0.7841
vn 0.0174 0.2996 0.9539
vn 0.0188 0.3243 0.9458
vn 0.0038 0.0650 0.9979
vt 0.000000 0.000000
s 1
f 57/1/1 60/1/1 3/1/1 15/1/1
f 73/1/2 74/1/3 85/1/3 90/1/2
f 4/1/4 16/1/4 44/1/4 41/1/4
f 57/1/1 15/1/1 17/1/1 58/1/1
f 79/1/5 80/1/6 97/1/6 96/1/5
f 56/1/3 43/1/3 44/1/3 55/1/3
f 1/1/4 14/1/4 29/1/4 30/1/4
f 13/1/1 2/1/1 32/1/1 31/1/1
f 14/1/4 12/1/4 33/1/4 29/1/4
f 11/1/1 13/1/1 31/1/1 34/1/1
f 12/1/4 10/1/4 35/1/4 33/1/4
f 9/1/1 11/1/1 34/1/1 36/1/1
f 10/1/4 8/1/4 37/1/4 35/1/4
f 7/1/1 9/1/1 36/1/1 38/1/1
f 8/1/4 5/1/4 39/1/4 37/1/4
f 6/1/1 7/1/1 38/1/1 40/1/1
f 60/1/1 6/1/1 40/1/1 61/1/1
f 41/1/3 44/1/3 43/1/3 42/1/3
f 28/1/4 1/1/4 30/1/4 45/1/4
f 2/1/1 27/1/1 46/1/1 32/1/1
f 26/1/4 28/1/4 45/1/4 47/1/4
f 27/1/1 25/1/1 48/1/1 46/1/1
f 24/1/4 26/1/4 47/1/4 49/1/4
f 25/1/1 23/1/1 50/1/1 48/1/1
f 22/1/4 24/1/4 49/1/4 51/1/4
f 23/1/1 21/1/1 52/1/1 50/1/1
f 19/1/4 22/1/4 51/1/4 53/1/4
f 21/1/1 20/1/1 54/1/1 52/1/1
f 63/1/4 19/1/4 53/1/4 64/1/4
f 58/1/1 17/1/1 56/1/1 59/1/1
f 17/1/1 15/1/1 43/1/1 56/1/1
f 16/1/4 18/1/4 55/1/4 44/1/4
f 65/1/4 4/1/4 41/1/4 66/1/4
f 3/1/1 42/1/1 43/1/1 15/1/1
f 20/1/1 58/1/1 59/1/1 54/1/1
f 2/1/1 57/1/1 58/1/1 20/1/1 21/1/1 23/1/1 25/1/1 27/1/1
f 3/1/1 60/1/1 61/1/1 42/1/1
f 2/1/1 13/1/1 11/1/1 9/1/1 7/1/1 6/1/1 60/1/1 57/1/1
f 18/1/4 63/1/4 64/1/4 55/1/4
f 16/1/4 62/1/4 63/1/4 18/1/4
f 5/1/4 65/1/4 66/1/4 39/1/4
f 16/1/4 4/1/4 65/1/4 62/1/4
f 62/1/4 65/1/4 68/1/4 67/1/4
f 65/1/4 5/1/4 69/1/4 68/1/4
f 5/1/4 8/1/4 70/1/4 69/1/4
f 8/1/4 10/1/4 71/1/4 70/1/4
f 10/1/4 12/1/4 72/1/4 71/1/4
f 12/1/4 14/1/4 73/1/4 72/1/4
f 14/1/4 1/1/4 74/1/4 73/1/4
f 1/1/4 62/1/4 67/1/4 74/1/4
f 62/1/4 1/1/4 76/1/4 75/1/4
f 1/1/4 28/1/4 77/1/4 76/1/4
f 28/1/4 26/1/4 78/1/4 77/1/4
f 26/1/4 24/1/4 79/1/4 78/1/4
f 24/1/4 22/1/4 80/1/4 79/1/4
f 22/1/4 19/1/4 81/1/4 80/1/4
f 19/1/4 63/1/4 82/1/4 81/1/4
f 63/1/4 62/1/4 75/1/4 82/1/4
f 84/1/4 83/1/4 86/1/4 87/1/4 88/1/4 89/1/4 90/1/4 85/1/4
f 92/1/4 91/1/4 94/1/4 95/1/4 96/1/4 97/1/4 98/1/4 93/1/4
f 80/1/6 81/1/7 98/1/7 97/1/6
f 67/1/8 68/1/8 83/1/8 84/1/8
f 81/1/7 82/1/9 93/1/9 98/1/7
f 74/1/9 67/1/9 84/1/9 85/1/9
f 75/1/10 76/1/10 91/1/10 92/1/10
f 68/1/10 69/1/11 86/1/11 83/1/10
f 82/1/12 75/1/12 92/1/12 93/1/12
f 69/1/11 70/1/13 87/1/13 86/1/11
f 76/1/3 77/1/14 94/1/14 91/1/3
f 70/1/13 71/1/15 88/1/15 87/1/13
f 77/1/14 78/1/16 95/1/16 94/1/14
f 71/1/15 72/1/17 89/1/17 88/1/15
f 78/1/16 79/1/5 96/1/5 95/1/16
f 72/1/17 73/1/2 90/1/2 89/1/17
f 54/1/18 59/1/10 64/1/10 53/1/18
f 55/1/10 64/1/10 59/1/10 56/1/10
f 52/1/19 54/1/18 53/1/18 51/1/20
f 50/1/21 52/1/19 51/1/20 49/1/21
f 48/1/22 50/1/21 49/1/21 47/1/22
f 46/1/23 48/1/22 47/1/22 45/1/23
f 32/1/24 46/1/23 45/1/23 30/1/24
f 31/1/25 32/1/24 30/1/24 29/1/25
f 34/1/26 31/1/25 29/1/25 33/1/26
f 36/1/27 34/1/26 33/1/26 35/1/27
f 38/1/28 36/1/27 35/1/27 37/1/29
f 40/1/30 38/1/28 37/1/29 39/1/30
f 61/1/9 40/1/30 39/1/30 66/1/9
f 42/1/9 61/1/9 66/1/9 41/1/9
