# Blender 4.2.4 LTS
# www.blender.org
mtllib DOORFRAME2.mtl
o DOORFRAME2
v -0.056025 0.942629 -0.000017
v 0.227090 0.942629 -0.000017
v 0.227090 0.376999 -0.000017
v -0.056025 0.376999 -0.000017
v -0.008296 0.942629 -0.000017
v 0.179361 0.942629 -0.000017
v -0.056025 -1.068218 0.740322
v -0.056025 0.942629 0.740322
v 0.227090 -1.068218 0.740322
v 0.227090 0.942629 0.740322
v -0.056025 0.942629 0.092539
v 0.227090 -1.068218 0.315845
v -0.056025 -1.068218 0.315845
v 0.227090 0.942629 0.092539
v 0.227090 0.376999 0.091247
v 0.227090 0.068834 0.315845
v 0.227090 0.206838 0.740322
v 0.227090 0.351729 0.177197
v 0.227090 0.291708 0.250062
v 0.227090 0.206838 0.298749
v -0.056025 0.068834 0.315845
v -0.056025 0.376999 0.091247
v -0.056025 0.206838 0.740322
v -0.056025 0.206838 0.298749
v -0.056025 0.291708 0.250062
v -0.056025 0.351729 0.177197
v 0.179361 -1.068218 0.740322
v -0.008296 -1.068218 0.740322
v -0.008296 0.942629 0.740322
v 0.179361 0.942629 0.740322
v -0.008296 0.942629 0.092539
v 0.179361 0.942629 0.092539
v -0.056025 0.068834 0.740322
v 0.227090 0.068834 0.740322
v -0.008296 0.068834 0.740322
v 0.179361 0.068834 0.740322
v -0.008296 0.206838 0.740322
v 0.179361 0.206838 0.740322
v 0.227090 0.291708 0.740322
v -0.056025 0.291708 0.740322
v -0.008296 0.291708 0.740322
v 0.179361 0.291708 0.740322
v -0.056025 0.942629 0.180562
v 0.227090 0.942629 0.180562
v 0.179361 0.942629 0.180562
v -0.008296 0.942629 0.180562
v 0.227090 0.351729 0.740322
v -0.056025 0.351729 0.740322
v -0.008296 0.351729 0.740322
v 0.179361 0.351729 0.740322
v -0.056025 -1.068218 -0.740355
v -0.056025 0.942629 -0.740355
v 0.227090 -1.068218 -0.740355
v 0.227090 0.942629 -0.740355
v -0.056025 0.942629 -0.092573
v 0.227090 -1.068218 -0.315879
v -0.056025 -1.068218 -0.315879
v 0.227090 0.942629 -0.092573
v 0.227090 0.376999 -0.091281
v 0.227090 0.068834 -0.315879
v 0.227090 0.206838 -0.740355
v 0.227090 0.351729 -0.177231
v 0.227090 0.291708 -0.250096
v 0.227090 0.206838 -0.298783
v -0.056025 0.068834 -0.315879
v -0.056025 0.376999 -0.091281
v -0.056025 0.206838 -0.740355
v -0.056025 0.206838 -0.298783
v -0.056025 0.291708 -0.250096
v -0.056025 0.351729 -0.177231
v 0.179361 -1.068218 -0.740355
v -0.008296 -1.068218 -0.740355
v -0.008296 0.942629 -0.740355
v 0.179361 0.942629 -0.740355
v -0.008296 0.942629 -0.092573
v 0.179361 0.942629 -0.092573
v -0.056025 0.068834 -0.740355
v 0.227090 0.068834 -0.740355
v -0.008296 0.068834 -0.740355
v 0.179361 0.068834 -0.740355
v -0.008296 0.206838 -0.740355
v 0.179361 0.206838 -0.740355
v 0.227090 0.291708 -0.740355
v -0.056025 0.291708 -0.740355
v -0.008296 0.291708 -0.740355
v 0.179361 0.291708 -0.740355
v -0.056025 0.942629 -0.180596
v 0.227090 0.942629 -0.180596
v 0.179361 0.942629 -0.180596
v -0.008296 0.942629 -0.180596
v 0.227090 0.351729 -0.740355
v -0.056025 0.351729 -0.740355
v -0.008296 0.351729 -0.740355
v 0.179361 0.351729 -0.740355
v -0.008296 0.376999 0.091247
v -0.008296 0.376999 -0.000017
v 0.179361 0.376999 0.091247
v 0.179361 0.376999 -0.000017
v -0.008296 0.353781 0.177197
v 0.179361 0.353781 0.177197
v -0.008296 0.287661 0.250062
v 0.179361 0.287661 0.250062
v -0.008296 0.210464 0.298749
v 0.179361 0.188707 0.298749
v -0.008296 0.068834 0.315845
v 0.179361 0.068834 0.315845
v -0.008296 -1.068218 0.315845
v 0.179361 -1.068218 0.315845
v -0.008296 0.376999 -0.091281
v 0.179361 0.376999 -0.091281
v -0.008296 0.353781 -0.177231
v 0.179361 0.353781 -0.177231
v -0.008296 0.287661 -0.250096
v 0.179361 0.287661 -0.250096
v -0.008296 0.210464 -0.298783
v 0.179361 0.188707 -0.298783
v -0.008296 0.068834 -0.315879
v 0.179361 0.068834 -0.315879
v -0.008296 -1.068218 -0.315879
v 0.179361 -1.068218 -0.315879
v -0.056025 -0.884265 0.740322
v 0.227090 -0.884265 0.740322
v 0.227090 -0.884265 0.315845
v -0.056025 -0.884265 0.315845
v -0.008296 -0.884265 0.740322
v 0.179361 -0.884265 0.740322
v -0.042805 -0.886117 -0.741918
v 0.227090 -0.884265 -0.740355
v 0.227090 -0.884265 -0.315879
v -0.056025 -0.884265 -0.315879
v -0.008296 -0.884265 -0.740355
v 0.179361 -0.884265 -0.740355
v 0.179361 -0.885391 -0.315879
v 0.179361 -0.885391 0.315845
v -0.008296 -0.885169 -0.315879
v -0.008296 -0.885169 0.315845
v 0.297869 -0.884265 0.740322
v 0.297869 -1.068218 0.740322
v 0.297869 -1.068218 0.315845
v 0.297869 -0.884265 0.315845
v 0.297869 -0.884265 -0.740355
v 0.297869 -1.068218 -0.740355
v 0.297869 -1.068218 -0.315879
v 0.297869 -0.884265 -0.315879
v 0.227090 -1.068218 -0.528118
v -0.056025 -1.063784 -0.648625
v -0.008296 -1.068218 -0.528118
v 0.179361 -1.068218 -0.528118
v 0.227090 0.068834 -0.528118
v -0.056025 0.058971 -0.648625
v -0.056025 0.228482 -0.638125
v -0.056025 0.332728 -0.608224
v 0.227090 0.291708 -0.495226
v 0.227090 0.206838 -0.519569
v 0.227090 0.351729 -0.458793
v -0.056025 0.406452 -0.563475
v -0.056025 -0.884786 -0.648625
v 0.227090 -0.884265 -0.528118
v 0.297869 -1.068218 -0.528118
v 0.297869 -0.884265 -0.528118
v 0.227090 -1.068218 0.528084
v -0.056025 -1.063784 0.648707
v -0.008296 -1.068218 0.528083
v 0.179361 -1.068218 0.528083
v 0.227090 0.068834 0.528084
v -0.056025 0.058971 0.648707
v -0.056025 0.228482 0.638208
v -0.056025 0.332728 0.608307
v 0.227090 0.291708 0.495192
v 0.227090 0.206838 0.519535
v 0.227090 0.351729 0.458759
v -0.056025 0.406452 0.563557
v -0.056025 -0.884786 0.648707
v 0.227090 -0.884265 0.528084
v 0.297869 -1.068218 0.528083
v 0.297869 -0.884265 0.528083
v -0.056025 0.689661 0.112540
v -0.056025 0.689636 0.000041
v -0.056025 0.689611 -0.112457
v -0.375910 0.528269 0.000019
v -0.375899 0.376999 -0.000017
v -0.375910 -1.061497 0.439105
v -0.375899 -1.068218 0.315845
v -0.375899 0.068834 0.315845
v -0.375899 0.206838 0.298749
v -0.375899 0.291708 0.250062
v -0.375899 0.351729 0.177197
v -0.375899 0.376999 0.091247
v -0.375899 -0.884265 0.315845
v -0.375910 0.076272 0.439105
v -0.375910 0.528286 0.076169
v -0.375910 -1.061497 -0.439067
v -0.375899 -1.068218 -0.315879
v -0.375899 0.068834 -0.315879
v -0.375899 0.206838 -0.298783
v -0.375899 0.291708 -0.250096
v -0.375899 0.351729 -0.177231
v -0.375899 0.376999 -0.091281
v -0.375899 -0.884265 -0.315879
v -0.375910 0.076272 -0.439067
v -0.375910 0.528252 -0.076132
v -0.375910 -0.882465 0.439105
v -0.375910 0.191015 -0.431960
v -0.375910 0.261580 -0.411720
v -0.375910 0.311484 -0.381429
v -0.375910 -0.882465 -0.439068
v -0.375910 0.191015 0.431998
v -0.375910 0.261580 0.411757
v -0.375910 0.311484 0.381466
v -0.056025 0.485658 -0.468303
v -0.056025 0.578857 -0.326013
v -0.056025 0.584622 -0.411820
v -0.056025 0.586461 0.329912
v -0.056025 0.507001 0.467793
v -0.056025 0.591512 0.410943
v -0.375910 0.385593 0.310848
v -0.375910 0.430310 0.230617
v -0.375899 0.372190 0.222061
v -0.375910 0.424407 -0.226988
v -0.375910 0.368878 -0.310708
v -0.375899 0.376270 -0.221538
v -0.056025 0.689675 0.176061
v -0.056025 0.656861 0.254189
v -0.056025 0.746597 0.210262
v -0.056025 0.654412 -0.252858
v -0.056025 0.689597 -0.175978
v -0.056025 0.746508 -0.210207
v -0.375910 0.490035 0.180357
v -0.375910 0.528293 0.105332
v -0.375907 0.471595 0.157482
v -0.375910 0.528246 -0.105294
v -0.375910 0.487787 -0.178843
v -0.375907 0.471537 -0.157469
v -0.135017 -0.880260 0.740325
v -0.135015 -1.068218 0.740327
v -0.111635 -0.886117 -0.741918
v -0.111635 -1.072289 -0.741918
v -0.111635 -0.886638 -0.650187
v -0.111635 -1.067855 -0.650187
v -0.135015 -1.063784 0.648713
v -0.135017 -0.880781 0.648711
vn -0.0000 -0.0000 1.0000
vn -0.0000 1.0000 -0.0000
vn -0.0000 -0.0000 -1.0000
vn 0.0044 -0.0654 -0.9978
vn 0.0125 -0.0658 -0.9978
vn -0.0000 -1.0000 -0.0000
vn 0.0208 -0.2833 -0.9588
vn 0.0768 -0.3401 -0.9373
vn 0.0255 -0.6186 -0.7853
vn 0.0612 -0.6279 -0.7759
vn -0.0014 -0.8796 -0.4758
vn -0.0023 -0.8790 -0.4768
vn -0.0052 -0.9909 -0.1343
vn -0.0104 -0.9905 -0.1370
vn 0.0052 -0.9902 -0.1398
vn 0.0052 -0.9909 -0.1343
vn 0.0011 -0.8813 -0.4726
vn 0.0014 -0.8796 -0.4758
vn -0.0047 -0.6469 -0.7626
vn -0.0115 -0.6296 -0.7768
vn 0.0007 -0.3164 -0.9486
vn -0.0089 -0.3293 -0.9442
vn 0.0012 -0.0612 -0.9981
vn -0.0007 -0.0629 -0.9980
vn -0.0358 -0.9992 -0.0156
vn -0.0239 -0.9996 0.0163
vn -0.0181 -0.9998 0.0041
vn -0.0198 -0.9998 0.0027
vn 1.0000 -0.0000 -0.0000
vn -1.0000 -0.0000 -0.0000
vn -0.5481 -0.0000 0.8364
vn -0.5314 0.5467 -0.6471
vn -0.5462 0.3336 -0.7684
vn -0.5460 0.3383 -0.7664
vn -0.5290 0.5649 -0.6333
vn -0.4872 0.6964 -0.5270
vn -0.4875 0.6543 -0.5781
vn -0.4889 0.6613 -0.5690
vn -0.4858 0.6812 -0.5477
vn -0.0000 -0.9898 -0.1425
vn -1.0000 -0.0001 -0.0000
vn -1.0000 -0.0001 0.0001
vn 0.0125 -0.0658 0.9978
vn 0.0044 -0.0654 0.9978
vn 0.0047 0.0002 -1.0000
vn 0.0768 -0.3401 0.9373
vn 0.0208 -0.2833 0.9588
vn 0.0612 -0.6279 0.7759
vn 0.0255 -0.6186 0.7853
vn -0.0023 -0.8790 0.4768
vn -0.0014 -0.8796 0.4758
vn -0.0104 -0.9905 0.1370
vn -0.0052 -0.9909 0.1343
vn 0.0052 -0.9902 0.1398
vn 0.0052 -0.9909 0.1343
vn 0.0011 -0.8813 0.4726
vn 0.0014 -0.8796 0.4758
vn -0.0047 -0.6469 0.7626
vn -0.0115 -0.6296 0.7768
vn 0.0007 -0.3164 0.9486
vn -0.0089 -0.3293 0.9442
vn 0.0012 -0.0612 0.9981
vn -0.0007 -0.0629 0.9980
vn -0.0165 -0.9997 0.0154
vn -0.0198 -0.9998 -0.0027
vn -0.0181 -0.9998 -0.0041
vn -0.0239 -0.9996 -0.0163
vn 0.0095 -0.0010 -1.0000
vn 0.0170 -0.0030 -0.9999
vn 0.0094 0.0005 -1.0000
vn -0.9974 -0.0069 -0.0716
vn -0.9993 -0.0036 -0.0375
vn -0.9994 -0.0032 -0.0334
vn -0.4923 0.6857 0.5361
vn -0.4905 0.7148 0.4986
vn -0.4898 0.7033 0.5153
vn -0.4930 0.6902 0.5297
vn -0.0000 -0.9898 0.1425
vn -0.5053 0.6919 -0.5157
vn -0.5041 0.6978 -0.5088
vn 0.0157 -0.0048 -0.9999
vn 0.0096 -0.0025 -1.0000
vn -0.5470 0.0249 0.8368
vn -0.5468 0.0269 0.8368
vn 0.0041 -0.9995 0.0316
vn 0.0716 -0.9963 0.0482
vn -0.0324 -0.9994 0.0073
vn -0.0148 0.9999 -0.0054
vn -0.5480 -0.0000 -0.8365
vn -0.0324 -0.9994 -0.0073
vn -0.0324 -0.9990 -0.0315
vn -0.5480 0.1423 0.8243
vn -0.5480 0.1417 0.8244
vn -0.4504 0.8928 -0.0002
vn -0.0116 -0.9996 0.0244
vn -0.5463 0.3336 0.7683
vn -0.5461 0.3383 0.7664
vn -0.0000 -0.8835 -0.4684
vn -0.0116 -0.9996 -0.0245
vn -0.5469 0.0249 -0.8368
vn -0.5468 0.0269 -0.8369
vn -0.0000 -0.6452 -0.7640
vn -1.0000 -0.0000 -0.0001
vn -1.0000 -0.0001 -0.0001
vn -1.0000 -0.0000 0.0001
vn -0.5349 0.5095 0.6740
vn -0.5171 0.6683 0.5348
vn -0.5149 0.6822 0.5192
vn -0.5341 0.5184 0.6678
vn -0.0000 -0.0616 0.9981
vn -0.4807 0.8506 -0.2131
vn -0.4786 0.8569 -0.1914
vn -0.0000 -0.3165 0.9486
vn -0.0000 -0.6452 0.7640
vn -0.0000 -0.0616 -0.9981
vn -0.0000 -0.3165 -0.9486
vn -0.5479 0.1423 -0.8243
vn -0.5479 0.1417 -0.8244
vn -0.0000 -0.8835 0.4684
vn -0.4798 0.8543 0.1998
vn -0.4775 0.8605 0.1777
vn 0.0506 0.9987 -0.0057
vn -0.0000 -0.9988 -0.0483
vn 0.0001 -0.0000 1.0000
vn 0.0127 -0.0047 -0.9999
vn -0.0281 -0.0000 0.9996
vn -0.0001 -0.0000 -1.0000
vt 0.562113 0.333333
vt 0.562113 0.250000
vt 0.552403 0.250000
vt 0.552403 0.333333
vt 0.791667 0.575000
vt 0.791667 0.625000
vt 0.875000 0.625000
vt 0.875000 0.575000
vt 0.000000 0.000000
vt 0.562113 0.416667
vt 0.562113 0.500000
vt 0.625000 0.500000
vt 0.625000 0.416667
vt 0.522111 0.333333
vt 0.522111 0.416667
vt 0.542305 0.416667
vt 0.542305 0.333333
vt 0.552403 0.416667
vt 0.291667 0.537500
vt 0.291667 0.575000
vt 0.375000 0.575000
vt 0.375000 0.537500
vt 0.791667 0.564809
vt 0.875000 0.564809
vt 0.625000 0.564809
vt 0.625000 0.575000
vt 0.708333 0.575000
vt 0.708333 0.564809
vt 0.125000 0.537500
vt 0.125000 0.575000
vt 0.208333 0.575000
vt 0.208333 0.537500
vt 0.625000 0.625000
vt 0.708333 0.625000
vt 0.448555 0.333333
vt 0.448555 0.416667
vt 0.448555 0.250000
vt 0.522111 0.250000
vt 0.448555 0.500000
vt 0.522111 0.500000
vt 0.448760 0.537500
vt 0.448964 0.575000
vt 0.522928 0.575000
vt 0.522519 0.537500
vt 0.448760 0.212500
vt 0.522519 0.212500
vt 0.562500 0.610553
vt 0.562500 0.625000
vt 0.542305 0.250000
vt 0.625000 0.175000
vt 0.625000 0.125000
vt 0.578195 0.125000
vt 0.578197 0.175000
vt 0.224278 0.125000
vt 0.542305 0.500000
vt 0.552403 0.500000
vt 0.560800 0.212500
vt 0.551656 0.212500
vt 0.540188 0.537500
vt 0.551656 0.537500
vt 0.559488 0.599497
vt 0.577552 0.178656
vt 0.576519 0.180311
vt 0.577443 0.178830
vt 0.708333 0.500000
vt 0.791667 0.500000
vt 0.875000 0.500000
vt 0.560800 0.549749
vt 0.550910 0.575000
vt 0.625000 0.333333
vt 0.625000 0.250000
vt 0.572076 0.176958
vt 0.577443 0.178830
vt 0.576519 0.180311
vt 0.563751 0.179881
vt 0.559488 0.175000
vt 0.625000 0.185191
vt 0.578104 0.176724
vt 0.588607 0.179530
vt 0.578193 0.175000
vt 0.582802 0.201690
vt 0.564452 0.204229
vt 0.576612 0.180175
vt 0.577587 0.178614
vt 0.577484 0.178780
vt 0.572083 0.176959
vt 0.578134 0.176169
vt 0.562500 0.175000
vt 0.564250 0.204684
vt 0.564250 0.204684
vt 0.588598 0.179529
vt 0.578097 0.176723
vt 0.375000 0.416667
vt 0.375000 0.500000
vt 0.375000 0.250000
vt 0.375000 0.333333
vt 0.582746 0.201626
vt 0.577552 0.178656
vt 0.588598 0.179528
vt 0.125000 0.500000
vt 0.538071 0.575000
vt 0.540188 0.210990
vt 0.577587 0.178614
vt 0.582802 0.201690
vt 0.208333 0.500000
vt 0.291667 0.500000
vt 0.538071 0.171979
vt 0.522928 0.175000
vt 0.550910 0.175000
vt 0.448964 0.175000
vt 0.562500 0.125000
vt 0.563845 0.179989
vt 0.563845 0.179989
vt 0.578128 0.176169
vt 0.564452 0.204229
vt 0.578128 0.176169
vt 0.577649 0.174322
vt 0.566862 0.195791
vt 0.577268 0.175205
vt 0.566779 0.195917
vt 0.578104 0.176724
vt 0.577989 0.178871
vt 0.578407 0.177286
vt 0.578478 0.177188
vt 0.577967 0.179085
vt 0.578134 0.176169
s 1
f 49/1/1 48/2/1 40/3/1 41/4/1
f 31/5/2 5/6/2 1/7/2 11/8/2
f 134/9/3 106/9/4 16/9/5 123/9/3
f 50/10/1 47/11/1 10/12/1 30/13/1
f 35/14/1 36/15/1 38/16/1 37/17/1
f 37/17/1 38/16/1 42/18/1 41/4/1
f 164/19/6 108/20/6 12/21/6 161/22/6
f 46/23/2 31/5/2 11/8/2 43/24/2
f 106/9/4 104/9/7 20/9/8 16/9/5
f 104/9/7 102/9/9 19/9/10 20/9/8
f 102/9/9 100/9/11 18/9/12 19/9/10
f 100/9/11 97/9/13 15/9/14 18/9/12
f 97/9/13 98/9/6 3/9/6 15/9/14
f 22/9/15 4/9/6 96/9/6 95/9/16
f 95/9/16 96/9/6 98/9/6 97/9/13
f 26/9/17 22/9/15 95/9/16 99/9/18
f 99/9/18 95/9/16 97/9/13 100/9/11
f 25/9/19 26/9/17 99/9/18 101/9/20
f 101/9/20 99/9/18 100/9/11 102/9/9
f 24/9/21 25/9/19 101/9/20 103/9/22
f 103/9/22 101/9/20 102/9/9 104/9/7
f 21/9/23 24/9/21 103/9/22 105/9/24
f 105/9/24 103/9/22 104/9/7 106/9/4
f 44/25/2 14/26/2 32/27/2 45/28/2
f 45/28/2 32/27/2 31/5/2 46/23/2
f 162/29/25 13/30/26 107/31/27 163/32/28
f 163/32/28 107/31/27 108/20/6 164/19/6
f 50/10/1 49/1/1 41/4/1 42/18/1
f 124/9/3 21/9/23 105/9/24 136/9/3
f 136/9/3 105/9/24 106/9/4 134/9/3
f 14/26/2 2/33/2 6/34/2 32/27/2
f 32/27/2 6/34/2 5/6/2 31/5/2
f 125/35/1 126/36/1 36/15/1 35/14/1
f 121/37/1 125/35/1 35/14/1 33/38/1
f 126/36/1 122/39/1 34/40/1 36/15/1
f 174/41/29 123/42/29 16/43/29 165/44/29
f 173/45/30 121/37/30 33/38/30 166/46/30
f 14/26/29 15/47/29 3/48/29 2/33/29
f 33/38/1 35/14/1 37/17/1 23/49/1
f 11/50/30 1/51/30 178/52/30 177/53/30
f 23/49/1 37/17/1 41/4/1 40/3/1
f 162/29/31 173/54/31 202/54/31 182/29/31
f 36/15/1 34/40/1 17/55/1 38/16/1
f 38/16/1 17/55/1 39/56/1 42/18/1
f 156/57/32 152/58/33 204/58/34 205/57/35
f 170/59/29 169/60/29 39/56/29 17/55/29
f 165/44/29 170/59/29 17/55/29 34/40/29
f 44/25/29 18/61/29 15/47/29 14/26/29
f 225/62/36 211/63/37 219/63/38 232/64/39
f 30/65/2 45/28/2 46/23/2 29/66/2
f 10/12/2 44/25/2 45/28/2 30/65/2
f 29/66/2 46/23/2 43/24/2 8/67/2
f 171/68/29 169/60/29 19/69/29 18/61/29
f 4/9/6 22/9/15 188/9/40 181/9/6
f 30/13/1 29/70/1 49/1/1 50/10/1
f 42/18/1 39/56/1 47/11/1 50/10/1
f 29/70/1 8/71/1 48/2/1 49/1/1
f 10/12/29 47/11/29 171/68/29 18/61/29
f 233/72/41 232/73/42 219/74/42 221/75/42 197/76/42
f 44/25/29 10/12/29 18/61/29
f 43/77/30 11/50/30 177/53/30 222/78/30 224/79/30
f 93/1/3 85/4/3 84/3/3 92/2/3
f 75/5/2 55/8/2 1/7/2 5/6/2
f 133/9/1 129/9/1 60/9/43 118/9/44
f 94/10/3 74/13/3 54/12/3 91/11/3
f 79/14/45 81/17/3 82/16/3 80/15/3
f 81/17/3 85/4/3 86/18/3 82/16/3
f 148/19/6 145/22/6 56/21/6 120/20/6
f 90/23/2 87/24/2 55/8/2 75/5/2
f 118/9/44 60/9/43 64/9/46 116/9/47
f 116/9/47 64/9/46 63/9/48 114/9/49
f 114/9/49 63/9/48 62/9/50 112/9/51
f 112/9/51 62/9/50 59/9/52 110/9/53
f 110/9/53 59/9/52 3/9/6 98/9/6
f 66/9/54 109/9/55 96/9/6 4/9/6
f 109/9/55 110/9/53 98/9/6 96/9/6
f 70/9/56 111/9/57 109/9/55 66/9/54
f 111/9/57 112/9/51 110/9/53 109/9/55
f 69/9/58 113/9/59 111/9/57 70/9/56
f 113/9/59 114/9/49 112/9/51 111/9/57
f 68/9/60 115/9/61 113/9/59 69/9/58
f 115/9/61 116/9/47 114/9/49 113/9/59
f 65/9/62 117/9/63 115/9/61 68/9/60
f 117/9/63 118/9/44 116/9/47 115/9/61
f 88/25/2 89/28/2 76/27/2 58/26/2
f 89/28/2 90/23/2 75/5/2 76/27/2
f 146/29/64 147/32/65 119/31/66 57/30/67
f 147/32/65 148/19/6 120/20/6 119/31/66
f 94/10/3 86/18/3 85/4/3 93/1/3
f 130/9/1 135/9/1 117/9/63 65/9/62
f 135/9/1 133/9/1 118/9/44 117/9/63
f 58/26/2 76/27/2 6/34/2 2/33/2
f 76/27/2 75/5/2 5/6/2 6/34/2
f 131/35/68 79/14/45 80/15/3 132/36/3
f 127/37/69 77/38/70 79/14/45 131/35/68
f 132/36/3 80/15/3 78/40/3 128/39/3
f 158/41/29 149/44/29 60/43/29 129/42/29
f 157/45/71 150/46/72 77/38/73 127/37/71
f 58/26/29 2/33/29 3/48/29 59/47/29
f 77/38/70 67/49/3 81/17/3 79/14/45
f 55/50/30 179/80/30 178/52/30 1/51/30
f 67/49/3 84/3/3 85/4/3 81/17/3
f 48/2/30 8/71/30 215/81/30 214/82/30 172/57/30
f 80/15/3 82/16/3 61/55/3 78/40/3
f 82/16/3 86/18/3 83/56/3 61/55/3
f 213/83/74 223/84/75 228/85/76 217/83/77
f 154/59/29 61/55/29 83/56/29 153/60/29
f 149/44/29 78/40/29 61/55/29 154/59/29
f 88/25/29 58/26/29 59/47/29 62/61/29
f 230/86/41 229/87/41 191/53/41 188/88/41 187/76/41
f 74/65/2 73/66/2 90/23/2 89/28/2
f 54/12/2 74/65/2 89/28/2 88/25/2
f 73/66/2 52/67/2 87/24/2 90/23/2
f 155/68/29 62/61/29 63/69/29 153/60/29
f 66/9/54 4/9/6 181/9/6 198/9/78
f 74/13/3 94/10/3 93/1/3 73/70/3
f 86/18/3 94/10/3 91/11/3 83/56/3
f 73/70/3 93/1/3 92/2/3 52/71/3
f 54/12/29 62/61/29 155/68/29 91/11/29
f 210/89/79 156/57/32 205/57/35 220/90/80
f 88/25/29 62/61/29 54/12/29
f 87/77/30 227/91/30 226/92/30 179/80/30 55/50/30
f 129/9/1 56/9/1 143/9/1 144/9/1
f 27/93/1 9/94/1 122/39/1 126/36/1
f 7/95/1 28/96/1 125/35/1 121/37/1
f 28/96/1 27/93/1 126/36/1 125/35/1
f 12/9/3 123/9/3 140/9/3 139/9/3
f 71/93/3 132/36/3 128/39/3 53/94/3
f 51/95/81 127/37/69 131/35/68 72/96/82
f 72/96/82 131/35/68 132/36/3 71/93/3
f 120/9/1 56/9/1 129/9/1 133/9/1
f 108/9/3 134/9/3 123/9/3 12/9/3
f 57/9/1 119/9/1 135/9/1 130/9/1
f 13/9/3 124/9/3 136/9/3 107/9/3
f 175/22/29 139/21/29 140/42/29 176/41/29
f 159/22/29 160/41/29 144/42/29 143/21/29
f 122/39/1 9/94/1 138/94/1 137/39/1
f 53/94/3 128/39/3 141/39/3 142/94/3
f 158/41/2 129/42/2 144/42/2 160/41/2
f 174/41/2 122/39/2 137/39/2 176/41/2
f 161/22/6 12/21/6 139/21/6 175/22/6
f 145/22/6 53/94/6 142/94/6 159/22/6
f 52/71/30 212/97/30 211/74/30 225/98/30 227/99/30 87/77/30
f 173/45/31 166/46/83 190/46/84 202/45/31
f 51/100/85 146/29/64 239/29/86 237/100/86
f 56/21/6 145/22/6 159/22/6 143/21/6
f 128/39/2 158/41/2 160/41/2 141/39/2
f 142/94/29 141/39/29 160/41/29 159/22/29
f 92/2/30 84/3/30 152/58/30 156/57/30
f 91/11/29 155/68/29 153/60/29 83/56/29
f 60/43/29 149/44/29 154/59/29 64/101/29
f 64/101/29 154/59/29 153/60/29 63/69/29
f 84/3/30 67/49/30 151/102/30 152/58/30
f 67/49/30 77/38/73 150/46/72 151/102/30
f 8/71/30 43/77/30 224/79/30 223/103/30 213/83/30 215/104/30
f 128/39/29 78/40/29 149/44/29 158/41/29
f 72/105/87 71/106/6 148/19/6 147/32/65
f 51/100/85 72/105/87 147/32/65 146/29/64
f 71/106/6 53/94/6 145/22/6 148/19/6
f 157/45/88 127/37/88 236/37/88 238/45/88
f 9/94/6 161/22/6 175/22/6 138/94/6
f 123/42/2 174/41/2 176/41/2 140/42/2
f 138/94/29 175/22/29 176/41/29 137/39/29
f 48/2/30 172/57/30 168/58/30 40/3/30
f 47/11/29 39/56/29 169/60/29 171/68/29
f 16/43/29 20/101/29 170/59/29 165/44/29
f 20/101/29 19/69/29 169/60/29 170/59/29
f 40/3/30 168/58/30 167/102/30 23/49/30
f 23/49/30 167/102/30 166/46/30 33/38/30
f 157/54/89 146/29/89 192/29/89 206/54/89
f 122/39/29 174/41/29 165/44/29 34/40/29
f 28/105/90 163/32/28 164/19/6 27/106/6
f 7/100/91 162/29/25 163/32/28 28/105/90
f 27/106/6 164/19/6 161/22/6 9/94/6
f 166/46/83 167/102/92 207/102/93 190/46/84
f 177/53/94 178/52/94 180/52/94 191/53/94
f 13/30/26 162/29/25 182/29/95 183/30/95
f 167/102/92 168/58/96 208/58/97 207/102/93
f 22/9/15 26/9/17 187/9/98 188/9/40
f 146/29/64 57/30/67 193/30/99 192/29/99
f 150/46/100 157/45/89 206/45/89 200/46/101
f 26/9/17 25/9/19 186/9/102 187/9/98
f 207/102/103 185/107/103 184/108/103 190/46/103
f 208/58/103 186/109/104 185/107/103 207/102/103
f 209/57/104 187/76/41 186/109/104 208/58/103
f 203/102/105 200/46/105 194/108/105 195/107/105
f 204/58/105 203/102/105 195/107/105 196/109/42
f 205/57/42 204/58/105 196/109/42 197/76/42
f 192/29/105 193/30/105 199/9/105 206/54/105
f 182/29/103 202/54/103 189/9/103 183/30/103
f 199/110/105 194/108/105 200/46/105 206/45/105
f 189/110/103 202/45/103 190/46/103 184/108/103
f 191/53/41 180/52/41 181/111/41 188/88/41
f 218/112/104 217/83/104 228/85/104 230/86/41 187/76/41
f 221/75/42 220/89/42 205/57/42 197/76/42
f 209/57/104 216/82/104 218/113/104 187/76/41
f 201/80/41 231/114/41 233/72/41 197/76/42 198/88/41
f 180/52/41 201/80/41 198/88/41 181/111/41
f 172/57/106 214/115/107 216/115/108 209/57/109
f 57/9/1 130/9/1 199/9/1 193/9/1
f 130/9/1 65/9/62 194/9/110 199/9/1
f 179/80/94 226/92/111 231/116/112 201/80/94
f 65/9/62 68/9/60 195/9/113 194/9/110
f 178/52/94 179/80/94 201/80/94 180/52/94
f 124/9/3 13/9/3 183/9/3 189/9/3
f 68/9/60 69/9/58 196/9/114 195/9/113
f 21/9/23 124/9/3 189/9/3 184/9/115
f 24/9/21 21/9/23 184/9/115 185/9/116
f 152/58/33 151/102/117 203/102/118 204/58/34
f 168/58/96 172/57/106 209/57/109 208/58/97
f 69/9/58 70/9/56 197/9/119 196/9/114
f 25/9/19 24/9/21 185/9/116 186/9/102
f 151/102/117 150/46/100 200/46/101 203/102/118
f 70/9/56 66/9/54 198/9/78 197/9/119
f 210/89/30 211/117/30 212/97/30
f 213/83/30 214/118/30 215/81/30
f 216/115/104 217/119/104 218/112/104
f 219/63/42 220/120/42 221/75/42
f 213/83/74 217/83/77 216/115/108 214/115/107
f 210/89/79 220/90/80 219/63/38 211/63/37
f 92/2/30 156/57/30 210/90/30 212/97/30 52/71/30
f 222/121/30 223/122/30 224/79/30
f 225/62/30 226/123/30 227/91/30
f 228/85/104 229/124/41 230/86/41
f 231/116/41 232/125/42 233/72/41
f 225/62/36 232/64/39 231/116/112 226/92/111
f 228/85/76 223/84/75 222/121/120 229/126/121
f 222/121/120 177/53/94 191/53/94 229/126/121
f 237/100/30 239/29/30 238/54/30 236/37/30
f 235/100/30 234/37/30 241/54/30 240/29/30
f 121/37/122 173/45/122 241/45/122 234/37/122
f 162/29/25 7/100/91 235/100/123 240/29/123
f 7/95/1 121/37/1 234/37/124 235/95/124
f 127/37/69 51/95/81 237/95/125 236/37/125
f 146/29/126 157/54/126 238/54/126 239/29/126
f 173/54/127 162/29/127 240/29/127 241/54/127
f 119/9/1 120/9/1 133/9/1 135/9/1
f 107/9/3 136/9/3 134/9/3 108/9/3
