# Blender 4.2.4 LTS
# www.blender.org
mtllib DOOR.mtl
o DOOR
v -0.130120 0.993387 0.000000
v 0.152995 0.993387 0.000000
v 0.152995 0.427757 0.000000
v -0.130120 0.427757 0.000000
v -0.082391 0.993387 0.000000
v 0.105266 0.993387 0.000000
v -0.082391 0.380679 0.000000
v 0.105266 0.380679 0.000000
v -0.130120 -1.017460 0.740339
v -0.130120 0.993387 0.740339
v 0.152995 -1.017460 0.740339
v 0.152995 0.993387 0.740339
v -0.130120 0.993387 0.092556
v 0.152995 -1.017460 0.315863
v -0.130120 -1.017460 0.315863
v 0.152995 0.993387 0.092556
v 0.152995 0.427757 0.091265
v 0.152995 0.119592 0.315863
v 0.152995 0.257596 0.740339
v 0.152995 0.402487 0.177214
v 0.152995 0.342466 0.250078
v 0.152995 0.257596 0.298765
v -0.130120 0.119592 0.315863
v -0.130120 0.427757 0.091265
v -0.130120 0.257596 0.740339
v -0.130120 0.257596 0.298765
v -0.130120 0.342466 0.250078
v -0.130120 0.402487 0.177214
v 0.105266 -1.017460 0.740339
v -0.082391 -1.017460 0.740339
v -0.082391 0.993387 0.740339
v 0.105266 0.993387 0.740339
v 0.105266 -0.970382 0.281149
v -0.082391 -0.970382 0.281149
v -0.082391 0.993387 0.092556
v 0.105266 0.993387 0.092556
v -0.082391 0.115759 0.281197
v 0.105266 0.115075 0.281197
v 0.105266 0.221198 0.266062
v -0.082391 0.240604 0.266127
v 0.105266 0.304478 0.225086
v -0.082391 0.302875 0.226854
v 0.105266 0.360192 0.163689
v -0.082391 0.360192 0.163689
v 0.105266 0.380679 0.087851
v -0.082391 0.380679 0.087851
v -0.130120 0.119592 0.740339
v 0.152995 0.119592 0.740339
v -0.082391 0.119592 0.740339
v 0.105266 0.119592 0.740339
v -0.082391 0.257596 0.740339
v 0.105266 0.257596 0.740339
v 0.152995 0.342466 0.740339
v -0.130120 0.342466 0.740339
v -0.082391 0.342466 0.740339
v 0.105266 0.342466 0.740339
v -0.130120 0.993387 0.180580
v 0.152995 0.993387 0.180580
v 0.105266 0.993387 0.180580
v -0.082391 0.993387 0.180580
v 0.152995 0.402487 0.740339
v -0.130120 0.402487 0.740339
v -0.082391 0.402487 0.740339
v 0.105266 0.402487 0.740339
v 0.105266 -0.970382 0.000000
v -0.082391 -0.970382 0.000000
v -0.130120 -1.017460 -0.740339
v -0.130120 0.993387 -0.740339
v 0.152995 -1.017460 -0.740339
v 0.152995 0.993387 -0.740339
v -0.130120 0.993387 -0.092556
v 0.152995 -1.017460 -0.315863
v -0.130120 -1.017460 -0.315863
v 0.152995 0.993387 -0.092556
v 0.152995 0.427757 -0.091265
v 0.152995 0.119592 -0.315863
v 0.152995 0.257596 -0.740339
v 0.152995 0.402487 -0.177214
v 0.152995 0.342466 -0.250078
v 0.152995 0.257596 -0.298765
v -0.130120 0.119592 -0.315863
v -0.130120 0.427757 -0.091265
v -0.130120 0.257596 -0.740339
v -0.130120 0.257596 -0.298765
v -0.130120 0.342466 -0.250078
v -0.130120 0.402487 -0.177214
v 0.105266 -1.017460 -0.740339
v -0.082391 -1.017460 -0.740339
v -0.082391 0.993387 -0.740339
v 0.105266 0.993387 -0.740339
v 0.105266 -0.970382 -0.281197
v -0.082391 -0.970382 -0.281197
v -0.082391 0.993387 -0.092556
v 0.105266 0.993387 -0.092556
v -0.082391 0.115759 -0.281197
v 0.105266 0.115075 -0.281197
v 0.105266 0.221198 -0.266060
v -0.082391 0.240604 -0.266127
v 0.105266 0.304478 -0.225086
v -0.082391 0.302875 -0.226852
v 0.105266 0.360192 -0.163689
v -0.082391 0.360192 -0.163689
v 0.105266 0.380679 -0.087851
v -0.082391 0.380679 -0.087851
v -0.130120 0.119592 -0.740339
v 0.152995 0.119592 -0.740339
v -0.082391 0.119592 -0.740339
v 0.105266 0.119592 -0.740339
v -0.082391 0.257596 -0.740339
v 0.105266 0.257596 -0.740339
v 0.152995 0.342466 -0.740339
v -0.130120 0.342466 -0.740339
v -0.082391 0.342466 -0.740339
v 0.105266 0.342466 -0.740339
v -0.130120 0.993387 -0.180578
v 0.152995 0.993387 -0.180578
v 0.105266 0.993387 -0.180578
v -0.082391 0.993387 -0.180578
v 0.152995 0.402487 -0.740339
v -0.130120 0.402487 -0.740339
v -0.082391 0.402487 -0.740339
v 0.105266 0.402487 -0.740339
v -0.082391 0.427757 0.091265
v -0.082391 0.427757 0.000000
v 0.105266 0.427757 0.091265
v 0.105266 0.427757 0.000000
v -0.082391 0.404539 0.177214
v 0.105266 0.404539 0.177214
v -0.082391 0.338419 0.250078
v 0.105266 0.338419 0.250078
v -0.082391 0.261222 0.298765
v 0.105266 0.239465 0.298765
v -0.082391 0.119592 0.315863
v 0.105266 0.119592 0.315863
v -0.082391 -1.017460 0.315863
v 0.105266 -1.017460 0.315863
v 0.105266 -1.017460 0.000000
v -0.082391 -1.017460 0.000000
v -0.082391 0.427757 -0.091265
v 0.105266 0.427757 -0.091265
v -0.082391 0.404539 -0.177214
v 0.105266 0.404539 -0.177214
v -0.082391 0.338419 -0.250078
v 0.105266 0.338419 -0.250078
v -0.082391 0.261222 -0.298765
v 0.105266 0.239465 -0.298765
v -0.082391 0.119592 -0.315863
v 0.105266 0.119592 -0.315863
v -0.082391 -1.017460 -0.315863
v 0.105266 -1.017460 -0.315863
v -0.130120 -0.833507 0.740339
v 0.152995 -0.833507 0.740339
v 0.152995 -0.833507 0.315863
v -0.130120 -0.833507 0.315863
v -0.082391 -0.833507 0.740339
v 0.105266 -0.833507 0.740339
v -0.130120 -0.833507 -0.740339
v 0.152995 -0.833507 -0.740339
v 0.152995 -0.833507 -0.315863
v -0.130120 -0.833507 -0.315863
v -0.082391 -0.833507 -0.740339
v 0.105266 -0.833507 -0.740339
v 0.105266 -0.838072 0.000000
v 0.105266 -0.835010 -0.281197
v 0.105266 -0.834633 -0.315863
v 0.105266 -0.835011 0.281155
v 0.105266 -0.834633 0.315863
v -0.082391 -0.837174 0.000000
v -0.082391 -0.834714 -0.281197
v -0.082391 -0.834411 -0.315863
v -0.082391 -0.834715 0.281155
v -0.082391 -0.834411 0.315863
v 0.223773 -0.833507 0.740339
v 0.223773 -1.017460 0.740339
v 0.223773 -1.017460 0.315863
v 0.223773 -0.833507 0.315863
v 0.223773 -0.833507 -0.740339
v 0.223773 -1.017460 -0.740339
v 0.223773 -1.017460 -0.315863
v 0.223773 -0.833507 -0.315863
v -0.200674 -0.833507 0.740339
v -0.200674 -1.017460 0.740339
v -0.200674 -1.017460 0.315863
v -0.200674 -0.833507 0.315863
v -0.200674 -0.833507 -0.740339
v -0.200674 -1.017460 -0.740339
v -0.200674 -1.017460 -0.315863
v -0.200674 -0.833507 -0.315863
v -0.082391 -0.800120 0.027109
v -0.082391 -0.798135 0.254047
v -0.082391 0.112762 0.254087
v -0.082391 0.224480 0.240601
v -0.082391 0.275077 0.208691
v -0.082391 0.325512 0.153111
v -0.082391 0.343862 0.085180
v -0.082391 0.343862 0.027109
v -0.082391 -0.800120 -0.027109
v -0.082391 0.343862 -0.027109
v -0.082391 0.343862 -0.085180
v -0.082391 0.325512 -0.153111
v -0.082391 0.275077 -0.208691
v -0.082391 0.224480 -0.240601
v -0.082391 0.112761 -0.254087
v -0.082391 -0.798135 -0.254087
v -0.052104 -0.798135 0.254047
v -0.052104 -0.800120 0.027109
v -0.052104 0.343862 0.027109
v -0.052104 0.112762 0.254087
v -0.052104 0.224480 0.240601
v -0.052104 0.275077 0.208691
v -0.052104 0.325512 0.153111
v -0.052104 0.343862 0.085180
v -0.052104 0.343862 -0.027109
v -0.052104 -0.800120 -0.027109
v -0.052104 -0.798135 -0.254087
v -0.052104 0.343862 -0.085180
v -0.052104 0.325512 -0.153111
v -0.052104 0.275077 -0.208691
v -0.052104 0.224480 -0.240601
v -0.052104 0.112761 -0.254087
vn -0.0000 -0.0000 1.0000
vn -0.0000 1.0000 -0.0000
vn -0.0000 -0.0000 -1.0000
vn 0.0125 -0.0659 -0.9978
vn -0.0000 -1.0000 -0.0000
vn 0.0585 -0.2666 -0.9620
vn 0.0768 -0.3401 -0.9373
vn 0.0651 -0.6157 -0.7853
vn 0.0612 -0.6279 -0.7759
vn -0.0027 -0.8817 -0.4718
vn -0.0023 -0.8790 -0.4768
vn -0.0104 -0.9905 -0.1370
vn 0.0104 -0.9905 -0.1370
vn -0.0000 -0.9913 -0.1315
vn 0.0023 -0.8790 -0.4768
vn 0.0027 -0.8817 -0.4718
vn -0.0000 -0.8774 -0.4798
vn -0.0094 -0.6485 -0.7612
vn -0.0089 -0.6386 -0.7695
vn -0.0142 -0.6205 -0.7841
vn 0.0014 -0.3163 -0.9487
vn 0.0010 -0.3343 -0.9425
vn -0.0188 -0.3243 -0.9458
vn -0.0174 -0.2996 -0.9539
vn 0.0023 -0.0608 -0.9981
vn -0.0038 -0.0650 -0.9979
vn 1.0000 -0.0000 -0.0000
vn -1.0000 -0.0000 -0.0000
vn 0.0125 -0.0659 0.9978
vn 0.0768 -0.3401 0.9373
vn 0.0585 -0.2666 0.9620
vn 0.0612 -0.6279 0.7759
vn 0.0651 -0.6157 0.7853
vn -0.0023 -0.8790 0.4768
vn -0.0027 -0.8817 0.4718
vn -0.0104 -0.9905 0.1370
vn 0.0104 -0.9905 0.1370
vn -0.0000 -0.9913 0.1315
vn 0.0023 -0.8790 0.4768
vn 0.0027 -0.8817 0.4718
vn -0.0000 -0.8774 0.4798
vn -0.0094 -0.6485 0.7612
vn -0.0089 -0.6386 0.7695
vn -0.0142 -0.6205 0.7841
vn 0.0014 -0.3163 0.9487
vn 0.0010 -0.3343 0.9425
vn -0.0188 -0.3243 0.9458
vn -0.0174 -0.2996 0.9539
vn 0.0023 -0.0608 0.9981
vn -0.0038 -0.0650 0.9979
vn -0.0000 -0.0600 -0.9982
vn -0.0000 1.0000 0.0087
vn -0.0000 -0.3348 -0.9423
vn -0.0000 -0.6429 -0.7659
vn -0.0000 -0.8774 0.4797
vn -0.0000 -0.6429 0.7659
vn -0.0000 -0.3348 0.9423
vn -0.0000 -0.0600 0.9982
vn -0.0000 1.0000 -0.0087
vt 0.562113 0.333333
vt 0.562113 0.250000
vt 0.552403 0.250000
vt 0.552403 0.333333
vt 0.791667 0.575000
vt 0.791667 0.625000
vt 0.875000 0.625000
vt 0.875000 0.575000
vt 0.000000 0.000000
vt 0.562113 0.416667
vt 0.562113 0.500000
vt 0.625000 0.500000
vt 0.625000 0.416667
vt 0.522111 0.333333
vt 0.522111 0.416667
vt 0.542305 0.416667
vt 0.542305 0.333333
vt 0.552403 0.416667
vt 0.291667 0.500000
vt 0.291667 0.575000
vt 0.375000 0.575000
vt 0.375000 0.500000
vt 0.791667 0.564809
vt 0.875000 0.564809
vt 0.625000 0.564809
vt 0.625000 0.575000
vt 0.708333 0.575000
vt 0.708333 0.564809
vt 0.125000 0.500000
vt 0.125000 0.575000
vt 0.208333 0.575000
vt 0.208333 0.500000
vt 0.625000 0.625000
vt 0.708333 0.625000
vt 0.448555 0.333333
vt 0.448555 0.416667
vt 0.448555 0.250000
vt 0.522111 0.250000
vt 0.448555 0.500000
vt 0.522111 0.500000
vt 0.448964 0.575000
vt 0.522928 0.575000
vt 0.448964 0.175000
vt 0.522928 0.175000
vt 0.562500 0.610553
vt 0.562500 0.625000
vt 0.542305 0.250000
vt 0.625000 0.175000
vt 0.625000 0.125000
vt 0.562500 0.125000
vt 0.562500 0.175000
vt 0.538071 0.171979
vt 0.542305 0.500000
vt 0.552403 0.500000
vt 0.550910 0.175000
vt 0.538071 0.575000
vt 0.550910 0.575000
vt 0.559488 0.599497
vt 0.625000 0.185191
vt 0.559488 0.175000
vt 0.708333 0.500000
vt 0.791667 0.500000
vt 0.875000 0.500000
vt 0.625000 0.333333
vt 0.625000 0.250000
vt 0.375000 0.416667
vt 0.375000 0.250000
vt 0.375000 0.333333
vt 0.375000 0.175000
s 1
f 63/1/1 62/2/1 54/3/1 55/4/1
f 35/5/2 5/6/2 1/7/2 13/8/2
f 167/9/3 134/9/4 18/9/4 153/9/3
f 64/10/1 61/11/1 12/12/1 32/13/1
f 49/14/1 50/15/1 52/16/1 51/17/1
f 51/17/1 52/16/1 56/18/1 55/4/1
f 29/19/5 136/20/5 14/21/5 11/22/5
f 60/23/2 35/5/2 13/8/2 57/24/2
f 134/9/4 132/9/6 22/9/7 18/9/4
f 132/9/6 130/9/8 21/9/9 22/9/7
f 130/9/8 128/9/10 20/9/11 21/9/9
f 128/9/10 125/9/12 17/9/12 20/9/11
f 125/9/12 126/9/5 3/9/5 17/9/12
f 24/9/13 4/9/5 124/9/5 123/9/13
f 123/9/14 124/9/5 126/9/5 125/9/14
f 28/9/15 24/9/13 123/9/13 127/9/16
f 127/9/17 123/9/14 125/9/14 128/9/17
f 27/9/18 28/9/15 127/9/16 129/9/19
f 129/9/20 127/9/17 128/9/17 130/9/20
f 26/9/21 27/9/18 129/9/19 131/9/22
f 131/9/23 129/9/20 130/9/20 132/9/24
f 23/9/25 26/9/21 131/9/22 133/9/25
f 133/9/26 131/9/23 132/9/24 134/9/26
f 58/25/2 16/26/2 36/27/2 59/28/2
f 59/28/2 36/27/2 35/5/2 60/23/2
f 9/29/5 15/30/5 135/31/5 30/32/5
f 30/32/5 135/31/5 136/20/5 29/19/5
f 64/10/1 63/1/1 55/4/1 56/18/1
f 154/9/3 23/9/25 133/9/25 172/9/3
f 135/9/3 172/9/3 133/9/26 134/9/26 167/9/3 136/9/3
f 16/26/2 2/33/2 6/34/2 36/27/2
f 36/27/2 6/34/2 5/6/2 35/5/2
f 163/9/27 166/9/27 33/9/27 65/9/27
f 197/9/3 198/9/3 213/9/3 214/9/3
f 155/35/1 156/36/1 50/15/1 49/14/1
f 151/37/1 155/35/1 49/14/1 47/38/1
f 156/36/1 152/39/1 48/40/1 50/15/1
f 152/39/27 153/41/27 18/42/27 48/40/27
f 154/43/28 151/37/28 47/38/28 23/44/28
f 16/26/27 17/45/27 3/46/27 2/33/27
f 47/38/1 49/14/1 51/17/1 25/47/1
f 13/48/28 1/49/28 4/50/28 24/51/28
f 25/47/1 51/17/1 55/4/1 54/3/1
f 25/47/28 26/52/28 23/44/28 47/38/28
f 50/15/1 48/40/1 19/53/1 52/16/1
f 52/16/1 19/53/1 53/54/1 56/18/1
f 54/3/28 27/55/28 26/52/28 25/47/28
f 22/56/27 21/57/27 53/54/27 19/53/27
f 18/42/27 22/56/27 19/53/27 48/40/27
f 58/25/27 20/58/27 17/45/27 16/26/27
f 57/59/28 13/48/28 24/51/28 28/60/28
f 32/61/2 59/28/2 60/23/2 31/62/2
f 12/12/2 58/25/2 59/28/2 32/61/2
f 31/62/2 60/23/2 57/24/2 10/63/2
f 61/11/27 53/54/27 21/57/27 20/58/27
f 62/2/28 28/60/28 27/55/28 54/3/28
f 32/13/1 31/64/1 63/1/1 64/10/1
f 56/18/1 53/54/1 61/11/1 64/10/1
f 31/64/1 10/65/1 62/2/1 63/1/1
f 12/12/27 61/11/27 20/58/27
f 10/65/28 57/59/28 28/60/28
f 58/25/27 12/12/27 20/58/27
f 62/2/28 10/65/28 28/60/28
f 34/9/28 66/9/28 138/9/28 135/9/28
f 121/1/3 113/4/3 112/3/3 120/2/3
f 93/5/2 71/8/2 1/7/2 5/6/2
f 165/9/1 159/9/1 76/9/29 148/9/29
f 122/10/3 90/13/3 70/12/3 119/11/3
f 107/14/3 109/17/3 110/16/3 108/15/3
f 109/17/3 113/4/3 114/18/3 110/16/3
f 87/19/5 69/22/5 72/21/5 150/20/5
f 118/23/2 115/24/2 71/8/2 93/5/2
f 148/9/29 76/9/29 80/9/30 146/9/31
f 146/9/31 80/9/30 79/9/32 144/9/33
f 144/9/33 79/9/32 78/9/34 142/9/35
f 142/9/35 78/9/34 75/9/36 140/9/36
f 140/9/36 75/9/36 3/9/5 126/9/5
f 82/9/37 139/9/37 124/9/5 4/9/5
f 139/9/38 140/9/38 126/9/5 124/9/5
f 86/9/39 141/9/40 139/9/37 82/9/37
f 141/9/41 142/9/41 140/9/38 139/9/38
f 85/9/42 143/9/43 141/9/40 86/9/39
f 143/9/44 144/9/44 142/9/41 141/9/41
f 84/9/45 145/9/46 143/9/43 85/9/42
f 145/9/47 146/9/48 144/9/44 143/9/44
f 81/9/49 147/9/49 145/9/46 84/9/45
f 147/9/50 148/9/50 146/9/48 145/9/47
f 116/25/2 117/28/2 94/27/2 74/26/2
f 117/28/2 118/23/2 93/5/2 94/27/2
f 67/29/5 88/32/5 149/31/5 73/30/5
f 88/32/5 87/19/5 150/20/5 149/31/5
f 122/10/3 114/18/3 113/4/3 121/1/3
f 160/9/1 170/9/1 147/9/49 81/9/49
f 149/9/1 150/9/1 165/9/1 148/9/50 147/9/50 170/9/1
f 74/26/2 94/27/2 6/34/2 2/33/2
f 94/27/2 93/5/2 5/6/2 6/34/2
f 163/9/27 65/9/27 91/9/27 164/9/27
f 196/9/1 189/9/1 206/9/1 207/9/1
f 161/35/3 107/14/3 108/15/3 162/36/3
f 157/37/3 105/38/3 107/14/3 161/35/3
f 162/36/3 108/15/3 106/40/3 158/39/3
f 158/39/27 106/40/27 76/42/27 159/41/27
f 160/43/28 81/44/28 105/38/28 157/37/28
f 74/26/27 2/33/27 3/46/27 75/45/27
f 105/38/3 83/47/3 109/17/3 107/14/3
f 71/48/28 82/51/28 4/50/28 1/49/28
f 83/47/3 112/3/3 113/4/3 109/17/3
f 83/47/28 105/38/28 81/44/28 84/52/28
f 108/15/3 110/16/3 77/53/3 106/40/3
f 110/16/3 114/18/3 111/54/3 77/53/3
f 112/3/28 83/47/28 84/52/28 85/55/28
f 80/56/27 77/53/27 111/54/27 79/57/27
f 76/42/27 106/40/27 77/53/27 80/56/27
f 116/25/27 74/26/27 75/45/27 78/58/27
f 115/59/28 86/60/28 82/51/28 71/48/28
f 90/61/2 89/62/2 118/23/2 117/28/2
f 70/12/2 90/61/2 117/28/2 116/25/2
f 89/62/2 68/63/2 115/24/2 118/23/2
f 119/11/27 78/58/27 79/57/27 111/54/27
f 120/2/28 112/3/28 85/55/28 86/60/28
f 90/13/3 122/10/3 121/1/3 89/64/3
f 114/18/3 122/10/3 119/11/3 111/54/3
f 89/64/3 121/1/3 120/2/3 68/65/3
f 70/12/27 78/58/27 119/11/27
f 68/65/28 86/60/28 115/59/28
f 116/25/27 78/58/27 70/12/27
f 120/2/28 86/60/28 68/65/28
f 150/9/5 137/9/5 138/9/5 149/9/5
f 7/9/28 46/9/28 123/9/28 124/9/28
f 45/9/27 8/9/27 126/9/27 125/9/27
f 46/9/28 44/9/28 127/9/28 123/9/28
f 43/9/27 45/9/27 125/9/27 128/9/27
f 44/9/28 42/9/28 129/9/28 127/9/28
f 41/9/27 43/9/27 128/9/27 130/9/27
f 42/9/28 40/9/28 131/9/28 129/9/28
f 39/9/27 41/9/27 130/9/27 132/9/27
f 40/9/28 37/9/28 133/9/28 131/9/28
f 38/9/27 39/9/27 132/9/27 134/9/27
f 166/9/27 38/9/27 134/9/27 167/9/27
f 135/9/5 138/9/5 137/9/5 136/9/5
f 104/9/28 7/9/28 124/9/28 139/9/28
f 8/9/27 103/9/27 140/9/27 126/9/27
f 102/9/28 104/9/28 139/9/28 141/9/28
f 103/9/27 101/9/27 142/9/27 140/9/27
f 100/9/28 102/9/28 141/9/28 143/9/28
f 101/9/27 99/9/27 144/9/27 142/9/27
f 98/9/28 100/9/28 143/9/28 145/9/28
f 99/9/27 97/9/27 146/9/27 144/9/27
f 95/9/28 98/9/28 145/9/28 147/9/28
f 97/9/27 96/9/27 148/9/27 146/9/27
f 169/9/28 95/9/28 147/9/28 170/9/28
f 164/9/27 91/9/27 150/9/27 165/9/27
f 91/9/27 65/9/27 137/9/27 150/9/27
f 66/9/28 92/9/28 149/9/28 138/9/28
f 171/9/28 34/9/28 135/9/28 172/9/28
f 33/9/27 136/9/27 137/9/27 65/9/27
f 67/29/5 73/30/5 187/30/5 186/29/5
f 159/9/1 72/9/1 179/9/1 180/9/1
f 29/66/1 11/22/1 152/39/1 156/36/1
f 9/67/1 30/68/1 155/35/1 151/37/1
f 30/68/1 29/66/1 156/36/1 155/35/1
f 15/30/5 9/29/5 182/29/5 183/30/5
f 14/9/3 153/9/3 176/9/3 175/9/3
f 87/66/3 162/36/3 158/39/3 69/22/3
f 67/67/3 157/37/3 161/35/3 88/68/3
f 88/68/3 161/35/3 162/36/3 87/66/3
f 96/9/27 164/9/27 165/9/27 148/9/27
f 8/9/27 163/9/27 164/9/27 96/9/27 97/9/27 99/9/27 101/9/27 103/9/27
f 150/9/1 72/9/1 159/9/1 165/9/1
f 33/9/27 166/9/27 167/9/27 136/9/27
f 8/9/27 45/9/27 43/9/27 41/9/27 39/9/27 38/9/27 166/9/27 163/9/27
f 136/9/3 167/9/3 153/9/3 14/9/3
f 92/9/28 169/9/28 170/9/28 149/9/28
f 66/9/28 168/9/28 169/9/28 92/9/28
f 73/9/1 149/9/1 170/9/1 160/9/1
f 37/9/28 171/9/28 172/9/28 133/9/28
f 66/9/28 34/9/28 171/9/28 168/9/28
f 15/9/3 154/9/3 172/9/3 135/9/3
f 174/22/27 175/21/27 176/41/27 173/39/27
f 178/22/27 177/39/27 180/41/27 179/21/27
f 152/39/1 11/22/1 174/22/1 173/39/1
f 69/22/3 158/39/3 177/39/3 178/22/3
f 158/39/2 159/41/2 180/41/2 177/39/2
f 153/41/2 152/39/2 173/39/2 176/41/2
f 11/22/5 14/21/5 175/21/5 174/22/5
f 72/21/5 69/22/5 178/22/5 179/21/5
f 183/69/28 182/67/28 181/37/28 184/43/28
f 187/69/28 188/43/28 185/37/28 186/67/28
f 160/43/2 157/37/2 185/37/2 188/43/2
f 151/37/2 154/43/2 184/43/2 181/37/2
f 154/9/3 15/9/3 183/9/3 184/9/3
f 73/9/1 160/9/1 188/9/1 187/9/1
f 9/67/1 151/37/1 181/37/1 182/67/1
f 157/37/3 67/67/3 186/67/3 185/37/3
f 168/9/28 171/9/28 190/9/28 189/9/28
f 171/9/28 37/9/28 191/9/28 190/9/28
f 37/9/28 40/9/28 192/9/28 191/9/28
f 40/9/28 42/9/28 193/9/28 192/9/28
f 42/9/28 44/9/28 194/9/28 193/9/28
f 44/9/28 46/9/28 195/9/28 194/9/28
f 46/9/28 7/9/28 196/9/28 195/9/28
f 7/9/28 168/9/28 189/9/28 196/9/28
f 168/9/28 7/9/28 198/9/28 197/9/28
f 7/9/28 104/9/28 199/9/28 198/9/28
f 104/9/28 102/9/28 200/9/28 199/9/28
f 102/9/28 100/9/28 201/9/28 200/9/28
f 100/9/28 98/9/28 202/9/28 201/9/28
f 98/9/28 95/9/28 203/9/28 202/9/28
f 95/9/28 169/9/28 204/9/28 203/9/28
f 169/9/28 168/9/28 197/9/28 204/9/28
f 206/9/28 205/9/28 208/9/28 209/9/28 210/9/28 211/9/28 212/9/28 207/9/28
f 214/9/28 213/9/28 216/9/28 217/9/28 218/9/28 219/9/28 220/9/28 215/9/28
f 190/9/3 191/9/51 208/9/51 205/9/3
f 204/9/52 197/9/52 214/9/52 215/9/52
f 191/9/51 192/9/53 209/9/53 208/9/51
f 198/9/5 199/9/38 216/9/38 213/9/5
f 192/9/53 193/9/54 210/9/54 209/9/53
f 199/9/38 200/9/55 217/9/55 216/9/38
f 193/9/54 194/9/17 211/9/17 210/9/54
f 200/9/55 201/9/56 218/9/56 217/9/55
f 194/9/17 195/9/14 212/9/14 211/9/17
f 201/9/56 202/9/57 219/9/57 218/9/56
f 195/9/14 196/9/5 207/9/5 212/9/14
f 202/9/57 203/9/58 220/9/58 219/9/57
f 189/9/59 190/9/59 205/9/59 206/9/59
f 203/9/58 204/9/1 215/9/1 220/9/58
