# Blender 4.2.4 LTS
# www.blender.org
mtllib MAINWALL4.mtl
o MAINWALL4
v 0.023732 -1.005619 -0.387274
v 0.023732 1.005619 -0.387274
v 0.023734 1.005619 1.093691
v 0.023734 -1.005619 1.093691
v -0.023732 1.005619 1.093691
v -0.023732 -1.005619 1.093691
v -0.023734 1.005619 -0.387274
v -0.023734 -1.005619 -0.387274
v 0.023734 1.005619 -0.159575
v -0.023732 -1.005619 -0.159575
v -0.023732 1.005619 -0.159575
v 0.023734 -1.005619 -0.159575
v 0.079353 -1.005619 -0.387274
v 0.079353 1.005619 -0.387274
v -0.079355 1.005619 -0.387274
v -0.079355 -1.005619 -0.387274
v 0.079354 -1.005619 -0.159575
v 0.079354 1.005619 -0.159575
v -0.079353 -1.005619 -0.159575
v -0.079353 1.005619 -0.159575
vn -0.0000 -0.0000 1.0000
vn -0.0000 -0.0000 -1.0000
vn -0.0000 -1.0000 -0.0000
vn -1.0000 -0.0000 -0.0000
vn -0.0000 1.0000 -0.0000
vn 1.0000 -0.0000 -0.0000
vt 0.375000 0.250000
vt 0.625000 0.250000
vt 0.625000 0.500000
vt 0.375000 0.500000
vt 0.375000 0.750000
vt 0.625000 0.750000
vt 0.625000 1.000000
vt 0.375000 1.000000
vt 0.172802 0.595603
vt 0.375000 0.547802
vt 0.625000 0.547802
vt 0.625000 0.202198
vt 0.625000 0.000000
vt 0.125000 0.500000
s 0
f 4/1/1 3/2/1 5/3/1 6/4/1
f 8/5/2 7/6/2 2/7/2 1/8/2
f 12/9/3 10/10/3 8/5/3 1/8/3
f 10/10/4 6/4/4 5/3/4 11/11/4
f 9/12/5 2/13/5 7/6/5 11/11/5
f 12/9/6 9/12/6 3/2/6 4/14/6
f 8/5/3 10/10/3 19/10/3 16/5/3
f 3/2/5 9/12/5 11/11/5 5/3/5
f 1/8/2 2/7/2 14/7/2 13/8/2
f 4/14/3 6/4/3 10/10/3 12/9/3
f 13/8/6 14/13/6 18/12/6 17/9/6
f 16/5/4 19/10/4 20/11/4 15/6/4
f 12/9/3 1/8/3 13/8/3 17/9/3
f 10/10/1 11/11/1 20/11/1 19/10/1
f 7/6/2 8/5/2 16/5/2 15/6/2
f 9/12/1 12/9/1 17/9/1 18/12/1
f 11/11/5 7/6/5 15/6/5 20/11/5
f 2/13/5 9/12/5 18/12/5 14/13/5
