# Blender 4.2.4 LTS
# www.blender.org
mtllib MAINWALLPATTERN.mtl
o MAINWALLPATTERN
v 0.038997 -0.827608 -0.727617
v 0.038997 1.183629 -0.727617
v 0.038999 1.183629 0.753347
v 0.038999 -0.827608 0.753347
v -0.008467 1.183629 0.753347
v -0.008467 -0.827608 0.753347
v -0.007330 1.183628 -0.727627
v -0.009114 -0.827608 -0.727612
v -0.008467 -0.827608 0.551355
v -0.007371 -0.827609 -0.525633
v 0.038999 1.183629 0.551355
v 0.038998 1.183629 -0.525623
v -0.005587 1.183630 -0.525614
v -0.004489 1.183629 0.551355
v 0.038999 -0.827608 0.551355
v 0.038998 -0.827608 -0.525623
v 0.101420 -0.827608 -0.727617
v 0.101420 1.183629 -0.727617
v 0.101422 1.183629 0.753347
v 0.101422 -0.827608 0.753347
v -0.070890 1.183629 0.753347
v -0.070890 -0.827608 0.753347
v -0.070892 1.183629 -0.727617
v -0.070892 -0.827608 -0.727617
v -0.070891 -0.827608 -0.525623
v 0.101420 1.183629 -0.525623
v 0.101421 1.183629 0.551354
v -0.070890 -0.827608 0.551355
v -0.070890 1.183629 0.551355
v 0.101420 -0.827608 -0.525623
v 0.101421 -0.827608 0.551354
v -0.070891 1.183629 -0.525623
v 0.038997 -0.655834 -0.727617
v 0.038999 -0.655834 0.753347
v -0.008467 -0.655834 0.753347
v -0.008962 -0.655833 -0.727613
v 0.038998 -0.655834 -0.525623
v 0.038999 -0.655834 0.551355
v -0.004490 -0.644359 -0.524668
v -0.004489 -0.644359 0.552311
v 0.101420 -0.655834 -0.727617
v 0.101422 -0.655834 0.753347
v -0.070890 -0.655834 0.753347
v -0.070892 -0.655834 -0.727617
v 0.101420 -0.655834 -0.525623
v 0.101421 -0.655834 0.551354
v -0.070891 -0.655834 -0.525623
v -0.070890 -0.655834 0.551355
v 0.038997 1.008517 -0.727617
v -0.005093 1.002665 -0.525187
v -0.004489 1.014254 0.551833
v 0.101420 1.008517 -0.727617
v -0.070891 1.008517 -0.525623
v -0.070890 1.008517 0.551355
v 0.038999 1.008517 0.753347
v -0.008467 1.008517 0.753347
v -0.008146 1.008517 -0.727620
v 0.038998 1.008517 -0.525623
v 0.038999 1.008517 0.551355
v 0.101422 1.008517 0.753347
v -0.070890 1.008517 0.753347
v -0.070892 1.008517 -0.727617
v 0.101420 1.008517 -0.525623
v 0.101421 1.008517 0.551354
v -0.007920 -0.827609 0.012861
v 0.038998 1.183629 0.012866
v 0.038998 -0.827608 0.012866
v -0.005038 1.183630 0.012871
v -0.004490 -0.644359 0.012293
v 0.038998 -0.655834 0.012866
v -0.070891 -0.827608 0.012866
v -0.070891 -0.655834 0.012866
v -0.004764 1.014254 0.013347
v 0.038998 1.008517 0.012866
v -0.070891 1.183629 0.012866
v -0.070891 1.008517 0.012866
v -0.070890 -0.391358 0.551355
v -0.070891 -0.397225 -0.525623
v 0.101420 -0.396648 -0.727617
v -0.004575 -0.397225 -0.524741
v 0.038997 -0.396648 -0.727617
v 0.038998 -0.396648 0.012866
v 0.101421 -0.396648 0.551354
v 0.101420 -0.396648 -0.525623
v -0.070892 -0.396648 -0.727617
v -0.070890 -0.396648 0.753347
v 0.101422 -0.396648 0.753347
v 0.038999 -0.396648 0.551355
v 0.038998 -0.396648 -0.525623
v -0.008835 -0.396648 -0.727614
v -0.008467 -0.396648 0.753347
v 0.038999 -0.396648 0.753347
v -0.004490 -0.644334 0.013822
v -0.004489 -0.391358 0.552212
v -0.070891 1.008517 -0.204305
v -0.004499 -0.556267 0.093909
v -0.004518 -0.551674 -0.066593
v -0.004490 -0.644359 -0.204305
v -0.004989 1.006312 -0.353324
v -0.004490 -0.644359 -0.353324
v 0.038998 -0.345951 -0.353324
v -0.070891 1.183629 -0.353324
v 0.038998 1.008517 -0.353324
v -0.004541 -0.471218 -0.204305
v -0.070891 -0.827608 -0.353324
v 0.038998 -0.655834 -0.353324
v -0.004489 -0.644359 0.073654
v -0.004527 -0.461153 -0.057286
v -0.004599 -0.340783 -0.524761
v -0.004546 -0.412597 -0.204305
v -0.004490 -0.644359 -0.049067
v -0.004514 -0.459663 0.082706
v -0.004510 -0.409763 0.227556
v -0.004489 -0.340783 0.552217
v -0.004518 -0.476758 0.013194
v 0.038998 -0.345951 0.012866
v 0.101421 -0.345951 0.551354
v 0.101420 -0.345951 -0.525623
v -0.070892 -0.345951 -0.727617
v -0.070890 -0.345951 0.753347
v 0.101422 -0.345951 0.753347
v 0.038999 -0.345951 0.551355
v 0.038998 -0.345951 -0.525623
v -0.008800 -0.345951 -0.727614
v -0.008467 -0.345951 0.753347
v 0.038999 -0.345951 0.753347
v 0.038997 -0.345951 -0.727617
v 0.101420 -0.345951 -0.727617
v -0.070891 -0.340783 -0.525623
v -0.070890 -0.340783 0.551355
v -0.005414 1.183630 -0.353324
v 0.038998 1.183629 -0.353324
v -0.007544 -0.827609 -0.353324
v -0.004562 -0.414105 -0.353324
v -0.004573 -0.350141 -0.353324
v 0.038998 -0.396648 -0.353324
v -0.070891 1.008517 -0.353324
v -0.070891 -0.655834 -0.353324
v -0.004503 -0.349073 0.385253
v 0.038998 -0.827608 -0.353324
v 0.038998 -0.827608 -0.050024
v -0.070891 -0.655834 -0.050023
v 0.038998 -0.396648 -0.050024
v -0.070891 1.008517 -0.050023
v -0.007855 -0.827609 -0.050029
v 0.038998 1.183629 -0.050024
v -0.005102 1.183630 -0.050018
v 0.038998 -0.655834 -0.050024
v -0.070891 -0.827608 -0.050023
v 0.038998 1.008517 -0.050024
v -0.070891 1.183629 -0.050023
v 0.038998 -0.345951 -0.050024
v -0.007980 -0.827609 0.072694
v 0.038998 1.183629 0.072698
v -0.004977 1.183630 0.072702
v 0.038998 -0.655834 0.072698
v -0.070891 -0.827608 0.072699
v 0.038998 -0.396648 0.072698
v 0.038998 1.008517 0.072698
v -0.070891 1.183629 0.072699
v 0.038998 -0.827608 0.072698
v -0.070891 -0.655834 0.072699
v -0.004733 1.014254 0.082706
v -0.070891 1.008517 0.072699
v 0.038998 -0.345951 0.072698
v -0.004507 -0.552865 0.012995
v -0.004500 -0.473665 0.227556
v -0.004497 -0.410546 0.385253
v -0.072670 -0.461166 -0.064792
v -0.072661 -0.551687 -0.066589
v -0.072705 -0.414118 -0.353324
v -0.072684 -0.471231 -0.204305
v -0.072689 -0.412610 -0.204305
v -0.072716 -0.350154 -0.353324
v -0.072650 -0.552878 0.013001
v -0.072661 -0.476771 0.013200
v 0.101420 1.010446 -0.727617
v 0.038997 1.010446 -0.727617
v -0.008137 1.010446 -0.727620
v -0.070892 1.010446 -0.727617
v -0.004802 1.012896 -0.057286
v -0.068938 -0.556274 0.093913
v -0.068938 -0.473673 0.227556
v -0.068935 -0.410554 0.385253
v -0.068952 -0.459671 0.092234
v -0.068948 -0.409771 0.227556
v -0.068942 -0.349081 0.385253
v -0.070891 -0.655834 -0.204305
v 0.038998 -0.827608 -0.204305
v 0.038998 -0.396648 -0.204305
v -0.007696 -0.827609 -0.204305
v 0.038998 1.183629 -0.204305
v -0.005262 1.183630 -0.204305
v 0.038998 -0.655834 -0.204305
v -0.070891 -0.827608 -0.204305
v 0.038998 1.008517 -0.204305
v -0.070891 1.183629 -0.204305
v 0.038998 -0.345951 -0.204305
v -0.004898 1.009517 -0.204305
v -0.008139 -0.827609 0.227556
v -0.008301 -0.827609 0.385253
v 0.038998 1.183629 0.227556
v 0.038998 1.183629 0.385253
v -0.004818 1.183630 0.227556
v -0.004656 1.183630 0.385253
v 0.038998 -0.655834 0.227556
v 0.038998 -0.655834 0.385253
v -0.070890 -0.827608 0.227556
v -0.070890 -0.827608 0.385253
v 0.038998 -0.396648 0.227556
v 0.038998 -0.396648 0.385253
v 0.038998 1.008517 0.227556
v 0.038998 1.008517 0.385253
v -0.070890 1.183629 0.227556
v -0.070890 1.183629 0.385253
v 0.038998 -0.345951 0.227556
v 0.038998 -0.345951 0.385253
v -0.004489 -0.644359 0.385253
v -0.004489 -0.644359 0.227556
v 0.038998 -0.827608 0.385253
v 0.038998 -0.827608 0.227556
v -0.070890 -0.655834 0.385253
v -0.070890 -0.655834 0.227556
v -0.004573 1.014254 0.385253
v -0.004654 1.014254 0.227556
v -0.070890 1.008517 0.385253
v -0.070890 1.008517 0.227556
vn -0.0000 -0.0000 1.0000
vn 0.0001 -0.0000 -1.0000
vn -0.0000 -1.0000 -0.0000
vn -0.0000 1.0000 -0.0000
vn 1.0000 -0.0000 -0.0000
vn 0.0861 -0.9963 -0.0000
vn -1.0000 -0.0000 -0.0000
vn 0.0072 0.0026 -1.0000
vn -0.0000 -0.0000 -1.0000
vn 0.0129 -0.0000 -0.9999
vn -0.1703 0.9854 -0.0000
vn -0.0070 -0.0027 1.0000
vn -0.0001 -0.0000 -1.0000
vn 0.0037 -0.0014 -1.0000
vn -0.0033 0.0012 1.0000
vn -1.0000 -0.0001 -0.0000
vn -0.0139 0.0001 0.9999
vn 0.0137 -0.0002 -0.9999
vn -0.0132 0.0002 0.9999
vn -1.0000 -0.0001 0.0003
vn -0.0074 0.0035 1.0000
vn -0.0091 -0.9999 0.0108
vn -0.0179 0.9469 0.3209
vn -0.0001 0.9333 -0.3592
vn 0.0215 -0.1704 -0.9851
vn 0.0101 -0.0001 -0.9999
vn 0.0002 -0.9338 -0.3579
vn -1.0000 -0.0002 0.0003
vn -0.0163 0.9745 -0.2239
vn 0.0864 -0.9963 -0.0000
vn -1.0000 -0.0003 -0.0000
vn -1.0000 -0.0002 -0.0000
vn 0.0118 -0.2159 0.9763
vn 0.0001 -0.8506 0.5258
vn -1.0000 -0.0001 0.0001
vn -0.9999 -0.0170 -0.0001
vn -0.9999 -0.0001 -0.0106
vn 0.0007 -0.9952 -0.0978
vn 0.1705 -0.9854 0.0002
vn -0.0115 0.9785 0.2057
vn 0.0001 -0.0026 1.0000
vn -0.0004 0.9985 0.0544
vn 0.0002 -0.8634 -0.5044
vn -0.0002 0.9223 0.3865
vn -0.0098 0.0002 1.0000
vn -0.0611 -0.9981 0.0106
vn -1.0000 -0.0003 0.0004
vn 0.0768 -0.9970 0.0101
vn -1.0000 -0.0002 0.0001
vn -0.9999 -0.0001 -0.0117
vn -0.9989 0.0002 0.0463
vn -0.9997 -0.0018 0.0263
vn 0.1705 -0.9854 -0.0002
vn 0.0001 -0.9284 0.3716
vn -0.0249 0.9417 -0.3355
vn 0.0003 0.9988 -0.0497
vn -0.0007 -0.9934 0.1145
vn 0.0413 -0.9991 0.0112
vn 0.0863 -0.9963 -0.0000
vn 0.0862 -0.9963 -0.0000
vn -1.0000 -0.0002 0.0004
vn -1.0000 -0.0003 0.0003
vn -1.0000 -0.0000 0.0003
vt 0.562500 0.250000
vt 0.625000 0.250000
vt 0.625000 0.500000
vt 0.562500 0.500000
vt 0.563188 0.750000
vt 0.625000 0.750000
vt 0.625000 1.000000
vt 0.563188 1.000000
vt 0.125000 0.500000
vt 0.208333 0.666667
vt 0.291667 0.833333
vt 0.375000 0.666667
vt 0.375000 0.750000
vt 0.375000 1.000000
vt 0.625000 0.083333
vt 0.625000 0.000000
vt 0.625000 0.666667
vt 0.625000 0.096454
vt 0.625000 0.653547
vt 0.625000 0.166667
vt 0.625000 0.583333
vt 0.523999 0.288501
vt 0.625000 0.154004
vt 0.520833 0.291667
vt 0.562500 0.595996
vt 0.562500 0.583333
vt 0.562500 0.595995
vt 0.375000 0.500000
vt 0.375000 0.583333
vt 0.278547 0.807093
vt 0.375000 0.653547
vt 0.563188 0.247247
vt 0.541667 0.270833
vt 0.562500 0.666667
vt 0.563188 0.750000
vt 0.500000 0.312500
vt 0.500000 0.583333
vt 0.500000 0.250000
vt 0.375000 0.250000
vt 0.458333 0.458333
vt 0.500000 0.750000
vt 0.512401 0.583333
vt 0.509733 0.583333
vt 0.416667 0.416667
vt 0.500000 0.500000
vt 0.509733 0.750000
vt 0.509733 0.750000
vt 0.471311 0.429134
vt 0.471311 0.429134
vt 0.500000 1.000000
vt 0.509733 0.250000
vt 0.375000 0.375000
vt 0.500000 0.666667
vt 0.500553 0.653077
vt 0.500000 0.653546
vt 0.220996 0.691991
vt 0.422998 0.422998
vt 0.375000 0.595996
vt 0.500000 0.595996
vt 0.375000 0.595996
vt 0.562500 0.750000
vt 0.509733 1.000000
vt 0.512401 0.750000
vt 0.474867 0.421132
vt 0.474867 0.421132
vt 0.512401 0.250000
vt 0.432888 0.397201
vt 0.432888 0.397201
vt 0.509733 0.500000
vt 0.512401 1.000000
vt 0.512401 1.000000
vt 0.509733 1.000000
vt 0.394466 0.365267
vt 0.512401 0.666667
vt 0.509733 0.666667
vt 0.512401 0.450398
vt 0.509733 0.461068
vt 0.625000 0.595996
vt 0.625000 0.653546
vt 0.625000 0.620370
vt 0.625000 0.625000
vt 0.625000 0.620370
vt 0.562500 0.629866
vt 0.562500 0.625000
vt 0.625000 0.629866
vt 0.438726 0.402053
vt 0.375000 0.629866
vt 0.375000 0.625000
vt 0.375000 0.629866
vt 0.500000 0.625000
vt 0.500000 0.629866
vt 0.254866 0.759732
vt 0.439933 0.439933
vt 0.437500 0.437500
vt 0.250000 0.750000
vt 0.500000 0.620370
vt 0.500000 0.620370
vt 0.245370 0.740741
vt 0.375000 0.620370
vt 0.568700 0.666667
vt 0.532467 0.280033
vt 0.625000 0.120134
vt 0.625000 0.125000
vt 0.531250 0.281250
vt 0.625000 0.129630
vt 0.454343 0.415032
vt 0.452099 0.413168
vt 0.508235 0.604128
vt 0.504641 0.619210
vt 0.500000 0.608341
vt 0.437334 0.391865
vt 0.437334 0.391865
vt 0.512401 0.500000
vt 0.512401 0.500000
vt 0.399801 0.362599
vt 0.501039 0.641139
vt 0.500000 0.642022
vt 0.443037 0.396312
vt 0.509733 0.666667
vt 0.562500 1.000000
vt 0.458293 0.408207
vt 0.456101 0.406498
vt 0.512401 0.666666
vt 0.375000 0.642022
vt 0.375000 0.642022
vt 0.375000 0.653546
vt 0.451773 0.451773
vt 0.446011 0.446011
vt 0.267022 0.784044
vt 0.625000 0.107978
vt 0.625000 0.642022
vt 0.625000 0.642022
vt 0.562500 0.653546
vt 0.508984 0.609949
vt 0.562500 0.608341
vt 0.562500 0.620370
vt 0.506236 0.622105
vt 0.500001 0.625000
vt 0.500000 0.629866
vt 0.503444 0.624973
vt 0.000000 0.000000
vt 0.506236 0.627895
vt 0.508984 0.640052
vt 0.510145 0.601746
vt 0.504641 0.630790
vt 0.502321 0.627895
vt 0.508984 0.656268
vt 0.508236 0.645872
vt 0.506236 0.624951
vt 0.496569 0.551743
vt 0.538387 0.274113
vt 0.465261 0.424107
vt 0.468958 0.416524
vt 0.562500 0.642022
vt 0.459948 0.419690
vt 0.463768 0.412477
vt 0.535505 0.276994
vt 0.454016 0.404873
vt 0.449965 0.411393
vt 0.530093 0.282407
vt 0.625000 0.141659
vt 0.625000 0.608341
vt 0.233341 0.716682
vt 0.375000 0.608341
vt 0.500000 0.608341
vt 0.435185 0.435185
vt 0.625000 0.608341
vt 0.562500 0.620370
vt 0.375000 0.620370
vt 0.502321 0.622105
vt 0.510145 0.648254
vt 0.509733 0.666665
vt 0.511306 0.656456
vt 0.177038 0.196708
vt 0.508984 0.593732
vt 0.509733 0.583335
vt 0.511306 0.593543
vt 0.625000 0.595996
vt 0.500000 0.595996
vt 0.448598 0.400648
vt 0.444419 0.406784
vt 0.527085 0.285415
vt 0.429171 0.429171
vt 0.562500 0.608341
vt 0.375000 0.608341
vt 0.332543 0.369492
s 0
f 55/1/1 3/2/1 5/3/1 56/4/1
f 179/5/2 7/6/2 2/7/2 178/8/2
f 4/9/3 15/10/3 31/10/3 20/9/3
f 16/11/3 10/12/3 8/13/3 1/14/3
f 12/15/4 2/16/4 7/6/4 13/17/4
f 8/13/3 10/12/3 25/12/3 24/13/3
f 132/18/4 12/15/4 13/17/4 131/19/4
f 3/2/4 11/20/4 14/21/4 5/3/4
f 213/22/5 203/23/5 11/20/5 59/24/5
f 16/11/3 1/14/3 17/14/3 30/11/3
f 224/25/6 51/26/6 54/26/6 226/27/6
f 4/9/3 6/28/3 9/29/3 15/10/3
f 140/30/3 133/31/3 10/12/3 16/11/3
f 177/32/5 18/16/5 26/15/5 63/33/5
f 54/26/7 61/4/7 21/3/7 29/21/7
f 53/34/7 32/17/7 23/6/7 180/35/7
f 64/24/5 27/20/5 19/2/5 60/36/5
f 40/37/8 9/29/8 28/29/8 48/37/8
f 2/16/4 12/15/4 26/15/4 18/16/4
f 178/8/9 2/7/9 18/7/9 177/8/9
f 13/17/4 7/6/4 23/6/4 32/17/4
f 11/20/4 3/2/4 19/2/4 27/20/4
f 34/38/1 4/39/1 20/39/1 42/38/1
f 37/40/1 16/11/1 30/11/1 45/40/1
f 9/29/3 6/28/3 22/28/3 28/29/3
f 56/4/1 5/3/1 21/3/1 61/4/1
f 59/24/9 11/20/9 27/20/9 64/24/9
f 5/3/4 14/21/4 29/21/4 21/3/4
f 36/41/2 8/13/2 24/13/2 44/41/2
f 114/42/10 94/43/10 77/43/10 130/42/10
f 15/10/9 38/44/9 46/44/9 31/10/9
f 6/28/1 35/45/1 43/45/1 22/28/1
f 90/46/2 36/41/2 44/41/2 85/47/2
f 89/48/1 37/40/1 45/40/1 84/49/1
f 1/14/9 33/50/9 41/50/9 17/14/9
f 92/51/1 34/38/1 42/38/1 87/51/1
f 31/10/5 46/44/5 42/52/5 20/9/5
f 24/13/7 25/12/7 47/53/7 44/41/7
f 28/29/7 22/28/7 43/45/7 48/37/7
f 17/14/5 41/45/5 45/40/5 30/11/5
f 100/54/11 39/53/11 47/53/11 138/55/11
f 220/56/5 207/57/5 38/44/5 15/10/5
f 10/12/12 39/53/12 47/53/12 25/12/12
f 8/13/13 36/41/13 33/50/13 1/14/13
f 4/39/1 34/38/1 35/45/1 6/28/1
f 209/58/7 28/29/7 48/37/7 222/59/7
f 201/60/3 9/29/3 28/29/3 209/58/3
f 14/21/14 51/26/14 54/26/14 29/21/14
f 3/2/1 55/1/1 60/1/1 19/2/1
f 12/15/1 58/33/1 63/33/1 26/15/1
f 179/5/9 57/61/9 62/61/9 180/35/9
f 36/41/13 90/46/13 81/62/13 33/50/13
f 124/63/9 90/46/9 85/47/9 119/63/9
f 123/64/1 89/48/1 84/49/1 118/65/1
f 126/66/1 92/51/1 87/51/1 121/66/1
f 38/44/9 88/67/9 83/68/9 46/44/9
f 35/45/1 91/69/1 86/69/1 43/45/1
f 127/70/9 128/71/9 79/72/9 81/62/9
f 46/44/5 83/68/5 87/73/5 42/52/5
f 129/74/7 119/63/7 85/47/7 78/75/7
f 43/45/7 86/69/7 77/43/7 48/37/7
f 128/76/5 118/65/5 84/49/5 79/77/5
f 226/27/7 54/26/7 29/21/7 215/78/7
f 131/19/4 13/17/4 32/17/4 102/79/4
f 155/80/4 68/81/4 75/81/4 160/82/4
f 144/83/7 76/84/7 75/81/7 151/85/7
f 207/57/5 211/86/5 88/67/5 38/44/5
f 145/87/3 65/88/3 71/88/3 149/89/3
f 149/89/7 71/88/7 72/90/7 142/91/7
f 141/92/5 148/93/5 70/94/5 67/95/5
f 107/96/11 69/90/11 72/90/11 162/97/11
f 161/98/3 153/99/3 65/88/3 67/95/3
f 13/17/15 32/17/15 53/34/15 50/100/15
f 150/101/5 146/102/5 66/103/5 74/104/5
f 154/105/4 66/103/4 68/81/4 155/80/4
f 34/38/1 92/51/1 91/69/1 35/45/1
f 148/93/5 143/106/5 82/107/5 70/94/5
f 167/108/16 96/109/16 107/96/16 219/110/16
f 122/111/9 59/24/9 64/24/9 117/112/9
f 125/113/1 56/4/1 61/4/1 120/114/1
f 81/62/9 79/72/9 41/50/9 33/50/9
f 117/112/5 64/24/5 60/36/5 121/115/5
f 78/75/7 85/47/7 44/41/7 47/53/7
f 120/114/7 61/4/7 54/26/7 130/42/7
f 79/77/5 84/49/5 45/40/5 41/45/5
f 98/116/11 100/54/11 138/55/11 188/117/11
f 217/118/5 213/22/5 59/24/5 122/111/5
f 80/119/17 78/75/17 47/53/17 39/53/17
f 124/63/9 57/61/9 49/120/9 127/70/9
f 126/66/1 55/1/1 56/4/1 125/113/1
f 152/121/5 150/101/5 74/104/5 116/122/5
f 94/43/18 40/37/18 48/37/18 77/43/18
f 109/123/19 129/74/19 78/75/19 80/119/19
f 133/31/3 191/124/3 195/125/3 105/126/3
f 140/30/5 106/127/5 194/128/5 189/129/5
f 192/130/4 132/18/4 131/19/4 193/131/4
f 193/131/4 131/19/4 102/79/4 197/132/4
f 53/34/7 137/133/7 102/79/7 32/17/7
f 10/12/3 133/31/3 105/126/3 25/12/3
f 25/12/7 105/126/7 138/55/7 47/53/7
f 113/134/20 225/135/20 163/136/20 112/137/20
f 189/129/3 191/124/3 133/31/3 140/30/3
f 93/138/7 111/139/7 69/90/7
f 93/138/21 166/140/21 175/140/21 72/138/21
f 95/141/22 137/141/22 99/141/22 199/141/22
f 108/142/23 110/143/23 173/143/23 169/142/23
f 139/144/24 113/134/24 186/134/24 187/144/24
f 97/145/25 111/146/25 142/146/25 170/145/25
f 143/106/5 152/121/5 116/122/5 82/107/5
f 92/51/1 126/66/1 125/113/1 91/69/1
f 90/46/13 124/63/13 127/70/13 81/62/13
f 211/86/5 217/118/5 122/111/5 88/67/5
f 86/69/7 120/114/7 130/42/7 77/43/7
f 83/68/5 117/112/5 121/115/5 87/73/5
f 91/69/1 125/113/1 120/114/1 86/69/1
f 88/67/9 122/111/9 117/112/9 83/68/9
f 52/1/5 63/33/5 118/65/5 128/76/5
f 53/34/7 62/61/7 119/63/7 129/74/7
f 49/120/9 52/120/9 128/71/9 127/70/9
f 55/1/1 126/66/1 121/66/1 60/1/1
f 58/33/1 123/64/1 118/65/1 63/33/1
f 57/61/9 124/63/9 119/63/9 62/61/9
f 51/26/26 114/42/26 130/42/26 54/26/26
f 134/147/27 104/148/27 172/148/27 171/147/27
f 115/149/28 73/84/28 181/150/28 108/142/28
f 16/11/5 37/40/5 106/127/5 140/30/5
f 58/33/5 12/15/5 132/18/5 103/151/5
f 37/40/5 89/48/5 136/152/5 106/127/5
f 112/137/29 115/149/29 176/149/29 185/137/29
f 112/137/28 163/136/28 73/84/28 115/149/28
f 123/64/5 58/33/5 103/151/5 101/153/5
f 137/133/7 95/154/7 197/132/7 102/79/7
f 190/155/5 198/156/5 152/121/5 143/106/5
f 198/156/5 196/157/5 150/101/5 152/121/5
f 194/128/5 190/155/5 143/106/5 148/93/5
f 196/157/5 192/130/5 146/102/5 150/101/5
f 189/129/5 194/128/5 148/93/5 141/92/5
f 195/125/7 149/89/7 142/91/7 188/117/7
f 191/124/3 145/87/3 149/89/3 195/125/3
f 95/154/7 144/83/7 151/85/7 197/132/7
f 68/81/4 147/85/4 151/85/4 75/81/4
f 69/90/11 111/139/11 142/91/11 72/90/11
f 67/95/3 65/88/3 145/87/3 141/92/3
f 66/103/4 146/102/4 147/85/4 68/81/4
f 82/107/5 116/122/5 165/158/5 158/159/5
f 116/122/5 74/104/5 159/160/5 165/158/5
f 202/161/4 154/105/4 155/80/4 204/162/4
f 221/163/3 200/164/3 153/99/3 161/98/3
f 219/110/11 107/96/11 162/97/11 223/165/11
f 70/94/5 82/107/5 158/159/5 156/166/5
f 204/162/4 155/80/4 160/82/4 214/167/4
f 76/84/7 164/168/7 160/82/7 75/81/7
f 65/88/3 153/99/3 157/169/3 71/88/3
f 71/88/7 157/169/7 162/97/7 72/90/7
f 67/95/5 70/94/5 156/166/5 161/98/5
f 73/84/30 163/136/30 164/168/30 76/84/30
f 74/104/5 66/103/5 154/105/5 159/160/5
f 100/54/31 134/147/31 80/119/31 39/53/31
f 107/170/32 93/138/32 69/90/32
f 107/96/33 96/109/33 182/109/33 162/96/33
f 96/109/34 167/108/34 183/108/34 182/109/34
f 172/148/35 170/145/35 169/142/35 173/143/35
f 171/147/35 172/148/35 173/143/35 174/171/35
f 175/140/35 176/149/35 169/142/35 170/145/35
f 72/138/36 175/140/36 170/145/36 142/146/36
f 78/172/37 171/147/37 174/171/37 129/173/37
f 80/119/38 134/147/38 171/147/38 78/119/38
f 111/139/39 93/138/39 72/138/39 142/139/39
f 115/149/40 108/142/40 169/142/40 176/149/40
f 166/140/41 115/149/41 176/149/41 175/140/41
f 135/171/42 109/173/42 129/173/42 174/171/42
f 104/148/43 97/145/43 170/145/43 172/148/43
f 110/143/44 135/171/44 174/171/44 173/143/44
f 50/100/45 53/34/45 129/74/45 109/123/45
f 7/6/13 179/5/13 180/35/13 23/6/13
f 57/61/2 179/5/2 178/8/2 49/120/2
f 49/120/9 178/8/9 177/8/9 52/120/9
f 52/1/5 177/32/5 63/33/5
f 62/61/7 53/34/7 180/35/7
f 137/141/46 53/141/46 50/141/46 99/141/46
f 135/171/47 99/174/47 50/141/47 109/173/47
f 76/141/48 144/141/48 181/141/48 73/141/48
f 89/48/5 123/64/5 101/153/5 136/152/5
f 184/175/35 187/144/35 186/134/35 183/108/35
f 182/109/49 183/108/49 186/134/49 185/137/49
f 77/176/50 130/177/50 187/144/50 184/175/50
f 182/109/51 185/137/51 176/149/51 175/140/51
f 162/170/52 182/109/52 175/140/52 72/138/52
f 93/138/53 107/170/53 162/170/53 72/138/53
f 167/108/54 168/175/54 184/175/54 183/108/54
f 113/134/55 112/137/55 185/137/55 186/134/55
f 114/177/56 139/144/56 187/144/56 130/177/56
f 168/175/57 94/176/57 77/176/57 184/175/57
f 105/126/7 195/125/7 188/117/7 138/55/7
f 103/151/5 132/18/5 192/130/5 196/157/5
f 106/127/5 136/152/5 190/155/5 194/128/5
f 101/153/5 103/151/5 196/157/5 198/156/5
f 136/152/5 101/153/5 198/156/5 190/155/5
f 144/141/58 95/141/58 199/141/58 181/141/58
f 141/92/3 145/87/3 191/124/3 189/129/3
f 147/85/4 193/131/4 197/132/4 151/85/4
f 146/102/4 192/130/4 193/131/4 147/85/4
f 111/139/11 98/116/11 188/117/11 142/91/11
f 14/21/4 205/178/4 215/78/4 29/21/4
f 205/178/4 204/162/4 214/167/4 215/78/4
f 40/37/11 218/179/11 222/59/11 48/37/11
f 218/179/11 219/110/11 223/165/11 222/59/11
f 15/10/3 9/29/3 201/60/3 220/56/3
f 220/56/3 201/60/3 200/164/3 221/163/3
f 11/20/4 203/23/4 205/178/4 14/21/4
f 203/23/4 202/161/4 204/162/4 205/178/4
f 158/159/5 165/158/5 216/180/5 210/181/5
f 210/181/5 216/180/5 217/118/5 211/86/5
f 165/158/5 159/160/5 212/182/5 216/180/5
f 216/180/5 212/182/5 213/22/5 217/118/5
f 156/166/5 158/159/5 210/181/5 206/183/5
f 206/183/5 210/181/5 211/86/5 207/57/5
f 164/168/7 227/184/7 214/167/7 160/82/7
f 227/184/7 226/27/7 215/78/7 214/167/7
f 153/99/3 200/164/3 208/185/3 157/169/3
f 200/164/3 201/60/3 209/58/3 208/185/3
f 157/169/7 208/185/7 223/165/7 162/97/7
f 208/185/7 209/58/7 222/59/7 223/165/7
f 161/98/5 156/166/5 206/183/5 221/163/5
f 221/163/5 206/183/5 207/57/5 220/56/5
f 163/136/59 225/135/59 227/184/59 164/168/59
f 225/135/60 224/25/60 226/27/60 227/184/60
f 159/160/5 154/105/5 202/161/5 212/182/5
f 212/182/5 202/161/5 203/23/5 213/22/5
f 108/142/61 181/150/61 199/186/61 110/143/61
f 110/143/62 199/186/62 99/174/62 135/171/62
f 98/116/31 104/148/31 134/147/31 100/54/31
f 111/146/31 97/145/31 104/148/31 98/116/31
f 139/144/63 114/42/63 51/26/63 224/25/63
f 113/134/20 139/144/20 224/25/20 225/135/20
f 94/176/7 168/175/7 218/179/7 40/37/7
f 168/175/7 167/108/7 219/110/7 218/179/7
