# Blender 4.2.4 LTS
# www.blender.org
mtllib MAINWALL3.mtl
o MAINWALL3
v 0.023732 -1.005619 -0.740483
v 0.023732 1.005619 -0.740483
v 0.023734 1.005619 0.740482
v 0.023734 -1.005619 0.740482
v -0.023732 1.005619 0.740482
v -0.023732 -1.005619 0.740482
v -0.023734 1.005619 -0.740483
v -0.023734 -1.005619 -0.740483
v -0.023733 -1.005619 0.538490
v -0.023733 -1.005619 -0.538489
v 0.023733 1.005619 0.538490
v 0.023733 1.005619 -0.538489
v -0.023733 1.005619 -0.538489
v -0.023733 1.005619 0.538490
v 0.023733 -1.005619 0.538490
v 0.023733 -1.005619 -0.538489
v 0.086155 -1.005619 -0.740483
v 0.086155 1.005619 -0.740483
v 0.086156 1.005619 0.740482
v 0.086156 -1.005619 0.740482
v -0.086155 1.005619 0.740482
v -0.086155 -1.005619 0.740482
v -0.086156 1.005619 -0.740483
v -0.086156 -1.005619 -0.740483
v -0.086156 -1.005619 -0.538489
v 0.086155 1.005619 -0.538489
v 0.086156 1.005619 0.538490
v -0.086155 -1.005619 0.538490
v -0.086155 1.005619 0.538490
v 0.086155 -1.005619 -0.538489
v 0.086156 -1.005619 0.538490
v -0.086156 1.005619 -0.538489
vn -0.0000 -0.0000 1.0000
vn -0.0000 -0.0000 -1.0000
vn -0.0000 -1.0000 -0.0000
vn -0.0000 1.0000 -0.0000
vn 1.0000 -0.0000 -0.0000
vn -1.0000 -0.0000 -0.0000
vt 0.375000 0.250000
vt 0.625000 0.250000
vt 0.625000 0.500000
vt 0.375000 0.500000
vt 0.375000 0.750000
vt 0.625000 0.750000
vt 0.625000 1.000000
vt 0.375000 1.000000
vt 0.125000 0.500000
vt 0.208333 0.666667
vt 0.291667 0.833333
vt 0.375000 0.666667
vt 0.625000 0.666667
vt 0.625000 0.083333
vt 0.625000 0.000000
vt 0.625000 0.166667
vt 0.625000 0.583333
vt 0.375000 0.583333
s 0
f 4/1/1 3/2/1 5/3/1 6/4/1
f 8/5/2 7/6/2 2/7/2 1/8/2
f 4/9/3 15/10/3 31/10/3 20/9/3
f 16/11/3 10/12/3 8/5/3 1/8/3
f 10/12/1 13/13/1 32/13/1 25/12/1
f 12/14/4 2/15/4 7/6/4 13/13/4
f 8/5/3 10/12/3 25/12/3 24/5/3
f 11/16/4 12/14/4 13/13/4 14/17/4
f 3/2/4 11/16/4 14/17/4 5/3/4
f 16/11/5 12/14/5 11/16/5 15/10/5
f 16/11/3 1/8/3 17/8/3 30/11/3
f 10/12/6 9/18/6 14/17/6 13/13/6
f 4/9/3 6/4/3 9/18/3 15/10/3
f 15/10/3 9/18/3 10/12/3 16/11/3
f 17/8/5 18/15/5 26/14/5 30/11/5
f 28/18/6 22/4/6 21/3/6 29/17/6
f 24/5/6 25/12/6 32/13/6 23/6/6
f 31/10/5 27/16/5 19/2/5 20/9/5
f 14/17/2 9/18/2 28/18/2 29/17/2
f 2/15/4 12/14/4 26/14/4 18/15/4
f 1/8/2 2/7/2 18/7/2 17/8/2
f 13/13/4 7/6/4 23/6/4 32/13/4
f 11/16/4 3/2/4 19/2/4 27/16/4
f 3/2/1 4/1/1 20/1/1 19/2/1
f 12/14/1 16/11/1 30/11/1 26/14/1
f 9/18/3 6/4/3 22/4/3 28/18/3
f 6/4/1 5/3/1 21/3/1 22/4/1
f 15/10/2 11/16/2 27/16/2 31/10/2
f 5/3/4 14/17/4 29/17/4 21/3/4
f 7/6/2 8/5/2 24/5/2 23/6/2
