# Blender 4.2.4 LTS
# www.blender.org
mtllib MAINWALLPATTERNBASE.mtl
o MAINWALLPATTERNBASE
v 0.037733 -0.730101 -0.740689
v 0.037732 1.281137 -0.740689
v 0.037734 1.281137 0.740276
v 0.037733 -0.730101 0.740276
v -0.009732 1.281137 0.740277
v -0.009342 -0.730101 0.740277
v -0.008595 1.281136 -0.740698
v -0.009342 -0.730100 -0.740683
v -0.009342 -0.730101 0.538284
v -0.009342 -0.730102 -0.538432
v 0.037734 1.281137 0.538284
v 0.037733 1.281137 -0.538432
v -0.006851 1.281138 -0.538432
v -0.005754 1.281137 0.538284
v 0.037733 -0.730101 0.538284
v 0.037733 -0.730101 -0.538432
v 0.037732 -0.554505 -0.740689
v 0.037734 -0.554505 0.740276
v -0.009732 -0.554505 0.740277
v -0.010227 -0.554505 -0.740684
v 0.037733 -0.554505 -0.538432
v 0.037734 -0.554505 0.538284
v -0.005755 -0.554505 -0.538432
v -0.005754 -0.554505 0.539241
v 0.037732 1.107207 -0.740689
v -0.006357 1.107207 -0.538432
v -0.005754 1.107207 0.538762
v 0.037734 1.107207 0.740276
v -0.009732 1.107207 0.740277
v -0.009411 1.107207 -0.740691
v 0.037733 1.107207 -0.538432
v 0.037734 1.107207 0.538284
v -0.009342 -0.730101 -0.000209
v 0.037733 1.281137 -0.000205
v 0.037733 -0.730101 -0.000205
v -0.006303 1.281137 -0.000201
v -0.005754 -0.546852 -0.000778
v 0.037733 -0.554505 -0.000205
v -0.072156 -0.730101 -0.000204
v -0.073022 -0.554505 -0.000041
v -0.006028 1.107207 0.000275
v 0.037733 1.107207 -0.000205
v -0.072155 -0.293850 0.538285
v -0.072156 -0.299717 -0.538694
v -0.005840 -0.299717 -0.538432
v 0.037732 -0.299141 -0.740689
v 0.037733 -0.299141 -0.000205
v -0.072156 -0.299141 -0.740688
v -0.072155 -0.299141 0.740277
v 0.037734 -0.299141 0.538284
v 0.037733 -0.299141 -0.538432
v -0.010100 -0.299140 -0.740685
v -0.009732 -0.299141 0.740277
v 0.037734 -0.299141 0.740276
v -0.005754 -0.546827 0.000751
v -0.005754 -0.293850 0.539140
v -0.005764 -0.458759 0.080839
v -0.005783 -0.454167 -0.079665
v -0.005754 -0.554505 -0.217375
v -0.006254 1.107207 -0.366395
v -0.005755 -0.554505 -0.366395
v 0.037733 -0.248443 -0.366395
v 0.037733 1.107207 -0.366395
v -0.005806 -0.373711 -0.217375
v 0.037733 -0.554505 -0.366395
v -0.005754 -0.554505 0.060583
v -0.005792 -0.363646 -0.070358
v -0.005864 -0.243276 -0.538432
v -0.005811 -0.315090 -0.217375
v -0.005754 -0.554505 -0.062139
v -0.005779 -0.362156 0.069634
v -0.005775 -0.312255 0.214485
v -0.005754 -0.243276 0.539145
v -0.005783 -0.379250 0.000123
v 0.037733 -0.248443 -0.000205
v -0.072156 -0.248443 -0.740688
v -0.072155 -0.248443 0.740277
v 0.037734 -0.248443 0.538284
v 0.037733 -0.248443 -0.538432
v -0.010065 -0.248443 -0.740686
v -0.009732 -0.248443 0.740277
v 0.037734 -0.248443 0.740276
v 0.037732 -0.248443 -0.740689
v -0.072156 -0.243276 -0.538694
v -0.072155 -0.243276 0.538285
v -0.006679 1.281138 -0.366395
v 0.037733 1.281137 -0.366395
v -0.009342 -0.730102 -0.366395
v -0.005827 -0.316597 -0.366395
v -0.005838 -0.252633 -0.366395
v 0.037733 -0.299141 -0.366395
v -0.005768 -0.251565 0.372183
v 0.037733 -0.730101 -0.366395
v 0.037733 -0.730101 -0.063094
v -0.072156 -0.554505 -0.063094
v 0.037733 -0.299141 -0.063094
v -0.009342 -0.730101 -0.063099
v 0.037733 1.281137 -0.063094
v -0.006367 1.281137 -0.063089
v 0.037733 -0.554505 -0.063094
v -0.072156 -0.730101 -0.063094
v 0.037733 1.107207 -0.063094
v 0.037733 -0.248443 -0.063094
v -0.009342 -0.730101 0.059623
v 0.037733 1.281137 0.059627
v -0.006242 1.281137 0.059631
v 0.037733 -0.554505 0.059627
v -0.072156 -0.730101 0.059627
v 0.037733 -0.299141 0.059627
v 0.037733 1.107207 0.059627
v 0.037733 -0.730101 0.059627
v -0.072156 -0.554505 0.059627
v -0.005998 1.107207 0.069634
v 0.037733 -0.248443 0.059627
v -0.005765 -0.376158 0.214485
v -0.005762 -0.313038 0.372183
v -0.073935 -0.363659 -0.077863
v -0.073926 -0.454180 -0.079660
v -0.073970 -0.316610 -0.366395
v -0.073949 -0.373724 -0.217375
v -0.073954 -0.315103 -0.217375
v -0.073981 -0.252646 -0.366395
v -0.073534 -0.457061 0.000055
v -0.073926 -0.379263 0.000128
v -0.006067 1.107207 -0.070358
v -0.070202 -0.458767 0.080843
v -0.070203 -0.376165 0.214485
v -0.070200 -0.313046 0.372183
v -0.070217 -0.362164 0.079163
v -0.070213 -0.312263 0.214485
v -0.070206 -0.251573 0.372183
v 0.037733 -0.730101 -0.217375
v 0.037733 -0.299141 -0.217375
v -0.009342 -0.730102 -0.217375
v 0.037733 1.281137 -0.217375
v -0.006527 1.281138 -0.217375
v 0.037733 -0.554505 -0.217375
v 0.037733 1.107207 -0.217375
v 0.037733 -0.248443 -0.217375
v -0.006163 1.107207 -0.217375
v -0.009342 -0.730101 0.214485
v -0.009342 -0.730101 0.372183
v 0.037734 1.281137 0.214485
v 0.037734 1.281137 0.372183
v -0.006083 1.281137 0.214485
v -0.005921 1.281137 0.372183
v 0.037734 -0.554505 0.214485
v 0.037734 -0.554505 0.372183
v 0.037734 -0.299141 0.214485
v 0.037734 -0.299141 0.372183
v 0.037734 1.107207 0.214485
v 0.037734 1.107207 0.372183
v 0.037734 -0.248443 0.214485
v 0.037734 -0.248443 0.372183
v -0.005754 -0.554505 0.372183
v -0.005754 -0.554505 0.214485
v 0.037733 -0.730101 0.372183
v 0.037733 -0.730101 0.214485
v -0.005837 1.107207 0.372183
v -0.005919 1.107207 0.214485
vn -0.0000 -0.0000 1.0000
vn 0.0001 -0.0000 -1.0000
vn -0.0000 -1.0000 -0.0000
vn -0.0000 1.0000 -0.0000
vn 1.0000 -0.0000 -0.0000
vn 0.0129 -0.0000 -0.9999
vn -0.0001 -0.0000 -1.0000
vn -0.0000 -0.0000 -1.0000
vn -1.0000 -0.0000 -0.0000
vn -1.0000 -0.0024 0.0023
vn -1.0000 -0.0001 -0.0000
vn -0.0039 -0.0000 1.0000
vn -1.0000 -0.0001 0.0003
vn -0.9999 -0.0118 -0.0036
vn -0.0179 0.9469 0.3209
vn -0.0001 0.9333 -0.3592
vn 0.0070 -0.1674 -0.9859
vn 0.0002 -0.9338 -0.3579
vn -1.0000 -0.0002 0.0003
vn -0.0163 0.9745 -0.2239
vn -0.9995 0.0042 0.0299
vn -1.0000 -0.0003 -0.0000
vn -0.0071 -0.2116 0.9773
vn 0.0001 -0.8506 0.5258
vn -1.0000 -0.0001 0.0001
vn -0.9999 -0.0001 -0.0106
vn 0.0003 -0.9952 -0.0976
vn -0.9990 -0.0019 0.0442
vn -0.0115 0.9785 0.2057
vn -1.0000 -0.0025 0.0073
vn -0.0002 0.9985 0.0543
vn 0.0001 -0.8634 -0.5045
vn -0.0002 0.9223 0.3865
vn -1.0000 -0.0003 0.0004
vn -1.0000 -0.0002 0.0001
vn -0.9999 -0.0001 -0.0117
vn -1.0000 -0.0025 -0.0069
vn 0.0001 -0.9284 0.3716
vn -0.0249 0.9417 -0.3355
vn 0.0003 0.9988 -0.0497
vn -0.0007 -0.9934 0.1145
vn -1.0000 -0.0002 0.0004
vn -1.0000 -0.0003 0.0003
vn -1.0000 -0.0000 0.0003
vn -0.9998 0.0204 -0.0000
vn -0.0000 -1.0000 -0.0029
vn -0.9999 0.0077 0.0111
vn 0.0001 0.9997 -0.0256
vn -0.9998 0.0001 0.0179
vn -0.9999 0.0009 0.0119
vn -1.0000 -0.0026 0.0008
vn -1.0000 -0.0023 0.0008
vn -1.0000 -0.0019 0.0009
vn -1.0000 -0.0017 0.0008
vn -1.0000 -0.0015 0.0007
vn -1.0000 -0.0012 0.0008
vn -1.0000 -0.0007 0.0008
vn -1.0000 -0.0002 0.0008
vn -0.9998 -0.0000 -0.0198
vn -0.9998 -0.0000 -0.0197
vn -0.0002 0.9997 0.0256
vn 0.0002 -0.9997 -0.0262
vn -0.0074 -0.0027 1.0000
vn -0.9999 0.0091 -0.0099
vn -0.9998 0.0001 0.0216
vn 0.0074 0.0027 -1.0000
vt 0.562500 0.250000
vt 0.625000 0.250000
vt 0.625000 0.500000
vt 0.562500 0.500000
vt 0.563188 0.750000
vt 0.625000 0.750000
vt 0.625000 1.000000
vt 0.563188 1.000000
vt 0.291667 0.833333
vt 0.375000 0.666667
vt 0.375000 0.750000
vt 0.375000 1.000000
vt 0.625000 0.083333
vt 0.625000 0.000000
vt 0.625000 0.666667
vt 0.625000 0.096454
vt 0.625000 0.653547
vt 0.625000 0.166667
vt 0.625000 0.583333
vt 0.523999 0.288501
vt 0.625000 0.154004
vt 0.520833 0.291667
vt 0.125000 0.500000
vt 0.375000 0.500000
vt 0.375000 0.583333
vt 0.208333 0.666667
vt 0.278547 0.807093
vt 0.375000 0.653547
vt 0.512401 0.583333
vt 0.509733 0.583333
vt 0.220996 0.691991
vt 0.422998 0.422998
vt 0.416667 0.416667
vt 0.500000 0.750000
vt 0.500000 1.000000
vt 0.375000 0.250000
vt 0.500000 0.250000
vt 0.500000 0.500000
vt 0.509733 0.750000
vt 0.509733 1.000000
vt 0.512401 0.750000
vt 0.509733 0.750000
vt 0.512401 0.666667
vt 0.509733 0.666667
vt 0.438726 0.402053
vt 0.432888 0.397201
vt 0.375000 0.629866
vt 0.375000 0.625000
vt 0.375000 0.629866
vt 0.254866 0.759732
vt 0.439933 0.439933
vt 0.437500 0.437500
vt 0.250000 0.750000
vt 0.504641 0.630790
vt 0.477134 0.624962
vt 0.506236 0.624951
vt 0.506236 0.627895
vt 0.245370 0.740741
vt 0.375000 0.620370
vt 0.532467 0.280033
vt 0.625000 0.120134
vt 0.625000 0.125000
vt 0.531250 0.281250
vt 0.625000 0.129630
vt 0.625000 0.625000
vt 0.625000 0.620370
vt 0.509733 0.250000
vt 0.509733 0.500000
vt 0.454343 0.415032
vt 0.452099 0.413168
vt 0.508235 0.604128
vt 0.504641 0.619210
vt 0.500000 0.620370
vt 0.500000 0.608341
vt 0.443037 0.396312
vt 0.437334 0.391865
vt 0.562500 0.750000
vt 0.562500 1.000000
vt 0.512401 1.000000
vt 0.512401 0.250000
vt 0.512401 0.500000
vt 0.458293 0.408207
vt 0.456101 0.406498
vt 0.512401 0.666666
vt 0.509733 0.666667
vt 0.451773 0.451773
vt 0.446011 0.446011
vt 0.267022 0.784044
vt 0.625000 0.107978
vt 0.625000 0.642022
vt 0.508984 0.609949
vt 0.562500 0.608341
vt 0.562500 0.620370
vt 0.506236 0.622105
vt 0.375000 0.642022
vt 0.000000 0.000000
vt 0.439223 0.624976
vt 0.508984 0.640052
vt 0.510145 0.601746
vt 0.502321 0.627895
vt 0.512401 0.500000
vt 0.508984 0.656268
vt 0.508236 0.645872
vt 0.562500 0.625000
vt 0.496569 0.551743
vt 0.458333 0.458333
vt 0.541667 0.270833
vt 0.538387 0.274113
vt 0.471311 0.429134
vt 0.465261 0.424107
vt 0.474867 0.421132
vt 0.468958 0.416524
vt 0.459948 0.419690
vt 0.463768 0.412477
vt 0.535505 0.276994
vt 0.625000 0.629866
vt 0.454016 0.404873
vt 0.449965 0.411393
vt 0.530093 0.282407
vt 0.625000 0.141659
vt 0.625000 0.608341
vt 0.233341 0.716682
vt 0.375000 0.608341
vt 0.435185 0.435185
vt 0.375000 0.620370
vt 0.500553 0.653077
vt 0.500000 0.666667
vt 0.510145 0.648254
vt 0.509733 0.666665
vt 0.511306 0.656456
vt 0.177038 0.196708
vt 0.508984 0.593732
vt 0.509733 0.583335
vt 0.511306 0.593543
vt 0.375000 0.595996
vt 0.625000 0.595996
vt 0.448598 0.400648
vt 0.444419 0.406784
vt 0.527085 0.285415
vt 0.429171 0.429171
vt 0.332543 0.369492
vt 0.501039 0.641139
vt 0.562500 0.583333
vt 0.562500 0.595996
vt 0.500000 0.595996
vt 0.500000 0.583333
s 0
f 28/1/1 3/2/1 5/3/1 29/4/1
f 30/5/2 7/6/2 2/7/2 25/8/2
f 16/9/3 10/10/3 8/11/3 1/12/3
f 12/13/4 2/14/4 7/6/4 13/15/4
f 87/16/4 12/13/4 13/15/4 86/17/4
f 3/2/4 11/18/4 14/19/4 5/3/4
f 152/20/5 144/21/5 11/18/5 32/22/5
f 4/23/3 6/24/3 9/25/3 15/26/3
f 93/27/3 88/28/3 10/10/3 16/9/3
f 73/29/6 56/30/6 43/30/6 85/29/6
f 157/31/5 148/32/5 22/33/5 15/26/5
f 8/11/7 20/34/7 17/35/7 1/12/7
f 4/36/1 18/37/1 19/38/1 6/24/1
f 20/34/7 52/39/7 46/40/7 17/35/7
f 80/41/8 52/39/8 48/42/8 76/41/8
f 84/43/9 76/41/9 48/42/9 44/44/9
f 148/32/5 150/45/5 50/46/5 22/33/5
f 97/47/3 33/48/3 39/48/3 101/49/3
f 94/50/5 100/51/5 38/52/5 35/53/5
f 118/54/10 123/55/10 124/56/10 117/57/10
f 111/58/3 104/59/3 33/48/3 35/53/3
f 102/60/5 98/61/5 34/62/5 42/63/5
f 105/64/4 34/62/4 36/65/4 106/66/4
f 18/37/1 54/67/1 53/68/1 19/38/1
f 100/51/5 96/69/5 47/70/5 38/52/5
f 115/71/11 57/72/11 66/73/11 156/74/11
f 154/75/5 152/20/5 32/22/5 78/76/5
f 80/41/8 30/77/8 25/78/8 83/79/8
f 82/80/1 28/1/1 29/4/1 81/81/1
f 103/82/5 102/60/5 42/63/5 75/83/5
f 68/84/12 84/43/12 44/44/12 45/85/12
f 93/27/5 65/86/5 137/87/5 132/88/5
f 135/89/4 87/16/4 86/17/4 136/90/4
f 72/91/13 160/92/13 113/93/13 71/94/13
f 132/88/3 134/95/3 88/28/3 93/27/3
f 95/96/14 40/97/14 123/55/14 118/54/14
f 67/57/15 69/98/15 121/98/15 117/57/15
f 92/99/16 72/91/16 130/91/16 131/99/16
f 58/54/17 70/100/17 95/100/17 118/54/17
f 96/69/5 103/82/5 75/83/5 47/70/5
f 54/67/1 82/80/1 81/81/1 53/68/1
f 52/39/7 80/41/7 83/79/7 46/40/7
f 150/45/5 154/75/5 78/76/5 50/46/5
f 49/68/9 77/101/9 85/29/9 43/30/9
f 53/68/1 81/81/1 77/101/1 49/68/1
f 89/102/18 64/103/18 120/103/18 119/102/18
f 74/56/19 41/104/19 125/105/19 67/57/19
f 16/9/5 21/106/5 65/86/5 93/27/5
f 31/107/5 12/13/5 87/16/5 63/108/5
f 21/106/5 51/109/5 91/110/5 65/86/5
f 71/94/20 74/56/20 124/56/20 129/94/20
f 71/94/19 113/93/19 41/104/19 74/56/19
f 79/111/5 31/107/5 63/108/5 62/112/5
f 133/113/5 139/114/5 103/82/5 96/69/5
f 139/114/5 138/115/5 102/60/5 103/82/5
f 137/87/5 133/113/5 96/69/5 100/51/5
f 138/115/5 135/89/5 98/61/5 102/60/5
f 132/88/5 137/87/5 100/51/5 94/50/5
f 40/97/21 112/73/21 126/72/21 123/55/21
f 35/53/3 33/48/3 97/47/3 94/50/3
f 34/62/4 98/61/4 99/116/4 36/65/4
f 47/70/5 75/83/5 114/117/5 109/118/5
f 75/83/5 42/63/5 110/119/5 114/117/5
f 143/120/4 105/64/4 106/66/4 145/121/4
f 158/122/3 141/123/3 104/59/3 111/58/3
f 38/52/5 47/70/5 109/118/5 107/124/5
f 33/48/3 104/59/3 108/125/3 39/48/3
f 35/53/5 38/52/5 107/124/5 111/58/5
f 42/63/5 34/62/5 105/64/5 110/119/5
f 61/126/22 89/102/22 45/85/22 23/127/22
f 66/73/23 57/72/23 126/72/23 112/73/23
f 57/72/24 115/71/24 127/71/24 126/72/24
f 120/103/25 118/54/25 117/57/25 121/98/25
f 119/102/25 120/103/25 121/98/25 122/128/25
f 44/129/26 119/102/26 122/128/26 84/130/26
f 45/85/27 89/102/27 119/102/27 44/85/27
f 123/55/28 126/72/28 129/94/28 124/56/28
f 74/56/29 67/57/29 117/57/29 124/56/29
f 39/48/30 108/96/30 112/73/30 40/97/30
f 90/128/31 68/130/31 84/130/31 122/128/31
f 64/103/32 58/54/32 118/54/32 120/103/32
f 69/98/33 90/128/33 122/128/33 121/98/33
f 17/35/5 46/40/5 51/109/5 21/106/5
f 83/79/5 25/8/5 31/107/5 79/111/5
f 12/13/5 31/107/5 25/8/5 2/7/5
f 90/128/34 60/131/34 26/96/34 68/130/34
f 51/109/5 79/111/5 62/112/5 91/110/5
f 128/132/25 131/99/25 130/91/25 127/71/25
f 126/72/35 127/71/35 130/91/35 129/94/35
f 43/133/36 85/134/36 131/99/36 128/132/36
f 101/96/37 39/48/37 40/97/37 95/96/37
f 115/71/38 116/132/38 128/132/38 127/71/38
f 72/91/39 71/94/39 129/94/39 130/91/39
f 73/134/40 92/99/40 131/99/40 85/134/40
f 116/132/41 56/133/41 43/133/41 128/132/41
f 63/108/5 87/16/5 135/89/5 138/115/5
f 65/86/5 91/110/5 133/113/5 137/87/5
f 62/112/5 63/108/5 138/115/5 139/114/5
f 91/110/5 62/112/5 139/114/5 133/113/5
f 94/50/3 97/47/3 134/95/3 132/88/3
f 98/61/4 135/89/4 136/90/4 99/116/4
f 15/26/3 9/25/3 142/135/3 157/31/3
f 157/31/3 142/135/3 141/123/3 158/122/3
f 11/18/4 144/21/4 146/136/4 14/19/4
f 144/21/4 143/120/4 145/121/4 146/136/4
f 109/118/5 114/117/5 153/137/5 149/138/5
f 149/138/5 153/137/5 154/75/5 150/45/5
f 114/117/5 110/119/5 151/139/5 153/137/5
f 153/137/5 151/139/5 152/20/5 154/75/5
f 107/124/5 109/118/5 149/138/5 147/140/5
f 147/140/5 149/138/5 150/45/5 148/32/5
f 111/58/5 107/124/5 147/140/5 158/122/5
f 158/122/5 147/140/5 148/32/5 157/31/5
f 110/119/5 105/64/5 143/120/5 151/139/5
f 151/139/5 143/120/5 144/21/5 152/20/5
f 67/57/42 125/105/42 140/141/42 69/98/42
f 69/98/43 140/141/43 60/131/43 90/128/43
f 59/142/22 64/103/22 89/102/22 61/126/22
f 70/100/22 58/54/22 64/103/22 59/142/22
f 92/99/44 73/29/44 27/143/44 159/144/44
f 72/91/13 92/99/13 159/144/13 160/92/13
f 56/133/9 116/132/9 155/145/9 24/146/9
f 116/132/9 115/71/9 156/74/9 155/145/9
f 61/126/45 23/127/45 10/10/45 88/28/45
f 44/96/46 48/96/46 52/96/46 45/96/46
f 20/34/47 8/11/47 10/10/47 23/127/47
f 68/96/48 80/96/48 76/96/48 84/96/48
f 30/77/49 80/96/49 68/130/49 26/96/49
f 26/96/50 13/15/50 7/6/50 30/77/50
f 60/131/51 86/17/51 13/15/51 26/96/51
f 140/141/52 136/90/52 86/17/52 60/131/52
f 125/105/53 99/116/53 136/90/53 140/141/53
f 41/104/54 36/65/54 99/116/54 125/105/54
f 113/93/55 106/66/55 36/65/55 41/104/55
f 160/92/56 145/121/56 106/66/56 113/93/56
f 159/144/57 146/136/57 145/121/57 160/92/57
f 14/19/58 146/136/58 159/144/58 27/143/58
f 29/4/59 27/143/59 73/29/59 81/81/59
f 5/3/60 14/19/60 27/143/60 29/4/60
f 77/96/61 81/96/61 73/96/61 85/96/61
f 56/96/62 53/96/62 49/96/62 43/96/62
f 53/96/59 56/96/59 24/146/59 19/38/59
f 104/96/63 66/96/63 112/96/63 108/96/63
f 141/96/45 156/96/45 66/96/45 104/96/45
f 142/96/45 155/96/45 156/96/45 141/96/45
f 24/96/45 155/96/45 142/96/45 9/96/45
f 19/96/64 24/96/64 9/96/64 6/96/64
f 70/100/45 59/142/45 134/95/45 97/47/45
f 59/142/45 61/126/45 88/28/45 134/95/45
f 52/39/65 20/34/65 23/127/65 45/85/65
f 97/96/66 101/96/66 95/96/66 70/96/66
f 16/9/5 1/12/5 17/35/5 21/106/5
f 4/23/5 15/26/5 22/33/5 18/37/5
f 50/46/5 54/67/5 18/37/5 22/33/5
f 32/22/5 28/1/5 82/80/5 78/76/5
f 78/76/5 82/80/5 54/67/5 50/46/5
f 46/40/5 83/79/5 79/111/5 51/109/5
f 11/18/5 3/2/5 28/1/5 32/22/5
l 37 55
