# Blender 4.2.4 LTS
# www.blender.org
mtllib RAILING.mtl
o RAILING
v 1.127780 -0.157614 1.479631
v 1.127780 -0.157614 -1.478699
v -0.359615 -0.157614 1.479632
v -0.359615 -0.157614 -1.478698
v 1.127780 0.261419 1.479631
v 1.127780 0.261419 -1.478699
v -0.359615 0.261419 1.479632
v -0.359615 0.261419 -1.478698
v -0.112802 -0.134156 1.479632
v -0.114402 -0.157614 1.479632
v -0.101365 -0.079734 1.479632
v -0.082791 -0.029578 1.479632
v -0.057796 0.014384 1.479632
v -0.027338 0.050462 1.479632
v 0.007410 0.077271 1.479632
v 0.045114 0.093780 1.479632
v 0.123536 0.093780 1.479632
v 0.161240 0.077271 1.479632
v 0.084325 0.099354 1.479632
v 0.226446 0.014384 1.479632
v 0.251442 -0.029578 1.479632
v 0.283053 -0.157614 1.479632
v 0.482818 -0.157614 1.479632
v 0.484418 -0.134156 1.479632
v 0.281453 -0.134156 1.479632
v 0.270015 -0.079734 1.479632
v 0.495856 -0.079734 1.479632
v 0.514429 -0.029578 1.479632
v 0.880273 -0.157614 1.479631
v 0.878672 -0.134156 1.479631
v 0.195989 0.050462 1.479632
v 0.539425 0.014384 1.479632
v 0.569882 0.050462 1.479632
v 0.681545 0.099354 1.479631
v 0.642334 0.093780 1.479631
v 0.604630 0.077271 1.479632
v 0.758461 0.077271 1.479631
v 0.793209 0.050462 1.479631
v 0.848662 -0.029578 1.479631
v 0.867235 -0.079734 1.479631
v 0.823666 0.014384 1.479631
v 0.720756 0.093780 1.479631
v -0.112802 -0.134156 -1.478698
v -0.114402 -0.157614 -1.478698
v -0.057796 0.014384 -1.478698
v -0.082791 -0.029578 -1.478698
v -0.101364 -0.079734 -1.478698
v 0.045114 0.093780 -1.478698
v 0.007410 0.077271 -1.478698
v 0.161240 0.077271 -1.478698
v 0.123536 0.093780 -1.478698
v 0.084325 0.099354 -1.478698
v -0.027338 0.050462 -1.478698
v 0.226446 0.014384 -1.478698
v 0.270015 -0.079734 -1.478698
v 0.281453 -0.134156 -1.478698
v 0.283053 -0.157614 -1.478698
v 0.482818 -0.157614 -1.478698
v 0.251442 -0.029578 -1.478698
v 0.514429 -0.029578 -1.478698
v 0.495856 -0.079734 -1.478698
v 0.878673 -0.134156 -1.478699
v 0.880273 -0.157614 -1.478699
v 0.484418 -0.134156 -1.478698
v 0.195989 0.050462 -1.478698
v 0.539425 0.014384 -1.478698
v 0.569882 0.050462 -1.478698
v 0.681546 0.099354 -1.478699
v 0.642335 0.093780 -1.478699
v 0.604630 0.077271 -1.478698
v 0.758461 0.077271 -1.478699
v 0.793209 0.050462 -1.478699
v 0.848662 -0.029578 -1.478699
v 0.867235 -0.079734 -1.478699
v 0.823666 0.014384 -1.478699
v 0.720756 0.093780 -1.478699
v -0.359615 -0.079734 1.296293
v -0.359615 -0.029578 1.277719
v -0.359615 0.014384 1.252724
v -0.359615 0.077271 1.187518
v -0.359615 0.050462 1.222266
v -0.359615 0.093780 1.071392
v -0.359615 0.099354 1.110603
v -0.359615 0.050462 0.998939
v -0.359615 -0.029578 0.943486
v -0.359615 0.014384 0.968482
v -0.359615 0.077271 1.033688
v -0.359615 0.093780 1.149814
v -0.359615 0.014384 0.552723
v -0.359615 -0.029578 0.577719
v -0.359615 0.077271 0.487518
v -0.359615 0.099354 0.410603
v -0.359615 0.093780 0.449814
v -0.359615 0.050462 0.522266
v -0.359615 0.050462 0.298939
v -0.359615 0.077271 0.333687
v -0.359615 0.093780 -0.250186
v -0.359615 0.099354 -0.289397
v -0.359615 0.014384 0.268482
v -0.359615 0.093780 0.371392
v -0.359615 -0.134156 1.307730
v -0.359615 -0.157614 1.309330
v -0.359615 -0.157614 0.911875
v -0.359615 -0.157614 0.609330
v -0.359615 -0.134156 0.913476
v -0.359615 -0.079734 0.924913
v -0.359615 -0.079734 0.596292
v -0.359615 -0.079734 0.224913
v -0.359615 -0.029578 0.243486
v -0.359615 -0.134156 0.607730
v -0.359615 -0.157614 0.211875
v -0.359615 -0.157614 -0.090669
v -0.359615 -0.134156 -0.092270
v -0.359615 -0.134156 0.213475
v -0.359615 -0.079734 -0.103707
v -0.359615 -0.029578 -0.122281
v -0.359615 0.077271 -0.212482
v -0.359615 0.050462 -0.177734
v -0.359615 0.077271 -0.366312
v -0.359615 0.093780 -0.328608
v -0.359616 0.014384 -0.147276
v -0.359615 0.014384 -0.431518
v -0.359615 -0.079734 -0.475087
v -0.359615 -0.029578 -0.456514
v -0.359615 -0.079734 -0.903708
v -0.359615 -0.134156 -0.892270
v -0.359615 -0.157614 -0.890670
v -0.359615 0.050462 -0.977734
v -0.359615 0.014384 -0.947277
v -0.359615 -0.029578 -0.922281
v -0.359615 -0.157614 -0.488125
v -0.359615 -0.134156 -0.486524
v -0.359615 0.050462 -0.401061
v -0.359615 0.093780 -1.050187
v -0.359615 0.093780 -1.128608
v -0.359615 0.077271 -1.166313
v -0.359615 0.099354 -1.089398
v -0.359615 0.014384 -1.231518
v -0.359615 -0.029578 -1.256514
v -0.359615 -0.157614 -1.288125
v -0.359615 -0.134156 -1.286525
v -0.359615 -0.079734 -1.275087
v -0.359615 0.050462 -1.201061
v -0.359615 0.077271 -1.012482
v 0.467682 -0.141410 1.479632
v 0.468329 -0.131928 1.479632
v 0.298189 -0.141410 1.479632
v 0.297542 -0.131928 1.479632
v 0.285626 -0.075230 1.479632
v 0.266179 -0.022715 1.479632
v 0.239793 0.023693 1.479632
v 0.207255 0.062236 1.479632
v 0.169563 0.091316 1.479632
v 0.128008 0.109511 1.479632
v 0.084325 0.115721 1.479632
v 0.040643 0.109511 1.479632
v -0.000912 0.091316 1.479632
v -0.038605 0.062236 1.479632
v -0.071142 0.023693 1.479632
v -0.097529 -0.022715 1.479632
v -0.116975 -0.075230 1.479632
v -0.128891 -0.131928 1.479632
v -0.129538 -0.141410 1.479632
v -0.359615 -0.141410 1.479632
v 1.111577 0.245215 1.479631
v -0.359615 0.245215 1.479632
v 1.111577 -0.141410 1.479631
v 0.895409 -0.141410 1.479631
v 0.894762 -0.131928 1.479631
v 0.882846 -0.075230 1.479631
v 0.863399 -0.022715 1.479631
v 0.837013 0.023693 1.479631
v 0.804475 0.062236 1.479631
v 0.766783 0.091316 1.479631
v 0.725228 0.109511 1.479631
v 0.681545 0.115721 1.479631
v 0.637863 0.109511 1.479631
v 0.596308 0.091316 1.479632
v 0.558615 0.062236 1.479632
v 0.526078 0.023693 1.479632
v 0.499692 -0.022715 1.479632
v 0.480245 -0.075230 1.479632
v 0.297542 -0.131928 -1.478698
v 0.298189 -0.141410 -1.478698
v 0.285626 -0.075230 -1.478698
v 0.266179 -0.022715 -1.478698
v 0.239793 0.023693 -1.478698
v 0.207255 0.062236 -1.478698
v 0.169563 0.091316 -1.478698
v 0.128008 0.109511 -1.478698
v 0.084325 0.115721 -1.478698
v 0.040643 0.109511 -1.478698
v -0.000912 0.091316 -1.478698
v -0.038605 0.062236 -1.478698
v -0.071142 0.023693 -1.478698
v -0.097529 -0.022715 -1.478698
v -0.116975 -0.075230 -1.478698
v -0.128891 -0.131928 -1.478698
v -0.129538 -0.141410 -1.478698
v -0.359615 -0.141410 -1.478698
v 1.111577 0.245215 -1.478699
v -0.359615 0.245215 -1.478698
v 1.111577 -0.141410 -1.478699
v 0.895409 -0.141410 -1.478699
v 0.894762 -0.131928 -1.478699
v 0.882846 -0.075230 -1.478699
v 0.863399 -0.022715 -1.478699
v 0.837013 0.023693 -1.478699
v 0.804476 0.062236 -1.478699
v 0.766783 0.091316 -1.478699
v 0.725228 0.109511 -1.478699
v 0.681546 0.115721 -1.478699
v 0.637863 0.109511 -1.478699
v 0.596308 0.091316 -1.478698
v 0.558616 0.062236 -1.478698
v 0.526078 0.023693 -1.478698
v 0.499692 -0.022715 -1.478698
v 0.480245 -0.075230 -1.478698
v 0.468329 -0.131928 -1.478698
v 0.467682 -0.141410 -1.478698
v -0.359615 -0.141410 1.324466
v -0.359615 -0.141410 -1.303261
v -0.359615 -0.131928 -1.302614
v -0.359615 -0.075230 -1.290698
v -0.359615 -0.022715 -1.271251
v -0.359615 0.023693 -1.244865
v -0.359615 0.062236 -1.212328
v -0.359615 0.091316 -1.174635
v -0.359615 0.109511 -1.133080
v -0.359615 0.115721 -1.089398
v -0.359615 0.109511 -1.045715
v -0.359615 0.091316 -1.004160
v -0.359615 0.062236 -0.966467
v -0.359615 0.023693 -0.933930
v -0.359615 -0.022715 -0.907544
v -0.359615 -0.075230 -0.888097
v -0.359615 -0.131928 -0.876181
v -0.359615 -0.141410 -0.875534
v -0.359615 -0.141410 -0.503261
v -0.359615 -0.131928 -0.502614
v -0.359615 -0.075230 -0.490698
v -0.359615 -0.022715 -0.471251
v -0.359615 0.023693 -0.444865
v -0.359615 0.062236 -0.412327
v -0.359615 0.091316 -0.374635
v -0.359615 0.109511 -0.333080
v -0.359615 0.115721 -0.289397
v -0.359615 0.109511 -0.245714
v -0.359615 0.091316 -0.204160
v -0.359615 0.062236 -0.166467
v -0.359564 0.023693 -0.133930
v -0.359615 -0.022715 -0.107543
v -0.359615 -0.075230 -0.088097
v -0.359615 -0.131928 -0.076181
v -0.359615 -0.141410 -0.075534
v -0.359615 -0.141410 0.196739
v -0.359615 -0.131928 0.197386
v -0.359615 -0.075230 0.209302
v -0.359615 -0.022715 0.228749
v -0.359563 0.023693 0.255135
v -0.359615 0.062236 0.287673
v -0.359615 0.091316 0.325365
v -0.359615 0.109511 0.366920
v -0.359615 0.115721 0.410603
v -0.359615 0.109511 0.454285
v -0.359615 0.091316 0.495840
v -0.359615 0.062236 0.533533
v -0.359615 0.023693 0.566070
v -0.359615 -0.022715 0.592456
v -0.359615 -0.075230 0.611903
v -0.359615 -0.131928 0.623819
v -0.359615 -0.141410 0.624466
v -0.359615 -0.141410 0.896739
v -0.359615 -0.131928 0.897387
v -0.359615 -0.075230 0.909302
v -0.359615 -0.022715 0.928749
v -0.359615 0.023693 0.955135
v -0.359615 0.062236 0.987673
v -0.359615 0.091316 1.025365
v -0.359615 0.109511 1.066920
v -0.359615 0.115721 1.110603
v -0.359615 0.109511 1.154285
v -0.359615 0.091316 1.195840
v -0.359615 0.062236 1.233533
v -0.359615 0.023693 1.266070
v -0.359615 -0.022715 1.292457
v -0.359615 -0.075230 1.311903
v -0.359615 -0.131928 1.323819
v -0.359615 -0.141410 -0.686404
v -0.359615 -0.157614 -0.686404
v -0.359461 -0.141410 0.060603
v -0.359461 -0.157614 0.060603
v -0.359615 -0.141410 0.760603
v -0.359615 -0.157614 0.760603
v 0.382935 -0.141410 1.479632
v 0.382935 -0.157614 1.479632
v 0.382935 -0.141410 -1.478698
v 0.382935 -0.157614 -1.478698
v -0.359140 0.245785 -0.686404
v -0.359140 0.261989 -0.686404
v -0.359461 0.245586 0.069489
v -0.359461 0.261790 0.069489
v -0.359538 0.245400 0.774560
v -0.359538 0.261604 0.774560
v -0.359461 -0.131928 0.060820
v -0.359461 -0.075230 0.062122
v -0.359461 -0.022715 0.063328
v -0.359564 0.023694 0.064394
v -0.359604 -0.131928 -0.686404
v -0.359534 -0.075230 -0.686404
v -0.359470 -0.022715 -0.686404
v -0.359413 0.023693 -0.686404
v -0.359546 0.062236 0.065279
v -0.359532 0.091316 0.065946
v -0.359366 0.062235 -0.686404
v -0.359330 0.091316 -0.686404
v -0.359615 0.246515 -0.289397
v -0.359615 0.260946 -0.289397
v -0.359332 0.245666 -0.233505
v -0.359332 0.261870 -0.233505
v -0.359279 0.245699 -0.358638
v -0.359279 0.261902 -0.358638
v -0.359615 -0.131886 -1.478698
v -0.359615 -0.075185 -1.478698
v -0.359615 -0.022663 -1.478698
v -0.359615 0.023756 -1.478698
v -0.359615 0.062311 -1.478698
v -0.359615 0.091408 -1.478698
v 1.111577 -0.131180 -1.478699
v 1.127780 -0.146526 -1.478699
v 1.111577 -0.076237 -1.478699
v 1.127780 -0.086978 -1.478699
v 1.111577 -0.019482 -1.478699
v 1.127780 -0.025465 -1.478699
v 1.111577 0.026132 -1.478699
v 1.127780 0.023971 -1.478699
v 1.111577 0.064298 -1.478699
v 1.127780 0.067079 -1.478699
v 1.111577 0.097485 -1.478699
v 1.127780 0.101833 -1.478699
v -0.359614 -0.131928 0.760945
v -0.359602 -0.075230 0.762991
v -0.359592 -0.022715 0.764886
v -0.359582 0.023693 0.766560
v -0.359575 0.062236 0.767951
v -0.359569 0.091316 0.769000
v -0.359615 -0.131921 1.479632
v -0.359615 -0.075223 1.479632
v -0.359615 -0.022707 1.479632
v -0.359615 0.023703 1.479632
v -0.359615 0.062248 1.479632
v -0.359615 0.091331 1.479632
v 1.111577 -0.130318 1.479631
v 1.111577 -0.075086 1.479631
v 1.111577 -0.019853 1.479631
v 1.111577 0.035379 1.479631
v 1.111577 0.063166 1.479631
v 1.111577 0.104147 1.479631
v 1.127780 -0.141892 1.479631
v 1.127780 -0.082030 1.479631
v 1.127780 -0.022168 1.479631
v 1.127780 0.037694 1.479631
v 1.127780 0.070111 1.479631
v 1.127780 0.115721 1.479631
v 0.691110 0.245215 1.479632
v 0.690933 0.261419 1.479632
v 0.639784 0.245215 1.479632
v 0.639616 0.261419 1.479632
v 0.734123 0.245215 1.479632
v 0.735622 0.261419 1.479632
v 0.086822 0.245215 1.479632
v 0.086747 0.261419 1.479632
v 0.035012 0.245215 1.479632
v 0.034946 0.261419 1.479632
v 0.151221 0.245215 1.479632
v 0.151135 0.261419 1.479632
v 1.111577 0.139414 1.479631
v 1.127780 0.152146 1.479631
v -0.359615 0.109529 1.479632
v -0.359565 0.109511 0.769657
v -0.359576 0.245310 1.117897
v -0.359576 0.261514 1.117897
v -0.359570 0.245325 1.061280
v -0.359570 0.261529 1.061280
v -0.359583 0.245294 1.180767
v -0.359583 0.261497 1.180767
v -0.359524 0.109511 0.066364
v -0.359498 0.245496 0.409565
v -0.359498 0.261700 0.409565
v -0.359493 0.245508 0.365860
v -0.359493 0.261712 0.365860
v -0.359505 0.245481 0.468443
v -0.359505 0.261685 0.468443
v -0.359378 0.245500 -1.082551
v -0.359378 0.261704 -1.082551
v -0.359414 0.245457 -1.142379
v -0.359414 0.261661 -1.142379
v -0.359343 0.245542 -1.024470
v -0.359343 0.261745 -1.024470
v -0.359615 0.109622 -1.478698
v 0.079269 0.245215 -1.478698
v 0.080229 0.261419 -1.478698
v 0.140386 0.245215 -1.478698
v 0.142248 0.261419 -1.478698
v 0.020169 0.245215 -1.478698
v 0.021000 0.261419 -1.478698
v 0.682324 0.245215 -1.478698
v 0.692189 0.261419 -1.478698
v 0.619241 0.245215 -1.478698
v 0.628175 0.261419 -1.478698
v 0.751605 0.245215 -1.478699
v 0.762493 0.261419 -1.478699
v 1.111577 0.126736 -1.478699
v 1.127780 0.133432 -1.478699
vn -0.0000 -0.0000 1.0000
vn -0.0000 -0.0000 -1.0000
vn -1.0000 -0.0000 -0.0000
vn -1.0000 -0.0000 -0.0001
vn -1.0000 0.0006 0.0016
vn -1.0000 0.0012 0.0012
vn -1.0000 -0.0005 0.0011
vn -1.0000 0.0012 -0.0011
vn -1.0000 0.0006 -0.0016
vn -1.0000 -0.0005 -0.0011
vn -1.0000 -0.0000 0.0006
vn -1.0000 0.0006 -0.0000
vn -1.0000 -0.0000 -0.0004
vn -1.0000 0.0001 -0.0011
vn -1.0000 0.0001 -0.0000
vn -1.0000 -0.0000 0.0011
vn -1.0000 0.0002 -0.0010
vn -1.0000 0.0001 0.0011
vn -1.0000 -0.0004 -0.0004
vn -1.0000 0.0002 0.0010
vn -1.0000 -0.0004 -0.0002
vn -1.0000 -0.0004 0.0004
vn -1.0000 0.0006 -0.0002
vn -1.0000 0.0007 -0.0006
vn -1.0000 0.0006 0.0002
vn -1.0000 0.0008 -0.0008
vn -1.0000 0.0007 0.0005
vn -1.0000 0.0010 -0.0009
vn -1.0000 0.0008 0.0007
vn -1.0000 0.0004 -0.0003
vn -1.0000 -0.0004 0.0002
vn -1.0000 0.0006 -0.0003
vn -1.0000 0.0004 0.0003
vn -1.0000 0.0012 -0.0009
vn -1.0000 0.0010 0.0009
vn -1.0000 0.0018 -0.0007
vn -1.0000 0.0012 0.0009
vn -1.0000 -0.0000 -0.0049
vn -1.0000 -0.0000 0.0051
vn -1.0000 0.0009 0.0029
vn -1.0000 0.0010 -0.0030
vn -1.0000 0.0013 -0.0001
vn -1.0000 0.0008 0.0003
vn -1.0000 0.0001 -0.0001
vn -1.0000 0.0001 0.0001
vn -1.0000 0.0001 -0.0002
vn -1.0000 0.0002 -0.0002
vn -1.0000 0.0001 0.0002
vn -1.0000 0.0002 0.0002
vn -1.0000 0.0003 -0.0002
vn -1.0000 0.0003 -0.0001
vn -1.0000 0.0003 0.0002
vn -1.0000 0.0003 -0.0000
vn -1.0000 0.0007 -0.0002
vn -1.0000 0.0006 0.0003
vn -1.0000 0.0005 -0.0000
vn -1.0000 0.0009 -0.0000
vn -1.0000 0.0009 -0.0001
vn -1.0000 0.0016 0.0007
vn -1.0000 0.0019 0.0005
vn -1.0000 0.0017 0.0002
vt 0.000000 0.000000
s 1
f 347/1/1 164/1/1 163/1/1 162/1/1
f 323/1/2 198/1/2 199/1/2 200/1/2
f 223/1/3 323/1/3 200/1/3 222/1/3
f 145/1/1 23/1/1 24/1/1 146/1/1
f 295/1/1 296/1/1 23/1/1 145/1/1
f 148/1/1 25/1/1 22/1/1 147/1/1
f 149/1/1 26/1/1 25/1/1 148/1/1
f 150/1/1 21/1/1 26/1/1 149/1/1
f 151/1/1 20/1/1 21/1/1 150/1/1
f 152/1/1 31/1/1 20/1/1 151/1/1
f 153/1/1 18/1/1 31/1/1 152/1/1
f 154/1/1 17/1/1 18/1/1 153/1/1
f 155/1/1 19/1/1 17/1/1 154/1/1
f 156/1/1 16/1/1 19/1/1 155/1/1
f 157/1/1 15/1/1 16/1/1 156/1/1
f 158/1/1 14/1/1 15/1/1 157/1/1
f 159/1/1 13/1/1 14/1/1 158/1/1
f 160/1/1 12/1/1 13/1/1 159/1/1
f 161/1/1 11/1/1 12/1/1 160/1/1
f 162/1/1 9/1/1 11/1/1 161/1/1
f 163/1/1 10/1/1 9/1/1 162/1/1
f 164/1/1 3/1/1 10/1/1 163/1/1
f 373/1/1 374/1/1 7/1/1 166/1/1
f 377/1/1 378/1/1 5/1/1 165/1/1
f 168/1/1 29/1/1 1/1/1 167/1/1
f 169/1/1 30/1/1 29/1/1 168/1/1
f 170/1/1 40/1/1 30/1/1 169/1/1
f 171/1/1 39/1/1 40/1/1 170/1/1
f 172/1/1 41/1/1 39/1/1 171/1/1
f 173/1/1 38/1/1 41/1/1 172/1/1
f 174/1/1 37/1/1 38/1/1 173/1/1
f 175/1/1 42/1/1 37/1/1 174/1/1
f 176/1/1 34/1/1 42/1/1 175/1/1
f 177/1/1 35/1/1 34/1/1 176/1/1
f 178/1/1 36/1/1 35/1/1 177/1/1
f 179/1/1 33/1/1 36/1/1 178/1/1
f 180/1/1 32/1/1 33/1/1 179/1/1
f 181/1/1 28/1/1 32/1/1 180/1/1
f 182/1/1 27/1/1 28/1/1 181/1/1
f 146/1/1 24/1/1 27/1/1 182/1/1
f 183/1/2 184/1/2 57/1/2 56/1/2
f 185/1/2 183/1/2 56/1/2 55/1/2
f 186/1/2 185/1/2 55/1/2 59/1/2
f 187/1/2 186/1/2 59/1/2 54/1/2
f 188/1/2 187/1/2 54/1/2 65/1/2
f 189/1/2 188/1/2 65/1/2 50/1/2
f 190/1/2 189/1/2 50/1/2 51/1/2
f 191/1/2 190/1/2 51/1/2 52/1/2
f 192/1/2 191/1/2 52/1/2 48/1/2
f 193/1/2 192/1/2 48/1/2 49/1/2
f 194/1/2 193/1/2 49/1/2 53/1/2
f 195/1/2 194/1/2 53/1/2 45/1/2
f 196/1/2 195/1/2 45/1/2 46/1/2
f 197/1/2 196/1/2 46/1/2 47/1/2
f 198/1/2 197/1/2 47/1/2 43/1/2
f 199/1/2 198/1/2 43/1/2 44/1/2
f 200/1/2 199/1/2 44/1/2 4/1/2
f 405/1/2 202/1/2 8/1/2 406/1/2
f 413/1/2 201/1/2 6/1/2 414/1/2
f 204/1/2 203/1/2 2/1/2 63/1/2
f 205/1/2 204/1/2 63/1/2 62/1/2
f 206/1/2 205/1/2 62/1/2 74/1/2
f 207/1/2 206/1/2 74/1/2 73/1/2
f 208/1/2 207/1/2 73/1/2 75/1/2
f 209/1/2 208/1/2 75/1/2 72/1/2
f 210/1/2 209/1/2 72/1/2 71/1/2
f 211/1/2 210/1/2 71/1/2 76/1/2
f 212/1/2 211/1/2 76/1/2 68/1/2
f 213/1/2 212/1/2 68/1/2 69/1/2
f 214/1/2 213/1/2 69/1/2 70/1/2
f 215/1/2 214/1/2 70/1/2 67/1/2
f 216/1/2 215/1/2 67/1/2 66/1/2
f 217/1/2 216/1/2 66/1/2 60/1/2
f 218/1/2 217/1/2 60/1/2 61/1/2
f 219/1/2 218/1/2 61/1/2 64/1/2
f 220/1/2 219/1/2 64/1/2 58/1/2
f 297/1/2 220/1/2 58/1/2 298/1/2
f 164/1/3 221/1/3 102/1/3 3/1/3
f 385/1/4 166/1/4 7/1/4 386/1/4
f 222/1/3 200/1/3 4/1/3 140/1/3
f 223/1/3 222/1/3 140/1/3 141/1/3
f 224/1/3 223/1/3 141/1/3 142/1/3
f 225/1/3 224/1/3 142/1/3 139/1/3
f 226/1/3 225/1/3 139/1/3 138/1/3
f 227/1/3 226/1/3 138/1/3 143/1/3
f 228/1/3 227/1/3 143/1/3 136/1/3
f 229/1/3 228/1/3 136/1/3 135/1/3
f 230/1/3 229/1/3 135/1/3 137/1/3
f 231/1/3 230/1/3 137/1/3 134/1/3
f 232/1/3 231/1/3 134/1/3 144/1/3
f 233/1/3 232/1/3 144/1/3 128/1/3
f 234/1/3 233/1/3 128/1/3 129/1/3
f 235/1/3 234/1/3 129/1/3 130/1/3
f 236/1/3 235/1/3 130/1/3 125/1/3
f 237/1/3 236/1/3 125/1/3 126/1/3
f 238/1/3 237/1/3 126/1/3 127/1/3
f 289/1/3 238/1/3 127/1/3 290/1/3
f 240/1/3 239/1/3 131/1/3 132/1/3
f 241/1/3 240/1/3 132/1/3 123/1/3
f 242/1/3 241/1/3 123/1/3 124/1/3
f 243/1/3 242/1/3 124/1/3 122/1/3
f 244/1/3 243/1/3 122/1/3 133/1/3
f 245/1/3 244/1/3 133/1/3 119/1/3
f 246/1/3 245/1/3 119/1/3 120/1/3
f 247/1/3 246/1/3 120/1/3 98/1/3
f 248/1/3 247/1/3 98/1/3 97/1/3
f 249/1/3 248/1/3 97/1/3 117/1/3
f 250/1/3 249/1/3 117/1/3 118/1/3
f 251/1/5 250/1/5 118/1/5 121/1/5
f 252/1/6 251/1/6 121/1/6 116/1/6
f 253/1/3 252/1/3 116/1/3 115/1/3
f 254/1/3 253/1/3 115/1/3 113/1/3
f 255/1/3 254/1/3 113/1/3 112/1/3
f 291/1/7 255/1/7 112/1/7 292/1/7
f 257/1/3 256/1/3 111/1/3 114/1/3
f 258/1/3 257/1/3 114/1/3 108/1/3
f 259/1/3 258/1/3 108/1/3 109/1/3
f 260/1/8 259/1/8 109/1/8 99/1/8
f 261/1/9 260/1/9 99/1/9 95/1/9
f 262/1/3 261/1/3 95/1/3 96/1/3
f 263/1/3 262/1/3 96/1/3 100/1/3
f 264/1/3 263/1/3 100/1/3 92/1/3
f 265/1/3 264/1/3 92/1/3 93/1/3
f 266/1/3 265/1/3 93/1/3 91/1/3
f 267/1/3 266/1/3 91/1/3 94/1/3
f 268/1/3 267/1/3 94/1/3 89/1/3
f 269/1/3 268/1/3 89/1/3 90/1/3
f 270/1/3 269/1/3 90/1/3 107/1/3
f 271/1/3 270/1/3 107/1/3 110/1/3
f 272/1/3 271/1/3 110/1/3 104/1/3
f 293/1/3 272/1/3 104/1/3 294/1/3
f 274/1/3 273/1/3 103/1/3 105/1/3
f 275/1/3 274/1/3 105/1/3 106/1/3
f 276/1/3 275/1/3 106/1/3 85/1/3
f 277/1/3 276/1/3 85/1/3 86/1/3
f 278/1/3 277/1/3 86/1/3 84/1/3
f 279/1/3 278/1/3 84/1/3 87/1/3
f 280/1/3 279/1/3 87/1/3 82/1/3
f 281/1/3 280/1/3 82/1/3 83/1/3
f 282/1/3 281/1/3 83/1/3 88/1/3
f 283/1/3 282/1/3 88/1/3 80/1/3
f 284/1/3 283/1/3 80/1/3 81/1/3
f 285/1/3 284/1/3 81/1/3 79/1/3
f 286/1/3 285/1/3 79/1/3 78/1/3
f 287/1/3 286/1/3 78/1/3 77/1/3
f 288/1/3 287/1/3 77/1/3 101/1/3
f 221/1/3 288/1/3 101/1/3 102/1/3
f 239/1/3 289/1/3 290/1/3 131/1/3
f 256/1/10 291/1/10 292/1/10 111/1/10
f 273/1/3 293/1/3 294/1/3 103/1/3
f 147/1/1 22/1/1 296/1/1 295/1/1
f 184/1/2 297/1/2 298/1/2 57/1/2
f 398/1/11 299/1/11 300/1/11 399/1/11
f 240/1/12 309/1/12 289/1/12 239/1/12
f 319/1/13 301/1/13 302/1/13 320/1/13
f 257/1/14 305/1/14 291/1/14 256/1/14
f 392/1/4 303/1/4 304/1/4 393/1/4
f 274/1/15 341/1/15 293/1/15 273/1/15
f 258/1/14 306/1/14 305/1/14 257/1/14
f 291/1/16 305/1/16 254/1/16 255/1/16
f 259/1/17 307/1/17 306/1/17 258/1/17
f 305/1/18 306/1/18 253/1/18 254/1/18
f 260/1/19 308/1/19 307/1/19 259/1/19
f 306/1/20 307/1/20 252/1/20 253/1/20
f 261/1/21 313/1/21 308/1/21 260/1/21
f 307/1/22 308/1/22 251/1/22 252/1/22
f 241/1/23 310/1/23 309/1/23 240/1/23
f 289/1/12 309/1/12 237/1/12 238/1/12
f 242/1/24 311/1/24 310/1/24 241/1/24
f 309/1/25 310/1/25 236/1/25 237/1/25
f 243/1/26 312/1/26 311/1/26 242/1/26
f 310/1/27 311/1/27 235/1/27 236/1/27
f 244/1/28 315/1/28 312/1/28 243/1/28
f 311/1/29 312/1/29 234/1/29 235/1/29
f 262/1/30 314/1/30 313/1/30 261/1/30
f 308/1/31 313/1/31 250/1/31 251/1/31
f 263/1/32 387/1/32 314/1/32 262/1/32
f 313/1/33 314/1/33 249/1/33 250/1/33
f 245/1/34 316/1/34 315/1/34 244/1/34
f 312/1/35 315/1/35 233/1/35 234/1/35
f 246/1/36 321/1/36 299/1/36 316/1/36 245/1/36
f 315/1/37 316/1/37 232/1/37 233/1/37
f 321/1/38 317/1/38 318/1/38 322/1/38
f 317/1/39 319/1/39 320/1/39 318/1/39
f 299/1/13 321/1/13 322/1/13 300/1/13
f 248/1/40 319/1/40 317/1/40 247/1/40
f 247/1/41 317/1/41 321/1/41 246/1/41
f 387/1/42 301/1/42 319/1/42 248/1/42
f 224/1/3 324/1/3 323/1/3 223/1/3
f 324/1/2 197/1/2 198/1/2 323/1/2
f 225/1/3 325/1/3 324/1/3 224/1/3
f 325/1/2 196/1/2 197/1/2 324/1/2
f 226/1/3 326/1/3 325/1/3 225/1/3
f 326/1/2 195/1/2 196/1/2 325/1/2
f 227/1/3 327/1/3 326/1/3 226/1/3
f 327/1/2 194/1/2 195/1/2 326/1/2
f 228/1/3 328/1/3 327/1/3 227/1/3
f 328/1/2 193/1/2 194/1/2 327/1/2
f 229/1/43 396/1/43 202/1/43 400/1/43
f 205/1/2 329/1/2 203/1/2 204/1/2
f 184/1/2 183/1/2 219/1/2 220/1/2 297/1/2
f 183/1/2 185/1/2 218/1/2 219/1/2
f 185/1/2 186/1/2 217/1/2 218/1/2
f 186/1/2 187/1/2 216/1/2 217/1/2
f 187/1/2 188/1/2 215/1/2 216/1/2
f 188/1/2 189/1/2 214/1/2 215/1/2
f 203/1/2 329/1/2 330/1/2 2/1/2
f 329/1/2 331/1/2 332/1/2 330/1/2
f 331/1/2 333/1/2 334/1/2 332/1/2
f 333/1/2 335/1/2 336/1/2 334/1/2
f 335/1/2 337/1/2 338/1/2 336/1/2
f 206/1/2 331/1/2 329/1/2 205/1/2
f 207/1/2 333/1/2 331/1/2 206/1/2
f 208/1/2 335/1/2 333/1/2 207/1/2
f 209/1/2 337/1/2 335/1/2 208/1/2
f 210/1/2 339/1/2 337/1/2 209/1/2
f 337/1/2 339/1/2 340/1/2 338/1/2
f 400/1/2 192/1/2 193/1/2 328/1/2
f 275/1/44 342/1/44 341/1/44 274/1/44
f 293/1/15 341/1/15 271/1/15 272/1/15
f 276/1/44 343/1/44 342/1/44 275/1/44
f 341/1/45 342/1/45 270/1/45 271/1/45
f 277/1/46 344/1/46 343/1/46 276/1/46
f 342/1/45 343/1/45 269/1/45 270/1/45
f 278/1/47 345/1/47 344/1/47 277/1/47
f 343/1/48 344/1/48 268/1/48 269/1/48
f 279/1/47 346/1/47 345/1/47 278/1/47
f 344/1/49 345/1/49 267/1/49 268/1/49
f 280/1/50 380/1/50 346/1/50 279/1/50
f 345/1/49 346/1/49 266/1/49 267/1/49
f 164/1/3 347/1/3 288/1/3 221/1/3
f 348/1/1 347/1/1 162/1/1 161/1/1
f 347/1/3 348/1/3 287/1/3 288/1/3
f 349/1/1 348/1/1 161/1/1 160/1/1
f 348/1/3 349/1/3 286/1/3 287/1/3
f 350/1/1 349/1/1 160/1/1 159/1/1
f 349/1/3 350/1/3 285/1/3 286/1/3
f 351/1/1 350/1/1 159/1/1 158/1/1
f 350/1/3 351/1/3 284/1/3 285/1/3
f 352/1/1 351/1/1 158/1/1 157/1/1
f 351/1/3 352/1/3 283/1/3 284/1/3
f 353/1/1 169/1/1 168/1/1 167/1/1
f 145/1/1 146/1/1 148/1/1 147/1/1 295/1/1
f 146/1/1 182/1/1 149/1/1 148/1/1
f 182/1/1 181/1/1 150/1/1 149/1/1
f 181/1/1 180/1/1 151/1/1 150/1/1
f 180/1/1 179/1/1 152/1/1 151/1/1
f 179/1/1 178/1/1 153/1/1 152/1/1
f 167/1/1 1/1/1 359/1/1 353/1/1
f 353/1/1 359/1/1 360/1/1 354/1/1
f 354/1/1 360/1/1 361/1/1 355/1/1
f 355/1/1 361/1/1 362/1/1 356/1/1
f 356/1/1 362/1/1 363/1/1 357/1/1
f 357/1/1 363/1/1 364/1/1 358/1/1
f 354/1/1 170/1/1 169/1/1 353/1/1
f 355/1/1 171/1/1 170/1/1 354/1/1
f 356/1/1 172/1/1 171/1/1 355/1/1
f 357/1/1 173/1/1 172/1/1 356/1/1
f 358/1/1 174/1/1 173/1/1 357/1/1
f 175/1/1 174/1/1 358/1/1 377/1/1
f 369/1/1 370/1/1 366/1/1 365/1/1
f 365/1/1 366/1/1 368/1/1 367/1/1
f 165/1/1 5/1/1 370/1/1 369/1/1
f 365/1/1 176/1/1 175/1/1 369/1/1
f 177/1/1 176/1/1 365/1/1 367/1/1
f 156/1/1 373/1/1 166/1/1 379/1/1
f 375/1/1 376/1/1 372/1/1 371/1/1
f 371/1/1 372/1/1 374/1/1 373/1/1
f 367/1/1 368/1/1 376/1/1 375/1/1
f 177/1/1 367/1/1 375/1/1 154/1/1
f 154/1/1 375/1/1 371/1/1 155/1/1
f 155/1/1 371/1/1 373/1/1 156/1/1
f 178/1/1 177/1/1 154/1/1 153/1/1
f 358/1/1 364/1/1 378/1/1 377/1/1
f 369/1/1 175/1/1 377/1/1 165/1/1
f 352/1/3 379/1/3 282/1/3 283/1/3
f 157/1/1 156/1/1 379/1/1 352/1/1
f 280/1/51 383/1/51 303/1/51 380/1/51
f 346/1/52 380/1/52 265/1/52 266/1/52
f 383/1/4 381/1/4 382/1/4 384/1/4
f 282/1/53 385/1/53 381/1/53 281/1/53
f 303/1/4 383/1/4 384/1/4 304/1/4
f 381/1/4 385/1/4 386/1/4 382/1/4
f 379/1/44 166/1/44 385/1/44 282/1/44
f 281/1/51 381/1/51 383/1/51 280/1/51
f 263/1/54 390/1/54 301/1/54 387/1/54
f 314/1/55 387/1/55 248/1/55 249/1/55
f 390/1/4 388/1/4 389/1/4 391/1/4
f 301/1/4 390/1/4 391/1/4 302/1/4
f 388/1/4 392/1/4 393/1/4 389/1/4
f 380/1/56 303/1/56 392/1/56 265/1/56
f 265/1/57 392/1/57 388/1/57 264/1/57
f 264/1/58 388/1/58 390/1/58 263/1/58
f 396/1/11 394/1/11 395/1/11 397/1/11
f 202/1/11 396/1/11 397/1/11 8/1/11
f 394/1/11 398/1/11 399/1/11 395/1/11
f 316/1/59 299/1/59 398/1/59 231/1/59 232/1/59
f 231/1/60 398/1/60 394/1/60 230/1/60
f 230/1/61 394/1/61 396/1/61 229/1/61
f 228/1/3 229/1/3 400/1/3 328/1/3
f 405/1/2 192/1/2 400/1/2 202/1/2
f 403/1/2 401/1/2 402/1/2 404/1/2
f 409/1/2 403/1/2 404/1/2 410/1/2
f 401/1/2 405/1/2 406/1/2 402/1/2
f 401/1/2 191/1/2 192/1/2 405/1/2
f 190/1/2 191/1/2 401/1/2 403/1/2
f 211/1/2 411/1/2 201/1/2 413/1/2
f 189/1/2 190/1/2 213/1/2 214/1/2
f 411/1/2 407/1/2 408/1/2 412/1/2
f 407/1/2 409/1/2 410/1/2 408/1/2
f 201/1/2 411/1/2 412/1/2 6/1/2
f 212/1/2 407/1/2 411/1/2 211/1/2
f 213/1/2 409/1/2 407/1/2 212/1/2
f 190/1/2 403/1/2 409/1/2 213/1/2
f 339/1/2 413/1/2 414/1/2 340/1/2
f 210/1/2 211/1/2 413/1/2 339/1/2
