# Blender 4.2.4 LTS
# www.blender.org
mtllib ROOFCOURNER2.mtl
o ROOFCOURNER2
v -0.456323 0.299940 -0.060599
v 0.051052 0.299940 0.446775
v -0.202636 0.299940 0.007376
v -0.016923 0.299940 0.193088
v 0.588838 -0.269946 -0.091011
v 0.081463 -0.269946 -0.598385
v 0.520863 -0.269946 -0.344698
v 0.335151 -0.269946 -0.530410
v 0.051051 0.299940 0.537890
v 0.588837 -0.269946 0.537890
v -0.509125 0.299940 -0.060599
v -0.509125 -0.269946 -0.598385
v -0.509125 0.299940 0.537890
v -0.509125 -0.269946 0.537890
v 0.428007 -0.269946 -0.437554
v -0.109780 0.299940 0.100232
v -0.198385 0.299940 0.197338
v 0.038273 -0.269946 -0.031887
v 0.337011 -0.269946 -0.342838
vn -0.0000 0.6863 -0.7273
vn 0.6320 0.7562 -0.1693
vn 0.4240 0.8003 -0.4240
vn 0.1693 0.7562 -0.6320
vn 0.7273 0.6863 -0.0000
vn -0.0000 1.0000 -0.0000
vn -0.0000 -1.0000 -0.0000
vn -1.0000 -0.0000 -0.0000
vn -0.0000 -0.0000 1.0000
vt 0.375000 0.409635
vt 0.375000 0.478905
vt 0.625000 0.482106
vt 0.625000 0.410702
vt 0.625000 0.517894
vt 0.624749 0.508938
vt 0.374749 0.510539
vt 0.375000 0.521095
vt 0.624749 0.500000
vt 0.624749 0.491062
vt 0.374749 0.489461
vt 0.374749 0.500000
vt 0.375000 0.590365
vt 0.625000 0.589298
vt 0.363119 0.525253
vt 0.368313 0.506687
vt 0.364453 0.502826
vt 0.353905 0.500000
vt 0.669778 0.544520
vt 0.714298 0.540074
vt 0.714298 0.500000
vt 0.344903 0.590365
vt 0.284635 0.500000
vt 0.372174 0.510547
vt 0.639803 0.514742
vt 0.642894 0.500000
vt 0.633947 0.502397
vt 0.630672 0.505672
vt 0.627397 0.508947
s 0
f 11/1/1 1/2/1 6/3/1 12/4/1
f 5/5/2 7/6/2 4/7/2 2/8/2
f 15/9/3 8/10/3 3/11/3 16/12/3
f 8/10/4 6/3/4 1/2/4 3/11/4
f 2/8/5 9/13/5 10/14/5 5/5/5
f 17/15/6 16/16/6 3/17/6 1/18/6
f 18/19/7 14/20/7 12/21/7
f 12/21/8 14/20/8 13/22/8 11/23/8
f 10/14/9 9/13/9 13/22/9 14/20/9
f 7/6/3 15/9/3 16/12/3 4/7/3
f 2/8/6 4/24/6 16/16/6 17/15/6
f 9/13/6 2/8/6 17/15/6 13/22/6
f 13/22/6 17/15/6 1/18/6 11/23/6
f 19/25/7 6/26/7 8/27/7 15/28/7
f 5/5/7 19/25/7 15/28/7 7/29/7
f 10/14/7 14/20/7 18/19/7
f 18/19/7 12/21/7 6/26/7 19/25/7
f 10/14/7 18/19/7 19/25/7 5/5/7
