# Blender 4.2.4 LTS
# www.blender.org
mtllib ROOFCOURNER3.mtl
o ROOFCOURNER3
v -0.051052 0.299940 0.446775
v 0.456323 0.299940 -0.060600
v 0.016923 0.299940 0.193088
v 0.202636 0.299940 0.007376
v -0.081464 -0.269946 -0.598386
v -0.588838 -0.269946 -0.091011
v -0.335151 -0.269946 -0.530411
v -0.520863 -0.269946 -0.344698
v -0.051052 0.299940 0.537890
v -0.588837 -0.269946 0.537890
v 0.509125 0.299940 -0.060599
v 0.509125 -0.269946 -0.598385
v 0.509125 0.299940 0.537890
v 0.509125 -0.269946 0.537890
v -0.428007 -0.269946 -0.437554
v 0.109779 0.299940 0.100232
v 0.198385 0.299940 0.197338
v -0.038272 -0.269946 -0.031887
v -0.337011 -0.269946 -0.342839
vn -0.0000 -1.0000 -0.0000
vn -0.7273 0.6863 -0.0000
vn -0.1693 0.7562 -0.6320
vn -0.4240 0.8003 -0.4240
vn -0.6320 0.7562 -0.1693
vn -0.0000 0.6863 -0.7273
vn -0.0000 1.0000 -0.0000
vn 1.0000 -0.0000 -0.0000
vn -0.0000 -0.0000 1.0000
vt 0.857106 0.500000
vt 0.861208 0.509013
vt 0.869328 0.505672
vt 0.866053 0.502397
vt 0.375000 0.159635
vt 0.375000 0.228905
vt 0.625000 0.232106
vt 0.625000 0.160702
vt 0.625000 0.267894
vt 0.624749 0.258938
vt 0.374749 0.260539
vt 0.375000 0.271095
vt 0.624749 0.250000
vt 0.624749 0.241062
vt 0.374749 0.239461
vt 0.374749 0.250000
vt 0.375000 0.340365
vt 0.625000 0.339298
vt 0.136881 0.525253
vt 0.146095 0.500000
vt 0.135547 0.502826
vt 0.131687 0.506687
vt 0.785702 0.500000
vt 0.215365 0.500000
vt 0.155097 0.590365
vt 0.785702 0.540074
vt 0.875000 0.589298
vt 0.125000 0.590365
vt 0.125000 0.521095
vt 0.127826 0.510547
vt 0.834550 0.519979
vt 0.875000 0.517894
vt 0.872603 0.508947
s 0
f 5/1/1 19/2/1 15/3/1 7/4/1
f 9/5/2 1/6/2 6/7/2 10/8/2
f 5/9/3 7/10/3 4/11/3 2/12/3
f 15/13/4 8/14/4 3/15/4 16/16/4
f 8/14/5 6/7/5 1/6/5 3/15/5
f 2/12/6 11/17/6 12/18/6 5/9/6
f 17/19/7 2/20/7 4/21/7 16/22/7
f 12/23/8 11/24/8 13/25/8 14/26/8
f 10/27/9 14/26/9 13/25/9 9/28/9
f 7/10/4 15/13/4 16/16/4 4/11/4
f 1/29/7 17/19/7 16/22/7 3/30/7
f 13/25/7 11/24/7 2/20/7 17/19/7
f 9/28/7 13/25/7 17/19/7 1/29/7
f 10/27/1 18/31/1 14/26/1
f 14/26/1 18/31/1 12/23/1
f 6/32/1 19/2/1 18/31/1 10/27/1
f 8/33/1 15/3/1 19/2/1 6/32/1
f 12/23/1 18/31/1 19/2/1 5/1/1
