# Blender 4.2.4 LTS
# www.blender.org
mtllib ROOF4.mtl
o ROOF4
v 0.145640 0.284943 -1.930265
v 0.145643 0.284943 1.930265
v 0.683429 -0.284943 1.930265
v 0.683426 -0.284943 -1.930266
v -0.414533 0.284943 1.930266
v -0.414536 0.284943 -1.930265
v -0.414533 -0.284943 1.930266
v -0.414536 -0.284943 -1.930265
vn -0.7273 -0.6863 -0.0000
vn -0.0000 -1.0000 -0.0000
vn -0.0000 1.0000 -0.0000
vn 1.0000 -0.0000 -0.0000
vn -0.0000 -0.0000 -1.0000
vn -0.0000 -0.0000 1.0000
vt 0.375000 0.590365
vt 0.625000 0.589298
vt 0.625000 0.660702
vt 0.375000 0.659635
vt 0.344903 0.590365
vt 0.344903 0.659635
vt 0.714298 0.540074
vt 0.714298 0.709926
s 0
f 1/1/1 4/2/1 3/3/1 2/4/1
f 6/5/2 1/1/2 2/4/2 5/6/2
f 4/2/3 8/7/3 7/8/3 3/3/3
f 7/8/4 8/7/4 6/5/4 5/6/4
f 3/3/5 7/8/5 5/6/5 2/4/5
f 1/1/6 6/5/6 8/7/6 4/2/6
