# Blender 4.2.4 LTS
# www.blender.org
mtllib THISTHING2.mtl
o THISTHING2
v -0.501626 -1.003321 -0.527938
v -0.274331 -1.003321 -0.434348
v -0.501231 1.006520 -0.527544
v -0.274331 1.006520 -0.434348
v 0.241813 -1.003321 -1.271378
v 0.241813 1.006520 -1.271378
v -0.305586 1.006111 0.398230
v 0.528708 -1.015913 -1.272027
v 0.528708 0.993927 -1.272027
v -0.464410 1.006520 0.557053
v -0.304186 -1.003321 0.396829
v 0.528709 -1.003321 1.275501
v 0.528709 1.006520 1.275501
v -0.464234 -1.003321 0.556878
v 0.245736 -1.003321 1.275501
v 0.245736 1.006520 1.275501
vn 0.7219 -0.0000 0.6920
vn -0.0220 -0.9997 -0.0136
vn 0.0221 0.9997 0.0136
vn -0.0023 -0.0000 -1.0000
vn -0.7113 -0.0001 0.7029
vn -0.0000 -1.0000 -0.0000
vn 0.0006 1.0000 -0.0009
vn -0.0000 -0.0000 1.0000
vn -0.9994 -0.0000 0.0342
vn 0.0011 1.0000 0.0002
vn 0.9993 0.0003 0.0367
vn -0.7073 0.0001 -0.7069
vn 0.7252 0.0005 -0.6885
vt 0.299582 0.711243
vt 0.375000 0.500000
vt 0.625000 0.500000
vt 0.625000 0.727519
vt 0.125000 0.500000
vt 0.125000 0.748920
vt 0.875000 0.500000
vt 0.875000 0.748920
vt 0.375000 0.250000
vt 0.625000 0.250000
vt 0.375000 0.750000
vt 0.625000 0.750000
vt 0.125000 0.750000
vt 0.802118 0.711791
vt 0.375000 0.749143
vt 0.625000 0.500083
vt 0.625000 0.749143
vt 0.875000 0.522244
vt 0.801342 0.711086
vt 0.625000 0.023018
vt 0.625000 0.227756
vt 0.198658 0.538140
vt 0.625000 0.001080
vt 0.625000 0.022481
vt 0.125000 0.726982
vt 0.375000 0.500083
s 0
f 2/1/1 8/2/1 9/3/1 4/4/1
f 5/5/2 8/2/2 2/1/2 1/6/2
f 9/3/3 6/7/3 3/8/3 4/4/3
f 5/9/4 6/10/4 9/3/4 8/2/4
f 14/11/5 15/2/5 16/3/5 10/12/5
f 12/5/6 15/2/6 14/11/6 11/13/6
f 16/3/7 13/7/7 7/14/7 10/12/7
f 12/9/8 13/10/8 16/3/8 15/2/8
f 1/15/9 14/11/9 10/16/9 3/17/9
f 10/16/10 7/18/10 4/19/10 3/17/10
f 2/1/11 4/20/11 7/21/11 11/22/11
f 5/5/12 1/15/12 3/23/12 6/10/12
f 12/5/13 11/22/13 7/24/13 13/10/13
f 2/25/6 11/22/6 14/26/6 1/15/6
