# Blender 4.2.4 LTS
# www.blender.org
mtllib THISTHINGWINDOWfRAME2.mtl
o THISTHINGWINDOWfRAME2
v -0.317416 -1.397442 -0.537185
v -0.090122 -1.397442 -0.443593
v -0.317022 0.612398 -0.536790
v -0.090122 0.612398 -0.443593
v 0.426022 -1.397442 -1.280623
v 0.426022 0.612398 -1.280623
v -0.121377 0.611990 0.388984
v 0.712918 -1.410035 -1.281272
v 0.712918 0.599806 -1.281272
v -0.280201 0.612398 0.547807
v -0.119977 -1.397442 0.387584
v 0.712918 -1.397442 1.266255
v 0.712918 0.612398 1.266255
v -0.280026 -1.397442 0.547632
v 0.429945 -1.397442 1.266255
v 0.429945 0.612398 1.266255
v -0.163492 -1.231641 0.665572
v 0.313397 -1.231641 1.148331
v -0.311739 -1.231641 -0.371448
v -0.285685 -1.231641 0.381942
v 0.308831 -1.231641 -1.163337
v -0.200193 -1.231641 -0.654437
v 0.174748 0.446598 1.008048
v 0.313409 0.249361 1.148317
v 0.411437 0.586066 1.247524
v 0.244079 0.420173 1.078182
v 0.294833 0.347979 1.129524
v -0.163634 0.249361 0.665713
v -0.024989 0.446598 0.806000
v -0.261690 0.586066 0.566536
v -0.145066 0.347979 0.684515
v -0.094318 0.420173 0.735864
v -0.292548 0.446598 0.184966
v -0.285855 0.249361 0.382071
v -0.281103 0.586060 0.521482
v -0.289210 0.420173 0.283524
v -0.286760 0.347979 0.355672
v -0.311407 0.249361 -0.371158
v -0.304693 0.446598 -0.173995
v -0.316124 0.586080 -0.510491
v -0.310491 0.347979 -0.344729
v -0.308034 0.420173 -0.272563
v -0.060454 0.446598 -0.793635
v -0.199873 0.249361 -0.654119
v -0.298409 0.586066 -0.555417
v -0.130148 0.420173 -0.723861
v -0.181179 0.347979 -0.672795
v 0.308802 0.249361 -1.163365
v 0.169422 0.446598 -1.023810
v 0.407404 0.586066 -1.262000
v 0.290127 0.347979 -1.144671
v 0.239110 0.420173 -1.093591
v -0.275910 0.347976 -0.347253
v -0.273453 0.420169 -0.275085
v -0.270112 0.446594 -0.176518
v -0.252179 0.347976 0.353148
v -0.254629 0.420169 0.281003
v -0.257967 0.446594 0.182443
v -0.034579 0.446588 -0.767787
v -0.104273 0.420163 -0.698014
v -0.155304 0.347969 -0.646947
v -0.077058 0.420178 0.719222
v -0.007729 0.446602 0.789359
v -0.127806 0.347984 0.667874
v 0.316002 0.347969 -1.118823
v 0.264985 0.420163 -1.067742
v 0.195296 0.446588 -0.997964
v 0.192008 0.446602 0.991407
v 0.261339 0.420178 1.061542
v 0.312093 0.347984 1.112884
v 0.330657 -1.231637 1.131689
v -0.146232 -1.231637 0.648931
v -0.251104 -1.231645 0.379418
v -0.277157 -1.231645 -0.373969
v 0.334706 -1.231652 -1.137490
v -0.174317 -1.231652 -0.628591
v 0.330670 0.249365 1.131677
v -0.146373 0.249365 0.649073
v -0.251274 0.249357 0.379550
v -0.276826 0.249357 -0.373681
v -0.173998 0.249351 -0.628272
v 0.334677 0.249351 -1.137519
vn 0.7219 -0.0000 0.6920
vn -0.0220 -0.9997 -0.0136
vn 0.0221 0.9997 0.0136
vn -0.0023 -0.0000 -1.0000
vn -0.0728 0.0001 -0.9974
vn -0.0000 -1.0000 -0.0000
vn 0.0006 1.0000 -0.0009
vn -0.0000 -0.0000 1.0000
vn -0.7067 -0.0000 0.7075
vn 0.0011 1.0000 0.0002
vn 0.9993 0.0003 0.0367
vn -0.9994 -0.0000 0.0339
vn 0.7252 0.0005 -0.6885
vn -0.7114 -0.0001 0.7028
vn 0.0001 -1.0000 -0.0001
vn -0.7113 -0.0001 0.7029
vn 0.6941 -0.0000 0.7199
vn -0.9994 -0.0000 0.0345
vn -0.0001 -1.0000 -0.0000
vn 0.0728 -0.0002 0.9974
vn -0.7073 0.0003 -0.7069
vn -0.7071 0.0001 -0.7071
vn -0.0002 -1.0000 -0.0002
vn 0.7067 -0.0000 -0.7075
vn 0.0001 1.0000 -0.0000
vn -0.7075 0.0001 -0.7067
vn -0.7113 -0.0000 0.7029
vn -0.9994 0.0002 0.0342
vn 0.0002 1.0000 0.0002
vn -0.7112 -0.0001 0.7030
vn -0.9994 -0.0001 0.0342
vn -0.7073 -0.0000 -0.7069
vn -0.0001 1.0000 0.0001
vn -0.7112 -0.0000 0.7030
vn -0.9994 0.0002 0.0339
vn -0.9994 0.0001 0.0340
vn -0.9994 -0.0000 0.0341
vn -0.9994 0.0001 0.0341
vn -0.9994 -0.0000 0.0340
vn -0.9994 -0.0001 0.0339
vn -0.7075 -0.0000 -0.7067
vn -0.7074 0.0001 -0.7068
vn -0.7073 0.0002 -0.7069
vn -0.7073 0.0001 -0.7069
vn -0.7074 0.0002 -0.7068
vn -0.7075 0.0003 -0.7067
vn 0.0703 -0.2588 0.9634
vn 0.0514 -0.7069 0.7054
vn 0.0187 -0.9659 0.2583
vn -0.0703 -0.2586 -0.9634
vn -0.0515 -0.7068 -0.7055
vn -0.0189 -0.9659 -0.2583
vn 0.1827 -0.9659 -0.1833
vn 0.4996 -0.7071 -0.5004
vn 0.6826 -0.2588 -0.6834
vn 0.1798 -0.9659 0.1862
vn 0.4909 -0.7071 0.5090
vn 0.6705 -0.2588 0.6953
vn -0.6827 -0.2588 0.6833
vn -0.4999 -0.7071 0.5001
vn -0.1831 -0.9659 0.1829
vn -0.1795 -0.9659 -0.1865
vn -0.4907 -0.7071 -0.5092
vn -0.6704 -0.2588 -0.6954
vn -0.6941 -0.0000 -0.7199
vt 0.299582 0.711243
vt 0.375000 0.500000
vt 0.625000 0.500000
vt 0.625000 0.727519
vt 0.125000 0.500000
vt 0.125000 0.748920
vt 0.875000 0.500000
vt 0.875000 0.748920
vt 0.375000 0.250000
vt 0.625000 0.250000
vt 0.395624 0.734967
vt 0.579842 0.574419
vt 0.375000 0.750000
vt 0.125000 0.750000
vt 0.802118 0.711791
vt 0.625000 0.750000
vt 0.543751 0.273966
vt 0.199876 0.507120
vt 0.543751 0.273966
vt 0.625000 0.500083
vt 0.875000 0.522244
vt 0.801342 0.711086
vt 0.625000 0.749143
vt 0.625000 0.023018
vt 0.625000 0.227756
vt 0.198658 0.538140
vt 0.621726 0.744010
vt 0.604376 0.673947
vt 0.604376 0.595898
vt 0.621724 0.508496
vt 0.625000 0.022481
vt 0.125000 0.726982
vt 0.375000 0.500083
vt 0.375000 0.749143
vt 0.395624 0.541032
vt 0.395624 0.708968
vt 0.604376 0.589844
vt 0.604376 0.660156
vt 0.604376 0.660156
vt 0.604376 0.589844
vt 0.579842 0.708968
vt 0.621724 0.743483
vt 0.395624 0.743561
vt 0.604376 0.673947
vt 0.604376 0.673947
vt 0.579842 0.719952
vt 0.579842 0.719952
vt 0.625000 0.001080
vt 0.620804 0.015282
vt 0.570776 0.157394
vt 0.361994 0.659688
vt 0.596106 0.132265
vt 0.592023 0.201149
vt 0.592023 0.201149
vt 0.570776 0.157394
vt 0.570776 0.157394
vt 0.619369 0.248875
vt 0.592023 0.201149
vt 0.620804 0.015282
vt 0.621724 0.506517
vt 0.579843 0.541032
vt 0.621726 0.744010
vt 0.621725 0.743483
vt 0.604376 0.565438
vt 0.604376 0.547572
vt 0.604376 0.541032
vt 0.592109 0.708968
vt 0.601089 0.708968
vt 0.604376 0.708968
vt 0.604376 0.574468
vt 0.604376 0.558781
vt 0.604376 0.553041
vt 0.592110 0.718379
vt 0.601092 0.717228
vt 0.604381 0.716807
vt 0.597344 0.111382
vt 0.598249 0.096095
vt 0.598581 0.090499
vt 0.566650 0.258440
vt 0.583412 0.247075
vt 0.589548 0.242915
vt 0.592110 0.716790
vt 0.603281 0.695824
vt 0.604376 0.695378
vt 0.592109 0.563728
vt 0.592109 0.565318
vt 0.603281 0.575118
vt 0.595797 0.113763
vt 0.584243 0.125163
vt 0.584679 0.123947
vt 0.604376 0.684562
vt 0.603281 0.684562
vt 0.592109 0.706788
vt 0.567086 0.257224
vt 0.589045 0.224026
vt 0.590786 0.222032
vt 0.603281 0.565438
vt 0.592109 0.543212
vt 0.592109 0.541032
vt 0.579842 0.541032
s 0
f 2/1/1 8/2/1 9/3/1 4/4/1
f 5/5/2 8/2/2 2/1/2 1/6/2
f 9/3/3 6/7/3 3/8/3 4/4/3
f 5/9/4 6/10/4 9/3/4 8/2/4
f 20/11/5 34/12/5 79/12/5 73/11/5
f 12/5/6 15/2/6 14/13/6 11/14/6
f 16/3/7 13/7/7 7/15/7 10/16/7
f 12/9/8 13/10/8 16/3/8 15/2/8
f 48/17/9 21/18/9 75/18/9 82/19/9
f 10/20/10 7/21/10 4/22/10 3/23/10
f 2/1/11 4/24/11 7/25/11 11/26/11
f 10/20/12 3/23/12 40/27/12 39/28/12 33/29/12 35/30/12
f 12/5/13 11/26/13 7/31/13 13/10/13
f 2/32/6 11/26/6 14/33/6 1/34/6
f 14/13/14 15/2/14 18/35/14 17/36/14
f 23/37/15 29/38/15 63/39/15 68/40/15
f 10/16/16 14/13/16 17/36/16 28/41/16 30/42/16
f 28/41/17 17/36/17 72/36/17 78/41/17
f 1/34/18 14/13/18 20/11/18 19/43/18
f 33/29/19 39/44/19 55/45/19 58/29/19
f 38/46/20 19/43/20 74/43/20 80/47/20
f 1/34/21 3/48/21 45/49/21 44/50/21 22/51/21
f 5/5/22 1/34/22 22/51/22 21/18/22
f 43/52/23 49/53/23 67/54/23 59/52/23
f 22/51/24 44/55/24 81/56/24 76/51/24
f 19/43/25 20/11/25 73/11/25 74/43/25
f 3/48/26 6/10/26 50/57/26 49/58/26 43/52/26 45/59/26
f 15/2/27 16/3/27 25/60/27 24/61/27 18/35/27
f 3/23/28 1/34/28 19/43/28 38/46/28 40/62/28
f 21/18/29 22/51/29 76/51/29 75/18/29
f 16/3/30 10/16/30 30/63/30 29/38/30 23/40/30 25/60/30
f 14/13/31 10/20/31 35/30/31 34/12/31 20/11/31
f 6/10/32 5/5/32 21/18/32 48/17/32 50/57/32
f 17/36/33 18/35/33 71/35/33 72/36/33
f 23/37/30 26/64/30 25/60/30
f 26/64/30 27/65/30 25/60/30
f 27/65/27 24/66/27 25/60/27
f 28/41/16 31/67/16 30/63/16
f 31/67/34 32/68/34 30/63/34
f 32/68/34 29/69/34 30/63/34
f 33/29/35 36/70/35 35/30/35
f 36/70/36 37/71/36 35/30/36
f 37/71/37 34/72/37 35/30/37
f 38/46/38 41/73/38 40/27/38
f 41/73/39 42/74/39 40/27/39
f 42/74/40 39/75/40 40/27/40
f 43/52/41 46/76/41 45/49/41
f 46/76/42 47/77/42 45/49/42
f 47/77/43 44/78/43 45/49/43
f 48/17/44 51/79/44 50/57/44
f 51/79/45 52/80/45 50/57/45
f 52/80/46 49/81/46 50/57/46
f 38/46/47 80/47/47 53/82/47 41/73/47
f 41/73/48 53/82/48 54/83/48 42/84/48
f 42/84/49 54/83/49 55/45/49 39/44/49
f 79/12/50 34/12/50 37/85/50 56/86/50
f 56/86/51 37/85/51 36/70/51 57/87/51
f 57/87/52 36/70/52 33/29/52 58/29/52
f 43/52/53 59/52/53 60/88/53 46/76/53
f 46/76/54 60/88/54 61/89/54 47/90/54
f 47/90/55 61/89/55 81/56/55 44/55/55
f 63/39/56 29/38/56 32/91/56 62/92/56
f 62/92/57 32/91/57 31/67/57 64/93/57
f 64/93/58 31/67/58 28/41/58 78/41/58
f 48/17/59 82/19/59 65/94/59 51/79/59
f 51/79/60 65/94/60 66/95/60 52/96/60
f 52/96/61 66/95/61 67/54/61 49/53/61
f 23/37/62 68/40/62 69/97/62 26/64/62
f 26/64/63 69/97/63 70/98/63 27/99/63
f 27/99/64 70/98/64 77/61/64 24/100/64
f 18/35/65 24/100/65 77/61/65 71/35/65
