# Blender 4.2.4 LTS
# www.blender.org
mtllib THISTHING.mtl
o THISTHING
v -0.500943 -0.474672 -0.525102
v -0.273649 -0.474672 -0.431510
v -0.500550 1.535168 -0.524707
v -0.273649 1.535168 -0.431510
v 0.242495 -0.474672 -1.268540
v 0.242495 1.535168 -1.268540
v -0.308295 1.534760 0.397676
v 0.529390 -0.487265 -1.269189
v 0.529390 1.522575 -1.269189
v -0.467119 1.535168 0.556499
v -0.306895 -0.474672 0.396276
v 0.529391 -0.474672 1.278338
v 0.529391 1.535168 1.278338
v -0.466944 -0.474672 0.556324
v 0.246417 -0.474672 1.278338
v 0.246417 1.535168 1.278338
v 0.242495 -0.288500 -1.268540
v 0.529390 -0.301093 -1.269189
v -0.273649 -0.288500 -0.431510
v -0.500746 -0.288500 -0.524904
v 0.529391 -0.288500 1.278338
v 0.246417 -0.288500 1.278338
v -0.307595 -0.288704 0.396976
v -0.467031 -0.288500 0.556412
v -0.501359 -0.474672 0.590739
v 0.177587 -0.474672 1.278338
v -0.569774 -0.474672 -0.525102
v 0.173664 -0.474672 -1.268540
v 0.173664 -0.288500 -1.268540
v -0.569577 -0.288500 -0.524904
v 0.177587 -0.288500 1.278338
v -0.501446 -0.288500 0.590827
v -0.207409 -0.289352 -0.455685
v -0.207409 -0.475525 -0.455685
v -0.261688 -0.475524 0.351068
v 0.595631 -0.475525 1.277114
v -0.262388 -0.289557 0.351768
v 0.595630 -0.488117 -1.272326
v 0.595630 -0.301945 -1.272326
v 0.595631 -0.289352 1.277114
vn 0.7219 -0.0000 0.6920
vn -0.0023 -0.0000 -1.0000
vn -0.0220 -0.9997 -0.0136
vn 0.0221 0.9997 0.0136
vn -0.7112 -0.0000 0.7030
vn -0.0000 -0.0000 1.0000
vn -0.0000 -1.0000 -0.0000
vn 0.0006 1.0000 -0.0009
vn -0.9995 -0.0000 0.0310
vn 0.0011 1.0000 0.0002
vn -0.9981 0.0002 0.0611
vn -0.0473 -0.0000 -0.9989
vn -0.7074 0.0001 -0.7068
vn 0.7248 0.0003 -0.6889
vn 0.0185 -0.0000 0.9998
vn 0.9977 0.0017 0.0675
vn -0.0000 1.0000 -0.0000
vn 0.0109 0.9999 -0.0105
vn 0.9991 0.0002 0.0413
vn -0.7072 0.0007 -0.7070
vn -0.7115 -0.0003 0.7027
vn -0.0000 -0.0000 -1.0000
vn 0.0160 0.9999 0.0011
vn 0.7335 0.0027 -0.6796
vn 0.7130 -0.0000 0.7011
vn -0.0122 -0.9999 0.0034
vn -0.0110 -0.9999 0.0103
vn 0.0122 0.9999 -0.0034
vn -0.0158 -0.9999 -0.0008
vt 0.265226 0.287445
vt 0.001832 0.287465
vt 0.000000 0.119865
vt 0.263394 0.119844
vt 0.263411 0.328881
vt 0.000016 0.328902
vt 0.659963 0.330245
vt 0.660037 0.371722
vt 0.539063 0.255710
vt 0.552577 0.222881
vt 0.265226 0.520517
vt 0.265295 0.479040
vt 0.372728 0.371722
vt 0.386189 0.404493
vt 0.263420 0.783580
vt 0.000025 0.783583
vt 0.000023 0.636989
vt 0.263418 0.636985
vt 0.263420 0.824450
vt 0.000026 0.824453
vt 0.292119 0.371719
vt 0.292115 0.330849
vt 0.396386 0.227807
vt 0.419504 0.250921
vt 0.633144 0.479607
vt 0.633144 0.520478
vt 0.505949 0.399490
vt 0.528888 0.376551
vt 0.000028 0.480754
vt 0.263423 0.480733
vt 0.566083 0.156056
vt 0.420223 0.152011
vt 0.414342 0.126400
vt 0.571522 0.128157
vt 0.574352 0.121361
vt 0.715709 0.181222
vt 0.706084 0.185188
vt 0.277098 0.116748
vt 0.265226 0.090436
vt 0.274653 0.086328
vt 0.286525 0.112639
vt 0.263452 1.000000
vt 0.000087 1.000000
vt 0.729489 0.097228
vt 0.719338 0.116747
vt 0.712346 0.113225
vt 0.722497 0.093705
vt 0.441391 0.008609
vt 0.570571 0.012822
vt 0.564449 0.038338
vt 0.447590 0.037823
vt 0.562092 0.161647
vt 0.418431 0.160667
vt 0.577048 0.006294
vt 0.720607 0.085952
vt 0.265230 0.371722
vt 0.265226 0.330852
vt 0.265226 0.185375
vt 0.404977 0.122826
vt 0.274591 0.188949
vt 0.686824 0.329019
vt 0.686898 0.370495
vt 0.000050 0.000000
vt 0.263414 0.000084
vt 0.415042 0.116748
vt 0.567046 0.122980
vt 0.285667 0.213696
vt 0.693522 0.213455
vt 0.697000 0.222881
vt 0.276518 0.217790
vt 0.265442 0.193044
vt 0.282245 0.222881
vt 0.716534 0.189832
vt 0.703973 0.218099
vt 0.448009 -0.000000
vt 0.458524 0.037921
vt 0.296313 0.115791
vt 0.704243 0.116402
vt 0.560947 0.045972
vt 0.278265 0.077476
vt 0.571380 0.044450
vt 0.451678 0.047159
s 0
usemtl Material
f 18/1/1 9/2/1 4/3/1 19/4/1
f 17/5/2 6/6/2 9/2/2 18/1/2
f 5/7/3 8/8/3 2/9/3 1/10/3
f 9/11/4 6/12/4 3/13/4 4/14/4
f 22/15/5 16/16/5 10/17/5 24/18/5
f 21/19/6 13/20/6 16/16/6 22/15/6
f 12/21/7 15/22/7 14/23/7 11/24/7
f 16/25/8 13/26/8 7/27/8 10/28/8
f 24/18/9 10/17/9 3/29/9 20/30/9
f 2/9/7 11/24/7 14/23/7 1/10/7
f 10/28/10 7/27/10 4/14/10 3/13/10
f 32/31/11 30/32/11 27/33/11 25/34/11
f 14/35/7 15/36/7 26/37/7 25/34/7
f 8/38/12 18/39/12 39/40/12 38/41/12
f 17/5/13 20/30/13 3/29/13 6/6/13
f 21/19/14 23/42/14 7/43/14 13/20/14
f 21/44/15 12/45/15 36/46/15 40/47/15
f 33/48/16 37/49/16 35/50/16 34/51/16
f 24/52/17 20/53/17 30/32/17 32/31/17
f 23/54/18 21/55/18 40/47/18 37/49/18
f 12/21/6 21/56/6 22/57/6 15/22/6
f 5/58/7 1/59/7 27/33/7 28/60/7
f 5/7/2 17/61/2 18/62/2 8/8/2
f 4/3/19 7/63/19 23/64/19 19/4/19
f 1/65/7 14/66/7 25/34/7 27/33/7
f 28/60/20 27/33/20 30/32/20 29/67/20
f 26/37/21 31/68/21 32/31/21 25/34/21
f 22/69/17 24/52/17 32/31/17 31/68/17
f 17/70/22 5/71/22 28/60/22 29/67/22
f 20/53/17 17/72/17 29/67/17 30/32/17
f 15/73/6 22/74/6 31/68/6 26/37/6
f 19/75/23 23/54/23 37/49/23 33/48/23
f 36/46/24 35/50/24 37/49/24 40/47/24
f 38/41/25 39/40/25 33/48/25 34/51/25
f 2/76/26 8/77/26 38/41/26 34/51/26
f 12/78/27 11/79/27 35/50/27 36/46/27
f 18/80/28 19/75/28 33/48/28 39/40/28
f 11/81/29 2/82/29 34/51/29 35/50/29
