# Blender 4.2.4 LTS
# www.blender.org
mtllib THISTHINGWINDOW2.mtl
o THISTHINGWINDOW2
v -0.306036 -1.432670 -0.538757
v -0.078742 -1.432670 -0.445166
v -0.305642 0.577170 -0.538363
v -0.078742 0.577170 -0.445166
v 0.437402 -1.432670 -1.282196
v 0.437402 0.577170 -1.282196
v -0.109997 0.576762 0.387411
v 0.724298 -1.445263 -1.282845
v 0.724298 0.564577 -1.282845
v -0.268821 0.577170 0.546234
v -0.108597 -1.432670 0.386011
v 0.724298 -1.432670 1.264683
v 0.724298 0.577170 1.264683
v -0.268645 -1.432670 0.546060
v 0.441325 -1.432670 1.264683
v 0.441325 0.577170 1.264683
v -0.152112 -1.266870 0.664000
v 0.324777 -1.266870 1.146758
v -0.300358 -1.266870 -0.373020
v -0.274305 -1.266870 0.380369
v 0.320211 -1.266870 -1.164909
v -0.188812 -1.266870 -0.656010
v 0.321578 -1.237759 1.109415
v -0.114394 -1.237759 0.668062
v -0.240719 -1.237767 0.348761
v -0.264779 -1.237767 -0.346447
v 0.325512 -1.237774 -1.118475
v -0.142358 -1.237774 -0.650745
v 0.186128 0.411370 1.006475
v 0.324790 0.214133 1.146745
v 0.422817 0.550837 1.245952
v 0.255460 0.384945 1.076610
v 0.306213 0.312751 1.127952
v -0.152253 0.214133 0.664141
v -0.013609 0.411370 0.804427
v -0.250310 0.550837 0.564963
v -0.133685 0.312751 0.682942
v -0.082938 0.384945 0.734291
v -0.281167 0.411370 0.183393
v -0.274475 0.214133 0.380499
v -0.269722 0.550831 0.519909
v -0.277829 0.384945 0.281952
v -0.275380 0.312751 0.354099
v -0.300027 0.214133 -0.372730
v -0.293313 0.411370 -0.175568
v -0.304744 0.550851 -0.512064
v -0.299111 0.312751 -0.346302
v -0.296654 0.384945 -0.274136
v -0.049074 0.411370 -0.795208
v -0.188493 0.214133 -0.655691
v -0.287029 0.550837 -0.556990
v -0.118768 0.384945 -0.725433
v -0.169799 0.312751 -0.674368
v 0.320182 0.214133 -1.164938
v 0.180802 0.411370 -1.025383
v 0.418785 0.550837 -1.263573
v 0.301507 0.312751 -1.146244
v 0.250491 0.384945 -1.095163
v 0.005597 0.390365 0.789752
v -0.115746 0.235147 0.666973
v -0.058032 0.366113 0.725384
v -0.103183 0.301880 0.679697
v 0.322801 0.235147 1.110633
v 0.201445 0.390365 0.987866
v 0.310232 0.301880 1.097914
v 0.265075 0.366113 1.052234
v -0.258639 0.390356 -0.175327
v -0.264517 0.235138 -0.347883
v -0.261706 0.366104 -0.265791
v -0.263893 0.301869 -0.330000
v -0.240820 0.235138 0.350615
v -0.246681 0.390356 0.178106
v -0.241437 0.301873 0.332750
v -0.243617 0.366105 0.268560
v 0.204720 0.390350 -0.997581
v 0.326710 0.235132 -1.119717
v 0.268678 0.366098 -1.061623
v 0.314070 0.301865 -1.107069
v -0.143267 0.235132 -0.649214
v -0.021246 0.390350 -0.771320
v -0.130613 0.301865 -0.661848
v -0.085210 0.366098 -0.707283
v -0.264451 0.185023 -0.346170
v -0.264530 0.312747 -0.348825
v -0.262073 0.384941 -0.276657
v -0.258732 0.411366 -0.178091
v -0.240799 0.312747 0.351576
v -0.240892 0.185023 0.348886
v -0.243248 0.384941 0.279430
v -0.246586 0.411366 0.180870
v -0.023199 0.411359 -0.769360
v -0.092893 0.384935 -0.699587
v -0.143924 0.312741 -0.648520
v -0.142044 0.185016 -0.650433
v -0.065678 0.384949 0.717649
v 0.003651 0.411374 0.787786
v -0.116425 0.312756 0.666302
v -0.114534 0.185031 0.668201
v 0.325478 0.185016 -1.118509
v 0.327382 0.312741 -1.120396
v 0.276366 0.384935 -1.069315
v 0.206677 0.411359 -0.999537
v 0.203388 0.411374 0.989835
v 0.272720 0.384949 1.059969
v 0.323473 0.312756 1.111311
v 0.321593 0.185031 1.109400
v 0.342037 -1.266865 1.130116
v -0.134851 -1.266865 0.647358
v -0.239724 -1.266873 0.377846
v -0.265777 -1.266873 -0.375542
v 0.346086 -1.266880 -1.139063
v -0.162937 -1.266880 -0.630163
v 0.342050 0.214137 1.130104
v -0.134993 0.214137 0.647500
v -0.239894 0.214129 0.377977
v -0.265446 0.214129 -0.375254
v -0.162618 0.214122 -0.629845
v 0.346057 0.214122 -1.139091
v -0.119751 0.301863 -0.650999
v 0.324932 0.301863 -1.096220
v -0.074347 0.366096 -0.696434
v 0.279541 0.366096 -1.050774
v -0.226094 0.301872 0.332230
v -0.248549 0.301869 -0.330521
v -0.228274 0.366104 0.268042
v -0.246362 0.366103 -0.266310
v 0.321150 0.301881 1.087121
v -0.092264 0.301881 0.668904
v 0.275993 0.366114 1.041441
v -0.047113 0.366114 0.714590
v -0.249173 0.235138 -0.348404
v -0.243296 0.390356 -0.175846
v -0.225477 0.235137 0.350096
v -0.231337 0.390356 0.177588
v -0.010384 0.390348 -0.760471
v -0.132405 0.235130 -0.638365
v 0.016515 0.390366 0.778959
v -0.104827 0.235147 0.656180
v 0.337572 0.235130 -1.108868
v 0.215583 0.390348 -0.986732
v 0.212363 0.390366 0.977074
v 0.333719 0.235147 1.099840
v 0.332498 -1.237758 1.098623
v -0.103474 -1.237758 0.657271
v -0.225375 -1.237768 0.348234
v -0.249436 -1.237768 -0.346973
v 0.336370 -1.237776 -1.107620
v -0.131500 -1.237776 -0.639893
v 0.332513 0.185032 1.098608
v -0.103613 0.185032 0.657411
v -0.225548 0.185022 0.348360
v -0.249108 0.185022 -0.346695
v -0.131186 0.185014 -0.639580
v 0.336336 0.185014 -1.107655
vn 0.7219 -0.0000 0.6920
vn -0.0220 -0.9997 -0.0136
vn 0.0221 0.9997 0.0136
vn -0.0023 -0.0000 -1.0000
vn -0.0728 0.0001 -0.9974
vn -0.0000 -1.0000 -0.0000
vn 0.0006 1.0000 -0.0009
vn -0.0000 -0.0000 1.0000
vn -0.7067 -0.0000 0.7075
vn 0.0011 1.0000 0.0002
vn 0.9993 0.0003 0.0367
vn -0.9994 -0.0000 0.0339
vn 0.7252 0.0005 -0.6885
vn -0.7114 -0.0001 0.7028
vn 0.0001 -1.0000 -0.0001
vn -0.7113 -0.0001 0.7029
vn 0.6941 -0.0000 0.7199
vn -0.9994 -0.0000 0.0345
vn -0.0001 -1.0000 -0.0000
vn 0.0728 -0.0002 0.9974
vn -0.7073 0.0003 -0.7069
vn -0.7071 0.0001 -0.7071
vn -0.0002 -1.0000 -0.0002
vn 0.7067 -0.0000 -0.7075
vn 0.0001 1.0000 0.0001
vn -0.0000 1.0000 -0.0000
vn 0.1820 -0.9659 0.1840
vn 0.0001 1.0000 -0.0000
vn -0.7075 0.0001 -0.7067
vn -0.7113 -0.0000 0.7029
vn -0.9994 0.0002 0.0342
vn 0.0002 1.0000 0.0002
vn -0.7112 -0.0001 0.7030
vn -0.9994 -0.0001 0.0342
vn -0.7073 -0.0000 -0.7069
vn -0.0001 1.0000 0.0001
vn -0.7112 -0.0000 0.7030
vn -0.9994 0.0002 0.0339
vn -0.9994 0.0001 0.0340
vn -0.9994 -0.0000 0.0341
vn -0.9994 0.0001 0.0341
vn -0.9994 -0.0000 0.0340
vn -0.9994 -0.0001 0.0339
vn -0.7075 -0.0000 -0.7067
vn -0.7074 0.0001 -0.7068
vn -0.7073 0.0002 -0.7069
vn -0.7073 0.0001 -0.7069
vn -0.7074 0.0002 -0.7068
vn -0.7075 0.0003 -0.7067
vn 0.0703 -0.2588 0.9634
vn 0.0514 -0.7069 0.7054
vn 0.0187 -0.9659 0.2583
vn -0.0703 -0.2586 -0.9634
vn -0.0515 -0.7068 -0.7055
vn -0.0189 -0.9659 -0.2583
vn 0.1827 -0.9659 -0.1833
vn 0.4996 -0.7071 -0.5004
vn 0.6826 -0.2588 -0.6834
vn 0.1798 -0.9659 0.1862
vn 0.4909 -0.7071 0.5090
vn 0.6705 -0.2588 0.6953
vn -0.6827 -0.2588 0.6833
vn -0.4999 -0.7071 0.5001
vn -0.1831 -0.9659 0.1829
vn -0.1795 -0.9659 -0.1865
vn -0.4907 -0.7071 -0.5092
vn -0.6704 -0.2588 -0.6954
vn -0.6941 -0.0000 -0.7199
vn 0.6826 -0.2588 -0.6835
vn -0.0001 -1.0000 -0.0001
vn 0.1828 -0.9659 -0.1832
vn -0.9994 0.0002 0.0338
vn -0.9994 0.0001 0.0339
vn -0.9994 -0.0001 0.0338
vn -0.7075 0.0002 -0.7067
vn -0.7076 -0.0001 -0.7066
vn -0.9994 -0.0000 0.0338
vn -0.7076 0.0002 -0.7066
vn -0.9994 0.0001 0.0346
vn -0.7070 0.0001 -0.7072
vn -0.7073 0.0003 -0.7070
vn -0.7073 -0.0000 -0.7070
vn -0.7076 0.0001 -0.7067
vn -0.7073 0.0001 -0.7070
vn -0.9994 -0.0000 0.0342
vn 0.4971 -0.7071 0.5028
vn -0.7029 -0.0000 -0.7113
vn 0.6791 -0.2588 0.6870
vn 0.7029 -0.0000 0.7113
vn -0.6826 -0.2588 0.6834
vn -0.0343 0.0001 -0.9994
vn -0.4998 -0.7071 0.5002
vn 0.0327 -0.2590 0.9653
vn 0.0342 -0.0002 0.9994
vn -0.1830 -0.9659 0.1830
vn 0.0239 -0.7072 0.7066
vn 0.7069 -0.0000 -0.7073
vn -0.1819 -0.9659 -0.1841
vn 0.0087 -0.9659 0.2587
vn -0.7070 -0.0000 0.7072
vn -0.4971 -0.7071 -0.5029
vn -0.0327 -0.2587 -0.9654
vn -0.6790 -0.2588 -0.6870
vn -0.0240 -0.7071 -0.7067
vn -0.0088 -0.9659 -0.2587
vt 0.299582 0.711243
vt 0.375000 0.500000
vt 0.625000 0.500000
vt 0.625000 0.727519
vt 0.125000 0.500000
vt 0.125000 0.748920
vt 0.875000 0.500000
vt 0.875000 0.748920
vt 0.375000 0.250000
vt 0.625000 0.250000
vt 0.395624 0.734967
vt 0.579842 0.574419
vt 0.375000 0.750000
vt 0.125000 0.750000
vt 0.802118 0.711791
vt 0.625000 0.750000
vt 0.543751 0.273966
vt 0.199876 0.507120
vt 0.543751 0.273966
vt 0.625000 0.500083
vt 0.875000 0.522244
vt 0.801342 0.711086
vt 0.625000 0.749143
vt 0.625000 0.023018
vt 0.625000 0.227756
vt 0.198658 0.538140
vt 0.621726 0.744010
vt 0.604376 0.673947
vt 0.604376 0.595898
vt 0.621724 0.508496
vt 0.625000 0.022481
vt 0.125000 0.726982
vt 0.375000 0.500083
vt 0.375000 0.749143
vt 0.395624 0.541032
vt 0.395624 0.708968
vt 0.604376 0.589844
vt 0.604376 0.660156
vt 0.604376 0.660156
vt 0.604376 0.589844
vt 0.579842 0.708968
vt 0.621724 0.743483
vt 0.395624 0.743561
vt 0.604376 0.673947
vt 0.604376 0.673947
vt 0.579842 0.719952
vt 0.579842 0.719952
vt 0.625000 0.001080
vt 0.620804 0.015282
vt 0.570776 0.157394
vt 0.361994 0.659688
vt 0.596106 0.132265
vt 0.592023 0.201149
vt 0.592023 0.201149
vt 0.570776 0.157394
vt 0.570776 0.157394
vt 0.212556 0.507444
vt 0.360176 0.644910
vt 0.582456 0.703047
vt 0.582456 0.546953
vt 0.603505 0.659471
vt 0.600366 0.682736
vt 0.619369 0.248875
vt 0.592023 0.201149
vt 0.620804 0.015282
vt 0.621724 0.506517
vt 0.579843 0.541032
vt 0.621726 0.744010
vt 0.621725 0.743483
vt 0.604376 0.565438
vt 0.604376 0.547572
vt 0.604376 0.541032
vt 0.592109 0.708968
vt 0.601089 0.708968
vt 0.604376 0.708968
vt 0.604376 0.574468
vt 0.604376 0.558781
vt 0.604376 0.553041
vt 0.592110 0.718379
vt 0.601092 0.717228
vt 0.604381 0.716807
vt 0.597344 0.111382
vt 0.598249 0.096095
vt 0.598581 0.090499
vt 0.566650 0.258440
vt 0.583412 0.247075
vt 0.589548 0.242915
vt 0.592110 0.716790
vt 0.603281 0.695824
vt 0.604376 0.695378
vt 0.592109 0.563728
vt 0.592109 0.565318
vt 0.603281 0.575118
vt 0.595797 0.113763
vt 0.584243 0.125163
vt 0.584679 0.123947
vt 0.604376 0.684562
vt 0.603281 0.684562
vt 0.592109 0.706788
vt 0.567086 0.257224
vt 0.589045 0.224026
vt 0.590786 0.222032
vt 0.603281 0.565438
vt 0.592109 0.543212
vt 0.592109 0.541032
vt 0.579842 0.541032
vt 0.399244 0.742132
vt 0.399244 0.732777
vt 0.582456 0.714955
vt 0.582456 0.576803
vt 0.572891 0.154242
vt 0.582122 0.132793
vt 0.399244 0.701765
vt 0.399244 0.548235
vt 0.549476 0.266685
vt 0.592148 0.122753
vt 0.594812 0.134685
vt 0.590703 0.202207
vt 0.603505 0.596987
vt 0.603505 0.673729
vt 0.590427 0.713530
vt 0.602500 0.693811
vt 0.590427 0.570260
vt 0.602500 0.577911
vt 0.604376 0.595898
vt 0.596106 0.132265
vt 0.590757 0.701431
vt 0.564598 0.256398
vt 0.587975 0.223211
vt 0.603505 0.590529
vt 0.600366 0.567264
vt 0.604376 0.589844
vt 0.590757 0.548568
vt 0.576222 0.548235
vt 0.576222 0.701765
vt 0.576222 0.582561
vt 0.576222 0.715429
vt 0.564946 0.170716
vt 0.538720 0.275098
s 0
f 2/1/1 8/2/1 9/3/1 4/4/1
f 5/5/2 8/2/2 2/1/2 1/6/2
f 9/3/3 6/7/3 3/8/3 4/4/3
f 5/9/4 6/10/4 9/3/4 8/2/4
f 20/11/5 40/12/5 115/12/5 109/11/5
f 12/5/6 15/2/6 14/13/6 11/14/6
f 16/3/7 13/7/7 7/15/7 10/16/7
f 12/9/8 13/10/8 16/3/8 15/2/8
f 54/17/9 21/18/9 111/18/9 118/19/9
f 10/20/10 7/21/10 4/22/10 3/23/10
f 2/1/11 4/24/11 7/25/11 11/26/11
f 10/20/12 3/23/12 46/27/12 45/28/12 39/29/12 41/30/12
f 12/5/13 11/26/13 7/31/13 13/10/13
f 2/32/6 11/26/6 14/33/6 1/34/6
f 14/13/14 15/2/14 18/35/14 17/36/14
f 29/37/15 35/38/15 96/39/15 103/40/15
f 10/16/16 14/13/16 17/36/16 34/41/16 36/42/16
f 34/41/17 17/36/17 108/36/17 114/41/17
f 1/34/18 14/13/18 20/11/18 19/43/18
f 39/29/19 45/44/19 86/45/19 90/29/19
f 44/46/20 19/43/20 110/43/20 116/47/20
f 1/34/21 3/48/21 51/49/21 50/50/21 22/51/21
f 5/5/22 1/34/22 22/51/22 21/18/22
f 49/52/23 55/53/23 102/54/23 91/52/23
f 22/51/24 50/55/24 117/56/24 112/51/24
f 27/57/25 28/58/25 148/58/25 147/57/25
f 60/59/26 63/60/26 142/60/26 138/59/26
f 59/61/27 61/62/27 130/62/27 137/61/27
f 19/43/28 20/11/28 109/11/28 110/43/28
f 3/48/29 6/10/29 56/63/29 55/64/29 49/52/29 51/65/29
f 15/2/30 16/3/30 31/66/30 30/67/30 18/35/30
f 3/23/31 1/34/31 19/43/31 44/46/31 46/68/31
f 21/18/32 22/51/32 112/51/32 111/18/32
f 16/3/33 10/16/33 36/69/33 35/38/33 29/40/33 31/66/33
f 14/13/34 10/20/34 41/30/34 40/12/34 20/11/34
f 6/10/35 5/5/35 21/18/35 54/17/35 56/63/35
f 17/36/36 18/35/36 107/35/36 108/36/36
f 29/37/33 32/70/33 31/66/33
f 32/70/33 33/71/33 31/66/33
f 33/71/30 30/72/30 31/66/30
f 34/41/16 37/73/16 36/69/16
f 37/73/37 38/74/37 36/69/37
f 38/74/37 35/75/37 36/69/37
f 39/29/38 42/76/38 41/30/38
f 42/76/39 43/77/39 41/30/39
f 43/77/40 40/78/40 41/30/40
f 44/46/41 47/79/41 46/27/41
f 47/79/42 48/80/42 46/27/42
f 48/80/43 45/81/43 46/27/43
f 49/52/44 52/82/44 51/49/44
f 52/82/45 53/83/45 51/49/45
f 53/83/46 50/84/46 51/49/46
f 54/17/47 57/85/47 56/63/47
f 57/85/48 58/86/48 56/63/48
f 58/86/49 55/87/49 56/63/49
f 44/46/50 116/47/50 84/88/50 47/79/50
f 47/79/51 84/88/51 85/89/51 48/90/51
f 48/90/52 85/89/52 86/45/52 45/44/52
f 115/12/53 40/12/53 43/91/53 87/92/53
f 87/92/54 43/91/54 42/76/54 89/93/54
f 89/93/55 42/76/55 39/29/55 90/29/55
f 49/52/56 91/52/56 92/94/56 52/82/56
f 52/82/57 92/94/57 93/95/57 53/96/57
f 53/96/58 93/95/58 117/56/58 50/55/58
f 96/39/59 35/38/59 38/97/59 95/98/59
f 95/98/60 38/97/60 37/73/60 97/99/60
f 97/99/61 37/73/61 34/41/61 114/41/61
f 54/17/62 118/19/62 100/100/62 57/85/62
f 57/85/63 100/100/63 101/101/63 58/102/63
f 58/102/64 101/101/64 102/54/64 55/53/64
f 29/37/65 103/40/65 104/103/65 32/70/65
f 32/70/66 104/103/66 105/104/66 33/105/66
f 33/105/67 105/104/67 113/67/67 30/106/67
f 18/35/68 30/106/68 113/67/68 107/35/68
f 26/107/28 25/108/28 145/108/28 146/107/28
f 68/109/26 71/110/26 133/110/26 131/109/26
f 79/111/69 81/112/69 119/112/69 136/111/69
f 24/113/26 23/114/26 143/114/26 144/113/26
f 76/115/25 79/111/25 136/111/25 139/115/25
f 81/112/57 82/116/57 121/116/57 119/112/57
f 80/117/70 75/118/70 140/118/70 135/117/70
f 82/116/71 80/117/71 135/117/71 121/116/71
f 72/119/6 67/120/6 132/120/6 134/119/6
f 68/109/72 70/121/72 84/88/72 116/46/72
f 70/121/73 69/122/73 85/89/73 84/88/73
f 69/122/73 67/120/73 86/28/73 85/89/73
f 73/123/74 71/110/74 115/12/74 87/92/74
f 74/124/12 73/123/12 87/92/12 89/93/12
f 72/119/12 74/124/12 89/93/12 90/125/12
f 80/117/75 82/116/75 92/94/75 91/126/75
f 82/116/75 81/112/75 93/95/75 92/94/75
f 81/112/49 79/111/49 117/56/49 93/95/49
f 61/62/33 59/61/33 96/38/33 95/98/33
f 62/127/33 61/62/33 95/98/33 97/99/33
f 60/59/33 62/127/33 97/99/33 114/41/33
f 76/115/76 78/128/76 100/100/76 118/17/76
f 78/128/29 77/129/29 101/101/29 100/100/29
f 77/129/29 75/118/29 102/53/29 101/101/29
f 64/130/33 66/131/33 104/103/33 103/132/33
f 66/131/37 65/133/37 105/104/37 104/103/37
f 65/133/37 63/60/37 113/106/37 105/104/37
f 59/61/33 64/130/33 103/132/33 96/38/33
f 67/120/77 72/119/77 90/125/77 86/28/77
f 75/118/78 80/117/78 91/126/78 102/53/78
f 79/111/75 76/115/75 118/17/75 117/56/75
f 71/110/73 68/109/73 116/46/73 115/12/73
f 63/60/33 60/59/33 114/41/33 113/106/33
f 23/114/14 24/113/14 108/36/14 107/35/14
f 25/108/79 26/107/79 110/43/79 109/11/79
f 28/58/80 27/57/80 111/18/80 112/51/80
f 106/134/30 23/114/30 107/35/30 113/106/30
f 24/113/16 98/135/16 114/41/16 108/36/16
f 88/136/34 25/108/34 109/11/34 115/12/34
f 26/107/31 83/137/31 116/46/31 110/43/31
f 94/138/81 28/58/81 112/51/81 117/56/81
f 27/57/82 99/139/82 118/17/82 111/18/82
f 99/139/29 94/138/29 117/56/29 118/17/29
f 83/137/12 88/136/12 115/12/12 116/46/12
f 98/135/33 106/134/33 113/106/33 114/41/33
f 130/62/33 129/131/33 141/130/33 137/61/33
f 126/122/77 125/124/77 134/119/77 132/120/77
f 122/129/83 121/116/83 135/117/83 140/118/83
f 147/57/84 148/58/84 153/138/84 154/139/84
f 139/115/29 136/111/29 119/112/29 120/128/29
f 120/128/29 119/112/29 121/116/29 122/129/29
f 146/107/85 145/108/85 151/136/85 152/137/85
f 131/109/73 133/110/73 123/123/73 124/121/73
f 124/121/77 123/123/77 125/124/77 126/122/77
f 144/113/16 143/114/16 149/134/16 150/135/16
f 138/59/33 142/60/33 127/133/33 128/127/33
f 128/127/33 127/133/33 129/131/33 130/62/33
f 61/62/86 62/127/86 128/127/86 130/62/86
f 23/114/87 106/134/87 149/134/87 143/114/87
f 62/127/88 60/59/88 138/59/88 128/127/88
f 98/135/89 24/113/89 144/113/89 150/135/89
f 78/128/90 76/115/90 139/115/90 120/128/90
f 25/108/91 88/136/91 151/136/91 145/108/91
f 77/129/92 78/128/92 120/128/92 122/129/92
f 70/121/93 68/109/93 131/109/93 124/121/93
f 83/137/94 26/107/94 146/107/94 152/137/94
f 75/118/95 77/129/95 122/129/95 140/118/95
f 69/122/96 70/121/96 124/121/96 126/122/96
f 28/58/97 94/138/97 153/138/97 148/58/97
f 66/131/98 64/130/98 141/130/98 129/131/98
f 67/120/99 69/122/99 126/122/99 132/120/99
f 99/139/100 27/57/100 147/57/100 154/139/100
f 65/133/101 66/131/101 129/131/101 127/133/101
f 71/110/102 73/123/102 123/123/102 133/110/102
f 94/138/70 99/139/70 154/139/70 153/138/70
f 63/60/103 65/133/103 127/133/103 142/60/103
f 73/123/104 74/124/104 125/124/104 123/123/104
f 88/136/6 83/137/6 152/137/6 151/136/6
f 64/130/6 59/61/6 137/61/6 141/130/6
f 74/124/105 72/119/105 134/119/105 125/124/105
f 106/134/6 98/135/6 150/135/6 149/134/6
