# Blender 4.2.4 LTS
# www.blender.org
mtllib THISTHINGWINDOWFRAME1.mtl
o THISTHINGWINDOWFRAME1
v -0.358170 -1.129794 -0.533351
v -0.130875 -1.129794 -0.439761
v -0.357775 0.880047 -0.532958
v -0.130875 0.880047 -0.439761
v 0.385269 -1.129794 -1.276791
v 0.385269 0.880047 -1.276791
v -0.165521 0.879638 0.389426
v 0.672164 -1.142386 -1.277440
v 0.672164 0.867454 -1.277440
v -0.324345 0.880047 0.548249
v -0.164121 -1.129794 0.388024
v 0.672165 -1.129794 1.270088
v 0.672165 0.880047 1.270088
v -0.324170 -1.129794 0.548074
v 0.389192 -1.129794 1.270088
v 0.389192 0.880047 1.270088
v 0.385269 -0.943621 -1.276791
v 0.672164 -0.956214 -1.277440
v -0.130875 -0.943621 -0.439761
v -0.357973 -0.943621 -0.533154
v 0.672165 -0.943621 1.270088
v 0.389192 -0.943621 1.270088
v -0.164821 -0.943825 0.388726
v -0.324257 -0.943621 0.548162
v -0.358585 -1.129794 0.582489
v 0.320361 -1.129794 1.270088
v -0.427000 -1.129794 -0.533351
v 0.316439 -1.129794 -1.276791
v 0.316439 -0.943621 -1.276791
v -0.426803 -0.943621 -0.533154
v 0.320361 -0.943621 1.270088
v -0.358672 -0.943621 0.582577
v -0.064635 -0.944473 -0.463935
v -0.064635 -1.130646 -0.463935
v -0.118914 -1.130646 0.342818
v 0.738405 -1.130646 1.268864
v -0.119614 -0.944678 0.343518
v 0.738405 -1.143239 -1.280578
v 0.738405 -0.957066 -1.280578
v 0.738405 -0.944473 1.268864
v 0.272636 -0.777821 1.152170
v -0.207710 -0.777821 0.666087
v -0.329398 -0.777821 0.382447
v -0.352822 -0.777821 -0.367415
v 0.268086 -0.777821 -1.159497
v -0.240771 -0.777821 -0.650432
v 0.133981 0.714246 1.011894
v 0.272643 0.517009 1.152164
v 0.370681 0.853714 1.251359
v 0.203313 0.687822 1.082028
v 0.254066 0.615628 1.133370
v -0.207779 0.517009 0.666157
v -0.069126 0.714246 0.806435
v -0.305833 0.853714 0.566977
v -0.189207 0.615628 0.684954
v -0.138456 0.687822 0.736300
v -0.335580 0.714246 0.185378
v -0.329482 0.517009 0.382510
v -0.325163 0.853711 0.521924
v -0.332536 0.687822 0.283948
v -0.330304 0.615628 0.356103
v -0.352660 0.517009 -0.367276
v -0.346551 0.714246 -0.170112
v -0.356959 0.853722 -0.506648
v -0.351832 0.615628 -0.340854
v -0.349596 0.687822 -0.268687
v -0.101207 0.714246 -0.789801
v -0.240616 0.517009 -0.650275
v -0.339164 0.853714 -0.551587
v -0.170903 0.687822 -0.720031
v -0.221930 0.615628 -0.668959
v 0.268070 0.517009 -1.159512
v 0.128683 0.714246 -1.019965
v 0.366655 0.853714 -1.258164
v 0.249395 0.615628 -1.140817
v 0.198376 0.687822 -1.089740
v 0.224257 0.687816 -1.063899
v 0.154564 0.714241 -0.994124
v 0.275277 0.615622 -1.114976
v 0.151237 0.714249 0.995248
v 0.220568 0.687824 1.065383
v 0.271322 0.615630 1.116725
v -0.315007 0.687819 -0.270976
v -0.311962 0.714244 -0.172402
v -0.317243 0.615626 -0.343144
v -0.075325 0.714241 -0.763963
v -0.145021 0.687816 -0.694190
v -0.196048 0.615622 -0.643119
v -0.300991 0.714244 0.183087
v -0.297947 0.687819 0.281657
v -0.295715 0.615626 0.353814
v -0.171951 0.615630 0.668308
v -0.121201 0.687824 0.719654
v -0.051871 0.714249 0.789789
v 0.289892 -0.777818 1.135524
v -0.190454 -0.777818 0.649442
v -0.294809 -0.777823 0.380159
v -0.318233 -0.777823 -0.369706
v -0.214890 -0.777826 -0.624591
v 0.293968 -0.777826 -1.133656
v 0.289899 0.517012 1.135517
v -0.190523 0.517012 0.649511
v -0.294894 0.517007 0.380221
v -0.318071 0.517007 -0.369567
v -0.214734 0.517004 -0.624434
v 0.293952 0.517004 -1.133672
vn 0.7219 -0.0000 0.6920
vn -0.0023 -0.0000 -1.0000
vn -0.0220 -0.9997 -0.0136
vn 0.0221 0.9997 0.0136
vn 0.7065 -0.0000 -0.7077
vn -0.0000 -0.0000 1.0000
vn -0.0000 -1.0000 -0.0000
vn 0.0006 1.0000 -0.0009
vn 0.6943 -0.0000 0.7197
vn 0.0011 1.0000 0.0002
vn -0.9981 0.0002 0.0611
vn -0.0473 -0.0000 -0.9989
vn 0.7248 0.0003 -0.6889
vn 0.0185 -0.0000 0.9998
vn 0.9977 0.0017 0.0675
vn -0.0000 1.0000 -0.0000
vn 0.0109 0.9999 -0.0105
vn 0.9991 0.0002 0.0413
vn -0.7072 0.0007 -0.7070
vn -0.7115 -0.0003 0.7027
vn -0.0000 -0.0000 -1.0000
vn 0.0160 0.9999 0.0011
vn 0.7335 0.0027 -0.6796
vn 0.7130 -0.0000 0.7011
vn -0.0122 -0.9999 0.0034
vn -0.0110 -0.9999 0.0103
vn 0.0122 0.9999 -0.0034
vn -0.0158 -0.9999 -0.0008
vn 0.0001 -1.0000 -0.0001
vn -0.6943 -0.0000 -0.7197
vn -0.0660 -0.0000 -0.9978
vn -0.7113 -0.0000 0.7029
vn -0.0001 -1.0000 -0.0000
vn -0.9995 0.0001 0.0310
vn 0.0661 -0.0001 0.9978
vn -0.9995 -0.0000 0.0312
vn -0.7073 0.0001 -0.7069
vn -0.0001 -1.0000 -0.0001
vn -0.7074 -0.0000 -0.7068
vn -0.7065 -0.0000 0.7077
vn -0.7074 0.0002 -0.7068
vn -0.0001 1.0000 0.0001
vn -0.9995 -0.0001 0.0310
vn -0.7075 0.0001 -0.7067
vn -0.7112 -0.0000 0.7030
vn 0.0001 1.0000 -0.0000
vn 0.0001 1.0000 0.0001
vn -0.7112 -0.0001 0.7030
vn -0.9995 -0.0000 0.0309
vn -0.9995 0.0001 0.0309
vn -0.9995 -0.0000 0.0310
vn -0.7075 -0.0000 -0.7067
vn -0.7075 0.0001 -0.7068
vn -0.7074 0.0001 -0.7068
vn -0.7075 0.0002 -0.7067
vn -0.1830 -0.9659 0.1831
vn -0.4997 -0.7071 0.5003
vn -0.6825 -0.2588 0.6835
vn -0.1796 -0.9659 -0.1864
vn -0.4909 -0.7071 -0.5090
vn -0.6706 -0.2588 -0.6952
vn 0.0170 -0.9659 0.2584
vn 0.0467 -0.7069 0.7057
vn 0.0638 -0.2588 0.9638
vn 0.1828 -0.9659 -0.1833
vn 0.4995 -0.7071 -0.5005
vn 0.6824 -0.2588 -0.6836
vn -0.0172 -0.9659 -0.2584
vn -0.0468 -0.7069 -0.7058
vn -0.0638 -0.2586 -0.9639
vn 0.6706 -0.2588 0.6952
vn 0.4910 -0.7071 0.5089
vn 0.1798 -0.9659 0.1862
vt 0.500000 0.500000
vt 0.625000 0.500000
vt 0.625000 0.727519
vt 0.500000 0.727519
vt 0.500000 0.250000
vt 0.625000 0.250000
vt 0.125000 0.500000
vt 0.375000 0.500000
vt 0.299582 0.711243
vt 0.125000 0.748920
vt 0.875000 0.500000
vt 0.875000 0.748920
vt 0.511364 0.040334
vt 0.600116 0.040334
vt 0.375000 0.750000
vt 0.125000 0.750000
vt 0.802118 0.711791
vt 0.625000 0.750000
vt 0.600116 0.709162
vt 0.511365 0.709162
vt 0.125000 0.726982
vt 0.198658 0.538140
vt 0.375000 0.500083
vt 0.375000 0.749143
vt 0.625000 0.500083
vt 0.875000 0.522244
vt 0.801342 0.711086
vt 0.625000 0.749143
vt 0.500000 0.500083
vt 0.500000 0.749143
vt 0.500000 0.022481
vt 0.625000 0.022481
vt 0.375000 0.250000
vt 0.500000 0.023018
vt 0.500000 0.227756
vt 0.375000 0.227756
vt 0.375000 0.023018
vt 0.625000 0.023018
vt 0.625000 0.227756
vt 0.375000 0.001080
vt 0.500000 0.001080
vt 0.500000 0.750000
vt 0.375000 0.022481
vt 0.375000 0.727519
vt 0.613636 0.589420
vt 0.613636 0.660580
vt 0.511365 0.540838
vt 0.600116 0.540838
vt 0.600116 0.540838
vt 0.511365 0.538254
vt 0.600116 0.538257
vt 0.613635 0.583669
vt 0.613635 0.665557
vt 0.613635 0.665557
vt 0.511365 0.710972
vt 0.600116 0.710969
vt 0.623196 0.743082
vt 0.511365 0.210746
vt 0.613635 0.087031
vt 0.613635 0.164049
vt 0.613635 0.164049
vt 0.613635 0.087031
vt 0.600116 0.210746
vt 0.623195 0.243766
vt 0.625000 0.001080
vt 0.623195 0.007314
vt 0.623195 0.506147
vt 0.623195 0.243766
vt 0.613635 0.087031
vt 0.623195 0.007314
vt 0.623195 0.743514
vt 0.623195 0.506486
vt 0.623195 0.743514
vt 0.623196 0.743082
vt 0.623195 0.506147
vt 0.613636 0.565129
vt 0.623195 0.506486
vt 0.613636 0.547347
vt 0.613636 0.540838
vt 0.606876 0.709162
vt 0.611824 0.709162
vt 0.613636 0.709162
vt 0.613636 0.560964
vt 0.613635 0.544342
vt 0.613635 0.538259
vt 0.606876 0.710969
vt 0.611825 0.710969
vt 0.613637 0.710969
vt 0.613635 0.063682
vt 0.613635 0.046590
vt 0.613635 0.040334
vt 0.606876 0.210746
vt 0.611824 0.210746
vt 0.613635 0.210746
vt 0.613635 0.187397
vt 0.613032 0.187397
vt 0.606876 0.208660
vt 0.613032 0.565129
vt 0.606876 0.543008
vt 0.606876 0.540838
vt 0.613635 0.688264
vt 0.613032 0.688263
vt 0.606876 0.708941
vt 0.613032 0.063682
vt 0.606876 0.042419
vt 0.606876 0.040334
vt 0.613032 0.560964
vt 0.606876 0.540285
vt 0.606876 0.538257
vt 0.606876 0.706992
vt 0.613032 0.684871
vt 0.613636 0.684871
s 0
f 18/1/1 9/2/1 4/3/1 19/4/1
f 17/5/2 6/6/2 9/2/2 18/1/2
f 5/7/3 8/8/3 2/9/3 1/10/3
f 9/2/4 6/11/4 3/12/4 4/3/4
f 46/13/5 68/14/5 105/14/5 99/13/5
f 21/5/6 13/6/6 16/2/6 22/1/6
f 12/7/7 15/8/7 14/15/7 11/16/7
f 16/2/8 13/11/8 7/17/8 10/18/8
f 52/19/9 42/20/9 96/20/9 102/19/9
f 2/21/7 11/22/7 14/23/7 1/24/7
f 10/25/10 7/26/10 4/27/10 3/28/10
f 32/29/11 30/30/11 27/24/11 25/23/11
f 14/15/7 15/8/7 26/8/7 25/15/7
f 8/8/12 18/1/12 39/1/12 38/8/12
f 21/5/13 23/31/13 7/32/13 13/6/13
f 21/5/14 12/33/14 36/33/14 40/5/14
f 33/34/15 37/35/15 35/36/15 34/37/15
f 24/29/16 20/30/16 30/30/16 32/29/16
f 23/31/17 21/5/17 40/5/17 37/31/17
f 12/33/6 21/5/6 22/1/6 15/8/6
f 5/7/7 1/10/7 27/10/7 28/7/7
f 5/33/2 17/5/2 18/1/2 8/8/2
f 4/38/18 7/39/18 23/35/18 19/34/18
f 1/24/7 14/23/7 25/23/7 27/24/7
f 28/33/19 27/40/19 30/41/19 29/5/19
f 26/8/20 31/1/20 32/42/20 25/15/20
f 22/1/16 24/42/16 32/42/16 31/1/16
f 17/5/21 5/33/21 28/33/21 29/5/21
f 20/41/16 17/5/16 29/5/16 30/41/16
f 15/8/6 22/1/6 31/1/6 26/8/6
f 19/34/22 23/35/22 37/35/22 33/34/22
f 36/33/23 35/43/23 37/31/23 40/5/23
f 38/8/24 39/1/24 33/4/24 34/44/24
f 2/9/25 8/8/25 38/8/25 34/9/25
f 12/7/26 11/16/26 35/16/26 36/7/26
f 18/1/27 19/4/27 33/4/27 39/1/27
f 11/22/28 2/21/28 34/21/28 35/22/28
f 47/45/29 53/46/29 94/46/29 80/45/29
f 41/47/30 48/48/30 101/49/30 95/47/30
f 43/50/31 58/51/31 103/51/31 97/50/31
f 24/42/32 22/1/32 41/47/32 42/20/32
f 57/52/33 63/53/33 84/54/33 89/52/33
f 3/28/34 20/30/34 44/55/34 62/56/34 64/57/34
f 62/56/35 44/55/35 98/55/35 104/56/35
f 20/30/36 24/29/36 43/50/36 44/55/36
f 17/5/37 20/41/37 46/13/37 45/58/37
f 67/59/38 73/60/38 78/61/38 86/62/38
f 6/6/39 17/5/39 45/58/39 72/63/39 74/64/39
f 72/63/40 45/58/40 100/58/40 106/63/40
f 20/41/41 3/65/41 69/66/41 68/14/41 46/13/41
f 42/20/42 41/47/42 95/47/42 96/20/42
f 24/29/43 10/25/43 59/67/43 58/51/43 43/50/43
f 3/65/44 6/6/44 74/68/44 73/60/44 67/69/44 69/70/44
f 16/2/45 10/18/45 54/71/45 53/46/45 47/45/45 49/72/45
f 44/55/46 43/50/46 97/50/46 98/55/46
f 45/58/47 46/13/47 99/13/47 100/58/47
f 10/18/48 24/42/48 42/20/48 52/19/48 54/73/48
f 10/25/49 3/28/49 64/74/49 63/53/49 57/52/49 59/75/49
f 47/45/48 50/76/48 49/77/48
f 50/76/45 51/78/45 49/77/45
f 51/78/45 48/79/45 49/77/45
f 52/19/45 55/80/45 54/71/45
f 55/80/45 56/81/45 54/71/45
f 56/81/45 53/82/45 54/71/45
f 57/52/50 60/83/50 59/67/50
f 60/83/49 61/84/49 59/67/49
f 61/84/51 58/85/51 59/67/51
f 62/56/34 65/86/34 64/74/34
f 65/86/49 66/87/49 64/74/49
f 66/87/49 63/88/49 64/74/49
f 67/59/52 70/89/52 69/66/52
f 70/89/53 71/90/53 69/66/53
f 71/90/54 68/91/54 69/66/54
f 72/63/39 75/92/39 74/68/39
f 75/92/53 76/93/53 74/68/53
f 76/93/55 73/94/55 74/68/55
f 78/61/56 73/60/56 76/95/56 77/96/56
f 77/96/57 76/95/57 75/92/57 79/97/57
f 79/97/58 75/92/58 72/63/58 106/63/58
f 47/45/59 80/45/59 81/98/59 50/76/59
f 50/76/60 81/98/60 82/99/60 51/100/60
f 51/100/61 82/99/61 101/49/61 48/48/61
f 84/54/62 63/53/62 66/101/62 83/102/62
f 83/102/63 66/101/63 65/86/63 85/103/63
f 85/103/64 65/86/64 62/56/64 104/56/64
f 67/59/65 86/62/65 87/104/65 70/89/65
f 70/89/66 87/104/66 88/105/66 71/106/66
f 71/106/67 88/105/67 105/14/67 68/14/67
f 57/52/68 89/52/68 90/107/68 60/83/68
f 60/83/69 90/107/69 91/108/69 61/109/69
f 61/109/70 91/108/70 103/51/70 58/51/70
f 52/19/71 102/19/71 92/110/71 55/80/71
f 55/80/72 92/110/72 93/111/72 56/112/72
f 56/112/73 93/111/73 94/46/73 53/46/73
f 22/1/45 16/2/45 49/77/45 48/48/45 41/47/45
