# Blender 4.2.4 LTS
# www.blender.org
mtllib THISTHINGWINDOW1.mtl
o THISTHINGWINDOW1
v 0.337461 -1.116078 1.108618
v -0.101964 -1.116078 0.663939
v -0.227682 -1.116082 0.344863
v -0.249298 -1.116082 -0.346814
v -0.126284 -1.116086 -0.651384
v 0.341426 -1.116086 -1.119272
v 0.338680 0.170655 1.109841
v 0.217324 0.325874 0.987076
v 0.326110 0.237389 1.097123
v 0.280954 0.301622 1.051443
v 0.018105 0.325874 0.785551
v -0.103244 0.170655 0.662779
v -0.045524 0.301622 0.721183
v -0.090678 0.237389 0.675500
v -0.227708 0.170651 0.346650
v -0.233046 0.325869 0.174119
v -0.228267 0.237385 0.328780
v -0.230252 0.301617 0.264582
v -0.243847 0.325869 -0.175842
v -0.249194 0.170651 -0.348401
v -0.246642 0.301617 -0.266311
v -0.248632 0.237383 -0.330522
v 0.220639 0.325866 -0.998372
v 0.342634 0.170647 -1.120504
v 0.284601 0.301614 -1.062410
v 0.329995 0.237381 -1.107856
v -0.127352 0.170647 -0.650010
v -0.005341 0.325866 -0.772125
v -0.114706 0.237381 -0.662652
v -0.069306 0.301614 -0.708091
v 0.292288 0.320450 -1.070104
v 0.222595 0.346875 -1.000329
v 0.343307 0.248256 -1.121181
v 0.341408 0.120532 -1.119289
v 0.219267 0.346883 0.989043
v 0.288599 0.320458 1.059178
v 0.339352 0.248265 1.110520
v 0.337470 0.120540 1.108611
v -0.246977 0.320454 -0.277181
v -0.243931 0.346879 -0.178607
v -0.249213 0.248260 -0.349349
v -0.249137 0.120535 -0.346683
v -0.007295 0.346875 -0.770168
v -0.076991 0.320450 -0.700395
v -0.128018 0.248256 -0.649324
v -0.126132 0.120532 -0.651231
v -0.232960 0.346879 0.176883
v -0.229916 0.320454 0.275452
v -0.227685 0.248260 0.347609
v -0.227768 0.120535 0.344924
v -0.102032 0.120540 0.664007
v -0.103920 0.248265 0.662103
v -0.053170 0.320458 0.713449
v 0.016160 0.346883 0.783584
v 0.357922 -1.145184 1.129319
v -0.122423 -1.145184 0.643237
v -0.226779 -1.145188 0.373954
v -0.250203 -1.145188 -0.375911
v -0.146859 -1.145192 -0.630796
v 0.361998 -1.145192 -1.139861
v 0.357929 0.149646 1.129312
v -0.122493 0.149646 0.643306
v -0.226863 0.149641 0.374017
v -0.250040 0.149641 -0.375772
v -0.146704 0.149638 -0.630639
v 0.361983 0.149638 -1.139877
v -0.103844 0.237380 -0.651803
v 0.340857 0.237380 -1.097005
v -0.058444 0.301612 -0.697240
v 0.295463 0.301612 -1.051561
v -0.212922 0.237385 0.328307
v -0.233287 0.237383 -0.330997
v -0.214907 0.301617 0.264109
v -0.231297 0.301616 -0.266786
v 0.337029 0.237390 1.086330
v -0.079760 0.237390 0.664706
v 0.291872 0.301622 1.040650
v -0.034606 0.301622 0.710390
v 0.231501 0.325864 -0.987523
v 0.353495 0.170646 -1.109655
v 0.228241 0.325874 0.976283
v 0.349598 0.170656 1.099048
v -0.228502 0.325869 -0.176316
v -0.233849 0.170650 -0.348876
v 0.005521 0.325864 -0.761276
v -0.116491 0.170646 -0.639161
v -0.217701 0.325869 0.173644
v -0.212363 0.170650 0.346177
v -0.092326 0.170656 0.651986
v 0.029023 0.325874 0.774758
v 0.348380 -1.116077 1.097827
v -0.091045 -1.116077 0.653147
v -0.212337 -1.116083 0.344386
v -0.233952 -1.116083 -0.347291
v -0.115424 -1.116087 -0.640531
v 0.352286 -1.116087 -1.108419
v 0.348389 0.120540 1.097818
v -0.091112 0.120540 0.653214
v -0.212423 0.120535 0.344445
v -0.233792 0.120535 -0.347160
v -0.115272 0.120531 -0.640378
v 0.352267 0.120531 -1.108438
vn 0.6791 -0.2588 0.6869
vn 0.7069 -0.0000 -0.7073
vn -0.4998 -0.7071 0.5002
vn -0.0298 -0.2588 -0.9655
vn 0.0311 -0.0001 0.9995
vn -0.1830 -0.9659 0.1831
vn -0.0218 -0.7071 -0.7068
vn -0.0311 -0.0000 -0.9995
vn -0.0080 -0.9659 -0.2587
vn 0.7030 -0.0000 0.7112
vn 0.6826 -0.2588 -0.6834
vn -0.7030 -0.0000 -0.7112
vn -0.7075 -0.0000 -0.7067
vn -0.7075 0.0001 -0.7067
vn -0.7112 -0.0000 0.7030
vn -0.9995 -0.0000 0.0309
vn -0.9995 0.0001 0.0309
vn -0.7075 0.0002 -0.7067
vn -0.9995 -0.0001 0.0309
vn -0.7112 -0.0001 0.7030
vn -0.9995 -0.0000 0.0308
vn -0.7113 -0.0000 0.7029
vn -0.9995 -0.0000 0.0312
vn -0.7072 0.0001 -0.7070
vn -0.7112 -0.0001 0.7029
vn -0.9995 -0.0001 0.0311
vn -0.9995 0.0001 0.0311
vn -0.7074 0.0002 -0.7068
vn -0.7074 -0.0000 -0.7068
vn -0.7074 0.0001 -0.7068
vn -0.9995 -0.0000 0.0311
vn -0.6827 -0.2588 0.6834
vn -0.7069 -0.0000 0.7074
vn 0.4971 -0.7071 0.5029
vn -0.1819 -0.9659 -0.1841
vn -0.0001 -1.0000 -0.0001
vn 0.1820 -0.9659 0.1840
vn -0.4971 -0.7071 -0.5029
vn -0.0000 -1.0000 -0.0000
vn -0.6790 -0.2588 -0.6870
vn 0.0080 -0.9659 0.2587
vn 0.0219 -0.7072 0.7067
vn 0.0001 1.0000 0.0001
vn -0.0000 1.0000 -0.0000
vn 0.0299 -0.2589 0.9654
vn 0.1829 -0.9659 -0.1832
vn 0.4997 -0.7071 -0.5003
vt 0.605949 0.702538
vt 0.601556 0.703269
vt 0.513359 0.047225
vt 0.598121 0.047225
vt 0.611426 0.185666
vt 0.606130 0.203549
vt 0.601556 0.543759
vt 0.606130 0.545247
vt 0.598121 0.704268
vt 0.513360 0.704271
vt 0.613155 0.163394
vt 0.611426 0.562636
vt 0.513360 0.544955
vt 0.598121 0.544958
vt 0.613156 0.584306
vt 0.598121 0.701993
vt 0.513360 0.701993
vt 0.601556 0.045994
vt 0.606130 0.047531
vt 0.513360 0.548007
vt 0.598121 0.548007
vt 0.613635 0.164049
vt 0.613032 0.187397
vt 0.606876 0.208660
vt 0.601556 0.205085
vt 0.600116 0.210746
vt 0.613155 0.590101
vt 0.611426 0.566944
vt 0.613032 0.565129
vt 0.613636 0.589420
vt 0.606130 0.548337
vt 0.606876 0.543008
vt 0.601556 0.546731
vt 0.600116 0.540838
vt 0.611426 0.686590
vt 0.613156 0.664920
vt 0.613635 0.665557
vt 0.613032 0.688263
vt 0.606130 0.703979
vt 0.606876 0.708941
vt 0.601556 0.705467
vt 0.600116 0.710969
vt 0.613155 0.087686
vt 0.611426 0.065413
vt 0.613032 0.063682
vt 0.613635 0.087031
vt 0.606876 0.042419
vt 0.600116 0.040334
vt 0.613032 0.560964
vt 0.613635 0.583669
vt 0.606876 0.540285
vt 0.600116 0.538257
vt 0.606876 0.706992
vt 0.600116 0.709162
vt 0.612601 0.682192
vt 0.613032 0.684871
vt 0.613156 0.659899
vt 0.613636 0.660580
vt 0.511365 0.709162
vt 0.511365 0.540838
vt 0.511365 0.710972
vt 0.511365 0.538254
vt 0.513360 0.203855
vt 0.511365 0.210746
vt 0.511364 0.040334
vt 0.598121 0.203855
s 0
f 14/1/1 12/2/1 89/2/1 76/1/1
f 5/3/2 46/4/2 101/4/2 95/3/2
f 25/5/3 26/6/3 68/6/3 70/5/3
f 15/7/4 17/8/4 71/8/4 88/7/4
f 42/9/5 4/10/5 94/10/5 100/9/5
f 23/11/6 25/5/6 70/5/6 79/11/6
f 17/8/7 18/12/7 73/12/7 71/8/7
f 3/13/8 50/14/8 99/14/8 93/13/8
f 18/12/9 16/15/9 87/15/9 73/12/9
f 51/16/10 2/17/10 92/17/10 98/16/10
f 27/18/11 29/19/11 67/19/11 86/18/11
f 1/20/12 38/21/12 97/21/12 91/20/12
f 25/5/13 23/11/13 32/22/13 31/23/13
f 26/6/14 25/5/14 31/23/14 33/24/14
f 24/25/13 26/6/13 33/24/13 66/26/13
f 8/27/15 10/28/15 36/29/15 35/30/15
f 10/28/15 9/31/15 37/32/15 36/29/15
f 9/31/15 7/33/15 61/34/15 37/32/15
f 21/35/16 19/36/16 40/37/16 39/38/16
f 22/39/17 21/35/17 39/38/17 41/40/17
f 20/41/17 22/39/17 41/40/17 64/42/17
f 28/43/14 30/44/14 44/45/14 43/46/14
f 30/44/14 29/19/14 45/47/14 44/45/14
f 29/19/18 27/18/18 65/48/18 45/47/18
f 16/15/16 18/12/16 48/49/16 47/50/16
f 18/12/16 17/8/16 49/51/16 48/49/16
f 17/8/19 15/7/19 63/52/19 49/51/19
f 12/2/20 14/1/20 52/53/20 62/54/20
f 14/1/15 13/55/15 53/56/15 52/53/15
f 13/55/15 11/57/15 54/58/15 53/56/15
f 11/57/15 8/27/15 35/30/15 54/58/15
f 19/36/21 16/15/21 47/50/21 40/37/21
f 23/11/13 28/43/13 43/46/13 32/22/13
f 27/18/14 24/25/14 66/26/14 65/48/14
f 15/7/16 20/41/16 64/42/16 63/52/16
f 7/33/20 12/2/20 62/54/20 61/34/20
f 1/20/22 2/17/22 56/59/22 55/60/22
f 3/13/23 4/10/23 58/61/23 57/62/23
f 5/3/24 6/63/24 60/64/24 59/65/24
f 38/21/15 1/20/15 55/60/15 61/34/15
f 2/17/25 51/16/25 62/54/25 56/59/25
f 50/14/26 3/13/26 57/62/26 63/52/26
f 4/10/27 42/9/27 64/42/27 58/61/27
f 46/4/28 5/3/28 59/65/28 65/48/28
f 6/63/29 34/66/29 66/26/29 60/64/29
f 34/66/14 46/4/14 65/48/14 66/26/14
f 42/9/16 50/14/16 63/52/16 64/42/16
f 51/16/15 38/21/15 61/34/15 62/54/15
f 77/28/15 81/27/15 90/57/15 78/55/15
f 73/12/16 87/15/16 83/36/16 74/35/16
f 70/5/14 69/44/14 85/43/14 79/11/14
f 96/63/30 95/3/30 101/4/30 102/66/30
f 80/25/14 86/18/14 67/19/14 68/6/14
f 68/6/14 67/19/14 69/44/14 70/5/14
f 93/13/31 99/14/31 100/9/31 94/10/31
f 88/7/16 71/8/16 72/39/16 84/41/16
f 71/8/16 73/12/16 74/35/16 72/39/16
f 91/20/15 97/21/15 98/16/15 92/17/15
f 82/33/15 75/31/15 76/1/15 89/2/15
f 75/31/15 77/28/15 78/55/15 76/1/15
f 26/6/32 24/25/32 80/25/32 68/6/32
f 34/66/33 6/63/33 96/63/33 102/66/33
f 13/55/34 14/1/34 76/1/34 78/55/34
f 10/28/35 8/27/35 81/27/35 77/28/35
f 46/4/36 34/66/36 102/66/36 101/4/36
f 11/57/37 13/55/37 78/55/37 90/57/37
f 9/31/38 10/28/38 77/28/38 75/31/38
f 50/14/39 42/9/39 100/9/39 99/14/39
f 8/27/39 11/57/39 90/57/39 81/27/39
f 7/33/40 9/31/40 75/31/40 82/33/40
f 38/21/39 51/16/39 98/16/39 97/21/39
f 16/15/39 19/36/39 83/36/39 87/15/39
f 19/36/41 21/35/41 74/35/41 83/36/41
f 28/43/36 23/11/36 79/11/36 85/43/36
f 21/35/42 22/39/42 72/39/42 74/35/42
f 24/25/43 27/18/43 86/18/43 80/25/43
f 2/17/44 1/20/44 91/20/44 92/17/44
f 22/39/45 20/41/45 84/41/45 72/39/45
f 20/41/44 15/7/44 88/7/44 84/41/44
f 4/10/44 3/13/44 93/13/44 94/10/44
f 30/44/46 28/43/46 85/43/46 69/44/46
f 12/2/44 7/33/44 82/33/44 89/2/44
f 6/63/43 5/3/43 95/3/43 96/63/43
f 29/19/47 30/44/47 69/44/47 67/19/47
