# Blender 4.2.4 LTS
# www.blender.org
mtllib WINDOWFRAME.mtl
o WINDOWFRAME
v 0.023896 -1.164554 -0.741134
v 0.041148 -1.164554 0.723096
v -0.023570 -1.164554 -0.741134
v -0.013686 -1.164554 0.723153
v 0.023896 0.846683 -0.741134
v -0.035713 0.838147 0.747125
v -0.023570 0.846684 -0.741134
v 0.019122 0.838744 0.747068
v -0.032644 0.460798 -0.255364
v -0.023377 -0.390821 -0.265450
v -0.022781 -0.396847 0.243938
v -0.032049 0.454771 0.254025
v 0.022800 0.455218 0.266655
v 0.032068 -0.396400 0.256569
v 0.031473 -0.390373 -0.252820
v 0.022205 0.461245 -0.242734
v -0.032065 0.412164 -0.207866
v -0.023843 -0.343324 -0.216814
v -0.023360 -0.348214 0.196440
v -0.031582 0.407275 0.205387
v 0.023267 0.407722 0.218019
v 0.031489 -0.347766 0.209071
v 0.031006 -0.342877 -0.204183
v 0.022784 0.412612 -0.195235
v 0.054369 0.413106 -0.207956
v 0.062590 -0.342383 -0.216904
v 0.054852 0.408217 0.205298
v 0.063074 -0.347272 0.196350
v -0.063167 0.406781 0.218108
v -0.054945 -0.348708 0.209161
v -0.063650 0.411670 -0.195146
v -0.055428 -0.343819 -0.204093
v -0.072070 0.460368 -0.255323
v -0.062802 -0.391250 -0.265409
v -0.071474 0.454342 0.254066
v -0.062206 -0.397277 0.243979
v 0.062225 0.455648 0.266614
v 0.071493 -0.395970 0.256528
v 0.061630 0.461675 -0.242775
v 0.070898 -0.389944 -0.252861
v -0.071490 0.411735 -0.207825
v -0.063269 -0.343754 -0.216773
v -0.071007 0.406846 0.205428
v -0.062785 -0.348643 0.196481
v 0.062692 0.408152 0.217978
v 0.070914 -0.347337 0.209030
v 0.062209 0.413041 -0.195276
v 0.070431 -0.342448 -0.204224
vn 0.0011 -0.0120 0.9999
vn -0.0058 1.0000 0.0055
vn -1.0000 -0.0032 -0.0079
vn -0.0000 -1.0000 -0.0000
vn 0.0109 -0.9999 -0.0118
vn -0.0012 0.0118 -0.9999
vn -1.0000 -0.0058 0.0053
vn -0.9999 -0.0110 0.0012
vn 1.0000 0.0011 -0.0090
vn -0.0109 0.9999 0.0118
vn 0.0012 -0.0118 0.9999
vn -0.9999 -0.0109 0.0010
vn 0.9999 0.0109 -0.0010
vn -0.0000 -0.0000 -1.0000
vn 0.9999 0.0110 -0.0012
vn -1.0000 0.0071 -0.0057
vn 1.0000 0.0026 0.0021
vn 1.0000 0.0033 -0.0072
vt 0.375000 0.250000
vt 0.625000 0.250000
vt 0.625000 0.500000
vt 0.375000 0.500000
vt 0.875000 0.500000
vt 0.875000 0.750000
vt 0.625000 0.750000
vt 0.375000 0.750000
vt 0.533188 0.668207
vt 0.591812 0.668207
vt 0.125000 0.750000
vt 0.125000 0.500000
vt 0.588503 0.589947
vt 0.588503 0.660053
vt 0.536497 0.589947
vt 0.533188 0.581793
vt 0.591812 0.581793
vt 0.375000 1.000000
vt 0.533188 0.252832
vt 0.533188 0.262673
vt 0.536497 0.272224
vt 0.588503 0.407671
vt 0.591812 0.583582
vt 0.591812 0.400913
vt 0.536497 0.660053
vt 0.536497 0.269751
vt 0.588503 0.550355
vt 0.625000 1.000000
s 0
f 2/1/1 8/2/1 6/3/1 4/4/1
f 8/5/2 5/6/2 7/7/2 6/3/2
f 7/7/3 3/8/3 10/9/3 9/10/3
f 4/4/4 3/8/4 1/11/4 2/12/4
f 20/13/5 17/14/5 25/14/5 27/13/5
f 19/15/6 20/13/6 27/13/6 28/15/6
f 3/8/7 4/4/7 11/16/7 10/9/7
f 4/4/8 6/3/8 12/17/8 11/16/8
f 2/12/9 1/18/9 15/19/9 14/20/9
f 17/14/5 20/13/5 43/13/5 41/14/5
f 10/9/5 11/16/5 36/16/5 34/9/5
f 22/21/6 21/22/6 45/22/6 46/21/6
f 16/23/10 13/24/10 37/24/10 39/23/10
f 18/25/11 17/14/11 41/14/11 42/25/11
f 12/17/10 9/10/10 33/10/10 35/17/10
f 13/24/11 14/20/11 38/20/11 37/24/11
f 9/10/6 10/9/6 34/9/6 33/10/6
f 22/21/10 23/26/10 32/26/10 30/21/10
f 21/22/6 22/21/6 30/21/6 29/22/6
f 18/25/10 19/15/10 28/15/10 26/25/10
f 23/26/11 24/27/11 31/27/11 32/26/11
f 17/14/11 18/25/11 26/25/11 25/14/11
f 24/27/5 21/22/5 29/22/5 31/27/5
f 33/10/12 34/9/12 42/25/12 41/14/12
f 34/9/12 36/16/12 44/15/12 42/25/12
f 36/16/12 35/17/12 43/13/12 44/15/12
f 35/17/12 33/10/12 41/14/12 43/13/12
f 37/24/13 38/20/13 46/21/13 45/22/13
f 38/20/13 40/19/13 48/26/13 46/21/13
f 40/19/13 39/23/13 47/27/13 48/26/13
f 39/23/13 37/24/13 45/22/13 47/27/13
f 14/20/5 15/19/5 40/19/5 38/20/5
f 21/22/5 24/27/5 47/27/5 45/22/5
f 11/16/11 12/17/11 35/17/11 36/16/11
f 19/15/10 18/25/10 42/25/10 44/15/10
f 15/19/6 16/23/6 39/23/6 40/19/6
f 23/26/10 22/21/10 46/21/10 48/26/10
f 20/13/6 19/15/6 44/15/6 43/13/6
f 24/27/11 23/26/11 48/26/11 47/27/11
f 3/8/14 7/7/14 5/28/14 1/18/14
f 8/2/15 2/12/15 14/20/15 13/24/15
f 6/3/16 7/7/16 9/10/16 12/17/16
f 5/28/17 8/2/17 13/24/17 16/23/17
f 1/18/18 5/28/18 16/23/18 15/19/18
