# Blender 4.2.4 LTS
# www.blender.org
mtllib WINDOWBASE.mtl
o WINDOWBASE
v -0.039873 -0.964287 0.736893
v -0.039874 -0.964287 -0.736895
v 0.040100 -0.964287 0.736893
v 0.040099 -0.964287 -0.736895
v 0.108643 -0.778888 -0.736895
v 0.108643 -0.964287 -0.736895
v 0.108644 -0.778888 0.736893
v 0.108644 -0.964287 0.736893
v -0.110099 -0.964287 0.736893
v -0.110100 -0.778888 -0.736895
v -0.110100 -0.964287 -0.736895
v -0.110099 -0.778888 0.736893
v -0.039873 -0.778888 0.736893
v -0.039873 1.037203 0.736893
v 0.040099 1.037203 -0.736895
v 0.040100 1.037203 0.736893
v -0.039874 1.037203 -0.736895
v -0.039874 -0.778888 -0.736895
v 0.040099 -0.778888 -0.736895
v 0.040100 -0.778888 0.736893
v 0.040099 0.670780 0.254711
v 0.040099 -0.180949 0.254711
v 0.040099 -0.180949 -0.254713
v 0.040099 0.670780 -0.254713
v -0.039873 0.670780 -0.254713
v -0.039873 -0.180949 -0.254713
v -0.039873 -0.180949 0.254711
v -0.039873 0.670780 0.254711
v 0.040099 0.622709 0.206640
v 0.040099 -0.132878 0.206640
v 0.040099 -0.132878 -0.206642
v 0.040099 0.622709 -0.206642
v -0.039873 0.622709 -0.206642
v -0.039873 -0.132878 -0.206642
v -0.039873 -0.132878 0.206640
v -0.039873 0.622709 0.206640
v -0.046340 0.622709 0.206640
v -0.046340 -0.132878 0.206640
v -0.046340 0.622709 -0.206642
v -0.046340 -0.132878 -0.206642
v 0.046566 0.622709 -0.206642
v 0.046566 -0.132878 -0.206642
v 0.046566 0.622709 0.206640
v 0.046566 -0.132878 0.206640
v 0.079527 0.670780 0.254711
v 0.079527 -0.180949 0.254711
v 0.079527 0.670780 -0.254713
v 0.079527 -0.180949 -0.254713
v -0.079301 0.670780 -0.254713
v -0.079301 -0.180949 -0.254713
v -0.079300 0.670780 0.254711
v -0.079300 -0.180949 0.254711
v 0.079527 0.622709 0.206640
v 0.079527 -0.132878 0.206640
v 0.079527 0.622709 -0.206642
v 0.079527 -0.132878 -0.206642
v -0.079301 0.622709 -0.206642
v -0.079301 -0.132878 -0.206642
v -0.079300 0.622709 0.206640
v -0.079300 -0.132878 0.206640
vn -0.0000 -0.0000 1.0000
vn -0.0000 -0.0000 -1.0000
vn -1.0000 -0.0000 -0.0000
vn -0.0000 -1.0000 -0.0000
vn 1.0000 -0.0000 -0.0000
vn -0.0000 1.0000 -0.0000
vt 0.375000 0.750000
vt 0.500000 0.750000
vt 0.500000 1.000000
vt 0.375000 1.000000
vt 0.375000 0.250000
vt 0.500000 0.250000
vt 0.500000 0.500000
vt 0.375000 0.500000
vt 0.500000 0.000000
vt 0.375000 0.000000
vt 0.125000 0.750000
vt 0.125000 0.500000
vt 0.875000 0.500000
vt 0.875000 0.750000
vt 0.625000 0.750000
vt 0.625000 0.500000
vt 0.625000 1.000000
vt 0.625000 0.250000
vt 0.588503 0.589947
vt 0.588503 0.660053
vt 0.536497 0.589947
vt 0.533188 0.668207
vt 0.591812 0.668207
vt 0.533188 0.581793
vt 0.591812 0.581793
vt 0.533188 0.262673
vt 0.591812 0.400913
vt 0.533188 0.252832
vt 0.591812 0.583582
vt 0.536497 0.272224
vt 0.588503 0.407671
vt 0.536497 0.660053
vt 0.536497 0.269751
vt 0.588503 0.550355
s 0
f 3/1/1 20/2/1 13/3/1 1/4/1
f 20/2/1 3/1/1 8/1/1 7/2/1
f 2/5/2 18/6/2 19/7/2 4/8/2
f 4/8/2 19/7/2 5/7/2 6/8/2
f 18/6/2 2/5/2 11/5/2 10/6/2
f 1/4/1 13/3/1 12/3/1 9/4/1
f 12/9/3 10/6/3 11/5/3 9/10/3
f 9/11/4 11/12/4 2/12/4 1/11/4
f 6/8/4 8/1/4 3/1/4 4/8/4
f 5/7/5 7/2/5 8/1/5 6/8/5
f 17/13/6 14/14/6 16/15/6 15/16/6
f 13/9/6 18/6/6 10/6/6 12/9/6
f 7/2/6 5/7/6 19/7/6 20/2/6
f 4/8/4 3/1/4 1/11/4 2/12/4
f 20/2/1 16/15/1 14/17/1 13/3/1
f 18/6/2 17/18/2 15/16/2 19/7/2
f 32/19/4 29/20/4 37/20/4 39/19/4
f 31/21/1 32/19/1 39/19/1 40/21/1
f 16/15/5 20/2/5 22/22/5 21/23/5
f 20/2/5 19/7/5 23/24/5 22/22/5
f 19/7/5 15/16/5 24/25/5 23/24/5
f 15/16/5 16/15/5 21/23/5 24/25/5
f 17/18/3 18/6/3 26/26/3 25/27/3
f 18/6/3 13/9/3 27/28/3 26/26/3
f 13/9/3 14/17/3 28/29/3 27/28/3
f 14/17/3 17/18/3 25/27/3 28/29/3
f 29/20/4 32/19/4 55/19/4 53/20/4
f 22/22/4 23/24/4 48/24/4 46/22/4
f 34/30/1 33/31/1 57/31/1 58/30/1
f 28/29/6 25/27/6 49/27/6 51/29/6
f 30/32/2 29/20/2 53/20/2 54/32/2
f 24/25/6 21/23/6 45/23/6 47/25/6
f 25/27/2 26/26/2 50/26/2 49/27/2
f 21/23/1 22/22/1 46/22/1 45/23/1
f 37/20/5 38/32/5 40/21/5 39/19/5
f 41/31/3 42/30/3 44/33/3 43/34/3
f 34/30/6 35/33/6 44/33/6 42/30/6
f 33/31/1 34/30/1 42/30/1 41/31/1
f 30/32/6 31/21/6 40/21/6 38/32/6
f 35/33/2 36/34/2 43/34/2 44/33/2
f 29/20/2 30/32/2 38/32/2 37/20/2
f 36/34/4 33/31/4 41/31/4 43/34/4
f 45/23/5 46/22/5 54/32/5 53/20/5
f 46/22/5 48/24/5 56/21/5 54/32/5
f 48/24/5 47/25/5 55/19/5 56/21/5
f 47/25/5 45/23/5 53/20/5 55/19/5
f 49/27/3 50/26/3 58/30/3 57/31/3
f 50/26/3 52/28/3 60/33/3 58/30/3
f 52/28/3 51/29/3 59/34/3 60/33/3
f 51/29/3 49/27/3 57/31/3 59/34/3
f 26/26/4 27/28/4 52/28/4 50/26/4
f 33/31/4 36/34/4 59/34/4 57/31/4
f 23/24/2 24/25/2 47/25/2 48/24/2
f 31/21/6 30/32/6 54/32/6 56/21/6
f 27/28/1 28/29/1 51/29/1 52/28/1
f 35/33/6 34/30/6 58/30/6 60/33/6
f 32/19/1 31/21/1 56/21/1 55/19/1
f 36/34/2 35/33/2 60/33/2 59/34/2
