# Blender 4.2.4 LTS
# www.blender.org
mtllib WINDOWBASE_001.mtl
o WINDOWBASE.001
v -0.046453 0.377793 0.206641
v -0.046453 -0.377793 0.206641
v -0.046453 0.377793 -0.206641
v -0.046453 -0.377793 -0.206641
v 0.046453 0.377793 -0.206641
v 0.046453 -0.377793 -0.206641
v 0.046453 0.377793 0.206641
v 0.046453 -0.377793 0.206641
vn -1.0000 -0.0000 -0.0000
vn 1.0000 -0.0000 -0.0000
vn -0.0000 1.0000 -0.0000
vn -0.0000 -0.0000 1.0000
vn -0.0000 -1.0000 -0.0000
vn -0.0000 -0.0000 -1.0000
vt 0.588503 0.660053
vt 0.588503 0.589947
vt 0.536497 0.589947
vt 0.536497 0.660053
vt 0.588503 0.407671
vt 0.588503 0.550355
vt 0.536497 0.269751
vt 0.536497 0.272224
s 0
f 1/1/1 3/2/1 4/3/1 2/4/1
f 5/5/2 7/6/2 8/7/2 6/8/2
f 3/2/3 1/1/3 7/6/3 5/5/3
f 1/1/4 2/4/4 8/7/4 7/6/4
f 4/3/5 6/8/5 8/7/5 2/4/5
f 4/3/6 3/2/6 5/5/6 6/8/6
