# Blender 4.2.4 LTS
# www.blender.org
mtllib DOORFRAME.mtl
o DOORFRAME
v -0.141569 0.951032 0.000000
v 0.141545 0.951032 0.000000
v 0.141545 0.385402 0.000000
v -0.141569 0.385402 0.000000
v -0.093840 0.951032 0.000000
v 0.093817 0.951032 0.000000
v -0.141569 -1.059815 0.740339
v -0.141569 0.951032 0.740339
v 0.141545 -1.059815 0.740339
v 0.141545 0.951032 0.740339
v -0.141569 0.951032 0.092556
v 0.141545 -1.059815 0.315863
v -0.141569 -1.059815 0.315863
v 0.141545 0.951032 0.092556
v 0.141545 0.385402 0.091265
v 0.141545 0.077237 0.315863
v 0.141545 0.215241 0.740339
v 0.141545 0.360132 0.177214
v 0.141545 0.300111 0.250078
v 0.141545 0.215241 0.298765
v -0.141569 0.077237 0.315863
v -0.141569 0.385402 0.091265
v -0.141569 0.215241 0.740339
v -0.141569 0.215241 0.298765
v -0.141569 0.300111 0.250078
v -0.141569 0.360132 0.177214
v 0.093817 -1.059815 0.740339
v -0.093840 -1.059815 0.740339
v -0.093840 0.951032 0.740339
v 0.093817 0.951032 0.740339
v -0.093840 0.951032 0.092556
v 0.093817 0.951032 0.092556
v -0.141569 0.077237 0.740339
v 0.141545 0.077237 0.740339
v -0.093840 0.077237 0.740339
v 0.093817 0.077237 0.740339
v -0.093840 0.215241 0.740339
v 0.093817 0.215241 0.740339
v 0.141545 0.300111 0.740339
v -0.141569 0.300111 0.740339
v -0.093840 0.300111 0.740339
v 0.093817 0.300111 0.740339
v -0.141569 0.951032 0.180580
v 0.141545 0.951032 0.180580
v 0.093817 0.951032 0.180580
v -0.093840 0.951032 0.180580
v 0.141545 0.360132 0.740339
v -0.141569 0.360132 0.740339
v -0.093840 0.360132 0.740339
v 0.093817 0.360132 0.740339
v -0.141569 -1.059815 -0.740339
v -0.141569 0.951032 -0.740339
v 0.141545 -1.059815 -0.740339
v 0.141545 0.951032 -0.740339
v -0.141569 0.951032 -0.092556
v 0.141545 -1.059815 -0.315863
v -0.141569 -1.059815 -0.315863
v 0.141545 0.951032 -0.092556
v 0.141545 0.385402 -0.091265
v 0.141545 0.077237 -0.315863
v 0.141545 0.215241 -0.740339
v 0.141545 0.360132 -0.177214
v 0.141545 0.300111 -0.250078
v 0.141545 0.215241 -0.298765
v -0.141569 0.077237 -0.315863
v -0.141569 0.385402 -0.091265
v -0.141569 0.215241 -0.740339
v -0.141569 0.215241 -0.298765
v -0.141569 0.300111 -0.250078
v -0.141569 0.360132 -0.177214
v 0.093817 -1.059815 -0.740339
v -0.093840 -1.059815 -0.740339
v -0.093840 0.951032 -0.740339
v 0.093817 0.951032 -0.740339
v -0.093840 0.951032 -0.092556
v 0.093817 0.951032 -0.092556
v -0.141569 0.077237 -0.740339
v 0.141545 0.077237 -0.740339
v -0.093840 0.077237 -0.740339
v 0.093817 0.077237 -0.740339
v -0.093840 0.215241 -0.740339
v 0.093817 0.215241 -0.740339
v 0.141545 0.300111 -0.740339
v -0.141569 0.300111 -0.740339
v -0.093840 0.300111 -0.740339
v 0.093817 0.300111 -0.740339
v -0.141569 0.951032 -0.180578
v 0.141545 0.951032 -0.180578
v 0.093817 0.951032 -0.180578
v -0.093840 0.951032 -0.180578
v 0.141545 0.360132 -0.740339
v -0.141569 0.360132 -0.740339
v -0.093840 0.360132 -0.740339
v 0.093817 0.360132 -0.740339
v -0.093840 0.385402 0.091265
v -0.093840 0.385402 0.000000
v 0.093817 0.385402 0.091265
v 0.093817 0.385402 0.000000
v -0.093840 0.362184 0.177214
v 0.093817 0.362184 0.177214
v -0.093840 0.296065 0.250078
v 0.093817 0.296065 0.250078
v -0.093840 0.218867 0.298765
v 0.093817 0.197110 0.298765
v -0.093840 0.077237 0.315863
v 0.093817 0.077237 0.315863
v -0.093840 -1.059815 0.315863
v 0.093817 -1.059815 0.315863
v -0.093840 0.385402 -0.091265
v 0.093817 0.385402 -0.091265
v -0.093840 0.362184 -0.177214
v 0.093817 0.362184 -0.177214
v -0.093840 0.296065 -0.250078
v 0.093817 0.296065 -0.250078
v -0.093840 0.218867 -0.298765
v 0.093817 0.197110 -0.298765
v -0.093840 0.077237 -0.315863
v 0.093817 0.077237 -0.315863
v -0.093840 -1.059815 -0.315863
v 0.093817 -1.059815 -0.315863
v -0.141569 -0.875861 0.740339
v 0.141545 -0.875861 0.740339
v 0.141545 -0.875861 0.315863
v -0.141569 -0.875861 0.315863
v -0.093840 -0.875861 0.740339
v 0.093817 -0.875861 0.740339
v -0.141569 -0.875861 -0.740339
v 0.141545 -0.875861 -0.740339
v 0.141545 -0.875861 -0.315863
v -0.141569 -0.875861 -0.315863
v -0.093840 -0.875861 -0.740339
v 0.093817 -0.875861 -0.740339
v 0.093817 -0.876987 -0.315863
v 0.093817 -0.876987 0.315863
v -0.093840 -0.876766 -0.315863
v -0.093840 -0.876766 0.315863
v 0.212324 -0.875861 0.740339
v 0.212324 -1.059815 0.740339
v 0.212324 -1.059815 0.315863
v 0.212324 -0.875861 0.315863
v 0.212324 -0.875861 -0.740339
v 0.212324 -1.059815 -0.740339
v 0.212324 -1.059815 -0.315863
v 0.212324 -0.875861 -0.315863
v -0.212123 -0.875861 0.740339
v -0.212123 -1.059815 0.740339
v -0.212123 -1.059815 0.315863
v -0.212123 -0.875861 0.315863
v -0.212123 -0.875861 -0.740339
v -0.212123 -1.059815 -0.740339
v -0.212123 -1.059815 -0.315863
v -0.212123 -0.875861 -0.315863
vn -0.0000 -0.0000 1.0000
vn -0.0000 1.0000 -0.0000
vn -0.0000 -0.0000 -1.0000
vn 0.0044 -0.0654 -0.9978
vn 0.0125 -0.0659 -0.9978
vn -0.0000 -1.0000 -0.0000
vn 0.0208 -0.2833 -0.9588
vn 0.0768 -0.3401 -0.9373
vn 0.0255 -0.6186 -0.7853
vn 0.0612 -0.6279 -0.7759
vn -0.0014 -0.8796 -0.4758
vn -0.0023 -0.8790 -0.4768
vn -0.0052 -0.9909 -0.1343
vn -0.0104 -0.9905 -0.1370
vn 0.0104 -0.9905 -0.1370
vn 0.0052 -0.9909 -0.1343
vn 0.0023 -0.8790 -0.4768
vn 0.0014 -0.8796 -0.4758
vn -0.0094 -0.6485 -0.7612
vn -0.0115 -0.6296 -0.7768
vn 0.0014 -0.3163 -0.9487
vn -0.0089 -0.3293 -0.9442
vn 0.0023 -0.0608 -0.9981
vn -0.0007 -0.0629 -0.9980
vn 1.0000 -0.0000 -0.0000
vn -1.0000 -0.0000 -0.0000
vn 0.0125 -0.0659 0.9978
vn 0.0044 -0.0654 0.9978
vn 0.0768 -0.3401 0.9373
vn 0.0208 -0.2833 0.9588
vn 0.0612 -0.6279 0.7759
vn 0.0255 -0.6186 0.7853
vn -0.0023 -0.8790 0.4768
vn -0.0014 -0.8796 0.4758
vn -0.0104 -0.9905 0.1370
vn -0.0052 -0.9909 0.1343
vn 0.0104 -0.9905 0.1370
vn 0.0052 -0.9909 0.1343
vn 0.0023 -0.8790 0.4768
vn 0.0014 -0.8796 0.4758
vn -0.0094 -0.6485 0.7612
vn -0.0115 -0.6296 0.7768
vn 0.0014 -0.3163 0.9487
vn -0.0089 -0.3293 0.9442
vn 0.0023 -0.0608 0.9981
vn -0.0007 -0.0629 0.9980
vt 0.562113 0.333333
vt 0.562113 0.250000
vt 0.552403 0.250000
vt 0.552403 0.333333
vt 0.791667 0.575000
vt 0.791667 0.625000
vt 0.875000 0.625000
vt 0.875000 0.575000
vt 0.000000 0.000000
vt 0.562113 0.416667
vt 0.562113 0.500000
vt 0.625000 0.500000
vt 0.625000 0.416667
vt 0.522111 0.333333
vt 0.522111 0.416667
vt 0.542305 0.416667
vt 0.542305 0.333333
vt 0.552403 0.416667
vt 0.291667 0.500000
vt 0.291667 0.575000
vt 0.375000 0.575000
vt 0.375000 0.500000
vt 0.791667 0.564809
vt 0.875000 0.564809
vt 0.625000 0.564809
vt 0.625000 0.575000
vt 0.708333 0.575000
vt 0.708333 0.564809
vt 0.125000 0.500000
vt 0.125000 0.575000
vt 0.208333 0.575000
vt 0.208333 0.500000
vt 0.625000 0.625000
vt 0.708333 0.625000
vt 0.448555 0.333333
vt 0.448555 0.416667
vt 0.448555 0.250000
vt 0.522111 0.250000
vt 0.448555 0.500000
vt 0.522111 0.500000
vt 0.448964 0.575000
vt 0.522928 0.575000
vt 0.448964 0.175000
vt 0.522928 0.175000
vt 0.562500 0.610553
vt 0.562500 0.625000
vt 0.542305 0.250000
vt 0.625000 0.175000
vt 0.625000 0.125000
vt 0.562500 0.125000
vt 0.562500 0.175000
vt 0.538071 0.171979
vt 0.542305 0.500000
vt 0.552403 0.500000
vt 0.550910 0.175000
vt 0.538071 0.575000
vt 0.550910 0.575000
vt 0.559488 0.599497
vt 0.625000 0.185191
vt 0.559488 0.175000
vt 0.708333 0.500000
vt 0.791667 0.500000
vt 0.875000 0.500000
vt 0.625000 0.333333
vt 0.625000 0.250000
vt 0.375000 0.416667
vt 0.375000 0.250000
vt 0.375000 0.333333
vt 0.375000 0.175000
s 1
f 49/1/1 48/2/1 40/3/1 41/4/1
f 31/5/2 5/6/2 1/7/2 11/8/2
f 134/9/3 106/9/4 16/9/5 123/9/3
f 50/10/1 47/11/1 10/12/1 30/13/1
f 35/14/1 36/15/1 38/16/1 37/17/1
f 37/17/1 38/16/1 42/18/1 41/4/1
f 27/19/6 108/20/6 12/21/6 9/22/6
f 46/23/2 31/5/2 11/8/2 43/24/2
f 106/9/4 104/9/7 20/9/8 16/9/5
f 104/9/7 102/9/9 19/9/10 20/9/8
f 102/9/9 100/9/11 18/9/12 19/9/10
f 100/9/11 97/9/13 15/9/14 18/9/12
f 97/9/13 98/9/6 3/9/6 15/9/14
f 22/9/15 4/9/6 96/9/6 95/9/16
f 95/9/16 96/9/6 98/9/6 97/9/13
f 26/9/17 22/9/15 95/9/16 99/9/18
f 99/9/18 95/9/16 97/9/13 100/9/11
f 25/9/19 26/9/17 99/9/18 101/9/20
f 101/9/20 99/9/18 100/9/11 102/9/9
f 24/9/21 25/9/19 101/9/20 103/9/22
f 103/9/22 101/9/20 102/9/9 104/9/7
f 21/9/23 24/9/21 103/9/22 105/9/24
f 105/9/24 103/9/22 104/9/7 106/9/4
f 44/25/2 14/26/2 32/27/2 45/28/2
f 45/28/2 32/27/2 31/5/2 46/23/2
f 7/29/6 13/30/6 107/31/6 28/32/6
f 28/32/6 107/31/6 108/20/6 27/19/6
f 50/10/1 49/1/1 41/4/1 42/18/1
f 124/9/3 21/9/23 105/9/24 136/9/3
f 136/9/3 105/9/24 106/9/4 134/9/3
f 14/26/2 2/33/2 6/34/2 32/27/2
f 32/27/2 6/34/2 5/6/2 31/5/2
f 125/35/1 126/36/1 36/15/1 35/14/1
f 121/37/1 125/35/1 35/14/1 33/38/1
f 126/36/1 122/39/1 34/40/1 36/15/1
f 122/39/25 123/41/25 16/42/25 34/40/25
f 124/43/26 121/37/26 33/38/26 21/44/26
f 14/26/25 15/45/25 3/46/25 2/33/25
f 33/38/1 35/14/1 37/17/1 23/47/1
f 11/48/26 1/49/26 4/50/26 22/51/26
f 23/47/1 37/17/1 41/4/1 40/3/1
f 23/47/26 24/52/26 21/44/26 33/38/26
f 36/15/1 34/40/1 17/53/1 38/16/1
f 38/16/1 17/53/1 39/54/1 42/18/1
f 40/3/26 25/55/26 24/52/26 23/47/26
f 20/56/25 19/57/25 39/54/25 17/53/25
f 16/42/25 20/56/25 17/53/25 34/40/25
f 44/25/25 18/58/25 15/45/25 14/26/25
f 43/59/26 11/48/26 22/51/26 26/60/26
f 30/61/2 45/28/2 46/23/2 29/62/2
f 10/12/2 44/25/2 45/28/2 30/61/2
f 29/62/2 46/23/2 43/24/2 8/63/2
f 47/11/25 39/54/25 19/57/25 18/58/25
f 48/2/26 26/60/26 25/55/26 40/3/26
f 30/13/1 29/64/1 49/1/1 50/10/1
f 42/18/1 39/54/1 47/11/1 50/10/1
f 29/64/1 8/65/1 48/2/1 49/1/1
f 10/12/25 47/11/25 18/58/25
f 8/65/26 43/59/26 26/60/26
f 44/25/25 10/12/25 18/58/25
f 48/2/26 8/65/26 26/60/26
f 93/1/3 85/4/3 84/3/3 92/2/3
f 75/5/2 55/8/2 1/7/2 5/6/2
f 133/9/1 129/9/1 60/9/27 118/9/28
f 94/10/3 74/13/3 54/12/3 91/11/3
f 79/14/3 81/17/3 82/16/3 80/15/3
f 81/17/3 85/4/3 86/18/3 82/16/3
f 71/19/6 53/22/6 56/21/6 120/20/6
f 90/23/2 87/24/2 55/8/2 75/5/2
f 118/9/28 60/9/27 64/9/29 116/9/30
f 116/9/30 64/9/29 63/9/31 114/9/32
f 114/9/32 63/9/31 62/9/33 112/9/34
f 112/9/34 62/9/33 59/9/35 110/9/36
f 110/9/36 59/9/35 3/9/6 98/9/6
f 66/9/37 109/9/38 96/9/6 4/9/6
f 109/9/38 110/9/36 98/9/6 96/9/6
f 70/9/39 111/9/40 109/9/38 66/9/37
f 111/9/40 112/9/34 110/9/36 109/9/38
f 69/9/41 113/9/42 111/9/40 70/9/39
f 113/9/42 114/9/32 112/9/34 111/9/40
f 68/9/43 115/9/44 113/9/42 69/9/41
f 115/9/44 116/9/30 114/9/32 113/9/42
f 65/9/45 117/9/46 115/9/44 68/9/43
f 117/9/46 118/9/28 116/9/30 115/9/44
f 88/25/2 89/28/2 76/27/2 58/26/2
f 89/28/2 90/23/2 75/5/2 76/27/2
f 51/29/6 72/32/6 119/31/6 57/30/6
f 72/32/6 71/19/6 120/20/6 119/31/6
f 94/10/3 86/18/3 85/4/3 93/1/3
f 130/9/1 135/9/1 117/9/46 65/9/45
f 135/9/1 133/9/1 118/9/28 117/9/46
f 58/26/2 76/27/2 6/34/2 2/33/2
f 76/27/2 75/5/2 5/6/2 6/34/2
f 131/35/3 79/14/3 80/15/3 132/36/3
f 127/37/3 77/38/3 79/14/3 131/35/3
f 132/36/3 80/15/3 78/40/3 128/39/3
f 128/39/25 78/40/25 60/42/25 129/41/25
f 130/43/26 65/44/26 77/38/26 127/37/26
f 58/26/25 2/33/25 3/46/25 59/45/25
f 77/38/3 67/47/3 81/17/3 79/14/3
f 55/48/26 66/51/26 4/50/26 1/49/26
f 67/47/3 84/3/3 85/4/3 81/17/3
f 67/47/26 77/38/26 65/44/26 68/52/26
f 80/15/3 82/16/3 61/53/3 78/40/3
f 82/16/3 86/18/3 83/54/3 61/53/3
f 84/3/26 67/47/26 68/52/26 69/55/26
f 64/56/25 61/53/25 83/54/25 63/57/25
f 60/42/25 78/40/25 61/53/25 64/56/25
f 88/25/25 58/26/25 59/45/25 62/58/25
f 87/59/26 70/60/26 66/51/26 55/48/26
f 74/61/2 73/62/2 90/23/2 89/28/2
f 54/12/2 74/61/2 89/28/2 88/25/2
f 73/62/2 52/63/2 87/24/2 90/23/2
f 91/11/25 62/58/25 63/57/25 83/54/25
f 92/2/26 84/3/26 69/55/26 70/60/26
f 74/13/3 94/10/3 93/1/3 73/64/3
f 86/18/3 94/10/3 91/11/3 83/54/3
f 73/64/3 93/1/3 92/2/3 52/65/3
f 54/12/25 62/58/25 91/11/25
f 52/65/26 70/60/26 87/59/26
f 88/25/25 62/58/25 54/12/25
f 92/2/26 70/60/26 52/65/26
f 51/29/6 57/30/6 151/30/6 150/29/6
f 129/9/1 56/9/1 143/9/1 144/9/1
f 27/66/1 9/22/1 122/39/1 126/36/1
f 7/67/1 28/68/1 125/35/1 121/37/1
f 28/68/1 27/66/1 126/36/1 125/35/1
f 13/30/6 7/29/6 146/29/6 147/30/6
f 12/9/3 123/9/3 140/9/3 139/9/3
f 71/66/3 132/36/3 128/39/3 53/22/3
f 51/67/3 127/37/3 131/35/3 72/68/3
f 72/68/3 131/35/3 132/36/3 71/66/3
f 120/9/1 56/9/1 129/9/1 133/9/1
f 108/9/3 134/9/3 123/9/3 12/9/3
f 57/9/1 119/9/1 135/9/1 130/9/1
f 13/9/3 124/9/3 136/9/3 107/9/3
f 138/22/25 139/21/25 140/41/25 137/39/25
f 142/22/25 141/39/25 144/41/25 143/21/25
f 122/39/1 9/22/1 138/22/1 137/39/1
f 53/22/3 128/39/3 141/39/3 142/22/3
f 128/39/2 129/41/2 144/41/2 141/39/2
f 123/41/2 122/39/2 137/39/2 140/41/2
f 9/22/6 12/21/6 139/21/6 138/22/6
f 56/21/6 53/22/6 142/22/6 143/21/6
f 147/69/26 146/67/26 145/37/26 148/43/26
f 151/69/26 152/43/26 149/37/26 150/67/26
f 130/43/2 127/37/2 149/37/2 152/43/2
f 121/37/2 124/43/2 148/43/2 145/37/2
f 124/9/3 13/9/3 147/9/3 148/9/3
f 57/9/1 130/9/1 152/9/1 151/9/1
f 7/67/1 121/37/1 145/37/1 146/67/1
f 127/37/3 51/67/3 150/67/3 149/37/3
f 119/9/1 120/9/1 133/9/1 135/9/1
f 107/9/3 136/9/3 134/9/3 108/9/3
