# Blender 4.2.4 LTS
# www.blender.org
mtllib MAINWALL2.mtl
o MAINWALL2
v 0.035618 -1.005399 -0.649179
v 0.035618 1.005838 -0.649179
v 0.035620 1.005838 0.831785
v 0.035620 -1.005399 0.831785
v -0.011846 1.005838 0.831787
v -0.011846 -1.005399 0.831787
v -0.010709 1.005837 -0.649189
v -0.012494 -1.005398 -0.649174
v -0.011847 -1.005399 0.629793
v -0.010751 -1.005400 -0.447193
v 0.035619 1.005839 0.629793
v 0.035619 1.005839 -0.447185
v -0.008966 1.005839 -0.447176
v -0.007869 1.005839 0.629793
v 0.035619 -1.005399 0.629793
v 0.035619 -1.005399 -0.447185
v 0.098041 -1.005399 -0.649179
v 0.098041 1.005838 -0.649179
v -0.074269 1.005838 0.831787
v -0.074269 -1.005399 0.831787
v -0.074271 1.005838 -0.649179
v -0.074271 -1.005399 -0.649179
v -0.074270 -1.005399 -0.447184
v 0.098041 1.005839 -0.447185
v -0.074270 -1.005399 0.629793
v -0.074270 1.005839 0.629793
v 0.098041 -1.005399 -0.447185
v -0.074270 1.005839 -0.447184
v 0.035618 -0.833624 -0.649179
v 0.035620 -0.831075 0.831785
v -0.011846 -0.831075 0.831787
v -0.012341 -0.833624 -0.649174
v 0.035619 -0.833624 -0.447185
v 0.035619 -0.833624 0.629793
v -0.007869 -0.829800 -0.446230
v -0.007869 -0.829800 0.630749
v 0.098041 -0.833624 -0.649179
v -0.074269 -0.831075 0.831787
v -0.074271 -0.833624 -0.649179
v 0.098041 -0.833624 -0.447185
v -0.074270 -0.829800 -0.447185
v -0.074270 -0.829800 0.629795
v 0.035618 0.830726 -0.649179
v -0.008418 0.836464 -0.446703
v -0.007869 0.836464 0.630272
v 0.098041 0.830726 -0.649179
v -0.074270 0.830726 -0.447184
v -0.074270 0.830726 0.629793
v 0.035620 0.830726 0.831785
v -0.011846 0.830726 0.831787
v -0.011525 0.830726 -0.649181
v 0.035619 0.830726 -0.447185
v 0.035619 0.830726 0.629793
v -0.074269 0.830726 0.831787
v -0.074271 0.830726 -0.649179
v 0.098041 0.830726 -0.447185
vn -0.0000 -0.0000 1.0000
vn 0.0001 -0.0000 -1.0000
vn -0.0000 -1.0000 -0.0000
vn -0.0038 0.0014 1.0000
vn -0.0000 1.0000 -0.0000
vn 1.0000 -0.0000 -0.0000
vn 0.0864 -0.9963 -0.0000
vn -1.0000 -0.0000 -0.0000
vn 0.0074 0.0026 -1.0000
vn -0.0000 -0.0000 -1.0000
vn -0.0073 -0.0027 1.0000
vn -0.0001 -0.0000 -1.0000
vn 0.0037 -0.0014 -1.0000
vn -1.0000 -0.0002 0.0003
vn -0.0109 0.0001 0.9999
vn -0.0000 1.0000 0.0063
vn 0.0445 -0.9989 -0.0138
vn -0.9998 -0.0000 -0.0198
vt 0.562500 0.250000
vt 0.625000 0.250000
vt 0.625000 0.500000
vt 0.562500 0.500000
vt 0.562500 0.750000
vt 0.625000 0.750000
vt 0.625000 1.000000
vt 0.562500 1.000000
vt 0.291667 0.833333
vt 0.375000 0.666667
vt 0.375000 0.750000
vt 0.375000 1.000000
vt 0.562500 0.666667
vt 0.625000 0.666667
vt 0.625000 0.083333
vt 0.625000 0.000000
vt 0.625000 0.166667
vt 0.625000 0.583333
vt 0.541667 0.270833
vt 0.520833 0.291667
vt 0.125000 0.500000
vt 0.375000 0.500000
vt 0.375000 0.583333
vt 0.208333 0.666667
vt 0.562500 0.583333
vt 0.500000 0.583333
vt 0.458333 0.458333
vt 0.500000 0.750000
vt 0.500000 0.500000
vt 0.500000 1.000000
vt 0.500000 0.666667
vt 0.375000 0.250000
vt 0.500000 0.250000
vt 0.416667 0.416667
vt 0.000000 0.000000
s 0
f 49/1/1 3/2/1 5/3/1 50/4/1
f 51/5/2 7/6/2 2/7/2 43/8/2
f 16/9/3 10/10/3 8/11/3 1/12/3
f 44/13/4 13/14/4 28/14/4 47/13/4
f 12/15/5 2/16/5 7/6/5 13/14/5
f 8/11/3 10/10/3 23/10/3 22/11/3
f 3/2/5 11/17/5 14/18/5 5/3/5
f 11/17/5 12/15/5 13/14/5 14/18/5
f 16/9/3 1/12/3 17/12/3 27/9/3
f 52/19/6 12/15/6 11/17/6 53/20/6
f 4/21/3 6/22/3 9/23/3 15/24/3
f 44/13/7 45/25/7 48/25/7 47/13/7
f 46/1/6 18/16/6 24/15/6 56/19/6
f 48/25/8 54/4/8 19/3/8 26/18/8
f 55/5/8 47/13/8 28/14/8 21/6/8
f 36/26/9 9/23/9 25/23/9 42/26/9
f 2/16/5 12/15/5 24/15/5 18/16/5
f 43/8/10 2/7/10 18/7/10 46/8/10
f 13/14/5 7/6/5 21/6/5 28/14/5
f 33/27/1 16/9/1 27/9/1 40/27/1
f 9/23/3 6/22/3 20/22/3 25/23/3
f 50/4/1 5/3/1 19/3/1 54/4/1
f 5/3/5 14/18/5 26/18/5 19/3/5
f 32/28/2 8/11/2 22/11/2 39/28/2
f 49/1/6 53/20/6 11/17/6 3/2/6
f 6/22/1 31/29/1 38/29/1 20/22/1
f 51/5/10 32/28/10 39/28/10 55/5/10
f 1/12/10 29/30/10 37/30/10 17/12/10
f 22/11/8 23/10/8 41/31/8 39/28/8
f 25/23/8 20/22/8 38/29/8 42/26/8
f 17/12/6 37/29/6 40/27/6 27/9/6
f 15/24/3 9/23/3 10/10/3 16/9/3
f 36/26/5 35/31/5 41/31/5 42/26/5
f 10/10/11 35/31/11 41/31/11 23/10/11
f 8/11/12 32/28/12 29/30/12 1/12/12
f 4/32/1 30/33/1 31/29/1 6/22/1
f 16/9/6 33/27/6 34/34/6 15/24/6
f 23/10/8 25/23/8 42/26/8 41/31/8
f 14/18/13 45/25/13 48/25/13 26/18/13
f 12/15/1 52/19/1 56/19/1 24/15/1
f 7/6/12 51/5/12 55/5/12 21/6/12
f 52/19/1 33/27/1 40/27/1 56/19/1
f 29/30/10 43/8/10 46/8/10 37/30/10
f 39/28/8 41/31/8 47/13/8 55/5/8
f 35/31/14 36/26/14 45/25/14 44/13/14
f 33/27/6 52/19/6 53/20/6 34/34/6
f 14/18/5 13/14/5 28/14/5 26/18/5
f 35/31/15 44/13/15 47/13/15 41/31/15
f 32/28/10 51/5/10 43/8/10 29/30/10
f 10/10/3 9/23/3 25/23/3 23/10/3
f 47/13/8 48/25/8 26/18/8 28/14/8
f 31/35/16 36/35/16 42/35/16 38/35/16
f 50/35/17 54/35/17 48/35/17 45/35/17
f 30/33/1 49/1/1 50/4/1 31/29/1
f 31/35/18 50/35/18 45/35/18 36/35/18
f 4/21/6 15/24/6 34/34/6 30/33/6
f 37/29/6 46/1/6 56/19/6 40/27/6
f 30/33/6 34/34/6 53/20/6 49/1/6
