# Blender 4.2.4 LTS
# www.blender.org
mtllib MAINWALL.mtl
o MAINWALL
v 0.023363 -1.005322 -0.740528
v 0.023363 1.005915 -0.740528
v 0.023364 1.005915 0.740437
v 0.023364 -1.005322 0.740437
v -0.024102 1.005915 0.740437
v -0.024102 -1.005322 0.740437
v -0.022964 1.005914 -0.740537
v -0.024749 -1.005322 -0.740522
v -0.024102 -1.005322 0.538445
v -0.023006 -1.005323 -0.538543
v 0.023364 1.005915 0.538445
v 0.023363 1.005915 -0.538534
v -0.021221 1.005916 -0.538524
v -0.020124 1.005915 0.538445
v 0.023364 -1.005322 0.538445
v 0.023363 -1.005322 -0.538534
v 0.085786 -1.005322 -0.740528
v 0.085786 1.005915 -0.740528
v 0.085787 1.005915 0.740437
v 0.085787 -1.005322 0.740437
v -0.086525 1.005915 0.740437
v -0.086525 -1.005322 0.740437
v -0.086526 1.005915 -0.740528
v -0.086526 -1.005322 -0.740528
v -0.086525 -1.005322 -0.538534
v 0.085786 1.005915 -0.538534
v 0.085787 1.005915 0.538445
v -0.086525 -1.005322 0.538445
v -0.086525 1.005915 0.538445
v 0.085786 -1.005322 -0.538534
v 0.085787 -1.005322 0.538445
v -0.086525 1.005915 -0.538534
v 0.023363 -0.833547 -0.740528
v 0.023364 -0.833547 0.740437
v -0.024102 -0.833547 0.740437
v -0.024596 -0.833547 -0.740524
v 0.023363 -0.833547 -0.538534
v 0.023364 -0.833547 0.538445
v -0.020124 -0.822073 -0.537578
v -0.020124 -0.822073 0.539401
v 0.085786 -0.833547 -0.740528
v 0.085787 -0.833547 0.740437
v -0.086525 -0.833547 0.740437
v -0.086526 -0.833547 -0.740528
v 0.085786 -0.833547 -0.538534
v 0.085787 -0.833547 0.538445
v -0.086525 -0.833547 -0.538534
v -0.086525 -0.833547 0.538445
v 0.023363 0.830803 -0.740528
v -0.020673 0.836541 -0.538051
v -0.020124 0.836540 0.538924
v 0.085786 0.830803 -0.740528
v -0.086525 0.830803 -0.538534
v -0.086525 0.830803 0.538445
v 0.023364 0.830803 0.740437
v -0.024102 0.830803 0.740437
v -0.023780 0.830803 -0.740530
v 0.023363 0.830803 -0.538534
v 0.023364 0.830803 0.538445
v 0.085787 0.830803 0.740437
v -0.086525 0.830803 0.740437
v -0.086526 0.830803 -0.740528
v 0.085786 0.830803 -0.538534
v 0.085787 0.830803 0.538445
vn -0.0000 -0.0000 1.0000
vn 0.0001 -0.0000 -1.0000
vn -0.0000 -1.0000 -0.0000
vn -0.0038 0.0014 1.0000
vn -0.0000 1.0000 -0.0000
vn 1.0000 -0.0000 -0.0000
vn 0.0864 -0.9963 -0.0000
vn -1.0000 -0.0000 -0.0000
vn 0.0072 0.0026 -1.0000
vn -0.0000 -0.0000 -1.0000
vn 0.0108 -0.0001 -0.9999
vn -0.1703 0.9854 -0.0000
vn -0.0070 -0.0027 1.0000
vn -0.0001 -0.0000 -1.0000
vn 0.0037 -0.0014 -1.0000
vn -1.0000 -0.0002 0.0003
vn -0.0109 0.0001 0.9999
vt 0.562500 0.250000
vt 0.625000 0.250000
vt 0.625000 0.500000
vt 0.562500 0.500000
vt 0.562500 0.750000
vt 0.625000 0.750000
vt 0.625000 1.000000
vt 0.562500 1.000000
vt 0.125000 0.500000
vt 0.208333 0.666667
vt 0.291667 0.833333
vt 0.375000 0.666667
vt 0.375000 0.750000
vt 0.375000 1.000000
vt 0.562500 0.666667
vt 0.625000 0.666667
vt 0.625000 0.083333
vt 0.625000 0.000000
vt 0.625000 0.166667
vt 0.625000 0.583333
vt 0.541667 0.270833
vt 0.520833 0.291667
vt 0.562500 0.583333
vt 0.375000 0.500000
vt 0.375000 0.583333
vt 0.500000 0.312500
vt 0.500000 0.583333
vt 0.500000 0.250000
vt 0.375000 0.250000
vt 0.458333 0.458333
vt 0.500000 0.750000
vt 0.416667 0.416667
vt 0.500000 0.500000
vt 0.500000 1.000000
vt 0.375000 0.375000
vt 0.500000 0.666667
s 0
f 55/1/1 3/2/1 5/3/1 56/4/1
f 57/5/2 7/6/2 2/7/2 49/8/2
f 4/9/3 15/10/3 31/10/3 20/9/3
f 16/11/3 10/12/3 8/13/3 1/14/3
f 50/15/4 13/16/4 32/16/4 53/15/4
f 12/17/5 2/18/5 7/6/5 13/16/5
f 8/13/3 10/12/3 25/12/3 24/13/3
f 11/19/5 12/17/5 13/16/5 14/20/5
f 3/2/5 11/19/5 14/20/5 5/3/5
f 58/21/6 12/17/6 11/19/6 59/22/6
f 16/11/3 1/14/3 17/14/3 30/11/3
f 50/15/7 51/23/7 54/23/7 53/15/7
f 4/9/3 6/24/3 9/25/3 15/10/3
f 15/10/3 9/25/3 10/12/3 16/11/3
f 52/1/6 18/18/6 26/17/6 63/21/6
f 54/23/8 61/4/8 21/3/8 29/20/8
f 62/5/8 53/15/8 32/16/8 23/6/8
f 64/22/6 27/19/6 19/2/6 60/26/6
f 40/27/9 9/25/9 28/25/9 48/27/9
f 2/18/5 12/17/5 26/17/5 18/18/5
f 49/8/10 2/7/10 18/7/10 52/8/10
f 13/16/5 7/6/5 23/6/5 32/16/5
f 11/19/5 3/2/5 19/2/5 27/19/5
f 34/28/1 4/29/1 20/29/1 42/28/1
f 37/30/1 16/11/1 30/11/1 45/30/1
f 9/25/3 6/24/3 22/24/3 28/25/3
f 56/4/1 5/3/1 21/3/1 61/4/1
f 59/22/10 11/19/10 27/19/10 64/22/10
f 5/3/5 14/20/5 29/20/5 21/3/5
f 36/31/2 8/13/2 24/13/2 44/31/2
f 57/5/10 36/31/10 44/31/10 62/5/10
f 15/10/10 38/32/10 46/32/10 31/10/10
f 6/24/1 35/33/1 43/33/1 22/24/1
f 58/21/1 37/30/1 45/30/1 63/21/1
f 55/1/1 34/28/1 42/28/1 60/1/1
f 1/14/10 33/34/10 41/34/10 17/14/10
f 51/23/11 40/27/11 48/27/11 54/23/11
f 31/10/6 46/32/6 42/35/6 20/9/6
f 24/13/8 25/12/8 47/36/8 44/31/8
f 28/25/8 22/24/8 43/33/8 48/27/8
f 17/14/6 41/33/6 45/30/6 30/11/6
f 40/27/12 39/36/12 47/36/12 48/27/12
f 16/11/6 37/30/6 38/32/6 15/10/6
f 10/12/13 39/36/13 47/36/13 25/12/13
f 8/13/14 36/31/14 33/34/14 1/14/14
f 4/29/1 34/28/1 35/33/1 6/24/1
f 25/12/8 28/25/8 48/27/8 47/36/8
f 10/12/3 9/25/3 28/25/3 25/12/3
f 14/20/15 51/23/15 54/23/15 29/20/15
f 3/2/1 55/1/1 60/1/1 19/2/1
f 12/17/1 58/21/1 63/21/1 26/17/1
f 7/6/14 57/5/14 62/5/14 23/6/14
f 38/32/10 59/22/10 64/22/10 46/32/10
f 35/33/1 56/4/1 61/4/1 43/33/1
f 33/34/10 49/8/10 52/8/10 41/34/10
f 46/32/6 64/22/6 60/26/6 42/35/6
f 44/31/8 47/36/8 53/15/8 62/5/8
f 48/27/8 43/33/8 61/4/8 54/23/8
f 41/33/6 52/1/6 63/21/6 45/30/6
f 39/36/16 40/27/16 51/23/16 50/15/16
f 37/30/6 58/21/6 59/22/6 38/32/6
f 39/36/17 50/15/17 53/15/17 47/36/17
f 36/31/10 57/5/10 49/8/10 33/34/10
f 34/28/1 55/1/1 56/4/1 35/33/1
f 53/15/8 54/23/8 29/20/8 32/16/8
f 14/20/5 13/16/5 32/16/5 29/20/5
