# Blender 4.2.4 LTS
# www.blender.org
mtllib RAILING.mtl
o RAILING
v 1.127780 -0.157614 1.479631
v 1.127780 -0.157614 -1.478699
v -0.359615 -0.157614 1.479632
v -0.359615 -0.157614 -1.478698
v 1.127780 0.261419 1.479631
v 1.127780 0.261419 -1.478699
v -0.359615 0.261419 1.479632
v -0.359615 0.261419 -1.478698
v -0.112802 -0.134156 1.479632
v -0.114402 -0.157614 1.479632
v -0.101365 -0.079734 1.479632
v -0.082791 -0.029578 1.479632
v -0.057796 0.014384 1.479632
v -0.027338 0.050462 1.479632
v 0.007410 0.077271 1.479632
v 0.045114 0.093780 1.479632
v 0.123536 0.093780 1.479632
v 0.161240 0.077271 1.479632
v 0.084325 0.099354 1.479632
v 0.226446 0.014384 1.479632
v 0.251442 -0.029578 1.479632
v 0.283053 -0.157614 1.479632
v 0.482818 -0.157614 1.479632
v 0.484418 -0.134156 1.479632
v 0.281453 -0.134156 1.479632
v 0.270015 -0.079734 1.479632
v 0.495856 -0.079734 1.479632
v 0.514429 -0.029578 1.479632
v 0.880273 -0.157614 1.479631
v 0.878672 -0.134156 1.479631
v 0.195989 0.050462 1.479632
v 0.539425 0.014384 1.479632
v 0.569882 0.050462 1.479632
v 0.681545 0.099354 1.479631
v 0.642334 0.093780 1.479631
v 0.604630 0.077271 1.479632
v 0.758461 0.077271 1.479631
v 0.793209 0.050462 1.479631
v 0.848662 -0.029578 1.479631
v 0.867235 -0.079734 1.479631
v 0.823666 0.014384 1.479631
v 0.720756 0.093780 1.479631
v -0.112802 -0.134156 -1.478698
v -0.114402 -0.157614 -1.478698
v -0.057796 0.014384 -1.478698
v -0.082791 -0.029578 -1.478698
v -0.101364 -0.079734 -1.478698
v 0.045114 0.093780 -1.478698
v 0.007410 0.077271 -1.478698
v 0.161240 0.077271 -1.478698
v 0.123536 0.093780 -1.478698
v 0.084325 0.099354 -1.478698
v -0.027338 0.050462 -1.478698
v 0.226446 0.014384 -1.478698
v 0.270015 -0.079734 -1.478698
v 0.281453 -0.134156 -1.478698
v 0.283053 -0.157614 -1.478698
v 0.482818 -0.157614 -1.478698
v 0.251442 -0.029578 -1.478698
v 0.514429 -0.029578 -1.478698
v 0.495856 -0.079734 -1.478698
v 0.878673 -0.134156 -1.478699
v 0.880273 -0.157614 -1.478699
v 0.484418 -0.134156 -1.478698
v 0.195989 0.050462 -1.478698
v 0.539425 0.014384 -1.478698
v 0.569882 0.050462 -1.478698
v 0.681546 0.099354 -1.478699
v 0.642335 0.093780 -1.478699
v 0.604630 0.077271 -1.478698
v 0.758461 0.077271 -1.478699
v 0.793209 0.050462 -1.478699
v 0.848662 -0.029578 -1.478699
v 0.867235 -0.079734 -1.478699
v 0.823666 0.014384 -1.478699
v 0.720756 0.093780 -1.478699
v -0.359615 -0.079734 1.296293
v -0.359615 -0.029578 1.277719
v -0.359615 0.014384 1.252724
v -0.359615 0.077271 1.187518
v -0.359615 0.050462 1.222266
v -0.359615 0.093780 1.071392
v -0.359615 0.099354 1.110603
v -0.359615 0.050462 0.998939
v -0.359615 -0.029578 0.943486
v -0.359615 0.014384 0.968482
v -0.359615 0.077271 1.033688
v -0.359615 0.093780 1.149814
v -0.359615 0.014384 0.552723
v -0.359615 -0.029578 0.577719
v -0.359615 0.077271 0.487518
v -0.359615 0.099354 0.410603
v -0.359615 0.093780 0.449814
v -0.359615 0.050462 0.522266
v -0.359615 0.050462 0.298939
v -0.359615 0.077271 0.333687
v -0.359615 0.093780 -0.250186
v -0.359615 0.099354 -0.289397
v -0.359615 0.014384 0.268482
v -0.359615 0.093780 0.371392
v -0.359615 -0.134156 1.307730
v -0.359615 -0.157614 1.309330
v -0.359615 -0.157614 0.911875
v -0.359615 -0.157614 0.609330
v -0.359615 -0.134156 0.913476
v -0.359615 -0.079734 0.924913
v -0.359615 -0.079734 0.596292
v -0.359615 -0.079734 0.224913
v -0.359615 -0.029578 0.243486
v -0.359615 -0.134156 0.607730
v -0.359615 -0.157614 0.211875
v -0.359615 -0.157614 -0.090669
v -0.359615 -0.134156 -0.092270
v -0.359615 -0.134156 0.213475
v -0.359615 -0.079734 -0.103707
v -0.359615 -0.029578 -0.122281
v -0.359615 0.077271 -0.212482
v -0.359615 0.050462 -0.177734
v -0.359615 0.077271 -0.366312
v -0.359615 0.093780 -0.328608
v -0.359616 0.014384 -0.147276
v -0.359615 0.014384 -0.431518
v -0.359615 -0.079734 -0.475087
v -0.359615 -0.029578 -0.456514
v -0.359615 -0.079734 -0.903708
v -0.359615 -0.134156 -0.892270
v -0.359615 -0.157614 -0.890670
v -0.359615 0.050462 -0.977734
v -0.359615 0.014384 -0.947277
v -0.359615 -0.029578 -0.922281
v -0.359615 -0.157614 -0.488125
v -0.359615 -0.134156 -0.486524
v -0.359615 0.050462 -0.401061
v -0.359615 0.093780 -1.050187
v -0.359615 0.093780 -1.128608
v -0.359615 0.077271 -1.166313
v -0.359615 0.099354 -1.089398
v -0.359615 0.014384 -1.231518
v -0.359615 -0.029578 -1.256514
v -0.359615 -0.157614 -1.288125
v -0.359615 -0.134156 -1.286525
v -0.359615 -0.079734 -1.275087
v -0.359615 0.050462 -1.201061
v -0.359615 0.077271 -1.012482
v 0.467682 -0.141410 1.479632
v 0.468329 -0.131928 1.479632
v 0.298189 -0.141410 1.479632
v 0.297542 -0.131928 1.479632
v 0.285626 -0.075230 1.479632
v 0.266179 -0.022715 1.479632
v 0.239793 0.023693 1.479632
v 0.207255 0.062236 1.479632
v 0.169563 0.091316 1.479632
v 0.128008 0.109511 1.479632
v 0.084325 0.115721 1.479632
v 0.040643 0.109511 1.479632
v -0.000912 0.091316 1.479632
v -0.038605 0.062236 1.479632
v -0.071142 0.023693 1.479632
v -0.097529 -0.022715 1.479632
v -0.116975 -0.075230 1.479632
v -0.128891 -0.131928 1.479632
v -0.129538 -0.141410 1.479632
v -0.359615 -0.141410 1.479632
v 1.111577 0.245215 1.479631
v -0.359615 0.245215 1.479632
v 1.111577 -0.141410 1.479631
v 0.895409 -0.141410 1.479631
v 0.894762 -0.131928 1.479631
v 0.882846 -0.075230 1.479631
v 0.863399 -0.022715 1.479631
v 0.837013 0.023693 1.479631
v 0.804475 0.062236 1.479631
v 0.766783 0.091316 1.479631
v 0.725228 0.109511 1.479631
v 0.681545 0.115721 1.479631
v 0.637863 0.109511 1.479631
v 0.596308 0.091316 1.479632
v 0.558615 0.062236 1.479632
v 0.526078 0.023693 1.479632
v 0.499692 -0.022715 1.479632
v 0.480245 -0.075230 1.479632
v 0.297542 -0.131928 -1.478698
v 0.298189 -0.141410 -1.478698
v 0.285626 -0.075230 -1.478698
v 0.266179 -0.022715 -1.478698
v 0.239793 0.023693 -1.478698
v 0.207255 0.062236 -1.478698
v 0.169563 0.091316 -1.478698
v 0.128008 0.109511 -1.478698
v 0.084325 0.115721 -1.478698
v 0.040643 0.109511 -1.478698
v -0.000912 0.091316 -1.478698
v -0.038605 0.062236 -1.478698
v -0.071142 0.023693 -1.478698
v -0.097529 -0.022715 -1.478698
v -0.116975 -0.075230 -1.478698
v -0.128891 -0.131928 -1.478698
v -0.129538 -0.141410 -1.478698
v -0.359615 -0.141410 -1.478698
v 1.111577 0.245215 -1.478699
v -0.359615 0.245215 -1.478698
v 1.111577 -0.141410 -1.478699
v 0.895409 -0.141410 -1.478699
v 0.894762 -0.131928 -1.478699
v 0.882846 -0.075230 -1.478699
v 0.863399 -0.022715 -1.478699
v 0.837013 0.023693 -1.478699
v 0.804476 0.062236 -1.478699
v 0.766783 0.091316 -1.478699
v 0.725228 0.109511 -1.478699
v 0.681546 0.115721 -1.478699
v 0.637863 0.109511 -1.478699
v 0.596308 0.091316 -1.478698
v 0.558616 0.062236 -1.478698
v 0.526078 0.023693 -1.478698
v 0.499692 -0.022715 -1.478698
v 0.480245 -0.075230 -1.478698
v 0.468329 -0.131928 -1.478698
v 0.467682 -0.141410 -1.478698
v -0.359615 -0.141410 1.324466
v -0.359615 -0.141410 -1.303261
v -0.359615 -0.131928 -1.302614
v -0.359615 -0.075230 -1.290698
v -0.359615 -0.022715 -1.271251
v -0.359615 0.023693 -1.244865
v -0.359615 0.062236 -1.212328
v -0.359615 0.091316 -1.174635
v -0.359615 0.109511 -1.133080
v -0.359615 0.115721 -1.089398
v -0.359615 0.109511 -1.045715
v -0.359615 0.091316 -1.004160
v -0.359615 0.062236 -0.966467
v -0.359615 0.023693 -0.933930
v -0.359615 -0.022715 -0.907544
v -0.359615 -0.075230 -0.888097
v -0.359615 -0.131928 -0.876181
v -0.359615 -0.141410 -0.875534
v -0.359615 -0.141410 -0.503261
v -0.359615 -0.131928 -0.502614
v -0.359615 -0.075230 -0.490698
v -0.359615 -0.022715 -0.471251
v -0.359615 0.023693 -0.444865
v -0.359615 0.062236 -0.412327
v -0.359615 0.091316 -0.374635
v -0.359615 0.109511 -0.333080
v -0.359615 0.115721 -0.289397
v -0.359615 0.109511 -0.245714
v -0.359615 0.091316 -0.204160
v -0.359615 0.062236 -0.166467
v -0.359564 0.023693 -0.133930
v -0.359615 -0.022715 -0.107543
v -0.359615 -0.075230 -0.088097
v -0.359615 -0.131928 -0.076181
v -0.359615 -0.141410 -0.075534
v -0.359615 -0.141410 0.196739
v -0.359615 -0.131928 0.197386
v -0.359615 -0.075230 0.209302
v -0.359615 -0.022715 0.228749
v -0.359563 0.023693 0.255135
v -0.359615 0.062236 0.287673
v -0.359615 0.091316 0.325365
v -0.359615 0.109511 0.366920
v -0.359615 0.115721 0.410603
v -0.359615 0.109511 0.454285
v -0.359615 0.091316 0.495840
v -0.359615 0.062236 0.533533
v -0.359615 0.023693 0.566070
v -0.359615 -0.022715 0.592456
v -0.359615 -0.075230 0.611903
v -0.359615 -0.131928 0.623819
v -0.359615 -0.141410 0.624466
v -0.359615 -0.141410 0.896739
v -0.359615 -0.131928 0.897387
v -0.359615 -0.075230 0.909302
v -0.359615 -0.022715 0.928749
v -0.359615 0.023693 0.955135
v -0.359615 0.062236 0.987673
v -0.359615 0.091316 1.025365
v -0.359615 0.109511 1.066920
v -0.359615 0.115721 1.110603
v -0.359615 0.109511 1.154285
v -0.359615 0.091316 1.195840
v -0.359615 0.062236 1.233533
v -0.359615 0.023693 1.266070
v -0.359615 -0.022715 1.292457
v -0.359615 -0.075230 1.311903
v -0.359615 -0.131928 1.323819
v -0.359615 -0.141410 -0.686404
v -0.359615 -0.157614 -0.686404
v -0.359461 -0.141410 0.060603
v -0.359461 -0.157614 0.060603
v -0.359615 -0.141410 0.760603
v -0.359615 -0.157614 0.760603
v 0.382935 -0.141410 1.479632
v 0.382935 -0.157614 1.479632
v 0.382935 -0.141410 -1.478698
v 0.382935 -0.157614 -1.478698
v -0.359140 0.245785 -0.686404
v -0.359140 0.261989 -0.686404
v -0.359461 0.245586 0.069489
v -0.359461 0.261790 0.069489
v -0.359538 0.245400 0.774560
v -0.359538 0.261604 0.774560
v -0.359461 -0.131928 0.060820
v -0.359461 -0.075230 0.062122
v -0.359461 -0.022715 0.063328
v -0.359564 0.023694 0.064394
v -0.359604 -0.131928 -0.686404
v -0.359534 -0.075230 -0.686404
v -0.359470 -0.022715 -0.686404
v -0.359413 0.023693 -0.686404
v -0.359546 0.062236 0.065279
v -0.359532 0.091316 0.065946
v -0.359366 0.062235 -0.686404
v -0.359330 0.091316 -0.686404
v -0.359615 0.246515 -0.289397
v -0.359615 0.260946 -0.289397
v -0.359332 0.245666 -0.233505
v -0.359332 0.261870 -0.233505
v -0.359279 0.245699 -0.358638
v -0.359279 0.261902 -0.358638
vn -0.0000 -0.0000 -1.0000
vn -1.0000 0.0008 0.0003
vn -1.0000 -0.0000 -0.0000
vn -1.0000 -0.0000 -0.0001
vn -1.0000 0.0006 0.0016
vn -1.0000 0.0012 0.0012
vn -1.0000 -0.0005 0.0011
vn -1.0000 0.0012 -0.0011
vn -1.0000 0.0006 -0.0016
vn -1.0000 -0.0005 -0.0011
vn -1.0000 -0.0000 0.0006
vn -1.0000 0.0006 -0.0000
vn -1.0000 -0.0000 -0.0004
vn -1.0000 0.0001 -0.0011
vn -1.0000 0.0001 -0.0001
vn -1.0000 -0.0000 0.0011
vn -1.0000 0.0002 -0.0010
vn -1.0000 0.0001 0.0011
vn -1.0000 -0.0004 -0.0004
vn -1.0000 0.0002 0.0010
vn -1.0000 -0.0004 -0.0002
vn -1.0000 -0.0004 0.0004
vn -1.0000 0.0006 -0.0002
vn -1.0000 0.0007 -0.0006
vn -1.0000 0.0006 0.0002
vn -1.0000 0.0008 -0.0008
vn -1.0000 0.0007 0.0005
vn -1.0000 0.0010 -0.0009
vn -1.0000 0.0008 0.0007
vn -1.0000 0.0004 -0.0003
vn -1.0000 -0.0004 0.0002
vn -1.0000 0.0005 -0.0000
vn -1.0000 0.0004 0.0003
vn -1.0000 0.0012 -0.0009
vn -1.0000 0.0010 0.0009
vn -1.0000 0.0017 -0.0010
vn -1.0000 0.0012 0.0009
vn -1.0000 -0.0000 -0.0049
vn -1.0000 -0.0000 0.0051
vn -1.0000 0.0012 0.0003
vt 0.000000 0.000000
s 1
f 145/1/1 295/1/1 147/1/1 148/1/1 149/1/1 150/1/1 151/1/1 152/1/1 153/1/1 154/1/1 155/1/1 156/1/1 157/1/1 158/1/1 159/1/1 160/1/1 161/1/1 162/1/1 163/1/1 164/1/1 166/1/1 165/1/1 167/1/1 168/1/1 169/1/1 170/1/1 171/1/1 172/1/1 173/1/1 174/1/1 175/1/1 176/1/1 177/1/1 178/1/1 179/1/1 180/1/1 181/1/1 182/1/1 146/1/1
f 183/1/1 185/1/1 186/1/1 187/1/1 188/1/1 189/1/1 190/1/1 191/1/1 192/1/1 193/1/1 194/1/1 195/1/1 196/1/1 197/1/1 198/1/1 199/1/1 200/1/1 202/1/1 201/1/1 203/1/1 204/1/1 205/1/1 206/1/1 207/1/1 208/1/1 209/1/1 210/1/1 211/1/1 212/1/1 213/1/1 214/1/1 215/1/1 216/1/1 217/1/1 218/1/1 219/1/1 220/1/1 297/1/1 184/1/1
f 316/1/2 299/1/2 202/1/2 200/1/2 222/1/2 223/1/2 224/1/2 225/1/2 226/1/2 227/1/2 228/1/2 229/1/2 230/1/2 231/1/2 232/1/2
f 145/1/1 146/1/1 24/1/1 23/1/1
f 295/1/1 145/1/1 23/1/1 296/1/1
f 148/1/1 147/1/1 22/1/1 25/1/1
f 149/1/1 148/1/1 25/1/1 26/1/1
f 150/1/1 149/1/1 26/1/1 21/1/1
f 151/1/1 150/1/1 21/1/1 20/1/1
f 152/1/1 151/1/1 20/1/1 31/1/1
f 153/1/1 152/1/1 31/1/1 18/1/1
f 154/1/1 153/1/1 18/1/1 17/1/1
f 155/1/1 154/1/1 17/1/1 19/1/1
f 156/1/1 155/1/1 19/1/1 16/1/1
f 157/1/1 156/1/1 16/1/1 15/1/1
f 158/1/1 157/1/1 15/1/1 14/1/1
f 159/1/1 158/1/1 14/1/1 13/1/1
f 160/1/1 159/1/1 13/1/1 12/1/1
f 161/1/1 160/1/1 12/1/1 11/1/1
f 162/1/1 161/1/1 11/1/1 9/1/1
f 163/1/1 162/1/1 9/1/1 10/1/1
f 164/1/1 163/1/1 10/1/1 3/1/1
f 165/1/1 166/1/1 7/1/1 5/1/1
f 167/1/1 165/1/1 5/1/1 1/1/1
f 168/1/1 167/1/1 1/1/1 29/1/1
f 169/1/1 168/1/1 29/1/1 30/1/1
f 170/1/1 169/1/1 30/1/1 40/1/1
f 171/1/1 170/1/1 40/1/1 39/1/1
f 172/1/1 171/1/1 39/1/1 41/1/1
f 173/1/1 172/1/1 41/1/1 38/1/1
f 174/1/1 173/1/1 38/1/1 37/1/1
f 175/1/1 174/1/1 37/1/1 42/1/1
f 176/1/1 175/1/1 42/1/1 34/1/1
f 177/1/1 176/1/1 34/1/1 35/1/1
f 178/1/1 177/1/1 35/1/1 36/1/1
f 179/1/1 178/1/1 36/1/1 33/1/1
f 180/1/1 179/1/1 33/1/1 32/1/1
f 181/1/1 180/1/1 32/1/1 28/1/1
f 182/1/1 181/1/1 28/1/1 27/1/1
f 146/1/1 182/1/1 27/1/1 24/1/1
f 183/1/1 184/1/1 57/1/1 56/1/1
f 185/1/1 183/1/1 56/1/1 55/1/1
f 186/1/1 185/1/1 55/1/1 59/1/1
f 187/1/1 186/1/1 59/1/1 54/1/1
f 188/1/1 187/1/1 54/1/1 65/1/1
f 189/1/1 188/1/1 65/1/1 50/1/1
f 190/1/1 189/1/1 50/1/1 51/1/1
f 191/1/1 190/1/1 51/1/1 52/1/1
f 192/1/1 191/1/1 52/1/1 48/1/1
f 193/1/1 192/1/1 48/1/1 49/1/1
f 194/1/1 193/1/1 49/1/1 53/1/1
f 195/1/1 194/1/1 53/1/1 45/1/1
f 196/1/1 195/1/1 45/1/1 46/1/1
f 197/1/1 196/1/1 46/1/1 47/1/1
f 198/1/1 197/1/1 47/1/1 43/1/1
f 199/1/1 198/1/1 43/1/1 44/1/1
f 200/1/1 199/1/1 44/1/1 4/1/1
f 201/1/1 202/1/1 8/1/1 6/1/1
f 203/1/1 201/1/1 6/1/1 2/1/1
f 204/1/1 203/1/1 2/1/1 63/1/1
f 205/1/1 204/1/1 63/1/1 62/1/1
f 206/1/1 205/1/1 62/1/1 74/1/1
f 207/1/1 206/1/1 74/1/1 73/1/1
f 208/1/1 207/1/1 73/1/1 75/1/1
f 209/1/1 208/1/1 75/1/1 72/1/1
f 210/1/1 209/1/1 72/1/1 71/1/1
f 211/1/1 210/1/1 71/1/1 76/1/1
f 212/1/1 211/1/1 76/1/1 68/1/1
f 213/1/1 212/1/1 68/1/1 69/1/1
f 214/1/1 213/1/1 69/1/1 70/1/1
f 215/1/1 214/1/1 70/1/1 67/1/1
f 216/1/1 215/1/1 67/1/1 66/1/1
f 217/1/1 216/1/1 66/1/1 60/1/1
f 218/1/1 217/1/1 60/1/1 61/1/1
f 219/1/1 218/1/1 61/1/1 64/1/1
f 220/1/1 219/1/1 64/1/1 58/1/1
f 297/1/1 220/1/1 58/1/1 298/1/1
f 164/1/3 221/1/3 102/1/3 3/1/3
f 303/1/4 166/1/4 7/1/4 304/1/4
f 222/1/3 200/1/3 4/1/3 140/1/3
f 223/1/3 222/1/3 140/1/3 141/1/3
f 224/1/3 223/1/3 141/1/3 142/1/3
f 225/1/3 224/1/3 142/1/3 139/1/3
f 226/1/3 225/1/3 139/1/3 138/1/3
f 227/1/3 226/1/3 138/1/3 143/1/3
f 228/1/3 227/1/3 143/1/3 136/1/3
f 229/1/3 228/1/3 136/1/3 135/1/3
f 230/1/3 229/1/3 135/1/3 137/1/3
f 231/1/3 230/1/3 137/1/3 134/1/3
f 232/1/3 231/1/3 134/1/3 144/1/3
f 233/1/3 232/1/3 144/1/3 128/1/3
f 234/1/3 233/1/3 128/1/3 129/1/3
f 235/1/3 234/1/3 129/1/3 130/1/3
f 236/1/3 235/1/3 130/1/3 125/1/3
f 237/1/3 236/1/3 125/1/3 126/1/3
f 238/1/3 237/1/3 126/1/3 127/1/3
f 289/1/3 238/1/3 127/1/3 290/1/3
f 240/1/3 239/1/3 131/1/3 132/1/3
f 241/1/3 240/1/3 132/1/3 123/1/3
f 242/1/3 241/1/3 123/1/3 124/1/3
f 243/1/3 242/1/3 124/1/3 122/1/3
f 244/1/3 243/1/3 122/1/3 133/1/3
f 245/1/3 244/1/3 133/1/3 119/1/3
f 246/1/3 245/1/3 119/1/3 120/1/3
f 247/1/3 246/1/3 120/1/3 98/1/3
f 248/1/3 247/1/3 98/1/3 97/1/3
f 249/1/3 248/1/3 97/1/3 117/1/3
f 250/1/3 249/1/3 117/1/3 118/1/3
f 251/1/5 250/1/5 118/1/5 121/1/5
f 252/1/6 251/1/6 121/1/6 116/1/6
f 253/1/3 252/1/3 116/1/3 115/1/3
f 254/1/3 253/1/3 115/1/3 113/1/3
f 255/1/3 254/1/3 113/1/3 112/1/3
f 291/1/7 255/1/7 112/1/7 292/1/7
f 257/1/3 256/1/3 111/1/3 114/1/3
f 258/1/3 257/1/3 114/1/3 108/1/3
f 259/1/3 258/1/3 108/1/3 109/1/3
f 260/1/8 259/1/8 109/1/8 99/1/8
f 261/1/9 260/1/9 99/1/9 95/1/9
f 262/1/3 261/1/3 95/1/3 96/1/3
f 263/1/3 262/1/3 96/1/3 100/1/3
f 264/1/3 263/1/3 100/1/3 92/1/3
f 265/1/3 264/1/3 92/1/3 93/1/3
f 266/1/3 265/1/3 93/1/3 91/1/3
f 267/1/3 266/1/3 91/1/3 94/1/3
f 268/1/3 267/1/3 94/1/3 89/1/3
f 269/1/3 268/1/3 89/1/3 90/1/3
f 270/1/3 269/1/3 90/1/3 107/1/3
f 271/1/3 270/1/3 107/1/3 110/1/3
f 272/1/3 271/1/3 110/1/3 104/1/3
f 293/1/3 272/1/3 104/1/3 294/1/3
f 274/1/3 273/1/3 103/1/3 105/1/3
f 275/1/3 274/1/3 105/1/3 106/1/3
f 276/1/3 275/1/3 106/1/3 85/1/3
f 277/1/3 276/1/3 85/1/3 86/1/3
f 278/1/3 277/1/3 86/1/3 84/1/3
f 279/1/3 278/1/3 84/1/3 87/1/3
f 280/1/3 279/1/3 87/1/3 82/1/3
f 281/1/3 280/1/3 82/1/3 83/1/3
f 282/1/3 281/1/3 83/1/3 88/1/3
f 283/1/3 282/1/3 88/1/3 80/1/3
f 284/1/3 283/1/3 80/1/3 81/1/3
f 285/1/3 284/1/3 81/1/3 79/1/3
f 286/1/3 285/1/3 79/1/3 78/1/3
f 287/1/3 286/1/3 78/1/3 77/1/3
f 288/1/3 287/1/3 77/1/3 101/1/3
f 221/1/3 288/1/3 101/1/3 102/1/3
f 239/1/3 289/1/3 290/1/3 131/1/3
f 256/1/10 291/1/10 292/1/10 111/1/10
f 273/1/3 293/1/3 294/1/3 103/1/3
f 147/1/1 295/1/1 296/1/1 22/1/1
f 184/1/1 297/1/1 298/1/1 57/1/1
f 202/1/11 299/1/11 300/1/11 8/1/11
f 240/1/12 309/1/12 289/1/12 239/1/12
f 319/1/13 301/1/13 302/1/13 320/1/13
f 257/1/14 305/1/14 291/1/14 256/1/14
f 301/1/4 303/1/4 304/1/4 302/1/4
f 164/1/15 166/1/15 303/1/15 293/1/15 273/1/15 274/1/15 275/1/15 276/1/15 277/1/15 278/1/15 279/1/15 280/1/15 281/1/15 282/1/15 283/1/15 284/1/15 285/1/15 286/1/15 287/1/15 288/1/15 221/1/15
f 258/1/14 306/1/14 305/1/14 257/1/14
f 291/1/16 305/1/16 254/1/16 255/1/16
f 259/1/17 307/1/17 306/1/17 258/1/17
f 305/1/18 306/1/18 253/1/18 254/1/18
f 260/1/19 308/1/19 307/1/19 259/1/19
f 306/1/20 307/1/20 252/1/20 253/1/20
f 261/1/21 313/1/21 308/1/21 260/1/21
f 307/1/22 308/1/22 251/1/22 252/1/22
f 241/1/23 310/1/23 309/1/23 240/1/23
f 289/1/12 309/1/12 237/1/12 238/1/12
f 242/1/24 311/1/24 310/1/24 241/1/24
f 309/1/25 310/1/25 236/1/25 237/1/25
f 243/1/26 312/1/26 311/1/26 242/1/26
f 310/1/27 311/1/27 235/1/27 236/1/27
f 244/1/28 315/1/28 312/1/28 243/1/28
f 311/1/29 312/1/29 234/1/29 235/1/29
f 262/1/30 314/1/30 313/1/30 261/1/30
f 308/1/31 313/1/31 250/1/31 251/1/31
f 293/1/32 303/1/32 301/1/32 314/1/32 262/1/32 263/1/32 264/1/32 265/1/32 266/1/32 267/1/32 268/1/32 269/1/32 270/1/32 271/1/32 272/1/32
f 313/1/33 314/1/33 249/1/33 250/1/33
f 245/1/34 316/1/34 315/1/34 244/1/34
f 312/1/35 315/1/35 233/1/35 234/1/35
f 247/1/36 317/1/36 321/1/36 299/1/36 316/1/36 245/1/36 246/1/36
f 315/1/37 316/1/37 232/1/37 233/1/37
f 321/1/38 317/1/38 318/1/38 322/1/38
f 317/1/39 319/1/39 320/1/39 318/1/39
f 299/1/13 321/1/13 322/1/13 300/1/13
f 314/1/40 301/1/40 319/1/40 317/1/40 247/1/40 248/1/40 249/1/40
