# Blender 4.2.4 LTS
# www.blender.org
mtllib ROOFCOURNER.mtl
o ROOFCOURNER
v 0.051052 0.299940 -0.446775
v -0.456323 0.299940 0.060600
v -0.016923 0.299940 -0.193088
v -0.202635 0.299940 -0.007376
v 0.081463 -0.269946 0.598386
v 0.588838 -0.269946 0.091011
v 0.335151 -0.269946 0.530410
v 0.520863 -0.269946 0.344698
v 0.051052 0.299940 -0.537890
v 0.588837 -0.269946 -0.537890
v -0.509125 0.299940 0.060599
v -0.509125 -0.269946 0.598385
v -0.509125 0.299940 -0.537890
v -0.509125 -0.269946 -0.537890
v 0.428007 -0.269946 0.437554
v -0.109779 0.299940 -0.100232
v -0.198385 0.299940 -0.197338
v 0.038272 -0.269946 0.031887
v 0.337011 -0.269946 0.342838
vn 0.7273 0.6863 -0.0000
vn 0.1693 0.7562 0.6320
vn 0.4240 0.8003 0.4240
vn 0.6320 0.7562 0.1693
vn -0.0000 1.0000 -0.0000
vn -0.0000 0.6863 0.7273
vn -0.0000 -1.0000 -0.0000
vn -0.0000 -0.0000 -1.0000
vn -1.0000 -0.0000 -0.0000
vt 0.375000 0.659635
vt 0.375000 0.728905
vt 0.625000 0.732106
vt 0.625000 0.660702
vt 0.625000 0.767894
vt 0.624749 0.758938
vt 0.374749 0.760539
vt 0.375000 0.771095
vt 0.624749 0.750000
vt 0.624749 0.741062
vt 0.374749 0.739461
vt 0.374749 0.750000
vt 0.363119 0.724747
vt 0.368313 0.743313
vt 0.372174 0.739453
vt 0.375000 0.840365
vt 0.625000 0.839298
vt 0.642894 0.750000
vt 0.638792 0.740987
vt 0.630672 0.744328
vt 0.633947 0.747603
vt 0.714298 0.709926
vt 0.344903 0.659635
vt 0.714298 0.750000
vt 0.284635 0.750000
vt 0.353905 0.750000
vt 0.364453 0.747174
vt 0.665450 0.730021
vt 0.627397 0.741053
s 0
f 9/1/1 1/2/1 6/3/1 10/4/1
f 5/5/2 7/6/2 4/7/2 2/8/2
f 15/9/3 8/10/3 3/11/3 16/12/3
f 8/10/4 6/3/4 1/2/4 3/11/4
f 17/13/5 16/14/5 3/15/5 1/2/5
f 2/8/6 11/16/6 12/17/6 5/5/6
f 5/18/7 19/19/7 15/20/7 7/21/7
f 10/4/8 14/22/8 13/23/8 9/1/8
f 12/24/9 11/25/9 13/23/9 14/22/9
f 7/6/3 15/9/3 16/12/3 4/7/3
f 2/26/5 4/27/5 16/14/5 17/13/5
f 11/25/5 2/26/5 17/13/5 13/23/5
f 13/23/5 17/13/5 1/2/5 9/1/5
f 10/4/7 18/28/7 14/22/7
f 14/22/7 18/28/7 12/24/7
f 6/3/7 19/19/7 18/28/7 10/4/7
f 8/29/7 15/20/7 19/19/7 6/3/7
f 12/24/7 18/28/7 19/19/7 5/18/7
