# Blender 4.2.4 LTS
# www.blender.org
mtllib ROOFCOURNER4.mtl
o ROOFCOURNER4
v 0.456323 0.299940 0.060600
v -0.051052 0.299940 -0.446775
v 0.202635 0.299940 -0.007376
v 0.016923 0.299940 -0.193088
v -0.588838 -0.269946 0.091011
v -0.081464 -0.269946 0.598386
v -0.520863 -0.269946 0.344698
v -0.335151 -0.269946 0.530410
v -0.051051 0.299940 -0.537890
v -0.588837 -0.269946 -0.537890
v 0.509125 0.299940 0.060599
v 0.509125 -0.269946 0.598385
v 0.509125 0.299940 -0.537890
v 0.509125 -0.269946 -0.537890
v 0.109780 0.299940 -0.100232
v -0.428007 -0.269946 0.437554
v 0.198385 0.299940 -0.197338
v -0.038272 -0.269946 0.031886
v -0.337011 -0.269946 0.342838
vn -0.0000 0.6863 0.7273
vn -0.1693 0.7562 0.6320
vn -0.4240 0.8003 0.4240
vn -0.6320 0.7562 0.1693
vn -0.7273 0.6863 -0.0000
vn -0.0000 1.0000 -0.0000
vn -0.0000 -1.0000 -0.0000
vn 1.0000 -0.0000 -0.0000
vn -0.0000 -0.0000 -1.0000
vt 0.375000 0.909635
vt 0.375000 0.978905
vt 0.625000 0.982106
vt 0.625000 0.910702
vt 0.375000 1.000000
vt 0.623823 1.000000
vt 0.374875 0.005270
vt 0.374749 0.010539
vt 0.624749 0.008938
vt 0.624286 0.004469
vt 0.375000 0.021095
vt 0.625000 0.017894
vt 0.375000 0.090365
vt 0.625000 0.089298
vt 0.136881 0.724747
vt 0.131687 0.743313
vt 0.135547 0.747174
vt 0.146095 0.750000
vt 0.875000 0.732106
vt 0.861208 0.740987
vt 0.869328 0.744328
vt 0.872603 0.741053
vt 0.785702 0.750000
vt 0.785702 0.709926
vt 0.155097 0.659635
vt 0.215365 0.750000
vt 0.875000 0.660702
vt 0.125000 0.659635
vt 0.375000 0.000000
vt 0.623823 0.000000
vt 0.125000 0.728905
vt 0.127826 0.739453
vt 0.834549 0.730021
vt 0.857106 0.750000
vt 0.866053 0.747603
s 0
f 11/1/1 1/2/1 6/3/1 12/4/1
f 1/2/2 3/5/2 8/6/2 6/3/2
f 15/7/3 4/8/3 7/9/3 16/10/3
f 4/8/4 2/11/4 5/12/4 7/9/4
f 2/11/5 9/13/5 10/14/5 5/12/5
f 17/15/6 15/16/6 3/17/6 1/18/6
f 5/19/7 19/20/7 16/21/7 7/22/7
f 12/23/8 14/24/8 13/25/8 11/26/8
f 10/27/9 9/28/9 13/25/9 14/24/9
f 3/29/3 15/7/3 16/10/3 8/30/3
f 2/31/6 4/32/6 15/16/6 17/15/6
f 9/28/6 2/31/6 17/15/6 13/25/6
f 13/25/6 17/15/6 1/18/6 11/26/6
f 12/23/7 18/33/7 14/24/7
f 6/34/7 19/20/7 18/33/7 12/23/7
f 14/24/7 18/33/7 10/27/7
f 8/35/7 16/21/7 19/20/7 6/34/7
f 10/27/7 18/33/7 19/20/7 5/19/7
