# Blender 4.2.4 LTS
# www.blender.org
mtllib WALLCURVE2.mtl
o WALLCURVE2
v 0.312063 0.551362 1.477627
v 0.312063 0.650925 1.477627
v 0.757385 0.551362 1.479918
v 0.757385 0.655441 1.479918
v 0.312063 0.551362 -1.480703
v 0.312063 0.650925 -1.480703
v 0.757385 0.655441 -1.478412
v 0.757385 0.551362 -1.478412
v -0.646514 0.551362 1.479919
v -0.646514 0.655441 1.479919
v -0.646514 0.655441 -1.478411
v -0.646514 0.551362 -1.478411
v -0.387558 0.551362 1.479919
v 0.206320 0.023082 1.479919
v -0.152558 0.655441 1.479919
v -0.160291 0.506156 1.479919
v 0.032377 0.377419 1.479919
v 0.161114 0.184752 1.479919
v 0.206320 0.023082 -1.478411
v -0.387558 0.551362 -1.478411
v 0.161114 0.184752 -1.478411
v 0.032377 0.377420 -1.478411
v -0.160291 0.506156 -1.478411
v 0.307764 0.551362 -1.058085
v 0.307764 0.551362 -0.635466
v 0.307764 0.551362 -0.212847
v 0.307764 0.551362 0.209771
v 0.307764 0.551362 0.632390
v 0.307764 0.551362 1.055008
v 0.312063 0.650925 1.055009
v 0.312063 0.650925 0.632390
v 0.312063 0.650925 0.209771
v 0.312063 0.650925 -0.212847
v 0.312063 0.650925 -0.635466
v 0.312063 0.650925 -1.058085
v 0.757385 0.551362 1.057299
v 0.757385 0.551362 0.634681
v 0.757385 0.551362 0.212062
v 0.757385 0.551362 -0.210556
v 0.757385 0.551362 -0.633175
v 0.757385 0.551362 -1.055794
v 0.757385 0.655441 -1.055794
v 0.757385 0.655441 -0.633175
v 0.757385 0.655441 -0.210556
v 0.757385 0.655441 0.212062
v 0.757385 0.655441 0.634681
v 0.757385 0.655441 1.057299
v -0.646514 0.655441 1.057301
v -0.646514 0.655441 0.634682
v -0.646514 0.655441 0.212064
v -0.646514 0.655441 -0.210555
v -0.646514 0.655441 -0.633174
v -0.646514 0.655441 -1.055792
v -0.646514 0.551362 -1.055792
v -0.646514 0.551362 -0.633174
v -0.646514 0.551362 -0.210555
v -0.646514 0.551362 0.212063
v -0.646514 0.551362 0.634682
v -0.646514 0.551362 1.057301
v 0.206320 0.023082 -1.055792
v 0.206320 0.023082 -0.633174
v 0.206320 0.023082 -0.210555
v 0.206320 0.023082 0.212064
v 0.206320 0.023082 0.634682
v 0.206320 0.023082 1.057301
v 0.161114 0.184752 1.057301
v 0.161114 0.184752 0.634682
v 0.161114 0.184752 0.212064
v 0.161114 0.184752 -0.210555
v 0.161114 0.184752 -0.633174
v 0.161114 0.184752 -1.055792
v 0.032377 0.377419 1.057301
v 0.032377 0.377419 0.634682
v 0.032377 0.377419 0.212064
v 0.032377 0.377419 -0.210555
v 0.032377 0.377419 -0.633174
v 0.032377 0.377419 -1.055792
v -0.160291 0.506156 1.057301
v -0.160291 0.506156 0.634682
v -0.160291 0.506156 0.212064
v -0.160291 0.506156 -0.210555
v -0.160291 0.506156 -0.633174
v -0.160291 0.506156 -1.055792
v -0.387558 0.551362 1.057301
v -0.387558 0.551362 0.634682
v -0.387558 0.551362 0.212064
v -0.387558 0.551362 -0.210555
v -0.387558 0.551362 -0.633174
v -0.387558 0.551362 -1.055792
v 0.226868 -0.120468 1.477627
v 0.226868 -0.120468 -1.480704
v 0.226868 -0.120468 1.055008
v 0.226868 -0.120468 0.632390
v 0.226868 -0.120468 0.209771
v 0.226868 -0.120468 -0.212848
v 0.226868 -0.120468 -0.635466
v 0.226868 -0.120468 -1.058085
v -0.646514 0.438645 1.057301
v -0.646514 0.438645 1.479919
v -0.398606 0.439188 1.479919
v -0.203426 0.402019 1.479919
v -0.047326 0.297716 1.479919
v 0.056976 0.141617 1.479919
v 0.094145 0.012034 1.479919
v 0.094145 0.012034 -1.478411
v 0.056976 0.141617 -1.478411
v -0.047326 0.297716 -1.478411
v -0.203426 0.402019 -1.478411
v -0.398606 0.439188 -1.478411
v 0.093843 0.015721 1.057301
v 0.056976 0.141617 -1.055792
v -0.047326 0.297716 -1.055792
v -0.203426 0.402019 -1.055792
v -0.398606 0.439188 -1.055792
v -0.646514 0.438645 -1.478411
v -0.646514 0.438645 -1.055792
v -0.646514 0.438645 -0.633174
v -0.646514 0.438645 -0.210555
v -0.646514 0.438645 0.212063
v -0.646514 0.438645 0.634682
v 0.093843 0.015721 -1.055792
v 0.093843 0.015721 -0.633174
v 0.093843 0.015721 -0.210555
v 0.093843 0.015721 0.212064
v 0.093843 0.015721 0.634682
v 0.056976 0.141617 1.057301
v 0.056976 0.141617 0.634682
v 0.056976 0.141617 0.212064
v 0.056976 0.141617 -0.210555
v 0.056976 0.141617 -0.633174
v -0.047326 0.297716 1.057301
v -0.047326 0.297716 0.634682
v -0.047326 0.297716 0.212064
v -0.047326 0.297716 -0.210555
v -0.047326 0.297716 -0.633174
v -0.203426 0.402019 1.057301
v -0.203426 0.402019 0.634682
v -0.203426 0.402019 0.212064
v -0.203426 0.402019 -0.210555
v -0.203426 0.402019 -0.633174
v -0.398606 0.439188 1.057301
v -0.398606 0.439188 0.634682
v -0.398606 0.439188 0.212064
v -0.398606 0.439188 -0.210555
v -0.398606 0.439188 -0.633174
v 0.093602 -0.119168 1.479919
v 0.093602 -0.119168 -1.478411
v 0.093602 -0.119168 1.057301
v 0.093602 -0.119168 0.634682
v 0.093602 -0.119168 0.212064
v 0.093602 -0.119168 -0.210555
v 0.093602 -0.119168 -0.633174
v 0.093602 -0.119168 -1.055793
v -0.646412 0.391969 1.057301
v -0.646412 0.391969 1.479919
v 0.047167 0.015855 1.057318
v 0.047470 0.012168 1.479937
v -0.398504 0.392512 -1.055792
v -0.398504 0.392512 -1.478411
v -0.398504 0.392512 1.479919
v -0.646412 0.391969 -1.478411
v -0.646412 0.391969 -1.055792
v -0.646412 0.391969 -0.633174
v -0.646412 0.391969 -0.210555
v -0.646412 0.391969 0.212063
v -0.646412 0.391969 0.634682
v 0.047470 0.012168 -1.478428
v 0.047167 0.015855 -1.055809
v 0.047167 0.015802 -0.633174
v 0.047167 0.015802 -0.210555
v 0.047167 0.015802 0.212064
v 0.047167 0.015802 0.634682
v -0.398504 0.392512 1.057301
v -0.398504 0.392512 0.634682
v -0.398504 0.392512 0.212064
v -0.398504 0.392512 -0.210555
v -0.398504 0.392512 -0.633174
v 0.046927 -0.119168 1.479937
v 0.046927 -0.119168 -1.478428
v 0.046927 -0.119168 1.057318
v 0.046927 -0.119168 0.634682
v 0.046927 -0.119168 0.212064
v 0.046927 -0.119168 -0.210555
v 0.046927 -0.119168 -0.633174
v 0.046927 -0.119168 -1.055810
v -0.384826 0.655441 1.479919
v -0.384826 0.655441 -1.478411
v -0.384826 0.655441 1.057301
v -0.384826 0.655441 0.634682
v -0.384826 0.655441 0.212064
v -0.384826 0.655441 -0.210555
v -0.384826 0.655441 -0.633174
v -0.384826 0.655441 -1.055792
v -0.152558 0.655441 -1.478411
v -0.152558 0.655441 1.057301
v -0.152558 0.655441 0.634682
v -0.152558 0.655441 0.212064
v -0.152558 0.655441 -0.210555
v -0.152558 0.655441 -0.633174
v -0.152558 0.655441 -1.055792
v 0.312063 0.220206 1.477627
v 0.312063 0.220206 -1.480703
v 0.307764 0.220206 -1.058085
v 0.307764 0.220206 -0.635466
v 0.307764 0.220206 -0.212847
v 0.307764 0.220206 0.209771
v 0.307764 0.220206 0.632390
v 0.307764 0.220206 1.055008
v 0.312063 -0.120468 1.477627
v 0.307764 -0.120468 -1.058085
v 0.307764 -0.120468 -0.635466
v 0.307764 -0.120468 -0.212848
v 0.307764 -0.120468 0.209771
v 0.307764 -0.120468 0.632390
v 0.307764 -0.120468 1.055008
v 0.312063 -0.120468 -1.480704
v 0.312063 0.045586 -1.480703
v 0.312063 0.045586 1.477627
v 0.307764 0.045586 -1.058085
v 0.307764 0.045586 -0.635466
v 0.307764 0.045586 -0.212847
v 0.307764 0.045586 0.209771
v 0.307764 0.045586 0.632390
v 0.307764 0.045586 1.055008
v -0.730011 0.655441 1.479919
v -0.730011 0.551362 1.479919
v -0.730011 0.655441 -1.055792
v -0.730011 0.655441 -1.478411
v -0.730011 0.551362 -1.478411
v -0.730011 0.551362 1.057301
v -0.730011 0.655441 1.057301
v -0.730011 0.655441 0.634682
v -0.730011 0.655441 0.212064
v -0.730011 0.655441 -0.210555
v -0.730011 0.655441 -0.633174
v -0.730011 0.551362 -1.055792
v -0.730011 0.551362 -0.633174
v -0.730011 0.551362 -0.210555
v -0.730011 0.551362 0.212063
v -0.730011 0.551362 0.634682
v 0.226869 -1.355235 1.055008
v 0.312063 -1.354976 1.055009
v 0.226869 -1.355235 0.632390
v 0.312063 -1.354976 0.632390
v 0.226869 -1.355235 0.209771
v 0.312063 -1.354976 0.209771
v 0.226869 -1.355235 -0.212848
v 0.312063 -1.354976 -0.212848
v 0.226869 -1.355235 -0.635466
v 0.312063 -1.354976 -0.635467
v 0.226869 -1.355235 -1.058085
v 0.312063 -1.354976 -1.058085
v 0.226868 -1.354976 1.477627
v 0.226864 -1.357127 -1.480707
v 0.312063 -1.356634 -1.480705
v 0.312063 -1.354483 1.477627
v 0.312063 -1.167992 -0.633174
v 0.312063 -1.167992 -0.210556
v 0.227927 -1.167992 0.634682
v 0.227927 -1.167992 0.212063
v 0.226868 -1.173878 -1.480704
v 0.312063 -1.167992 -1.480705
v 0.227927 -1.167992 1.057301
v 0.312063 -1.167992 -1.055793
v 0.226868 -1.169169 1.477627
v 0.227927 -1.167992 -1.055793
v 0.312063 -1.169169 1.477627
v 0.312063 -1.167992 1.057301
v 0.227927 -1.167992 -0.633174
v 0.312063 -1.167992 0.634682
v 0.227927 -1.167992 -0.210556
v 0.312063 -1.167992 0.212063
v 0.156487 -1.167992 0.209771
v 0.156488 -1.355898 0.209772
v 0.156489 -1.356820 -1.058084
v 0.156489 -1.356512 -0.635465
v 0.156489 -1.356205 -0.212847
v 0.156488 -1.355591 0.632390
v 0.156488 -1.355283 1.055008
v 0.156487 -1.354976 1.477627
v 0.156489 -1.357127 -1.480702
v 0.156487 -1.167991 0.632389
v 0.156487 -1.169169 -1.480704
v 0.156487 -1.167991 1.055008
v 0.156487 -1.169169 1.477627
v 0.156487 -1.167991 -1.058085
v 0.156487 -1.167991 -0.635467
v 0.156487 -1.167991 -0.212848
v 0.378609 -1.167991 -0.212848
v 0.380759 -1.356205 -0.212847
v 0.380759 -1.169169 -1.480704
v 0.380759 -1.357127 -1.480704
v 0.380759 -1.355283 1.055009
v 0.380759 -1.355590 0.632390
v 0.380759 -1.355898 0.209771
v 0.380760 -1.356512 -0.635466
v 0.380760 -1.356819 -1.058084
v 0.380759 -1.354976 1.477627
v 0.380759 -1.169169 1.477627
v 0.378609 -1.167991 -0.635467
v 0.378609 -1.167991 -1.058085
v 0.378609 -1.167991 1.055008
v 0.378609 -1.167991 0.632390
v 0.378609 -1.167991 0.209771
vn -0.0000 -0.0000 -1.0000
vn -0.0002 1.0000 -0.0000
vn 0.0049 1.0000 -0.0000
vn -0.0101 0.9999 -0.0000
vn -0.0000 -1.0000 -0.0000
vn 1.0000 -0.0000 -0.0000
vn -0.0002 0.0011 1.0000
vn 0.0024 0.0015 1.0000
vn -0.0051 -0.0000 1.0000
vn -0.0024 -0.0015 -1.0000
vn 0.0002 -0.0011 -1.0000
vn 0.0051 -0.0000 -1.0000
vn -0.0097 -1.0000 -0.0000
vn -0.0065 -1.0000 -0.0000
vn -0.0000 1.0000 -0.0000
vn 0.0024 0.0012 1.0000
vn 0.0016 0.0008 1.0000
vn 0.0038 0.0013 1.0000
vn -0.0000 -0.0000 1.0000
vn 0.0106 -0.9999 0.0002
vn 0.0084 -1.0000 0.0002
vn 0.0138 -0.9999 0.0004
vn 0.0181 -0.9998 0.0004
vn -0.0029 -1.0000 0.0002
vn -0.0052 -1.0000 0.0002
vn -0.0134 -0.9999 0.0004
vn -0.0089 -1.0000 0.0004
vn -1.0000 -0.0000 -0.0000
vn -1.0000 -0.0011 -0.0000
vn -0.9631 -0.2693 -0.0000
vn -0.9086 -0.4176 -0.0000
vn -0.7071 -0.7071 -0.0000
vn -0.0103 0.0031 -0.9999
vn -0.0076 0.0047 -1.0000
vn -0.0046 0.0038 -1.0000
vn -0.0031 0.0026 -1.0000
vn -0.3827 -0.9239 -0.0000
vn 0.0076 -0.0047 1.0000
vn 0.0103 -0.0031 0.9999
vn 0.0033 -0.0026 1.0000
vn 0.0050 -0.0038 1.0000
vn -0.0980 -0.9952 -0.0000
vn -0.0016 -0.0008 -1.0000
vn -0.0038 -0.0013 -1.0000
vn -0.0071 -0.0013 -1.0000
vn -0.3789 -0.9254 -0.0000
vn -0.1871 -0.9823 -0.0000
vn -0.9066 -0.4219 -0.0004
vn -0.9605 -0.2783 -0.0009
vn -0.9605 -0.2783 0.0009
vn -0.9066 -0.4219 0.0004
vn -0.9597 -0.2810 -0.0000
vn -0.9060 -0.4232 -0.0000
vn -0.0049 -1.0000 -0.0000
vn -1.0000 -0.0022 -0.0000
vn 0.0004 -0.0000 1.0000
vn -1.0000 0.0018 -0.0000
vn 1.0000 0.0022 -0.0000
vn -0.0048 -1.0000 -0.0000
vn 0.0071 0.0013 1.0000
vn -0.0653 0.9979 -0.0000
vn 0.0022 -1.0000 -0.0000
vn -1.0000 0.0029 0.0004
vn -1.0000 0.0029 -0.0004
vn 0.0004 -0.0000 -1.0000
vn -0.0004 -0.0000 -1.0000
vn 0.0029 1.0000 -0.0087
vn -0.0004 -0.0000 1.0000
vn 0.0017 1.0000 -0.0000
vn 0.0029 1.0000 0.0087
vn -0.0024 -0.0012 -1.0000
vn 1.0000 -0.0000 -0.0051
vn 1.0000 -0.0000 0.0051
vn 0.9999 -0.0000 0.0102
vn 0.9999 -0.0000 -0.0102
vn 1.0000 0.0015 -0.0038
vn 1.0000 0.0021 -0.0000
vn 1.0000 0.0015 0.0038
vn 1.0000 0.0010 0.0076
vn 1.0000 0.0010 -0.0076
vn 0.0154 -0.0015 0.9999
vn 0.0128 0.0023 0.9999
vn 0.0064 -0.0033 1.0000
vn -0.0128 -0.0023 -0.9999
vn -0.0154 0.0015 -0.9999
vn -0.0064 0.0033 -1.0000
vn 0.0024 -1.0000 0.0008
vn 0.0027 -1.0000 0.0005
vn -0.0013 -1.0000 0.0005
vn -0.0007 -1.0000 0.0009
vn 0.0040 -1.0000 0.0002
vn 0.0062 -1.0000 0.0002
vn -0.0074 -1.0000 0.0002
vn -0.0097 -1.0000 0.0002
vn 0.0098 -1.0000 0.0018
vn -0.0085 -1.0000 0.0017
vn 0.0078 -1.0000 0.0034
vn -0.0063 -1.0000 0.0033
vn -0.0063 -1.0000 0.0007
vn 0.0158 -0.9999 0.0015
vn -0.0058 -1.0000 0.0009
vn 0.0113 -0.9999 0.0026
vn 0.0087 1.0000 -0.0014
vn 0.0042 1.0000 -0.0007
vn 0.0044 1.0000 -0.0007
vn 1.0000 0.0041 -0.0000
vn -1.0000 -0.0010 -0.0000
vn 1.0000 0.0031 -0.0026
vn -1.0000 -0.0008 0.0006
vn 1.0000 0.0020 -0.0051
vn -1.0000 -0.0005 0.0013
vn -1.0000 -0.0008 -0.0006
vn 1.0000 0.0031 0.0025
vn -1.0000 -0.0005 -0.0013
vn 1.0000 0.0021 0.0051
vn 0.0094 -1.0000 0.0004
vn -0.0000 1.0000 0.0014
vn 0.0050 -1.0000 0.0004
vn 0.0163 0.9999 -0.0041
vn 0.0170 0.9998 -0.0043
vn 0.0016 -1.0000 0.0005
vn -0.0000 1.0000 0.0028
vn 0.0003 -1.0000 0.0007
vn 0.0333 0.9994 -0.0084
vn 1.0000 0.0057 0.0025
vn 1.0000 0.0086 0.0013
vn 0.9999 0.0114 -0.0000
vn 1.0000 0.0086 -0.0013
vn 1.0000 0.0058 -0.0025
vn 0.9999 0.0115 -0.0000
vn -0.0179 -0.9998 0.0004
vn -0.0224 -0.9998 0.0004
vn -0.0208 -0.9998 0.0013
vn -0.0170 -0.9999 0.0023
vt 0.598630 0.212623
vt 0.582283 0.278011
vt 0.625000 0.750000
vt 0.625000 0.714286
vt 0.625000 0.330770
vt 0.625000 0.326115
vt 0.625000 0.535714
vt 0.625000 0.500000
vt 0.625000 0.035714
vt 0.625000 0.000000
vt 0.625000 0.250000
vt 0.625000 0.307590
vt 0.598401 0.284968
vt 0.585101 0.302452
vt 0.625000 0.172769
vt 0.625000 0.192029
vt 0.625000 0.891295
vt 0.619310 1.323666
vt 0.603105 1.000000
vt 0.592962 0.271008
vt 0.605223 0.221967
vt 0.611700 0.267484
vt 0.611815 0.231311
vt 0.603641 0.264006
vt 0.598802 0.571429
vt 0.585703 0.607143
vt 0.559505 0.678571
vt 0.572604 0.642857
vt 0.614321 0.257003
vt 0.618407 0.240656
vt 0.571604 0.285014
vt 0.560924 0.292017
vt 0.585445 0.193934
vt 0.592038 0.203278
vt 0.625000 0.071429
vt 0.625000 0.107143
vt 0.625000 0.178571
vt 0.625000 0.214286
vt 0.625000 0.142857
vt 0.531903 1.000000
vt 0.550245 1.000000
vt 0.625000 0.714286
vt 0.625000 0.678571
vt 0.625000 0.678571
vt 0.625000 0.642857
vt 0.625000 0.642857
vt 0.625000 0.607143
vt 0.625000 0.607143
vt 0.625000 0.571429
vt 0.625000 0.211289
vt 0.625000 0.230549
vt 0.625000 0.249809
vt 0.625000 0.269069
vt 0.625000 0.288329
vt 0.625000 1.000000
vt 0.578853 0.184590
vt 0.550245 0.299020
vt 0.571802 0.319936
vt 0.545202 0.354904
vt 0.531903 0.372388
vt 0.558502 0.337420
vt 0.578853 1.000000
vt 0.625000 0.358705
vt 0.625000 0.354049
vt 0.625000 0.349393
vt 0.625000 0.344738
vt 0.625000 0.340082
vt 0.625000 0.335426
vt 0.625000 0.942410
vt 0.589270 0.714286
vt 0.595225 0.678571
vt 0.601180 0.642857
vt 0.607135 0.607143
vt 0.613090 0.571429
vt 0.619045 0.535714
vt 0.625000 0.500000
vt 0.583315 0.750000
vt 0.573627 0.678571
vt 0.563352 0.714286
vt 0.546406 0.714286
vt 0.583902 0.642857
vt 0.594176 0.607143
vt 0.604451 0.571429
vt 0.614725 0.535714
vt 0.611901 0.535714
vt 0.553078 0.750000
vt 0.533307 0.750000
s 1
f 68/1/1 63/2/1 124/2/1 128/1/1
f 2/3/2 30/4/2 195/5/3 15/6/3
f 42/7/4 7/8/4 6/8/2 35/7/2
f 24/7/5 5/8/5 8/8/5 41/7/5
f 41/7/6 8/8/6 7/8/6 42/7/6
f 59/9/5 9/10/5 226/10/5 230/9/5
f 2/3/7 1/3/8 3/3/9 4/3/9
f 20/11/1 12/11/1 11/11/1 187/12/1
f 5/8/10 6/8/11 7/8/12 8/8/12
f 96/13/13 95/14/13 151/14/14 152/13/14
f 186/15/15 188/16/15 48/9/15 10/10/15
f 15/17/16 16/18/17 17/19/18 1/3/8 2/3/7
f 62/20/19 69/21/19 129/21/19 123/20/19
f 97/22/13 96/13/13 152/13/14 153/22/14
f 70/23/1 61/24/1 122/24/1 130/23/1
f 257/25/15 258/26/15 289/26/15 300/25/15
f 249/13/20 247/14/21 277/14/22 276/13/23
f 244/27/24 246/28/25 295/28/26 294/27/27
f 271/14/15 269/13/15 287/13/15 288/14/15
f 272/28/15 270/27/15 303/27/15 304/28/15
f 261/11/1 254/11/1 281/11/1 283/11/1
f 261/11/1 262/8/1 255/8/1 254/11/1
f 9/10/28 59/9/28 98/9/29 99/10/29
f 60/29/30 61/24/30 70/23/31 71/30/31
f 60/29/19 71/30/19 111/30/19 121/29/19
f 62/20/30 63/2/30 68/1/31 69/21/31
f 84/9/1 78/9/1 136/9/1 141/9/1
f 64/31/30 65/32/30 66/33/31 67/34/31
f 58/35/28 57/36/28 119/36/29 120/35/29
f 71/30/31 70/23/31 76/37/32 77/38/32
f 79/35/19 85/35/19 142/35/19 137/35/19
f 69/21/31 68/1/31 74/36/32 75/39/32
f 86/36/1 80/36/1 138/36/1 143/36/1
f 67/34/31 66/33/31 72/9/32 73/35/32
f 19/11/33 91/11/34 147/11/35 105/11/36
f 77/38/32 76/37/32 82/37/37 83/38/37
f 56/39/28 55/37/28 117/37/29 118/39/29
f 75/39/32 74/36/32 80/36/37 81/39/37
f 81/39/19 87/39/19 144/39/19 139/39/19
f 73/35/32 72/9/32 78/9/37 79/35/37
f 90/40/38 14/41/39 104/41/40 146/40/41
f 83/38/37 82/37/37 88/37/42 89/38/42
f 88/37/1 82/37/1 140/37/1 145/37/1
f 81/39/37 80/36/37 86/36/42 87/39/42
f 20/11/1 23/11/43 108/11/1 109/11/1
f 79/35/37 78/9/37 84/9/42 85/35/42
f 10/10/15 48/9/15 231/9/15 225/10/15
f 54/38/5 55/37/5 237/37/5 236/38/5
f 11/11/1 12/11/1 229/11/1 228/11/1
f 12/11/5 54/38/5 236/38/5 229/11/5
f 53/38/15 11/11/15 228/11/15 227/38/15
f 52/37/15 53/38/15 227/38/15 235/37/15
f 3/3/6 36/4/6 47/42/6 4/3/6
f 36/4/6 37/43/6 46/44/6 47/42/6
f 37/43/6 38/45/6 45/46/6 46/44/6
f 38/45/6 39/47/6 44/48/6 45/46/6
f 39/47/6 40/49/6 43/49/6 44/48/6
f 40/49/6 41/7/6 42/7/6 43/49/6
f 1/3/5 29/42/5 36/4/5 3/3/5
f 29/42/5 28/44/5 37/43/5 36/4/5
f 28/44/5 27/46/5 38/45/5 37/43/5
f 27/46/5 26/48/5 39/47/5 38/45/5
f 26/48/5 25/49/5 40/49/5 39/47/5
f 25/49/5 24/7/5 41/7/5 40/49/5
f 4/3/4 47/42/4 30/4/2 2/3/2
f 47/42/4 46/44/4 31/43/2 30/4/2
f 46/44/4 45/46/4 32/45/2 31/43/2
f 45/46/4 44/48/4 33/47/2 32/45/2
f 44/48/4 43/49/4 34/49/2 33/47/2
f 43/49/4 42/7/4 35/7/2 34/49/2
f 188/16/15 189/50/15 49/35/15 48/9/15
f 189/50/15 190/51/15 50/36/15 49/35/15
f 190/51/15 191/52/15 51/39/15 50/36/15
f 191/52/15 192/53/15 52/37/15 51/39/15
f 192/53/15 193/54/15 53/38/15 52/37/15
f 89/38/19 54/38/19 116/38/19 114/38/19
f 84/9/42 59/9/5 58/35/5 85/35/42
f 54/38/28 12/11/28 115/11/29 116/38/29
f 86/36/42 57/36/5 56/39/5 87/39/42
f 83/38/19 89/38/19 114/38/19 113/38/19
f 88/37/42 55/37/5 54/38/5 89/38/42
f 23/11/43 22/11/44 107/11/1 108/11/1
f 55/37/1 88/37/1 145/37/1 117/37/1
f 78/9/1 72/9/1 131/9/1 136/9/1
f 22/11/44 21/11/45 106/11/1 107/11/1
f 87/39/19 56/39/19 118/39/19 144/39/19
f 73/35/19 79/35/19 137/35/19 132/35/19
f 21/11/45 19/11/33 105/11/36 106/11/1
f 100/55/19 99/55/19 155/55/19 160/55/19
f 136/9/46 101/10/46 100/10/47 141/9/47
f 131/9/32 102/10/32 101/10/46 136/9/46
f 126/33/48 103/56/48 102/10/32 131/9/32
f 110/32/49 104/57/49 103/56/48 126/33/48
f 105/11/50 121/29/50 111/30/51 106/11/51
f 122/24/52 123/20/52 129/21/53 130/23/53
f 124/2/52 125/31/52 127/34/53 128/1/53
f 106/11/51 111/30/51 112/38/32 107/11/32
f 130/23/53 129/21/53 134/39/32 135/37/32
f 128/1/53 127/34/53 132/35/32 133/36/32
f 107/11/32 112/38/32 113/38/46 108/11/46
f 135/37/32 134/39/32 139/39/46 140/37/46
f 133/36/32 132/35/32 137/35/46 138/36/46
f 108/11/46 113/38/46 114/38/47 109/11/47
f 140/37/46 139/39/46 144/39/47 145/37/47
f 138/36/46 137/35/46 142/35/47 143/36/47
f 147/11/54 153/22/14 185/22/5 179/11/5
f 99/10/29 98/9/29 154/9/55 155/10/55
f 146/40/41 104/41/40 157/41/56 178/40/56
f 122/24/57 121/29/57 153/22/57 152/13/57
f 109/11/58 114/38/58 158/38/58 159/11/58
f 124/2/57 123/20/57 151/14/57 150/58/57
f 148/59/14 146/60/59 178/60/5 180/59/5
f 110/32/57 125/31/57 149/61/57 148/59/57
f 114/38/19 116/38/19 162/38/19 158/38/19
f 117/37/1 145/37/1 177/37/1 163/37/1
f 95/14/13 94/58/13 150/58/14 151/14/14
f 13/55/19 9/55/19 99/55/19 100/55/19
f 64/31/19 67/34/19 127/34/19 125/31/19
f 94/58/13 93/61/13 149/61/14 150/58/14
f 66/33/1 65/32/1 110/32/1 126/33/1
f 93/61/13 92/59/13 148/59/14 149/61/14
f 12/11/1 20/11/1 109/11/1 115/11/1
f 71/30/19 77/38/19 112/38/19 111/30/19
f 92/59/13 90/60/13 146/60/59 148/59/14
f 76/37/1 70/23/1 130/23/1 135/37/1
f 91/11/13 97/22/13 153/22/14 147/11/54
f 69/21/19 75/39/19 134/39/19 129/21/19
f 74/36/1 68/1/1 128/1/1 133/36/1
f 16/18/17 13/55/19 100/55/19 101/18/19
f 67/34/19 73/35/19 132/35/19 127/34/19
f 17/19/18 16/18/17 101/18/19 102/19/19
f 72/9/1 66/33/1 126/33/1 131/9/1
f 18/62/60 17/19/18 102/19/19 103/62/19
f 61/24/61 60/29/61 121/29/61 122/24/61
f 14/41/39 18/62/60 103/62/19 104/41/40
f 77/38/19 83/38/19 113/38/19 112/38/19
f 82/37/1 76/37/1 135/37/1 140/37/1
f 63/2/61 62/20/61 123/20/61 124/2/61
f 59/9/1 84/9/1 141/9/1 98/9/1
f 75/39/19 81/39/19 139/39/19 134/39/19
f 85/35/19 58/35/19 120/35/19 142/35/19
f 80/36/1 74/36/1 133/36/1 138/36/1
f 65/32/61 64/31/61 125/31/61 110/32/61
f 57/36/1 86/36/1 143/36/1 119/36/1
f 158/38/62 162/38/62 161/11/62 159/11/62
f 160/10/62 155/10/62 154/9/62 173/9/62
f 174/35/62 166/35/62 165/36/62 175/36/62
f 176/39/62 164/39/62 163/37/62 177/37/62
f 170/20/57 169/24/57 184/13/57 183/14/57
f 172/31/57 171/2/57 182/58/57 181/61/57
f 157/57/63 156/32/63 180/59/63 178/60/63
f 168/29/64 167/11/64 179/11/64 185/22/64
f 105/11/36 147/11/35 179/11/65 167/11/65
f 115/11/1 109/11/1 159/11/1 161/11/1
f 110/32/66 148/59/66 180/59/66 156/32/66
f 116/38/29 115/11/29 161/11/55 162/38/55
f 149/61/19 125/31/19 172/31/19 181/61/19
f 118/39/29 117/37/29 163/37/55 164/39/55
f 124/2/1 150/58/1 182/58/1 171/2/1
f 120/35/29 119/36/29 165/36/55 166/35/55
f 151/14/19 123/20/19 170/20/19 183/14/19
f 121/29/67 105/11/67 167/11/67 168/29/67
f 122/24/1 152/13/1 184/13/1 169/24/1
f 153/22/68 121/29/68 168/29/68 185/22/68
f 141/9/58 100/10/58 160/10/58 173/9/58
f 98/9/1 141/9/1 173/9/1 154/9/1
f 123/20/69 122/24/69 169/24/69 170/20/69
f 143/36/58 142/35/58 174/35/58 175/36/58
f 142/35/19 120/35/19 166/35/19 174/35/19
f 152/13/14 151/14/14 183/14/5 184/13/5
f 104/57/70 110/32/70 156/32/70 157/57/70
f 145/37/58 144/39/58 176/39/58 177/37/58
f 119/36/1 143/36/1 175/36/1 165/36/1
f 125/31/69 124/2/69 171/2/69 172/31/69
f 144/39/19 118/39/19 164/39/19 176/39/19
f 150/58/14 149/61/14 181/61/5 182/58/5
f 187/12/15 11/11/15 53/38/15 193/54/15
f 194/63/3 187/12/15 193/54/15 200/64/3
f 199/65/3 200/64/3 193/54/15 192/53/15
f 198/66/3 199/65/3 192/53/15 191/52/15
f 197/67/3 198/66/3 191/52/15 190/51/15
f 196/68/3 197/67/3 190/51/15 189/50/15
f 195/5/3 196/68/3 189/50/15 188/16/15
f 15/6/3 195/5/3 188/16/15 186/15/15
f 30/4/2 31/43/2 196/68/3 195/5/3
f 9/55/19 13/55/19 186/69/19 10/55/19
f 31/43/2 32/45/2 197/67/3 196/68/3
f 32/45/2 33/47/2 198/66/3 197/67/3
f 33/47/2 34/49/2 199/65/3 198/66/3
f 34/49/2 35/7/2 200/64/3 199/65/3
f 6/8/2 194/63/3 200/64/3 35/7/2
f 20/11/1 187/12/1 194/63/71 23/11/43
f 28/44/6 29/42/72 208/70/72 207/71/6
f 27/46/6 28/44/6 207/71/6 206/72/6
f 26/48/6 27/46/6 206/72/6 205/73/6
f 25/49/6 26/48/6 205/73/6 204/74/6
f 24/7/73 25/49/6 204/74/6 203/75/73
f 5/8/74 24/7/73 203/75/73 202/76/74
f 29/42/72 1/3/75 201/77/75 208/70/72
f 223/78/6 224/79/72 215/80/76 214/27/77
f 222/81/6 223/78/6 214/27/77 213/28/77
f 221/82/6 222/81/6 213/28/77 212/26/77
f 220/83/6 221/82/6 212/26/77 211/25/77
f 219/84/73 220/83/6 211/25/77 210/85/78
f 217/8/74 219/84/73 210/85/78 216/8/79
f 224/79/72 218/86/75 209/87/80 215/80/76
f 208/70/72 201/77/75 218/86/75 224/79/72
f 202/76/74 203/75/73 219/84/73 217/8/74
f 203/75/73 204/74/6 220/83/6 219/84/73
f 204/74/6 205/73/6 221/82/6 220/83/6
f 205/73/6 206/72/6 222/81/6 221/82/6
f 206/72/6 207/71/6 223/78/6 222/81/6
f 207/71/6 208/70/72 224/79/72 223/78/6
f 18/62/60 14/41/39 218/86/81 201/77/82
f 218/86/81 14/41/39 90/40/38 209/87/83
f 17/19/18 18/62/60 201/77/82 1/3/8
f 21/11/45 22/11/44 5/8/10 202/76/84
f 91/11/34 19/11/33 217/8/85 216/8/86
f 19/11/33 21/11/45 202/76/84 217/8/85
f 186/69/19 13/55/19 16/18/17 15/17/16
f 23/11/43 194/63/71 6/8/11 5/8/10 22/11/44
f 227/38/28 228/11/28 229/11/28 236/38/28
f 225/10/28 231/9/28 230/9/28 226/10/28
f 231/9/28 232/35/28 240/35/28 230/9/28
f 232/35/28 233/36/28 239/36/28 240/35/28
f 233/36/28 234/39/28 238/39/28 239/36/28
f 234/39/28 235/37/28 237/37/28 238/39/28
f 235/37/28 227/38/28 236/38/28 237/37/28
f 55/37/5 56/39/5 238/39/5 237/37/5
f 48/9/15 49/35/15 232/35/15 231/9/15
f 56/39/5 57/36/5 239/36/5 238/39/5
f 49/35/15 50/36/15 233/36/15 232/35/15
f 57/36/5 58/35/5 240/35/5 239/36/5
f 50/36/15 51/39/15 234/39/15 233/36/15
f 58/35/5 59/9/5 230/9/5 240/35/5
f 51/39/15 52/37/15 235/37/15 234/39/15
f 9/55/19 10/55/19 225/55/19 226/55/19
f 253/40/87 241/59/88 242/80/89 256/87/90
f 241/59/88 243/61/91 244/27/24 242/80/89
f 243/61/91 245/58/92 246/28/25 244/27/24
f 245/58/92 247/14/21 248/26/93 246/28/25
f 247/14/21 249/13/20 250/25/94 248/26/93
f 249/13/20 251/22/95 252/85/96 250/25/94
f 251/22/95 254/11/97 255/8/98 252/85/96
f 259/61/15 260/58/15 273/58/15 282/61/15
f 242/80/89 244/27/24 294/27/27 293/80/99
f 251/22/95 249/13/20 276/13/23 275/22/100
f 256/87/90 242/80/89 293/80/99 298/87/101
f 267/87/19 265/40/19 253/40/19 256/87/19
f 260/58/15 271/14/15 288/14/15 273/58/15
f 267/87/19 256/87/19 298/87/19 299/87/19
f 254/11/97 251/22/95 275/22/100 281/11/102
f 262/8/103 264/85/104 301/85/105 291/8/103
f 212/26/77 213/28/77 272/28/106 258/26/106
f 94/58/107 95/14/107 271/14/107 260/58/107
f 213/28/77 214/27/77 270/27/106 272/28/106
f 95/14/107 96/13/107 269/13/107 271/14/107
f 209/87/83 90/40/38 265/40/19 267/87/19
f 214/27/77 215/80/76 268/80/108 270/27/106
f 96/13/107 97/22/109 266/22/109 269/13/107
f 215/80/76 209/87/80 267/87/110 268/80/108
f 97/22/109 91/11/111 261/11/111 266/22/109
f 91/11/34 216/8/86 262/8/1 261/11/1
f 93/61/107 94/58/107 260/58/107 259/61/107
f 211/25/77 212/26/77 258/26/106 257/25/106
f 92/59/112 93/61/107 259/61/107 263/59/112
f 210/85/78 211/25/77 257/25/106 264/85/113
f 90/60/114 92/59/112 263/59/112 265/60/114
f 216/8/79 210/85/78 264/85/113 262/8/115
f 285/60/28 284/59/28 279/59/28 280/60/28
f 284/59/28 282/61/28 278/61/28 279/59/28
f 282/61/28 273/58/28 274/58/28 278/61/28
f 286/22/28 283/11/28 281/11/28 275/22/28
f 287/13/28 286/22/28 275/22/28 276/13/28
f 288/14/28 287/13/28 276/13/28 277/14/28
f 273/58/28 288/14/28 277/14/28 274/58/28
f 247/14/21 245/58/92 274/58/116 277/14/22
f 263/59/117 259/61/15 282/61/15 284/59/117
f 245/58/92 243/61/91 278/61/118 274/58/116
f 269/13/15 266/22/119 286/22/120 287/13/15
f 243/61/91 241/59/88 279/59/121 278/61/118
f 265/60/122 263/59/117 284/59/117 285/60/122
f 253/40/19 265/40/19 285/40/19 280/40/19
f 241/59/88 253/40/87 280/40/123 279/59/121
f 266/22/119 261/11/124 283/11/124 286/22/120
f 291/8/125 301/85/126 297/85/126 292/8/125
f 301/85/126 300/25/127 296/25/127 297/85/126
f 300/25/127 289/26/127 290/26/127 296/25/127
f 302/80/128 299/87/129 298/87/129 293/80/128
f 303/27/130 302/80/128 293/80/128 294/27/130
f 304/28/127 303/27/130 294/27/130 295/28/127
f 289/26/127 304/28/127 295/28/127 290/26/127
f 246/28/25 248/26/93 290/26/131 295/28/26
f 255/8/1 262/8/1 291/8/1 292/8/1
f 248/26/93 250/25/94 296/25/132 290/26/131
f 270/27/15 268/80/117 302/80/117 303/27/15
f 264/85/104 257/25/15 300/25/15 301/85/105
f 250/25/94 252/85/96 297/85/133 296/25/132
f 252/85/96 255/8/98 292/8/134 297/85/133
f 268/80/117 267/87/122 299/87/122 302/80/117
f 258/26/15 272/28/15 304/28/15 289/26/15
