# Blender 4.2.4 LTS
# www.blender.org
mtllib WALLCURVE.mtl
o WALLCURVE
v 0.500238 0.402872 1.477446
v 0.500238 0.502435 1.477446
v 0.748335 0.402872 1.479737
v 0.748335 0.506951 1.479737
v 0.500238 0.402872 -1.480884
v 0.500238 0.502435 -1.480884
v 0.748335 0.506951 -1.478593
v 0.748335 0.402872 -1.478593
v -0.655563 0.402872 1.479738
v -0.655563 0.506951 1.479738
v -0.655563 0.506951 -1.478592
v -0.655563 0.402872 -1.478592
v -0.396608 0.402872 1.479738
v 0.197270 -0.125408 1.479738
v -0.161607 0.506951 1.479738
v -0.169340 0.357666 1.479738
v 0.023327 0.228929 1.479738
v 0.152064 0.036262 1.479738
v 0.197270 -0.125408 -1.478592
v -0.396608 0.402872 -1.478592
v 0.152064 0.036262 -1.478592
v 0.023327 0.228929 -1.478592
v -0.169340 0.357666 -1.478592
v 0.495938 0.402872 -1.058265
v 0.495938 0.402872 -0.635647
v 0.495938 0.402872 -0.213029
v 0.495938 0.402872 0.209590
v 0.495938 0.402872 0.632209
v 0.495938 0.402872 1.054827
v 0.500238 0.502435 1.054827
v 0.500238 0.502435 0.632209
v 0.500238 0.502435 0.209590
v 0.500238 0.502435 -0.213028
v 0.500238 0.502435 -0.635647
v 0.500238 0.502435 -1.058266
v 0.748335 0.402872 1.057118
v 0.748335 0.402872 0.634500
v 0.748335 0.402872 0.211881
v 0.748335 0.402872 -0.210737
v 0.748335 0.402872 -0.633356
v 0.748335 0.402872 -1.055974
v 0.748335 0.506951 -1.055974
v 0.748335 0.506951 -0.633356
v 0.748335 0.506951 -0.210737
v 0.748335 0.506951 0.211881
v 0.748335 0.506951 0.634500
v 0.748335 0.506951 1.057118
v -0.655563 0.506951 1.057120
v -0.655563 0.506951 0.634501
v -0.655563 0.506951 0.211883
v -0.655563 0.506951 -0.210736
v -0.655563 0.506951 -0.633355
v -0.655563 0.506951 -1.055973
v -0.655563 0.402872 -1.055973
v -0.655563 0.402872 -0.633355
v -0.655563 0.402872 -0.210736
v -0.655563 0.402872 0.211882
v -0.655563 0.402872 0.634501
v -0.655563 0.402872 1.057120
v 0.197270 -0.125408 -1.055973
v 0.197270 -0.125408 -0.633355
v 0.197270 -0.125408 -0.210736
v 0.197270 -0.125408 0.211883
v 0.197270 -0.125408 0.634501
v 0.197270 -0.125408 1.057120
v 0.152064 0.036262 1.057120
v 0.152064 0.036262 0.634501
v 0.152064 0.036262 0.211883
v 0.152064 0.036262 -0.210736
v 0.152064 0.036262 -0.633355
v 0.152064 0.036262 -1.055973
v 0.023327 0.228929 1.057120
v 0.023327 0.228929 0.634501
v 0.023327 0.228929 0.211883
v 0.023327 0.228929 -0.210736
v 0.023327 0.228929 -0.633355
v 0.023327 0.228929 -1.055973
v -0.169340 0.357666 1.057120
v -0.169340 0.357666 0.634501
v -0.169340 0.357666 0.211883
v -0.169340 0.357666 -0.210736
v -0.169340 0.357666 -0.633355
v -0.169340 0.357666 -1.055973
v -0.396608 0.402872 1.057120
v -0.396608 0.402872 0.634501
v -0.396608 0.402872 0.211883
v -0.396608 0.402872 -0.210736
v -0.396608 0.402872 -0.633355
v -0.396608 0.402872 -1.055973
v 0.217819 -0.268958 1.477446
v 0.217819 -0.268958 -1.480885
v 0.217819 -0.268958 1.054827
v 0.217819 -0.268958 0.632209
v 0.217819 -0.268958 0.209590
v 0.217819 -0.268958 -0.213029
v 0.217819 -0.268958 -0.635647
v 0.217819 -0.268958 -1.058266
v -0.655563 0.290155 1.057120
v -0.655563 0.290155 1.479738
v -0.407656 0.290698 1.479738
v -0.212475 0.253529 1.479738
v -0.056376 0.149226 1.479738
v 0.047927 -0.006873 1.479738
v 0.085096 -0.136456 1.479738
v 0.085096 -0.136456 -1.478592
v 0.047927 -0.006873 -1.478592
v -0.056376 0.149226 -1.478592
v -0.212475 0.253529 -1.478592
v -0.407656 0.290698 -1.478592
v 0.084793 -0.132769 1.057120
v 0.047927 -0.006873 -1.055973
v -0.056376 0.149226 -1.055973
v -0.212475 0.253529 -1.055973
v -0.407656 0.290698 -1.055973
v -0.655563 0.290155 -1.478592
v -0.655563 0.290155 -1.055973
v -0.655563 0.290155 -0.633355
v -0.655563 0.290155 -0.210736
v -0.655563 0.290155 0.211882
v -0.655563 0.290155 0.634501
v 0.084793 -0.132769 -1.055973
v 0.084793 -0.132769 -0.633355
v 0.084793 -0.132769 -0.210736
v 0.084793 -0.132769 0.211883
v 0.084793 -0.132769 0.634501
v 0.047927 -0.006873 1.057120
v 0.047927 -0.006873 0.634501
v 0.047927 -0.006873 0.211883
v 0.047927 -0.006873 -0.210736
v 0.047927 -0.006873 -0.633355
v -0.056376 0.149226 1.057120
v -0.056376 0.149226 0.634501
v -0.056376 0.149226 0.211883
v -0.056376 0.149226 -0.210736
v -0.056376 0.149226 -0.633355
v -0.212475 0.253529 1.057120
v -0.212475 0.253529 0.634501
v -0.212475 0.253529 0.211883
v -0.212475 0.253529 -0.210736
v -0.212475 0.253529 -0.633355
v -0.407656 0.290698 1.057120
v -0.407656 0.290698 0.634501
v -0.407656 0.290698 0.211883
v -0.407656 0.290698 -0.210736
v -0.407656 0.290698 -0.633355
v 0.084553 -0.267658 1.479738
v 0.084553 -0.267658 -1.478592
v 0.084553 -0.267658 1.057120
v 0.084553 -0.267658 0.634501
v 0.084553 -0.267658 0.211883
v 0.084553 -0.267658 -0.210736
v 0.084553 -0.267658 -0.633355
v 0.084553 -0.267658 -1.055973
v -0.655461 0.243479 1.057120
v -0.655461 0.243479 1.479738
v 0.038118 -0.132635 1.057137
v 0.038420 -0.136322 1.479755
v -0.407554 0.244022 -1.055973
v -0.407554 0.244022 -1.478592
v -0.407554 0.244022 1.479738
v -0.655461 0.243479 -1.478592
v -0.655461 0.243479 -1.055973
v -0.655461 0.243479 -0.633355
v -0.655461 0.243479 -0.210736
v -0.655461 0.243479 0.211882
v -0.655461 0.243479 0.634501
v 0.038420 -0.136322 -1.478609
v 0.038118 -0.132635 -1.055990
v 0.038118 -0.132688 -0.633355
v 0.038118 -0.132688 -0.210736
v 0.038118 -0.132688 0.211883
v 0.038118 -0.132688 0.634501
v -0.407554 0.244022 1.057120
v -0.407554 0.244022 0.634501
v -0.407554 0.244022 0.211883
v -0.407554 0.244022 -0.210736
v -0.407554 0.244022 -0.633355
v 0.037877 -0.267658 1.479756
v 0.037877 -0.267658 -1.478609
v 0.037877 -0.267658 1.057137
v 0.037877 -0.267658 0.634501
v 0.037877 -0.267658 0.211883
v 0.037877 -0.267658 -0.210736
v 0.037877 -0.267658 -0.633355
v 0.037877 -0.267658 -1.055991
v -0.393876 0.506951 1.479738
v -0.393876 0.506951 -1.478592
v -0.393876 0.506951 1.057120
v -0.393876 0.506951 0.634501
v -0.393876 0.506951 0.211883
v -0.393876 0.506951 -0.210736
v -0.393876 0.506951 -0.633355
v -0.393876 0.506951 -1.055973
v -0.161607 0.506951 -1.478592
v -0.161607 0.506951 1.057120
v -0.161607 0.506951 0.634501
v -0.161607 0.506951 0.211883
v -0.161607 0.506951 -0.210736
v -0.161607 0.506951 -0.633355
v -0.161607 0.506951 -1.055973
v 0.500238 0.071716 1.477446
v 0.500238 0.071716 -1.480884
v 0.495938 0.071716 -1.058265
v 0.495938 0.071716 -0.635647
v 0.495938 0.071716 -0.213029
v 0.495938 0.071716 0.209590
v 0.495938 0.071716 0.632209
v 0.495938 0.071716 1.054827
v 0.500238 -0.268958 1.477446
v 0.495938 -0.268958 -1.058266
v 0.495938 -0.268958 -0.635647
v 0.495938 -0.268958 -0.213029
v 0.495938 -0.268958 0.209590
v 0.495938 -0.268958 0.632209
v 0.495938 -0.268958 1.054827
v 0.500238 -0.268958 -1.480885
v 0.500238 -0.102904 -1.480884
v 0.500238 -0.102904 1.477446
v 0.495938 -0.102904 -1.058265
v 0.495938 -0.102904 -0.635647
v 0.495938 -0.102904 -0.213029
v 0.495938 -0.102904 0.209590
v 0.495938 -0.102904 0.632209
v 0.495938 -0.102904 1.054827
v -0.739061 0.506951 1.479738
v -0.739061 0.402872 1.479738
v -0.739061 0.506951 -1.055973
v -0.739061 0.506951 -1.478592
v -0.739061 0.402872 -1.478592
v -0.739061 0.402872 1.057120
v -0.739061 0.506951 1.057120
v -0.739061 0.506951 0.634501
v -0.739061 0.506951 0.211883
v -0.739061 0.506951 -0.210736
v -0.739061 0.506951 -0.633355
v -0.739061 0.402872 -1.055973
v -0.739061 0.402872 -0.633355
v -0.739061 0.402872 -0.210736
v -0.739061 0.402872 0.211882
v -0.739061 0.402872 0.634501
v 0.217819 -1.503725 1.054827
v 0.500237 -1.503466 1.054827
v 0.217819 -1.503725 0.632209
v 0.500237 -1.503466 0.632209
v 0.217819 -1.503725 0.209590
v 0.500237 -1.503466 0.209590
v 0.217819 -1.503725 -0.213029
v 0.500237 -1.503466 -0.213029
v 0.217819 -1.503725 -0.635647
v 0.500237 -1.503466 -0.635648
v 0.217819 -1.503725 -1.058266
v 0.500237 -1.503466 -1.058266
v 0.217819 -1.503466 1.477446
v 0.217815 -1.505616 -1.480888
v 0.500237 -1.505123 -1.480885
v 0.500237 -1.502973 1.477445
v 0.500238 -1.316481 -0.633355
v 0.500238 -1.316481 -0.210737
v 0.218877 -1.316481 0.634501
v 0.218877 -1.316481 0.211882
v 0.217819 -1.322368 -1.480885
v 0.500237 -1.316481 -1.480885
v 0.218877 -1.316481 1.057120
v 0.500238 -1.316481 -1.055974
v 0.217819 -1.317659 1.477446
v 0.218877 -1.316481 -1.055974
v 0.500238 -1.317659 1.477446
v 0.500238 -1.316481 1.057120
v 0.218877 -1.316481 -0.633355
v 0.500238 -1.316481 0.634501
v 0.218877 -1.316481 -0.210737
v 0.500238 -1.316481 0.211882
vn -0.0000 -0.0000 -1.0000
vn -0.0057 1.0000 -0.0000
vn 0.0034 1.0000 -0.0000
vn -0.0182 0.9998 -0.0000
vn -0.0000 -1.0000 -0.0000
vn 1.0000 -0.0000 -0.0000
vn -0.0030 0.0008 1.0000
vn -0.0004 0.0010 1.0000
vn -0.0092 -0.0000 1.0000
vn 0.0004 -0.0010 -1.0000
vn 0.0030 -0.0008 -1.0000
vn 0.0092 -0.0000 -1.0000
vn -0.0097 -1.0000 -0.0000
vn -0.0065 -1.0000 -0.0000
vn -0.0000 1.0000 -0.0000
vn 0.0017 0.0008 1.0000
vn 0.0011 0.0005 1.0000
vn 0.0023 0.0008 1.0000
vn -0.0000 -0.0000 1.0000
vn -1.0000 -0.0000 -0.0000
vn -1.0000 -0.0011 -0.0000
vn -0.9631 -0.2693 -0.0000
vn -0.9086 -0.4176 -0.0000
vn -0.7071 -0.7071 -0.0000
vn -0.0054 0.0034 -1.0000
vn -0.0044 0.0049 -1.0000
vn -0.0046 0.0038 -1.0000
vn -0.0031 0.0026 -1.0000
vn -0.3827 -0.9239 -0.0000
vn 0.0044 -0.0049 1.0000
vn 0.0054 -0.0034 1.0000
vn 0.0033 -0.0026 1.0000
vn 0.0050 -0.0038 1.0000
vn -0.0980 -0.9952 -0.0000
vn -0.0011 -0.0005 -1.0000
vn -0.0023 -0.0008 -1.0000
vn -0.0033 -0.0006 -1.0000
vn -0.3789 -0.9254 -0.0000
vn -0.1871 -0.9823 -0.0000
vn -0.9066 -0.4219 -0.0004
vn -0.9605 -0.2783 -0.0009
vn -0.9605 -0.2783 0.0009
vn -0.9066 -0.4219 0.0004
vn -0.9597 -0.2810 -0.0000
vn -0.9060 -0.4232 -0.0000
vn -0.0049 -1.0000 -0.0000
vn -1.0000 -0.0022 -0.0000
vn 0.0004 -0.0000 1.0000
vn -1.0000 0.0018 -0.0000
vn 1.0000 0.0022 -0.0000
vn -0.0048 -1.0000 -0.0000
vn 0.0033 0.0006 1.0000
vn -0.0653 0.9979 -0.0000
vn 0.0022 -1.0000 -0.0000
vn -1.0000 0.0029 0.0004
vn -1.0000 0.0029 -0.0004
vn 0.0004 -0.0000 -1.0000
vn -0.0004 -0.0000 -1.0000
vn 0.0029 1.0000 -0.0087
vn -0.0004 -0.0000 1.0000
vn 0.0017 1.0000 -0.0000
vn 0.0029 1.0000 0.0087
vn -0.0017 -0.0008 -1.0000
vn 1.0000 -0.0000 -0.0051
vn 1.0000 -0.0000 0.0051
vn 0.9999 -0.0000 0.0102
vn 0.9999 -0.0000 -0.0102
vn 1.0000 0.0015 -0.0038
vn 1.0000 0.0021 -0.0000
vn 1.0000 0.0015 0.0038
vn 1.0000 0.0010 0.0076
vn 1.0000 0.0010 -0.0076
vn 0.0056 -0.0029 1.0000
vn 0.0060 0.0011 1.0000
vn 0.0021 -0.0036 1.0000
vn -0.0060 -0.0011 -1.0000
vn -0.0056 0.0029 -1.0000
vn -0.0021 0.0036 -1.0000
vn 0.0013 -1.0000 0.0009
vn 0.0011 -1.0000 0.0004
vn 0.0009 -1.0000 -0.0000
vn 0.0011 -1.0000 0.0021
vn 0.0013 -1.0000 0.0042
vn -1.0000 -0.0010 -0.0000
vn -1.0000 0.0023 -0.0000
vn 1.0000 0.0015 -0.0013
vn -1.0000 -0.0008 0.0006
vn -1.0000 0.0017 0.0006
vn 1.0000 0.0010 -0.0025
vn -1.0000 -0.0005 0.0013
vn -1.0000 0.0012 0.0012
vn -1.0000 -0.0008 -0.0006
vn -1.0000 0.0017 -0.0006
vn 1.0000 0.0015 0.0013
vn -1.0000 -0.0005 -0.0013
vn -1.0000 0.0012 -0.0013
vn 1.0000 0.0010 0.0025
vn -1.0000 0.0028 -0.0013
vn -1.0000 0.0043 -0.0006
vn -1.0000 0.0057 -0.0000
vn -1.0000 0.0042 0.0006
vn -1.0000 0.0029 0.0012
vt 0.598630 0.212623
vt 0.582283 0.278011
vt 0.625000 0.750000
vt 0.625000 0.714286
vt 0.625000 0.330770
vt 0.625000 0.326115
vt 0.625000 0.535714
vt 0.625000 0.500000
vt 0.625000 0.035714
vt 0.625000 0.000000
vt 0.625000 0.250000
vt 0.625000 0.307590
vt 0.598401 0.284968
vt 0.585101 0.302452
vt 0.625000 0.172769
vt 0.625000 0.192029
vt 0.625000 0.891295
vt 0.619310 1.323666
vt 0.603105 1.000000
vt 0.592962 0.271008
vt 0.605223 0.221967
vt 0.611700 0.267484
vt 0.611815 0.231311
vt 0.603641 0.264006
vt 0.614321 0.257003
vt 0.618407 0.240656
vt 0.571604 0.285014
vt 0.560924 0.292017
vt 0.585445 0.193934
vt 0.592038 0.203278
vt 0.625000 0.071429
vt 0.625000 0.107143
vt 0.625000 0.178571
vt 0.625000 0.214286
vt 0.625000 0.142857
vt 0.531903 1.000000
vt 0.550245 1.000000
vt 0.625000 0.714286
vt 0.625000 0.678571
vt 0.625000 0.678571
vt 0.625000 0.642857
vt 0.625000 0.642857
vt 0.625000 0.607143
vt 0.625000 0.607143
vt 0.625000 0.571429
vt 0.625000 0.211289
vt 0.625000 0.230549
vt 0.625000 0.249809
vt 0.625000 0.269069
vt 0.625000 0.288329
vt 0.625000 1.000000
vt 0.578853 0.184590
vt 0.550245 0.299020
vt 0.571802 0.319936
vt 0.545202 0.354904
vt 0.531903 0.372388
vt 0.558502 0.337420
vt 0.578853 1.000000
vt 0.625000 0.358705
vt 0.625000 0.354049
vt 0.625000 0.349393
vt 0.625000 0.344738
vt 0.625000 0.340082
vt 0.625000 0.335426
vt 0.625000 0.942410
vt 0.589270 0.714286
vt 0.595225 0.678571
vt 0.601180 0.642857
vt 0.607135 0.607143
vt 0.613090 0.571429
vt 0.619045 0.535714
vt 0.625000 0.500000
vt 0.583315 0.750000
vt 0.573627 0.678571
vt 0.563352 0.714286
vt 0.546406 0.714286
vt 0.559505 0.678571
vt 0.583902 0.642857
vt 0.572604 0.642857
vt 0.594176 0.607143
vt 0.585703 0.607143
vt 0.604451 0.571429
vt 0.598802 0.571429
vt 0.614725 0.535714
vt 0.611901 0.535714
vt 0.553078 0.750000
vt 0.533307 0.750000
s 1
f 68/1/1 63/2/1 124/2/1 128/1/1
f 2/3/2 30/4/2 195/5/3 15/6/3
f 42/7/4 7/8/4 6/8/2 35/7/2
f 24/7/5 5/8/5 8/8/5 41/7/5
f 41/7/6 8/8/6 7/8/6 42/7/6
f 59/9/5 9/10/5 226/10/5 230/9/5
f 2/3/7 1/3/8 3/3/9 4/3/9
f 20/11/1 12/11/1 11/11/1 187/12/1
f 5/8/10 6/8/11 7/8/12 8/8/12
f 96/13/13 95/14/13 151/14/14 152/13/14
f 186/15/15 188/16/15 48/9/15 10/10/15
f 15/17/16 16/18/17 17/19/18 1/3/8 2/3/7
f 62/20/19 69/21/19 129/21/19 123/20/19
f 97/22/13 96/13/13 152/13/14 153/22/14
f 70/23/1 61/24/1 122/24/1 130/23/1
f 261/11/1 262/8/1 255/8/1 254/11/1
f 9/10/20 59/9/20 98/9/21 99/10/21
f 60/25/22 61/24/22 70/23/23 71/26/23
f 60/25/19 71/26/19 111/26/19 121/25/19
f 62/20/22 63/2/22 68/1/23 69/21/23
f 84/9/1 78/9/1 136/9/1 141/9/1
f 64/27/22 65/28/22 66/29/23 67/30/23
f 58/31/20 57/32/20 119/32/21 120/31/21
f 71/26/23 70/23/23 76/33/24 77/34/24
f 79/31/19 85/31/19 142/31/19 137/31/19
f 69/21/23 68/1/23 74/32/24 75/35/24
f 86/32/1 80/32/1 138/32/1 143/32/1
f 67/30/23 66/29/23 72/9/24 73/31/24
f 19/11/25 91/11/26 147/11/27 105/11/28
f 77/34/24 76/33/24 82/33/29 83/34/29
f 56/35/20 55/33/20 117/33/21 118/35/21
f 75/35/24 74/32/24 80/32/29 81/35/29
f 81/35/19 87/35/19 144/35/19 139/35/19
f 73/31/24 72/9/24 78/9/29 79/31/29
f 90/36/30 14/37/31 104/37/32 146/36/33
f 83/34/29 82/33/29 88/33/34 89/34/34
f 88/33/1 82/33/1 140/33/1 145/33/1
f 81/35/29 80/32/29 86/32/34 87/35/34
f 20/11/1 23/11/35 108/11/1 109/11/1
f 79/31/29 78/9/29 84/9/34 85/31/34
f 10/10/15 48/9/15 231/9/15 225/10/15
f 54/34/5 55/33/5 237/33/5 236/34/5
f 11/11/1 12/11/1 229/11/1 228/11/1
f 12/11/5 54/34/5 236/34/5 229/11/5
f 53/34/15 11/11/15 228/11/15 227/34/15
f 52/33/15 53/34/15 227/34/15 235/33/15
f 3/3/6 36/4/6 47/38/6 4/3/6
f 36/4/6 37/39/6 46/40/6 47/38/6
f 37/39/6 38/41/6 45/42/6 46/40/6
f 38/41/6 39/43/6 44/44/6 45/42/6
f 39/43/6 40/45/6 43/45/6 44/44/6
f 40/45/6 41/7/6 42/7/6 43/45/6
f 1/3/5 29/38/5 36/4/5 3/3/5
f 29/38/5 28/40/5 37/39/5 36/4/5
f 28/40/5 27/42/5 38/41/5 37/39/5
f 27/42/5 26/44/5 39/43/5 38/41/5
f 26/44/5 25/45/5 40/45/5 39/43/5
f 25/45/5 24/7/5 41/7/5 40/45/5
f 4/3/4 47/38/4 30/4/2 2/3/2
f 47/38/4 46/40/4 31/39/2 30/4/2
f 46/40/4 45/42/4 32/41/2 31/39/2
f 45/42/4 44/44/4 33/43/2 32/41/2
f 44/44/4 43/45/4 34/45/2 33/43/2
f 43/45/4 42/7/4 35/7/2 34/45/2
f 188/16/15 189/46/15 49/31/15 48/9/15
f 189/46/15 190/47/15 50/32/15 49/31/15
f 190/47/15 191/48/15 51/35/15 50/32/15
f 191/48/15 192/49/15 52/33/15 51/35/15
f 192/49/15 193/50/15 53/34/15 52/33/15
f 89/34/19 54/34/19 116/34/19 114/34/19
f 84/9/34 59/9/5 58/31/5 85/31/34
f 54/34/20 12/11/20 115/11/21 116/34/21
f 86/32/34 57/32/5 56/35/5 87/35/34
f 83/34/19 89/34/19 114/34/19 113/34/19
f 88/33/34 55/33/5 54/34/5 89/34/34
f 23/11/35 22/11/36 107/11/1 108/11/1
f 55/33/1 88/33/1 145/33/1 117/33/1
f 78/9/1 72/9/1 131/9/1 136/9/1
f 22/11/36 21/11/37 106/11/1 107/11/1
f 87/35/19 56/35/19 118/35/19 144/35/19
f 73/31/19 79/31/19 137/31/19 132/31/19
f 21/11/37 19/11/25 105/11/28 106/11/1
f 100/51/19 99/51/19 155/51/19 160/51/19
f 136/9/38 101/10/38 100/10/39 141/9/39
f 131/9/24 102/10/24 101/10/38 136/9/38
f 126/29/40 103/52/40 102/10/24 131/9/24
f 110/28/41 104/53/41 103/52/40 126/29/40
f 105/11/42 121/25/42 111/26/43 106/11/43
f 122/24/44 123/20/44 129/21/45 130/23/45
f 124/2/44 125/27/44 127/30/45 128/1/45
f 106/11/43 111/26/43 112/34/24 107/11/24
f 130/23/45 129/21/45 134/35/24 135/33/24
f 128/1/45 127/30/45 132/31/24 133/32/24
f 107/11/24 112/34/24 113/34/38 108/11/38
f 135/33/24 134/35/24 139/35/38 140/33/38
f 133/32/24 132/31/24 137/31/38 138/32/38
f 108/11/38 113/34/38 114/34/39 109/11/39
f 140/33/38 139/35/38 144/35/39 145/33/39
f 138/32/38 137/31/38 142/31/39 143/32/39
f 147/11/46 153/22/14 185/22/5 179/11/5
f 99/10/21 98/9/21 154/9/47 155/10/47
f 146/36/33 104/37/32 157/37/48 178/36/48
f 122/24/49 121/25/49 153/22/49 152/13/49
f 109/11/50 114/34/50 158/34/50 159/11/50
f 124/2/49 123/20/49 151/14/49 150/54/49
f 148/55/14 146/56/51 178/56/5 180/55/5
f 110/28/49 125/27/49 149/57/49 148/55/49
f 114/34/19 116/34/19 162/34/19 158/34/19
f 117/33/1 145/33/1 177/33/1 163/33/1
f 95/14/13 94/54/13 150/54/14 151/14/14
f 13/51/19 9/51/19 99/51/19 100/51/19
f 64/27/19 67/30/19 127/30/19 125/27/19
f 94/54/13 93/57/13 149/57/14 150/54/14
f 66/29/1 65/28/1 110/28/1 126/29/1
f 93/57/13 92/55/13 148/55/14 149/57/14
f 12/11/1 20/11/1 109/11/1 115/11/1
f 71/26/19 77/34/19 112/34/19 111/26/19
f 92/55/13 90/56/13 146/56/51 148/55/14
f 76/33/1 70/23/1 130/23/1 135/33/1
f 91/11/13 97/22/13 153/22/14 147/11/46
f 69/21/19 75/35/19 134/35/19 129/21/19
f 74/32/1 68/1/1 128/1/1 133/32/1
f 16/18/17 13/51/19 100/51/19 101/18/19
f 67/30/19 73/31/19 132/31/19 127/30/19
f 17/19/18 16/18/17 101/18/19 102/19/19
f 72/9/1 66/29/1 126/29/1 131/9/1
f 18/58/52 17/19/18 102/19/19 103/58/19
f 61/24/53 60/25/53 121/25/53 122/24/53
f 14/37/31 18/58/52 103/58/19 104/37/32
f 77/34/19 83/34/19 113/34/19 112/34/19
f 82/33/1 76/33/1 135/33/1 140/33/1
f 63/2/53 62/20/53 123/20/53 124/2/53
f 59/9/1 84/9/1 141/9/1 98/9/1
f 75/35/19 81/35/19 139/35/19 134/35/19
f 85/31/19 58/31/19 120/31/19 142/31/19
f 80/32/1 74/32/1 133/32/1 138/32/1
f 65/28/53 64/27/53 125/27/53 110/28/53
f 57/32/1 86/32/1 143/32/1 119/32/1
f 158/34/54 162/34/54 161/11/54 159/11/54
f 160/10/54 155/10/54 154/9/54 173/9/54
f 174/31/54 166/31/54 165/32/54 175/32/54
f 176/35/54 164/35/54 163/33/54 177/33/54
f 170/20/49 169/24/49 184/13/49 183/14/49
f 172/27/49 171/2/49 182/54/49 181/57/49
f 157/53/55 156/28/55 180/55/55 178/56/55
f 168/25/56 167/11/56 179/11/56 185/22/56
f 105/11/28 147/11/27 179/11/57 167/11/57
f 115/11/1 109/11/1 159/11/1 161/11/1
f 110/28/58 148/55/58 180/55/58 156/28/58
f 116/34/21 115/11/21 161/11/47 162/34/47
f 149/57/19 125/27/19 172/27/19 181/57/19
f 118/35/21 117/33/21 163/33/47 164/35/47
f 124/2/1 150/54/1 182/54/1 171/2/1
f 120/31/21 119/32/21 165/32/47 166/31/47
f 151/14/19 123/20/19 170/20/19 183/14/19
f 121/25/59 105/11/59 167/11/59 168/25/59
f 122/24/1 152/13/1 184/13/1 169/24/1
f 153/22/60 121/25/60 168/25/60 185/22/60
f 141/9/50 100/10/50 160/10/50 173/9/50
f 98/9/1 141/9/1 173/9/1 154/9/1
f 123/20/61 122/24/61 169/24/61 170/20/61
f 143/32/50 142/31/50 174/31/50 175/32/50
f 142/31/19 120/31/19 166/31/19 174/31/19
f 152/13/14 151/14/14 183/14/5 184/13/5
f 104/53/62 110/28/62 156/28/62 157/53/62
f 145/33/50 144/35/50 176/35/50 177/33/50
f 119/32/1 143/32/1 175/32/1 165/32/1
f 125/27/61 124/2/61 171/2/61 172/27/61
f 144/35/19 118/35/19 164/35/19 176/35/19
f 150/54/14 149/57/14 181/57/5 182/54/5
f 187/12/15 11/11/15 53/34/15 193/50/15
f 194/59/3 187/12/15 193/50/15 200/60/3
f 199/61/3 200/60/3 193/50/15 192/49/15
f 198/62/3 199/61/3 192/49/15 191/48/15
f 197/63/3 198/62/3 191/48/15 190/47/15
f 196/64/3 197/63/3 190/47/15 189/46/15
f 195/5/3 196/64/3 189/46/15 188/16/15
f 15/6/3 195/5/3 188/16/15 186/15/15
f 30/4/2 31/39/2 196/64/3 195/5/3
f 9/51/19 13/51/19 186/65/19 10/51/19
f 31/39/2 32/41/2 197/63/3 196/64/3
f 32/41/2 33/43/2 198/62/3 197/63/3
f 33/43/2 34/45/2 199/61/3 198/62/3
f 34/45/2 35/7/2 200/60/3 199/61/3
f 6/8/2 194/59/3 200/60/3 35/7/2
f 20/11/1 187/12/1 194/59/63 23/11/35
f 28/40/6 29/38/64 208/66/64 207/67/6
f 27/42/6 28/40/6 207/67/6 206/68/6
f 26/44/6 27/42/6 206/68/6 205/69/6
f 25/45/6 26/44/6 205/69/6 204/70/6
f 24/7/65 25/45/6 204/70/6 203/71/65
f 5/8/66 24/7/65 203/71/65 202/72/66
f 29/38/64 1/3/67 201/73/67 208/66/64
f 223/74/6 224/75/64 215/76/68 214/77/69
f 222/78/6 223/74/6 214/77/69 213/79/69
f 221/80/6 222/78/6 213/79/69 212/81/69
f 220/82/6 221/80/6 212/81/69 211/83/69
f 219/84/65 220/82/6 211/83/69 210/85/70
f 217/8/66 219/84/65 210/85/70 216/8/71
f 224/75/64 218/86/67 209/87/72 215/76/68
f 208/66/64 201/73/67 218/86/67 224/75/64
f 202/72/66 203/71/65 219/84/65 217/8/66
f 203/71/65 204/70/6 220/82/6 219/84/65
f 204/70/6 205/69/6 221/80/6 220/82/6
f 205/69/6 206/68/6 222/78/6 221/80/6
f 206/68/6 207/67/6 223/74/6 222/78/6
f 207/67/6 208/66/64 224/75/64 223/74/6
f 18/58/52 14/37/31 218/86/73 201/73/74
f 218/86/73 14/37/31 90/36/30 209/87/75
f 17/19/18 18/58/52 201/73/74 1/3/8
f 21/11/37 22/11/36 5/8/10 202/72/76
f 91/11/26 19/11/25 217/8/77 216/8/78
f 19/11/25 21/11/37 202/72/76 217/8/77
f 186/65/19 13/51/19 16/18/17 15/17/16
f 23/11/35 194/59/63 6/8/11 5/8/10 22/11/36
f 227/34/20 228/11/20 229/11/20 236/34/20
f 225/10/20 231/9/20 230/9/20 226/10/20
f 231/9/20 232/31/20 240/31/20 230/9/20
f 232/31/20 233/32/20 239/32/20 240/31/20
f 233/32/20 234/35/20 238/35/20 239/32/20
f 234/35/20 235/33/20 237/33/20 238/35/20
f 235/33/20 227/34/20 236/34/20 237/33/20
f 55/33/5 56/35/5 238/35/5 237/33/5
f 48/9/15 49/31/15 232/31/15 231/9/15
f 56/35/5 57/32/5 239/32/5 238/35/5
f 49/31/15 50/32/15 233/32/15 232/31/15
f 57/32/5 58/31/5 240/31/5 239/32/5
f 50/32/15 51/35/15 234/35/15 233/32/15
f 58/31/5 59/9/5 230/9/5 240/31/5
f 51/35/15 52/33/15 235/33/15 234/35/15
f 9/51/19 10/51/19 225/51/19 226/51/19
f 253/36/79 241/55/80 242/76/80 256/87/79
f 241/55/80 243/57/81 244/77/81 242/76/80
f 243/57/81 245/54/81 246/79/81 244/77/81
f 245/54/81 247/14/81 248/81/81 246/79/81
f 247/14/81 249/13/81 250/83/81 248/81/81
f 249/13/81 251/22/82 252/85/82 250/83/81
f 251/22/82 254/11/83 255/8/83 252/85/82
f 267/87/19 265/36/19 253/36/19 256/87/19
f 212/81/69 213/79/69 272/79/69 258/81/69
f 94/54/84 95/14/84 271/14/85 260/54/85
f 213/79/69 214/77/69 270/77/69 272/79/69
f 95/14/84 96/13/84 269/13/85 271/14/85
f 209/87/75 90/36/30 265/36/19 267/87/19
f 214/77/69 215/76/68 268/76/86 270/77/69
f 96/13/84 97/22/87 266/22/88 269/13/85
f 215/76/68 209/87/72 267/87/89 268/76/86
f 97/22/87 91/11/90 261/11/91 266/22/88
f 91/11/26 216/8/78 262/8/1 261/11/1
f 93/57/84 94/54/84 260/54/85 259/57/85
f 211/83/69 212/81/69 258/81/69 257/83/69
f 92/55/92 93/57/84 259/57/85 263/55/93
f 210/85/70 211/83/69 257/83/69 264/85/94
f 90/56/95 92/55/92 263/55/93 265/56/96
f 216/8/71 210/85/70 264/85/94 262/8/97
f 255/8/6 262/8/97 264/85/94 252/85/6
f 252/85/6 264/85/94 257/83/69 250/83/6
f 250/83/6 257/83/69 258/81/69 248/81/6
f 248/81/6 258/81/69 272/79/69 246/79/6
f 246/79/6 272/79/69 270/77/69 244/77/6
f 244/77/6 270/77/69 268/76/86 242/76/6
f 242/76/6 268/76/86 267/87/89 256/87/6
f 253/36/98 265/36/96 263/55/93 241/55/99
f 241/55/99 263/55/93 259/57/85 243/57/100
f 243/57/100 259/57/85 260/54/85 245/54/100
f 245/54/100 260/54/85 271/14/85 247/14/100
f 247/14/100 271/14/85 269/13/85 249/13/100
f 249/13/100 269/13/85 266/22/88 251/22/101
f 251/22/101 266/22/88 261/11/91 254/11/102
