# Blender 4.2.4 LTS
# www.blender.org
mtllib WINDOW.mtl
o WINDOW
v 0.054657 0.380907 -0.208559
v 0.062878 -0.374582 -0.217506
v 0.055140 0.376018 0.204695
v 0.063362 -0.379471 0.195748
v -0.062878 0.374582 0.217506
v -0.054657 -0.380907 0.208559
v -0.063362 0.379471 -0.195748
v -0.055140 -0.376018 -0.204695
vn 0.9999 0.0109 -0.0010
vn -0.9999 -0.0109 0.0010
vn -0.0109 0.9999 0.0118
vn 0.1080 -0.0106 0.9941
vn -0.1080 0.0106 -0.9941
vn 0.0109 -0.9999 -0.0118
vt 0.588503 0.660053
vt 0.588503 0.589947
vt 0.536497 0.589947
vt 0.536497 0.660053
vt 0.588503 0.407671
vt 0.588503 0.550355
vt 0.536497 0.269751
vt 0.536497 0.272224
s 0
f 1/1/1 3/2/1 4/3/1 2/4/1
f 5/5/2 7/6/2 8/7/2 6/8/2
f 3/2/3 1/1/3 7/6/3 5/5/3
f 4/3/4 3/2/4 5/5/4 6/8/4
f 1/1/5 2/4/5 8/7/5 7/6/5
f 4/3/6 6/8/6 8/7/6 2/4/6
