# Blender 4.2.4 LTS
# www.blender.org
mtllib RING2.mtl
o RING2
v -1.549141 0.390526 0.353575
v -1.431625 0.390526 0.689421
v -1.242325 0.390526 0.990697
v -0.990723 0.390526 1.242294
v -0.689453 0.390526 1.431597
v -0.353600 0.390526 1.549114
v -0.000031 0.390526 1.588953
v 0.353546 0.390526 1.549114
v 0.689392 0.390526 1.431597
v 0.990662 0.390526 1.242292
v 1.242264 0.390526 0.990695
v 1.431564 0.390526 0.689419
v 1.549088 0.390526 0.353574
v 1.588921 0.390526 -0.000001
v 1.549088 0.390526 -0.353576
v 1.431564 0.390526 -0.689422
v 1.242256 0.390526 -0.990698
v 0.990662 0.390526 -1.242295
v 0.689392 0.390526 -1.431598
v 0.353539 0.390526 -1.549114
v -0.000031 0.390526 -1.588952
v -0.353607 0.390526 -1.549114
v -0.689453 0.390526 -1.431596
v -0.990723 0.390526 -1.242292
v -1.242325 0.390526 -0.990693
v -1.431633 0.390526 -0.689419
v -1.549141 0.390526 -0.353573
v -1.588982 0.390526 0.000003
v -1.549141 -0.390526 0.353575
v -1.588982 -0.390526 0.000003
v -1.431625 -0.390526 0.689421
v -1.242325 -0.390526 0.990697
v -0.990723 -0.390526 1.242294
v -0.689453 -0.390526 1.431597
v -0.353600 -0.390526 1.549114
v -0.000031 -0.390526 1.588953
v 0.353546 -0.390526 1.549114
v 0.689392 -0.390526 1.431597
v 0.990662 -0.390526 1.242292
v 1.242264 -0.390526 0.990695
v 1.431564 -0.390526 0.689419
v 1.549088 -0.390526 0.353574
v 1.588921 -0.390526 -0.000001
v 1.549088 -0.390526 -0.353576
v 1.431564 -0.390526 -0.689422
v 1.242256 -0.390526 -0.990698
v 0.990662 -0.390526 -1.242295
v 0.689392 -0.390526 -1.431598
v 0.353539 -0.390526 -1.549114
v -0.000031 -0.390526 -1.588952
v -0.353607 -0.390526 -1.549114
v -0.689453 -0.390526 -1.431596
v -0.990723 -0.390526 -1.242292
v -1.242325 -0.390526 -0.990693
v -1.431633 -0.390526 -0.689419
v -1.549141 -0.390526 -0.353573
v -2.063271 -0.390526 0.470922
v -2.063271 0.390526 0.470923
v -2.116333 0.390526 0.000003
v -2.116333 -0.390526 0.000003
v -1.906761 -0.390526 0.918230
v -1.906761 0.390526 0.918230
v -1.654625 -0.390526 1.319494
v -1.654625 0.390526 1.319494
v -1.319527 -0.390526 1.654595
v -1.319527 0.390526 1.654595
v -0.918266 -0.390526 1.906725
v -0.918266 0.390526 1.906725
v -0.470955 -0.390526 2.063245
v -0.470955 0.390526 2.063245
v -0.000031 -0.390526 2.116304
v -0.000031 0.390526 2.116304
v 0.470894 -0.390526 2.063245
v 0.470894 0.390526 2.063245
v 0.918198 -0.390526 1.906725
v 0.918198 0.390526 1.906725
v 1.319466 -0.390526 1.654593
v 1.319466 0.390526 1.654593
v 1.654564 -0.390526 1.319493
v 1.654564 0.390526 1.319493
v 1.906693 -0.390526 0.918229
v 1.906693 0.390526 0.918229
v 2.063210 -0.390526 0.470920
v 2.063210 0.390526 0.470920
v 2.116272 -0.390526 -0.000003
v 2.116272 0.390526 -0.000003
v 2.063210 -0.390526 -0.470925
v 2.063210 0.390526 -0.470925
v 1.906693 -0.390526 -0.918233
v 1.906693 0.390526 -0.918233
v 1.654556 -0.390526 -1.319497
v 1.654556 0.390526 -1.319497
v 1.319466 -0.390526 -1.654596
v 1.319466 0.390526 -1.654596
v 0.918198 -0.390526 -1.906726
v 0.918198 0.390526 -1.906726
v 0.470886 -0.390526 -2.063246
v 0.470886 0.390526 -2.063246
v -0.000031 -0.390526 -2.116304
v -0.000031 0.390526 -2.116304
v -0.470955 -0.390526 -2.063244
v -0.470955 0.390526 -2.063244
v -0.918266 -0.390526 -1.906723
v -0.918266 0.390526 -1.906723
v -1.319527 -0.390526 -1.654591
v -1.319527 0.390526 -1.654591
v -1.654625 -0.390526 -1.319491
v -1.654625 0.390526 -1.319491
v -1.906761 -0.390526 -0.918227
v -1.906761 0.390526 -0.918227
v -2.063271 -0.390526 -0.470919
v -2.063271 0.390526 -0.470919
vn 0.9749 -0.0000 -0.2225
vn 1.0000 -0.0000 -0.0000
vn 0.9010 -0.0000 -0.4339
vn 0.7818 -0.0000 -0.6235
vn 0.6235 -0.0000 -0.7818
vn 0.4339 -0.0000 -0.9010
vn 0.2225 -0.0000 -0.9749
vn -0.0000 -0.0000 -1.0000
vn -0.2225 -0.0000 -0.9749
vn -0.4339 -0.0000 -0.9010
vn -0.6235 -0.0000 -0.7818
vn -0.7818 -0.0000 -0.6235
vn -0.9010 -0.0000 -0.4339
vn -0.9749 -0.0000 -0.2225
vn -1.0000 -0.0000 -0.0000
vn -0.9749 -0.0000 0.2225
vn -0.9010 -0.0000 0.4339
vn -0.7818 -0.0000 0.6235
vn -0.6235 -0.0000 0.7818
vn -0.4339 -0.0000 0.9010
vn -0.2225 -0.0000 0.9749
vn -0.0000 -0.0000 1.0000
vn 0.2225 -0.0000 0.9749
vn 0.4339 -0.0000 0.9010
vn 0.6235 -0.0000 0.7818
vn 0.7818 -0.0000 0.6235
vn 0.9010 -0.0000 0.4339
vn 0.9749 -0.0000 0.2225
vn -0.0000 1.0000 -0.0000
vn -0.0000 -1.0000 -0.0000
vt 0.030818 0.167880
vt 0.052851 0.146946
vt 0.084891 0.189420
vt 0.071668 0.201631
vt 0.014241 0.193114
vt 0.061555 0.216555
vt 0.003827 0.221297
vt 0.055072 0.233401
vt 0.000000 0.250995
vt 0.052540 0.251291
vt 0.002884 0.280723
vt 0.054073 0.269305
vt 0.012288 0.309009
vt 0.059578 0.286529
vt 0.027711 0.334453
vt 0.068764 0.302096
vt 0.048358 0.355800
vt 0.081158 0.315226
vt 0.073175 0.372002
vt 0.096130 0.325268
vt 0.100899 0.382280
vt 0.112924 0.331726
vt 0.130136 0.386133
vt 0.130558 0.334405
vt 0.159421 0.383342
vt 0.148234 0.333041
vt 0.187254 0.374038
vt 0.165056 0.327726
vt 0.212197 0.358711
vt 0.180170 0.318746
vt 0.232969 0.338183
vt 0.192802 0.306567
vt 0.248541 0.313554
vt 0.202304 0.291804
vt 0.258209 0.286123
vt 0.208173 0.275191
vt 0.261627 0.257237
vt 0.210313 0.257452
vt 0.258718 0.228302
vt 0.208468 0.239527
vt 0.249761 0.200643
vt 0.202703 0.222242
vt 0.235183 0.175505
vt 0.194281 0.206497
vt 0.215446 0.154166
vt 0.182570 0.193235
vt 0.191446 0.137790
vt 0.168207 0.183071
vt 0.164413 0.127262
vt 0.151928 0.176468
vt 0.135782 0.123103
vt 0.134547 0.173730
vt 0.107068 0.125426
vt 0.116916 0.174981
vt 0.079720 0.133921
vt 0.099862 0.180157
vt 0.598598 0.786819
vt 0.573961 0.762181
vt 0.598441 0.742660
vt 0.616978 0.772162
vt 0.239011 0.849297
vt 0.239011 0.872805
vt 0.204388 0.876706
vt 0.204388 0.845395
vt 0.244242 0.895725
vt 0.211355 0.907232
vt 0.583941 0.805199
vt 0.554439 0.786661
vt 0.254442 0.916905
vt 0.224940 0.935443
vt 0.269100 0.935285
vt 0.244462 0.959923
vt 0.573740 0.826379
vt 0.540853 0.814871
vt 0.287479 0.949943
vt 0.268942 0.979445
vt 0.308660 0.960143
vt 0.297152 0.993030
vt 0.568509 0.849299
vt 0.533885 0.845397
vt 0.331579 0.965375
vt 0.327678 0.999998
vt 0.355088 0.965375
vt 0.358989 0.999998
vt 0.568509 0.872807
vt 0.533885 0.876708
vt 0.378007 0.960144
vt 0.389515 0.993031
vt 0.399188 0.949944
vt 0.417725 0.979446
vt 0.573740 0.895727
vt 0.540853 0.907234
vt 0.417568 0.935286
vt 0.442205 0.959924
vt 0.432226 0.916907
vt 0.461728 0.935444
vt 0.583940 0.916907
vt 0.554438 0.935445
vt 0.442426 0.895726
vt 0.475313 0.907234
vt 0.447657 0.872807
vt 0.482281 0.876708
vt 0.598597 0.935287
vt 0.573960 0.959925
vt 0.447658 0.849298
vt 0.482281 0.845397
vt 0.442426 0.826379
vt 0.475314 0.814871
vt 0.616977 0.949945
vt 0.598440 0.979447
vt 0.747067 0.786820
vt 0.771704 0.762183
vt 0.791226 0.786663
vt 0.761724 0.805200
vt 0.804811 0.814873
vt 0.771924 0.826381
vt 0.777155 0.872809
vt 0.811778 0.876710
vt 0.804811 0.907236
vt 0.771924 0.895728
vt 0.811778 0.845399
vt 0.777155 0.849300
vt 0.244243 0.826377
vt 0.211356 0.814869
vt 0.791225 0.935446
vt 0.761723 0.916908
vt 0.771703 0.959926
vt 0.747066 0.935288
vt 0.747223 0.979448
vt 0.728686 0.949946
vt 0.719013 0.993033
vt 0.707505 0.960146
vt 0.626651 0.729074
vt 0.638159 0.761962
vt 0.688487 1.000000
vt 0.684586 0.965377
vt 0.657177 0.722107
vt 0.661078 0.756730
vt 0.657176 1.000000
vt 0.661077 0.965377
vt 0.688488 0.722107
vt 0.684587 0.756731
vt 0.626650 0.993032
vt 0.638158 0.960145
vt 0.719014 0.729075
vt 0.707506 0.761962
vt 0.747224 0.742660
vt 0.728687 0.772162
vt 0.482283 0.407043
vt 0.533888 0.407043
vt 0.533888 0.438354
vt 0.482283 0.438354
vt 0.482284 0.375732
vt 0.533888 0.375732
vt 0.482284 0.344421
vt 0.533888 0.344421
vt 0.482284 0.313110
vt 0.533889 0.313110
vt 0.482284 0.281799
vt 0.533889 0.281799
vt 0.482284 0.250488
vt 0.533889 0.250488
vt 0.482284 0.219177
vt 0.533889 0.219177
vt 0.482285 0.187866
vt 0.533889 0.187866
vt 0.482285 0.156555
vt 0.533889 0.156555
vt 0.482285 0.125244
vt 0.533890 0.125244
vt 0.482285 0.093933
vt 0.533890 0.093933
vt 0.482285 0.062622
vt 0.533890 0.062622
vt 0.482286 0.031311
vt 0.533890 0.031311
vt 0.482286 0.000000
vt 0.533890 0.000000
vt 0.482281 0.814086
vt 0.533886 0.814086
vt 0.482281 0.782775
vt 0.533886 0.782775
vt 0.482281 0.751464
vt 0.533886 0.751464
vt 0.482282 0.720153
vt 0.533886 0.720153
vt 0.482282 0.688842
vt 0.533886 0.688842
vt 0.482282 0.657531
vt 0.533887 0.657531
vt 0.482282 0.626220
vt 0.533887 0.626220
vt 0.482282 0.594909
vt 0.533887 0.594909
vt 0.482282 0.563598
vt 0.533887 0.563598
vt 0.482283 0.532287
vt 0.533887 0.532287
vt 0.482283 0.500976
vt 0.533888 0.500976
vt 0.482283 0.469665
vt 0.533888 0.469665
vt 0.254443 0.805197
vt 0.224941 0.786659
vt 0.269101 0.786817
vt 0.244463 0.762180
vt 0.287481 0.772160
vt 0.268943 0.742658
vt 0.308661 0.761960
vt 0.297154 0.729072
vt 0.331581 0.756729
vt 0.327680 0.722105
vt 0.355089 0.756729
vt 0.358991 0.722105
vt 0.378009 0.761960
vt 0.389517 0.729073
vt 0.399189 0.772160
vt 0.417727 0.742658
vt 0.417569 0.786818
vt 0.442207 0.762181
vt 0.432226 0.805198
vt 0.461729 0.786661
s 1
usemtl 
f 29/1/1 30/2/2 28/3/2 1/4/1
f 31/5/3 29/1/1 1/4/1 2/6/3
f 32/7/4 31/5/3 2/6/3 3/8/4
f 33/9/5 32/7/4 3/8/4 4/10/5
f 34/11/6 33/9/5 4/10/5 5/12/6
f 35/13/7 34/11/6 5/12/6 6/14/7
f 36/15/8 35/13/7 6/14/7 7/16/8
f 37/17/9 36/15/8 7/16/8 8/18/9
f 38/19/10 37/17/9 8/18/9 9/20/10
f 39/21/11 38/19/10 9/20/10 10/22/11
f 40/23/12 39/21/11 10/22/11 11/24/12
f 41/25/13 40/23/12 11/24/12 12/26/13
f 42/27/14 41/25/13 12/26/13 13/28/14
f 43/29/15 42/27/14 13/28/14 14/30/15
f 44/31/16 43/29/15 14/30/15 15/32/16
f 45/33/17 44/31/16 15/32/16 16/34/17
f 46/35/18 45/33/17 16/34/17 17/36/18
f 47/37/19 46/35/18 17/36/18 18/38/19
f 48/39/20 47/37/19 18/38/19 19/40/20
f 49/41/21 48/39/20 19/40/20 20/42/21
f 50/43/22 49/41/21 20/42/21 21/44/22
f 51/45/23 50/43/22 21/44/22 22/46/23
f 52/47/24 51/45/23 22/46/23 23/48/24
f 53/49/25 52/47/24 23/48/24 24/50/25
f 54/51/26 53/49/25 24/50/25 25/52/26
f 55/53/27 54/51/26 25/52/26 26/54/27
f 56/55/28 55/53/27 26/54/27 27/56/28
f 30/2/2 56/55/28 27/56/28 28/3/2
f 18/57/29 94/58/29 96/59/29 19/60/29
f 30/61/30 29/62/30 57/63/30 60/64/30
f 29/62/30 31/65/30 61/66/30 57/63/30
f 18/57/29 17/67/29 92/68/29 94/58/29
f 31/65/30 32/69/30 63/70/30 61/66/30
f 32/69/30 33/71/30 65/72/30 63/70/30
f 17/67/29 16/73/29 90/74/29 92/68/29
f 33/71/30 34/75/30 67/76/30 65/72/30
f 34/75/30 35/77/30 69/78/30 67/76/30
f 16/73/29 15/79/29 88/80/29 90/74/29
f 35/77/30 36/81/30 71/82/30 69/78/30
f 36/81/30 37/83/30 73/84/30 71/82/30
f 15/79/29 14/85/29 86/86/29 88/80/29
f 37/83/30 38/87/30 75/88/30 73/84/30
f 38/87/30 39/89/30 77/90/30 75/88/30
f 14/85/29 13/91/29 84/92/29 86/86/29
f 39/89/30 40/93/30 79/94/30 77/90/30
f 40/93/30 41/95/30 81/96/30 79/94/30
f 13/91/29 12/97/29 82/98/29 84/92/29
f 41/95/30 42/99/30 83/100/30 81/96/30
f 42/99/30 43/101/30 85/102/30 83/100/30
f 12/97/29 11/103/29 80/104/29 82/98/29
f 43/101/30 44/105/30 87/106/30 85/102/30
f 44/105/30 45/107/30 89/108/30 87/106/30
f 11/103/29 10/109/29 78/110/29 80/104/29
f 25/111/29 108/112/29 110/113/29 26/114/29
f 26/114/29 110/113/29 112/115/29 27/116/29
f 1/117/29 58/118/29 62/119/29 2/120/29
f 27/116/29 112/115/29 59/121/29 28/122/29
f 56/123/30 30/61/30 60/64/30 111/124/30
f 2/120/29 62/119/29 64/125/29 3/126/29
f 3/126/29 64/125/29 66/127/29 4/128/29
f 4/128/29 66/127/29 68/129/29 5/130/29
f 5/130/29 68/129/29 70/131/29 6/132/29
f 19/60/29 96/59/29 98/133/29 20/134/29
f 6/132/29 70/131/29 72/135/29 7/136/29
f 20/134/29 98/133/29 100/137/29 21/138/29
f 7/136/29 72/135/29 74/139/29 8/140/29
f 21/138/29 100/137/29 102/141/29 22/142/29
f 8/140/29 74/139/29 76/143/29 9/144/29
f 22/142/29 102/141/29 104/145/29 23/146/29
f 10/109/29 9/144/29 76/143/29 78/110/29
f 23/146/29 104/145/29 106/147/29 24/148/29
f 24/148/29 106/147/29 108/112/29 25/111/29
f 57/149/16 58/150/16 59/151/15 60/152/15
f 61/153/17 62/154/17 58/150/16 57/149/16
f 63/155/18 64/156/18 62/154/17 61/153/17
f 65/157/19 66/158/19 64/156/18 63/155/18
f 67/159/20 68/160/20 66/158/19 65/157/19
f 69/161/21 70/162/21 68/160/20 67/159/20
f 71/163/22 72/164/22 70/162/21 69/161/21
f 73/165/23 74/166/23 72/164/22 71/163/22
f 75/167/24 76/168/24 74/166/23 73/165/23
f 77/169/25 78/170/25 76/168/24 75/167/24
f 79/171/26 80/172/26 78/170/25 77/169/25
f 81/173/27 82/174/27 80/172/26 79/171/26
f 83/175/28 84/176/28 82/174/27 81/173/27
f 85/177/2 86/178/2 84/176/28 83/175/28
f 87/106/1 88/80/1 86/86/2 85/102/2
f 89/179/3 90/180/3 88/80/1 87/106/1
f 91/181/4 92/182/4 90/180/3 89/179/3
f 93/183/5 94/184/5 92/182/4 91/181/4
f 95/185/6 96/186/6 94/184/5 93/183/5
f 97/187/7 98/188/7 96/186/6 95/185/6
f 99/189/8 100/190/8 98/188/7 97/187/7
f 101/191/9 102/192/9 100/190/8 99/189/8
f 103/193/10 104/194/10 102/192/9 101/191/9
f 105/195/11 106/196/11 104/194/10 103/193/10
f 107/197/12 108/198/12 106/196/11 105/195/11
f 109/199/13 110/200/13 108/198/12 107/197/12
f 111/201/14 112/202/14 110/200/13 109/199/13
f 60/152/15 59/151/15 112/202/14 111/201/14
f 55/203/30 56/123/30 111/124/30 109/204/30
f 54/205/30 55/203/30 109/204/30 107/206/30
f 53/207/30 54/205/30 107/206/30 105/208/30
f 52/209/30 53/207/30 105/208/30 103/210/30
f 51/211/30 52/209/30 103/210/30 101/212/30
f 50/213/30 51/211/30 101/212/30 99/214/30
f 49/215/30 50/213/30 99/214/30 97/216/30
f 48/217/30 49/215/30 97/216/30 95/218/30
f 47/219/30 48/217/30 95/218/30 93/220/30
f 46/221/30 47/219/30 93/220/30 91/222/30
f 45/107/30 46/221/30 91/222/30 89/108/30
f 28/122/29 59/121/29 58/118/29 1/117/29
