# Blender 4.2.4 LTS
# www.blender.org
mtllib TUBE_001.mtl
o TUBE.001
v 35.122459 0.353575 15.522147
v 35.239979 0.689420 15.522147
v 35.429283 0.990696 15.522147
v 35.680882 1.242293 15.522147
v 35.982155 1.431597 15.522147
v 36.318001 1.549114 15.522147
v 36.671577 1.588952 15.522147
v 37.025154 1.549114 15.522147
v 37.361000 1.431596 15.522147
v 37.662273 1.242292 15.522147
v 37.913868 0.990694 15.522147
v 38.103176 0.689419 15.522147
v 38.220692 0.353573 15.522147
v 38.260529 -0.000002 15.522147
v 38.220692 -0.353578 15.522147
v 38.103172 -0.689423 15.522147
v 37.913868 -0.990698 15.522147
v 37.662270 -1.242295 15.522147
v 37.360992 -1.431598 15.522147
v 37.025146 -1.549116 15.522147
v 36.671574 -1.588953 15.522147
v 36.317997 -1.549114 15.522147
v 35.982151 -1.431597 15.522147
v 35.680878 -1.242292 15.522147
v 35.429283 -0.990694 15.522147
v 35.239979 -0.689419 15.522147
v 35.122459 -0.353573 15.522147
v 35.082623 0.000002 15.522147
v 35.122459 0.353576 -15.522171
v 35.239979 0.689422 -15.522171
v 35.429283 0.990697 -15.522171
v 35.680882 1.242294 -15.522171
v 35.982155 1.431598 -15.522171
v 36.318001 1.549115 -15.522171
v 36.671577 1.588954 -15.522171
v 37.025154 1.549115 -15.522171
v 37.361000 1.431597 -15.522171
v 37.662273 1.242293 -15.522171
v 37.913868 0.990695 -15.522171
v 38.103176 0.689420 -15.522171
v 38.220692 0.353574 -15.522171
v 38.260529 -0.000001 -15.522171
v 38.220692 -0.353576 -15.522171
v 38.103172 -0.689422 -15.522171
v 37.913868 -0.990697 -15.522171
v 37.662270 -1.242294 -15.522171
v 37.360992 -1.431597 -15.522171
v 37.025146 -1.549114 -15.522171
v 36.671574 -1.588952 -15.522171
v 36.317997 -1.549113 -15.522171
v 35.982151 -1.431595 -15.522171
v 35.680878 -1.242291 -15.522171
v 35.429283 -0.990693 -15.522171
v 35.239979 -0.689418 -15.522171
v 35.122459 -0.353572 -15.522171
v 35.082623 0.000003 -15.522171
vn 0.9749 -0.2225 -0.0000
vn 0.9010 -0.4339 -0.0000
vn 0.7818 -0.6235 -0.0000
vn 0.6235 -0.7818 -0.0000
vn 0.4339 -0.9010 -0.0000
vn 0.2225 -0.9749 -0.0000
vn -0.0000 -1.0000 -0.0000
vn -0.2225 -0.9749 -0.0000
vn -0.4339 -0.9010 -0.0000
vn -0.6235 -0.7818 -0.0000
vn -0.7818 -0.6235 -0.0000
vn -0.9010 -0.4339 -0.0000
vn -0.9749 -0.2225 -0.0000
vn -1.0000 -0.0000 -0.0000
vn -0.9749 0.2225 -0.0000
vn -0.9010 0.4339 -0.0000
vn -0.7818 0.6235 -0.0000
vn -0.6235 0.7818 -0.0000
vn -0.4339 0.9010 -0.0000
vn -0.2225 0.9749 -0.0000
vn -0.0000 1.0000 -0.0000
vn 0.2225 0.9749 -0.0000
vn 0.4339 0.9010 -0.0000
vn 0.6235 0.7818 -0.0000
vn 0.7818 0.6235 -0.0000
vn 0.9010 0.4339 -0.0000
vn 0.9749 0.2225 -0.0000
vn 1.0000 -0.0000 -0.0000
vt 0.022923 1.000000
vt 0.034384 1.000000
vt 0.034384 -0.000000
vt 0.022923 -0.000000
vt 0.011461 1.000000
vt 0.011461 -0.000000
vt 0.000000 1.000000
vt 0.000000 -0.000000
vt 0.309459 1.000000
vt 0.320920 1.000000
vt 0.320920 0.000000
vt 0.309459 0.000000
vt 0.297997 1.000000
vt 0.297997 0.000000
vt 0.286536 1.000000
vt 0.286536 0.000000
vt 0.275074 1.000000
vt 0.275074 0.000000
vt 0.263613 1.000000
vt 0.263613 0.000000
vt 0.252152 1.000000
vt 0.252152 0.000000
vt 0.240690 1.000000
vt 0.240690 0.000000
vt 0.229229 1.000000
vt 0.229229 0.000000
vt 0.217767 1.000000
vt 0.217767 0.000000
vt 0.206306 1.000000
vt 0.206306 0.000000
vt 0.194844 1.000000
vt 0.194844 0.000000
vt 0.183383 1.000000
vt 0.183383 0.000000
vt 0.171921 1.000000
vt 0.171921 0.000000
vt 0.160460 1.000000
vt 0.160460 0.000000
vt 0.148999 1.000000
vt 0.148999 0.000000
vt 0.137537 1.000000
vt 0.137537 0.000000
vt 0.126076 1.000000
vt 0.126076 -0.000000
vt 0.114614 1.000000
vt 0.114614 0.000000
vt 0.103153 1.000000
vt 0.103153 0.000000
vt 0.091691 1.000000
vt 0.091691 -0.000000
vt 0.080230 1.000000
vt 0.080230 -0.000000
vt 0.068769 1.000000
vt 0.068769 -0.000000
vt 0.057307 1.000000
vt 0.057307 -0.000000
vt 0.045846 1.000000
vt 0.045846 -0.000000
s 1
usemtl 
f 1/1/1 28/2/28 56/3/28 29/4/1
f 2/5/2 1/1/1 29/4/1 30/6/2
f 3/7/3 2/5/2 30/6/2 31/8/3
f 4/9/4 3/10/3 31/11/3 32/12/4
f 5/13/5 4/9/4 32/12/4 33/14/5
f 6/15/6 5/13/5 33/14/5 34/16/6
f 7/17/7 6/15/6 34/16/6 35/18/7
f 8/19/8 7/17/7 35/18/7 36/20/8
f 9/21/9 8/19/8 36/20/8 37/22/9
f 10/23/10 9/21/9 37/22/9 38/24/10
f 11/25/11 10/23/10 38/24/10 39/26/11
f 12/27/12 11/25/11 39/26/11 40/28/12
f 13/29/13 12/27/12 40/28/12 41/30/13
f 14/31/14 13/29/13 41/30/13 42/32/14
f 15/33/15 14/31/14 42/32/14 43/34/15
f 16/35/16 15/33/15 43/34/15 44/36/16
f 17/37/17 16/35/16 44/36/16 45/38/17
f 18/39/18 17/37/17 45/38/17 46/40/18
f 19/41/19 18/39/18 46/40/18 47/42/19
f 20/43/20 19/41/19 47/42/19 48/44/20
f 21/45/21 20/43/20 48/44/20 49/46/21
f 22/47/22 21/45/21 49/46/21 50/48/22
f 23/49/23 22/47/22 50/48/22 51/50/23
f 24/51/24 23/49/23 51/50/23 52/52/24
f 25/53/25 24/51/24 52/52/24 53/54/25
f 26/55/26 25/53/25 53/54/25 54/56/26
f 27/57/27 26/55/26 54/56/26 55/58/27
f 28/2/28 27/57/27 55/58/27 56/3/28
